<?xml version="1.0" encoding="UTF-8" standalone="no"?>
<svg
   width="64"
   height="64"
   viewBox="0 0 64 64"
   fill="none"
   version="1.1"
   id="svg4"
   xml:space="preserve"
   xmlns:xlink="http://www.w3.org/1999/xlink"
   xmlns="http://www.w3.org/2000/svg"
   xmlns:svg="http://www.w3.org/2000/svg"><defs
     id="defs4"><linearGradient
       id="linearGradient60"><stop
         style="stop-color:#000000;stop-opacity:0.69999999;"
         offset="0"
         id="stop58" /><stop
         style="stop-color:#000000;stop-opacity:0;"
         offset="0.5"
         id="stop59" /><stop
         style="stop-color:#000000;stop-opacity:0;"
         offset="1"
         id="stop60" /></linearGradient><linearGradient
       id="linearGradient57"><stop
         style="stop-color:#000000;stop-opacity:0.69999999;"
         offset="0"
         id="stop55" /><stop
         style="stop-color:#000000;stop-opacity:0;"
         offset="0.5"
         id="stop56" /><stop
         style="stop-color:#000000;stop-opacity:0;"
         offset="1"
         id="stop57" /></linearGradient><linearGradient
       id="linearGradient54"><stop
         style="stop-color:#000000;stop-opacity:0;"
         offset="0"
         id="stop50" /><stop
         style="stop-color:#000000;stop-opacity:0;"
         offset="0.25"
         id="stop51" /><stop
         style="stop-color:#000000;stop-opacity:0.69999999;"
         offset="0.5"
         id="stop52" /><stop
         style="stop-color:#000000;stop-opacity:0;"
         offset="0.75"
         id="stop53" /><stop
         style="stop-color:#000000;stop-opacity:0;"
         offset="1"
         id="stop54" /></linearGradient><linearGradient
       id="linearGradient49"><stop
         style="stop-color:#6768ff;stop-opacity:1;"
         offset="0.07150608"
         id="stop46" /><stop
         style="stop-color:#5865f2;stop-opacity:1;"
         offset="0.10302322"
         id="stop47" /><stop
         style="stop-color:#5865f2;stop-opacity:1;"
         offset="0.93603706"
         id="stop48" /><stop
         style="stop-color:#6783e6;stop-opacity:1;"
         offset="0.96933085"
         id="stop49" /></linearGradient><linearGradient
       id="linearGradient26"><stop
         style="stop-color:#4c50de;stop-opacity:1;"
         offset="0"
         id="stop8" /><stop
         style="stop-color:#5865f2;stop-opacity:1;"
         offset="1"
         id="stop25" /></linearGradient><radialGradient
       xlink:href="#linearGradient60"
       id="radialGradient20-5"
       gradientUnits="userSpaceOnUse"
       gradientTransform="matrix(-0.25212975,0,1.4684323e-4,-0.07780503,-163.2261,162.07617)"
       cx="120.21644"
       cy="476.52661"
       fx="120.21644"
       fy="476.52661"
       r="33.846573" /><radialGradient
       xlink:href="#linearGradient57"
       id="radialGradient14-6"
       cx="120.21644"
       cy="476.52661"
       fx="120.21644"
       fy="476.52661"
       r="33.846573"
       gradientTransform="matrix(-0.25212975,0,1.4684323e-4,-0.07780503,176.77391,162.07617)"
       gradientUnits="userSpaceOnUse" /><linearGradient
       xlink:href="#linearGradient54"
       id="linearGradient31-6"
       x1="64"
       y1="124"
       x2="64"
       y2="116"
       gradientUnits="userSpaceOnUse"
       gradientTransform="matrix(0.533358,0,0,0.65835786,135.86361,45.997056)" /><linearGradient
       xlink:href="#linearGradient26"
       id="linearGradient44"
       x1="170"
       y1="117"
       x2="170"
       y2="72"
       gradientUnits="userSpaceOnUse"
       gradientTransform="translate(-138,-64)" /><linearGradient
       xlink:href="#linearGradient49"
       id="linearGradient46"
       x1="170"
       y1="118.5"
       x2="170"
       y2="70.441406"
       gradientUnits="userSpaceOnUse"
       gradientTransform="translate(-138,-64)" /></defs><g
     id="g64"
     transform="translate(-138,-64)"><rect
       style="opacity:0.4;fill:url(#radialGradient20-5);stroke:none;stroke-width:0.289228;stroke-dasharray:none;stroke-opacity:0.07;paint-order:markers fill stroke"
       id="rect20-9"
       width="8.5337276"
       height="5.2668681"
       x="-202"
       y="122.36657"
       ry="0"
       transform="scale(-1,1)" /><rect
       style="opacity:0.4;fill:url(#radialGradient14-6);stroke:none;stroke-width:0.289228;stroke-dasharray:none;stroke-opacity:0.07;paint-order:markers fill stroke"
       id="rect12-3"
       width="8.5337276"
       height="5.2668681"
       x="138.00002"
       y="122.36657"
       ry="0" /><rect
       style="opacity:0.4;fill:url(#linearGradient31-6);fill-opacity:1;stroke:none;stroke-width:0.617458;stroke-linecap:round;stroke-linejoin:round;stroke-dasharray:none;stroke-opacity:0.3;paint-order:normal"
       id="rect24-9"
       width="46.935505"
       height="5.2668629"
       x="146.53078"
       y="122.36657"
       rx="0"
       ry="0" /></g><path
     id="path49"
     style="fill:#5865f2;fill-opacity:1;stroke:#000000;stroke-width:1;stroke-linecap:round;stroke-dasharray:none;stroke-opacity:0.296742"
     d="m 10.5,6 c -3.324,0 -6,2.582037 -6,5.789062 V 48.71094 C 4.5,51.91796 7.176,54.5 10.5,54.5 H 33.96484 L 46.5,61 v -6.5 h 7 c 3.324,0 6,-2.58204 6,-5.78906 V 11.789062 C 59.5,8.582037 56.824,6 53.5,6 Z" /><path
     id="path40"
     style="fill:url(#linearGradient46);fill-opacity:1;stroke:none;stroke-width:1;stroke-linecap:round;stroke-dasharray:none;stroke-opacity:0.15"
     d="m 10.5,6.441406 c -3.047,0 -5.5,2.363956 -5.5,5.300112 V 48.69989 C 5,51.63605 7.453,54 10.5,54 H 34 l 12,6 v -6 h 7.5 C 56.547,54 59,51.63605 59,48.69989 V 11.741518 C 59,8.805362 56.547,6.441406 53.5,6.441406 Z" /><path
     id="path43"
     style="fill:url(#linearGradient44);fill-opacity:1;stroke:none;stroke-width:1;stroke-linecap:round;stroke-dasharray:none;stroke-opacity:0.15"
     d="m 11,7.322266 c -2.77,0 -5,2.144451 -5,4.80664 V 48.19531 C 6,50.8575 8.23,53 11,53 h 23 l 11,5.5 V 53 h 8 c 2.77,0 5,-2.1425 5,-4.80469 V 12.128906 c 0,-2.662189 -2.23,-4.80664 -5,-4.80664 z" /><path
     fill="#ffffff"
     d="m 45.79081,19.95936 a 32.859988,32.859988 0 0 0 -8.19703,-2.521922 22.519169,22.519169 0 0 0 -1.05002,2.134414 30.525569,30.525569 0 0 0 -9.09704,0 22.616046,22.616046 0 0 0 -1.05002,-2.134414 33.091241,33.091241 0 0 0 -8.20328,2.528172 c -5.18759,7.675144 -6.59387,15.159659 -5.89073,22.53793 v 0 a 33.041241,33.041241 0 0 0 10.05331,5.04697 24.281703,24.281703 0 0 0 2.15316,-3.47194 21.381649,21.381649 0 0 1 -3.39069,-1.61878 c 0.28439,-0.20626 0.56251,-0.41876 0.83127,-0.62502 a 23.616066,23.616066 0 0 0 20.10038,0 c 0.27187,0.22188 0.55001,0.43439 0.83127,0.62502 a 21.4629,21.4629 0 0 1 -3.39694,1.6219 24.062949,24.062949 0 0 0 2.15316,3.46882 32.891238,32.891238 0 0 0 10.05956,-5.04385 v 0 c 0.82501,-8.556412 -1.4094,-15.972176 -5.90636,-22.5473 z m -20.391,18.00659 c -1.95941,0 -3.5782,-1.77816 -3.5782,-3.965702 0,-2.187541 1.56253,-3.981324 3.57194,-3.981324 2.00942,0 3.6157,1.793783 3.58132,3.981324 -0.0343,2.187542 -1.57815,3.965702 -3.57506,3.965702 z m 13.20024,0 c -1.96253,0 -3.57506,-1.77816 -3.57506,-3.965702 0,-2.187541 1.56252,-3.981324 3.57506,-3.981324 2.01254,0 3.60632,1.793783 3.57194,3.981324 -0.0343,2.187542 -1.57503,3.965702 -3.57194,3.965702 z"
     id="path36"
     style="fill:#000000;fill-opacity:0.300635;stroke-width:0.312505" /><path
     fill="#ffffff"
     d="m 26.66016,16.884766 -0.34766,0.06055 c -2.87531,0.490267 -5.67355,1.351042 -8.32617,2.564453 l -0.12891,0.05859 -0.0781,0.117187 c -5.26382,7.787921 -6.689,15.368897 -5.97461,22.865234 l 0.0215,0.22266 0.17969,0.13281 c 3.08394,2.27856 6.53541,4.01116 10.20508,5.12305 l 0.33593,0.10156 0.20899,-0.28125 c 0.83065,-1.1172 1.5675,-2.30402 2.19922,-3.54492 l 0.2539,-0.49805 -0.52343,-0.19726 c -0.86098,-0.32157 -1.70106,-0.69898 -2.51172,-1.13086 6.25162,2.79015 13.39214,2.79169 19.64453,0.004 -0.81032,0.43157 -1.64953,0.80938 -2.50977,1.13086 l -0.52343,0.19727 0.2539,0.49805 c 0.63093,1.24029 1.36555,2.42498 2.19727,3.54101 l 0.20898,0.28125 0.33594,-0.10156 c 3.67306,-1.10751 7.12821,-2.8403 10.21289,-5.12109 l 0.17969,-0.13282 0.0215,-0.2207 C 53.03267,33.870918 50.76238,26.341993 46.20318,19.675881 L 46.125,19.5625 46,19.503907 C 43.34979,18.290578 40.55153,17.43153 37.67773,16.945313 l -0.34765,-0.06055 -0.17188,0.308594 c -0.334,0.597078 -0.63626,1.211238 -0.91601,1.835937 -2.81866,-0.389634 -5.67549,-0.389634 -8.49414,0 -0.27983,-0.624594 -0.58219,-1.238843 -0.91602,-1.835937 z m -1.26758,13.634766 c 1.7027,0 3.11237,1.541957 3.08203,3.472656 -0.0305,1.942328 -1.39288,3.474612 -3.07422,3.474612 -1.65554,0 -3.07812,-1.526883 -3.07812,-3.4668 0,-1.942256 1.36762,-3.480468 3.07031,-3.480468 z m 13.20703,0 c 1.7063,0 3.10264,1.539933 3.07226,3.472656 -0.0305,1.942644 -1.39092,3.474612 -3.07226,3.474612 -1.65796,0 -3.07422,-1.526768 -3.07422,-3.4668 0,-1.934697 1.3772,-3.480468 3.07422,-3.480468 z"
     id="path37"
     style="fill:none;fill-opacity:0.118271;stroke:#000000;stroke-width:1;stroke-dasharray:none;stroke-opacity:0.15" /><path
     fill="#ffffff"
     d="m 45.79081,18.959654 a 32.859988,32.859988 0 0 0 -8.19703,-2.521922 22.519169,22.519169 0 0 0 -1.05002,2.134414 30.525569,30.525569 0 0 0 -9.09704,0 22.616046,22.616046 0 0 0 -1.05002,-2.134414 33.091241,33.091241 0 0 0 -8.20328,2.528172 c -5.18759,7.675144 -6.59387,15.159659 -5.89073,22.537926 v 0 A 33.041241,33.041241 0 0 0 22.356,46.5508 24.281703,24.281703 0 0 0 24.50916,43.07886 21.381649,21.381649 0 0 1 21.11847,41.46008 c 0.28439,-0.20626 0.56251,-0.41876 0.83127,-0.62502 a 23.616066,23.616066 0 0 0 20.10038,0 c 0.27187,0.22188 0.55001,0.43439 0.83127,0.62502 a 21.4629,21.4629 0 0 1 -3.39694,1.6219 24.062949,24.062949 0 0 0 2.15316,3.46882 32.891238,32.891238 0 0 0 10.05956,-5.04385 v 0 c 0.82501,-8.556408 -1.4094,-15.972172 -5.90636,-22.547296 z m -20.391,18.006586 c -1.95941,0 -3.5782,-1.778157 -3.5782,-3.965698 0,-2.187541 1.56253,-3.981324 3.57194,-3.981324 2.00942,0 3.6157,1.793783 3.58132,3.981324 -0.0343,2.187541 -1.57815,3.965698 -3.57506,3.965698 z m 13.20024,0 c -1.96253,0 -3.57506,-1.778157 -3.57506,-3.965698 0,-2.187541 1.56252,-3.981324 3.57506,-3.981324 2.01254,0 3.60632,1.793783 3.57194,3.981324 -0.0343,2.187541 -1.57503,3.965698 -3.57194,3.965698 z"
     id="path1-6-3"
     style="fill:#b7cce0;fill-opacity:1;stroke-width:0.312505" /><path
     id="path35"
     style="fill:#ffffff;fill-opacity:1;stroke-width:0.312505"
     d="m 26.39648,16.4375 a 33.091241,33.091241 0 0 0 -8.20312,2.529297 c -4.21491,6.236049 -5.93357,12.345383 -6.05274,18.375003 10e-4,0.13009 -0.003,0.2606 0,0.39062 0.0187,0.92577 0.0742,1.8492 0.16211,2.77149 a 33.041241,33.041241 0 0 0 10.05274,5.04687 24.281703,24.281703 0 0 0 1.69922,-2.66601 21.381649,21.381649 0 0 1 -2.93555,-1.42383 C 21.386,41.2674 21.64518,41.06922 21.89844,40.875 a 21.381649,21.381649 0 0 1 -0.7793,-0.41601 c 0.28439,-0.20626 0.56132,-0.41875 0.83008,-0.625 a 23.616066,23.616066 0 0 0 20.10156,0 c 0.27187,0.22187 0.54882,0.43437 0.83008,0.625 a 21.4629,21.4629 0 0 1 -0.7793,0.41601 c 0.25582,0.20707 0.51538,0.40706 0.7793,0.58594 a 21.4629,21.4629 0 0 1 -2.94141,1.42773 24.062949,24.062949 0 0 0 1.69727,2.66211 32.891238,32.891238 0 0 0 10.06055,-5.04492 c 0.093,-0.96406 0.14178,-1.91017 0.1582,-2.8457 -0.0787,-6.956806 -2.25588,-13.13256 -6.06445,-18.701175 a 32.859988,32.859988 0 0 0 -8.19727,-2.521485 22.519169,22.519169 0 0 0 -1.05078,2.134766 30.525569,30.525569 0 0 0 -9.0957,0 22.616046,22.616046 0 0 0 -1.05079,-2.134766 z m -1.0039,11.582032 c 2.00942,0 3.61641,1.79293 3.58203,3.980468 -0.002,0.151658 -0.0128,0.301953 -0.0293,0.449219 0.0204,0.180797 0.0323,0.363321 0.0293,0.550781 -0.0343,2.187539 -1.57731,3.9668 -3.57422,3.9668 -1.95941,0 -3.57812,-1.779261 -3.57812,-3.9668 0,-0.170591 0.0128,-0.336815 0.0312,-0.501953 -0.0187,-0.163233 -0.0312,-0.329314 -0.0312,-0.498047 0,-2.187538 1.5609,-3.980468 3.57031,-3.980468 z m 13.20703,0 c 2.01254,0 3.60664,1.79293 3.57227,3.980468 -0.002,0.151658 -0.0128,0.301953 -0.0293,0.449219 0.0202,0.180797 0.0322,0.363321 0.0293,0.550781 -0.0343,2.187539 -1.57536,3.9668 -3.57227,3.9668 -1.96253,0 -3.57422,-1.779261 -3.57422,-3.9668 0,-0.170591 0.0128,-0.336815 0.0312,-0.501953 -0.0186,-0.163233 -0.0312,-0.329314 -0.0312,-0.498047 0,-2.187538 1.56168,-3.980468 3.57422,-3.980468 z" /></svg>
