<?xml version="1.0" encoding="UTF-8" standalone="no"?>
<svg
   version="1.1"
   width="32"
   height="32"
   id="svg6860"
   xml:space="preserve"
   xmlns:xlink="http://www.w3.org/1999/xlink"
   xmlns="http://www.w3.org/2000/svg"
   xmlns:svg="http://www.w3.org/2000/svg"
   xmlns:rdf="http://www.w3.org/1999/02/22-rdf-syntax-ns#"
   xmlns:cc="http://creativecommons.org/ns#"
   xmlns:dc="http://purl.org/dc/elements/1.1/"><defs
     id="defs6862"><linearGradient
       id="linearGradient31"><stop
         style="stop-color:#ffffff;stop-opacity:1;"
         offset="0"
         id="stop31" /><stop
         style="stop-color:#ffffff;stop-opacity:0;"
         offset="1"
         id="stop34" /></linearGradient><linearGradient
       id="linearGradient3924-0"><stop
         id="stop3926-6"
         style="stop-color:#ffffff;stop-opacity:1"
         offset="0" /><stop
         id="stop3928-3"
         style="stop-color:#ffffff;stop-opacity:0.23529412"
         offset="0.06249999" /><stop
         id="stop3930-2"
         style="stop-color:#ffffff;stop-opacity:0.15686275"
         offset="0.93749994" /><stop
         id="stop3932-62"
         style="stop-color:#ffffff;stop-opacity:0.39215687"
         offset="1" /></linearGradient><linearGradient
       xlink:href="#linearGradient2"
       id="linearGradient930-9-2"
       x1="16.767664"
       y1="2.7676599"
       x2="16.767664"
       y2="29.896721"
       gradientUnits="userSpaceOnUse"
       gradientTransform="translate(4.1936035e-6)" /><linearGradient
       x1="23.99999"
       y1="6.2399855"
       x2="23.99999"
       y2="41.759987"
       id="linearGradient4161-0-2"
       xlink:href="#linearGradient3924-0"
       gradientUnits="userSpaceOnUse"
       gradientTransform="matrix(0.67567568,0,0,0.67567568,-0.21621281,-0.21620614)" /><linearGradient
       id="linearGradient3688-166-749"><stop
         offset="0"
         style="stop-color:#181818;stop-opacity:1"
         id="stop2883" /><stop
         offset="1"
         style="stop-color:#181818;stop-opacity:0"
         id="stop2885" /></linearGradient><linearGradient
       id="linearGradient3702-501-757"><stop
         offset="0"
         style="stop-color:#181818;stop-opacity:0"
         id="stop2895" /><stop
         offset="0.5"
         style="stop-color:#181818;stop-opacity:1"
         id="stop2897" /><stop
         offset="1"
         style="stop-color:#181818;stop-opacity:0"
         id="stop2899" /></linearGradient><linearGradient
       id="linearGradient2"><stop
         style="stop-color:#fafafa;stop-opacity:1;"
         offset="0"
         id="stop7" /><stop
         style="stop-color:#7e8087;stop-opacity:1;"
         offset="1"
         id="stop8-5" /></linearGradient><linearGradient
       id="linearGradient1"><stop
         style="stop-color:#c6262e;stop-opacity:1;"
         offset="0"
         id="stop4" /><stop
         style="stop-color:#f37329;stop-opacity:1;"
         offset="0.5"
         id="stop6" /><stop
         style="stop-color:#f9c440;stop-opacity:1;"
         offset="1"
         id="stop5" /></linearGradient><linearGradient
       id="linearGradient870"><stop
         id="stop866"
         offset="0"
         style="stop-color:#3a465a;stop-opacity:1;" /><stop
         id="stop868"
         offset="1"
         style="stop-color:#182027;stop-opacity:1;" /></linearGradient><linearGradient
       xlink:href="#linearGradient1"
       id="linearGradient118"
       gradientUnits="userSpaceOnUse"
       x1="25"
       y1="15"
       x2="25"
       y2="35"
       gradientTransform="matrix(0.66666,0,0,0.66666,-0.6664978,-1.9999)" /><linearGradient
       xlink:href="#linearGradient870"
       id="linearGradient11"
       x1="16"
       y1="4.5"
       x2="16"
       y2="27.5"
       gradientUnits="userSpaceOnUse" /><filter
       style="color-interpolation-filters:sRGB"
       id="filter11"
       x="-0.352"
       y="-0.132"
       width="1.704"
       height="1.264"><feGaussianBlur
         stdDeviation="0.22"
         id="feGaussianBlur11" /></filter><filter
       style="color-interpolation-filters:sRGB"
       id="filter15"
       x="-0.19885714"
       y="-0.18559999"
       width="1.3977143"
       height="1.3712"><feGaussianBlur
         stdDeviation="1.16"
         id="feGaussianBlur15" /></filter><linearGradient
       xlink:href="#linearGradient1"
       id="linearGradient18"
       gradientUnits="userSpaceOnUse"
       gradientTransform="matrix(0.66666,0,0,0.66666,-0.6664978,-1.9999)"
       x1="25"
       y1="15"
       x2="25"
       y2="35" /><linearGradient
       xlink:href="#linearGradient31"
       id="linearGradient34"
       x1="16"
       y1="5"
       x2="16"
       y2="23"
       gradientUnits="userSpaceOnUse" /><radialGradient
       xlink:href="#linearGradient3688-166-749"
       id="radialGradient36"
       gradientUnits="userSpaceOnUse"
       gradientTransform="matrix(2.003784,0,0,1.4,27.98813,-17.4)"
       cx="4.9929786"
       cy="43.5"
       fx="4.9929786"
       fy="43.5"
       r="2.5" /><radialGradient
       xlink:href="#linearGradient3688-166-749"
       id="radialGradient37"
       gradientUnits="userSpaceOnUse"
       gradientTransform="matrix(2.003784,0,0,1.4,-20.01187,-104.4)"
       cx="4.9929786"
       cy="43.5"
       fx="4.9929786"
       fy="43.5"
       r="2.5" /><linearGradient
       xlink:href="#linearGradient3702-501-757"
       id="linearGradient38"
       gradientUnits="userSpaceOnUse"
       x1="25.058096"
       y1="47.027729"
       x2="25.058096"
       y2="39.999443" /></defs><metadata
     id="metadata6865"><rdf:RDF><cc:Work
         rdf:about=""><dc:format>image/svg+xml</dc:format><dc:type
           rdf:resource="http://purl.org/dc/dcmitype/StillImage" /></cc:Work></rdf:RDF></metadata><g
     style="opacity:0.4"
     id="g36"
     transform="matrix(0.73684208,0,0,0.57142853,-1.6842099,4.1428584)"><rect
       style="fill:url(#radialGradient36);fill-opacity:1;stroke:none"
       id="rect34"
       y="40"
       x="38"
       height="7"
       width="5" /><rect
       style="fill:url(#radialGradient37);fill-opacity:1;stroke:none"
       id="rect35"
       transform="scale(-1)"
       y="-47"
       x="-10"
       height="7"
       width="5" /><rect
       style="fill:url(#linearGradient38);fill-opacity:1;stroke:none"
       id="rect36"
       y="40"
       x="10"
       height="7.0000005"
       width="28" /></g><rect
     style="color:#000000;font-variation-settings:normal;display:inline;overflow:visible;visibility:visible;opacity:1;vector-effect:none;fill:url(#linearGradient930-9-2);fill-opacity:1;fill-rule:nonzero;stroke:#7e8087;stroke-width:1;stroke-linecap:butt;stroke-linejoin:miter;stroke-miterlimit:4;stroke-dasharray:none;stroke-dashoffset:0;stroke-opacity:0.501961;marker:none;enable-background:accumulate;stop-color:#000000;stop-opacity:1"
     id="rect5505-21-1-2-1"
     y="2.4999962"
     x="2.5"
     ry="3"
     rx="3"
     height="27.000008"
     width="27.000008" /><rect
     style="opacity:0.35;fill:none;stroke:url(#linearGradient4161-0-2);stroke-width:1;stroke-linecap:round;stroke-linejoin:round;stroke-miterlimit:4;stroke-dasharray:none;stroke-dashoffset:0;stroke-opacity:1"
     id="rect6741-7-4-3-8"
     y="3.4999998"
     x="3.5000038"
     ry="2"
     rx="2"
     height="25"
     width="25" /><g
     id="layer4-0"
     transform="matrix(0.9047486,0,0,0.9047486,-594.51497,-685.56047)" /><g
     id="layer4-0-7"
     transform="matrix(0.9047486,0,0,0.9047486,-594.51497,-678.32248)" /><g
     id="layer1-3"
     transform="matrix(0.9047486,0,0,0.9047486,-97.80799,-9.5033369)" /><rect
     style="opacity:1;fill:url(#linearGradient11);stroke:#091825;stroke-linejoin:round;stroke-opacity:0.498039"
     id="rect2"
     width="23"
     height="23"
     x="4.5"
     y="4.5"
     rx="1"
     ry="1" /><g
     id="g11"
     transform="translate(0,1)"><path
       style="fill:url(#linearGradient118);stroke:none;stroke-width:0.66666;stroke-linejoin:round;stroke-opacity:0.497364"
       d="m 14,8 h 4 l 5,13 H 20 L 16,11 12,21 H 9 Z"
       id="path115" /><path
       style="fill:#64baff;stroke:none;stroke-width:0.646724;stroke-linejoin:round;stroke-opacity:0.497364"
       d="m 16,13 -1.5,4 1.5,6 1.5,-6 z"
       id="path116" /><path
       style="fill:#ffffff;fill-opacity:1;stroke:none;stroke-width:0.399996;stroke-linejoin:round;stroke-opacity:0.497364"
       d="m 16,13 -0.75,2 0.75,2 0.75,-2 z"
       id="path117" /><path
       style="fill:#ffffff;fill-opacity:1;stroke:none;stroke-width:0.399996;stroke-linejoin:round;stroke-opacity:0.497364;filter:url(#filter11)"
       d="m 16,13.5 -0.75,2 0.75,2 0.75,-2 z"
       id="path11" /></g><g
     id="g15"
     style="opacity:0.5;filter:url(#filter15)"
     transform="translate(0,0.99999974)"><path
       style="fill:url(#linearGradient18);stroke:none;stroke-width:0.66666;stroke-linejoin:round;stroke-opacity:0.497364"
       d="m 14,8 h 4 l 5,13 H 20 L 16,11 12,21 H 9 Z"
       id="path12" /><path
       style="fill:#64baff;stroke:none;stroke-width:0.646724;stroke-linejoin:round;stroke-opacity:0.497364"
       d="m 16,13 -1.5,4 1.5,6 1.5,-6 z"
       id="path13" /><path
       style="fill:#ffffff;fill-opacity:1;stroke:none;stroke-width:0.399996;stroke-linejoin:round;stroke-opacity:0.497364"
       d="m 16,13 -0.75,2 0.75,2 0.75,-2 z"
       id="path14" /></g><path
     id="path28"
     style="opacity:1;fill:#ffffff;stroke:#0e141f;stroke-linejoin:round;stroke-opacity:0.14902"
     d="M 27,26.5 H 5 m 0,-2 h 22 m 0,-2 H 5 m 0,-2 h 22 m 0,-2 H 5 m 0,-2 h 22 m 0,-2 H 5 m 0,-2 h 22 m 0,-2 H 5 m 0,-2 h 22 m 0,-2 H 5" /><path
     id="path29"
     style="opacity:1;fill:#ffffff;stroke:#0e141f;stroke-linejoin:round;stroke-opacity:0.14902"
     d="M 27,26 H 5 m 0,-2 h 22 m 0,-2 H 5 m 0,-2 h 22 m 0,-2 H 5 m 0,-2 h 22 m 0,-2 H 5 m 0,-2 h 22 m 0,-2 H 5 M 5,8 H 27 M 27,6 H 5" /><path
     id="rect29"
     style="opacity:0.25;fill:url(#linearGradient34);stroke-linejoin:round;stroke-opacity:0.14902"
     d="m 5.5,5 h 21 C 26.777,5 27,5.223 27,5.5 V 19 L 5,23 V 5.5 C 5,5.223 5.223,5 5.5,5 Z" /><g
     id="layer4-0-4"
     transform="matrix(0.9047486,0,0,0.9047486,-594.51497,-685.56047)" /><g
     id="layer4-0-7-9"
     transform="matrix(0.9047486,0,0,0.9047486,-594.51497,-678.32248)" /><g
     id="layer1-3-2"
     transform="matrix(0.9047486,0,0,0.9047486,-97.80799,-9.5033369)" /></svg>
