<?xml version="1.0" encoding="UTF-8" standalone="no"?>
<svg
   version="1.1"
   width="32"
   height="32"
   id="svg6860"
   xml:space="preserve"
   xmlns:xlink="http://www.w3.org/1999/xlink"
   xmlns="http://www.w3.org/2000/svg"
   xmlns:svg="http://www.w3.org/2000/svg"
   xmlns:rdf="http://www.w3.org/1999/02/22-rdf-syntax-ns#"
   xmlns:cc="http://creativecommons.org/ns#"
   xmlns:dc="http://purl.org/dc/elements/1.1/"><defs
     id="defs6862"><linearGradient
       id="linearGradient30"><stop
         style="stop-color:#ffffff;stop-opacity:1;"
         offset="0"
         id="stop30" /><stop
         style="stop-color:#fafafa;stop-opacity:0;"
         offset="1"
         id="stop31" /></linearGradient><linearGradient
       id="linearGradient22"><stop
         id="stop13"
         style="stop-color:#ffffff;stop-opacity:1"
         offset="0" /><stop
         id="stop20"
         style="stop-color:#ffffff;stop-opacity:0.23529412"
         offset="0.13461539" /><stop
         id="stop21"
         style="stop-color:#ffffff;stop-opacity:0.15686275"
         offset="0.86538464" /><stop
         id="stop22"
         style="stop-color:#ffffff;stop-opacity:0.39215687"
         offset="1" /></linearGradient><style
       id="style1">.g{fill:#000;}.g,.h,.i{stroke-width:0px;}.h{fill:url(#e);}.i{fill:#fff;}</style><style
       id="style1-7">.g{fill:#000;}.g,.h,.i{stroke-width:0px;}.h{fill:url(#e);}.i{fill:#fff;}</style><style
       id="style1-5">.g{fill:#000;}.g,.h,.i{stroke-width:0px;}.h{fill:url(#e);}.i{fill:#fff;}</style><style
       id="style1-53">.g{fill:#000;}.g,.h,.i{stroke-width:0px;}.h{fill:url(#e);}.i{fill:#fff;}</style><style
       id="style1-6">.cls-1{fill:#fff;}</style><style
       id="style1-67">.cls-1{fill:#fff;}</style><style
       id="style1-675">.g{fill:#000;}.g,.h,.i{stroke-width:0px;}.h{fill:url(#e);}.i{fill:#fff;}</style><style
       id="style1-7-3">.g{fill:#000;}.g,.h,.i{stroke-width:0px;}.h{fill:url(#e);}.i{fill:#fff;}</style><style
       id="style1-5-5">.g{fill:#000;}.g,.h,.i{stroke-width:0px;}.h{fill:url(#e);}.i{fill:#fff;}</style><linearGradient
       id="linearGradient2-5"><stop
         style="stop-color:#5865f2;stop-opacity:1;"
         offset="0"
         id="stop3-3" /><stop
         style="stop-color:#1f30f4;stop-opacity:1;"
         offset="1"
         id="stop4-5" /></linearGradient><style
       id="style1-3">.g{fill:#000;}.g,.h,.i{stroke-width:0px;}.h{fill:url(#e);}.i{fill:#fff;}</style><style
       id="style1-6-6">.cls-1{fill:#fff;}</style><style
       id="style1-70">.g{fill:#000;}.g,.h,.i{stroke-width:0px;}.h{fill:url(#e);}.i{fill:#fff;}</style><style
       id="style1-6-3">.cls-1{fill:#fff;}</style><linearGradient
       id="linearGradient3820-7-2-2"><stop
         offset="0"
         style="stop-color:#3d3d3d;stop-opacity:1"
         id="stop3822-2-6-36" /><stop
         offset="0.5"
         style="stop-color:#686868;stop-opacity:0.49803922"
         id="stop3864-8-7-6" /><stop
         offset="1"
         style="stop-color:#686868;stop-opacity:0"
         id="stop3824-1-2-4" /></linearGradient><radialGradient
       cx="99.157013"
       cy="186.17059"
       r="62.769119"
       fx="99.157013"
       fy="186.17059"
       id="radialGradient3108-6"
       xlink:href="#linearGradient3820-7-2-2"
       gradientUnits="userSpaceOnUse"
       gradientTransform="matrix(0.21473139,0,0,0.06794726,-5.3136245,15.116856)" /><linearGradient
       xlink:href="#linearGradient22"
       id="linearGradient13"
       x1="16"
       y1="3"
       x2="16"
       y2="29"
       gradientUnits="userSpaceOnUse" /><linearGradient
       xlink:href="#linearGradient2-5"
       id="linearGradient29"
       x1="16"
       y1="3"
       x2="16"
       y2="30"
       gradientUnits="userSpaceOnUse" /><linearGradient
       xlink:href="#linearGradient30"
       id="linearGradient31"
       x1="25.002583"
       y1="30.93301"
       x2="23.779295"
       y2="27.459316"
       gradientUnits="userSpaceOnUse" /></defs><metadata
     id="metadata6865"><rdf:RDF><cc:Work
         rdf:about=""><dc:format>image/svg+xml</dc:format><dc:type
           rdf:resource="http://purl.org/dc/dcmitype/StillImage" /></cc:Work></rdf:RDF></metadata><path
     d="m 29.456998,27.766632 a 13.4785,4.2649887 0 0 1 -26.956998,0 13.4785,4.2649887 0 1 1 26.956998,0 z"
     id="path3818-0-2-5-0"
     style="opacity:0.5;fill:url(#radialGradient3108-6);fill-opacity:1;stroke:none;stroke-width:1.00001" /><path
     d="M 16,1.5 C 7.9918711,1.5 1.5,7.9918711 1.5,16 1.5,24.008129 7.9918711,30.5 16,30.5 17.044272,30.48771 18.084159,30.362632 19.101562,30.126953 20.019731,30.998317 21.234224,31.489 22.5,31.5 c 1.145424,-0.0019 2.255486,-0.396923 3.144531,-1.119141 -0.934808,-0.260914 -1.763682,-0.932468 -2.335937,-1.892578 1.522348,-0.89129 2.869279,-2.052893 3.974609,-3.427734 0.789563,-0.974436 1.449366,-2.047192 1.962891,-3.191406 C 30.068795,20.021615 30.495911,18.022418 30.5,16 30.5,7.9918711 24.008129,1.5 16,1.5 Z"
     style="opacity:1;fill:url(#linearGradient29);stroke:#0a0f9f;stroke-linejoin:round;stroke-opacity:0.501961"
     id="path29" /><path
     class="cls-1"
     d="m 22.594807,11.005912 a 15.713747,15.713747 0 0 0 -3.919845,-1.2059908 10.768736,10.768736 0 0 0 -0.50212,1.0206828 14.597421,14.597421 0 0 0 -4.350235,0 10.815063,10.815063 0 0 0 -0.502122,-1.0206828 15.824334,15.824334 0 0 0 -3.9228304,1.2089798 c -2.480725,3.670277 -3.1532125,7.249394 -2.8169725,10.777702 v 0 a 15.800423,15.800423 0 0 0 4.8075249,2.413476 11.611585,11.611585 0 0 0 1.029653,-1.660292 10.22477,10.22477 0 0 1 -1.621438,-0.774105 c 0.13599,-0.09863 0.268995,-0.200252 0.397513,-0.298883 a 11.293275,11.293275 0 0 0 9.612062,0 c 0.130015,0.106103 0.263015,0.207723 0.39751,0.298883 a 10.263624,10.263624 0 0 1 -1.624425,0.7756 11.506976,11.506976 0 0 0 1.029653,1.658797 15.728691,15.728691 0 0 0 4.810515,-2.411981 v 0 c 0.394522,-4.091702 -0.673978,-7.637942 -2.824443,-10.782186 z m -9.75104,8.610804 c -0.936997,0 -1.711102,-0.85032 -1.711102,-1.896409 0,-1.046088 0.747207,-1.903882 1.708112,-1.903882 0.960908,0 1.729038,0.857794 1.712598,1.903882 -0.01645,1.046089 -0.75468,1.896409 -1.709608,1.896409 z m 6.312395,0 c -0.938487,0 -1.709605,-0.85032 -1.709605,-1.896409 0,-1.046088 0.747205,-1.903882 1.709605,-1.903882 0.962403,0 1.724555,0.857794 1.708115,1.903882 -0.01645,1.046089 -0.753182,1.896409 -1.708115,1.896409 z"
     id="path32"
     style="opacity:0.149715;fill:#000000;fill-opacity:1;stroke:#000000;stroke-width:2;stroke-dasharray:none;stroke-opacity:1" /><path
     class="cls-1"
     d="m 22.594807,11.005912 a 15.713747,15.713747 0 0 0 -3.919845,-1.2059908 10.768736,10.768736 0 0 0 -0.50212,1.0206828 14.597421,14.597421 0 0 0 -4.350235,0 10.815063,10.815063 0 0 0 -0.502122,-1.0206828 15.824334,15.824334 0 0 0 -3.9228304,1.2089798 c -2.480725,3.670277 -3.1532125,7.249394 -2.8169725,10.777702 v 0 a 15.800423,15.800423 0 0 0 4.8075249,2.413476 11.611585,11.611585 0 0 0 1.029653,-1.660292 10.22477,10.22477 0 0 1 -1.621438,-0.774105 c 0.13599,-0.09863 0.268995,-0.200252 0.397513,-0.298883 a 11.293275,11.293275 0 0 0 9.612062,0 c 0.130015,0.106103 0.263015,0.207723 0.39751,0.298883 a 10.263624,10.263624 0 0 1 -1.624425,0.7756 11.506976,11.506976 0 0 0 1.029653,1.658797 15.728691,15.728691 0 0 0 4.810515,-2.411981 v 0 c 0.394522,-4.091702 -0.673978,-7.637942 -2.824443,-10.782186 z m -9.75104,8.610804 c -0.936997,0 -1.711102,-0.85032 -1.711102,-1.896409 0,-1.046088 0.747207,-1.903882 1.708112,-1.903882 0.960908,0 1.729038,0.857794 1.712598,1.903882 -0.01645,1.046089 -0.75468,1.896409 -1.709608,1.896409 z m 6.312395,0 c -0.938487,0 -1.709605,-0.85032 -1.709605,-1.896409 0,-1.046088 0.747205,-1.903882 1.709605,-1.903882 0.962403,0 1.724555,0.857794 1.708115,1.903882 -0.01645,1.046089 -0.753182,1.896409 -1.708115,1.896409 z"
     id="path31"
     style="opacity:0.15;fill:#000000;fill-opacity:1;stroke-width:0.149441" /><path
     class="cls-1"
     d="m 22.594807,10.005912 a 15.713747,15.713747 0 0 0 -3.919845,-1.2059908 10.768736,10.768736 0 0 0 -0.50212,1.020683 14.597421,14.597421 0 0 0 -4.350235,0 10.815063,10.815063 0 0 0 -0.502122,-1.020683 15.824334,15.824334 0 0 0 -3.9228304,1.2089798 c -2.480725,3.670277 -3.1532125,7.249394 -2.8169725,10.777702 v 0 a 15.800423,15.800423 0 0 0 4.8075249,2.413476 11.611585,11.611585 0 0 0 1.029653,-1.660292 10.22477,10.22477 0 0 1 -1.621438,-0.774105 c 0.13599,-0.09863 0.268995,-0.200252 0.397513,-0.298883 a 11.293275,11.293275 0 0 0 9.612062,0 c 0.130015,0.106103 0.263015,0.207723 0.39751,0.298883 a 10.263624,10.263624 0 0 1 -1.624425,0.7756 11.506976,11.506976 0 0 0 1.029653,1.658797 15.728691,15.728691 0 0 0 4.810515,-2.411981 v 0 c 0.394522,-4.091702 -0.673978,-7.637942 -2.824443,-10.782186 z m -9.75104,8.610804 c -0.936997,0 -1.711102,-0.85032 -1.711102,-1.896409 0,-1.046088 0.747207,-1.903882 1.708112,-1.903882 0.960908,0 1.729038,0.857794 1.712598,1.903882 -0.01645,1.046089 -0.75468,1.896409 -1.709608,1.896409 z m 6.312395,0 c -0.938487,0 -1.709605,-0.85032 -1.709605,-1.896409 0,-1.046088 0.747205,-1.903882 1.709605,-1.903882 0.962403,0 1.724555,0.857794 1.708115,1.903882 -0.01645,1.046089 -0.753182,1.896409 -1.708115,1.896409 z"
     id="path1-7"
     style="fill:#abacae;stroke-width:0.149441" /><path
     id="path7"
     style="fill:#d4d4d4;stroke-width:0.149441"
     class="cls-1"
     d="M 13.320312,8.8007812 C 11.966084,9.031828 10.647707,9.4382399 9.3984375,10.009766 7.421946,12.93402 6.5949057,15.799979 6.5097656,18.628906 c 0.01162,0.386532 0.033597,0.772936 0.070312,1.158203 1.453196,1.073 3.0796297,1.88886 4.8085944,2.41211 0.203921,-0.275883 0.395515,-0.560668 0.574219,-0.853516 -0.400604,-0.168385 -0.790066,-0.362137 -1.166016,-0.580078 l 0.396484,-1.298828 c 3.044454,1.431956 6.568827,1.431956 9.613281,0 l 0.396485,1.298828 c -0.377215,0.218663 -0.767981,0.413067 -1.169922,0.582031 0.179273,0.292297 0.371523,0.576435 0.576172,0.851563 1.730046,-0.521118 3.357366,-1.33643 4.810546,-2.410157 0.03953,-0.409966 0.05978,-0.813731 0.07031,-1.21289 C 25.381902,15.40041 24.349014,12.569417 22.5957,10.005859 21.347311,9.4346554 20.02945,9.0295134 18.675778,8.8007812 c -0.185809,0.330731 -0.354012,0.6710492 -0.503906,1.0195313 -1.441734,-0.2172218 -2.907875,-0.2172218 -4.349609,0 C 13.672931,9.471907 13.505381,9.1315935 13.320312,8.8007812 Z m -0.480468,5.0156248 c 0.960908,0 1.72933,0.858209 1.71289,1.904297 -0.0026,0.163784 -0.02452,0.320982 -0.06055,0.472656 0.04188,0.167726 0.06342,0.344548 0.06055,0.527344 -0.01645,1.046089 -0.754056,1.896484 -1.708984,1.896485 -0.936997,0 -1.710938,-0.850396 -1.710938,-1.896485 0,-0.175686 0.02092,-0.34592 0.06055,-0.507812 -0.03859,-0.157478 -0.06055,-0.321431 -0.06055,-0.492188 0,-1.046088 0.746127,-1.904297 1.707032,-1.904297 z m 6.316406,0 c 0.962403,0 1.725424,0.858209 1.708984,1.904297 -0.0026,0.16445 -0.02431,0.322379 -0.06055,0.474609 0.04123,0.167082 0.06341,0.343383 0.06055,0.525391 -0.01645,1.046089 -0.754051,1.896484 -1.708984,1.896485 -0.938487,0 -1.708984,-0.850396 -1.708984,-1.896485 0,-0.175017 0.02121,-0.344519 0.06055,-0.505859 -0.0388,-0.15811 -0.06055,-0.322619 -0.06055,-0.494141 0,-1.046088 0.746584,-1.904297 1.708984,-1.904297 z" /><path
     id="path9"
     style="fill:#fafafa;stroke-width:0.149441"
     class="cls-1"
     d="M 13.320312,8.8007812 C 11.966084,9.031828 10.647707,9.4382399 9.3984375,10.009766 7.5392441,12.760476 6.6937343,15.45971 6.5292969,18.125 c 7.59e-5,0.0013 -7.62e-5,0.0026 0,0.0039 -3.97e-5,6.46e-4 3.95e-5,0.0013 0,0.002 0.012897,0.218979 0.029951,0.437671 0.050781,0.65625 1.453196,1.073 3.0796297,1.88886 4.8085941,2.41211 0.01966,-0.02921 0.0392,-0.05851 0.05859,-0.08789 -0.220879,-0.107386 -0.437816,-0.222695 -0.650391,-0.345703 v -2 c 0.13599,-0.09863 0.267966,-0.200197 0.396484,-0.298828 3.044454,1.431956 6.568828,1.431956 9.613282,0 0.130015,0.106103 0.261989,0.207668 0.396484,0.298828 v 2 c -0.213203,0.123681 -0.430792,0.239641 -0.652344,0.347656 0.0194,0.02873 0.03893,0.05738 0.05859,0.08594 1.730046,-0.521118 3.357367,-1.33643 4.810547,-2.410157 0.02055,-0.213101 0.03421,-0.424603 0.04687,-0.634765 -0.182137,-3.004539 -1.196132,-5.699438 -2.871094,-8.148438 -1.248389,-0.5712036 -2.56625,-0.9763456 -3.919922,-1.2050778 -0.185809,0.330731 -0.354012,0.6710492 -0.503906,1.0195313 -1.441734,-0.2172218 -2.907875,-0.2172218 -4.349609,0 C 13.672931,9.471907 13.505381,9.1315935 13.320312,8.8007812 Z m -0.480468,4.0156248 c 0.960908,0 1.72933,0.858209 1.71289,1.904297 -0.0057,0.361373 -0.09873,0.696711 -0.255859,0.984375 0.16659,0.294639 0.261717,0.642887 0.255859,1.015625 -0.01645,1.046089 -0.754056,1.896484 -1.708984,1.896485 -0.936997,0 -1.710938,-0.850396 -1.710938,-1.896485 0,-0.369417 0.09494,-0.714844 0.257813,-1.007812 -0.162146,-0.289294 -0.257813,-0.627648 -0.257813,-0.992188 0,-1.046088 0.746127,-1.904297 1.707032,-1.904297 z m 6.316406,0 c 0.962403,0 1.725424,0.858209 1.708984,1.904297 -0.0057,0.360398 -0.09974,0.695263 -0.255859,0.982422 0.166205,0.294952 0.261727,0.644213 0.255859,1.017578 -0.01645,1.046089 -0.754051,1.896484 -1.708984,1.896485 -0.938487,0 -1.708984,-0.850396 -1.708984,-1.896485 0,-0.369193 0.09311,-0.714958 0.255859,-1.007812 -0.161616,-0.289218 -0.255859,-0.627795 -0.255859,-0.992188 0,-1.046088 0.746584,-1.904297 1.708984,-1.904297 z" /><circle
     style="opacity:0.3;fill:none;fill-opacity:1;stroke:url(#linearGradient13);stroke-width:1;stroke-linejoin:round;stroke-dasharray:none;stroke-opacity:1"
     id="path11"
     cx="16"
     cy="16"
     r="13.5" /><path
     style="opacity:0.3;fill:url(#linearGradient31);stroke:none;stroke-width:1;stroke-linejoin:round;stroke-dasharray:none;stroke-opacity:0.501961"
     d="m 24.638622,30.5 c -0.765967,-0.433797 -1.608237,-1.273091 -1.904268,-2.224706 -0.4606,0.268142 -1.141623,0.569632 -1.712216,0.80111 0.712669,0.863703 2.167303,1.526362 3.616484,1.423596 z"
     id="path30" /></svg>
