<?xml version="1.0" encoding="UTF-8" standalone="no"?>
<svg
   version="1.1"
   width="32"
   height="32"
   id="svg6860"
   xml:space="preserve"
   xmlns:xlink="http://www.w3.org/1999/xlink"
   xmlns="http://www.w3.org/2000/svg"
   xmlns:svg="http://www.w3.org/2000/svg"
   xmlns:rdf="http://www.w3.org/1999/02/22-rdf-syntax-ns#"
   xmlns:cc="http://creativecommons.org/ns#"
   xmlns:dc="http://purl.org/dc/elements/1.1/"><defs
     id="defs6862"><linearGradient
       id="linearGradient48"><stop
         style="stop-color:#ffffff;stop-opacity:0.24616618;"
         offset="0"
         id="stop48" /><stop
         style="stop-color:#ffffff;stop-opacity:0;"
         offset="1"
         id="stop49" /></linearGradient><linearGradient
       id="linearGradient46"><stop
         style="stop-color:#ffffff;stop-opacity:0.34999999;"
         offset="0"
         id="stop46" /><stop
         style="stop-color:#ffffff;stop-opacity:0;"
         offset="1"
         id="stop47" /></linearGradient><linearGradient
       id="linearGradient37"><stop
         style="stop-color:#ffffff;stop-opacity:0.30000409;"
         offset="0"
         id="stop44" /><stop
         style="stop-color:#ffffff;stop-opacity:0;"
         offset="1"
         id="stop45" /></linearGradient><linearGradient
       id="linearGradient32"><stop
         style="stop-color:#ffffff;stop-opacity:0.40216994;"
         offset="0"
         id="stop32" /><stop
         style="stop-color:#ffffff;stop-opacity:0;"
         offset="1"
         id="stop33" /></linearGradient><linearGradient
       id="linearGradient28"><stop
         style="stop-color:#ffffff;stop-opacity:0.44612002;"
         offset="0"
         id="stop28" /><stop
         style="stop-color:#ffffff;stop-opacity:0;"
         offset="1"
         id="stop29" /></linearGradient><linearGradient
       id="linearGradient8"><stop
         id="stop3"
         offset="0"
         style="stop-color:#9e79e9;stop-opacity:1;" /><stop
         id="stop8"
         offset="1"
         style="stop-color:#6c31e3;stop-opacity:1;" /></linearGradient><linearGradient
       id="linearGradient3924-0"><stop
         id="stop3926-6"
         style="stop-color:#ffffff;stop-opacity:1"
         offset="0" /><stop
         id="stop3928-3"
         style="stop-color:#ffffff;stop-opacity:0.23529412"
         offset="0.04166666" /><stop
         id="stop3930-2"
         style="stop-color:#ffffff;stop-opacity:0.15686275"
         offset="0.95833325" /><stop
         id="stop3932-62"
         style="stop-color:#ffffff;stop-opacity:0.39215687"
         offset="1" /></linearGradient><linearGradient
       xlink:href="#linearGradient8"
       id="linearGradient930-9-2"
       x1="16.767664"
       y1="2.7676599"
       x2="16.767664"
       y2="29.896721"
       gradientUnits="userSpaceOnUse"
       gradientTransform="translate(4.1936035e-6)" /><linearGradient
       x1="23.99999"
       y1="6.2399855"
       x2="23.99999"
       y2="41.759987"
       id="linearGradient4161-0-2"
       xlink:href="#linearGradient3924-0"
       gradientUnits="userSpaceOnUse"
       gradientTransform="matrix(0.67567568,0,0,0.67567568,-0.21621281,-0.21620614)" /><linearGradient
       xlink:href="#linearGradient28"
       id="linearGradient29"
       x1="13.574362"
       y1="10.089053"
       x2="8.477993"
       y2="2.4999962"
       gradientUnits="userSpaceOnUse" /><linearGradient
       xlink:href="#linearGradient32"
       id="linearGradient33"
       x1="24.259964"
       y1="9.8452702"
       x2="22.145578"
       y2="2.4999962"
       gradientUnits="userSpaceOnUse" /><linearGradient
       xlink:href="#linearGradient37"
       id="linearGradient45"
       x1="23.024893"
       y1="25.148062"
       x2="25.426678"
       y2="19.130423"
       gradientUnits="userSpaceOnUse" /><linearGradient
       xlink:href="#linearGradient46"
       id="linearGradient47"
       x1="10.690977"
       y1="26.493778"
       x2="6.9937658"
       y2="20.511499"
       gradientUnits="userSpaceOnUse" /><linearGradient
       xlink:href="#linearGradient48"
       id="linearGradient49"
       x1="22.895117"
       y1="26.743168"
       x2="19.279591"
       y2="28.5"
       gradientUnits="userSpaceOnUse" /></defs><metadata
     id="metadata6865"><rdf:RDF><cc:Work
         rdf:about=""><dc:format>image/svg+xml</dc:format><dc:type
           rdf:resource="http://purl.org/dc/dcmitype/StillImage" /></cc:Work></rdf:RDF></metadata><rect
     style="opacity:0.0502361;fill:#000000;fill-opacity:1;stroke:none;stroke-width:1;stroke-linecap:round;stroke-linejoin:round;stroke-dasharray:none;stroke-opacity:1"
     id="rect50"
     width="28"
     height="3"
     x="2"
     y="28"
     rx="2.1743729"
     ry="1.5" /><rect
     style="opacity:0.200334;fill:#000000;fill-opacity:1;stroke:none;stroke-width:1;stroke-linecap:round;stroke-linejoin:round;stroke-dasharray:none;stroke-opacity:1"
     id="rect49"
     width="26"
     height="1"
     x="3"
     y="29"
     rx="1"
     ry="0.5" /><rect
     style="color:#000000;font-variation-settings:normal;display:inline;overflow:visible;visibility:visible;opacity:1;vector-effect:none;fill:url(#linearGradient930-9-2);fill-opacity:1;fill-rule:nonzero;stroke:#7239b3;stroke-width:1;stroke-linecap:butt;stroke-linejoin:miter;stroke-miterlimit:4;stroke-dasharray:none;stroke-dashoffset:0;stroke-opacity:0.501961;marker:none;enable-background:accumulate;stop-color:#000000;stop-opacity:1"
     id="rect5505-21-1-2-1"
     y="2.4999962"
     x="2.5"
     ry="3"
     rx="3"
     height="27.000008"
     width="27.000008" /><path
     style="opacity:1;fill:url(#linearGradient29);stroke:none;stroke-width:1;stroke-linecap:round;stroke-linejoin:round;stroke-dasharray:none;stroke-opacity:1"
     d="M 11.219889,13.96094 3.9985436,10.373906 c 0,0 -3.709e-4,-3.3565539 0.011101,-5.0337504 C 4.0118902,5.0118253 4.200294,4.6822807 4.4332137,4.4508627 4.6884699,4.1972522 5.0509461,3.9920348 5.4107698,3.9929873 c 1.5267192,0.00404 3.6751677,0.00904 3.6751677,0.00904 l 6.7665285,-0.00556 0.913159,3.0445471 z"
     id="path27" /><rect
     style="opacity:0.35;fill:none;stroke:url(#linearGradient4161-0-2);stroke-width:1;stroke-linecap:round;stroke-linejoin:round;stroke-miterlimit:4;stroke-dasharray:none;stroke-dashoffset:0;stroke-opacity:1"
     id="rect6741-7-4-3-8"
     y="3.4999998"
     x="3.5000038"
     ry="2"
     rx="2"
     height="25"
     width="25" /><path
     style="opacity:0.3;fill:#000000;fill-opacity:1;stroke:#ffffff;stroke-width:1;stroke-linecap:round;stroke-linejoin:round;stroke-dasharray:none;stroke-opacity:1"
     d="M 17.597206,8.1067417 16.48308,4.2883495"
     id="path12" /><path
     style="opacity:0.3;fill:#000000;fill-opacity:1;stroke:#ffffff;stroke-width:1;stroke-linecap:round;stroke-linejoin:round;stroke-dasharray:none;stroke-opacity:1"
     d="M 20.781276,11.760512 27.738651,7.9300286"
     id="path14" /><path
     style="opacity:0.3;fill:#000000;fill-opacity:1;stroke:#ffffff;stroke-width:1;stroke-linecap:round;stroke-linejoin:round;stroke-dasharray:none;stroke-opacity:1"
     d="m 12.825658,23.915161 -2.134681,3.883854"
     id="path18" /><path
     style="opacity:0.3;fill:#000000;fill-opacity:1;stroke:#ffffff;stroke-width:1;stroke-linecap:round;stroke-linejoin:round;stroke-dasharray:none;stroke-opacity:1"
     d="M 11.105236,14.520968 4.3321079,11.2028"
     id="path16" /><path
     style="opacity:0.3;fill:#000000;fill-opacity:1;stroke:#ffffff;stroke-width:1;stroke-linecap:round;stroke-linejoin:round;stroke-dasharray:none;stroke-opacity:1"
     d="m 21.26799,21.373813 2.574833,6.315267"
     id="path19" /><path
     style="opacity:1;fill:url(#linearGradient49);stroke:none;stroke-width:1;stroke-linecap:round;stroke-linejoin:round;stroke-dasharray:none;stroke-opacity:1"
     d="m 11.148326,28 h 12.290999 l -2.481156,-5.98633 -7.65234,2.05469 z"
     id="path47" /><path
     style="opacity:1;fill:url(#linearGradient45);stroke:none;stroke-width:1;stroke-linecap:round;stroke-linejoin:round;stroke-dasharray:none;stroke-opacity:1"
     d="M 21.575359,20.93555 20.781276,12.392247 20.875,12.25 28.005165,8.3527454 c 0,0 0.03537,12.1808706 -0.0072,17.7834226 -0.0037,0.490207 -0.09699,1.049423 -0.434413,1.405041 C 27.258499,27.862666 26.758923,28 26.315793,28 c -0.622108,0 -1.818761,0 -1.818761,0 z"
     id="path33" /><path
     style="opacity:1;fill:url(#linearGradient33);stroke:none;stroke-width:1;stroke-linecap:round;stroke-linejoin:round;stroke-dasharray:none;stroke-opacity:1"
     d="M 18.080078,8.2480469 16.92844,3.992984 h 9.556655 c 0.353373,0 0.723807,0.143984 0.991865,0.3742384 0.267092,0.2294249 0.517153,0.5686279 0.517715,0.9207271 0.0011,0.6660882 0.01049,1.928153 0.01049,1.928153 L 20.5115,11.337121 Z"
     id="path29" /><path
     style="opacity:1;fill:url(#linearGradient47);stroke:none;stroke-width:1;stroke-linecap:round;stroke-linejoin:round;stroke-dasharray:none;stroke-opacity:1"
     d="M 12.405439,23.63477 10.01231,28 c 0,0 -2.8098556,0 -4.3280952,0 C 5.2544036,28 4.7831054,27.873605 4.462658,27.587159 4.1867966,27.340568 3.9922532,26.951854 3.9920183,26.581845 c -0.00311,-4.8916 0.00652,-14.966583 0.00652,-14.966583 l 6.9479067,3.357398 z"
     id="path45" /><path
     d="m 16.519531,8.1171875 c 0.338328,-0.00456 0.677091,0.1424432 0.90625,0.4335938 l 3.201172,4.0644527 c 0.166952,0.212208 0.252539,0.476453 0.253906,0.748047 0.004,0.770912 0.06705,2.372633 0.5,3.408203 0.417581,0.998725 1.186124,2.082193 1.583985,2.609375 0.126931,0.168247 0.14665,0.400006 0.03906,0.582032 -0.28002,0.474221 -0.830593,1.385613 -1.613281,2.552734 -0.552984,0.824711 -0.805816,1.835737 -0.919922,2.683594 -0.105214,0.781651 -0.872609,1.407247 -1.636719,1.195312 -1.16676,-0.321513 -2.536007,-0.82914 -3.767578,-0.923828 -0.15861,-0.01214 1.548765,0.118212 -1.867187,-0.142578 -0.27544,-0.01959 -0.538661,-0.140318 -0.732422,-0.339844 L 9.2460938,21.669922 c -0.324021,-0.333638 -0.4097933,-0.828532 -0.2207032,-1.25 1.8944814,-4.164763 2.4235824,-5.351122 2.4843754,-5.498047 6.3e-5,-1.18e-4 0.0038,-0.0057 0.0039,-0.0059 l 0.002,-0.0039 v -0.002 h 0.002 c 0.0022,-0.0054 0.03843,-0.0899 0.03906,-0.0918 0.628194,-1.887385 0.9278,-2.969689 1.023437,-3.535156 L 15.777344,8.4082031 C 15.990889,8.2161183 16.25726,8.1204238 16.519531,8.1171875 Z"
     fill="#ffffff"
     id="path1-0-7-2"
     style="opacity:0.15;fill:#000000;fill-opacity:1;stroke:#000000;stroke-width:2;stroke-linecap:round;stroke-linejoin:round;stroke-dasharray:none;stroke-opacity:1"
     transform="translate(0,-0.30008443)" /><path
     d="m 16.517578,7.5175781 c 0.368805,-0.00497 0.737454,0.1545046 0.986328,0.4707031 l 3.201172,4.0644528 c 0.181502,0.230702 0.273918,0.516036 0.275391,0.808594 0.004,0.768809 0.06579,2.351182 0.492187,3.371094 0.414146,0.990508 1.175447,2.062088 1.572266,2.58789 0.150799,0.199885 0.176035,0.474837 0.04687,0.69336 -0.280739,0.475438 -0.835145,1.387569 -1.619141,2.55664 -0.541283,0.807261 -0.791253,1.802619 -0.904297,2.642579 -0.112788,0.837922 -0.935894,1.506395 -1.761718,1.277343 -1.170019,-0.32241 -2.525554,-0.826081 -3.746094,-0.919922 -0.158792,-0.01215 1.546291,0.118174 -1.869141,-0.142578 -0.299641,-0.02131 -0.583825,-0.151762 -0.794922,-0.36914 L 9.1757813,21.240234 C 8.823159,20.877147 8.7274805,20.338312 8.9335938,19.878906 c 1.8881172,-4.150774 2.4167782,-5.32729 2.4804692,-5.480468 7.01e-4,-0.0017 0.0092,-0.02397 0.0098,-0.02539 l 0.002,-0.0039 0.002,-0.002 v -0.002 -0.002 c 0.0016,-0.0041 0.03462,-0.07457 0.03516,-0.07617 0.815992,-2.451615 1.001505,-3.352478 0.859375,-3.404296 l 3.388672,-3.0488286 c 0.232052,-0.2087323 0.520539,-0.312876 0.80664,-0.3164063 z m -4.447265,3.5917969 c -0.153181,0.207026 -0.351723,0.53776 -0.572266,0.939453 0.0028,-0.01858 0.0051,-0.03672 0.0078,-0.05469 0.0426,-0.282596 0.181686,-0.54101 0.394532,-0.732422 z"
     fill="#ffffff"
     id="path11"
     style="opacity:0.15;fill:#000000;fill-opacity:1;stroke:none;stroke-width:2;stroke-linecap:round;stroke-linejoin:round;stroke-dasharray:none;stroke-opacity:1" /><path
     id="path1-0-7-9"
     style="fill:#ebe5ec;fill-opacity:1;stroke-width:0.0452467"
     d="m 16.506999,7.01758 c -0.28147,0.004 -0.56394,0.10434 -0.79102,0.30859 l -3.73046,3.35547 c -0.20809,0.18714 -0.34501,0.44202 -0.38672,0.71875 -0.10881,0.72133 -0.2662,1.8445 -0.37891,2.56055 0.90296,0.56205 2.18118,1.53364 2.85352,3.17383 0.0628,0.15322 0.11719,0.31236 0.16796,0.47656 0.59058,-0.11953 1.20239,-0.19528 1.81641,-0.19922 0.005,-3e-5 0.0104,2e-5 0.0156,0 -1.11005,-3.17617 -0.5698,-5.00781 0.0859,-6.34375 0.35038,-0.71383 0.69634,-1.28384 0.84766,-1.86914 0.15132,-0.5853 0.15048,-1.20413 -0.25391,-2.15234 l 0.0117,-0.006 c -0.0854,-0.0174 -0.17074,-0.0246 -0.25781,-0.0234 z m 1.57226,1.23047 c 0.0311,0.43421 -0.009,0.83383 -0.10351,1.20117 -0.20085,0.77686 -0.59419,1.40089 -0.91797,2.06055 -0.63312,1.28987 -1.14019,2.73239 0.10938,5.98046 0.40608,0.0624 0.80888,0.16372 1.20312,0.31446 1.26041,0.48192 2.39424,1.47593 3.20508,3.13086 0.64812,-0.98074 1.12062,-1.75627 1.36719,-2.17383 0.12614,-0.21343 0.10439,-0.47983 -0.0449,-0.67774 -0.38907,-0.51554 -1.13342,-1.56307 -1.53906,-2.5332 -0.41695,-0.99737 -0.4808,-2.54652 -0.48437,-3.30078 -0.001,-0.28668 -0.0903,-0.56569 -0.26758,-0.79102 z m -7.13281,6.72461 c -0.39787,0.91891 -1.8652293,4.14648 -1.8652293,4.14648 -0.20248,0.45129 -0.11023,0.98111 0.23437,1.33594 l 3.0898493,3.17969 c 1.37315,-2.83343 1.29993,-4.76046 0.74218,-6.1211 -0.49966,-1.21895 -1.42291,-2.02004 -2.20117,-2.54101 z m 5.33399,3.44336 c -0.60061,-0.0151 -1.21684,0.0527 -1.82422,0.17382 0.19472,1.45858 -0.0817,3.27123 -1.15039,5.47852 0.0973,0.007 1.62089,0.12501 1.77344,0.13672 1.19405,0.0918 2.52182,0.58261 3.66796,0.89844 0.8044,0.22311 1.61326,-0.42276 1.72461,-1.25 0.0777,-0.57699 0.22442,-1.2289 0.48633,-1.83985 -0.73307,-1.8889 -1.77505,-2.82793 -2.94531,-3.27539 -0.54682,-0.20908 -1.13182,-0.30715 -1.73242,-0.32226 z" /><path
     id="path9"
     style="fill:#ffffff;fill-opacity:1;stroke-width:0.0452467"
     d="m 16.507812,7.0175781 c -0.281469,0.004 -0.563935,0.104344 -0.791015,0.3085938 l -3.730469,3.3554691 c -0.20809,0.187139 -0.345009,0.44202 -0.386719,0.71875 -0.07005,0.464388 -0.158704,1.066805 -0.24414,1.648437 0.891867,0.572999 2.078452,1.523916 2.71875,3.085938 0.0628,0.153219 0.117199,0.312362 0.167969,0.476562 0.498613,-0.100916 1.011863,-0.167818 1.529296,-0.189453 -0.297029,-1.118827 -0.376144,-2.052311 -0.318359,-2.845703 -0.101562,-1.540452 0.277276,-2.632219 0.707031,-3.507813 0.35038,-0.7138289 0.696337,-1.2838408 0.847656,-1.8691402 0.0171,-0.066158 0.03207,-0.1337296 0.04492,-0.2011719 C 17.001686,7.71738 16.90704,7.4059411 16.753906,7.046875 l 0.01172,-0.00586 c -0.0854,-0.0174 -0.170743,-0.024637 -0.257813,-0.023437 z m 1.572266,1.2304688 c 0.0311,0.4342095 -0.009,0.8338322 -0.103516,1.2011719 -0.200849,0.7768592 -0.594189,1.4008872 -0.917968,2.0605472 -0.294005,0.598983 -0.558412,1.234112 -0.634766,2.064453 0.06716,0.78516 0.287726,1.729633 0.744141,2.916015 0.406079,0.0624 0.808885,0.163714 1.203125,0.314454 1.260408,0.481919 2.394239,1.475931 3.205078,3.130859 0.570786,-0.863718 0.976233,-1.52379 1.240234,-1.964844 C 22.413071,17.428408 21.740971,16.463407 21.359375,15.550781 20.942425,14.553412 20.87857,13.004259 20.875,12.25 20.874,11.96332 20.7847,11.684314 20.607422,11.458984 Z m -7.132812,6.7246091 c -0.396955,0.916796 -1.8546084,4.12389 -1.8613285,4.138672 0.056309,0.124479 0.1317022,0.242052 0.2304687,0.34375 l 3.0898438,3.179688 c 0.692936,-1.429842 1.015812,-2.628728 1.095703,-3.640625 -0.04846,-0.558066 -0.176177,-1.04785 -0.353515,-1.480469 -0.49966,-1.218949 -1.422913,-2.020046 -2.201172,-2.541016 z m 5.333984,3.44336 c -0.582557,-0.01465 -1.179913,0.04972 -1.769531,0.164062 -0.0019,0.134067 -0.008,0.271052 -0.01758,0.410156 0.08217,1.157668 -0.124373,2.521996 -0.761719,4.111328 0.471857,0.03631 1.231734,0.09462 1.347656,0.103516 1.194049,0.0918 2.52183,0.582608 3.667969,0.898438 0.804399,0.223109 1.613259,-0.422761 1.724609,-1.25 0.0552,-0.409917 0.147634,-0.858742 0.289063,-1.302735 -0.717427,-1.581032 -1.678152,-2.403415 -2.748047,-2.8125 -0.54682,-0.20908 -1.131823,-0.307155 -1.732422,-0.322265 z" /></svg>
