<?xml version="1.0" encoding="UTF-8" standalone="no"?>
<svg
   version="1.1"
   width="32"
   height="32"
   id="svg6860"
   xml:space="preserve"
   xmlns:xlink="http://www.w3.org/1999/xlink"
   xmlns="http://www.w3.org/2000/svg"
   xmlns:svg="http://www.w3.org/2000/svg"
   xmlns:rdf="http://www.w3.org/1999/02/22-rdf-syntax-ns#"
   xmlns:cc="http://creativecommons.org/ns#"
   xmlns:dc="http://purl.org/dc/elements/1.1/"><defs
     id="defs6862"><linearGradient
       id="linearGradient4"><stop
         id="stop1"
         style="stop-color:#ffffff;stop-opacity:1"
         offset="0" /><stop
         id="stop2"
         style="stop-color:#ffffff;stop-opacity:0.23529412"
         offset="0.06250001" /><stop
         id="stop3"
         style="stop-color:#ffffff;stop-opacity:0.15686275"
         offset="0.93750006" /><stop
         id="stop4"
         style="stop-color:#ffffff;stop-opacity:0.39215687"
         offset="1" /></linearGradient><linearGradient
       id="linearGradient3688-166-749-6"><stop
         id="stop2883-8"
         style="stop-color:#181818;stop-opacity:1"
         offset="0" /><stop
         id="stop2885-3"
         style="stop-color:#181818;stop-opacity:0"
         offset="1" /></linearGradient><linearGradient
       id="linearGradient3702-501-757-3"><stop
         id="stop2895-3"
         style="stop-color:#181818;stop-opacity:0"
         offset="0" /><stop
         id="stop2897-28"
         style="stop-color:#181818;stop-opacity:1"
         offset="0.5" /><stop
         id="stop2899-8"
         style="stop-color:#181818;stop-opacity:0"
         offset="1" /></linearGradient><radialGradient
       cx="4.9929786"
       cy="43.5"
       r="2.5"
       fx="4.9929786"
       fy="43.5"
       id="radialGradient2976-3-3"
       xlink:href="#linearGradient3688-166-749-6"
       gradientUnits="userSpaceOnUse"
       gradientTransform="matrix(2.003784,0,0,1.4,27.98813,-17.4)" /><radialGradient
       cx="4.9929786"
       cy="43.5"
       r="2.5"
       fx="4.9929786"
       fy="43.5"
       id="radialGradient2978-2-5"
       xlink:href="#linearGradient3688-166-749-6"
       gradientUnits="userSpaceOnUse"
       gradientTransform="matrix(2.003784,0,0,1.4,-20.01187,-104.4)" /><linearGradient
       xlink:href="#linearGradient4-6"
       id="linearGradient930-9-2"
       x1="15.999996"
       y1="3"
       x2="15.999996"
       y2="29"
       gradientUnits="userSpaceOnUse"
       gradientTransform="translate(4.1936035e-6)" /><linearGradient
       x1="23.99999"
       y1="6.239985"
       x2="23.99999"
       y2="41.759983"
       id="linearGradient4161-0-2"
       xlink:href="#linearGradient4"
       gradientUnits="userSpaceOnUse"
       gradientTransform="matrix(0.67567568,0,0,0.67567568,-0.21621281,-0.21620614)" /><linearGradient
       xlink:href="#linearGradient3702-501-757-3"
       id="linearGradient963"
       gradientUnits="userSpaceOnUse"
       x1="25.058096"
       y1="47.027729"
       x2="25.058096"
       y2="39.999443" /><style
       id="style1">.g{fill:#000;}.g,.h,.i{stroke-width:0px;}.h{fill:url(#e);}.i{fill:#fff;}</style><style
       id="style1-7">.g{fill:#000;}.g,.h,.i{stroke-width:0px;}.h{fill:url(#e);}.i{fill:#fff;}</style><style
       id="style1-5">.g{fill:#000;}.g,.h,.i{stroke-width:0px;}.h{fill:url(#e);}.i{fill:#fff;}</style><linearGradient
       id="linearGradient4-6"><stop
         style="stop-color:#fafafa;stop-opacity:1;"
         offset="0"
         id="stop4-7" /><stop
         style="stop-color:#d4d4d4;stop-opacity:1;"
         offset="1"
         id="stop5" /></linearGradient><style
       id="style1-53">.g{fill:#000;}.g,.h,.i{stroke-width:0px;}.h{fill:url(#e);}.i{fill:#fff;}</style><style
       id="style1-6">.cls-1{fill:#fff;}</style><style
       id="style1-67">.cls-1{fill:#fff;}</style></defs><metadata
     id="metadata6865"><rdf:RDF><cc:Work
         rdf:about=""><dc:format>image/svg+xml</dc:format><dc:type
           rdf:resource="http://purl.org/dc/dcmitype/StillImage" /></cc:Work></rdf:RDF></metadata><g
     style="display:inline"
     id="g2036-2-8-6"
     transform="matrix(0.6999997,0,0,0.3333336,-0.79999581,15.33333)"><g
       style="opacity:0.4"
       id="g3712-3-7-0"
       transform="matrix(1.052632,0,0,1.285713,-1.263158,-13.42854)"><rect
         style="fill:url(#radialGradient2976-3-3);fill-opacity:1;stroke:none"
         id="rect2801-0-9-6"
         y="40"
         x="38"
         height="7"
         width="5" /><rect
         style="fill:url(#radialGradient2978-2-5);fill-opacity:1;stroke:none"
         id="rect3696-2-2-2"
         transform="scale(-1)"
         y="-47"
         x="-10"
         height="7"
         width="5" /><rect
         style="fill:url(#linearGradient963);fill-opacity:1;stroke:none"
         id="rect3700-1-0-6"
         y="40"
         x="10"
         height="7.0000005"
         width="28" /></g></g><rect
     style="color:#000000;font-variation-settings:normal;display:inline;overflow:visible;visibility:visible;opacity:1;vector-effect:none;fill:url(#linearGradient930-9-2);fill-opacity:1;fill-rule:nonzero;stroke:none;stroke-width:1;stroke-linecap:butt;stroke-linejoin:miter;stroke-miterlimit:4;stroke-dasharray:none;stroke-dashoffset:0;stroke-opacity:0.5;marker:none;enable-background:accumulate;stop-color:#000000;stop-opacity:1"
     id="rect5505-21-1-2-1"
     y="3"
     x="3"
     ry="2.5"
     rx="2.5"
     height="26"
     width="26" /><rect
     style="opacity:1;fill:none;stroke:url(#linearGradient4161-0-2);stroke-width:1;stroke-linecap:round;stroke-linejoin:round;stroke-miterlimit:4;stroke-dasharray:none;stroke-dashoffset:0;stroke-opacity:1"
     id="rect6741-7-4-3-8"
     y="3.4999998"
     x="3.5000038"
     ry="2"
     rx="2"
     height="25"
     width="25" /><rect
     style="color:#000000;font-variation-settings:normal;display:inline;overflow:visible;visibility:visible;opacity:1;vector-effect:none;fill:none;fill-opacity:1;fill-rule:nonzero;stroke:#7e8087;stroke-width:1;stroke-linecap:butt;stroke-linejoin:miter;stroke-miterlimit:4;stroke-dasharray:none;stroke-dashoffset:0;stroke-opacity:0.5;marker:none;enable-background:accumulate;stop-color:#000000;stop-opacity:1"
     id="rect5"
     y="2.4999962"
     x="2.5"
     ry="3"
     rx="3"
     height="27.000008"
     width="27.000008" /><path
     id="path30"
     style="opacity:0.15;fill:#000000;fill-opacity:1;stroke:#000000;stroke-width:2;stroke-linejoin:round;stroke-opacity:1"
     d="M 13.5,8 A 1.5,1.5 0 0 0 12,9.5 1.5,1.5 0 0 0 13.5,11 H 15 V 9.5 A 1.5,1.5 0 0 0 13.5,8 Z m 5,0 A 1.5,1.5 0 0 0 17,9.5 v 5 A 1.5,1.5 0 0 0 18.5,16 1.5,1.5 0 0 0 20,14.5 v -5 A 1.5,1.5 0 0 0 18.5,8 Z m -10,5 A 1.5,1.5 0 0 0 7,14.5 1.5,1.5 0 0 0 8.5,16 h 5 A 1.5,1.5 0 0 0 15,14.5 1.5,1.5 0 0 0 13.5,13 Z m 15,0 A 1.5,1.5 0 0 0 22,14.5 V 16 h 1.5 A 1.5,1.5 0 0 0 25,14.5 1.5,1.5 0 0 0 23.5,13 Z m -15,5 A 1.5,1.5 0 0 0 7,19.5 1.5,1.5 0 0 0 8.5,21 1.5,1.5 0 0 0 10,19.5 V 18 Z m 5,0 A 1.5,1.5 0 0 0 12,19.5 v 5 A 1.5,1.5 0 0 0 13.5,26 1.5,1.5 0 0 0 15,24.5 v -5 A 1.5,1.5 0 0 0 13.5,18 Z m 5,0 A 1.5,1.5 0 0 0 17,19.5 1.5,1.5 0 0 0 18.5,21 h 5 A 1.5,1.5 0 0 0 25,19.5 1.5,1.5 0 0 0 23.5,18 Z M 17,23 v 1.5 A 1.5,1.5 0 0 0 18.5,26 1.5,1.5 0 0 0 20,24.5 1.5,1.5 0 0 0 18.5,23 Z" /><path
     id="path40"
     style="opacity:0.15;fill:#000000;fill-opacity:1;stroke:none;stroke-width:2;stroke-linejoin:round;stroke-opacity:1"
     d="M 13.5,8 A 1.5,1.5 0 0 0 12,9.5 1.5,1.5 0 0 0 13.5,11 H 15 V 9.5 A 1.5,1.5 0 0 0 13.5,8 Z m 5,0 A 1.5,1.5 0 0 0 17,9.5 v 5 A 1.5,1.5 0 0 0 18.5,16 1.5,1.5 0 0 0 20,14.5 v -5 A 1.5,1.5 0 0 0 18.5,8 Z m -10,5 A 1.5,1.5 0 0 0 7,14.5 1.5,1.5 0 0 0 8.5,16 h 5 A 1.5,1.5 0 0 0 15,14.5 1.5,1.5 0 0 0 13.5,13 Z m 15,0 A 1.5,1.5 0 0 0 22,14.5 V 16 h 1.5 A 1.5,1.5 0 0 0 25,14.5 1.5,1.5 0 0 0 23.5,13 Z m -15,5 A 1.5,1.5 0 0 0 7,19.5 1.5,1.5 0 0 0 8.5,21 1.5,1.5 0 0 0 10,19.5 V 18 Z m 5,0 A 1.5,1.5 0 0 0 12,19.5 v 5 A 1.5,1.5 0 0 0 13.5,26 1.5,1.5 0 0 0 15,24.5 v -5 A 1.5,1.5 0 0 0 13.5,18 Z m 5,0 A 1.5,1.5 0 0 0 17,19.5 1.5,1.5 0 0 0 18.5,21 h 5 A 1.5,1.5 0 0 0 25,19.5 1.5,1.5 0 0 0 23.5,18 Z M 17,23 v 1.5 A 1.5,1.5 0 0 0 18.5,26 1.5,1.5 0 0 0 20,24.5 1.5,1.5 0 0 0 18.5,23 Z" /><g
     id="g44"><g
       id="g42"><path
         id="path9"
         style="opacity:1;fill:#e5a40f;fill-opacity:1;stroke:none;stroke-width:2;stroke-linejoin:round"
         d="M 18.5,17 A 1.5,1.5 0 0 0 17,18.5 1.5,1.5 0 0 0 18.5,20 h 5 A 1.5,1.5 0 0 0 25,18.5 1.5,1.5 0 0 0 23.5,17 Z M 17,22 v 1.5 A 1.5,1.5 0 0 0 18.5,25 1.5,1.5 0 0 0 20,23.5 1.5,1.5 0 0 0 18.5,22 Z" /><path
         id="path24"
         style="opacity:1;fill:#fcc003;fill-opacity:1;stroke:none;stroke-width:2;stroke-linejoin:round"
         d="M 18.5,17 A 1.5,1.5 0 0 0 17.095703,18 1.5,1.5 0 0 0 18.5,19 h 5 A 1.5,1.5 0 0 0 24.908203,17.988281 1.5,1.5 0 0 0 23.5,17 Z M 17,22 v 0.5 A 1.5,1.5 0 0 0 18.5,24 1.5,1.5 0 0 0 19.908203,22.988281 1.5,1.5 0 0 0 18.5,22 Z" /></g><g
       id="g43"><path
         id="path12"
         style="opacity:1;fill:#c40d55;fill-opacity:1;stroke:none;stroke-width:2;stroke-linejoin:round"
         d="M 8.5,17 A 1.5,1.5 0 0 0 7,18.5 1.5,1.5 0 0 0 8.5,20 1.5,1.5 0 0 0 10,18.5 V 17 Z m 5,0 A 1.5,1.5 0 0 0 12,18.5 v 5 A 1.5,1.5 0 0 0 13.5,25 1.5,1.5 0 0 0 15,23.5 v -5 A 1.5,1.5 0 0 0 13.5,17 Z" /><path
         id="path25"
         style="opacity:1;fill:#e3066a;fill-opacity:1;stroke:none;stroke-width:2;stroke-linejoin:round"
         d="M 8.5,17 A 1.5,1.5 0 0 0 7.0957031,18 1.5,1.5 0 0 0 8.5,19 1.5,1.5 0 0 0 10,17.5 V 17 Z m 5,0 A 1.5,1.5 0 0 0 12,18.5 v 4 A 1.5,1.5 0 0 0 13.5,24 1.5,1.5 0 0 0 15,22.5 v -4 A 1.5,1.5 0 0 0 13.5,17 Z" /></g><g
       id="g41"><path
         id="path15"
         style="opacity:1;fill:#1da1eb;fill-opacity:1;stroke:none;stroke-width:2;stroke-linejoin:round"
         d="M 13.5,7 A 1.5,1.5 0 0 0 12,8.5 1.5,1.5 0 0 0 13.5,10 H 15 V 8.5 A 1.5,1.5 0 0 0 13.5,7 Z m -5,5 A 1.5,1.5 0 0 0 7,13.5 1.5,1.5 0 0 0 8.5,15 h 5 A 1.5,1.5 0 0 0 15,13.5 1.5,1.5 0 0 0 13.5,12 Z" /><path
         id="path26"
         style="opacity:1;fill:#1ab9ff;fill-opacity:1;stroke:none;stroke-width:2;stroke-linejoin:round"
         d="M 13.5,7 A 1.5,1.5 0 0 0 12.095703,8 1.5,1.5 0 0 0 13.5,9 H 15 V 8.5 A 1.5,1.5 0 0 0 13.5,7 Z m -5,5 A 1.5,1.5 0 0 0 7.0957031,13 1.5,1.5 0 0 0 8.5,14 h 5 A 1.5,1.5 0 0 0 14.908203,12.988281 1.5,1.5 0 0 0 13.5,12 Z" /></g><g
       id="g40"><path
         id="path5"
         style="opacity:1;fill:#2e9850;fill-opacity:1;stroke:none;stroke-width:2;stroke-linejoin:round"
         d="M 18.5,7 A 1.5,1.5 0 0 0 17,8.5 v 5 A 1.5,1.5 0 0 0 18.5,15 1.5,1.5 0 0 0 20,13.5 v -5 A 1.5,1.5 0 0 0 18.5,7 Z m 5,5 A 1.5,1.5 0 0 0 22,13.5 V 15 h 1.5 A 1.5,1.5 0 0 0 25,13.5 1.5,1.5 0 0 0 23.5,12 Z" /><path
         id="path29"
         style="opacity:1;fill:#41b658;fill-opacity:1;stroke:none;stroke-width:2;stroke-linejoin:round"
         d="M 18.5,7 A 1.5,1.5 0 0 0 17,8.5 v 4 A 1.5,1.5 0 0 0 18.5,14 1.5,1.5 0 0 0 20,12.5 v -4 A 1.5,1.5 0 0 0 18.5,7 Z m 5,5 A 1.5,1.5 0 0 0 22,13.5 V 14 h 1.5 A 1.5,1.5 0 0 0 24.908203,12.988281 1.5,1.5 0 0 0 23.5,12 Z" /></g></g></svg>
