<?xml version="1.0" encoding="UTF-8" standalone="no"?>
<svg
   width="48"
   height="48"
   viewBox="0 0 48 48"
   fill="none"
   version="1.1"
   id="svg4"
   xml:space="preserve"
   xmlns:xlink="http://www.w3.org/1999/xlink"
   xmlns="http://www.w3.org/2000/svg"
   xmlns:svg="http://www.w3.org/2000/svg"><defs
     id="defs4"><linearGradient
       id="linearGradient2"><stop
         style="stop-color:#fafafa;stop-opacity:1;"
         offset="0"
         id="stop7" /><stop
         style="stop-color:#7e8087;stop-opacity:1;"
         offset="1"
         id="stop8" /></linearGradient><linearGradient
       id="linearGradient1"><stop
         style="stop-color:#c6262e;stop-opacity:1;"
         offset="0"
         id="stop4" /><stop
         style="stop-color:#f37329;stop-opacity:1;"
         offset="0.5"
         id="stop6" /><stop
         style="stop-color:#f9c440;stop-opacity:1;"
         offset="1"
         id="stop5" /></linearGradient><linearGradient
       id="linearGradient1201"><stop
         id="stop1193"
         style="stop-color:#ffffff;stop-opacity:1"
         offset="0" /><stop
         id="stop1195"
         style="stop-color:#ffffff;stop-opacity:0.23529412"
         offset="0.06781636" /><stop
         id="stop1197"
         style="stop-color:#ffffff;stop-opacity:0.15686275"
         offset="0.94694352" /><stop
         id="stop1199"
         style="stop-color:#ffffff;stop-opacity:0.39215687"
         offset="1" /></linearGradient><linearGradient
       id="linearGradient3688-166-749"><stop
         id="stop2883"
         style="stop-color:#181818;stop-opacity:1"
         offset="0" /><stop
         id="stop2885"
         style="stop-color:#181818;stop-opacity:0"
         offset="1" /></linearGradient><linearGradient
       id="linearGradient3702-501-757"><stop
         id="stop2895"
         style="stop-color:#181818;stop-opacity:0"
         offset="0" /><stop
         id="stop2897"
         style="stop-color:#181818;stop-opacity:1"
         offset="0.5" /><stop
         id="stop2899"
         style="stop-color:#181818;stop-opacity:0"
         offset="1" /></linearGradient><radialGradient
       cx="4.9929786"
       cy="43.5"
       r="2.5"
       fx="4.9929786"
       fy="43.5"
       id="radialGradient3013-6"
       xlink:href="#linearGradient3688-166-749"
       gradientUnits="userSpaceOnUse"
       gradientTransform="matrix(2.003784,0,0,0.89999994,29.98813,4.8500025)" /><radialGradient
       cx="4.9929786"
       cy="43.5"
       r="2.5"
       fx="4.9929786"
       fy="43.5"
       id="radialGradient3015-1"
       xlink:href="#linearGradient3688-166-749"
       gradientUnits="userSpaceOnUse"
       gradientTransform="matrix(2.003784,0,0,0.89999994,-18.01187,-83.149997)" /><linearGradient
       x1="38.999996"
       y1="5.9999938"
       x2="38.999996"
       y2="41.945408"
       id="linearGradient3058-5"
       xlink:href="#linearGradient1201"
       gradientUnits="userSpaceOnUse"
       gradientTransform="translate(4e-6,1.0000062)" /><linearGradient
       xlink:href="#linearGradient3702-501-757"
       id="linearGradient1191"
       gradientUnits="userSpaceOnUse"
       x1="25.058096"
       y1="47.027729"
       x2="25.058096"
       y2="39.999443"
       gradientTransform="matrix(1.1428571,0,0,0.6428571,-3.428569,16.035716)" /><linearGradient
       id="linearGradient870"><stop
         id="stop866"
         offset="0"
         style="stop-color:#3a465a;stop-opacity:1;" /><stop
         id="stop868"
         offset="1"
         style="stop-color:#182027;stop-opacity:1;" /></linearGradient><filter
       style="color-interpolation-filters:sRGB"
       id="filter7"
       x="-0.36570926"
       y="-0.13298518"
       width="1.7314185"
       height="1.2659704"><feGaussianBlur
         stdDeviation="0.30475772"
         id="feGaussianBlur7" /></filter><linearGradient
       xlink:href="#linearGradient1"
       id="linearGradient118"
       gradientUnits="userSpaceOnUse"
       x1="25"
       y1="15"
       x2="25"
       y2="35"
       gradientTransform="translate(-50.074834)" /><linearGradient
       xlink:href="#linearGradient2"
       id="linearGradient8"
       x1="24.5"
       y1="6"
       x2="24.5"
       y2="43.999996"
       gradientUnits="userSpaceOnUse" /><linearGradient
       xlink:href="#linearGradient870"
       id="linearGradient11"
       x1="24"
       y1="8"
       x2="24"
       y2="42.5"
       gradientUnits="userSpaceOnUse" /><linearGradient
       xlink:href="#linearGradient1"
       id="linearGradient14"
       gradientUnits="userSpaceOnUse"
       gradientTransform="translate(-0.99999997,-1)"
       x1="25"
       y1="15"
       x2="25"
       y2="35" /><filter
       style="color-interpolation-filters:sRGB"
       id="filter33"
       x="-0.1921699"
       y="-0.1921699"
       width="1.3843398"
       height="1.3843398"><feGaussianBlur
         stdDeviation="1.6014159"
         id="feGaussianBlur33" /></filter><filter
       style="color-interpolation-filters:sRGB"
       id="filter34"
       x="-0.34943993"
       y="-0.13236365"
       width="1.6988799"
       height="1.2647273"><feGaussianBlur
         stdDeviation="0.30333336"
         id="feGaussianBlur34" /></filter><filter
       style="color-interpolation-filters:sRGB"
       id="filter35"
       x="-0.36479995"
       y="-0.13028572"
       width="1.7295999"
       height="1.2605714"><feGaussianBlur
         stdDeviation="0.76000004"
         id="feGaussianBlur35" /></filter></defs><g
     id="g8"><rect
       style="opacity:0.6;fill:url(#radialGradient3013-6);fill-opacity:1;stroke:none;stroke-width:0.862764"
       id="rect2801-3-7"
       y="41.75"
       x="40"
       height="4.4999995"
       width="5" /><rect
       style="opacity:0.6;fill:url(#radialGradient3015-1);fill-opacity:1;stroke:none;stroke-width:0.862764"
       id="rect3696-6-3"
       transform="scale(-1)"
       y="-46.25"
       x="-8"
       height="4.4999995"
       width="5" /><rect
       style="opacity:0.6;fill:url(#linearGradient1191);fill-opacity:1;stroke:none;stroke-width:0.862764"
       id="rect3700-4-6"
       y="41.75"
       x="8"
       height="4.5"
       width="32" /></g><rect
     style="color:#000000;font-variation-settings:normal;display:inline;overflow:visible;visibility:visible;vector-effect:none;fill:url(#linearGradient8);fill-opacity:1;fill-rule:nonzero;stroke:#7e8087;stroke-width:1;stroke-linecap:butt;stroke-linejoin:miter;stroke-miterlimit:4;stroke-dasharray:none;stroke-dashoffset:0;stroke-opacity:0.49803922;marker:none;enable-background:accumulate;stop-color:#000000"
     id="rect5505-21-1"
     y="5.4999952"
     x="4.5000153"
     ry="4"
     rx="4"
     height="39"
     width="39" /><rect
     style="opacity:0.35;fill:none;stroke:url(#linearGradient3058-5);stroke-width:1;stroke-linecap:round;stroke-linejoin:round;stroke-miterlimit:4;stroke-dasharray:none;stroke-dashoffset:0;stroke-opacity:1"
     id="rect6741-2"
     y="6.4999952"
     x="5.5000153"
     ry="3"
     rx="3"
     height="37"
     width="37" /><path
     style="fill:url(#linearGradient118);stroke:none;stroke-linejoin:round;stroke-opacity:0.497364"
     d="m -27.072881,15 h 3.996095 l 8.001953,20 H -19.07288 L -25.074834,20.001953 -31.076787,35 h -3.998047 z"
     id="path115" /><path
     style="fill:#64baff;stroke:none;stroke-width:0.970095;stroke-linejoin:round;stroke-opacity:0.497364"
     d="m -25.074834,23 -2.5,6 2.5,8 2.500001,-8 z"
     id="path116" /><path
     style="fill:#ffffff;fill-opacity:1;stroke:none;stroke-width:0.6;stroke-linejoin:round;stroke-opacity:0.497364"
     d="m -25.074834,23 -1.041667,2.5 1.041667,3 1.041667,-3 z"
     id="path117" /><path
     style="mix-blend-mode:normal;fill:#ffffff;fill-opacity:1;stroke:none;stroke-width:0.6;stroke-linejoin:round;stroke-opacity:0.497364;filter:url(#filter7)"
     d="m -25.074834,24 -1,2.5 1,3 1,-3 z"
     id="path118" /><rect
     style="opacity:1;fill:url(#linearGradient11);stroke:none;stroke-linejoin:round;stroke-opacity:1"
     id="rect8"
     width="35"
     height="35"
     x="6.5"
     y="7.5"
     rx="2"
     ry="2" /><rect
     style="opacity:1;fill:none;stroke:#091825;stroke-linejoin:round;stroke-opacity:0.496845"
     id="rect1"
     width="35"
     height="35"
     x="6.5"
     y="7.5"
     rx="2"
     ry="2" /><path
     style="fill:url(#linearGradient14);stroke:none;stroke-linejoin:round;stroke-opacity:0.497364"
     d="m 22.001953,14 h 3.996095 l 8.001953,20 H 30.001954 L 24,19.001953 17.998047,34 H 14 Z"
     id="path11" /><path
     style="fill:#64baff;stroke:none;stroke-width:0.970095;stroke-linejoin:round;stroke-opacity:0.497364"
     d="m 24,22 -2.5,6 2.5,8 2.500001,-8 z"
     id="path12" /><path
     style="fill:#ffffff;fill-opacity:1;stroke:none;stroke-width:0.6;stroke-linejoin:round;stroke-opacity:0.497364"
     d="m 24,22 -1.041667,2.5 1.041667,3 1.041667,-3 z"
     id="path13" /><path
     style="mix-blend-mode:normal;fill:#ffffff;fill-opacity:1;stroke:none;stroke-width:0.6;stroke-linejoin:round;stroke-opacity:0.497364;filter:url(#filter7)"
     d="m 24,23 -1,2.5 1,3 1,-3 z"
     id="path14" /><g
     id="g33"><path
       style="fill:url(#linearGradient14);stroke:none;stroke-linejoin:round;stroke-opacity:0.497364;filter:url(#filter33);opacity:0.5"
       d="m 22.001953,14 h 3.996095 l 8.001953,20 H 30.001954 L 24,19.001953 17.998047,34 H 14 Z"
       id="path31" /><path
       style="fill:#64baff;stroke:none;stroke-width:0.970095;stroke-linejoin:round;stroke-opacity:0.497364;filter:url(#filter35);opacity:0.5"
       d="m 24,22 -2.5,6 2.5,8 2.500001,-8 z"
       id="path32" /><path
       style="fill:#ffffff;fill-opacity:1;stroke:none;stroke-width:0.6;stroke-linejoin:round;stroke-opacity:0.497364;filter:url(#filter34);opacity:0.5"
       d="m 24,22 -1.041667,2.5 1.041667,3 1.041667,-3 z"
       id="path33" /></g><path
     id="path38"
     style="opacity:1;fill:none;fill-opacity:1;stroke:#0e141f;stroke-linejoin:round;stroke-opacity:0.15"
     d="M 7,8.5 H 41 M 7,40.5 H 41 M 7,38.5 H 41 M 7,36.5 H 41 M 7,34.5 H 41 M 7,32.5 H 41 M 7,30.5 H 41 M 7,28.5 H 41 M 7,26.5 H 41 M 7,24.5 H 41 M 7,22.5 H 41 M 7,20.5 H 41 M 7,18.5 H 41 M 7,16.5 H 41 M 7,14.5 H 41 M 7,12.5 H 41 M 7,10.5 H 41" /><path
     id="path39"
     style="opacity:1;fill:none;fill-opacity:1;stroke:#0e141f;stroke-linejoin:round;stroke-opacity:0.15"
     d="M 41,8 H 7 M 41,42.078341 H 7 M 7,40 H 41 M 7,38 H 41 M 7,36 H 41 M 7,34 H 41 M 7,32 H 41 M 7,30 H 41 M 7,28 H 41 M 7,26 H 41 M 7,24 H 41 M 7,22 H 41 M 7,20 H 41 M 7,18 H 41 M 7,16 H 41 M 7,14 H 41 M 7,12 H 41 M 7,10 h 34" /></svg>
