<?xml version="1.0" encoding="UTF-8" standalone="no"?>
<svg
   width="48"
   height="48"
   viewBox="0 0 48 48"
   fill="none"
   version="1.1"
   id="svg4"
   xml:space="preserve"
   xmlns:xlink="http://www.w3.org/1999/xlink"
   xmlns="http://www.w3.org/2000/svg"
   xmlns:svg="http://www.w3.org/2000/svg"><defs
     id="defs4"><linearGradient
       id="linearGradient3"><stop
         style="stop-color:#ed5353;stop-opacity:1;"
         offset="0"
         id="stop1" /><stop
         style="stop-color:#ffa154;stop-opacity:1;"
         offset="0.5"
         id="stop2" /><stop
         style="stop-color:#ffe16b;stop-opacity:1;"
         offset="1"
         id="stop3" /></linearGradient><linearGradient
       id="linearGradient1"><stop
         style="stop-color:#c6262e;stop-opacity:1;"
         offset="0"
         id="stop4" /><stop
         style="stop-color:#f37329;stop-opacity:1;"
         offset="0.5"
         id="stop6" /><stop
         style="stop-color:#f9c440;stop-opacity:1;"
         offset="1"
         id="stop5" /></linearGradient><linearGradient
       id="linearGradient1201"><stop
         id="stop1193"
         style="stop-color:#ffffff;stop-opacity:1"
         offset="0" /><stop
         id="stop1195"
         style="stop-color:#ffffff;stop-opacity:0.23529412"
         offset="0.06781636" /><stop
         id="stop1197"
         style="stop-color:#ffffff;stop-opacity:0.15686275"
         offset="0.94694352" /><stop
         id="stop1199"
         style="stop-color:#ffffff;stop-opacity:0.39215687"
         offset="1" /></linearGradient><linearGradient
       id="linearGradient3688-166-749"><stop
         id="stop2883"
         style="stop-color:#181818;stop-opacity:1"
         offset="0" /><stop
         id="stop2885"
         style="stop-color:#181818;stop-opacity:0"
         offset="1" /></linearGradient><linearGradient
       id="linearGradient3702-501-757"><stop
         id="stop2895"
         style="stop-color:#181818;stop-opacity:0"
         offset="0" /><stop
         id="stop2897"
         style="stop-color:#181818;stop-opacity:1"
         offset="0.5" /><stop
         id="stop2899"
         style="stop-color:#181818;stop-opacity:0"
         offset="1" /></linearGradient><radialGradient
       cx="4.9929786"
       cy="43.5"
       r="2.5"
       fx="4.9929786"
       fy="43.5"
       id="radialGradient3013-6"
       xlink:href="#linearGradient3688-166-749"
       gradientUnits="userSpaceOnUse"
       gradientTransform="matrix(2.003784,0,0,0.89999994,29.98813,4.8500025)" /><radialGradient
       cx="4.9929786"
       cy="43.5"
       r="2.5"
       fx="4.9929786"
       fy="43.5"
       id="radialGradient3015-1"
       xlink:href="#linearGradient3688-166-749"
       gradientUnits="userSpaceOnUse"
       gradientTransform="matrix(2.003784,0,0,0.89999994,-18.01187,-83.149997)" /><linearGradient
       x1="38.999996"
       y1="5.9999938"
       x2="38.999996"
       y2="41.945408"
       id="linearGradient3058-5"
       xlink:href="#linearGradient1201"
       gradientUnits="userSpaceOnUse"
       gradientTransform="translate(4e-6,1.0000062)" /><linearGradient
       xlink:href="#linearGradient3702-501-757"
       id="linearGradient1191"
       gradientUnits="userSpaceOnUse"
       x1="25.058096"
       y1="47.027729"
       x2="25.058096"
       y2="39.999443"
       gradientTransform="matrix(1.1428571,0,0,0.6428571,-3.428569,16.035716)" /><linearGradient
       xlink:href="#linearGradient870"
       id="linearGradient930-9-2"
       x1="16.767664"
       y1="2.7676599"
       x2="16.767664"
       y2="29.896721"
       gradientUnits="userSpaceOnUse"
       gradientTransform="matrix(1.444444,0,0,1.444444,0.888913,1.888891)" /><linearGradient
       id="linearGradient870"><stop
         id="stop866"
         offset="0"
         style="stop-color:#3a465a;stop-opacity:1;" /><stop
         id="stop868"
         offset="1"
         style="stop-color:#182027;stop-opacity:1;" /></linearGradient><linearGradient
       xlink:href="#linearGradient1"
       id="linearGradient5"
       x1="25"
       y1="15"
       x2="25"
       y2="35"
       gradientUnits="userSpaceOnUse"
       gradientTransform="translate(-1.000391)" /><filter
       style="color-interpolation-filters:sRGB"
       id="filter7"
       x="-0.43850872"
       y="-0.16253745"
       width="1.8770174"
       height="1.3250749"><feGaussianBlur
         stdDeviation="0.30475772"
         id="feGaussianBlur7" /></filter><linearGradient
       xlink:href="#linearGradient1"
       id="linearGradient118"
       gradientUnits="userSpaceOnUse"
       x1="25"
       y1="15"
       x2="25"
       y2="35"
       gradientTransform="translate(-36.542658)" /><filter
       style="color-interpolation-filters:sRGB"
       id="filter119"
       x="-0.15471753"
       y="-0.15633977"
       width="1.3094351"
       height="1.3126795"><feGaussianBlur
         stdDeviation="1.2376899"
         id="feGaussianBlur119" /></filter><filter
       style="color-interpolation-filters:sRGB"
       id="filter120"
       x="-0.2800084"
       y="-0.10769554"
       width="1.5600168"
       height="1.2153911"><feGaussianBlur
         stdDeviation="0.58335081"
         id="feGaussianBlur120" /></filter><linearGradient
       xlink:href="#linearGradient3"
       id="linearGradient134"
       gradientUnits="userSpaceOnUse"
       x1="25"
       y1="15"
       x2="25"
       y2="35"
       gradientTransform="translate(-1.000391)" /></defs><rect
     style="opacity:0.6;fill:url(#radialGradient3013-6);fill-opacity:1;stroke:none;stroke-width:0.862764"
     id="rect2801-3-7"
     y="41.75"
     x="40"
     height="4.4999995"
     width="5" /><rect
     style="opacity:0.6;fill:url(#radialGradient3015-1);fill-opacity:1;stroke:none;stroke-width:0.862764"
     id="rect3696-6-3"
     transform="scale(-1)"
     y="-46.25"
     x="-8"
     height="4.4999995"
     width="5" /><rect
     style="opacity:0.6;fill:url(#linearGradient1191);fill-opacity:1;stroke:none;stroke-width:0.862764"
     id="rect3700-4-6"
     y="41.75"
     x="8"
     height="4.5"
     width="32" /><rect
     style="color:#000000;font-variation-settings:normal;display:inline;overflow:visible;visibility:visible;vector-effect:none;fill:url(#linearGradient930-9-2);fill-opacity:1;fill-rule:nonzero;stroke:#474747;stroke-width:1;stroke-linecap:butt;stroke-linejoin:miter;stroke-miterlimit:4;stroke-dasharray:none;stroke-dashoffset:0;stroke-opacity:0.49736449;marker:none;enable-background:accumulate;stop-color:#000000"
     id="rect5505-21-1"
     y="5.4999952"
     x="4.5000153"
     ry="4"
     rx="4"
     height="39"
     width="39" /><path
     id="path122"
     style="color:#000000;opacity:0.150384;fill:#000000;stroke-linecap:round;stroke-linejoin:round;-inkscape-stroke:none"
     d="M 6.5 8 A 0.5 0.5 0 0 0 6 8.5 A 0.5 0.5 0 0 0 6.5 9 L 41.5 9 A 0.5 0.5 0 0 0 42 8.5 A 0.5 0.5 0 0 0 41.5 8 L 6.5 8 z M 6.5 10 A 0.5 0.5 0 0 0 6 10.5 A 0.5 0.5 0 0 0 6.5 11 L 41.5 11 A 0.5 0.5 0 0 0 42 10.5 A 0.5 0.5 0 0 0 41.5 10 L 6.5 10 z M 6.5 12 A 0.5 0.5 0 0 0 6 12.5 A 0.5 0.5 0 0 0 6.5 13 L 41.5 13 A 0.5 0.5 0 0 0 42 12.5 A 0.5 0.5 0 0 0 41.5 12 L 6.5 12 z M 6.5 14 A 0.5 0.5 0 0 0 6 14.5 A 0.5 0.5 0 0 0 6.5 15 L 41.5 15 A 0.5 0.5 0 0 0 42 14.5 A 0.5 0.5 0 0 0 41.5 14 L 6.5 14 z M 6.5 16 A 0.5 0.5 0 0 0 6 16.5 A 0.5 0.5 0 0 0 6.5 17 L 41.5 17 A 0.5 0.5 0 0 0 42 16.5 A 0.5 0.5 0 0 0 41.5 16 L 6.5 16 z M 6.5 18 A 0.5 0.5 0 0 0 6 18.5 A 0.5 0.5 0 0 0 6.5 19 L 41.5 19 A 0.5 0.5 0 0 0 42 18.5 A 0.5 0.5 0 0 0 41.5 18 L 6.5 18 z M 6.5 20 A 0.5 0.5 0 0 0 6 20.5 A 0.5 0.5 0 0 0 6.5 21 L 41.5 21 A 0.5 0.5 0 0 0 42 20.5 A 0.5 0.5 0 0 0 41.5 20 L 6.5 20 z M 6.5 22 A 0.5 0.5 0 0 0 6 22.5 A 0.5 0.5 0 0 0 6.5 23 L 41.5 23 A 0.5 0.5 0 0 0 42 22.5 A 0.5 0.5 0 0 0 41.5 22 L 6.5 22 z M 6.5 24 A 0.5 0.5 0 0 0 6 24.5 A 0.5 0.5 0 0 0 6.5 25 L 41.5 25 A 0.5 0.5 0 0 0 42 24.5 A 0.5 0.5 0 0 0 41.5 24 L 6.5 24 z M 6.5 26 A 0.5 0.5 0 0 0 6 26.5 A 0.5 0.5 0 0 0 6.5 27 L 41.5 27 A 0.5 0.5 0 0 0 42 26.5 A 0.5 0.5 0 0 0 41.5 26 L 6.5 26 z M 6.5 28 A 0.5 0.5 0 0 0 6 28.5 A 0.5 0.5 0 0 0 6.5 29 L 41.5 29 A 0.5 0.5 0 0 0 42 28.5 A 0.5 0.5 0 0 0 41.5 28 L 6.5 28 z M 6.5 30 A 0.5 0.5 0 0 0 6 30.5 A 0.5 0.5 0 0 0 6.5 31 L 41.5 31 A 0.5 0.5 0 0 0 42 30.5 A 0.5 0.5 0 0 0 41.5 30 L 6.5 30 z M 6.5 32 A 0.5 0.5 0 0 0 6 32.5 A 0.5 0.5 0 0 0 6.5 33 L 41.5 33 A 0.5 0.5 0 0 0 42 32.5 A 0.5 0.5 0 0 0 41.5 32 L 6.5 32 z M 6.5 34 A 0.5 0.5 0 0 0 6 34.5 A 0.5 0.5 0 0 0 6.5 35 L 41.5 35 A 0.5 0.5 0 0 0 42 34.5 A 0.5 0.5 0 0 0 41.5 34 L 6.5 34 z M 6.5 36 A 0.5 0.5 0 0 0 6 36.5 A 0.5 0.5 0 0 0 6.5 37 L 41.5 37 A 0.5 0.5 0 0 0 42 36.5 A 0.5 0.5 0 0 0 41.5 36 L 6.5 36 z M 6.5 38 A 0.5 0.5 0 0 0 6 38.5 A 0.5 0.5 0 0 0 6.5 39 L 41.5 39 A 0.5 0.5 0 0 0 42 38.5 A 0.5 0.5 0 0 0 41.5 38 L 6.5 38 z M 6.5 40 A 0.5 0.5 0 0 0 6 40.5 A 0.5 0.5 0 0 0 6.5 41 L 41.5 41 A 0.5 0.5 0 0 0 42 40.5 A 0.5 0.5 0 0 0 41.5 40 L 6.5 40 z M 7.5 42 A 0.5 0.5 0 0 0 7 42.5 A 0.5 0.5 0 0 0 7.5 43 L 40.5 43 A 0.5 0.5 0 0 0 41 42.5 A 0.5 0.5 0 0 0 40.5 42 L 7.5 42 z " /><rect
     style="opacity:0.35;fill:none;stroke:url(#linearGradient3058-5);stroke-width:1;stroke-linecap:round;stroke-linejoin:round;stroke-miterlimit:4;stroke-dasharray:none;stroke-dashoffset:0;stroke-opacity:1"
     id="rect6741-2"
     y="6.4999952"
     x="5.5000153"
     ry="3"
     rx="3"
     height="37"
     width="37" /><g
     id="g19"
     style="opacity:0.150384;fill:#000000;fill-opacity:1;stroke:#000000;stroke-width:2;stroke-linejoin:round;stroke-dasharray:none;stroke-opacity:1"
     transform="translate(-1,1)"><path
       style="fill:#000000;fill-opacity:1;stroke:#000000;stroke-width:2;stroke-linejoin:round;stroke-dasharray:none;stroke-opacity:1"
       d="m 23.001953,15 h 3.996094 L 35,35 H 31.001953 L 25,20.001953 18.998047,35 H 15 Z"
       id="path18" /><path
       style="fill:#000000;fill-opacity:1;stroke:#000000;stroke-width:2;stroke-linejoin:round;stroke-dasharray:none;stroke-opacity:1"
       d="m 25,23 -2.5,6 2.5,8 2.5,-8 z"
       id="path19" /></g><path
     id="path119"
     style="mix-blend-mode:normal;fill:url(#linearGradient5);stroke:none;stroke-linejoin:round;stroke-opacity:0.497364;filter:url(#filter119)"
     d="m 22.001562,15 -0.400391,1 h 4.796876 l -0.400391,-1 z m -0.800781,2 -0.400391,1 h 6.398438 l -0.400391,-1 z m -0.798828,2 -0.400391,1 h 7.996094 l -0.400391,-1 z m -0.800782,2 -0.40039,1 h 4 l 0.40039,-1 z m 4.796876,0 0.40039,1 h 4 l -0.40039,-1 z M 18.80039,23 18.4,24 h 4 l 0.40039,-1 z m 6.398438,0 0.40039,1 h 4 l -0.40039,-1 z m -7.199219,2 -0.398438,1 h 3.998047 l 0.400391,-1 z m 8,0 L 26.4,26 h 3.998047 l -0.398438,-1 z m -8.798828,2 -0.400391,1 h 3.998047 l 0.400391,-1 z m 9.599609,0 0.400391,1 h 3.998047 L 30.798437,27 Z M 16.4,29 15.999609,30 h 3.998047 l 0.400391,-1 z m 11.201171,0 0.400391,1 h 3.998047 l -0.400391,-1 z m -12.001953,2 -0.398437,1 h 3.998047 l 0.40039,-1 z M 28.4,31 l 0.40039,1 h 3.998047 L 32.4,31 Z M 14.80039,33 14.4,34 h 3.998047 l 0.40039,-1 z m 14.400391,0 0.40039,1 h 3.998047 l -0.40039,-1 z" /><g
     id="g18"
     style="opacity:0.150384;fill:#000000;fill-opacity:1"
     transform="translate(-1,1)"><path
       style="fill:#000000;fill-opacity:1;stroke:none;stroke-linejoin:round;stroke-opacity:0.497364"
       d="m 23.001953,15 h 3.996094 L 35,35 H 31.001953 L 25,20.001953 18.998047,35 H 15 Z"
       id="path10" /><path
       style="fill:#000000;fill-opacity:1;stroke:none;stroke-width:0.970095;stroke-linejoin:round;stroke-opacity:0.497364"
       d="m 25,23 -2.5,6 2.5,8 2.5,-8 z"
       id="path17" /></g><path
     id="path1"
     style="fill:url(#linearGradient134);stroke:none;stroke-linejoin:round;stroke-opacity:0.497364"
     d="m 22.001562,15 -0.400391,1 h 4.796876 l -0.400391,-1 z m -0.800781,2 -0.400391,1 h 6.398438 l -0.400391,-1 z m -0.798828,2 -0.400391,1 h 7.996094 l -0.400391,-1 z m -0.800782,2 -0.40039,1 h 4 l 0.40039,-1 z m 4.796876,0 0.40039,1 h 4 l -0.40039,-1 z M 18.80039,23 18.4,24 h 4 l 0.40039,-1 z m 6.398438,0 0.40039,1 h 4 l -0.40039,-1 z m -7.199219,2 -0.398438,1 h 3.998047 l 0.400391,-1 z m 8,0 L 26.4,26 h 3.998047 l -0.398438,-1 z m -8.798828,2 -0.400391,1 h 3.998047 l 0.400391,-1 z m 9.599609,0 0.400391,1 h 3.998047 L 30.798437,27 Z M 16.4,29 15.999609,30 h 3.998047 l 0.400391,-1 z m 11.201171,0 0.400391,1 h 3.998047 l -0.400391,-1 z m -12.001953,2 -0.398437,1 h 3.998047 l 0.40039,-1 z M 28.4,31 l 0.40039,1 h 3.998047 L 32.4,31 Z M 14.80039,33 14.4,34 h 3.998047 l 0.40039,-1 z m 14.400391,0 0.40039,1 h 3.998047 l -0.40039,-1 z" /><path
     id="path120"
     style="mix-blend-mode:normal;fill:#64baff;stroke:none;stroke-width:0.970095;stroke-linejoin:round;stroke-opacity:0.497364;filter:url(#filter120)"
     d="m 24,23 -0.416016,1 h 0.832032 z M 23.166016,25 22.75,26 h 2.5 l -0.416016,-1 z m -0.832032,2 -0.417968,1 h 4.167968 L 25.666016,27 Z M 21.5,29 l 0.3125,1 h 4.375 L 26.5,29 Z m 0.625,2 0.3125,1 h 3.125 l 0.3125,-1 z m 0.625,2 0.3125,1 h 1.875 L 25.25,33 Z m 0.625,2 0.3125,1 h 0.625 l 0.3125,-1 z" /><path
     id="path6"
     style="fill:#64baff;stroke:none;stroke-width:0.970095;stroke-linejoin:round;stroke-opacity:0.497364"
     d="m 24,23 -0.416016,1 h 0.832032 z M 23.166016,25 22.75,26 h 2.5 l -0.416016,-1 z m -0.832032,2 -0.417968,1 h 4.167968 L 25.666016,27 Z M 21.5,29 l 0.3125,1 h 4.375 L 26.5,29 Z m 0.625,2 0.3125,1 h 3.125 l 0.3125,-1 z m 0.625,2 0.3125,1 h 1.875 L 25.25,33 Z m 0.625,2 0.3125,1 h 0.625 l 0.3125,-1 z" /><path
     id="path8"
     style="fill:#ffffff;fill-opacity:1;stroke:none;stroke-width:0.6;stroke-linejoin:round;stroke-opacity:0.497364"
     d="M 24.000016,23 23.584,24 h 0.832032 z M 23.167985,25 22.959,25.5 23.132828,26 h 1.734376 L 25.041032,25.5 24.832047,25 Z m 0.3125,2 0.345703,1 h 0.347656 l 0.345703,-1 z" /><path
     id="path7"
     style="mix-blend-mode:normal;fill:#ffffff;fill-opacity:1;stroke:none;stroke-width:0.6;stroke-linejoin:round;stroke-opacity:0.497364;filter:url(#filter7)"
     d="m 23.599593,25 -0.40039,1 h 1.601562 l -0.40039,-1 z m -0.433593,2 0.333984,1 h 1 l 0.333984,-1 z m 0.667968,2 0.166016,0.5 L 24.166,29 Z" /><path
     style="fill:url(#linearGradient118);stroke:none;stroke-linejoin:round;stroke-opacity:0.497364"
     d="m -13.540705,15 h 3.9960945 l 8.001953,20 h -3.998047 L -11.542658,20.001953 -17.544611,35 h -3.998047 z"
     id="path115" /><path
     style="fill:#64baff;stroke:none;stroke-width:0.970095;stroke-linejoin:round;stroke-opacity:0.497364"
     d="m -11.542658,23 -2.5,6 2.5,8 2.5000005,-8 z"
     id="path116" /><path
     style="fill:#ffffff;fill-opacity:1;stroke:none;stroke-width:0.6;stroke-linejoin:round;stroke-opacity:0.497364"
     d="m -11.542658,23 -1.041667,2.5 1.041667,3 1.041667,-3 z"
     id="path117" /><path
     style="mix-blend-mode:normal;fill:#ffffff;fill-opacity:1;stroke:none;stroke-width:0.6;stroke-linejoin:round;stroke-opacity:0.497364;filter:url(#filter7)"
     d="m -11.542658,24 -1,2.5 1,3 1,-3 z"
     id="path118" /></svg>
