<?xml version="1.0" encoding="UTF-8" standalone="no"?>
<svg
   width="48"
   height="48"
   viewBox="0 0 48 48"
   fill="none"
   version="1.1"
   id="svg4"
   xml:space="preserve"
   xmlns:xlink="http://www.w3.org/1999/xlink"
   xmlns="http://www.w3.org/2000/svg"
   xmlns:svg="http://www.w3.org/2000/svg"><defs
     id="defs4"><linearGradient
       id="linearGradient18"><stop
         style="stop-color:#ffffff;stop-opacity:1;"
         offset="0"
         id="stop18" /><stop
         style="stop-color:#ffffff;stop-opacity:0;"
         offset="1"
         id="stop19" /></linearGradient><linearGradient
       id="linearGradient17"><stop
         offset="0"
         style="stop-color:#ffffff;stop-opacity:1"
         id="stop14" /><stop
         offset="0.14473684"
         style="stop-color:#ffffff;stop-opacity:0.23529412"
         id="stop15" /><stop
         offset="0.85526317"
         style="stop-color:#ffffff;stop-opacity:0.15686275"
         id="stop16" /><stop
         offset="1"
         style="stop-color:#ffffff;stop-opacity:0.39215687"
         id="stop17" /></linearGradient><linearGradient
       id="linearGradient3688-166-749"><stop
         id="stop2883"
         style="stop-color:#181818;stop-opacity:1"
         offset="0" /><stop
         id="stop2885"
         style="stop-color:#181818;stop-opacity:0"
         offset="1" /></linearGradient><radialGradient
       cx="4.9929786"
       cy="43.5"
       r="2.5"
       fx="4.9929786"
       fy="43.5"
       id="radialGradient3013-6"
       xlink:href="#linearGradient3688-166-749"
       gradientUnits="userSpaceOnUse"
       gradientTransform="matrix(4.4028086,5.1854378e-8,-3.7010521e-8,0.89999994,2.0098511,4.8500022)" /><radialGradient
       cx="4.9929786"
       cy="43.5"
       r="2.5"
       fx="4.9929786"
       fy="43.5"
       id="radialGradient3015-1"
       xlink:href="#linearGradient3688-166-749"
       gradientUnits="userSpaceOnUse"
       gradientTransform="matrix(4.4028076,-6.7810269e-8,5.84035e-8,0.89999994,-45.990145,-83.149997)" /><style
       id="style1">.g{fill:#000;}.g,.h,.i{stroke-width:0px;}.h{fill:url(#e);}.i{fill:#fff;}</style><style
       id="style1-7">.g{fill:#000;}.g,.h,.i{stroke-width:0px;}.h{fill:url(#e);}.i{fill:#fff;}</style><style
       id="style1-5">.g{fill:#000;}.g,.h,.i{stroke-width:0px;}.h{fill:url(#e);}.i{fill:#fff;}</style><linearGradient
       id="linearGradient2-5"><stop
         style="stop-color:#5865f2;stop-opacity:1;"
         offset="0"
         id="stop3-3" /><stop
         style="stop-color:#1f30f4;stop-opacity:1;"
         offset="1"
         id="stop4-5" /></linearGradient><style
       id="style1-3">.g{fill:#000;}.g,.h,.i{stroke-width:0px;}.h{fill:url(#e);}.i{fill:#fff;}</style><style
       id="style1-6">.cls-1{fill:#fff;}</style><linearGradient
       xlink:href="#linearGradient2-5"
       id="linearGradient10"
       x1="24"
       y1="5"
       x2="24"
       y2="45.5"
       gradientUnits="userSpaceOnUse" /><linearGradient
       xlink:href="#linearGradient17"
       id="linearGradient12"
       x1="24"
       y1="6"
       x2="24"
       y2="44"
       gradientUnits="userSpaceOnUse" /><linearGradient
       xlink:href="#linearGradient18"
       id="linearGradient19"
       x1="38.335541"
       y1="46.007946"
       x2="36.881195"
       y2="41"
       gradientUnits="userSpaceOnUse" /></defs><g
     id="g1"><rect
       style="opacity:0.6;fill:url(#radialGradient3013-6);fill-opacity:1;stroke:none;stroke-width:0.862764"
       id="rect2801-3-7"
       y="41.75"
       x="24"
       height="4.5"
       width="11" /><rect
       style="opacity:0.6;fill:url(#radialGradient3015-1);fill-opacity:1;stroke:none;stroke-width:0.862764"
       id="rect3696-6-3"
       transform="scale(-1)"
       y="-46.25"
       x="-24"
       height="4.5"
       width="11" /></g><path
     d="M 24.025391,4.5253906 C 12.717666,4.5256066 3.550998,13.692275 3.550782,25 c 2.16e-4,11.307725 9.166884,20.474393 20.474609,20.474609 2.135502,-0.01064 4.256194,-0.355304 6.285156,-1.021484 1.063123,1.880258 3.054846,3.043961 5.214844,3.046875 1.407078,-0.01687 2.763464,-0.527762 3.832031,-1.443359 C 37.328915,45.385325 36.040223,44.009763 36.025391,42.5 c 0.0099,-0.409205 0.114012,-0.814969 0.308594,-1.203125 0.846156,-0.637906 1.641515,-1.340538 2.378906,-2.101563 0.486273,-0.502158 0.946511,-1.02889 1.378906,-1.578125 C 42.931123,34.02293 44.483254,29.580412 44.5,25 44.499784,13.692275 35.333116,4.5256066 24.025391,4.5253906 Z"
     style="opacity:1;fill:url(#linearGradient10);fill-opacity:1;stroke:#0a0f9f;stroke-linejoin:round;stroke-opacity:0.5"
     id="path8" /><path
     class="cls-1"
     d="M 33.110355,17.755278 A 21.647154,21.647154 0 0 0 27.710402,16.093913 14.83494,14.83494 0 0 0 27.018684,17.5 a 20.109311,20.109311 0 0 0 -5.992855,0 14.89876,14.89876 0 0 0 -0.69172,-1.406087 21.799498,21.799498 0 0 0 -5.404065,1.665483 C 11.512613,22.815545 10.5862,27.746114 11.0494,32.606688 v 0 a 21.766559,21.766559 0 0 0 6.622815,3.324789 15.996044,15.996044 0 0 0 1.418443,-2.287208 14.085576,14.085576 0 0 1 -2.233682,-1.066402 c 0.187339,-0.135875 0.370566,-0.275865 0.547612,-0.411739 a 15.557542,15.557542 0 0 0 13.241513,0 c 0.179108,0.146167 0.362328,0.286158 0.547608,0.411739 a 14.139102,14.139102 0 0 1 -2.237798,1.068461 15.851934,15.851934 0 0 0 1.418443,2.285149 21.667742,21.667742 0 0 0 6.626934,-3.32273 v 0 C 37.54478,26.972045 36.07282,22.086768 33.110355,17.755278 Z M 19.677386,29.617466 c -1.290802,0 -2.357204,-1.171396 -2.357204,-2.612481 0,-1.441085 1.029348,-2.622775 2.353084,-2.622775 1.32374,0 2.381911,1.18169 2.359263,2.622775 -0.02266,1.441085 -1.039642,2.612481 -2.355143,2.612481 z m 8.695913,0 c -1.292853,0 -2.35514,-1.171396 -2.35514,-2.612481 0,-1.441085 1.029345,-2.622775 2.35514,-2.622775 1.3258,0 2.375737,1.18169 2.353089,2.622775 -0.02266,1.441085 -1.03758,2.612481 -2.353089,2.612481 z"
     id="path20"
     style="opacity:0.15;fill:#000000;fill-opacity:1;stroke:#000000;stroke-width:2;stroke-dasharray:none;stroke-opacity:1" /><path
     class="cls-1"
     d="M 33.110355,17.755278 A 21.647154,21.647154 0 0 0 27.710402,16.093913 14.83494,14.83494 0 0 0 27.018684,17.5 a 20.109311,20.109311 0 0 0 -5.992855,0 14.89876,14.89876 0 0 0 -0.69172,-1.406087 21.799498,21.799498 0 0 0 -5.404065,1.665483 C 11.512613,22.815545 10.5862,27.746114 11.0494,32.606688 v 0 a 21.766559,21.766559 0 0 0 6.622815,3.324789 15.996044,15.996044 0 0 0 1.418443,-2.287208 14.085576,14.085576 0 0 1 -2.233682,-1.066402 c 0.187339,-0.135875 0.370566,-0.275865 0.547612,-0.411739 a 15.557542,15.557542 0 0 0 13.241513,0 c 0.179108,0.146167 0.362328,0.286158 0.547608,0.411739 a 14.139102,14.139102 0 0 1 -2.237798,1.068461 15.851934,15.851934 0 0 0 1.418443,2.285149 21.667742,21.667742 0 0 0 6.626934,-3.32273 v 0 C 37.54478,26.972045 36.07282,22.086768 33.110355,17.755278 Z M 19.677386,29.617466 c -1.290802,0 -2.357204,-1.171396 -2.357204,-2.612481 0,-1.441085 1.029348,-2.622775 2.353084,-2.622775 1.32374,0 2.381911,1.18169 2.359263,2.622775 -0.02266,1.441085 -1.039642,2.612481 -2.355143,2.612481 z m 8.695913,0 c -1.292853,0 -2.35514,-1.171396 -2.35514,-2.612481 0,-1.441085 1.029345,-2.622775 2.35514,-2.622775 1.3258,0 2.375737,1.18169 2.353089,2.622775 -0.02266,1.441085 -1.03758,2.612481 -2.353089,2.612481 z"
     id="path19"
     style="opacity:0.15;fill:#000000;fill-opacity:1;stroke:none;stroke-width:0.206;stroke-dasharray:none" /><path
     class="cls-1"
     d="m 33.110355,16.755278 c -1.719678,-0.78731 -3.53512,-1.345854 -5.399953,-1.661365 -0.255183,0.456182 -0.486078,0.925532 -0.691718,1.406087 -1.986405,-0.29933 -4.00645,-0.29933 -5.992855,0 -0.205748,-0.480505 -0.436641,-0.94985 -0.69172,-1.406087 -1.866026,0.318176 -3.682661,0.878046 -5.404065,1.665483 -3.417431,5.056149 -4.343844,9.986718 -3.880644,14.847292 v 0 c 2.001333,1.478673 4.241395,2.60323 6.622815,3.324789 0.536226,-0.721203 1.010719,-1.486313 1.418443,-2.287208 -0.774411,-0.289233 -1.521857,-0.646078 -2.233682,-1.066402 0.187339,-0.135875 0.370566,-0.275865 0.547612,-0.411739 4.193549,1.972125 9.047964,1.972125 13.241513,0 0.179108,0.146167 0.362328,0.286158 0.547608,0.411739 -0.713201,0.421005 -1.462013,0.778534 -2.237798,1.068461 0.407224,0.800524 0.881746,1.564992 1.418443,2.285149 2.383453,-0.718663 4.625235,-1.842687 6.626934,-3.32273 v 0 C 37.54478,25.972045 36.07282,21.086768 33.110355,16.755278 Z M 19.677386,28.617466 c -1.290802,0 -2.357204,-1.171396 -2.357204,-2.612481 0,-1.441085 1.029348,-2.622775 2.353084,-2.622775 1.32374,0 2.381911,1.18169 2.359263,2.622775 -0.02266,1.441085 -1.039642,2.612481 -2.355143,2.612481 z m 8.695913,0 c -1.292853,0 -2.35514,-1.171396 -2.35514,-2.612481 0,-1.441085 1.029345,-2.622775 2.35514,-2.622775 1.3258,0 2.375737,1.18169 2.353089,2.622775 -0.02266,1.441085 -1.03758,2.612481 -2.353089,2.612481 z"
     id="path1-6"
     style="fill:#abacae;stroke-width:0.205868" /><circle
     style="opacity:0.3;fill:none;fill-opacity:1;stroke:url(#linearGradient12);stroke-width:1;stroke-linejoin:round;stroke-dasharray:none;stroke-opacity:0.5"
     id="path10"
     cx="24"
     cy="25"
     r="19.5" /><path
     style="opacity:0.300033;fill:url(#linearGradient19);stroke:none;stroke-width:1;stroke-linejoin:round;stroke-dasharray:none;stroke-opacity:0.5"
     d="m 38.5,46.25 c -1.25794,0.120923 -2,0.08203 -3,-0.25 C 33.685991,45.204165 33.249718,44.244126 33,42.825383 34.095051,42.325397 35.031684,41.722227 36,41 c -0.375794,0.832499 -0.908491,1.595062 0,3 0.880859,1.532121 1.253691,1.593554 2.5,2.25 z"
     id="path17" /><path
     id="path21"
     style="fill:#d4d4d4;stroke-width:0.205868"
     class="cls-1"
     d="m 20.333984,15.09375 c -1.866129,0.318326 -3.682845,0.878376 -5.404296,1.666016 -2.767117,4.093997 -3.898909,8.105614 -3.984376,12.064453 0.01313,0.595474 0.04698,1.189915 0.103516,1.783203 2.001444,1.478495 4.241584,2.60286 6.623047,3.324219 0.348648,-0.475334 0.670754,-0.969578 0.964844,-1.480469 -0.612863,-0.248876 -1.207433,-0.540614 -1.779297,-0.873047 l 0.546875,-1.412109 c 4.193737,1.972337 9.04845,1.972337 13.242187,0 l 0.546874,1.412109 c -0.573153,0.333109 -1.169024,0.625497 -1.783203,0.875 0.293899,0.51038 0.616013,1.003984 0.964844,1.478516 2.383429,-0.718519 4.625215,-1.842385 6.626953,-3.322266 0.05777,-0.599162 0.08675,-1.189065 0.09961,-1.771484 -0.09777,-4.486749 -1.524368,-8.476631 -3.990234,-12.082032 -1.71978,-0.787603 -3.535373,-1.346398 -5.40039,-1.662109 -0.255083,0.456242 -0.485874,0.925647 -0.691407,1.40625 -1.986826,-0.299459 -4.007314,-0.299459 -5.99414,0 -0.205641,-0.480554 -0.436429,-0.949953 -0.691407,-1.40625 z m -0.660156,7.289062 c 1.32374,0 2.382023,1.181962 2.359375,2.623047 -0.0025,0.15646 -0.01991,0.308084 -0.04492,0.457032 0.03127,0.1752 0.04784,0.357167 0.04492,0.542968 -0.02266,1.441085 -1.039968,2.611329 -2.355469,2.611329 -1.290802,0 -2.357421,-1.170244 -2.357422,-2.611329 0,-0.173395 0.0164,-0.343534 0.04492,-0.507812 -0.02787,-0.15983 -0.04492,-0.323524 -0.04492,-0.492188 0,-1.441085 1.02978,-2.623047 2.353516,-2.623047 z m 8.699219,0 c 1.3258,0 2.376164,1.181962 2.353515,2.623047 -0.0025,0.15646 -0.01995,0.308084 -0.04492,0.457032 0.03103,0.1752 0.04784,0.357167 0.04492,0.542968 -0.02266,1.441085 -1.038006,2.611329 -2.353515,2.611329 -1.292853,0 -2.355469,-1.170244 -2.355469,-2.611329 0,-0.173395 0.01639,-0.343534 0.04492,-0.507812 -0.02776,-0.159818 -0.04492,-0.323537 -0.04492,-0.492188 0,-1.441085 1.029674,-2.623047 2.355469,-2.623047 z" /><path
     id="path22"
     style="fill:#fafafa;stroke-width:0.205868"
     class="cls-1"
     d="m 20.333984,15.09375 c -1.866129,0.318326 -3.682845,0.878376 -5.404296,1.666016 -2.653508,3.92591 -3.799382,7.775663 -3.964844,11.576172 0.01853,0.424319 0.04365,0.848263 0.08398,1.271484 2.001444,1.478495 4.241584,2.60286 6.623047,3.324219 0.162872,-0.225684 0.319827,-0.45558 0.470703,-0.689453 -0.439477,-0.199196 -0.868427,-0.420843 -1.285156,-0.664063 0.187339,-0.135875 0.546875,-2.412109 0.546875,-2.412109 4.193737,1.972337 9.04845,1.972337 13.242187,0 l 0.546875,2.412109 c -0.417369,0.243861 -0.84697,0.466159 -1.287109,0.666016 0.150207,0.233229 0.306511,0.462474 0.46875,0.6875 2.383429,-0.718519 4.625215,-1.842385 6.626953,-3.322266 0.04143,-0.429702 0.0677,-0.854335 0.08594,-1.275391 -0.190234,-4.282404 -1.603313,-8.108141 -3.976563,-11.578125 -1.71978,-0.787603 -3.535373,-1.346398 -5.40039,-1.662109 -0.255083,0.456242 -0.485874,0.925647 -0.691407,1.40625 -1.986826,-0.299459 -4.007314,-0.299459 -5.99414,0 -0.205641,-0.480554 -0.436429,-0.949953 -0.691407,-1.40625 z m -0.660156,6.289062 c 1.32374,0 2.382023,1.181962 2.359375,2.623047 -0.0054,0.343356 -0.06885,0.670164 -0.177734,0.970703 0.119107,0.316096 0.183456,0.665215 0.177734,1.029297 -0.02266,1.441085 -1.039968,2.611329 -2.355469,2.611329 -1.290802,0 -2.357421,-1.170244 -2.357422,-2.611329 0,-0.356769 0.06466,-0.698788 0.179688,-1.009765 -0.114253,-0.305849 -0.179688,-0.63941 -0.179688,-0.990235 0,-1.441085 1.02978,-2.623047 2.353516,-2.623047 z m 8.699219,0 c 1.3258,0 2.376164,1.181962 2.353515,2.623047 -0.0054,0.342038 -0.06981,0.667201 -0.177734,0.966797 0.119353,0.317193 0.183481,0.667541 0.177734,1.033203 -0.02266,1.441085 -1.038006,2.611329 -2.353515,2.611329 -1.292853,0 -2.355469,-1.170244 -2.355469,-2.611329 0,-0.356769 0.06463,-0.698788 0.179688,-1.009765 -0.113914,-0.305849 -0.179688,-0.63941 -0.179688,-0.990235 0,-1.441085 1.029674,-2.623047 2.355469,-2.623047 z" /></svg>
