<?xml version="1.0" encoding="UTF-8" standalone="no"?>
<svg
   width="48"
   height="48"
   viewBox="0 0 48 48"
   fill="none"
   version="1.1"
   id="svg4"
   xml:space="preserve"
   xmlns:xlink="http://www.w3.org/1999/xlink"
   xmlns="http://www.w3.org/2000/svg"
   xmlns:svg="http://www.w3.org/2000/svg"><defs
     id="defs4"><linearGradient
       id="linearGradient18"><stop
         style="stop-color:#ffffff;stop-opacity:1;"
         offset="0"
         id="stop18" /><stop
         style="stop-color:#ffffff;stop-opacity:0;"
         offset="1"
         id="stop19" /></linearGradient><linearGradient
       id="linearGradient17"><stop
         offset="0"
         style="stop-color:#ffffff;stop-opacity:1"
         id="stop14" /><stop
         offset="0.14473684"
         style="stop-color:#ffffff;stop-opacity:0.23529412"
         id="stop15" /><stop
         offset="0.85526317"
         style="stop-color:#ffffff;stop-opacity:0.15686275"
         id="stop16" /><stop
         offset="1"
         style="stop-color:#ffffff;stop-opacity:0.39215687"
         id="stop17" /></linearGradient><style
       id="style1">.g{fill:#000;}.g,.h,.i{stroke-width:0px;}.h{fill:url(#e);}.i{fill:#fff;}</style><style
       id="style1-7">.g{fill:#000;}.g,.h,.i{stroke-width:0px;}.h{fill:url(#e);}.i{fill:#fff;}</style><style
       id="style1-5">.g{fill:#000;}.g,.h,.i{stroke-width:0px;}.h{fill:url(#e);}.i{fill:#fff;}</style><linearGradient
       id="linearGradient2-5"><stop
         style="stop-color:#5865f2;stop-opacity:1;"
         offset="0"
         id="stop3-3" /><stop
         style="stop-color:#1f30f4;stop-opacity:1;"
         offset="1"
         id="stop4-5" /></linearGradient><style
       id="style1-3">.g{fill:#000;}.g,.h,.i{stroke-width:0px;}.h{fill:url(#e);}.i{fill:#fff;}</style><style
       id="style1-6">.cls-1{fill:#fff;}</style><linearGradient
       xlink:href="#linearGradient17"
       id="linearGradient12"
       x1="24"
       y1="6"
       x2="24"
       y2="44"
       gradientUnits="userSpaceOnUse" /><linearGradient
       xlink:href="#linearGradient18"
       id="linearGradient19"
       x1="38.264111"
       y1="46.5"
       x2="36.881195"
       y2="41"
       gradientUnits="userSpaceOnUse" /><linearGradient
       id="linearGradient3820-7-2"><stop
         id="stop3822-2-6"
         style="stop-color:#000000;stop-opacity:1"
         offset="0" /><stop
         id="stop3824-1-2"
         style="stop-color:#000000;stop-opacity:0"
         offset="1" /></linearGradient><radialGradient
       xlink:href="#linearGradient3820-7-2"
       id="radialGradient3"
       gradientUnits="userSpaceOnUse"
       gradientTransform="matrix(0.3823536,7.5555777e-8,-1.8372241e-8,0.1115198,-5.9254271,36.335849)"
       cx="99.189415"
       cy="185.29727"
       fx="99.189415"
       fy="185.29727"
       r="62.769119" /><radialGradient
       xlink:href="#linearGradient3820-7-2"
       id="radialGradient4"
       gradientUnits="userSpaceOnUse"
       gradientTransform="matrix(0.2549024,5.3967361e-8,-1.2248161e-8,0.07965545,6.7163816,44.240666)"
       cx="99.189415"
       cy="185.29727"
       fx="99.189415"
       fy="185.29727"
       r="62.769119" /><style
       id="style1-62">.g{fill:#000;}.g,.h,.i{stroke-width:0px;}.h{fill:url(#e);}.i{fill:#fff;}</style><style
       id="style1-6-9">.cls-1{fill:#fff;}</style><style
       id="style1-67">.cls-1{fill:#fff;}</style><style
       id="style1-56">.g{fill:#000;}.g,.h,.i{stroke-width:0px;}.h{fill:url(#e);}.i{fill:#fff;}</style><style
       id="style1-7-1">.g{fill:#000;}.g,.h,.i{stroke-width:0px;}.h{fill:url(#e);}.i{fill:#fff;}</style><style
       id="style1-5-2">.g{fill:#000;}.g,.h,.i{stroke-width:0px;}.h{fill:url(#e);}.i{fill:#fff;}</style><style
       id="style1-3-7">.g{fill:#000;}.g,.h,.i{stroke-width:0px;}.h{fill:url(#e);}.i{fill:#fff;}</style><style
       id="style1-6-1">.cls-1{fill:#fff;}</style><style
       id="style1-2">.g{fill:#000;}.g,.h,.i{stroke-width:0px;}.h{fill:url(#e);}.i{fill:#fff;}</style><style
       id="style1-6-8">.cls-1{fill:#fff;}</style><linearGradient
       xlink:href="#linearGradient2-5"
       id="linearGradient9"
       x1="24"
       y1="5"
       x2="24"
       y2="45"
       gradientUnits="userSpaceOnUse" /></defs><g
     style="opacity:0.5;stroke-width:1.25789"
     transform="matrix(0.79166667,0,0,0.798316,-1.333332,-6.5936782)"
     id="g3"><path
       style="opacity:0.2;fill:url(#radialGradient3);fill-opacity:1;stroke:none;stroke-width:1.25789"
       id="path2"
       d="m 55.999998,57.0017 a 24,6.9985714 0 1 1 -47.9999991,0 24,6.9985714 0 1 1 47.9999991,0 z" /><path
       d="m 47.999998,59.0017 a 16,4.9988822 0 1 1 -31.999999,0 16,4.9988822 0 1 1 31.999999,0 z"
       id="path3"
       style="opacity:0.4;fill:url(#radialGradient4);fill-opacity:1;stroke:none;stroke-width:1.25789" /></g><path
     d="M 24,4.5 C 12.678163,4.5 3.5,13.678163 3.5,25 c 0,11.321837 9.178163,20.5 20.5,20.5 1.741305,-0.01183 3.474007,-0.245487 5.15625,-0.695313 1.673143,1.704643 3.955284,2.674272 6.34375,2.695313 2.07962,-0.0046 4.093472,-0.729261 5.699219,-2.050781 -1.949721,-0.160695 -3.725355,-1.734503 -4.759766,-4.21875 2.753402,-2.100408 4.929826,-4.86411 6.326172,-8.033203 0.660375,-1.520495 1.133885,-3.115475 1.410156,-4.75 C 44.380876,27.309376 44.489335,26.156176 44.5,25 44.5,13.678163 35.321837,4.5 24,4.5 Z"
     style="opacity:1;fill:url(#linearGradient9);stroke:#0a0f9f;stroke-linejoin:round;stroke-opacity:0.501961"
     id="path8" /><path
     class="cls-1"
     d="M 33.110355,17.755278 A 21.647154,21.647154 0 0 0 27.710402,16.093913 14.83494,14.83494 0 0 0 27.018684,17.5 a 20.109311,20.109311 0 0 0 -5.992855,0 14.89876,14.89876 0 0 0 -0.69172,-1.406087 21.799498,21.799498 0 0 0 -5.404065,1.665483 C 11.512613,22.815545 10.5862,27.746114 11.0494,32.606688 v 0 a 21.766559,21.766559 0 0 0 6.622815,3.324789 15.996044,15.996044 0 0 0 1.418443,-2.287208 14.085576,14.085576 0 0 1 -2.233682,-1.066402 c 0.187339,-0.135875 0.370566,-0.275865 0.547612,-0.411739 a 15.557542,15.557542 0 0 0 13.241513,0 c 0.179108,0.146167 0.362328,0.286158 0.547608,0.411739 a 14.139102,14.139102 0 0 1 -2.237798,1.068461 15.851934,15.851934 0 0 0 1.418443,2.285149 21.667742,21.667742 0 0 0 6.626934,-3.32273 v 0 C 37.54478,26.972045 36.07282,22.086768 33.110355,17.755278 Z M 19.677386,29.617466 c -1.290802,0 -2.357204,-1.171396 -2.357204,-2.612481 0,-1.441085 1.029348,-2.622775 2.353084,-2.622775 1.32374,0 2.381911,1.18169 2.359263,2.622775 -0.02266,1.441085 -1.039642,2.612481 -2.355143,2.612481 z m 8.695913,0 c -1.292853,0 -2.35514,-1.171396 -2.35514,-2.612481 0,-1.441085 1.029345,-2.622775 2.35514,-2.622775 1.3258,0 2.375737,1.18169 2.353089,2.622775 -0.02266,1.441085 -1.03758,2.612481 -2.353089,2.612481 z"
     id="path20"
     style="opacity:0.15;fill:#000000;fill-opacity:1;stroke:#000000;stroke-width:2;stroke-dasharray:none;stroke-opacity:1" /><path
     class="cls-1"
     d="M 33.110355,17.755278 A 21.647154,21.647154 0 0 0 27.710402,16.093913 14.83494,14.83494 0 0 0 27.018684,17.5 a 20.109311,20.109311 0 0 0 -5.992855,0 14.89876,14.89876 0 0 0 -0.69172,-1.406087 21.799498,21.799498 0 0 0 -5.404065,1.665483 C 11.512613,22.815545 10.5862,27.746114 11.0494,32.606688 v 0 a 21.766559,21.766559 0 0 0 6.622815,3.324789 15.996044,15.996044 0 0 0 1.418443,-2.287208 14.085576,14.085576 0 0 1 -2.233682,-1.066402 c 0.187339,-0.135875 0.370566,-0.275865 0.547612,-0.411739 a 15.557542,15.557542 0 0 0 13.241513,0 c 0.179108,0.146167 0.362328,0.286158 0.547608,0.411739 a 14.139102,14.139102 0 0 1 -2.237798,1.068461 15.851934,15.851934 0 0 0 1.418443,2.285149 21.667742,21.667742 0 0 0 6.626934,-3.32273 v 0 C 37.54478,26.972045 36.07282,22.086768 33.110355,17.755278 Z M 19.677386,29.617466 c -1.290802,0 -2.357204,-1.171396 -2.357204,-2.612481 0,-1.441085 1.029348,-2.622775 2.353084,-2.622775 1.32374,0 2.381911,1.18169 2.359263,2.622775 -0.02266,1.441085 -1.039642,2.612481 -2.355143,2.612481 z m 8.695913,0 c -1.292853,0 -2.35514,-1.171396 -2.35514,-2.612481 0,-1.441085 1.029345,-2.622775 2.35514,-2.622775 1.3258,0 2.375737,1.18169 2.353089,2.622775 -0.02266,1.441085 -1.03758,2.612481 -2.353089,2.612481 z"
     id="path19"
     style="opacity:0.15;fill:#000000;fill-opacity:1;stroke:none;stroke-width:0.206;stroke-dasharray:none" /><path
     class="cls-1"
     d="m 33.110355,16.755278 c -1.719678,-0.78731 -3.53512,-1.345854 -5.399953,-1.661365 -0.255183,0.456182 -0.486078,0.925532 -0.691718,1.406087 -1.986405,-0.29933 -4.00645,-0.29933 -5.992855,0 -0.205748,-0.480505 -0.436641,-0.94985 -0.69172,-1.406087 -1.866026,0.318176 -3.682661,0.878046 -5.404065,1.665483 -3.417431,5.056149 -4.343844,9.986718 -3.880644,14.847292 v 0 c 2.001333,1.478673 4.241395,2.60323 6.622815,3.324789 0.536226,-0.721203 1.010719,-1.486313 1.418443,-2.287208 -0.774411,-0.289233 -1.521857,-0.646078 -2.233682,-1.066402 0.187339,-0.135875 0.370566,-0.275865 0.547612,-0.411739 4.193549,1.972125 9.047964,1.972125 13.241513,0 0.179108,0.146167 0.362328,0.286158 0.547608,0.411739 -0.713201,0.421005 -1.462013,0.778534 -2.237798,1.068461 0.407224,0.800524 0.881746,1.564992 1.418443,2.285149 2.383453,-0.718663 4.625235,-1.842687 6.626934,-3.32273 v 0 C 37.54478,25.972045 36.07282,21.086768 33.110355,16.755278 Z M 19.677386,28.617466 c -1.290802,0 -2.357204,-1.171396 -2.357204,-2.612481 0,-1.441085 1.029348,-2.622775 2.353084,-2.622775 1.32374,0 2.381911,1.18169 2.359263,2.622775 -0.02266,1.441085 -1.039642,2.612481 -2.355143,2.612481 z m 8.695913,0 c -1.292853,0 -2.35514,-1.171396 -2.35514,-2.612481 0,-1.441085 1.029345,-2.622775 2.35514,-2.622775 1.3258,0 2.375737,1.18169 2.353089,2.622775 -0.02266,1.441085 -1.03758,2.612481 -2.353089,2.612481 z"
     id="path1-6"
     style="fill:#abacae;stroke-width:0.205868" /><circle
     style="opacity:0.3;fill:none;fill-opacity:1;stroke:url(#linearGradient12);stroke-width:1;stroke-linejoin:round;stroke-dasharray:none;stroke-opacity:0.5"
     id="path10"
     cx="24"
     cy="25"
     r="19.5" /><path
     style="opacity:0.300033;fill:url(#linearGradient19);stroke:none;stroke-width:1;stroke-linejoin:round;stroke-dasharray:none;stroke-opacity:0.5"
     d="m 40,45.678563 c -3.206362,0.477533 -5.539696,-0.473527 -7,-2.85318 1.095051,-0.499986 2.031684,-0.924582 3,-1.646809 0.710585,2.262859 2.061397,3.882588 4,4.499989 z"
     id="path17" /><path
     id="path21"
     style="fill:#d4d4d4;stroke-width:0.205868"
     class="cls-1"
     d="m 20.333984,15.09375 c -1.866129,0.318326 -3.682845,0.878376 -5.404296,1.666016 -2.767117,4.093997 -3.898909,8.105614 -3.984376,12.064453 0.01313,0.595474 0.04698,1.189915 0.103516,1.783203 2.001444,1.478495 4.241584,2.60286 6.623047,3.324219 0.348648,-0.475334 0.670754,-0.969578 0.964844,-1.480469 -0.612863,-0.248876 -1.207433,-0.540614 -1.779297,-0.873047 l 0.546875,-1.412109 c 4.193737,1.972337 9.04845,1.972337 13.242187,0 l 0.546874,1.412109 c -0.573153,0.333109 -1.169024,0.625497 -1.783203,0.875 0.293899,0.51038 0.616013,1.003984 0.964844,1.478516 2.383429,-0.718519 4.625215,-1.842385 6.626953,-3.322266 0.05777,-0.599162 0.08675,-1.189065 0.09961,-1.771484 -0.09777,-4.486749 -1.524368,-8.476631 -3.990234,-12.082032 -1.71978,-0.787603 -3.535373,-1.346398 -5.40039,-1.662109 -0.255083,0.456242 -0.485874,0.925647 -0.691407,1.40625 -1.986826,-0.299459 -4.007314,-0.299459 -5.99414,0 -0.205641,-0.480554 -0.436429,-0.949953 -0.691407,-1.40625 z m -0.660156,7.289062 c 1.32374,0 2.382023,1.181962 2.359375,2.623047 -0.0025,0.15646 -0.01991,0.308084 -0.04492,0.457032 0.03127,0.1752 0.04784,0.357167 0.04492,0.542968 -0.02266,1.441085 -1.039968,2.611329 -2.355469,2.611329 -1.290802,0 -2.357421,-1.170244 -2.357422,-2.611329 0,-0.173395 0.0164,-0.343534 0.04492,-0.507812 -0.02787,-0.15983 -0.04492,-0.323524 -0.04492,-0.492188 0,-1.441085 1.02978,-2.623047 2.353516,-2.623047 z m 8.699219,0 c 1.3258,0 2.376164,1.181962 2.353515,2.623047 -0.0025,0.15646 -0.01995,0.308084 -0.04492,0.457032 0.03103,0.1752 0.04784,0.357167 0.04492,0.542968 -0.02266,1.441085 -1.038006,2.611329 -2.353515,2.611329 -1.292853,0 -2.355469,-1.170244 -2.355469,-2.611329 0,-0.173395 0.01639,-0.343534 0.04492,-0.507812 -0.02776,-0.159818 -0.04492,-0.323537 -0.04492,-0.492188 0,-1.441085 1.029674,-2.623047 2.355469,-2.623047 z" /><path
     id="path22"
     style="fill:#fafafa;stroke-width:0.205868"
     class="cls-1"
     d="m 20.333984,15.09375 c -1.866129,0.318326 -3.682845,0.878376 -5.404296,1.666016 -2.653508,3.92591 -3.799382,7.775663 -3.964844,11.576172 0.01853,0.424319 0.04365,0.848263 0.08398,1.271484 2.001444,1.478495 4.241584,2.60286 6.623047,3.324219 0.162872,-0.225684 0.319827,-0.45558 0.470703,-0.689453 -0.439477,-0.199196 -0.868427,-0.420843 -1.285156,-0.664063 0.187339,-0.135875 0.546875,-2.412109 0.546875,-2.412109 4.193737,1.972337 9.04845,1.972337 13.242187,0 l 0.546875,2.412109 c -0.417369,0.243861 -0.84697,0.466159 -1.287109,0.666016 0.150207,0.233229 0.306511,0.462474 0.46875,0.6875 2.383429,-0.718519 4.625215,-1.842385 6.626953,-3.322266 0.04143,-0.429702 0.0677,-0.854335 0.08594,-1.275391 -0.190234,-4.282404 -1.603313,-8.108141 -3.976563,-11.578125 -1.71978,-0.787603 -3.535373,-1.346398 -5.40039,-1.662109 -0.255083,0.456242 -0.485874,0.925647 -0.691407,1.40625 -1.986826,-0.299459 -4.007314,-0.299459 -5.99414,0 -0.205641,-0.480554 -0.436429,-0.949953 -0.691407,-1.40625 z m -0.660156,6.289062 c 1.32374,0 2.382023,1.181962 2.359375,2.623047 -0.0054,0.343356 -0.06885,0.670164 -0.177734,0.970703 0.119107,0.316096 0.183456,0.665215 0.177734,1.029297 -0.02266,1.441085 -1.039968,2.611329 -2.355469,2.611329 -1.290802,0 -2.357421,-1.170244 -2.357422,-2.611329 0,-0.356769 0.06466,-0.698788 0.179688,-1.009765 -0.114253,-0.305849 -0.179688,-0.63941 -0.179688,-0.990235 0,-1.441085 1.02978,-2.623047 2.353516,-2.623047 z m 8.699219,0 c 1.3258,0 2.376164,1.181962 2.353515,2.623047 -0.0054,0.342038 -0.06981,0.667201 -0.177734,0.966797 0.119353,0.317193 0.183481,0.667541 0.177734,1.033203 -0.02266,1.441085 -1.038006,2.611329 -2.353515,2.611329 -1.292853,0 -2.355469,-1.170244 -2.355469,-2.611329 0,-0.356769 0.06463,-0.698788 0.179688,-1.009765 -0.113914,-0.305849 -0.179688,-0.63941 -0.179688,-0.990235 0,-1.441085 1.029674,-2.623047 2.355469,-2.623047 z" /></svg>
