<?xml version="1.0" encoding="UTF-8" standalone="no"?>
<svg
   width="48"
   height="48"
   viewBox="0 0 48 48"
   fill="none"
   version="1.1"
   id="svg4"
   xml:space="preserve"
   xmlns:xlink="http://www.w3.org/1999/xlink"
   xmlns="http://www.w3.org/2000/svg"
   xmlns:svg="http://www.w3.org/2000/svg"><defs
     id="defs4"><linearGradient
       id="linearGradient1201"><stop
         id="stop1193"
         style="stop-color:#ffffff;stop-opacity:1"
         offset="0" /><stop
         id="stop1195"
         style="stop-color:#ffffff;stop-opacity:0.23529412"
         offset="0.06781636" /><stop
         id="stop1197"
         style="stop-color:#ffffff;stop-opacity:0.15686275"
         offset="0.94694352" /><stop
         id="stop1199"
         style="stop-color:#ffffff;stop-opacity:0.39215687"
         offset="1" /></linearGradient><linearGradient
       id="linearGradient3688-166-749"><stop
         id="stop2883"
         style="stop-color:#181818;stop-opacity:1"
         offset="0" /><stop
         id="stop2885"
         style="stop-color:#181818;stop-opacity:0"
         offset="1" /></linearGradient><linearGradient
       id="linearGradient3702-501-757"><stop
         id="stop2895"
         style="stop-color:#181818;stop-opacity:0"
         offset="0" /><stop
         id="stop2897"
         style="stop-color:#181818;stop-opacity:1"
         offset="0.5" /><stop
         id="stop2899"
         style="stop-color:#181818;stop-opacity:0"
         offset="1" /></linearGradient><radialGradient
       cx="4.9929786"
       cy="43.5"
       r="2.5"
       fx="4.9929786"
       fy="43.5"
       id="radialGradient3013-6"
       xlink:href="#linearGradient3688-166-749"
       gradientUnits="userSpaceOnUse"
       gradientTransform="matrix(2.003784,0,0,0.89999994,29.98813,4.8500025)" /><radialGradient
       cx="4.9929786"
       cy="43.5"
       r="2.5"
       fx="4.9929786"
       fy="43.5"
       id="radialGradient3015-1"
       xlink:href="#linearGradient3688-166-749"
       gradientUnits="userSpaceOnUse"
       gradientTransform="matrix(2.003784,0,0,0.89999994,-18.01187,-83.149997)" /><linearGradient
       x1="38.999996"
       y1="5.9999938"
       x2="38.999996"
       y2="41.945408"
       id="linearGradient3058-5"
       xlink:href="#linearGradient1201"
       gradientUnits="userSpaceOnUse"
       gradientTransform="translate(4e-6,1.0000062)" /><linearGradient
       xlink:href="#linearGradient3702-501-757"
       id="linearGradient1191"
       gradientUnits="userSpaceOnUse"
       x1="25.058096"
       y1="47.027729"
       x2="25.058096"
       y2="39.999443"
       gradientTransform="matrix(1.1428571,0,0,0.6428571,-3.428569,16.035716)" /><linearGradient
       xlink:href="#linearGradient2"
       id="linearGradient930-9-2"
       x1="16.767664"
       y1="2.7676599"
       x2="16.767664"
       y2="29.896721"
       gradientUnits="userSpaceOnUse"
       gradientTransform="matrix(1.444444,0,0,1.444444,0.888913,1.888891)" /><linearGradient
       id="linearGradient2"><stop
         style="stop-color:#1a1a1a;stop-opacity:1;"
         offset="0"
         id="stop7" /><stop
         style="stop-color:#000000;stop-opacity:1;"
         offset="1"
         id="stop8" /></linearGradient><style
       id="style1">.g{fill:#000;}.g,.h,.i{stroke-width:0px;}.h{fill:url(#e);}.i{fill:#fff;}</style><style
       id="style1-7">.g{fill:#000;}.g,.h,.i{stroke-width:0px;}.h{fill:url(#e);}.i{fill:#fff;}</style><style
       id="style1-5">.g{fill:#000;}.g,.h,.i{stroke-width:0px;}.h{fill:url(#e);}.i{fill:#fff;}</style></defs><rect
     style="opacity:0.6;fill:url(#radialGradient3013-6);fill-opacity:1;stroke:none;stroke-width:0.862764"
     id="rect2801-3-7"
     y="41.75"
     x="40"
     height="4.4999995"
     width="5" /><rect
     style="opacity:0.6;fill:url(#radialGradient3015-1);fill-opacity:1;stroke:none;stroke-width:0.862764"
     id="rect3696-6-3"
     transform="scale(-1)"
     y="-46.25"
     x="-8"
     height="4.4999995"
     width="5" /><rect
     style="opacity:0.6;fill:url(#linearGradient1191);fill-opacity:1;stroke:none;stroke-width:0.862764"
     id="rect3700-4-6"
     y="41.75"
     x="8"
     height="4.5"
     width="32" /><rect
     style="color:#000000;font-variation-settings:normal;display:inline;overflow:visible;visibility:visible;vector-effect:none;fill:url(#linearGradient930-9-2);fill-opacity:1;fill-rule:nonzero;stroke:#474747;stroke-width:1;stroke-linecap:butt;stroke-linejoin:miter;stroke-miterlimit:4;stroke-dasharray:none;stroke-dashoffset:0;stroke-opacity:0.497364;marker:none;enable-background:accumulate;stop-color:#000000"
     id="rect5505-21-1"
     y="5.4999952"
     x="4.5000153"
     ry="4"
     rx="4"
     height="39"
     width="39" /><rect
     style="opacity:0.35;fill:none;stroke:url(#linearGradient3058-5);stroke-width:1;stroke-linecap:round;stroke-linejoin:round;stroke-miterlimit:4;stroke-dasharray:none;stroke-dashoffset:0;stroke-opacity:1"
     id="rect6741-2"
     y="6.4999952"
     x="5.5000153"
     ry="3"
     rx="3"
     height="37"
     width="37" /><path
     id="path3-7"
     style="fill:#abacae;stroke-width:0px"
     class="i"
     d="m 15.750033,14 c -1.534384,0 -2.775662,1.256442 -2.749989,2.796739 0.02516,1.50782 1.286851,2.70324 2.794905,2.70324 h 7.74397 c 0.236449,0 0.467901,-0.0712 0.659998,-0.208999 1.544427,-1.107856 2.753511,-2.62687 3.498903,-4.426567 l 0.0046,-0.0092 C 27.871315,14.448102 27.572118,14 27.131322,14 h -9.17e-4 z m 16.479769,0 c -1.071549,0.008 -2.084944,0.646207 -2.520824,1.698577 -1.276955,3.082941 -3.678224,5.48421 -6.761307,6.761307 -2.243026,0.929088 -4.238236,2.270436 -5.929893,3.987484 -1.63299,1.657396 -2.913977,3.591468 -3.807818,5.749311 -0.581173,1.403018 0.08555,3.012147 1.48866,3.593319 0.344161,0.142536 0.699765,0.209916 1.050496,0.209916 1.078945,0 2.103317,-0.639672 2.541907,-1.698577 1.276956,-3.082941 3.678225,-5.48421 6.761307,-6.761307 2.243027,-0.929087 4.238237,-2.270436 5.929893,-3.987484 1.632991,-1.657396 2.913978,-3.591468 3.807819,-5.749311 0.581173,-1.403018 -0.08555,-3.012147 -1.488661,-3.593319 C 32.950638,14.064646 32.586985,13.997337 32.229802,14 Z m -7.76872,16.499936 c -0.236449,0 -0.4679,0.0712 -0.659997,0.208999 -1.544428,1.107856 -2.753512,2.626869 -3.498903,4.426566 l -0.0046,0.0092 c -0.168913,0.407145 0.130285,0.855247 0.571081,0.855247 h 11.336372 c 1.508055,0 2.76975,-1.19542 2.794906,-2.70324 0.02572,-1.540297 -1.215558,-2.796738 -2.749989,-2.796738 z" /><path
     id="path6"
     style="fill:#d4d4d4;stroke-width:0px"
     class="i"
     d="m 15.75,14 c -1.344571,0 -2.462048,0.965065 -2.701172,2.240234 C 13.286158,17.531855 14.438539,18.5 15.794922,18.5 h 7.74414 c 0.236449,0 0.46806,-0.07119 0.660157,-0.208984 1.454652,-1.043459 2.604994,-2.455206 3.357422,-4.119141 C 27.447671,14.067714 27.299849,14 27.130859,14 Z m 16.480469,0 c -1.071548,0.008 -2.085605,0.64685 -2.521485,1.699219 -1.276953,3.082938 -3.678638,5.48267 -6.761718,6.759765 -2.243024,0.929087 -4.238033,2.271235 -5.929688,3.988282 -1.632988,1.657394 -2.914754,3.592159 -3.808594,5.75 -0.07449,0.179828 -0.127543,0.362873 -0.162109,0.546875 0.163314,0.88646 0.757734,1.674372 1.652344,2.044921 C 15.043379,34.931598 15.399269,35 15.75,35 c 1.078944,0 2.102426,-0.640315 2.541016,-1.699219 1.276954,-3.082938 3.678639,-5.484623 6.761718,-6.761719 2.243025,-0.929086 4.238034,-2.269281 5.929688,-3.986328 1.632989,-1.657394 2.914754,-3.592159 3.808594,-5.75 0.07449,-0.179828 0.127543,-0.362873 0.162109,-0.546875 -0.163314,-0.88646 -0.757733,-1.676325 -1.652344,-2.046875 C 32.950039,14.063715 32.587651,13.997337 32.230469,14 Z m -7.769531,16.5 c -0.236449,0 -0.46806,0.07119 -0.660157,0.208984 -1.454653,1.043459 -2.604994,2.455207 -3.357422,4.119141 C 20.552322,34.932252 20.700185,35 20.869141,35 h 11.335937 c 1.356384,0 2.508766,-0.968145 2.746094,-2.259766 C 34.712079,31.465065 33.594612,30.5 32.25,30.5 Z" /><path
     id="path7"
     style="fill:#fafafa;stroke-width:0px"
     class="i"
     d="m 15.75,14 c -1.163155,0 -2.156538,0.721828 -2.558594,1.742188 C 13.599848,16.774108 14.621224,17.5 15.794922,17.5 h 7.74414 c 0.236449,0 0.46806,-0.07119 0.660157,-0.208984 1.206529,-0.865474 2.205388,-1.983939 2.941406,-3.289063 -0.0034,-5.4e-5 -0.0063,-0.002 -0.0098,-0.002 z m 16.480469,0 c -1.071548,0.008 -2.085605,0.64685 -2.521485,1.699219 -1.276953,3.082938 -3.678638,5.48267 -6.761718,6.759765 -2.243024,0.929087 -4.238033,2.271235 -5.929688,3.988282 -1.632988,1.657394 -2.914754,3.592159 -3.808594,5.75 -0.0067,0.01626 -0.01118,0.03251 -0.01758,0.04883 0.262762,0.673887 0.786956,1.244388 1.507813,1.542968 C 15.043379,33.931598 15.399269,34 15.75,34 c 1.078944,0 2.102426,-0.640315 2.541016,-1.699219 1.276954,-3.082938 3.678639,-5.484623 6.761718,-6.761719 2.243025,-0.929086 4.238034,-2.269281 5.929688,-3.986328 1.632989,-1.657394 2.914754,-3.592159 3.808594,-5.75 0.0067,-0.01615 0.01122,-0.03262 0.01758,-0.04883 -0.262764,-0.673885 -0.786957,-1.246339 -1.507815,-1.54492 C 32.950039,14.063715 32.587651,13.997337 32.230469,14 Z m -7.769531,16.5 c -0.236449,0 -0.46806,0.07119 -0.660157,0.208984 -1.20653,0.865474 -2.205388,1.98394 -2.941406,3.289063 0.0034,5.4e-5 0.0063,0.002 0.0098,0.002 h 11.335937 c 1.173699,0 2.195075,-0.725892 2.603516,-1.757812 C 34.406557,31.221828 33.41319,30.5 32.25,30.5 Z" /></svg>
