<?xml version="1.0" encoding="UTF-8" standalone="no"?>
<svg
   width="48"
   height="48"
   viewBox="0 0 48 48"
   fill="none"
   version="1.1"
   id="svg4"
   xml:space="preserve"
   xmlns:xlink="http://www.w3.org/1999/xlink"
   xmlns="http://www.w3.org/2000/svg"
   xmlns:svg="http://www.w3.org/2000/svg"><defs
     id="defs4"><linearGradient
       id="linearGradient14"><stop
         style="stop-color:#fafafa;stop-opacity:1;"
         offset="0"
         id="stop14" /><stop
         style="stop-color:#d4d4d4;stop-opacity:1;"
         offset="1"
         id="stop15" /></linearGradient><linearGradient
       id="linearGradient1201"><stop
         id="stop1193"
         style="stop-color:#ffffff;stop-opacity:1"
         offset="0" /><stop
         id="stop1195"
         style="stop-color:#ffffff;stop-opacity:0.23529412"
         offset="0.06781636" /><stop
         id="stop1197"
         style="stop-color:#ffffff;stop-opacity:0.15686275"
         offset="0.94694352" /><stop
         id="stop1199"
         style="stop-color:#ffffff;stop-opacity:0.39215687"
         offset="1" /></linearGradient><linearGradient
       id="linearGradient3688-166-749"><stop
         id="stop2883"
         style="stop-color:#181818;stop-opacity:1"
         offset="0" /><stop
         id="stop2885"
         style="stop-color:#181818;stop-opacity:0"
         offset="1" /></linearGradient><linearGradient
       id="linearGradient3702-501-757"><stop
         id="stop2895"
         style="stop-color:#181818;stop-opacity:0"
         offset="0" /><stop
         id="stop2897"
         style="stop-color:#181818;stop-opacity:1"
         offset="0.5" /><stop
         id="stop2899"
         style="stop-color:#181818;stop-opacity:0"
         offset="1" /></linearGradient><radialGradient
       cx="4.9929786"
       cy="43.5"
       r="2.5"
       fx="4.9929786"
       fy="43.5"
       id="radialGradient3013-6"
       xlink:href="#linearGradient3688-166-749"
       gradientUnits="userSpaceOnUse"
       gradientTransform="matrix(2.003784,0,0,0.89999994,29.98813,4.8500025)" /><radialGradient
       cx="4.9929786"
       cy="43.5"
       r="2.5"
       fx="4.9929786"
       fy="43.5"
       id="radialGradient3015-1"
       xlink:href="#linearGradient3688-166-749"
       gradientUnits="userSpaceOnUse"
       gradientTransform="matrix(2.003784,0,0,0.89999994,-18.01187,-83.149997)" /><linearGradient
       x1="38.999996"
       y1="5.9999938"
       x2="38.999996"
       y2="41.945408"
       id="linearGradient3058-5"
       xlink:href="#linearGradient1201"
       gradientUnits="userSpaceOnUse"
       gradientTransform="translate(4e-6,1.0000062)" /><linearGradient
       xlink:href="#linearGradient3702-501-757"
       id="linearGradient1191"
       gradientUnits="userSpaceOnUse"
       x1="25.058096"
       y1="47.027729"
       x2="25.058096"
       y2="39.999443"
       gradientTransform="matrix(1.1428571,0,0,0.6428571,-3.428569,16.035716)" /><linearGradient
       xlink:href="#linearGradient2"
       id="linearGradient930-9-2"
       x1="16.767664"
       y1="2.7676599"
       x2="16.767664"
       y2="29.896721"
       gradientUnits="userSpaceOnUse"
       gradientTransform="matrix(1.444444,0,0,1.444444,0.888913,1.888891)" /><linearGradient
       id="linearGradient2"><stop
         style="stop-color:#1a1a1a;stop-opacity:1;"
         offset="0"
         id="stop7" /><stop
         style="stop-color:#000000;stop-opacity:1;"
         offset="1"
         id="stop8" /></linearGradient><style
       id="style1">.g{fill:#000;}.g,.h,.i{stroke-width:0px;}.h{fill:url(#e);}.i{fill:#fff;}</style><style
       id="style1-7">.g{fill:#000;}.g,.h,.i{stroke-width:0px;}.h{fill:url(#e);}.i{fill:#fff;}</style><style
       id="style1-5">.g{fill:#000;}.g,.h,.i{stroke-width:0px;}.h{fill:url(#e);}.i{fill:#fff;}</style><linearGradient
       xlink:href="#linearGradient14"
       id="linearGradient15"
       x1="22.5"
       y1="6"
       x2="22.5"
       y2="44"
       gradientUnits="userSpaceOnUse" /></defs><rect
     style="opacity:0.6;fill:url(#radialGradient3013-6);fill-opacity:1;stroke:none;stroke-width:0.862764"
     id="rect2801-3-7"
     y="41.75"
     x="40"
     height="4.4999995"
     width="5" /><rect
     style="opacity:0.6;fill:url(#linearGradient1191);fill-opacity:1;stroke:none;stroke-width:0.862764"
     id="rect3700-4-6"
     y="41.75"
     x="8"
     height="4.5"
     width="32" /><rect
     style="opacity:0.6;fill:url(#radialGradient3015-1);fill-opacity:1;stroke:none;stroke-width:0.862764"
     id="rect3696-6-3"
     transform="scale(-1)"
     y="-46.25"
     x="-8"
     height="4.4999995"
     width="5" /><path
     id="rect10"
     style="display:inline;overflow:visible;vector-effect:none;fill:url(#linearGradient930-9-2);stroke-opacity:0.497364;marker:none;enable-background:accumulate;stop-color:#000000"
     d="m 36,5.5 3.500015,-4.8e-6 c 2.216,-3e-6 4,1.784 4,4 V 40.499995 c 0,2.216 -1.784,4 -4,4 L 13,44.5 V 43 C 10.357327,18.224196 23,11.5 36,7 Z" /><path
     style="fill:#ffffff;stroke-width:2;fill-opacity:1;opacity:0.25021965;stroke:#ffffff;stroke-opacity:1;stroke-dasharray:none"
     d="m 24.461082,31.499988 c -0.236449,0 -0.4679,0.0712 -0.659997,0.208999 -1.544428,1.107856 -2.753512,2.626869 -3.498903,4.426566 l -0.0046,0.0092 C 20.128669,36.551898 20.427867,37 20.868663,37 h 11.336372 c 1.508055,0 2.76975,-1.19542 2.794906,-2.70324 0.02572,-1.540297 -1.215558,-2.796738 -2.749989,-2.796738 z"
     id="path18" /><path
     style="fill:#ffffff;stroke-width:0px;fill-opacity:1;opacity:0.25021965"
     d="m 24.461082,31.499988 c -0.236449,0 -0.4679,0.0712 -0.659997,0.208999 -1.544428,1.107856 -2.753512,2.626869 -3.498903,4.426566 l -0.0046,0.0092 C 20.128669,36.551898 20.427867,37 20.868663,37 h 11.336372 c 1.508055,0 2.76975,-1.19542 2.794906,-2.70324 0.02572,-1.540297 -1.215558,-2.796738 -2.749989,-2.796738 z"
     id="path17" /><path
     style="opacity:1;fill:url(#linearGradient15);fill-opacity:1;stroke:none;paint-order:markers stroke fill"
     d="m 13,44 v -1 l 2.19862,-7.210002 C 16.569854,31.146427 18.703219,26.964264 24.5,25 28.875965,23.24598 31.861185,19.482802 33.801381,14.209916 L 36,7 V 6 H 8.5 A 3.5,3.5 135 0 0 5,9.5 v 31 A 3.5,3.5 45 0 0 8.5,44 Z"
     id="path13" /><path
     style="fill:#000000;stroke-width:2;opacity:0.15001638;stroke-dasharray:none;stroke:#000000;stroke-opacity:1"
     d="m 15.750033,15 c -1.534384,0 -2.775662,1.256442 -2.749989,2.796739 0.02516,1.50782 1.286851,2.70324 2.794905,2.70324 h 7.74397 c 0.236449,0 0.467901,-0.0712 0.659998,-0.208999 1.544427,-1.107856 2.753511,-2.62687 3.498903,-4.426567 l 0.0046,-0.0092 C 27.871315,15.448102 27.572118,15 27.131322,15 h -9.17e-4 z"
     id="path22" /><path
     style="fill:#000000;stroke-width:0px;opacity:0.15001638"
     d="m 15.750033,15 c -1.534384,0 -2.775662,1.256442 -2.749989,2.796739 0.02516,1.50782 1.286851,2.70324 2.794905,2.70324 h 7.74397 c 0.236449,0 0.467901,-0.0712 0.659998,-0.208999 1.544427,-1.107856 2.753511,-2.62687 3.498903,-4.426567 l 0.0046,-0.0092 C 27.871315,15.448102 27.572118,15 27.131322,15 h -9.17e-4 z"
     id="path21" /><path
     style="opacity:1;stroke:url(#linearGradient3058-5);stroke-linecap:butt;stroke-linejoin:miter"
     d="m 13,43.5 -4.4999847,-5e-6 c -1.662,-2e-6 -3,-1.338 -3,-3 V 9.4999952 c 0,-1.662 1.338,-3 3,-3 L 36,6.5"
     id="path12" /><path
     style="opacity:0.150038;fill:none;fill-opacity:1;stroke:#000000;stroke-opacity:1;paint-order:markers stroke fill;stroke-width:2;stroke-dasharray:none"
     d="m 35,6 v 1 l -2.198619,7.209916 C 30.861185,19.482802 27.875965,23.24598 23.5,25 17.703219,26.964264 15.569854,31.146427 14.19862,35.789998 L 12,43 v 1"
     id="path14" /><path
     style="display:inline;overflow:visible;vector-effect:none;stroke:#abacae;stroke-opacity:0.497364;marker:none;enable-background:accumulate;stop-color:#000000"
     d="m 13,44.5 -4.4999847,-5e-6 c -2.216,-2e-6 -4,-1.784 -4,-4 V 9.4999952 c 0,-2.216 1.784,-4.0000004 4,-4 L 36,5.5"
     id="path23" /><path
     style="display:inline;overflow:visible;vector-effect:none;stroke:#333333;stroke-opacity:0.497364;marker:none;enable-background:accumulate;stop-color:#000000"
     d="m 36,5.5 3.500015,-4.8e-6 c 2.216,-3e-6 4,1.784 4,4 V 40.499995 c 0,2.216 -1.784,4 -4,4 L 13,44.5"
     id="rect5505-21-1" /><path
     style="fill:#abacae;stroke-width:0px"
     d="m 24.461082,30.499936 c -0.236449,0 -0.4679,0.0712 -0.659997,0.208999 -1.544428,1.107856 -2.753512,2.626869 -3.498903,4.426566 l -0.0046,0.0092 c -0.168913,0.407145 0.130285,0.855247 0.571081,0.855247 h 11.336372 c 1.508055,0 2.76975,-1.19542 2.794906,-2.70324 0.02572,-1.540297 -1.215558,-2.796738 -2.749989,-2.796738 z"
     id="path9" /><path
     style="fill:#000000;stroke-width:0px"
     d="m 15.750033,14 c -1.534384,0 -2.775662,1.256442 -2.749989,2.796739 0.02516,1.50782 1.286851,2.70324 2.794905,2.70324 h 7.74397 c 0.236449,0 0.467901,-0.0712 0.659998,-0.208999 1.544427,-1.107856 2.753511,-2.62687 3.498903,-4.426567 l 0.0046,-0.0092 C 27.871315,14.448102 27.572118,14 27.131322,14 h -9.17e-4 z"
     id="path3-7" /><path
     style="opacity:0.15003787;fill:none;fill-opacity:1;stroke:#000000;paint-order:markers stroke fill;stroke-opacity:1"
     d="m 35.5,6 v 1 l -2.198619,7.209916 C 31.361185,19.482802 28.375965,23.24598 24,25 18.203219,26.964264 16.069854,31.146427 14.69862,35.789998 L 12.5,43 v 1"
     id="path10" /><path
     id="rect6741-2"
     style="opacity:0.35;stroke:url(#linearGradient3058-5);stroke-linecap:butt;stroke-linejoin:miter"
     d="m 39.500015,43.499995 c 1.662,0 3,-1.338 3,-3 V 9.4999952 c 0,-1.662 -1.338,-3.0000027 -3,-3 L 36.5,6.5 V 7 l -2.198619,7.209916 C 32.361185,19.482802 29.375965,23.24598 25,25 19.203219,26.964264 17.069854,31.146427 15.69862,35.789998 L 13.5,43 v 0.5 z" /><path
     id="path15"
     style="fill:#d4d4d4;stroke-width:0px"
     d="M 24.460938 31.5 C 24.224489 31.5 23.992878 31.571186 23.800781 31.708984 C 22.346147 32.752429 21.189928 34.160313 20.4375 35.824219 C 20.546907 35.931115 20.697607 36 20.869141 36 L 32.205078 36 C 33.561462 36 34.713844 35.031855 34.951172 33.740234 C 34.712079 32.465065 33.594612 31.5 32.25 31.5 L 24.460938 31.5 z " /><path
     id="path16"
     style="fill:#fafafa;stroke-width:0px"
     d="M 24.460938 32.5 C 24.224489 32.5 23.992878 32.571186 23.800781 32.708984 C 22.593258 33.575171 21.591654 34.693491 20.855469 36 C 20.860006 36.000096 20.864572 36 20.869141 36 L 32.205078 36 C 33.378777 36 34.400153 35.274108 34.808594 34.242188 C 34.406557 33.221828 33.41319 32.5 32.25 32.5 L 24.460938 32.5 z " /><path
     id="path19"
     style="fill:#1a1a1a;stroke-width:0px"
     d="M 15.75 14 C 14.405429 14 13.287952 14.965065 13.048828 16.240234 C 13.286158 17.531855 14.438539 18.5 15.794922 18.5 L 23.539062 18.5 C 23.775511 18.5 24.007122 18.428814 24.199219 18.291016 C 25.653852 17.247571 26.810071 15.839687 27.5625 14.175781 C 27.453092 14.068887 27.302393 14 27.130859 14 L 15.75 14 z " /><path
     id="path20"
     style="fill:#333333;stroke-width:0px"
     d="M 15.75 14 C 14.586845 14 13.593462 14.721828 13.191406 15.742188 C 13.599848 16.774108 14.621224 17.5 15.794922 17.5 L 23.539062 17.5 C 23.775511 17.5 24.007122 17.428814 24.199219 17.291016 C 25.406742 16.424829 26.408345 15.30651 27.144531 14 C 27.139994 13.999904 27.135428 14 27.130859 14 L 15.75 14 z " /></svg>
