<?xml version="1.0" encoding="UTF-8" standalone="no"?>
<svg
   version="1.1"
   width="48"
   height="48"
   id="svg6649"
   xml:space="preserve"
   xmlns:xlink="http://www.w3.org/1999/xlink"
   xmlns="http://www.w3.org/2000/svg"
   xmlns:svg="http://www.w3.org/2000/svg"
   xmlns:rdf="http://www.w3.org/1999/02/22-rdf-syntax-ns#"
   xmlns:cc="http://creativecommons.org/ns#"
   xmlns:dc="http://purl.org/dc/elements/1.1/"><defs
     id="defs6651"><linearGradient
       id="linearGradient909"><stop
         id="stop901"
         style="stop-color:#9e79e9;stop-opacity:1;"
         offset="0" /><stop
         id="stop907"
         style="stop-color:#6c31e3;stop-opacity:1;"
         offset="1" /></linearGradient><linearGradient
       id="linearGradient63"><stop
         style="stop-color:#000000;stop-opacity:0.2;"
         offset="0"
         id="stop61" /><stop
         style="stop-color:#6c31e3;stop-opacity:0;"
         offset="0.40247503"
         id="stop62" /><stop
         style="stop-color:#b598f1;stop-opacity:0.0877267;"
         offset="0.58627903"
         id="stop64" /><stop
         style="stop-color:#ffffff;stop-opacity:0.30000001;"
         offset="1"
         id="stop63" /></linearGradient><linearGradient
       id="linearGradient59"><stop
         style="stop-color:#ffffff;stop-opacity:1;"
         offset="0"
         id="stop59" /><stop
         style="stop-color:#ffffff;stop-opacity:0;"
         offset="1"
         id="stop60" /></linearGradient><linearGradient
       id="linearGradient55"><stop
         style="stop-color:#000000;stop-opacity:0.2;"
         offset="0"
         id="stop54" /><stop
         style="stop-color:#6c31e3;stop-opacity:0;"
         offset="0.29205328"
         id="stop56" /><stop
         style="stop-color:#ffffff;stop-opacity:0.30000001;"
         offset="1"
         id="stop55" /></linearGradient><linearGradient
       id="linearGradient53"><stop
         style="stop-color:#ffffff;stop-opacity:0.3485899;"
         offset="0"
         id="stop51" /><stop
         style="stop-color:#6c31e3;stop-opacity:0;"
         offset="0.8705101"
         id="stop52" /></linearGradient><linearGradient
       id="linearGradient45"><stop
         style="stop-color:#ffffff;stop-opacity:0.3485899;"
         offset="0"
         id="stop44" /><stop
         style="stop-color:#6c31e3;stop-opacity:0;"
         offset="0.76195163"
         id="stop46" /></linearGradient><linearGradient
       id="linearGradient31"><stop
         style="stop-color:#ffffff;stop-opacity:0.4519338;"
         offset="0"
         id="stop34" /><stop
         style="stop-color:#ffffff;stop-opacity:0;"
         offset="1"
         id="stop35" /></linearGradient><linearGradient
       id="linearGradient27"><stop
         style="stop-color:#ffffff;stop-opacity:0.3958455;"
         offset="0"
         id="stop27" /><stop
         style="stop-color:#ffffff;stop-opacity:0;"
         offset="1"
         id="stop30" /></linearGradient><linearGradient
       id="linearGradient1201"><stop
         id="stop1193"
         style="stop-color:#ffffff;stop-opacity:1"
         offset="0" /><stop
         id="stop1195"
         style="stop-color:#ffffff;stop-opacity:0.23529412"
         offset="0.06781636" /><stop
         id="stop1197"
         style="stop-color:#ffffff;stop-opacity:0.15686275"
         offset="0.94694352" /><stop
         id="stop1199"
         style="stop-color:#ffffff;stop-opacity:0.39215687"
         offset="1" /></linearGradient><linearGradient
       id="linearGradient3688-166-749"><stop
         id="stop2883"
         style="stop-color:#181818;stop-opacity:1"
         offset="0" /><stop
         id="stop2885"
         style="stop-color:#181818;stop-opacity:0"
         offset="1" /></linearGradient><linearGradient
       id="linearGradient3702-501-757"><stop
         id="stop2895"
         style="stop-color:#181818;stop-opacity:0"
         offset="0" /><stop
         id="stop2897"
         style="stop-color:#181818;stop-opacity:1"
         offset="0.5" /><stop
         id="stop2899"
         style="stop-color:#181818;stop-opacity:0"
         offset="1" /></linearGradient><radialGradient
       cx="4.9929786"
       cy="43.5"
       r="2.5"
       fx="4.9929786"
       fy="43.5"
       id="radialGradient3013-6-7"
       xlink:href="#linearGradient3688-166-749"
       gradientUnits="userSpaceOnUse"
       gradientTransform="matrix(2.003784,0,0,0.89999994,29.98813,4.8500025)" /><radialGradient
       cx="4.9929786"
       cy="43.5"
       r="2.5"
       fx="4.9929786"
       fy="43.5"
       id="radialGradient3015-1-9"
       xlink:href="#linearGradient3688-166-749"
       gradientUnits="userSpaceOnUse"
       gradientTransform="matrix(2.003784,0,0,0.89999994,-18.01187,-83.149997)" /><linearGradient
       xlink:href="#linearGradient3702-501-757"
       id="linearGradient2"
       gradientUnits="userSpaceOnUse"
       gradientTransform="matrix(1.1428571,0,0,0.6428571,-3.428569,16.035716)"
       x1="25.058096"
       y1="47.027729"
       x2="25.058096"
       y2="39.999443" /><linearGradient
       xlink:href="#linearGradient1201"
       id="linearGradient7"
       gradientUnits="userSpaceOnUse"
       gradientTransform="translate(4e-6,1.0000062)"
       x1="38.999996"
       y1="5.9999938"
       x2="38.999996"
       y2="41.945408" /><linearGradient
       xlink:href="#linearGradient909"
       id="linearGradient16-5"
       x1="82"
       y1="6"
       x2="82"
       y2="43.999996"
       gradientUnits="userSpaceOnUse"
       gradientTransform="translate(-58)" /><linearGradient
       xlink:href="#linearGradient59"
       id="linearGradient20"
       x1="84.001953"
       y1="13.050781"
       x2="82.000015"
       y2="5.4999952"
       gradientUnits="userSpaceOnUse"
       gradientTransform="translate(-58)" /><linearGradient
       xlink:href="#linearGradient53"
       id="linearGradient32"
       gradientUnits="userSpaceOnUse"
       x1="34.61631"
       y1="41.75"
       x2="38.823006"
       y2="16.313675" /><linearGradient
       xlink:href="#linearGradient63"
       id="linearGradient33"
       gradientUnits="userSpaceOnUse"
       x1="34.883457"
       y1="29.529646"
       x2="22.347046"
       y2="44.999996" /><linearGradient
       xlink:href="#linearGradient31"
       id="linearGradient34"
       gradientUnits="userSpaceOnUse"
       x1="24"
       y1="10.788443"
       x2="4.0000153"
       y2="9.481781" /><linearGradient
       xlink:href="#linearGradient27"
       id="linearGradient37"
       gradientUnits="userSpaceOnUse"
       x1="35.330284"
       y1="16.346434"
       x2="33.554237"
       y2="5.9999952" /><linearGradient
       xlink:href="#linearGradient45"
       id="linearGradient38"
       gradientUnits="userSpaceOnUse"
       x1="15.743053"
       y1="40.985302"
       x2="2.2998919"
       y2="17.664692" /><linearGradient
       xlink:href="#linearGradient31"
       id="linearGradient44"
       gradientUnits="userSpaceOnUse"
       x1="11.920243"
       y1="23.296875"
       x2="13.116401"
       y2="14.825547" /><linearGradient
       xlink:href="#linearGradient59"
       id="linearGradient48"
       x1="73.494911"
       y1="25.495649"
       x2="65.860855"
       y2="15.294523"
       gradientUnits="userSpaceOnUse"
       gradientTransform="translate(-58)" /><linearGradient
       xlink:href="#linearGradient59"
       id="linearGradient50"
       x1="96.536636"
       y1="19.607422"
       x2="96.487473"
       y2="13.676396"
       gradientUnits="userSpaceOnUse"
       gradientTransform="translate(-58)" /><linearGradient
       xlink:href="#linearGradient55"
       id="linearGradient56"
       gradientUnits="userSpaceOnUse"
       x1="13.116401"
       y1="38.532757"
       x2="37.130791"
       y2="46.25" /><linearGradient
       xlink:href="#linearGradient59"
       id="linearGradient58"
       x1="77.988525"
       y1="34.495522"
       x2="77.054405"
       y2="43"
       gradientUnits="userSpaceOnUse"
       gradientTransform="translate(-58)" /><linearGradient
       xlink:href="#linearGradient59"
       id="linearGradient60"
       x1="90.602921"
       y1="31.664398"
       x2="94.454514"
       y2="57.562588"
       gradientUnits="userSpaceOnUse"
       gradientTransform="translate(-58)" /></defs><metadata
     id="metadata6654"><rdf:RDF><cc:Work
         rdf:about=""><dc:format>image/svg+xml</dc:format><dc:type
           rdf:resource="http://purl.org/dc/dcmitype/StillImage" /></cc:Work></rdf:RDF></metadata><rect
     style="opacity:0.6;fill:url(#radialGradient3013-6-7);fill-opacity:1;stroke:none;stroke-width:0.862764"
     id="rect2801-3-7-3"
     y="41.75"
     x="40"
     height="4.4999995"
     width="5" /><rect
     style="opacity:0.6;fill:url(#radialGradient3015-1-9);fill-opacity:1;stroke:none;stroke-width:0.862764"
     id="rect3696-6-3-7"
     transform="scale(-1)"
     y="-46.25"
     x="-8"
     height="4.4999995"
     width="5" /><rect
     style="opacity:0.6;fill:url(#linearGradient2);fill-opacity:1;stroke:none;stroke-width:0.862764"
     id="rect3700-4-6-5"
     y="41.75"
     x="8"
     height="4.5"
     width="32" /><rect
     style="color:#000000;font-variation-settings:normal;display:inline;overflow:visible;visibility:visible;opacity:1;vector-effect:none;fill:url(#linearGradient16-5);fill-opacity:1;fill-rule:nonzero;stroke:#2f106c;stroke-width:1;stroke-linecap:butt;stroke-linejoin:miter;stroke-miterlimit:4;stroke-dasharray:none;stroke-dashoffset:0;stroke-opacity:0.5;marker:none;enable-background:accumulate;stop-color:#000000;stop-opacity:1"
     id="rect5505-21-1-9"
     y="5.4999952"
     x="4.5000153"
     ry="4"
     rx="4"
     height="39"
     width="39" /><path
     style="opacity:1;fill:url(#linearGradient34);stroke:none;stroke-width:2;stroke-linecap:butt;stroke-linejoin:round;stroke-dasharray:none;stroke-opacity:1;paint-order:markers stroke fill"
     d="M 24,7 25.519591,13.152164 17.28404,22.367799 6,18 V 9.5 A 2.5,2.5 0 0 1 8.5,7 Z"
     id="path29" /><path
     style="opacity:1;fill:url(#linearGradient44);stroke:none;stroke-width:2;stroke-linecap:butt;stroke-linejoin:round;stroke-dasharray:none;stroke-opacity:1;paint-order:markers stroke fill"
     d="M 24,7 25.519591,13.152164 17.28404,22.367799 6,18 V 9.5 A 2.5,2.5 0 0 1 8.5,7 Z"
     id="path40" /><path
     style="opacity:1;fill:url(#linearGradient33);stroke:none;stroke-width:2;stroke-linecap:butt;stroke-linejoin:round;stroke-dasharray:none;stroke-opacity:1;paint-order:markers stroke fill"
     d="M 20.049982,36.21858 30.94925,33.40891 38,43 H 15 Z"
     id="path31" /><path
     style="opacity:1;fill:url(#linearGradient56);stroke:none;stroke-width:2;stroke-linecap:butt;stroke-linejoin:round;stroke-dasharray:none;stroke-opacity:1;paint-order:markers stroke fill"
     d="M 20.049982,36.21858 30.94925,33.40891 38,43 H 15 Z"
     id="path56" /><path
     style="opacity:1;fill:url(#linearGradient32);stroke:none;stroke-width:2;stroke-linecap:butt;stroke-linejoin:round;stroke-dasharray:none;stroke-opacity:1;paint-order:markers stroke fill"
     d="M 30.85872,19.60688 42,15 V 40.5 A 2.5,2.5 0 0 1 39.5,43 H 38 L 31.60404,32.193756 Z"
     id="path32" /><rect
     style="opacity:0.35;fill:none;stroke:url(#linearGradient7);stroke-width:1;stroke-linecap:round;stroke-linejoin:round;stroke-miterlimit:4;stroke-dasharray:none;stroke-dashoffset:0;stroke-opacity:1"
     id="rect6741-2-2"
     y="6.4999952"
     x="5.5000153"
     ry="3"
     rx="3"
     height="37"
     width="37" /><path
     style="opacity:1;fill:url(#linearGradient38);stroke:none;stroke-width:2;stroke-linecap:butt;stroke-linejoin:round;stroke-dasharray:none;stroke-opacity:1;paint-order:markers stroke fill"
     d="M 16.950182,23.29763 6,18 V 40.5 A 2.5,2.5 0 0 0 8.5,43 H 15 c 1.589414,-2.292928 2.940881,-4.713128 4.054402,-7.2606 z"
     id="path27" /><path
     id="path24-9"
     style="opacity:0.15;fill:#000000;fill-opacity:1;stroke:#000000;stroke-width:2;stroke-linecap:butt;stroke-linejoin:round;stroke-dasharray:none;stroke-opacity:1;paint-order:markers stroke fill"
     d="m 24.712332,13.244 c -0.39604,0.0053 -0.79317,0.147825 -1.11268,0.435223 l -5.2493,4.722243 c -0.2928,0.263317 -0.48436,0.619495 -0.54303,1.008867 -0.16066,1.065071 -0.3999,2.775821 -0.55901,3.766611 1.25446,0.78766 2.9839,2.12473 3.89971,4.35889 0.10317,0.25168 0.19329,0.51588 0.27285,0.78926 0.84332,-0.18463 1.69161,-0.31753 2.53415,-0.34472 0.11535,-0.004 0.23097,-0.006 0.34604,-0.005 -1.62534,-4.53298 -0.86707,-7.07816 0.0585,-8.96401 0.48898,-0.996207 0.98278,-1.805406 1.20319,-2.657926 0.21523,-0.832539 0.20943,-1.728609 -0.33008,-3.034587 -0.16918,-0.0516 -0.34411,-0.07691 -0.5204,-0.07453 z m 2.041688,1.515962 c 0.0776,0.683606 0.0254,1.302067 -0.12111,1.868667 -0.27512,1.064119 -0.822118,1.93319 -1.281718,2.869547 -0.9007,1.835028 -1.62255,3.945798 0.16105,8.567388 0.485,0.0721 0.964678,0.18909 1.437428,0.36601 1.76826,0.66178 3.36201,2.13343 4.65437,4.76217 1.04385,-1.56148 1.78752,-2.78319 2.16547,-3.42323 0.17751,-0.30031 0.14488,-0.67716 -0.0652,-0.95562 -0.54745,-0.7254 -1.59471,-2.19928 -2.16547,-3.56431 -0.58666,-1.40336 -0.67535,-3.58243 -0.68012,-4.64372 -0.002,-0.403378 -0.12989,-0.796962 -0.37932,-1.114011 z m -9.803838,9.537652 c -0.45799,1.07602 -2.68587,5.97468 -2.68587,5.97468 -0.28491,0.63499 -0.15347,1.38005 0.33141,1.87931 l 4.43608,4.56918 c 0.007,0.007 0.0157,0.0117 0.0226,0.0186 1.96966,-4.04041 1.87721,-6.81862 1.07143,-8.78434 -0.72402,-1.76625 -2.06172,-2.91573 -3.17567,-3.65747 z m 7.26171,4.7848 c -0.82049,0.006 -1.6751,0.12927 -2.55278,0.32076 0.30997,2.05338 -0.0591,4.63283 -1.60913,7.81539 0.0269,0.003 0.0527,0.0114 0.0799,0.0133 0,0 2.35392,0.17862 2.57541,0.19565 1.6801,0.12918 3.547438,0.82136 5.160118,1.26574 1.13183,0.31393 2.271,-0.59422 2.42767,-1.75819 0.1066,-0.79203 0.3045,-1.68481 0.65617,-2.52617 -1.27331,-2.94404 -2.77078,-4.33836 -4.38685,-4.94317 -0.743598,-0.27829 -1.529978,-0.38938 -2.350468,-0.38332 z" /><path
     id="path25-3"
     style="opacity:0.15;fill:#000000;fill-opacity:1;stroke:none;stroke-width:2;stroke-linecap:butt;stroke-linejoin:round;stroke-dasharray:none;stroke-opacity:1;paint-order:markers stroke fill"
     d="m 24.712332,13.244 c -0.39604,0.0053 -0.79317,0.147825 -1.11268,0.435223 l -5.2493,4.722243 c -0.2928,0.263317 -0.48436,0.619495 -0.54303,1.008867 -0.16066,1.065071 -0.3999,2.775821 -0.55901,3.766611 1.25446,0.78766 2.9839,2.12473 3.89971,4.35889 0.10317,0.25168 0.19329,0.51588 0.27285,0.78926 0.84332,-0.18463 1.69161,-0.31753 2.53415,-0.34472 0.11535,-0.004 0.23097,-0.006 0.34604,-0.005 -1.62534,-4.53298 -0.86707,-7.07816 0.0585,-8.96401 0.48898,-0.996207 0.98278,-1.805406 1.20319,-2.657926 0.21523,-0.832539 0.20943,-1.728609 -0.33008,-3.034587 -0.16918,-0.0516 -0.34411,-0.07691 -0.5204,-0.07453 z m 2.041688,1.515962 c 0.0776,0.683606 0.0254,1.302067 -0.12111,1.868667 -0.27512,1.064119 -0.822118,1.93319 -1.281718,2.869547 -0.9007,1.835028 -1.62255,3.945798 0.16105,8.567388 0.485,0.0721 0.964678,0.18909 1.437428,0.36601 1.76826,0.66178 3.36201,2.13343 4.65437,4.76217 1.04385,-1.56148 1.78752,-2.78319 2.16547,-3.42323 0.17751,-0.30031 0.14488,-0.67716 -0.0652,-0.95562 -0.54745,-0.7254 -1.59471,-2.19928 -2.16547,-3.56431 -0.58666,-1.40336 -0.67535,-3.58243 -0.68012,-4.64372 -0.002,-0.403378 -0.12989,-0.796962 -0.37932,-1.114011 z m -9.803838,9.537652 c -0.45799,1.07602 -2.68587,5.97468 -2.68587,5.97468 -0.28491,0.63499 -0.15347,1.38005 0.33141,1.87931 l 4.43608,4.56918 c 0.007,0.007 0.0157,0.0117 0.0226,0.0186 1.96966,-4.04041 1.87721,-6.81862 1.07143,-8.78434 -0.72402,-1.76625 -2.06172,-2.91573 -3.17567,-3.65747 z m 7.26171,4.7848 c -0.82049,0.006 -1.6751,0.12927 -2.55278,0.32076 0.30997,2.05338 -0.0591,4.63283 -1.60913,7.81539 0.0269,0.003 0.0527,0.0114 0.0799,0.0133 0,0 2.35392,0.17862 2.57541,0.19565 1.6801,0.12918 3.547438,0.82136 5.160118,1.26574 1.13183,0.31393 2.271,-0.59422 2.42767,-1.75819 0.1066,-0.79203 0.3045,-1.68481 0.65617,-2.52617 -1.27331,-2.94404 -2.77078,-4.33836 -4.38685,-4.94317 -0.743598,-0.27829 -1.529978,-0.38938 -2.350468,-0.38332 z" /><path
     id="path1-0-0-1"
     style="fill:#d3bfde;fill-opacity:1;stroke-width:0.0636647"
     d="m 24.712332,12.244016 c -0.39604,0.0053 -0.79317,0.147825 -1.11268,0.435223 l -5.2493,4.722243 c -0.2928,0.263317 -0.48436,0.619495 -0.54303,1.008867 -0.16066,1.065071 -0.3999,2.775821 -0.55901,3.766611 1.25446,0.78766 2.9839,2.12473 3.89971,4.35889 0.10317,0.25168 0.19329,0.51588 0.27285,0.78926 0.84332,-0.18463 1.69161,-0.31753 2.53415,-0.34472 0.11535,-0.004 0.23097,-0.006 0.34604,-0.005 -1.62534,-4.53298 -0.86707,-7.07816 0.0585,-8.96401 0.48898,-0.996207 0.98278,-1.805406 1.20319,-2.657926 0.21523,-0.832539 0.20943,-1.728609 -0.33008,-3.034587 -0.16918,-0.0516 -0.34411,-0.07691 -0.5204,-0.07453 z m 2.041688,1.515962 c 0.0776,0.683606 0.0254,1.302067 -0.12111,1.868667 -0.27512,1.064119 -0.822118,1.93319 -1.281718,2.869547 -0.9007,1.835028 -1.62255,3.945798 0.16105,8.567388 0.485,0.0721 0.964678,0.18909 1.437428,0.36601 1.76826,0.66178 3.36201,2.13343 4.65437,4.76217 1.04385,-1.56148 1.78752,-2.78319 2.16547,-3.42323 0.17751,-0.30031 0.14488,-0.67716 -0.0652,-0.95562 -0.54745,-0.7254 -1.59471,-2.19928 -2.16547,-3.56431 -0.58666,-1.40336 -0.67535,-3.58243 -0.68012,-4.64372 -0.002,-0.403378 -0.12989,-0.796962 -0.37932,-1.114011 z m -9.803838,9.537652 c -0.45799,1.07602 -2.68587,5.97468 -2.68587,5.97468 -0.28491,0.63499 -0.15347,1.38005 0.33141,1.87931 l 4.43608,4.56918 c 0.007,0.007 0.0157,0.0117 0.0226,0.0186 1.96966,-4.04041 1.87721,-6.81862 1.07143,-8.78434 -0.72402,-1.76625 -2.06172,-2.91573 -3.17567,-3.65747 z m 7.26171,4.7848 c -0.82049,0.006 -1.6751,0.12927 -2.55278,0.32076 0.30997,2.05338 -0.0591,4.63283 -1.60913,7.81539 0.0269,0.003 0.0527,0.0114 0.0799,0.0133 0,0 2.35392,0.17862 2.57541,0.19565 1.6801,0.12918 3.547438,0.82136 5.160118,1.26574 1.13183,0.31393 2.271,-0.59422 2.42767,-1.75819 0.1066,-0.79203 0.3045,-1.68481 0.65617,-2.52617 -1.27331,-2.94404 -2.77078,-4.33836 -4.38685,-4.94317 -0.743598,-0.27829 -1.529978,-0.38938 -2.350468,-0.38332 z" /><path
     id="path13-9"
     style="fill:#e8e2ea;fill-opacity:1;stroke-width:0.0636647"
     d="m 24.712891,12.244141 c -0.39604,0.0053 -0.793772,0.148149 -1.113282,0.435547 l -5.25,4.722656 c -0.292799,0.263316 -0.484298,0.618441 -0.542968,1.007812 -0.121258,0.80386 -0.279328,1.905088 -0.421875,2.857422 1.24115,0.797594 2.879843,2.111438 3.763672,4.267578 0.103169,0.25168 0.191924,0.515683 0.271484,0.789063 0.843319,-0.18463 1.692617,-0.31656 2.535156,-0.34375 0.0065,-2.26e-4 0.01301,2.13e-4 0.01953,0 -0.512664,-1.702787 -0.668034,-3.101349 -0.609375,-4.28125 -0.10491,-2.046125 0.410584,-3.498503 0.994141,-4.6875 0.48898,-0.996206 0.982715,-1.805684 1.203125,-2.658203 0.0427,-0.165179 0.0748,-0.334927 0.09766,-0.507813 -0.05628,-0.449269 -0.1877,-0.9463 -0.427734,-1.527344 -0.16918,-0.0516 -0.343242,-0.0766 -0.519531,-0.07422 z m 2.058589,1.539062 c -0.002,0.03052 -0.007,0.0596 -0.01,0.08984 0.0594,0.637968 0.009,1.221349 -0.1289,1.755859 -0.27512,1.064118 -0.821653,1.932785 -1.281253,2.869141 -0.440582,0.897613 -0.835284,1.86313 -0.917968,3.154297 0.06867,1.175681 0.37788,2.599618 1.078125,4.414062 0.484999,0.0721 0.964746,0.188315 1.437496,0.365235 1.76826,0.661779 3.36194,2.132981 4.6543,4.761718 1.01555,-1.51914 1.73415,-2.694456 2.12109,-3.347656 -0.007,-0.0101 -0.0121,-0.02139 -0.0195,-0.03125 -0.54744,-0.725399 -1.59525,-2.199424 -2.16601,-3.564453 -0.58666,-1.403359 -0.67492,-3.581289 -0.67969,-4.642578 -0.002,-0.403378 -0.13143,-0.798186 -0.38086,-1.115234 z m -9.822261,9.513672 c -0.45799,1.076019 -2.685547,5.974609 -2.685547,5.974609 -0.02907,0.06479 -0.04984,0.132517 -0.07031,0.199219 0.07754,0.250702 0.211674,0.485316 0.402344,0.681641 l 4.435547,4.568359 c 0.007,0.007 0.01654,0.01263 0.02344,0.01953 1.047978,-2.149742 1.508184,-3.94051 1.591796,-5.443359 C 20.593362,28.40841 20.4026,27.632289 20.125,26.955078 19.400981,25.18883 18.063168,24.038614 16.949219,23.296875 Z m 7.261719,4.785156 c -0.791741,0.0058 -1.615584,0.122625 -2.460938,0.302735 0.01177,0.289367 0.01121,0.588608 -0.0039,0.896484 0.08629,1.671362 -0.262016,3.65366 -1.259766,5.978516 0.48819,0.03705 2.027992,0.153301 2.21875,0.167968 1.680098,0.12918 3.547476,0.821246 5.160156,1.265625 1.13183,0.31393 2.27106,-0.593843 2.42774,-1.757812 0.0836,-0.621339 0.22696,-1.304682 0.45312,-1.976563 -1.22838,-2.636632 -2.65255,-3.921153 -4.18359,-4.49414 -0.743603,-0.27829 -1.529124,-0.388873 -2.349613,-0.382813 z" /><path
     id="path15-4"
     style="fill:#fafafa;fill-opacity:1;stroke-width:0.0636647"
     d="m 24.712891,12.244141 c -0.39604,0.0053 -0.793772,0.148149 -1.113282,0.435547 l -5.25,4.722656 c -0.292799,0.263316 -0.484298,0.618441 -0.542968,1.007812 -0.08186,0.542649 -0.183495,1.250015 -0.285157,1.947266 1.222712,0.805608 2.775105,2.099612 3.626954,4.177734 0.103169,0.25168 0.191924,0.515683 0.271484,0.789063 0.761969,-0.16682 1.528839,-0.285585 2.291016,-0.328125 -0.354596,-1.496522 -0.419524,-2.738401 -0.308594,-3.794922 -0.22438,-2.314435 0.326874,-3.905507 0.957031,-5.189453 0.48898,-0.996206 0.982715,-1.805684 1.203125,-2.658203 0.0015,-0.0058 0.0024,-0.01179 0.0039,-0.01758 -0.07429,-0.312376 -0.180958,-0.647152 -0.333984,-1.017579 -0.16918,-0.0516 -0.343242,-0.0766 -0.519531,-0.07422 z m 2.041019,1.515625 c 0.0776,0.683605 0.0254,1.302541 -0.1211,1.86914 -0.27512,1.064118 -0.821648,1.932785 -1.281248,2.869141 -0.384155,0.782654 -0.734471,1.617444 -0.873046,2.673828 0.121324,1.071994 0.432773,2.338724 1.033203,3.894531 0.484999,0.0721 0.964751,0.188315 1.437501,0.365235 1.76826,0.661779 3.36194,2.132981 4.6543,4.761718 0.80791,-1.208544 1.37117,-2.115366 1.78906,-2.804687 -0.57331,-0.79201 -1.37354,-1.99076 -1.85352,-3.138672 -0.58666,-1.403359 -0.67491,-3.581289 -0.67968,-4.642578 -0.002,-0.403378 -0.13143,-0.798186 -0.38086,-1.115234 z m -9.804691,9.537109 c -0.427992,1.00554 -2.274543,5.071995 -2.53125,5.636719 0.05278,0.07625 0.111673,0.150729 0.177734,0.21875 l 4.435547,4.568359 c 0.007,0.007 0.01654,0.01263 0.02344,0.01953 0.930222,-1.908186 1.396411,-3.533276 1.548828,-4.925781 C 20.519583,28.124611 20.351205,27.50691 20.125,26.955078 19.400981,25.18883 18.063168,24.038614 16.949219,23.296875 Z m 7.261719,4.785156 c -0.794805,0.0058 -1.621909,0.123376 -2.470704,0.304688 -0.0079,0.132817 -0.01812,0.26803 -0.03125,0.404297 1.37e-4,0.0013 -1.36e-4,0.0026 0,0.0039 0.162192,1.540609 -0.05463,3.362928 -0.835937,5.49414 0.700875,0.0532 1.674521,0.126562 1.832031,0.138672 1.680098,0.12918 3.547482,0.821246 5.160152,1.265625 1.13183,0.31393 2.27107,-0.593843 2.42774,-1.757812 0.0579,-0.430179 0.1458,-0.89023 0.26758,-1.355469 -1.1858,-2.379922 -2.54286,-3.570632 -3.99805,-4.115234 -0.743599,-0.27829 -1.52912,-0.388873 -2.349609,-0.382813 z" /><path
     style="opacity:0.4;fill:url(#linearGradient60);fill-opacity:1;stroke:none;stroke-width:2;stroke-linejoin:round"
     d="M 30.94925,33.40891 31.60404,32.19376 38,43 Z"
     id="path9-5" /><path
     style="opacity:0.4;fill:url(#linearGradient58);fill-opacity:1;stroke:none;stroke-width:2;stroke-linejoin:round"
     d="m 19.031802,35.7208 1.09808,0.51108 C 18.680509,38.67937 16.970548,40.93541 15,43 c 1.626237,-2.339538 2.970171,-4.765938 4.031802,-7.2792 z"
     id="path10-6" /><path
     style="opacity:0.5;fill:url(#linearGradient48);fill-opacity:1;stroke:none;stroke-width:2;stroke-linejoin:round"
     d="m 17.248312,22.17696 -0.299093,1.119915 C 13.342911,21.335809 9.693171,19.570184 6,18 c 3.8363,1.175164 7.585737,2.567484 11.248312,4.17696 z"
     id="path11-2" /><path
     style="opacity:0.6;fill:url(#linearGradient20);fill-opacity:1;stroke:none;stroke-width:2;stroke-linejoin:round"
     d="M 25.232425,12.318359 26.77148,13.783203 24,7 Z"
     id="path12-9" /><path
     style="opacity:0.5;fill:url(#linearGradient50);fill-opacity:1;stroke:none;stroke-width:2;stroke-linejoin:round"
     d="m 30.47848,18.492184 0.3809,1.115238 C 34.50777,17.659018 38.22131,16.12321 42,15 c -3.9353,0.974467 -7.88182,1.926511 -11.52152,3.492184 z"
     id="path14-1" /><path
     style="opacity:1;fill:url(#linearGradient37);stroke:none;stroke-width:2;stroke-linecap:butt;stroke-linejoin:round;stroke-dasharray:none;stroke-opacity:1;paint-order:markers stroke fill"
     d="M 26.75391,13.759766 30.47852,18.492188 42,15 V 9.5 C 42,8.1192881 40.880712,7 39.5,7 H 24 Z"
     id="path28" /></svg>
