<?xml version="1.0" encoding="UTF-8" standalone="no"?>
<svg
   version="1.1"
   width="48"
   height="48"
   id="svg6649"
   xml:space="preserve"
   xmlns:xlink="http://www.w3.org/1999/xlink"
   xmlns="http://www.w3.org/2000/svg"
   xmlns:svg="http://www.w3.org/2000/svg"
   xmlns:rdf="http://www.w3.org/1999/02/22-rdf-syntax-ns#"
   xmlns:cc="http://creativecommons.org/ns#"
   xmlns:dc="http://purl.org/dc/elements/1.1/"><defs
     id="defs6651"><linearGradient
       id="linearGradient42"><stop
         style="stop-color:#ffffff;stop-opacity:0.3002004;"
         offset="0"
         id="stop42" /><stop
         style="stop-color:#ffffff;stop-opacity:0;"
         offset="1"
         id="stop43" /></linearGradient><linearGradient
       id="linearGradient40"><stop
         style="stop-color:#ffffff;stop-opacity:0.2;"
         offset="0"
         id="stop40" /><stop
         style="stop-color:#ffffff;stop-opacity:0;"
         offset="1"
         id="stop41" /></linearGradient><linearGradient
       id="linearGradient36"><stop
         style="stop-color:#ffffff;stop-opacity:0.3485899;"
         offset="0"
         id="stop36" /><stop
         style="stop-color:#ffffff;stop-opacity:0;"
         offset="1"
         id="stop39" /></linearGradient><linearGradient
       id="linearGradient31"><stop
         style="stop-color:#ffffff;stop-opacity:0.4519338;"
         offset="0"
         id="stop34" /><stop
         style="stop-color:#ffffff;stop-opacity:0;"
         offset="1"
         id="stop35" /></linearGradient><linearGradient
       id="linearGradient27"><stop
         style="stop-color:#ffffff;stop-opacity:0.3958455;"
         offset="0"
         id="stop27" /><stop
         style="stop-color:#ffffff;stop-opacity:0;"
         offset="1"
         id="stop30" /></linearGradient><linearGradient
       id="linearGradient1201"><stop
         id="stop1193"
         style="stop-color:#ffffff;stop-opacity:1"
         offset="0" /><stop
         id="stop1195"
         style="stop-color:#ffffff;stop-opacity:0.23529412"
         offset="0.06781636" /><stop
         id="stop1197"
         style="stop-color:#ffffff;stop-opacity:0.15686275"
         offset="0.94694352" /><stop
         id="stop1199"
         style="stop-color:#ffffff;stop-opacity:0.39215687"
         offset="1" /></linearGradient><linearGradient
       id="linearGradient3688-166-749"><stop
         id="stop2883"
         style="stop-color:#181818;stop-opacity:1"
         offset="0" /><stop
         id="stop2885"
         style="stop-color:#181818;stop-opacity:0"
         offset="1" /></linearGradient><linearGradient
       id="linearGradient3702-501-757"><stop
         id="stop2895"
         style="stop-color:#181818;stop-opacity:0"
         offset="0" /><stop
         id="stop2897"
         style="stop-color:#181818;stop-opacity:1"
         offset="0.5" /><stop
         id="stop2899"
         style="stop-color:#181818;stop-opacity:0"
         offset="1" /></linearGradient><radialGradient
       cx="4.9929786"
       cy="43.5"
       r="2.5"
       fx="4.9929786"
       fy="43.5"
       id="radialGradient3013-6"
       xlink:href="#linearGradient3688-166-749"
       gradientUnits="userSpaceOnUse"
       gradientTransform="matrix(2.003784,0,0,0.89999994,29.98813,4.8500025)" /><radialGradient
       cx="4.9929786"
       cy="43.5"
       r="2.5"
       fx="4.9929786"
       fy="43.5"
       id="radialGradient3015-1"
       xlink:href="#linearGradient3688-166-749"
       gradientUnits="userSpaceOnUse"
       gradientTransform="matrix(2.003784,0,0,0.89999994,-18.01187,-83.149997)" /><linearGradient
       x1="38.999996"
       y1="5.9999938"
       x2="38.999996"
       y2="41.945408"
       id="linearGradient3058-5"
       xlink:href="#linearGradient1201"
       gradientUnits="userSpaceOnUse"
       gradientTransform="translate(4e-6,1.0000062)" /><linearGradient
       xlink:href="#linearGradient3702-501-757"
       id="linearGradient1191"
       gradientUnits="userSpaceOnUse"
       x1="25.058096"
       y1="47.027729"
       x2="25.058096"
       y2="39.999443"
       gradientTransform="matrix(1.1428571,0,0,0.6428571,-3.428569,16.035716)" /><linearGradient
       xlink:href="#linearGradient870"
       id="linearGradient930-9-2"
       x1="16.767664"
       y1="2.7676599"
       x2="16.767664"
       y2="29.896721"
       gradientUnits="userSpaceOnUse"
       gradientTransform="matrix(1.444444,0,0,1.444444,0.888913,1.888891)" /><linearGradient
       id="linearGradient870"><stop
         id="stop866"
         offset="0"
         style="stop-color:#9e79e9;stop-opacity:1;" /><stop
         id="stop868"
         offset="1"
         style="stop-color:#6c31e3;stop-opacity:1;" /></linearGradient><linearGradient
       xlink:href="#linearGradient27"
       id="linearGradient30"
       x1="35.330284"
       y1="16.346434"
       x2="33.815933"
       y2="7.3749785"
       gradientUnits="userSpaceOnUse" /><linearGradient
       xlink:href="#linearGradient31"
       id="linearGradient35"
       x1="20.975002"
       y1="16.040344"
       x2="10.977649"
       y2="3.7864928"
       gradientUnits="userSpaceOnUse" /><linearGradient
       xlink:href="#linearGradient36"
       id="linearGradient39"
       x1="15.655218"
       y1="42.638287"
       x2="10.047929"
       y2="31.61846"
       gradientUnits="userSpaceOnUse" /><linearGradient
       xlink:href="#linearGradient40"
       id="linearGradient41"
       x1="33.884563"
       y1="37.755974"
       x2="24.839439"
       y2="42.528149"
       gradientUnits="userSpaceOnUse" /><linearGradient
       xlink:href="#linearGradient42"
       id="linearGradient43"
       x1="37.286819"
       y1="43.499992"
       x2="42.500015"
       y2="26.22661"
       gradientUnits="userSpaceOnUse" /></defs><metadata
     id="metadata6654"><rdf:RDF><cc:Work
         rdf:about=""><dc:format>image/svg+xml</dc:format><dc:type
           rdf:resource="http://purl.org/dc/dcmitype/StillImage" /></cc:Work></rdf:RDF></metadata><rect
     style="opacity:0.6;fill:url(#radialGradient3013-6);fill-opacity:1;stroke:none;stroke-width:0.862764"
     id="rect2801-3-7"
     y="41.75"
     x="40"
     height="4.4999995"
     width="5" /><rect
     style="opacity:0.6;fill:url(#radialGradient3015-1);fill-opacity:1;stroke:none;stroke-width:0.862764"
     id="rect3696-6-3"
     transform="scale(-1)"
     y="-46.25"
     x="-8"
     height="4.4999995"
     width="5" /><rect
     style="opacity:0.6;fill:url(#linearGradient1191);fill-opacity:1;stroke:none;stroke-width:0.862764"
     id="rect3700-4-6"
     y="41.75"
     x="8"
     height="4.5"
     width="32" /><rect
     style="color:#000000;font-variation-settings:normal;display:inline;overflow:visible;visibility:visible;opacity:1;vector-effect:none;fill:url(#linearGradient930-9-2);fill-opacity:1;fill-rule:nonzero;stroke:#7239b3;stroke-width:1;stroke-linecap:butt;stroke-linejoin:miter;stroke-miterlimit:4;stroke-dasharray:none;stroke-dashoffset:0;stroke-opacity:0.5;marker:none;enable-background:accumulate;stop-color:#000000;stop-opacity:1"
     id="rect5505-21-1"
     y="5.4999952"
     x="4.5000153"
     ry="4"
     rx="4"
     height="39"
     width="39" /><path
     style="opacity:0.3;fill:none;fill-opacity:1;stroke:#ffffff;stroke-linecap:round;stroke-linejoin:round;paint-order:markers stroke fill"
     d="m 31.209432,32.677646 5.047408,9.985636"
     id="path23" /><path
     style="opacity:0.3;fill:none;fill-opacity:1;stroke:#ffffff;stroke-linecap:round;stroke-linejoin:round;paint-order:markers stroke fill"
     d="m 19.559697,35.979237 -3.904479,6.65905"
     id="path22" /><path
     style="opacity:1;fill:url(#linearGradient39);stroke:none;stroke-width:2;stroke-linecap:butt;stroke-linejoin:round;stroke-dasharray:none;stroke-opacity:1;paint-order:markers stroke fill"
     d="M 16.950182,23.29763 5.5000153,17.225244 v 21.816312 c 0,0 0,1.41565 0.1163542,2.29182 0.081117,0.610824 0.5399945,1.164162 1.0342056,1.532186 0.5682528,0.42316 1.3201119,0.634433 2.0286144,0.634433 h 2.0496455 l 3.860791,0 4.464776,-7.760595 z"
     id="path35" /><path
     style="opacity:0.3;fill:none;fill-opacity:1;stroke:#ffffff;stroke-linecap:round;stroke-linejoin:round;paint-order:markers stroke fill"
     d="M 17.100683,22.836075 6.2660932,17.063537"
     id="path17" /><path
     style="opacity:0.3;fill:none;fill-opacity:1;stroke:#ffffff;stroke-linecap:round;stroke-linejoin:round;paint-order:markers stroke fill"
     d="M 30.717892,18.900459 41.752129,12.790458"
     id="path21" /><path
     style="opacity:0.3;fill:none;fill-opacity:1;stroke:#ffffff;stroke-linecap:round;stroke-linejoin:round;paint-order:markers stroke fill"
     d="M 26.207161,13.786082 24.490581,7.3018335"
     id="path20" /><path
     style="opacity:1;fill:url(#linearGradient30);stroke:none;stroke-width:2;stroke-linecap:butt;stroke-linejoin:round;stroke-dasharray:none;stroke-opacity:1;paint-order:markers stroke fill"
     d="m 24.629739,6.4999952 2.124167,7.2597708 3.72461,4.732422 12.021499,-6.67089 c 0,0 0,-1.657295 -0.05636,-2.9054523 C 42.418864,8.3668135 42.079169,7.8386194 41.692374,7.4481827 41.229292,6.9807398 40.601728,6.535886 39.943749,6.5322978 34.020386,6.4999952 24.629739,6.4999952 24.629739,6.4999952 Z"
     id="path26" /><path
     style="opacity:1;fill:url(#linearGradient35);stroke:none;stroke-width:2;stroke-linecap:butt;stroke-linejoin:round;stroke-dasharray:none;stroke-opacity:1;paint-order:markers stroke fill"
     d="M 23.76181,6.4999952 25.519591,13.152164 17.28404,22.367799 5.5000153,16.100798 V 8.9638238 L 6.2660932,7.4490009 7.5591171,6.6493734 9.0307447,6.4999952 Z"
     id="path30" /><rect
     style="opacity:0.35;fill:none;stroke:url(#linearGradient3058-5);stroke-width:1;stroke-linecap:round;stroke-linejoin:round;stroke-miterlimit:4;stroke-dasharray:none;stroke-dashoffset:0;stroke-opacity:1"
     id="rect6741-2"
     y="6.4999952"
     x="5.5000153"
     ry="3"
     rx="3"
     height="37"
     width="37" /><path
     id="path24"
     style="opacity:0.15;fill:#000000;fill-opacity:1;stroke:#000000;stroke-width:2;stroke-linecap:butt;stroke-linejoin:round;stroke-dasharray:none;stroke-opacity:1;paint-order:markers stroke fill"
     d="m 24.712332,13.244 c -0.39604,0.0053 -0.79317,0.147825 -1.11268,0.435223 l -5.2493,4.722243 c -0.2928,0.263317 -0.48436,0.619495 -0.54303,1.008867 -0.16066,1.065071 -0.3999,2.775821 -0.55901,3.766611 1.25446,0.78766 2.9839,2.12473 3.89971,4.35889 0.10317,0.25168 0.19329,0.51588 0.27285,0.78926 0.84332,-0.18463 1.69161,-0.31753 2.53415,-0.34472 0.11535,-0.004 0.23097,-0.006 0.34604,-0.005 -1.62534,-4.53298 -0.86707,-7.07816 0.0585,-8.96401 0.48898,-0.996207 0.98278,-1.805406 1.20319,-2.657926 0.21523,-0.832539 0.20943,-1.728609 -0.33008,-3.034587 -0.16918,-0.0516 -0.34411,-0.07691 -0.5204,-0.07453 z m 2.04169,1.515962 c 0.0776,0.683606 0.0254,1.302067 -0.12111,1.868667 -0.27512,1.064119 -0.82212,1.93319 -1.28172,2.869547 -0.9007,1.835028 -1.62255,3.945798 0.16105,8.567388 0.485,0.0721 0.96468,0.18909 1.43743,0.36601 1.76826,0.66178 3.36201,2.13343 4.65437,4.76217 1.04385,-1.56148 1.78752,-2.78319 2.16547,-3.42323 0.17751,-0.30031 0.14488,-0.67716 -0.0652,-0.95562 -0.54745,-0.7254 -1.59471,-2.19928 -2.16547,-3.56431 -0.58666,-1.40336 -0.67535,-3.58243 -0.68012,-4.64372 -0.002,-0.403378 -0.12989,-0.796962 -0.37932,-1.114011 z m -9.80384,9.537652 c -0.45799,1.07602 -2.68587,5.97468 -2.68587,5.97468 -0.28491,0.63499 -0.15347,1.38005 0.33141,1.87931 l 4.43608,4.56918 c 0.007,0.007 0.0157,0.0117 0.0226,0.0186 1.96966,-4.04041 1.87721,-6.81862 1.07143,-8.78434 -0.72402,-1.76625 -2.06172,-2.91573 -3.17567,-3.65747 z m 7.26171,4.7848 c -0.82049,0.006 -1.6751,0.12927 -2.55278,0.32076 0.30997,2.05338 -0.0591,4.63283 -1.60913,7.81539 0.0269,0.003 0.0527,0.0114 0.0799,0.0133 0,0 2.35392,0.17862 2.57541,0.19565 1.6801,0.12918 3.54744,0.82136 5.16012,1.26574 1.13183,0.31393 2.271,-0.59422 2.42767,-1.75819 0.1066,-0.79203 0.3045,-1.68481 0.65617,-2.52617 -1.27331,-2.94404 -2.77078,-4.33836 -4.38685,-4.94317 -0.7436,-0.27829 -1.52998,-0.38938 -2.35047,-0.38332 z" /><path
     id="path25"
     style="opacity:0.15;fill:#000000;fill-opacity:1;stroke:none;stroke-width:2;stroke-linecap:butt;stroke-linejoin:round;stroke-dasharray:none;stroke-opacity:1;paint-order:markers stroke fill"
     d="m 24.712332,13.244 c -0.39604,0.0053 -0.79317,0.147825 -1.11268,0.435223 l -5.2493,4.722243 c -0.2928,0.263317 -0.48436,0.619495 -0.54303,1.008867 -0.16066,1.065071 -0.3999,2.775821 -0.55901,3.766611 1.25446,0.78766 2.9839,2.12473 3.89971,4.35889 0.10317,0.25168 0.19329,0.51588 0.27285,0.78926 0.84332,-0.18463 1.69161,-0.31753 2.53415,-0.34472 0.11535,-0.004 0.23097,-0.006 0.34604,-0.005 -1.62534,-4.53298 -0.86707,-7.07816 0.0585,-8.96401 0.48898,-0.996207 0.98278,-1.805406 1.20319,-2.657926 0.21523,-0.832539 0.20943,-1.728609 -0.33008,-3.034587 -0.16918,-0.0516 -0.34411,-0.07691 -0.5204,-0.07453 z m 2.04169,1.515962 c 0.0776,0.683606 0.0254,1.302067 -0.12111,1.868667 -0.27512,1.064119 -0.82212,1.93319 -1.28172,2.869547 -0.9007,1.835028 -1.62255,3.945798 0.16105,8.567388 0.485,0.0721 0.96468,0.18909 1.43743,0.36601 1.76826,0.66178 3.36201,2.13343 4.65437,4.76217 1.04385,-1.56148 1.78752,-2.78319 2.16547,-3.42323 0.17751,-0.30031 0.14488,-0.67716 -0.0652,-0.95562 -0.54745,-0.7254 -1.59471,-2.19928 -2.16547,-3.56431 -0.58666,-1.40336 -0.67535,-3.58243 -0.68012,-4.64372 -0.002,-0.403378 -0.12989,-0.796962 -0.37932,-1.114011 z m -9.80384,9.537652 c -0.45799,1.07602 -2.68587,5.97468 -2.68587,5.97468 -0.28491,0.63499 -0.15347,1.38005 0.33141,1.87931 l 4.43608,4.56918 c 0.007,0.007 0.0157,0.0117 0.0226,0.0186 1.96966,-4.04041 1.87721,-6.81862 1.07143,-8.78434 -0.72402,-1.76625 -2.06172,-2.91573 -3.17567,-3.65747 z m 7.26171,4.7848 c -0.82049,0.006 -1.6751,0.12927 -2.55278,0.32076 0.30997,2.05338 -0.0591,4.63283 -1.60913,7.81539 0.0269,0.003 0.0527,0.0114 0.0799,0.0133 0,0 2.35392,0.17862 2.57541,0.19565 1.6801,0.12918 3.54744,0.82136 5.16012,1.26574 1.13183,0.31393 2.271,-0.59422 2.42767,-1.75819 0.1066,-0.79203 0.3045,-1.68481 0.65617,-2.52617 -1.27331,-2.94404 -2.77078,-4.33836 -4.38685,-4.94317 -0.7436,-0.27829 -1.52998,-0.38938 -2.35047,-0.38332 z" /><path
     id="path1-0-0"
     style="fill:#d3bfde;fill-opacity:1;stroke-width:0.0636647"
     d="m 24.712332,12.244016 c -0.39604,0.0053 -0.79317,0.147825 -1.11268,0.435223 l -5.2493,4.722243 c -0.2928,0.263317 -0.48436,0.619495 -0.54303,1.008867 -0.16066,1.065071 -0.3999,2.775821 -0.55901,3.766611 1.25446,0.78766 2.9839,2.12473 3.89971,4.35889 0.10317,0.25168 0.19329,0.51588 0.27285,0.78926 0.84332,-0.18463 1.69161,-0.31753 2.53415,-0.34472 0.11535,-0.004 0.23097,-0.006 0.34604,-0.005 -1.62534,-4.53298 -0.86707,-7.07816 0.0585,-8.96401 0.48898,-0.996207 0.98278,-1.805406 1.20319,-2.657926 0.21523,-0.832539 0.20943,-1.728609 -0.33008,-3.034587 -0.16918,-0.0516 -0.34411,-0.07691 -0.5204,-0.07453 z m 2.04169,1.515962 c 0.0776,0.683606 0.0254,1.302067 -0.12111,1.868667 -0.27512,1.064119 -0.82212,1.93319 -1.28172,2.869547 -0.9007,1.835028 -1.62255,3.945798 0.16105,8.567388 0.485,0.0721 0.96468,0.18909 1.43743,0.36601 1.76826,0.66178 3.36201,2.13343 4.65437,4.76217 1.04385,-1.56148 1.78752,-2.78319 2.16547,-3.42323 0.17751,-0.30031 0.14488,-0.67716 -0.0652,-0.95562 -0.54745,-0.7254 -1.59471,-2.19928 -2.16547,-3.56431 -0.58666,-1.40336 -0.67535,-3.58243 -0.68012,-4.64372 -0.002,-0.403378 -0.12989,-0.796962 -0.37932,-1.114011 z m -9.80384,9.537652 c -0.45799,1.07602 -2.68587,5.97468 -2.68587,5.97468 -0.28491,0.63499 -0.15347,1.38005 0.33141,1.87931 l 4.43608,4.56918 c 0.007,0.007 0.0157,0.0117 0.0226,0.0186 1.96966,-4.04041 1.87721,-6.81862 1.07143,-8.78434 -0.72402,-1.76625 -2.06172,-2.91573 -3.17567,-3.65747 z m 7.26171,4.7848 c -0.82049,0.006 -1.6751,0.12927 -2.55278,0.32076 0.30997,2.05338 -0.0591,4.63283 -1.60913,7.81539 0.0269,0.003 0.0527,0.0114 0.0799,0.0133 0,0 2.35392,0.17862 2.57541,0.19565 1.6801,0.12918 3.54744,0.82136 5.16012,1.26574 1.13183,0.31393 2.271,-0.59422 2.42767,-1.75819 0.1066,-0.79203 0.3045,-1.68481 0.65617,-2.52617 -1.27331,-2.94404 -2.77078,-4.33836 -4.38685,-4.94317 -0.7436,-0.27829 -1.52998,-0.38938 -2.35047,-0.38332 z" /><path
     id="path13"
     style="fill:#e8e2ea;fill-opacity:1;stroke-width:0.0636647"
     d="m 24.712891,12.244141 c -0.39604,0.0053 -0.793772,0.148149 -1.113282,0.435547 l -5.25,4.722656 c -0.292799,0.263316 -0.484298,0.618441 -0.542968,1.007812 -0.121258,0.80386 -0.279328,1.905088 -0.421875,2.857422 1.24115,0.797594 2.879843,2.111438 3.763672,4.267578 0.103169,0.25168 0.191924,0.515683 0.271484,0.789063 0.843319,-0.18463 1.692617,-0.31656 2.535156,-0.34375 0.0065,-2.26e-4 0.01301,2.13e-4 0.01953,0 -0.512664,-1.702787 -0.668034,-3.101349 -0.609375,-4.28125 -0.10491,-2.046125 0.410584,-3.498503 0.994141,-4.6875 0.48898,-0.996206 0.982715,-1.805684 1.203125,-2.658203 0.0427,-0.165179 0.0748,-0.334927 0.09766,-0.507813 -0.05628,-0.449269 -0.1877,-0.9463 -0.427734,-1.527344 -0.16918,-0.0516 -0.343242,-0.0766 -0.519531,-0.07422 z m 2.058593,1.539062 c -0.0024,0.03052 -0.0068,0.0596 -0.0098,0.08984 0.05944,0.637968 0.0093,1.221349 -0.128907,1.755859 -0.275119,1.064118 -0.82165,1.932785 -1.28125,2.869141 -0.440582,0.897613 -0.835284,1.86313 -0.917968,3.154297 0.06867,1.175681 0.37788,2.599618 1.078125,4.414062 0.484999,0.0721 0.96475,0.188315 1.4375,0.365235 1.768258,0.661779 3.361938,2.132981 4.654297,4.761718 1.015546,-1.51914 1.734144,-2.694456 2.121093,-3.347656 -0.007,-0.0101 -0.01209,-0.02139 -0.01953,-0.03125 -0.547449,-0.725399 -1.595256,-2.199424 -2.166016,-3.564453 -0.586659,-1.403359 -0.674917,-3.581289 -0.679687,-4.642578 -0.002,-0.403378 -0.13143,-0.798186 -0.380859,-1.115234 z m -9.822265,9.513672 c -0.45799,1.076019 -2.685547,5.974609 -2.685547,5.974609 -0.02907,0.06479 -0.04984,0.132517 -0.07031,0.199219 0.07754,0.250702 0.211674,0.485316 0.402344,0.681641 l 4.435547,4.568359 c 0.007,0.007 0.01654,0.01263 0.02344,0.01953 1.047978,-2.149742 1.508184,-3.94051 1.591796,-5.443359 C 20.593362,28.40841 20.4026,27.632289 20.125,26.955078 19.400981,25.18883 18.063168,24.038614 16.949219,23.296875 Z m 7.261719,4.785156 c -0.791741,0.0058 -1.615584,0.122625 -2.460938,0.302735 0.01177,0.289367 0.01121,0.588608 -0.0039,0.896484 0.08629,1.671362 -0.262016,3.65366 -1.259766,5.978516 0.48819,0.03705 2.027992,0.153301 2.21875,0.167968 1.680098,0.12918 3.547478,0.821246 5.160156,1.265625 1.131829,0.31393 2.271065,-0.593843 2.427735,-1.757812 0.08363,-0.621339 0.226961,-1.304682 0.453125,-1.976563 -1.228384,-2.636632 -2.652555,-3.921153 -4.183594,-4.49414 -0.743599,-0.27829 -1.52912,-0.388873 -2.349609,-0.382813 z" /><path
     id="path15"
     style="fill:#fafafa;fill-opacity:1;stroke-width:0.0636647"
     d="m 24.712891,12.244141 c -0.39604,0.0053 -0.793772,0.148149 -1.113282,0.435547 l -5.25,4.722656 c -0.292799,0.263316 -0.484298,0.618441 -0.542968,1.007812 -0.08186,0.542649 -0.183495,1.250015 -0.285157,1.947266 1.222712,0.805608 2.775105,2.099612 3.626954,4.177734 0.103169,0.25168 0.191924,0.515683 0.271484,0.789063 0.761969,-0.16682 1.528839,-0.285585 2.291016,-0.328125 -0.354596,-1.496522 -0.419524,-2.738401 -0.308594,-3.794922 -0.22438,-2.314435 0.326874,-3.905507 0.957031,-5.189453 0.48898,-0.996206 0.982715,-1.805684 1.203125,-2.658203 0.0015,-0.0058 0.0024,-0.01179 0.0039,-0.01758 -0.07429,-0.312376 -0.180958,-0.647152 -0.333984,-1.017579 -0.16918,-0.0516 -0.343242,-0.0766 -0.519531,-0.07422 z m 2.041015,1.515625 c 0.0776,0.683605 0.02542,1.302541 -0.121094,1.86914 -0.275119,1.064118 -0.82165,1.932785 -1.28125,2.869141 -0.384155,0.782654 -0.734471,1.617444 -0.873046,2.673828 0.121324,1.071994 0.432773,2.338724 1.033203,3.894531 0.484999,0.0721 0.96475,0.188315 1.4375,0.365235 1.768258,0.661779 3.361938,2.132981 4.654297,4.761718 0.807912,-1.208544 1.371174,-2.115366 1.789062,-2.804687 -0.57331,-0.79201 -1.373539,-1.99076 -1.853516,-3.138672 -0.586659,-1.403359 -0.674917,-3.581289 -0.679687,-4.642578 -0.002,-0.403378 -0.13143,-0.798186 -0.380859,-1.115234 z m -9.804687,9.537109 c -0.427992,1.00554 -2.274543,5.071995 -2.53125,5.636719 0.05278,0.07625 0.111673,0.150729 0.177734,0.21875 l 4.435547,4.568359 c 0.007,0.007 0.01654,0.01263 0.02344,0.01953 0.930222,-1.908186 1.396411,-3.533276 1.548828,-4.925781 C 20.519583,28.124611 20.351205,27.50691 20.125,26.955078 19.400981,25.18883 18.063168,24.038614 16.949219,23.296875 Z m 7.261719,4.785156 c -0.794805,0.0058 -1.621909,0.123376 -2.470704,0.304688 -0.0079,0.132817 -0.01812,0.26803 -0.03125,0.404297 1.37e-4,0.0013 -1.36e-4,0.0026 0,0.0039 0.162192,1.540609 -0.05463,3.362928 -0.835937,5.49414 0.700875,0.0532 1.674521,0.126562 1.832031,0.138672 1.680098,0.12918 3.547478,0.821246 5.160156,1.265625 1.131829,0.31393 2.271065,-0.593843 2.427735,-1.757812 0.0579,-0.430179 0.145805,-0.89023 0.267578,-1.355469 -1.185799,-2.379922 -2.542854,-3.570632 -3.998047,-4.115234 -0.743599,-0.27829 -1.52912,-0.388873 -2.349609,-0.382813 z" /><path
     style="opacity:1;fill:url(#linearGradient41);stroke:none;stroke-width:2;stroke-linecap:butt;stroke-linejoin:round;stroke-dasharray:none;stroke-opacity:1;paint-order:markers stroke fill"
     d="m 20.049982,36.21858 10.89927,-2.80967 5.166907,10.091085 H 15.743053 Z"
     id="path39" /><path
     style="opacity:1;fill:url(#linearGradient43);stroke:none;stroke-width:2;stroke-linecap:butt;stroke-linejoin:round;stroke-dasharray:none;stroke-opacity:1;paint-order:markers stroke fill"
     d="m 30.858722,19.60688 11.641293,-6.699659 v 26.638777 c 0,0 -0.0099,1.201085 -0.102211,1.736331 -0.08398,0.487122 -0.376187,0.944308 -0.727126,1.29242 -0.423588,0.420175 -0.971469,0.828967 -1.567015,0.865002 -0.995644,0.06024 -2.816844,0.06024 -2.816844,0.06024 L 31.604042,32.193756 Z"
     id="path41" /></svg>
