<?xml version="1.0" encoding="UTF-8" standalone="no"?>
<svg
   width="48"
   height="48"
   viewBox="0 0 48 48"
   fill="none"
   version="1.1"
   id="svg4"
   xml:space="preserve"
   xmlns:xlink="http://www.w3.org/1999/xlink"
   xmlns="http://www.w3.org/2000/svg"
   xmlns:svg="http://www.w3.org/2000/svg"><defs
     id="defs4"><linearGradient
       id="linearGradient1201"><stop
         id="stop1193"
         style="stop-color:#ffffff;stop-opacity:1"
         offset="0" /><stop
         id="stop1195"
         style="stop-color:#ffffff;stop-opacity:0.23529412"
         offset="0.06781636" /><stop
         id="stop1197"
         style="stop-color:#ffffff;stop-opacity:0.15686275"
         offset="0.94694352" /><stop
         id="stop1199"
         style="stop-color:#ffffff;stop-opacity:0.39215687"
         offset="1" /></linearGradient><linearGradient
       id="linearGradient3688-166-749"><stop
         id="stop2883"
         style="stop-color:#181818;stop-opacity:1"
         offset="0" /><stop
         id="stop2885"
         style="stop-color:#181818;stop-opacity:0"
         offset="1" /></linearGradient><linearGradient
       id="linearGradient3702-501-757"><stop
         id="stop2895"
         style="stop-color:#181818;stop-opacity:0"
         offset="0" /><stop
         id="stop2897"
         style="stop-color:#181818;stop-opacity:1"
         offset="0.5" /><stop
         id="stop2899"
         style="stop-color:#181818;stop-opacity:0"
         offset="1" /></linearGradient><radialGradient
       cx="4.9929786"
       cy="43.5"
       r="2.5"
       fx="4.9929786"
       fy="43.5"
       id="radialGradient3013-6"
       xlink:href="#linearGradient3688-166-749"
       gradientUnits="userSpaceOnUse"
       gradientTransform="matrix(2.003784,0,0,0.89999994,29.98813,4.8500025)" /><radialGradient
       cx="4.9929786"
       cy="43.5"
       r="2.5"
       fx="4.9929786"
       fy="43.5"
       id="radialGradient3015-1"
       xlink:href="#linearGradient3688-166-749"
       gradientUnits="userSpaceOnUse"
       gradientTransform="matrix(2.003784,0,0,0.89999994,-18.01187,-83.149997)" /><linearGradient
       x1="38.999996"
       y1="5.9999938"
       x2="38.999996"
       y2="41.945408"
       id="linearGradient3058-5"
       xlink:href="#linearGradient1201"
       gradientUnits="userSpaceOnUse"
       gradientTransform="translate(4e-6,1.0000062)" /><linearGradient
       xlink:href="#linearGradient3702-501-757"
       id="linearGradient1191"
       gradientUnits="userSpaceOnUse"
       x1="25.058096"
       y1="47.027729"
       x2="25.058096"
       y2="39.999443"
       gradientTransform="matrix(1.1428571,0,0,0.6428571,-3.428569,16.035716)" /><style
       id="style1">.g{fill:#000;}.g,.h,.i{stroke-width:0px;}.h{fill:url(#e);}.i{fill:#fff;}</style><style
       id="style1-7">.g{fill:#000;}.g,.h,.i{stroke-width:0px;}.h{fill:url(#e);}.i{fill:#fff;}</style><style
       id="style1-5">.g{fill:#000;}.g,.h,.i{stroke-width:0px;}.h{fill:url(#e);}.i{fill:#fff;}</style><linearGradient
       id="linearGradient4"><stop
         style="stop-color:#fafafa;stop-opacity:1;"
         offset="0"
         id="stop4" /><stop
         style="stop-color:#d4d4d4;stop-opacity:1;"
         offset="1"
         id="stop5" /></linearGradient><style
       id="style1-53">.g{fill:#000;}.g,.h,.i{stroke-width:0px;}.h{fill:url(#e);}.i{fill:#fff;}</style><style
       id="style1-6">.cls-1{fill:#fff;}</style><style
       id="style1-67">.cls-1{fill:#fff;}</style><linearGradient
       xlink:href="#linearGradient4"
       id="linearGradient3"
       gradientUnits="userSpaceOnUse"
       gradientTransform="matrix(1.444444,0,0,1.444444,0.888913,1.888891)"
       x1="16.692297"
       y1="2.8461533"
       x2="16.692297"
       y2="29.153854" /></defs><g
     id="g3"><rect
       style="opacity:0.6;fill:url(#radialGradient3013-6);fill-opacity:1;stroke:none;stroke-width:0.862764"
       id="rect2801-3-7"
       y="41.75"
       x="40"
       height="4.4999995"
       width="5" /><rect
       style="opacity:0.6;fill:url(#radialGradient3015-1);fill-opacity:1;stroke:none;stroke-width:0.862764"
       id="rect3696-6-3"
       transform="scale(-1)"
       y="-46.25"
       x="-8"
       height="4.4999995"
       width="5" /><rect
       style="opacity:0.6;fill:url(#linearGradient1191);fill-opacity:1;stroke:none;stroke-width:0.862764"
       id="rect3700-4-6"
       y="41.75"
       x="8"
       height="4.5"
       width="32" /></g><rect
     style="color:#000000;font-variation-settings:normal;display:inline;overflow:visible;visibility:visible;vector-effect:none;fill:url(#linearGradient3);fill-rule:nonzero;stroke:none;stroke-width:1;stroke-linecap:butt;stroke-linejoin:miter;stroke-miterlimit:4;stroke-dasharray:none;stroke-dashoffset:0;stroke-opacity:0.497364;marker:none;enable-background:accumulate;stop-color:#000000"
     id="rect2"
     y="6"
     x="5"
     ry="3.5"
     rx="3.5"
     height="38"
     width="38" /><rect
     style="color:#000000;font-variation-settings:normal;display:inline;overflow:visible;visibility:visible;vector-effect:none;fill:none;fill-opacity:1;fill-rule:nonzero;stroke:#7e8087;stroke-width:1;stroke-linecap:butt;stroke-linejoin:miter;stroke-miterlimit:4;stroke-dasharray:none;stroke-dashoffset:0;stroke-opacity:0.497364;marker:none;enable-background:accumulate;stop-color:#000000"
     id="rect5505-21-1"
     y="5.4999952"
     x="4.5000153"
     ry="4"
     rx="4"
     height="39"
     width="39" /><rect
     style="opacity:1;fill:none;stroke:url(#linearGradient3058-5);stroke-width:1;stroke-linecap:round;stroke-linejoin:round;stroke-miterlimit:4;stroke-dasharray:none;stroke-dashoffset:0;stroke-opacity:1"
     id="rect6741-2"
     y="6.4999952"
     x="5.5000153"
     ry="3"
     rx="3"
     height="37"
     width="37" /><path
     id="path38"
     style="opacity:0.149525;fill:#000000;fill-opacity:1;stroke:#000000;stroke-width:2;stroke-linejoin:round;stroke-dasharray:none;stroke-opacity:1"
     d="M 20.5,12 A 2.5,2.5 0 0 0 18,14.5 2.5,2.5 0 0 0 20.5,17 H 23 V 14.5 A 2.5,2.5 0 0 0 20.5,12 Z m 7,0 A 2.5,2.5 0 0 0 25,14.5 v 7 A 2.5,2.5 0 0 0 27.5,24 2.5,2.5 0 0 0 30,21.5 v -7 A 2.5,2.5 0 0 0 27.5,12 Z m -14,7 A 2.5,2.5 0 0 0 11,21.5 2.5,2.5 0 0 0 13.5,24 h 7 A 2.5,2.5 0 0 0 23,21.5 2.5,2.5 0 0 0 20.5,19 Z m 20.994141,0 a 2.5,2.5 0 0 0 -2.5,2.5 A 2.5,2.5 0 0 0 32,21.582031 V 24 h 2.494141 a 2.5,2.5 0 0 0 0.0059,0 2.5,2.5 0 0 0 2.494141,-2.5 2.5,2.5 0 0 0 -2.5,-2.5 z M 13.5,26 A 2.5,2.5 0 0 0 11,28.5 2.5,2.5 0 0 0 13.5,31 2.5,2.5 0 0 0 16,28.5 V 26 Z m 7,0 A 2.5,2.5 0 0 0 18,28.5 V 35.496094 35.5 A 2.5,2.5 0 0 0 20.5,37.996094 2.5,2.5 0 0 0 23,35.5 2.5,2.5 0 0 0 23,35.498 2.5,2.5 0 0 0 23,35.496 V 28.5 A 2.5,2.5 0 0 0 20.5,26 Z m 7,0 v 0.0059 a 2.5,2.5 0 0 0 -2.5,2.5 2.5,2.5 0 0 0 2.5,2.5 A 2.5,2.5 0 0 0 27.582031,31 h 6.835938 a 2.5,2.5 0 0 0 0.08203,0.0059 2.5,2.5 0 0 0 2.5,-2.5 2.5,2.5 0 0 0 -2.5,-2.5 V 26 Z m 0,6.996094 A 2.5,2.5 0 0 0 27.445312,33 H 25 V 35.496094 35.5 a 2.5,2.5 0 0 0 2.5,2.496094 2.5,2.5 0 0 0 2.5,-2.5 2.5,2.5 0 0 0 -2.5,-2.5 z" /><path
     id="path41"
     style="opacity:0.149532;fill:#000000;fill-opacity:1;stroke:none;stroke-width:2;stroke-linejoin:round;stroke-dasharray:none;stroke-opacity:1"
     d="M 20.5,12 A 2.5,2.5 0 0 0 18,14.5 2.5,2.5 0 0 0 20.5,17 H 23 V 14.5 A 2.5,2.5 0 0 0 20.5,12 Z m 7,0 A 2.5,2.5 0 0 0 25,14.5 v 7 A 2.5,2.5 0 0 0 27.5,24 2.5,2.5 0 0 0 30,21.5 v -7 A 2.5,2.5 0 0 0 27.5,12 Z m -14,7 A 2.5,2.5 0 0 0 11,21.5 2.5,2.5 0 0 0 13.5,24 h 7 A 2.5,2.5 0 0 0 23,21.5 2.5,2.5 0 0 0 20.5,19 Z m 20.994141,0 a 2.5,2.5 0 0 0 -2.5,2.5 A 2.5,2.5 0 0 0 32,21.582031 V 24 h 2.494141 a 2.5,2.5 0 0 0 0.0059,0 2.5,2.5 0 0 0 2.494141,-2.5 2.5,2.5 0 0 0 -2.5,-2.5 z M 13.5,26 A 2.5,2.5 0 0 0 11,28.5 2.5,2.5 0 0 0 13.5,31 2.5,2.5 0 0 0 16,28.5 V 26 Z m 7,0 A 2.5,2.5 0 0 0 18,28.5 V 35.496094 35.5 A 2.5,2.5 0 0 0 20.5,37.996094 2.5,2.5 0 0 0 23,35.5 2.5,2.5 0 0 0 23,35.498 2.5,2.5 0 0 0 23,35.496 V 28.5 A 2.5,2.5 0 0 0 20.5,26 Z m 7,0 v 0.0059 a 2.5,2.5 0 0 0 -2.5,2.5 2.5,2.5 0 0 0 2.5,2.5 A 2.5,2.5 0 0 0 27.582031,31 h 6.835938 a 2.5,2.5 0 0 0 0.08203,0.0059 2.5,2.5 0 0 0 2.5,-2.5 2.5,2.5 0 0 0 -2.5,-2.5 V 26 Z m 0,6.996094 A 2.5,2.5 0 0 0 27.445312,33 H 25 V 35.496094 35.5 a 2.5,2.5 0 0 0 2.5,2.496094 2.5,2.5 0 0 0 2.5,-2.5 2.5,2.5 0 0 0 -2.5,-2.5 z" /><path
     id="path7"
     style="fill:#1e7a45;fill-opacity:1;stroke:none;stroke-linejoin:round;stroke-opacity:1"
     d="M 27.5,11 A 2.5,2.5 0 0 0 25,13.5 v 7 A 2.5,2.5 0 0 0 27.5,23 2.5,2.5 0 0 0 30,20.5 v -7 A 2.5,2.5 0 0 0 27.5,11 Z m 6.994141,7 a 2.5,2.5 0 0 0 -2.5,2.5 A 2.5,2.5 0 0 0 32,20.582031 V 23 h 2.494141 a 2.5,2.5 0 0 0 0.0059,0 2.5,2.5 0 0 0 2.494141,-2.5 2.5,2.5 0 0 0 -2.5,-2.5 z" /><path
     id="circle9"
     style="fill:#1882d4;fill-opacity:1;stroke:none;stroke-linejoin:round;stroke-opacity:1"
     d="M 20.5,11 A 2.5,2.5 0 0 0 18,13.5 2.5,2.5 0 0 0 20.5,16 H 23 V 13.5 A 2.5,2.5 0 0 0 20.5,11 Z m -7,7 A 2.5,2.5 0 0 0 11,20.5 2.5,2.5 0 0 0 13.5,23 h 7 A 2.5,2.5 0 0 0 23,20.5 2.5,2.5 0 0 0 20.5,18 Z" /><path
     id="circle12"
     style="fill:#a91149;fill-opacity:1;stroke:none;stroke-linejoin:round;stroke-opacity:1"
     d="M 13.5,25 A 2.5,2.5 0 0 0 11,27.5 2.5,2.5 0 0 0 13.5,30 2.5,2.5 0 0 0 16,27.5 V 25 Z m 7,0 A 2.5,2.5 0 0 0 18,27.5 V 34.496094 34.5 A 2.5,2.5 0 0 0 20.5,36.996094 2.5,2.5 0 0 0 23,34.5 2.5,2.5 0 0 0 23,34.498 2.5,2.5 0 0 0 23,34.496 V 27.5 A 2.5,2.5 0 0 0 20.5,25 Z" /><path
     id="circle15"
     style="fill:#c07b11;fill-opacity:1;stroke:none;stroke-linejoin:round;stroke-opacity:1"
     d="m 27.5,25 v 0.0059 a 2.5,2.5 0 0 0 -2.5,2.5 2.5,2.5 0 0 0 2.5,2.5 A 2.5,2.5 0 0 0 27.582031,30 h 6.835938 a 2.5,2.5 0 0 0 0.08203,0.0059 2.5,2.5 0 0 0 2.5,-2.5 2.5,2.5 0 0 0 -2.5,-2.5 V 25 Z m 0,6.996094 A 2.5,2.5 0 0 0 27.445312,32 H 25 V 34.496094 34.5 a 2.5,2.5 0 0 0 2.5,2.496094 2.5,2.5 0 0 0 2.5,-2.5 2.5,2.5 0 0 0 -2.5,-2.5 z" /><path
     id="path27"
     style="fill:#e5a40f;fill-opacity:1;stroke:none;stroke-linejoin:round;stroke-opacity:1"
     d="m 27.5,25 v 0.0059 a 2.5,2.5 0 0 0 -2.443359,2 2.5,2.5 0 0 0 2.443359,2 A 2.5,2.5 0 0 0 27.582031,29 h 6.835938 A 2.5,2.5 0 0 0 34.5,29.005859 2.5,2.5 0 0 0 36.945312,26.990234 2.5,2.5 0 0 0 34.5,25.005859 V 25 Z m 0,6.996094 A 2.5,2.5 0 0 0 27.445312,32 H 25 V 33.496094 33.5 a 2.5,2.5 0 0 0 2.5,2.496094 2.5,2.5 0 0 0 2.445312,-2.015625 A 2.5,2.5 0 0 0 27.5,31.996094 Z" /><path
     id="path28"
     style="fill:#fcc003;fill-opacity:1;stroke:none;stroke-linejoin:round;stroke-opacity:1"
     d="m 27.5,25 v 0.0059 a 2.5,2.5 0 0 0 -2.28125,1.5 2.5,2.5 0 0 0 2.28125,1.5 A 2.5,2.5 0 0 0 27.582031,28 h 6.835938 A 2.5,2.5 0 0 0 34.5,28.005859 2.5,2.5 0 0 0 36.785156,26.496094 2.5,2.5 0 0 0 34.5,25.005859 V 25 Z m 0,4.996094 A 2.5,2.5 0 0 0 27.447266,30 2.5,2.5 0 0 0 27.5,30.005859 2.5,2.5 0 0 0 27.582031,30 2.5,2.5 0 0 0 27.5,29.996094 Z m 0,2 A 2.5,2.5 0 0 0 27.445312,32 H 25 V 32.496094 32.5 a 2.5,2.5 0 0 0 2.5,2.496094 2.5,2.5 0 0 0 2.285156,-1.509766 A 2.5,2.5 0 0 0 27.5,31.996094 Z" /><path
     id="path32"
     style="fill:#2e9850;fill-opacity:1;stroke:none;stroke-linejoin:round;stroke-opacity:1"
     d="M 27.5,11 A 2.5,2.5 0 0 0 25,13.5 v 6 A 2.5,2.5 0 0 0 27.5,22 2.5,2.5 0 0 0 30,19.5 v -6 A 2.5,2.5 0 0 0 27.5,11 Z m 6.994141,7 A 2.5,2.5 0 0 0 32,20.447266 V 20.582031 22 h 2.494141 a 2.5,2.5 0 0 0 0.0059,0 2.5,2.5 0 0 0 2.441406,-2 2.5,2.5 0 0 0 -2.447265,-2 z" /><path
     id="path33"
     style="fill:#41b658;fill-opacity:1;stroke:none;stroke-linejoin:round;stroke-opacity:1"
     d="M 27.5,11 A 2.5,2.5 0 0 0 25,13.5 v 5 A 2.5,2.5 0 0 0 27.5,21 2.5,2.5 0 0 0 30,18.5 v -5 A 2.5,2.5 0 0 0 27.5,11 Z m 6.994141,7 A 2.5,2.5 0 0 0 32,20.447266 V 20.582031 21 h 2.494141 A 2.5,2.5 0 0 0 34.5,21 2.5,2.5 0 0 0 36.783203,19.5 2.5,2.5 0 0 0 34.494141,18 Z" /><path
     id="path34"
     style="fill:#1da1eb;fill-opacity:1;stroke:none;stroke-linejoin:round;stroke-opacity:1"
     d="M 20.5,11 A 2.5,2.5 0 0 0 18.056641,13 2.5,2.5 0 0 0 20.5,15 H 23 V 13.5 A 2.5,2.5 0 0 0 20.5,11 Z m -7,7 A 2.5,2.5 0 0 0 11.056641,20 2.5,2.5 0 0 0 13.5,22 h 7 A 2.5,2.5 0 0 0 22.945312,19.984375 2.5,2.5 0 0 0 20.5,18 Z" /><path
     id="path35"
     style="fill:#1ab9ff;fill-opacity:1;stroke:none;stroke-linejoin:round;stroke-opacity:1"
     d="M 20.5,11 A 2.5,2.5 0 0 0 18.21875,12.5 2.5,2.5 0 0 0 20.5,14 H 23 V 13.5 A 2.5,2.5 0 0 0 20.5,11 Z m -7,7 A 2.5,2.5 0 0 0 11.21875,19.5 2.5,2.5 0 0 0 13.5,21 h 7 A 2.5,2.5 0 0 0 22.783203,19.498047 2.5,2.5 0 0 0 20.5,18 Z" /><path
     id="path36"
     style="fill:#c40d55;fill-opacity:1;stroke:none;stroke-linejoin:round;stroke-opacity:1"
     d="M 13.5,25 A 2.5,2.5 0 0 0 11.056641,27 2.5,2.5 0 0 0 13.5,29 2.5,2.5 0 0 0 16,26.5 V 25 Z m 7,0 A 2.5,2.5 0 0 0 18,27.5 V 33.496094 33.5 A 2.5,2.5 0 0 0 20.5,35.996094 2.5,2.5 0 0 0 23,33.5 v -0.002 a 2.5,2.5 0 0 0 0,-0.002 V 27.5 A 2.5,2.5 0 0 0 20.5,25 Z" /><path
     id="path37"
     style="fill:#e3066a;fill-opacity:1;stroke:none;stroke-linejoin:round;stroke-opacity:1"
     d="m 13.5,25 a 2.5,2.5 0 0 0 -2.28125,1.501953 2.5,2.5 0 0 0 2.28125,1.501953 2.5,2.5 0 0 0 2.5,-2.5 V 25 Z m 7,0 A 2.5,2.5 0 0 0 18,27.5 v 5 0.0039 A 2.5,2.5 0 0 0 20.5,35 2.5,2.5 0 0 0 23,32.503906 v -0.002 A 2.5,2.5 0 0 0 23,32.5 v -5 A 2.5,2.5 0 0 0 20.5,25 Z" /></svg>
