<?xml version="1.0" encoding="UTF-8" standalone="no"?>
<svg
   width="64"
   height="64"
   viewBox="0 0 64 64"
   fill="none"
   version="1.1"
   id="svg4"
   xml:space="preserve"
   xmlns:xlink="http://www.w3.org/1999/xlink"
   xmlns="http://www.w3.org/2000/svg"
   xmlns:svg="http://www.w3.org/2000/svg"><defs
     id="defs4"><linearGradient
       id="linearGradient48"><stop
         style="stop-color:#ffffff;stop-opacity:1;"
         offset="0"
         id="stop48" /><stop
         style="stop-color:#ffffff;stop-opacity:0;"
         offset="1"
         id="stop49" /></linearGradient><linearGradient
       id="linearGradient909"><stop
         id="stop901"
         style="stop-color:#3a465a;stop-opacity:1;"
         offset="0" /><stop
         id="stop907"
         style="stop-color:#182027;stop-opacity:1;"
         offset="1" /></linearGradient><linearGradient
       y2="42.091705"
       x2="23.99999"
       y1="5.9093657"
       x1="23.99999"
       gradientTransform="matrix(1.4324324,0,0,1.4362832,-2.378375,-2.4707827)"
       gradientUnits="userSpaceOnUse"
       id="linearGradient3904"
       xlink:href="#linearGradient4270" /><linearGradient
       id="linearGradient4270"><stop
         id="stop4272"
         style="stop-color:#ffffff;stop-opacity:1"
         offset="0" /><stop
         id="stop4274"
         style="stop-color:#ffffff;stop-opacity:0.23529412"
         offset="0.08626948" /><stop
         id="stop4276"
         style="stop-color:#ffffff;stop-opacity:0.15686275"
         offset="0.93294293" /><stop
         id="stop4278"
         style="stop-color:#ffffff;stop-opacity:0.39215687"
         offset="1" /></linearGradient><linearGradient
       id="linearGradient3688-166-749-654"><stop
         offset="0"
         style="stop-color:#181818;stop-opacity:1"
         id="stop3088" /><stop
         offset="1"
         style="stop-color:#181818;stop-opacity:0"
         id="stop3090" /></linearGradient><linearGradient
       id="linearGradient3702-501-757-795"><stop
         offset="0"
         style="stop-color:#181818;stop-opacity:0"
         id="stop3100" /><stop
         offset="0.5"
         style="stop-color:#181818;stop-opacity:1"
         id="stop3102" /><stop
         offset="1"
         style="stop-color:#181818;stop-opacity:0"
         id="stop3104" /></linearGradient><radialGradient
       cx="4.9929786"
       cy="43.5"
       r="2.5"
       fx="4.9929786"
       fy="43.5"
       id="radialGradient3337-2-2"
       xlink:href="#linearGradient3688-166-749-654"
       gradientUnits="userSpaceOnUse"
       gradientTransform="matrix(2.4045407,0,0,0.99999998,41.985755,15.500001)" /><radialGradient
       cx="4.9929786"
       cy="43.5"
       r="2.5"
       fx="4.9929786"
       fy="43.5"
       id="radialGradient3339-1-4"
       xlink:href="#linearGradient3688-166-749-654"
       gradientUnits="userSpaceOnUse"
       gradientTransform="matrix(2.4045407,0,0,0.99999998,-22.014244,-102.5)" /><linearGradient
       x1="25.058096"
       y1="47.027729"
       x2="25.058096"
       y2="39.999443"
       id="linearGradient6394"
       xlink:href="#linearGradient3702-501-757-795"
       gradientUnits="userSpaceOnUse"
       gradientTransform="matrix(1.5714286,0,0,0.7142857,-5.7142853,27.928572)" /><linearGradient
       xlink:href="#linearGradient2"
       id="linearGradient899"
       x1="31.781376"
       y1="4.9266648"
       x2="31.781376"
       y2="59.148476"
       gradientUnits="userSpaceOnUse" /><linearGradient
       id="linearGradient1"><stop
         style="stop-color:#c6262e;stop-opacity:1;"
         offset="0"
         id="stop4" /><stop
         style="stop-color:#f37329;stop-opacity:1;"
         offset="0.5"
         id="stop6" /><stop
         style="stop-color:#f9c440;stop-opacity:1;"
         offset="1"
         id="stop5" /></linearGradient><filter
       style="color-interpolation-filters:sRGB"
       id="filter7-2"
       x="-0.36570926"
       y="-0.13298518"
       width="1.7314185"
       height="1.2659704"><feGaussianBlur
         stdDeviation="0.30475772"
         id="feGaussianBlur7-9" /></filter><linearGradient
       xlink:href="#linearGradient1"
       id="linearGradient134"
       gradientUnits="userSpaceOnUse"
       gradientTransform="matrix(1.333333,0,0,1.333333,-65.333322,-1.999995)"
       x1="25"
       y1="15"
       x2="25"
       y2="35" /><linearGradient
       id="linearGradient2"><stop
         style="stop-color:#fafafa;stop-opacity:1;"
         offset="0"
         id="stop7" /><stop
         style="stop-color:#7e8087;stop-opacity:1;"
         offset="1"
         id="stop8" /></linearGradient><linearGradient
       xlink:href="#linearGradient909"
       id="linearGradient11"
       x1="33"
       y1="6.5"
       x2="33"
       y2="57.5"
       gradientUnits="userSpaceOnUse" /><linearGradient
       xlink:href="#linearGradient1"
       id="linearGradient18"
       gradientUnits="userSpaceOnUse"
       gradientTransform="matrix(1.333333,0,0,1.333333,-0.833322,-1.999995)"
       x1="25"
       y1="15"
       x2="25"
       y2="35" /><filter
       style="color-interpolation-filters:sRGB"
       id="filter21"
       x="-0.3648"
       y="-0.13028571"
       width="1.7296"
       height="1.2605714"><feGaussianBlur
         stdDeviation="0.38"
         id="feGaussianBlur21" /></filter><filter
       style="color-interpolation-filters:sRGB"
       id="filter22"
       x="-0.38399999"
       y="-0.128"
       width="1.768"
       height="1.256"><feGaussianBlur
         stdDeviation="0.96"
         id="feGaussianBlur22" /></filter><filter
       style="color-interpolation-filters:sRGB"
       id="filter23"
       x="-0.19199999"
       y="-0.19199999"
       width="1.384"
       height="1.384"><feGaussianBlur
         stdDeviation="2.08"
         id="feGaussianBlur23" /></filter><linearGradient
       xlink:href="#linearGradient48"
       id="linearGradient49"
       x1="33"
       y1="7"
       x2="33"
       y2="46"
       gradientUnits="userSpaceOnUse" /><linearGradient
       xlink:href="#linearGradient1"
       id="linearGradient50"
       gradientUnits="userSpaceOnUse"
       gradientTransform="matrix(1.333333,0,0,1.333333,-0.833322,-1.999995)"
       x1="25"
       y1="15"
       x2="25"
       y2="35" /></defs><g
     id="g866"><rect
       style="opacity:0.6;fill:url(#radialGradient3337-2-2);fill-opacity:1;stroke:none;stroke-width:1.06199"
       id="rect2801-5-5-7-9"
       y="56.5"
       x="54"
       height="5"
       width="6" /><rect
       style="opacity:0.6;fill:url(#radialGradient3339-1-4);fill-opacity:1;stroke:none;stroke-width:1.06199"
       id="rect3696-3-0-3-7"
       transform="scale(-1)"
       y="-61.5"
       x="-10"
       height="5"
       width="6" /><rect
       style="opacity:0.6;fill:url(#linearGradient6394);fill-opacity:1;stroke:none;stroke-width:1.06199"
       id="rect3700-5-6-8-4"
       y="56.5"
       x="10"
       height="5.0000005"
       width="44" /></g><rect
     width="55"
     height="55"
     rx="6"
     ry="6"
     x="4.5"
     y="4.5"
     id="rect5505-21-3-8-5-2-9"
     style="color:#000000;display:inline;overflow:visible;visibility:visible;fill:url(#linearGradient899);fill-rule:nonzero;stroke:none;stroke-width:1;marker:none;enable-background:accumulate" /><rect
     style="opacity:0.3;fill:none;stroke:url(#linearGradient3904);stroke-width:1;stroke-linecap:round;stroke-linejoin:round;stroke-miterlimit:4;stroke-dasharray:none;stroke-dashoffset:0;stroke-opacity:1"
     id="rect6741"
     y="5.428761"
     x="5.5"
     ry="5"
     rx="5"
     height="53.142479"
     width="53" /><rect
     style="color:#000000;display:inline;overflow:visible;visibility:visible;opacity:0.5;fill:none;stroke:#7e8087;stroke-width:1;stroke-linecap:round;stroke-linejoin:round;stroke-miterlimit:4;stroke-dasharray:none;stroke-dashoffset:0;stroke-opacity:1;marker:none;enable-background:accumulate"
     id="rect5505-21-9"
     y="4.5"
     x="4.5"
     ry="6"
     rx="6"
     height="55"
     width="55" /><path
     style="fill:url(#linearGradient134);stroke:none;stroke-width:1.33333;stroke-linejoin:round;stroke-opacity:0.497364"
     d="m -35,18 h 6 l 10,26 h -5 l -8,-20 -8.002599,20 H -45 Z"
     id="path115-2" /><path
     style="fill:#64baff;stroke:none;stroke-width:1.29346;stroke-linejoin:round;stroke-opacity:0.497364"
     d="m -32,29 -3,8 3,10 3,-10 z"
     id="path116-7" /><path
     style="fill:#ffffff;fill-opacity:1;stroke:none;stroke-width:0.8;stroke-linejoin:round;stroke-opacity:0.497364"
     d="M -32,29 -33.25,32.333333 -32,36 l 1.25,-3.666667 z"
     id="path117-0" /><path
     style="mix-blend-mode:normal;fill:#ffffff;fill-opacity:1;stroke:none;stroke-width:0.6;stroke-linejoin:round;stroke-opacity:0.497364;filter:url(#filter7-2)"
     d="m -11.542658,24 -1,2.5 1,3 1,-3 z"
     id="path118-9"
     transform="matrix(1.333333,0,0,1.333333,-16.60979,-1.999992)" /><rect
     style="opacity:1;fill:url(#linearGradient11);stroke:#091825;stroke-linejoin:round;stroke-opacity:0.498039"
     id="rect2"
     width="51"
     height="51"
     x="6.5"
     y="6.5"
     rx="4"
     ry="4" /><g
     id="g18"
     transform="translate(-0.5,-1)"><path
       style="fill:url(#linearGradient50);stroke:none;stroke-width:1.33333;stroke-linejoin:round;stroke-opacity:0.497364"
       d="m 29.5,18 h 6 l 10,26 h -5 l -8,-20 -8.002599,20 H 19.5 Z"
       id="path11" /><path
       style="fill:#64baff;stroke:none;stroke-width:1.29346;stroke-linejoin:round;stroke-opacity:0.497364"
       d="m 32.5,29 -3,8 3,10 3,-10 z"
       id="path12" /><path
       style="fill:#ffffff;fill-opacity:1;stroke:none;stroke-width:0.8;stroke-linejoin:round;stroke-opacity:0.497364"
       d="M 32.5,29 31.25,32.333333 32.5,36 33.75,32.333333 Z"
       id="path13" /><path
       style="mix-blend-mode:normal;fill:#ffffff;fill-opacity:1;stroke:none;stroke-width:0.6;stroke-linejoin:round;stroke-opacity:0.497364;filter:url(#filter7-2)"
       d="m -11.542658,24 -1,2.5 1,3 1,-3 z"
       id="path14"
       transform="matrix(1.333333,0,0,1.333333,47.89021,-1.999992)" /></g><g
     id="g21"
     transform="translate(-0.5,-1)"><path
       style="opacity:0.5;fill:url(#linearGradient18);stroke:none;stroke-width:1.33333;stroke-linejoin:round;stroke-opacity:0.497364;filter:url(#filter23)"
       d="m 29.5,18 h 6 l 10,26 h -5 l -8,-20 -8.002599,20 H 19.5 Z"
       id="path18" /><path
       style="opacity:0.5;fill:#64baff;stroke:none;stroke-width:1.29346;stroke-linejoin:round;stroke-opacity:0.497364;filter:url(#filter22)"
       d="m 32.5,29 -3,8 3,10 3,-10 z"
       id="path19" /><path
       style="opacity:0.5;fill:#ffffff;fill-opacity:1;stroke:none;stroke-width:0.8;stroke-linejoin:round;stroke-opacity:0.497364;filter:url(#filter21)"
       d="M 32.5,29 31.25,32.333333 32.5,36 33.75,32.333333 Z"
       id="path20" /></g><path
     id="path47"
     style="opacity:1;fill:none;stroke:#0e141f;stroke-linejoin:round;stroke-opacity:0.14902"
     d="M 8,56.5 H 57 M 7,54.5 H 57.5 M 7,52.5 H 57.5 M 7,50.5 H 57.5 M 7,48.5 H 57.5 M 7,46.5 H 57.5 M 7,44.5 H 57.5 M 7,42.5 H 57.5 M 7,40.5 H 57.5 M 7,38.5 H 57.5 M 7,36.5 H 57.5 M 7,34.5 H 57.5 M 7,32.5 H 57.5 M 7,30.5 H 57.5 M 7,28.5 H 57.5 M 7,26.5 H 57.5 M 7,24.5 H 57.5 M 7,22.5 H 57.5 M 7,20.5 H 57.5 M 7,18.5 H 57.5 M 7,16.5 H 57.5 M 7,14.5 H 57.5 M 7,12.5 H 57.5 M 7,10.5 H 57.5 M 7,8.5 h 50" /><path
     id="path48"
     style="opacity:1;fill:none;stroke:#0e141f;stroke-linejoin:round;stroke-opacity:0.14902"
     d="M 8,56 H 57 M 7,54 H 57.5 M 7,52 H 57.5 M 7,50 H 57.5 M 7,48 H 57.5 M 7,46 H 57.5 M 7,44 H 57.5 M 7,42 H 57.5 M 7,40 H 57.5 M 7,38 H 57.5 M 7,36 H 57.5 M 7,34 H 57.5 M 7,32 H 57.5 M 7,30 H 57.5 M 7,28 H 57.5 M 7,26 H 57.5 M 7,24 H 57.5 M 7,22 H 57.5 M 7,20 H 57.5 M 7,18 H 57.5 M 7,16 H 57.5 M 7,14 H 57.5 M 7,12 H 57.5 M 7,10 H 57.5 M 7,8 h 50" /><path
     id="rect48"
     style="opacity:0.25;fill:url(#linearGradient49);fill-opacity:1;stroke-linejoin:round;stroke-opacity:0.14902"
     d="m 10.5,7 h 43 C 55.439,7 57,8.561 57,10.5 V 31 L 7,46 V 10.5 C 7,8.561 8.561,7 10.5,7 Z" /></svg>
