<?xml version="1.0" encoding="UTF-8" standalone="no"?>
<svg
   width="64"
   height="64"
   viewBox="0 0 64 64"
   fill="none"
   version="1.1"
   id="svg4"
   xml:space="preserve"
   xmlns:xlink="http://www.w3.org/1999/xlink"
   xmlns="http://www.w3.org/2000/svg"
   xmlns:svg="http://www.w3.org/2000/svg"><defs
     id="defs4"><linearGradient
       id="linearGradient48"><stop
         style="stop-color:#ffffff;stop-opacity:1;"
         offset="0"
         id="stop48" /><stop
         style="stop-color:#ffffff;stop-opacity:0;"
         offset="1"
         id="stop49" /></linearGradient><linearGradient
       id="linearGradient909"><stop
         id="stop901"
         style="stop-color:#3a465a;stop-opacity:1;"
         offset="0" /><stop
         id="stop907"
         style="stop-color:#182027;stop-opacity:1;"
         offset="1" /></linearGradient><linearGradient
       y2="42.091705"
       x2="23.99999"
       y1="5.9093657"
       x1="23.99999"
       gradientTransform="matrix(1.4324324,0,0,1.4362832,-2.378375,-2.4707827)"
       gradientUnits="userSpaceOnUse"
       id="linearGradient3904"
       xlink:href="#linearGradient4270" /><linearGradient
       id="linearGradient4270"><stop
         id="stop4272"
         style="stop-color:#ffffff;stop-opacity:1"
         offset="0" /><stop
         id="stop4274"
         style="stop-color:#ffffff;stop-opacity:0.23529412"
         offset="0.08626948" /><stop
         id="stop4276"
         style="stop-color:#ffffff;stop-opacity:0.15686275"
         offset="0.93294293" /><stop
         id="stop4278"
         style="stop-color:#ffffff;stop-opacity:0.39215687"
         offset="1" /></linearGradient><linearGradient
       id="linearGradient3688-166-749-654"><stop
         offset="0"
         style="stop-color:#181818;stop-opacity:1"
         id="stop3088" /><stop
         offset="1"
         style="stop-color:#181818;stop-opacity:0"
         id="stop3090" /></linearGradient><linearGradient
       id="linearGradient3702-501-757-795"><stop
         offset="0"
         style="stop-color:#181818;stop-opacity:0"
         id="stop3100" /><stop
         offset="0.5"
         style="stop-color:#181818;stop-opacity:1"
         id="stop3102" /><stop
         offset="1"
         style="stop-color:#181818;stop-opacity:0"
         id="stop3104" /></linearGradient><radialGradient
       cx="4.9929786"
       cy="43.5"
       r="2.5"
       fx="4.9929786"
       fy="43.5"
       id="radialGradient3337-2-2"
       xlink:href="#linearGradient3688-166-749-654"
       gradientUnits="userSpaceOnUse"
       gradientTransform="matrix(2.4045407,0,0,0.99999998,41.985755,15.500001)" /><radialGradient
       cx="4.9929786"
       cy="43.5"
       r="2.5"
       fx="4.9929786"
       fy="43.5"
       id="radialGradient3339-1-4"
       xlink:href="#linearGradient3688-166-749-654"
       gradientUnits="userSpaceOnUse"
       gradientTransform="matrix(2.4045407,0,0,0.99999998,-22.014244,-102.5)" /><linearGradient
       x1="25.058096"
       y1="47.027729"
       x2="25.058096"
       y2="39.999443"
       id="linearGradient6394"
       xlink:href="#linearGradient3702-501-757-795"
       gradientUnits="userSpaceOnUse"
       gradientTransform="matrix(1.5714286,0,0,0.7142857,-5.7142853,27.928572)" /><linearGradient
       xlink:href="#linearGradient2"
       id="linearGradient899"
       x1="31.781376"
       y1="4.9266648"
       x2="31.781376"
       y2="59.148476"
       gradientUnits="userSpaceOnUse" /><linearGradient
       id="linearGradient1"><stop
         style="stop-color:#c6262e;stop-opacity:1;"
         offset="0"
         id="stop4" /><stop
         style="stop-color:#f37329;stop-opacity:1;"
         offset="0.5"
         id="stop6" /><stop
         style="stop-color:#f9c440;stop-opacity:1;"
         offset="1"
         id="stop5" /></linearGradient><linearGradient
       id="linearGradient2"><stop
         style="stop-color:#fafafa;stop-opacity:1;"
         offset="0"
         id="stop7" /><stop
         style="stop-color:#7e8087;stop-opacity:1;"
         offset="1"
         id="stop8" /></linearGradient><linearGradient
       xlink:href="#linearGradient909"
       id="linearGradient11"
       x1="33"
       y1="6.5"
       x2="33"
       y2="57.5"
       gradientUnits="userSpaceOnUse" /><linearGradient
       xlink:href="#linearGradient1"
       id="linearGradient18"
       gradientUnits="userSpaceOnUse"
       gradientTransform="matrix(1.333333,0,0,1.333333,-0.833322,-1.999995)"
       x1="25"
       y1="15"
       x2="25"
       y2="35" /><filter
       style="color-interpolation-filters:sRGB"
       id="filter23"
       x="-0.19199999"
       y="-0.19199999"
       width="1.384"
       height="1.384"><feGaussianBlur
         stdDeviation="2.08"
         id="feGaussianBlur23" /></filter><linearGradient
       xlink:href="#linearGradient48"
       id="linearGradient49"
       x1="33"
       y1="7"
       x2="33"
       y2="46"
       gradientUnits="userSpaceOnUse" /><linearGradient
       xlink:href="#linearGradient1"
       id="linearGradient50"
       gradientUnits="userSpaceOnUse"
       gradientTransform="matrix(1.333333,0,0,1.333333,-1.333322,-2.999995)"
       x1="25"
       y1="15"
       x2="25"
       y2="35" /><filter
       style="color-interpolation-filters:sRGB"
       id="filter1"
       x="-0.352"
       y="-0.132"
       width="1.704"
       height="1.264"><feGaussianBlur
         stdDeviation="0.44"
         id="feGaussianBlur1" /></filter><filter
       style="color-interpolation-filters:sRGB"
       id="filter3"
       x="-0.99200001"
       y="-0.372"
       width="2.984"
       height="1.744"><feGaussianBlur
         stdDeviation="1.24"
         id="feGaussianBlur3" /></filter><filter
       style="color-interpolation-filters:sRGB"
       id="filter4"
       x="-0.42514286"
       y="-0.14171429"
       width="1.8502857"
       height="1.2834286"><feGaussianBlur
         stdDeviation="1.24"
         id="feGaussianBlur4" /></filter></defs><g
     id="g866"><rect
       style="opacity:0.6;fill:url(#radialGradient3337-2-2);fill-opacity:1;stroke:none;stroke-width:1.06199"
       id="rect2801-5-5-7-9"
       y="56.5"
       x="54"
       height="5"
       width="6" /><rect
       style="opacity:0.6;fill:url(#radialGradient3339-1-4);fill-opacity:1;stroke:none;stroke-width:1.06199"
       id="rect3696-3-0-3-7"
       transform="scale(-1)"
       y="-61.5"
       x="-10"
       height="5"
       width="6" /><rect
       style="opacity:0.6;fill:url(#linearGradient6394);fill-opacity:1;stroke:none;stroke-width:1.06199"
       id="rect3700-5-6-8-4"
       y="56.5"
       x="10"
       height="5.0000005"
       width="44" /></g><rect
     width="55"
     height="55"
     rx="6"
     ry="6"
     x="4.5"
     y="4.5"
     id="rect5505-21-3-8-5-2-9"
     style="color:#000000;display:inline;overflow:visible;visibility:visible;fill:url(#linearGradient899);fill-rule:nonzero;stroke:none;stroke-width:1;marker:none;enable-background:accumulate" /><rect
     style="opacity:0.3;fill:none;stroke:url(#linearGradient3904);stroke-width:1;stroke-linecap:round;stroke-linejoin:round;stroke-miterlimit:4;stroke-dasharray:none;stroke-dashoffset:0;stroke-opacity:1"
     id="rect6741"
     y="5.428761"
     x="5.5"
     ry="5"
     rx="5"
     height="53.142479"
     width="53" /><rect
     style="color:#000000;display:inline;overflow:visible;visibility:visible;opacity:0.5;fill:none;stroke:#7e8087;stroke-width:1;stroke-linecap:round;stroke-linejoin:round;stroke-miterlimit:4;stroke-dasharray:none;stroke-dashoffset:0;stroke-opacity:1;marker:none;enable-background:accumulate"
     id="rect5505-21-9"
     y="4.5"
     x="4.5"
     ry="6"
     rx="6"
     height="55"
     width="55" /><rect
     style="opacity:1;fill:url(#linearGradient11);stroke:#091825;stroke-linejoin:round;stroke-opacity:0.498039"
     id="rect2"
     width="51"
     height="51"
     x="6.5"
     y="6.5"
     rx="4"
     ry="4" /><g
     id="g21"
     transform="translate(-0.5,-1)"><g
       id="g4"><path
         style="opacity:0.5;fill:#64baff;stroke:none;stroke-width:1.29346;stroke-linejoin:round;stroke-opacity:0.497364;filter:url(#filter4)"
         d="M 32,26 28.5,36 32,47 35.5,36 Z"
         id="path2"
         transform="translate(0.5,1)" /><path
         style="opacity:0.5;fill:#ffffff;fill-opacity:1;stroke:none;stroke-width:0.8;stroke-linejoin:round;stroke-opacity:0.497364;filter:url(#filter3)"
         d="m 32,26 -1.5,4 1.5,4 1.5,-4 z"
         id="path3"
         transform="translate(0.5,1)" /><path
         style="opacity:0.5;fill:url(#linearGradient18);stroke:none;stroke-width:1.33333;stroke-linejoin:round;stroke-opacity:0.497364;filter:url(#filter23)"
         d="m 29.5,18 h 6 l 10,26 h -5 l -8,-21 -8.002599,21 H 19.5 Z"
         id="path18" /></g></g><g
     id="g5"><path
       style="fill:url(#linearGradient50);stroke:none;stroke-width:1.33333;stroke-linejoin:round;stroke-opacity:0.497364"
       d="m 29,17 h 6 L 45,43 H 40 L 32,22 23.997401,43 H 19 Z"
       id="path11" /><path
       style="fill:#64baff;stroke:none;stroke-width:1.29346;stroke-linejoin:round;stroke-opacity:0.497364"
       d="M 32,26 28.5,36 32,47 35.5,36 Z"
       id="path12" /><path
       style="fill:#ffffff;fill-opacity:1;stroke:none;stroke-width:0.8;stroke-linejoin:round;stroke-opacity:0.497364"
       d="m 32,26 -1.5,4 1.5,4 1.5,-4 z"
       id="path13" /><path
       style="fill:#ffffff;fill-opacity:1;stroke:none;stroke-width:0.8;stroke-linejoin:round;stroke-opacity:0.497364;filter:url(#filter1)"
       d="m 32,27 -1.5,4 1.5,4 1.5,-4 z"
       id="path1" /></g><path
     id="path47"
     style="opacity:1;fill:none;stroke:#0e141f;stroke-linejoin:round;stroke-opacity:0.14902"
     d="m -55,56.5 h 49 m -50,-2 H -5.5 M -56,52.5 H -5.5 M -56,50.5 H -5.5 M -56,48.5 H -5.5 M -56,46.5 H -5.5 M -56,44.5 H -5.5 M -56,42.5 H -5.5 M -56,40.5 H -5.5 M -56,38.5 H -5.5 M -56,36.5 H -5.5 M -56,34.5 H -5.5 M -56,32.5 H -5.5 M -56,30.5 H -5.5 M -56,28.5 H -5.5 M -56,26.5 H -5.5 M -56,24.5 H -5.5 M -56,22.5 H -5.5 M -56,20.5 H -5.5 M -56,18.5 H -5.5 M -56,16.5 H -5.5 M -56,14.5 H -5.5 M -56,12.5 H -5.5 M -56,10.5 H -5.5 M -56,8.5 h 50" /><path
     id="path48"
     style="opacity:1;fill:none;stroke:#0e141f;stroke-linejoin:round;stroke-opacity:0.14902"
     d="M -55,56 H -6 M -56,54 H -5.5 M -56,52 H -5.5 M -56,50 H -5.5 M -56,48 H -5.5 M -56,46 H -5.5 M -56,44 H -5.5 M -56,42 H -5.5 M -56,40 H -5.5 M -56,38 H -5.5 M -56,36 H -5.5 M -56,34 H -5.5 M -56,32 H -5.5 M -56,30 H -5.5 M -56,28 H -5.5 M -56,26 H -5.5 M -56,24 H -5.5 M -56,22 H -5.5 M -56,20 H -5.5 M -56,18 H -5.5 M -56,16 H -5.5 M -56,14 H -5.5 M -56,12 H -5.5 M -56,10 H -5.5 M -56,8 h 50" /><path
     id="rect48"
     style="opacity:0.25;fill:url(#linearGradient49);fill-opacity:1;stroke-linejoin:round;stroke-opacity:0.14902"
     d="m 10.5,7 h 43 C 55.439,7 57,8.561 57,10.5 V 31 L 7,46 V 10.5 C 7,8.561 8.561,7 10.5,7 Z" /><path
     id="path20"
     style="opacity:1;fill:none;stroke:#0e141f;stroke-width:2;stroke-linejoin:round;stroke-opacity:0.14901961"
     d="M 7,54 H 57 M 7,50 H 57 M 7,46 H 57 M 7,42 H 57 M 7,38 H 57 M 7,34 H 57 M 7,30 H 57 M 7,26 H 57 M 7,22 H 57 M 7,18 H 57 M 7,14 H 57 M 7,10 h 50" /><path
     id="path21"
     style="opacity:1;fill:none;stroke:#0e141f;stroke-width:2;stroke-linejoin:round;stroke-opacity:0.14901961"
     d="M 7,53 H 57 M 7,49 H 57 M 7,45 H 57 M 7,41 H 57 M 7,37 H 57 M 7,33 H 57 M 7,29 H 57 M 7,25 H 57 M 7,21 H 57 M 7,17 H 57 M 7,13 H 57 M 7,9 h 50" /></svg>
