<?xml version="1.0" encoding="UTF-8" standalone="no"?>
<svg
   width="64"
   height="64"
   viewBox="0 0 64 64"
   fill="none"
   version="1.1"
   id="svg4"
   xml:space="preserve"
   xmlns:xlink="http://www.w3.org/1999/xlink"
   xmlns="http://www.w3.org/2000/svg"
   xmlns:svg="http://www.w3.org/2000/svg"><defs
     id="defs4"><linearGradient
       y2="42.05267"
       x2="37.962261"
       y1="5.8481112"
       x1="37.962261"
       gradientTransform="matrix(1.4324324,0,0,1.4362832,-2.378375,-2.3995437)"
       gradientUnits="userSpaceOnUse"
       id="linearGradient3904"
       xlink:href="#linearGradient4270" /><linearGradient
       id="linearGradient4270"><stop
         id="stop4272"
         style="stop-color:#ffffff;stop-opacity:1"
         offset="0" /><stop
         id="stop4274"
         style="stop-color:#ffffff;stop-opacity:0.23529412"
         offset="0.08653846" /><stop
         id="stop4276"
         style="stop-color:#ffffff;stop-opacity:0.15686275"
         offset="0.91346157" /><stop
         id="stop4278"
         style="stop-color:#ffffff;stop-opacity:0.39215687"
         offset="1" /></linearGradient><linearGradient
       id="linearGradient3688-166-749-654"><stop
         offset="0"
         style="stop-color:#181818;stop-opacity:1"
         id="stop3088" /><stop
         offset="1"
         style="stop-color:#181818;stop-opacity:0"
         id="stop3090" /></linearGradient><linearGradient
       id="linearGradient3702-501-757-795"><stop
         offset="0"
         style="stop-color:#181818;stop-opacity:0"
         id="stop3100" /><stop
         offset="0.5"
         style="stop-color:#181818;stop-opacity:1"
         id="stop3102" /><stop
         offset="1"
         style="stop-color:#181818;stop-opacity:0"
         id="stop3104" /></linearGradient><radialGradient
       cx="4.9929786"
       cy="43.5"
       r="2.5"
       fx="4.9929786"
       fy="43.5"
       id="radialGradient3337-2-2"
       xlink:href="#linearGradient3688-166-749-654"
       gradientUnits="userSpaceOnUse"
       gradientTransform="matrix(2.4045407,0,0,0.99999998,41.985755,15.500001)" /><radialGradient

       cx="4.9929786"
       cy="43.5"
       r="2.5"
       fx="4.9929786"
       fy="43.5"
       id="radialGradient3339-1-4"
       xlink:href="#linearGradient3688-166-749-654"
       gradientUnits="userSpaceOnUse"
       gradientTransform="matrix(2.4045407,0,0,0.99999998,-22.014244,-102.5)" /><linearGradient
       x1="25.058096"
       y1="47.027729"
       x2="25.058096"
       y2="39.999443"
       id="linearGradient6394"
       xlink:href="#linearGradient3702-501-757-795"
       gradientUnits="userSpaceOnUse"
       gradientTransform="matrix(1.5714286,0,0,0.7142857,-5.7142853,27.928572)" /><linearGradient
       xlink:href="#linearGradient2"
       id="linearGradient899"
       x1="31.781376"
       y1="4.9266648"
       x2="31.781376"
       y2="59.148476"
       gradientUnits="userSpaceOnUse" /><linearGradient
       id="linearGradient2"><stop
         style="stop-color:#175ddc;stop-opacity:1;"
         offset="0"
         id="stop3-3" /><stop
         style="stop-color:#1a41ac;stop-opacity:1;"
         offset="1"
         id="stop4-5" /></linearGradient><style
       id="style1">.g{fill:#000;}.g,.h,.i{stroke-width:0px;}.h{fill:url(#e);}.i{fill:#fff;}</style><style
       id="style1-6">.cls-1{fill:#fff;}</style><style
       id="style1-67">.cls-1{fill:#fff;}</style></defs><g
     id="g866"><rect
       style="opacity:0.6;fill:url(#radialGradient3337-2-2);fill-opacity:1;stroke:none;stroke-width:1.06199"
       id="rect2801-5-5-7-9"
       y="56.5"
       x="54"
       height="5"
       width="6" /><rect
       style="opacity:0.6;fill:url(#radialGradient3339-1-4);fill-opacity:1;stroke:none;stroke-width:1.06199"
       id="rect3696-3-0-3-7"
       transform="scale(-1)"
       y="-61.5"
       x="-10"
       height="5"
       width="6" /><rect
       style="opacity:0.6;fill:url(#linearGradient6394);fill-opacity:1;stroke:none;stroke-width:1.06199"
       id="rect3700-5-6-8-4"
       y="56.5"
       x="10"
       height="5.0000005"
       width="44" /></g><rect
     width="55"
     height="55"
     rx="6"
     ry="6"
     x="4.5"
     y="4.5"
     id="rect5505-21-3-8-5-2-9"
     style="color:#000000;display:inline;overflow:visible;visibility:visible;fill:url(#linearGradient899);fill-opacity:1;fill-rule:nonzero;stroke:none;stroke-width:1;marker:none;enable-background:accumulate" /><rect
     style="opacity:0.3;fill:none;stroke:url(#linearGradient3904);stroke-width:1;stroke-linecap:round;stroke-linejoin:round;stroke-miterlimit:4;stroke-dasharray:none;stroke-dashoffset:0;stroke-opacity:1"
     id="rect6741"
     y="5.5"
     x="5.5"
     ry="5"
     rx="5"
     height="53"
     width="53" /><rect
     style="color:#000000;display:inline;overflow:visible;visibility:visible;opacity:0.5;fill:none;stroke:#020f66;stroke-width:1;stroke-linecap:round;stroke-linejoin:round;stroke-miterlimit:4;stroke-dasharray:none;stroke-dashoffset:0;stroke-opacity:1;marker:none;enable-background:accumulate"
     id="rect5505-21-9"
     y="4.5"
     x="4.5"
     ry="6"
     rx="6"
     height="55"
     width="55" /><path
     d="M 46.555666,16.444163 C 46.257973,16.146529 45.905225,16.000001 45.502203,16.000001 H 18.497707 c -0.407632,0 -0.755723,0.146528 -1.053432,0.444162 C 17.146564,16.741797 17,17.09438 17,17.49733 v 17.999973 c 0,1.341743 0.261068,2.674074 0.783206,3.997486 0.522136,1.318789 1.172518,2.490936 1.946569,3.516606 0.774035,1.021211 1.694641,2.019468 2.766401,2.990146 1.071761,0.970679 2.061071,1.772092 2.963364,2.413156 0.906859,0.641065 1.850377,1.245468 2.835105,1.817835 0.984727,0.572367 1.685492,0.956973 2.097696,1.15844 0.412221,0.201468 0.746573,0.361817 0.993892,0.46701 C 31.574031,51.949633 31.775558,52 31.9954,52 c 0.219841,0 0.421369,-0.04574 0.609166,-0.142018 0.251901,-0.109817 0.581671,-0.265542 0.998491,-0.46701 0.412253,-0.201467 1.112969,-0.590697 2.097696,-1.15844 0.984728,-0.572367 1.928246,-1.17677 2.835171,-1.817835 0.90676,-0.641064 1.896103,-1.446935 2.967864,-2.413156 1.07176,-0.970678 1.992366,-1.964477 2.766434,-2.990146 0.774067,-1.02567 1.419893,-2.193358 1.946542,-3.516606 0.522199,-1.318789 0.783134,-2.651284 0.783134,-3.997486 V 17.501909 c 0.0046,-0.407529 -0.146539,-0.760112 -0.444232,-1.057746 z M 42.999999,35.688394 C 42.999999,42.204394 32,47.500002 32,47.500002 V 20.000001 h 10.999999 z"
     fill="#ffffff"
     id="path3"
     style="opacity:0.150296;fill:#000000;fill-opacity:1;stroke:#000000;stroke-width:2;stroke-dasharray:none;stroke-opacity:1" /><path
     d="M 46.555666,16.444163 C 46.257973,16.146529 45.905225,16.000001 45.502203,16.000001 H 18.497707 c -0.407632,0 -0.755723,0.146528 -1.053432,0.444162 C 17.146564,16.741797 17,17.09438 17,17.49733 v 17.999973 c 0,1.341743 0.261068,2.674074 0.783206,3.997486 0.522136,1.318789 1.172518,2.490936 1.946569,3.516606 0.774035,1.021211 1.694641,2.019468 2.766401,2.990146 1.071761,0.970679 2.061071,1.772092 2.963364,2.413156 0.906859,0.641065 1.850377,1.245468 2.835105,1.817835 0.984727,0.572367 1.685492,0.956973 2.097696,1.15844 0.412221,0.201468 0.746573,0.361817 0.993892,0.46701 C 31.574031,51.949633 31.775558,52 31.9954,52 c 0.219841,0 0.421369,-0.04574 0.609166,-0.142018 0.251901,-0.109817 0.581671,-0.265542 0.998491,-0.46701 0.412253,-0.201467 1.112969,-0.590697 2.097696,-1.15844 0.984728,-0.572367 1.928246,-1.17677 2.835171,-1.817835 0.90676,-0.641064 1.896103,-1.446935 2.967864,-2.413156 1.07176,-0.970678 1.992366,-1.964477 2.766434,-2.990146 0.774067,-1.02567 1.419893,-2.193358 1.946542,-3.516606 0.522199,-1.318789 0.783134,-2.651284 0.783134,-3.997486 V 17.501909 c 0.0046,-0.407529 -0.146539,-0.760112 -0.444232,-1.057746 z M 42.999999,35.688394 C 42.999999,42.204394 32,47.500002 32,47.500002 V 20.000001 h 10.999999 z"
     fill="#ffffff"
     id="path2"
     style="opacity:0.150254;fill:#000000;fill-opacity:1;stroke:none;stroke-width:0.164986" /><path
     d="M 46.555666,15.444162 C 46.257973,15.146528 45.905225,15 45.502203,15 H 18.497707 c -0.407632,0 -0.755723,0.146528 -1.053432,0.444162 C 17.146564,15.741796 17,16.094379 17,16.497329 v 17.999973 c 0,1.341743 0.261068,2.674074 0.783206,3.997486 0.522136,1.318789 1.172518,2.490936 1.946569,3.516606 0.774035,1.021211 1.694641,2.019468 2.766401,2.990146 1.071761,0.970679 2.061071,1.772092 2.963364,2.413156 0.906859,0.641065 1.850377,1.245468 2.835105,1.817835 0.984727,0.572367 1.685492,0.956973 2.097696,1.15844 0.412221,0.201468 0.746573,0.361817 0.993892,0.46701 0.187798,0.09165 0.389325,0.142018 0.609167,0.142018 0.219841,0 0.421369,-0.04574 0.609166,-0.142018 0.251901,-0.109817 0.581671,-0.265542 0.998491,-0.46701 0.412253,-0.201467 1.112969,-0.590697 2.097696,-1.15844 0.984728,-0.572367 1.928246,-1.17677 2.835171,-1.817835 0.90676,-0.641064 1.896103,-1.446935 2.967864,-2.413156 1.07176,-0.970678 1.992366,-1.964477 2.766434,-2.990146 0.774067,-1.02567 1.419893,-2.193358 1.946542,-3.516606 0.522199,-1.318789 0.783134,-2.651284 0.783134,-3.997486 V 16.501908 c 0.0046,-0.407529 -0.146539,-0.760112 -0.444232,-1.057746 z M 42.999999,34.688393 C 42.999999,41.204393 32,46.500001 32,46.500001 V 19 h 10.999999 z"
     fill="#ffffff"
     id="path1"
     style="stroke-width:0.164986;fill:#abacae" /><path
     id="path5"
     style="stroke-width:0.164986"
     d="M 18.498047 15 C 18.090415 15 17.741068 15.145726 17.443359 15.443359 C 17.145649 15.740993 17 16.095097 17 16.498047 L 17 32.498047 C 17 33.839789 17.261066 35.17073 17.783203 36.494141 C 18.305339 37.812928 18.956419 38.98605 19.730469 40.011719 C 20.504503 41.032929 21.424335 42.031276 22.496094 43.001953 C 23.567854 43.972631 24.556692 44.772999 25.458984 45.414062 C 26.365842 46.055127 27.310195 46.660055 28.294922 47.232422 C 29.279648 47.804788 29.980375 48.189158 30.392578 48.390625 C 30.804799 48.592093 31.1394 48.752229 31.386719 48.857422 C 31.574517 48.949072 31.776252 49 31.996094 49 C 32.215935 49 32.417672 48.9537 32.605469 48.857422 C 32.857369 48.747605 33.186696 48.592093 33.603516 48.390625 C 34.015768 48.189158 34.716446 47.800164 35.701172 47.232422 C 36.685899 46.660055 37.628232 46.055127 38.535156 45.414062 C 39.441915 44.772999 40.432146 43.968173 41.503906 43.001953 C 42.575665 42.031276 43.495464 41.037387 44.269531 40.011719 C 45.043597 38.98605 45.690148 37.817387 46.216797 36.494141 C 46.738995 35.175353 47 33.844248 47 32.498047 L 47 16.501953 C 47.0046 16.094425 46.854333 15.740993 46.556641 15.443359 C 46.258948 15.145726 45.904975 15 45.501953 15 L 18.498047 15 z M 32 17 L 43 17 L 43 19 L 43 32.6875 L 43 34.6875 C 43 41.203493 32 46.5 32 46.5 L 32 44.5 L 32 19 L 32 17 z " /><path
     id="path7"
     style="stroke-width:0.164986"
     d="M 18.498047 15 C 18.090415 15 17.741068 15.145726 17.443359 15.443359 C 17.145649 15.740993 17 16.095097 17 16.498047 L 17 32.498047 C 17 33.839789 17.261066 35.17073 17.783203 36.494141 C 18.305339 37.812928 18.956419 38.98605 19.730469 40.011719 C 20.504503 41.032929 21.424335 42.031276 22.496094 43.001953 C 23.567854 43.972631 24.556692 44.772999 25.458984 45.414062 C 26.365842 46.055127 27.310195 46.660055 28.294922 47.232422 C 29.279648 47.804788 29.980375 48.189158 30.392578 48.390625 C 30.804799 48.592093 31.1394 48.752229 31.386719 48.857422 C 31.574517 48.949072 31.776252 49 31.996094 49 C 32.215935 49 32.417672 48.9537 32.605469 48.857422 C 32.857369 48.747605 33.186696 48.592093 33.603516 48.390625 C 34.015768 48.189158 34.716446 47.800164 35.701172 47.232422 C 36.685899 46.660055 37.628232 46.055127 38.535156 45.414062 C 39.441915 44.772999 40.432146 43.968173 41.503906 43.001953 C 42.575665 42.031276 43.495464 41.037387 44.269531 40.011719 C 45.043597 38.98605 45.690148 37.817387 46.216797 36.494141 C 46.738995 35.175353 47 33.844248 47 32.498047 L 47 16.501953 C 47.0046 16.094425 46.854333 15.740993 46.556641 15.443359 C 46.258948 15.145726 45.904975 15 45.501953 15 L 18.498047 15 z M 32 17 L 43 17 L 43 19 L 43 32.6875 L 43 34.6875 C 43 41.203493 32 46.5 32 46.5 L 32 44.5 L 32 19 L 32 17 z " /><path
     id="path8"
     style="fill:#d4d4d4;stroke-width:0.164986"
     d="M 18.498047 15 C 18.090415 15 17.741068 15.145726 17.443359 15.443359 C 17.145649 15.740993 17 16.095097 17 16.498047 L 17 33.498047 C 17 34.839789 17.261066 36.17073 17.783203 37.494141 C 18.305339 38.812928 18.956419 39.98605 19.730469 41.011719 C 20.504503 42.032929 21.424335 43.031276 22.496094 44.001953 C 23.567854 44.972631 24.556692 45.772999 25.458984 46.414062 C 26.365842 47.055127 27.310195 47.660055 28.294922 48.232422 C 29.279648 48.804788 29.980375 49.189158 30.392578 49.390625 C 30.804799 49.592093 31.1394 49.752229 31.386719 49.857422 C 31.574517 49.949072 31.776252 50 31.996094 50 C 32.215935 50 32.417672 49.9537 32.605469 49.857422 C 32.857369 49.747605 33.186696 49.592093 33.603516 49.390625 C 34.015768 49.189158 34.716446 48.800164 35.701172 48.232422 C 36.685899 47.660055 37.628232 47.055127 38.535156 46.414062 C 39.441915 45.772999 40.432146 44.968173 41.503906 44.001953 C 42.575665 43.031276 43.495464 42.037387 44.269531 41.011719 C 45.043597 39.98605 45.690148 38.817387 46.216797 37.494141 C 46.738995 36.175353 47 34.844248 47 33.498047 L 47 16.501953 C 47.0046 16.094425 46.854333 15.740993 46.556641 15.443359 C 46.258948 15.145726 45.904975 15 45.501953 15 L 18.498047 15 z M 32 18 L 43 18 L 43 19 L 43 33.6875 L 43 34.6875 C 43 41.203493 32 46.5 32 46.5 L 32 45.5 L 32 19 L 32 18 z " /><path
     id="path9"
     style="fill:#fafafa;stroke-width:0.164986"
     d="M 18.498047 15 C 18.090415 15 17.741068 15.145726 17.443359 15.443359 C 17.145649 15.740993 17 16.095097 17 16.498047 L 17 32.498047 C 17 33.839789 17.261066 35.17073 17.783203 36.494141 C 18.305339 37.812928 18.956419 38.98605 19.730469 40.011719 C 20.504503 41.032929 21.424335 42.031276 22.496094 43.001953 C 23.567854 43.972631 24.556692 44.772999 25.458984 45.414062 C 26.365842 46.055127 27.310195 46.660055 28.294922 47.232422 C 29.279648 47.804788 29.980375 48.189158 30.392578 48.390625 C 30.804799 48.592093 31.1394 48.752229 31.386719 48.857422 C 31.574517 48.949072 31.776252 49 31.996094 49 C 32.215935 49 32.417672 48.9537 32.605469 48.857422 C 32.857369 48.747605 33.186696 48.592093 33.603516 48.390625 C 34.015768 48.189158 34.716446 47.800164 35.701172 47.232422 C 36.685899 46.660055 37.628232 46.055127 38.535156 45.414062 C 39.441915 44.772999 40.432146 43.968173 41.503906 43.001953 C 42.575665 42.031276 43.495464 41.037387 44.269531 40.011719 C 45.043597 38.98605 45.690148 37.817387 46.216797 36.494141 C 46.738995 35.175353 47 33.844248 47 32.498047 L 47 16.501953 C 47.0046 16.094425 46.854333 15.740993 46.556641 15.443359 C 46.258948 15.145726 45.904975 15 45.501953 15 L 18.498047 15 z M 32 17 L 43 17 L 43 19 L 43 32.6875 L 43 34.6875 C 43 41.203493 32 46.5 32 46.5 L 32 44.5 L 32 19 L 32 17 z " /></svg>
