<?xml version="1.0" encoding="UTF-8" standalone="no"?>
<svg
   width="64"
   height="64"
   viewBox="0 0 64 64"
   fill="none"
   version="1.1"
   id="svg4"
   xml:space="preserve"
   xmlns:xlink="http://www.w3.org/1999/xlink"
   xmlns="http://www.w3.org/2000/svg"
   xmlns:svg="http://www.w3.org/2000/svg"><defs
     id="defs4"><linearGradient
       id="linearGradient15"><stop
         style="stop-color:#fafafa;stop-opacity:1;"
         offset="0"
         id="stop15" /><stop
         style="stop-color:#d4d4d4;stop-opacity:1;"
         offset="1"
         id="stop16" /></linearGradient><linearGradient
       id="linearGradient10"><stop
         style="stop-color:#175ddc;stop-opacity:1;"
         offset="0"
         id="stop10" /><stop
         style="stop-color:#1a41ac;stop-opacity:1;"
         offset="1"
         id="stop11" /></linearGradient><linearGradient
       id="linearGradient4"><stop
         style="stop-color:#ffffff;stop-opacity:1;"
         offset="0"
         id="stop4" /><stop
         style="stop-color:#ffffff;stop-opacity:0.30322614;"
         offset="0.01851852"
         id="stop6" /><stop
         style="stop-color:#ffffff;stop-opacity:0.14660208;"
         offset="0.5462963"
         id="stop7" /><stop
         style="stop-color:#ffffff;stop-opacity:0.4981986;"
         offset="1"
         id="stop5" /></linearGradient><linearGradient
       id="linearGradient3688-166-749-654"><stop
         offset="0"
         style="stop-color:#181818;stop-opacity:1"
         id="stop3088" /><stop
         offset="1"
         style="stop-color:#181818;stop-opacity:0"
         id="stop3090" /></linearGradient><linearGradient
       id="linearGradient3702-501-757-795"><stop
         offset="0"
         style="stop-color:#181818;stop-opacity:0"
         id="stop3100" /><stop
         offset="0.5"
         style="stop-color:#181818;stop-opacity:1"
         id="stop3102" /><stop
         offset="1"
         style="stop-color:#181818;stop-opacity:0"
         id="stop3104" /></linearGradient><radialGradient
       cx="4.9929786"
       cy="43.5"
       r="2.5"
       fx="4.9929786"
       fy="43.5"
       id="radialGradient3337-2-2"
       xlink:href="#linearGradient3688-166-749-654"
       gradientUnits="userSpaceOnUse"
       gradientTransform="matrix(2.4045407,0,0,0.99999998,28.985755,15.500001)" /><radialGradient
       cx="4.9929786"
       cy="43.5"
       r="2.5"
       fx="4.9929786"
       fy="43.5"
       id="radialGradient3339-1-4"
       xlink:href="#linearGradient3688-166-749-654"
       gradientUnits="userSpaceOnUse"
       gradientTransform="matrix(2.4045407,0,0,0.99999998,-35.014244,-102.5)" /><linearGradient
       x1="25.058096"
       y1="47.027729"
       x2="25.058096"
       y2="39.999443"
       id="linearGradient6394"
       xlink:href="#linearGradient3702-501-757-795"
       gradientUnits="userSpaceOnUse"
       gradientTransform="matrix(0.64285716,0,0,0.7142857,16.571429,27.928572)" /><style
       id="style1">.g{fill:#000;}.g,.h,.i{stroke-width:0px;}.h{fill:url(#e);}.i{fill:#fff;}</style><style
       id="style1-6">.cls-1{fill:#fff;}</style><style
       id="style1-67">.cls-1{fill:#fff;}</style><linearGradient
       xlink:href="#linearGradient4"
       id="linearGradient5"
       x1="32.5"
       y1="6"
       x2="32.5"
       y2="60"
       gradientUnits="userSpaceOnUse" /><linearGradient
       xlink:href="#linearGradient10"
       id="linearGradient11"
       x1="32.5"
       y1="5"
       x2="32.5"
       y2="61"
       gradientUnits="userSpaceOnUse" /><linearGradient
       xlink:href="#linearGradient15"
       id="linearGradient16"
       x1="41"
       y1="14"
       x2="41"
       y2="55"
       gradientUnits="userSpaceOnUse" /></defs><path
     style="opacity:1;fill:#abacae;fill-opacity:1;stroke:none;stroke-width:1;stroke-linecap:round;stroke-linejoin:round;stroke-dasharray:none;stroke-opacity:1"
     d="m 50.5,10.5 h -18 V 55.080078 C 33,55 40.725621,51.087172 43.769529,47.814295 46.955283,44.388902 50.5,41 50.5,35.5 Z"
     id="path11" /><g
     id="g866"><rect
       style="opacity:0.6;fill:url(#radialGradient3337-2-2);fill-opacity:1;stroke:none;stroke-width:1.06199"
       id="rect2801-5-5-7-9"
       y="56.5"
       x="41"
       height="5"
       width="6" /><rect
       style="opacity:0.6;fill:url(#radialGradient3339-1-4);fill-opacity:1;stroke:none;stroke-width:1.06199"
       id="rect3696-3-0-3-7"
       transform="scale(-1)"
       y="-61.5"
       x="-23"
       height="5"
       width="6" /><rect
       style="opacity:0.6;fill:url(#linearGradient6394);fill-opacity:1;stroke:none;stroke-width:0.679251"
       id="rect3700-5-6-8-4"
       y="56.5"
       x="23"
       height="5.0000005"
       width="18" /></g><path
     id="path12"
     style="opacity:1;fill:#d4d4d4;fill-opacity:1;stroke:none;stroke-width:1;stroke-linecap:round;stroke-linejoin:round;stroke-dasharray:none;stroke-opacity:1"
     d="M 32.5 13 L 32.5 55.080078 C 33 55 40.725626 51.087327 43.769531 47.814453 C 46.955282 44.389064 50.5 40.999994 50.5 35.5 L 50.5 13 L 32.5 13 z " /><path
     id="path13"
     style="opacity:1;fill:url(#linearGradient16);fill-opacity:1;stroke:none;stroke-width:1;stroke-linecap:round;stroke-linejoin:round;stroke-dasharray:none;stroke-opacity:1"
     d="M 32.5 14 L 32.5 55.080078 C 33 55 40.725626 51.087327 43.769531 47.814453 C 46.955282 44.389064 50.5 40.999994 50.5 35.5 L 50.5 14 L 32.5 14 z " /><path
     d="M 54,4.5 H 11 C 9.5,4.5 8.5,5.5 8.5,7 v 28.370728 c 0,2.124427 0.4177084,4.233951 1.2531286,6.329353 0.8354184,2.088083 1.8760294,3.943983 3.1145114,5.567959 1.238457,1.616919 2.711425,3.197492 4.426242,4.734399 1.714817,1.536908 3.297713,2.805812 4.741381,3.82083 1.450975,1.015019 2.960604,1.971991 4.536169,2.878238 1.575563,0.906249 2.696786,1.515209 3.356313,1.834197 0.659555,0.318991 1.194516,0.572877 1.590227,0.739433 0.300476,0.145113 0.622921,0.224862 0.974668,0.224862 0.351745,0 0.67419,-0.07242 0.974666,-0.224862 0.403041,-0.173877 0.930672,-0.420442 1.597585,-0.739433 0.659605,-0.318988 1.780751,-0.935269 3.356313,-1.834197 1.575566,-0.906247 3.085194,-1.863219 4.536274,-2.878238 1.450816,-1.015018 3.033765,-2.29098 4.748583,-3.82083 1.714814,-1.536907 3.187784,-3.110422 4.426294,-4.734399 1.238507,-1.623976 2.271828,-3.472816 3.114467,-5.567959 0.835518,-2.088082 1.253002,-4.197866 1.253014,-6.329353 L 56.5,7 C 56.5,5.5 55.5,4.5 54,4.5 Z M 49.5,35.603363 C 49.5,45.920363 33.5,53.5 33.5,53.5 v -42 h 16 z"
     fill="#ffffff"
     id="path1"
     style="opacity:1;fill:url(#linearGradient11);fill-opacity:1;stroke:#020f66;stroke-width:1;stroke-linejoin:round;stroke-dasharray:none;stroke-opacity:0.498039" /><path
     id="path5"
     style="stroke-width:0.164986"
     d="M 18.498047 15 C 18.090415 15 17.741068 15.145726 17.443359 15.443359 C 17.145649 15.740993 17 16.095097 17 16.498047 L 17 32.498047 C 17 33.839789 17.261066 35.17073 17.783203 36.494141 C 18.305339 37.812928 18.956419 38.98605 19.730469 40.011719 C 20.504503 41.032929 21.424335 42.031276 22.496094 43.001953 C 23.567854 43.972631 24.556692 44.772999 25.458984 45.414062 C 26.365842 46.055127 27.310195 46.660055 28.294922 47.232422 C 29.279648 47.804788 29.980375 48.189158 30.392578 48.390625 C 30.804799 48.592093 31.1394 48.752229 31.386719 48.857422 C 31.574517 48.949072 31.776252 49 31.996094 49 C 32.215935 49 32.417672 48.9537 32.605469 48.857422 C 32.857369 48.747605 33.186696 48.592093 33.603516 48.390625 C 34.015768 48.189158 34.716446 47.800164 35.701172 47.232422 C 36.685899 46.660055 37.628232 46.055127 38.535156 45.414062 C 39.441915 44.772999 40.432146 43.968173 41.503906 43.001953 C 42.575665 42.031276 43.495464 41.037387 44.269531 40.011719 C 45.043597 38.98605 45.690148 37.817387 46.216797 36.494141 C 46.738995 35.175353 47 33.844248 47 32.498047 L 47 16.501953 C 47.0046 16.094425 46.854333 15.740993 46.556641 15.443359 C 46.258948 15.145726 45.904975 15 45.501953 15 L 18.498047 15 z M 32 17 L 43 17 L 43 19 L 43 32.6875 L 43 34.6875 C 43 41.203493 32 46.5 32 46.5 L 32 44.5 L 32 19 L 32 17 z " /><path
     id="path7"
     style="stroke-width:0.164986"
     d="M 18.498047 15 C 18.090415 15 17.741068 15.145726 17.443359 15.443359 C 17.145649 15.740993 17 16.095097 17 16.498047 L 17 32.498047 C 17 33.839789 17.261066 35.17073 17.783203 36.494141 C 18.305339 37.812928 18.956419 38.98605 19.730469 40.011719 C 20.504503 41.032929 21.424335 42.031276 22.496094 43.001953 C 23.567854 43.972631 24.556692 44.772999 25.458984 45.414062 C 26.365842 46.055127 27.310195 46.660055 28.294922 47.232422 C 29.279648 47.804788 29.980375 48.189158 30.392578 48.390625 C 30.804799 48.592093 31.1394 48.752229 31.386719 48.857422 C 31.574517 48.949072 31.776252 49 31.996094 49 C 32.215935 49 32.417672 48.9537 32.605469 48.857422 C 32.857369 48.747605 33.186696 48.592093 33.603516 48.390625 C 34.015768 48.189158 34.716446 47.800164 35.701172 47.232422 C 36.685899 46.660055 37.628232 46.055127 38.535156 45.414062 C 39.441915 44.772999 40.432146 43.968173 41.503906 43.001953 C 42.575665 42.031276 43.495464 41.037387 44.269531 40.011719 C 45.043597 38.98605 45.690148 37.817387 46.216797 36.494141 C 46.738995 35.175353 47 33.844248 47 32.498047 L 47 16.501953 C 47.0046 16.094425 46.854333 15.740993 46.556641 15.443359 C 46.258948 15.145726 45.904975 15 45.501953 15 L 18.498047 15 z M 32 17 L 43 17 L 43 19 L 43 32.6875 L 43 34.6875 C 43 41.203493 32 46.5 32 46.5 L 32 44.5 L 32 19 L 32 17 z " /><path
     d="m 11,5.5 h 43 c 0.94444,0 1.5,0.5555603 1.5,1.5 v 28.371094 c -1.1e-5,1.996539 -0.391628,3.980716 -1.181641,5.955078 -0.812702,2.020707 -1.802418,3.791234 -2.980468,5.335937 -1.195708,1.567853 -2.624439,3.094821 -4.296875,4.59375 -1.694207,1.511462 -3.245546,2.761092 -4.65625,3.748047 -1.425727,0.997284 -2.910903,1.93768 -4.458985,2.828125 -1.572198,0.897009 -2.664282,1.496736 -3.292969,1.800781 -0.665062,0.318106 -1.172078,0.556177 -1.5625,0.72461 l -0.02734,0.01172 -0.0293,0.01367 C 32.865999,60.457732 32.698603,60.5 32.492187,60.5 c -0.191659,0 -0.369748,-0.04323 -0.539062,-0.125 l -0.02344,-0.01172 -0.02344,-0.0098 C 31.530117,60.1952 31.0214,59.953062 30.363281,59.634766 29.728411,59.327703 28.640955,58.737403 27.070312,57.833984 25.518775,56.941558 24.032767,56.001579 22.609375,55.005859 21.202888,54.016983 19.653315,52.774609 17.960937,51.257812 16.287916,49.758365 14.857989,48.223436 13.662109,46.662109 12.483319,45.116404 11.487994,43.338677 10.683594,41.328125 9.892428,39.343722 9.5,37.360085 9.5,35.371094 V 7 C 9.5,6.0555603 10.05556,5.5 11,5.5 Z m 21.5,5 v 44.580078 l 1.427734,-0.675781 c 1.703055,-0.806768 3.145616,-1.711742 3.96875,-2.226563 2.26788,-1.418419 5.163802,-3.48124 7.59961,-6.03125 1.220637,-1.277865 2.341408,-2.696728 3.208984,-4.226562 C 49.794588,39.998743 50.5,37.876919 50.5,35.603516 V 10.5 Z"
     fill="#ffffff"
     id="path3"
     style="opacity:0.49975518;fill:none;fill-opacity:1;stroke:url(#linearGradient5);stroke-width:1;stroke-linejoin:round;stroke-dasharray:none;stroke-opacity:1" /></svg>
