<?xml version="1.0" encoding="UTF-8" standalone="no"?>
<svg
   width="64"
   height="64"
   viewBox="0 0 64 64"
   fill="none"
   version="1.1"
   id="svg4"
   xml:space="preserve"
   xmlns:xlink="http://www.w3.org/1999/xlink"
   xmlns="http://www.w3.org/2000/svg"
   xmlns:svg="http://www.w3.org/2000/svg"><defs
     id="defs4"><linearGradient
       id="linearGradient909"><stop
         id="stop901"
         style="stop-color:#3a465a;stop-opacity:1;"
         offset="0" /><stop
         id="stop907"
         style="stop-color:#182027;stop-opacity:1;"
         offset="1" /></linearGradient><linearGradient
       y2="42.091705"
       x2="23.99999"
       y1="5.9093657"
       x1="23.99999"
       gradientTransform="matrix(1.4324324,0,0,1.4362832,-2.378375,-2.4707827)"
       gradientUnits="userSpaceOnUse"
       id="linearGradient3904"
       xlink:href="#linearGradient4270" /><linearGradient
       id="linearGradient4270"><stop
         id="stop4272"
         style="stop-color:#ffffff;stop-opacity:1"
         offset="0" /><stop
         id="stop4274"
         style="stop-color:#ffffff;stop-opacity:0.23529412"
         offset="0.0348749" /><stop
         id="stop4276"
         style="stop-color:#ffffff;stop-opacity:0.15686275"
         offset="0.96216321" /><stop
         id="stop4278"
         style="stop-color:#ffffff;stop-opacity:0.39215687"
         offset="1" /></linearGradient><linearGradient
       id="linearGradient3688-166-749-654"><stop
         offset="0"
         style="stop-color:#181818;stop-opacity:1"
         id="stop3088" /><stop
         offset="1"
         style="stop-color:#181818;stop-opacity:0"
         id="stop3090" /></linearGradient><linearGradient
       id="linearGradient3702-501-757-795"><stop
         offset="0"
         style="stop-color:#181818;stop-opacity:0"
         id="stop3100" /><stop
         offset="0.5"
         style="stop-color:#181818;stop-opacity:1"
         id="stop3102" /><stop
         offset="1"
         style="stop-color:#181818;stop-opacity:0"
         id="stop3104" /></linearGradient><radialGradient
       cx="4.9929786"
       cy="43.5"
       r="2.5"
       fx="4.9929786"
       fy="43.5"
       id="radialGradient3337-2-2"
       xlink:href="#linearGradient3688-166-749-654"
       gradientUnits="userSpaceOnUse"
       gradientTransform="matrix(2.4045407,0,0,0.99999998,41.985755,15.500001)" /><radialGradient
       cx="4.9929786"
       cy="43.5"
       r="2.5"
       fx="4.9929786"
       fy="43.5"
       id="radialGradient3339-1-4"
       xlink:href="#linearGradient3688-166-749-654"
       gradientUnits="userSpaceOnUse"
       gradientTransform="matrix(2.4045407,0,0,0.99999998,-22.014244,-102.5)" /><linearGradient
       x1="25.058096"
       y1="47.027729"
       x2="25.058096"
       y2="39.999443"
       id="linearGradient6394"
       xlink:href="#linearGradient3702-501-757-795"
       gradientUnits="userSpaceOnUse"
       gradientTransform="matrix(1.5714286,0,0,0.7142857,-5.7142853,27.928572)" /><linearGradient
       xlink:href="#linearGradient909"
       id="linearGradient899"
       x1="31.781376"
       y1="4.9266648"
       x2="31.781376"
       y2="59.148476"
       gradientUnits="userSpaceOnUse" /><linearGradient
       xlink:href="#linearGradient1"
       id="linearGradient118"
       gradientUnits="userSpaceOnUse"
       x1="25"
       y1="15"
       x2="25"
       y2="35"
       gradientTransform="matrix(1.333333,0,0,1.333333,-1.333322,-1.999995)" /><linearGradient
       id="linearGradient1"><stop
         style="stop-color:#c6262e;stop-opacity:1;"
         offset="0"
         id="stop4" /><stop
         style="stop-color:#f37329;stop-opacity:1;"
         offset="0.5"
         id="stop6" /><stop
         style="stop-color:#f9c440;stop-opacity:1;"
         offset="1"
         id="stop5" /></linearGradient><filter
       style="color-interpolation-filters:sRGB"
       id="filter7"
       x="-0.40594692"
       y="-0.13931779"
       width="1.8118938"
       height="1.2786356"><feGaussianBlur
         stdDeviation="0.30475772"
         id="feGaussianBlur7" /></filter><filter
       style="color-interpolation-filters:sRGB"
       id="filter7-2"
       x="-0.36570926"
       y="-0.13298518"
       width="1.7314185"
       height="1.2659704"><feGaussianBlur
         stdDeviation="0.30475772"
         id="feGaussianBlur7-9" /></filter><linearGradient
       xlink:href="#linearGradient1"
       id="linearGradient134"
       gradientUnits="userSpaceOnUse"
       gradientTransform="matrix(1.333333,0,0,1.333333,-65.333322,-1.999995)"
       x1="25"
       y1="15"
       x2="25"
       y2="35" /><filter
       style="color-interpolation-filters:sRGB"
       id="filter134"
       x="-0.047921829"
       y="-0.048363607"
       width="1.0958437"
       height="1.0967272"><feGaussianBlur
         stdDeviation="0.50378759"
         id="feGaussianBlur134" /></filter><linearGradient
       xlink:href="#linearGradient1"
       id="linearGradient135"
       gradientUnits="userSpaceOnUse"
       gradientTransform="matrix(1.333333,0,0,1.333333,-1.333322,-1.999995)"
       x1="25"
       y1="15"
       x2="25"
       y2="35" /><filter
       style="color-interpolation-filters:sRGB"
       id="filter135"
       x="-0.092279726"
       y="-0.032569315"
       width="1.1845595"
       height="1.0651386"><feGaussianBlur
         stdDeviation="0.23069932"
         id="feGaussianBlur135" /></filter></defs><g
     id="g866"><rect
       style="opacity:0.6;fill:url(#radialGradient3337-2-2);fill-opacity:1;stroke:none;stroke-width:1.06199"
       id="rect2801-5-5-7-9"
       y="56.5"
       x="54"
       height="5"
       width="6" /><rect
       style="opacity:0.6;fill:url(#radialGradient3339-1-4);fill-opacity:1;stroke:none;stroke-width:1.06199"
       id="rect3696-3-0-3-7"
       transform="scale(-1)"
       y="-61.5"
       x="-10"
       height="5"
       width="6" /><rect
       style="opacity:0.6;fill:url(#linearGradient6394);fill-opacity:1;stroke:none;stroke-width:1.06199"
       id="rect3700-5-6-8-4"
       y="56.5"
       x="10"
       height="5.0000005"
       width="44" /></g><rect
     width="55"
     height="55"
     rx="6"
     ry="6"
     x="4.5"
     y="4.5"
     id="rect5505-21-3-8-5-2-9"
     style="color:#000000;display:inline;overflow:visible;visibility:visible;fill:url(#linearGradient899);fill-opacity:1;fill-rule:nonzero;stroke:none;stroke-width:1;marker:none;enable-background:accumulate" /><path
     id="path136"
     style="opacity:0.149591;fill:#000000;fill-opacity:1;stroke:#000000;stroke-width:2;stroke-linejoin:round;stroke-dasharray:none;stroke-opacity:1"
     d="M 29,19 19,45 h 4.998047 L 32,25 40,45 h 5 L 35,19 Z m 3,11 -3,8 3,10 3,-10 z" /><path
     id="path137"
     style="opacity:0.149591;fill:#000000;fill-opacity:1;stroke:none;stroke-width:2;stroke-linejoin:round;stroke-dasharray:none;stroke-opacity:1"
     d="M 29,19 19,45 h 4.998047 L 32,25 40,45 h 5 L 35,19 Z m 3,11 -3,8 3,10 3,-10 z" /><path
     id="path134"
     style="fill:url(#linearGradient135);stroke:none;stroke-width:1.33333;stroke-linejoin:round;stroke-opacity:0.497364;filter:url(#filter134)"
     d="m 29,18 -0.384766,1 h 6.769532 L 35,18 Z m -0.769531,2 -0.384766,1 h 8.308594 l -0.384766,-1 z m -0.769531,2 -0.384766,1 h 9.847656 l -0.384766,-1 z m -0.769532,2 -0.382812,1 h 5.291015 L 32,24 Z M 32,24 l 0.400391,1 h 5.291015 l -0.382812,-1 z m -6.076172,2 -0.384766,1 h 5.259766 l 0.400391,-1 z m 6.876953,0 0.398438,1 h 5.261719 l -0.384766,-1 z m -7.646484,2 -0.384766,1 H 30 l 0.400391,-1 z M 33.599609,28 34,29 h 5.230469 L 38.845703,28 Z M 24.384766,30 24,31 h 5.199219 l 0.40039,-1 z m 10.015625,0 0.40039,1 H 40 l -0.384766,-1 z m -10.785157,2 -0.384765,1 h 5.167969 l 0.40039,-1 z m 11.583985,0 0.40039,1 h 5.169922 l -0.384765,-1 z m -12.353516,2 -0.384765,1 h 5.138671 L 28,34 Z M 36,34 l 0.400391,1 h 5.138671 l -0.384765,-1 z m -13.923828,2 -0.384766,1 h 5.107422 l 0.400391,-1 z m 14.724609,0 0.398438,1 h 5.109375 l -0.384766,-1 z m -15.492187,2 -0.384766,1 h 5.074219 l 0.400391,-1 z M 37.599609,38 38,39 h 5.076172 l -0.384766,-1 z m -17.060547,2 -0.384765,1 h 5.044922 l 0.398437,-1 z m 17.861329,0 0.40039,1 h 5.044922 l -0.384765,-1 z m -18.63086,2 -0.384765,1 h 5.013672 l 0.40039,-1 z m 19.429688,0 0.40039,1 h 5.015625 l -0.384765,-1 z" /><rect
     style="opacity:0.3;fill:none;stroke:url(#linearGradient3904);stroke-width:1;stroke-linecap:round;stroke-linejoin:round;stroke-miterlimit:4;stroke-dasharray:none;stroke-dashoffset:0;stroke-opacity:1"
     id="rect6741"
     y="5.428761"
     x="5.5"
     ry="5"
     rx="5"
     height="53.142479"
     width="53" /><rect
     style="color:#000000;display:inline;overflow:visible;visibility:visible;opacity:0.5;fill:none;stroke:#474747;stroke-width:1;stroke-linecap:round;stroke-linejoin:round;stroke-miterlimit:4;stroke-dasharray:none;stroke-dashoffset:0;stroke-opacity:1;marker:none;enable-background:accumulate"
     id="rect5505-21-9"
     y="4.5"
     x="4.5"
     ry="6"
     rx="6"
     height="55"
     width="55" /><path
     id="path115"
     style="fill:url(#linearGradient118);stroke:none;stroke-width:1.33333;stroke-linejoin:round;stroke-opacity:0.497364"
     d="M 29 18 L 28.615234 19 L 35.384766 19 L 35 18 L 29 18 z M 28.230469 20 L 27.845703 21 L 36.154297 21 L 35.769531 20 L 28.230469 20 z M 27.460938 22 L 27.076172 23 L 36.923828 23 L 36.539062 22 L 27.460938 22 z M 26.691406 24 L 26.308594 25 L 31.599609 25 L 32 24 L 26.691406 24 z M 32 24 L 32.400391 25 L 37.691406 25 L 37.308594 24 L 32 24 z M 25.923828 26 L 25.539062 27 L 30.798828 27 L 31.199219 26 L 25.923828 26 z M 32.800781 26 L 33.199219 27 L 38.460938 27 L 38.076172 26 L 32.800781 26 z M 25.154297 28 L 24.769531 29 L 30 29 L 30.400391 28 L 25.154297 28 z M 33.599609 28 L 34 29 L 39.230469 29 L 38.845703 28 L 33.599609 28 z M 24.384766 30 L 24 31 L 29.199219 31 L 29.599609 30 L 24.384766 30 z M 34.400391 30 L 34.800781 31 L 40 31 L 39.615234 30 L 34.400391 30 z M 23.615234 32 L 23.230469 33 L 28.398438 33 L 28.798828 32 L 23.615234 32 z M 35.199219 32 L 35.599609 33 L 40.769531 33 L 40.384766 32 L 35.199219 32 z M 22.845703 34 L 22.460938 35 L 27.599609 35 L 28 34 L 22.845703 34 z M 36 34 L 36.400391 35 L 41.539062 35 L 41.154297 34 L 36 34 z M 22.076172 36 L 21.691406 37 L 26.798828 37 L 27.199219 36 L 22.076172 36 z M 36.800781 36 L 37.199219 37 L 42.308594 37 L 41.923828 36 L 36.800781 36 z M 21.308594 38 L 20.923828 39 L 25.998047 39 L 26.398438 38 L 21.308594 38 z M 37.599609 38 L 38 39 L 43.076172 39 L 42.691406 38 L 37.599609 38 z M 20.539062 40 L 20.154297 41 L 25.199219 41 L 25.597656 40 L 20.539062 40 z M 38.400391 40 L 38.800781 41 L 43.845703 41 L 43.460938 40 L 38.400391 40 z M 19.769531 42 L 19.384766 43 L 24.398438 43 L 24.798828 42 L 19.769531 42 z M 39.199219 42 L 39.599609 43 L 44.615234 43 L 44.230469 42 L 39.199219 42 z " /><path
     id="path135"
     style="fill:#64baff;stroke:none;stroke-width:1.29346;stroke-linejoin:round;stroke-opacity:0.497364;filter:url(#filter135)"
     d="M 31.625 30 L 31.25 31 L 32.75 31 L 32.375 30 L 31.625 30 z M 30.875 32 L 30.5 33 L 33.5 33 L 33.125 32 L 30.875 32 z M 30.125 34 L 29.75 35 L 34.25 35 L 33.875 34 L 30.125 34 z M 29.375 36 L 29 37 L 35 37 L 34.625 36 L 29.375 36 z M 29.300781 38 L 29.599609 39 L 34.400391 39 L 34.699219 38 L 29.300781 38 z M 29.900391 40 L 30.199219 41 L 33.800781 41 L 34.099609 40 L 29.900391 40 z M 30.5 42 L 30.800781 43 L 33.199219 43 L 33.5 42 L 30.5 42 z M 31.099609 44 L 31.400391 45 L 32.599609 45 L 32.900391 44 L 31.099609 44 z M 31.699219 46 L 32 47 L 32.300781 46 L 31.699219 46 z " /><path
     id="path116"
     style="fill:#64baff;stroke:none;stroke-width:1.29346;stroke-linejoin:round;stroke-opacity:0.497364"
     d="M 31.625 30 L 31.25 31 L 32.75 31 L 32.375 30 L 31.625 30 z M 30.875 32 L 30.5 33 L 33.5 33 L 33.125 32 L 30.875 32 z M 30.125 34 L 29.75 35 L 34.25 35 L 33.875 34 L 30.125 34 z M 29.375 36 L 29 37 L 35 37 L 34.625 36 L 29.375 36 z M 29.300781 38 L 29.599609 39 L 34.400391 39 L 34.699219 38 L 29.300781 38 z M 29.900391 40 L 30.199219 41 L 33.800781 41 L 34.099609 40 L 29.900391 40 z M 30.5 42 L 30.800781 43 L 33.199219 43 L 33.5 42 L 30.5 42 z M 31.099609 44 L 31.400391 45 L 32.599609 45 L 32.900391 44 L 31.099609 44 z M 31.699219 46 L 32 47 L 32.300781 46 L 31.699219 46 z " /><path
     id="path117"
     style="fill:#ffffff;fill-opacity:1;stroke:none;stroke-width:0.8;stroke-linejoin:round;stroke-opacity:0.497364"
     d="M 31.625 30 L 31.25 31 L 32.75 31 L 32.375 30 L 31.625 30 z M 30.875 32 L 30.75 32.333984 L 30.976562 33 L 33.023438 33 L 33.25 32.333984 L 33.125 32 L 30.875 32 z M 31.318359 34 L 31.658203 35 L 32.341797 35 L 32.681641 34 L 31.318359 34 z " /><path
     id="path118"
     style="mix-blend-mode:normal;fill:#ffffff;fill-opacity:1;stroke:none;stroke-width:0.6;stroke-linejoin:round;stroke-opacity:0.497364;filter:url(#filter7)"
     d="M -11.54266 24 L -11.842953 24.75 L -11.242367 24.75 L -11.54266 24 z M -12.143246 25.5 L -12.44354 26.250001 L -10.641781 26.250001 L -10.942074 25.5 L -12.143246 25.5 z M -12.376157 27.000001 L -12.127133 27.750001 L -10.958188 27.750001 L -10.709164 27.000001 L -12.376157 27.000001 z M -11.876645 28.500001 L -11.626157 29.250001 L -11.459164 29.250001 L -11.208676 28.500001 L -11.876645 28.500001 z "
     transform="matrix(1.333333,0,0,1.333333,47.39021,-1.999992)" /><path
     id="path80"
     style="color:#000000;opacity:0.150384;fill:#000000;stroke-linecap:round;stroke-linejoin:round;-inkscape-stroke:none"
     d="M 8,7 A 0.5,0.5 0 0 0 7.5,7.5 0.5,0.5 0 0 0 8,8 H 56 A 0.5,0.5 0 0 0 56.5,7.5 0.5,0.5 0 0 0 56,7 Z M 6.5,9 A 0.5,0.5 0 0 0 6,9.5 0.5,0.5 0 0 0 6.5,10 h 51 A 0.5,0.5 0 0 0 58,9.5 0.5,0.5 0 0 0 57.5,9 Z m 0,2 A 0.5,0.5 0 0 0 6,11.5 0.5,0.5 0 0 0 6.5,12 h 51 A 0.5,0.5 0 0 0 58,11.5 0.5,0.5 0 0 0 57.5,11 Z m 0,2 A 0.5,0.5 0 0 0 6,13.5 0.5,0.5 0 0 0 6.5,14 h 51 A 0.5,0.5 0 0 0 58,13.5 0.5,0.5 0 0 0 57.5,13 Z m 0,2 A 0.5,0.5 0 0 0 6,15.5 0.5,0.5 0 0 0 6.5,16 h 51 A 0.5,0.5 0 0 0 58,15.5 0.5,0.5 0 0 0 57.5,15 Z m 0,2 A 0.5,0.5 0 0 0 6,17.5 0.5,0.5 0 0 0 6.5,18 h 51 A 0.5,0.5 0 0 0 58,17.5 0.5,0.5 0 0 0 57.5,17 Z m 0,2 A 0.5,0.5 0 0 0 6,19.5 0.5,0.5 0 0 0 6.5,20 h 51 A 0.5,0.5 0 0 0 58,19.5 0.5,0.5 0 0 0 57.5,19 Z m 0,2 A 0.5,0.5 0 0 0 6,21.5 0.5,0.5 0 0 0 6.5,22 h 51 A 0.5,0.5 0 0 0 58,21.5 0.5,0.5 0 0 0 57.5,21 Z m 0,2 A 0.5,0.5 0 0 0 6,23.5 0.5,0.5 0 0 0 6.5,24 h 51 A 0.5,0.5 0 0 0 58,23.5 0.5,0.5 0 0 0 57.5,23 Z m 0,2 A 0.5,0.5 0 0 0 6,25.5 0.5,0.5 0 0 0 6.5,26 h 51 A 0.5,0.5 0 0 0 58,25.5 0.5,0.5 0 0 0 57.5,25 Z m 0,2 A 0.5,0.5 0 0 0 6,27.5 0.5,0.5 0 0 0 6.5,28 h 51 A 0.5,0.5 0 0 0 58,27.5 0.5,0.5 0 0 0 57.5,27 Z m 0,2 A 0.5,0.5 0 0 0 6,29.5 0.5,0.5 0 0 0 6.5,30 h 51 A 0.5,0.5 0 0 0 58,29.5 0.5,0.5 0 0 0 57.5,29 Z m 0,2 A 0.5,0.5 0 0 0 6,31.5 0.5,0.5 0 0 0 6.5,32 h 51 A 0.5,0.5 0 0 0 58,31.5 0.5,0.5 0 0 0 57.5,31 Z m 0,2 A 0.5,0.5 0 0 0 6,33.5 0.5,0.5 0 0 0 6.5,34 h 51 A 0.5,0.5 0 0 0 58,33.5 0.5,0.5 0 0 0 57.5,33 Z m 0,2 A 0.5,0.5 0 0 0 6,35.5 0.5,0.5 0 0 0 6.5,36 h 51 A 0.5,0.5 0 0 0 58,35.5 0.5,0.5 0 0 0 57.5,35 Z m 0,2 A 0.5,0.5 0 0 0 6,37.5 0.5,0.5 0 0 0 6.5,38 h 51 A 0.5,0.5 0 0 0 58,37.5 0.5,0.5 0 0 0 57.5,37 Z m 0,2 A 0.5,0.5 0 0 0 6,39.5 0.5,0.5 0 0 0 6.5,40 h 51 A 0.5,0.5 0 0 0 58,39.5 0.5,0.5 0 0 0 57.5,39 Z m 0,2 A 0.5,0.5 0 0 0 6,41.5 0.5,0.5 0 0 0 6.5,42 h 51 A 0.5,0.5 0 0 0 58,41.5 0.5,0.5 0 0 0 57.5,41 Z m 0,2 A 0.5,0.5 0 0 0 6,43.5 0.5,0.5 0 0 0 6.5,44 h 51 A 0.5,0.5 0 0 0 58,43.5 0.5,0.5 0 0 0 57.5,43 Z m 0,2 A 0.5,0.5 0 0 0 6,45.5 0.5,0.5 0 0 0 6.5,46 h 51 A 0.5,0.5 0 0 0 58,45.5 0.5,0.5 0 0 0 57.5,45 Z m 0,2 A 0.5,0.5 0 0 0 6,47.5 0.5,0.5 0 0 0 6.5,48 h 51 A 0.5,0.5 0 0 0 58,47.5 0.5,0.5 0 0 0 57.5,47 Z m 0,2 A 0.5,0.5 0 0 0 6,49.5 0.5,0.5 0 0 0 6.5,50 h 51 A 0.5,0.5 0 0 0 58,49.5 0.5,0.5 0 0 0 57.5,49 Z m 0,2 A 0.5,0.5 0 0 0 6,51.5 0.5,0.5 0 0 0 6.5,52 h 51 A 0.5,0.5 0 0 0 58,51.5 0.5,0.5 0 0 0 57.5,51 Z m 0,2 A 0.5,0.5 0 0 0 6,53.5 0.5,0.5 0 0 0 6.5,54 h 51 A 0.5,0.5 0 0 0 58,53.5 0.5,0.5 0 0 0 57.5,53 Z m 0,2 A 0.5,0.5 0 0 0 6,55.5 0.5,0.5 0 0 0 6.5,56 h 51 A 0.5,0.5 0 0 0 58,55.5 0.5,0.5 0 0 0 57.5,55 Z M 9,57 A 0.5,0.5 0 0 0 8.5,57.5 0.5,0.5 0 0 0 9,58 H 55 A 0.5,0.5 0 0 0 55.5,57.5 0.5,0.5 0 0 0 55,57 Z" /><path
     style="fill:url(#linearGradient134);stroke:none;stroke-width:1.33333;stroke-linejoin:round;stroke-opacity:0.497364"
     d="m -35,18 h 6 l 10,26 h -5 l -8,-20 -8.002599,20 H -45 Z"
     id="path115-2" /><path
     style="fill:#64baff;stroke:none;stroke-width:1.29346;stroke-linejoin:round;stroke-opacity:0.497364"
     d="m -32,29 -3,8 3,10 3,-10 z"
     id="path116-7" /><path
     style="fill:#ffffff;fill-opacity:1;stroke:none;stroke-width:0.8;stroke-linejoin:round;stroke-opacity:0.497364"
     d="M -32,29 -33.25,32.333333 -32,36 l 1.25,-3.666667 z"
     id="path117-0" /><path
     style="mix-blend-mode:normal;fill:#ffffff;fill-opacity:1;stroke:none;stroke-width:0.6;stroke-linejoin:round;stroke-opacity:0.497364;filter:url(#filter7-2)"
     d="m -11.542658,24 -1,2.5 1,3 1,-3 z"
     id="path118-9"
     transform="matrix(1.333333,0,0,1.333333,-16.60979,-1.999992)" /></svg>
