<?xml version="1.0" encoding="UTF-8" standalone="no"?>
<svg
   width="64"
   height="64"
   viewBox="0 0 64 64"
   fill="none"
   version="1.1"
   id="svg4"
   xml:space="preserve"
   xmlns:xlink="http://www.w3.org/1999/xlink"
   xmlns="http://www.w3.org/2000/svg"
   xmlns:svg="http://www.w3.org/2000/svg"><defs
     id="defs4"><linearGradient
       id="linearGradient1"><stop
         style="stop-color:#7e1f7f;stop-opacity:1;"
         offset="0"
         id="stop1" /><stop
         style="stop-color:#4a154b;stop-opacity:1;"
         offset="1"
         id="stop2" /></linearGradient><linearGradient
       y2="42.05267"
       x2="37.962261"
       y1="5.8481112"
       x1="37.962261"
       gradientTransform="matrix(1.4324324,0,0,1.4362832,-2.378375,-2.3995437)"
       gradientUnits="userSpaceOnUse"
       id="linearGradient3904"
       xlink:href="#linearGradient4270" /><linearGradient
       id="linearGradient4270"><stop
         id="stop4272"
         style="stop-color:#ffffff;stop-opacity:1"
         offset="0" /><stop
         id="stop4274"
         style="stop-color:#ffffff;stop-opacity:0.23529412"
         offset="0.08653846" /><stop
         id="stop4276"
         style="stop-color:#ffffff;stop-opacity:0.15686275"
         offset="0.91346157" /><stop
         id="stop4278"
         style="stop-color:#ffffff;stop-opacity:0.39215687"
         offset="1" /></linearGradient><linearGradient
       id="linearGradient3688-166-749-654"><stop
         offset="0"
         style="stop-color:#181818;stop-opacity:1"
         id="stop3088" /><stop
         offset="1"
         style="stop-color:#181818;stop-opacity:0"
         id="stop3090" /></linearGradient><linearGradient
       id="linearGradient3702-501-757-795"><stop
         offset="0"
         style="stop-color:#181818;stop-opacity:0"
         id="stop3100" /><stop
         offset="0.5"
         style="stop-color:#181818;stop-opacity:1"
         id="stop3102" /><stop
         offset="1"
         style="stop-color:#181818;stop-opacity:0"
         id="stop3104" /></linearGradient><radialGradient
       cx="4.9929786"
       cy="43.5"
       r="2.5"
       fx="4.9929786"
       fy="43.5"
       id="radialGradient3337-2-2"
       xlink:href="#linearGradient3688-166-749-654"
       gradientUnits="userSpaceOnUse"
       gradientTransform="matrix(2.4045407,0,0,0.99999998,41.985755,15.500001)" /><radialGradient
       cx="4.9929786"
       cy="43.5"
       r="2.5"
       fx="4.9929786"
       fy="43.5"
       id="radialGradient3339-1-4"
       xlink:href="#linearGradient3688-166-749-654"
       gradientUnits="userSpaceOnUse"
       gradientTransform="matrix(2.4045407,0,0,0.99999998,-22.014244,-102.5)" /><linearGradient
       x1="25.058096"
       y1="47.027729"
       x2="25.058096"
       y2="39.999443"
       id="linearGradient6394"
       xlink:href="#linearGradient3702-501-757-795"
       gradientUnits="userSpaceOnUse"
       gradientTransform="matrix(1.5714286,0,0,0.7142857,-5.7142853,27.928572)" /><style
       id="style1">.g{fill:#000;}.g,.h,.i{stroke-width:0px;}.h{fill:url(#e);}.i{fill:#fff;}</style><style
       id="style1-6">.cls-1{fill:#fff;}</style><style
       id="style1-67">.cls-1{fill:#fff;}</style><linearGradient
       xlink:href="#linearGradient1"
       id="linearGradient3"
       x1="37"
       y1="4"
       x2="37"
       y2="60"
       gradientUnits="userSpaceOnUse" /></defs><g
     id="g866"><rect
       style="opacity:0.6;fill:url(#radialGradient3337-2-2);fill-opacity:1;stroke:none;stroke-width:1.06199"
       id="rect2801-5-5-7-9"
       y="56.5"
       x="54"
       height="5"
       width="6" /><rect
       style="opacity:0.6;fill:url(#radialGradient3339-1-4);fill-opacity:1;stroke:none;stroke-width:1.06199"
       id="rect3696-3-0-3-7"
       transform="scale(-1)"
       y="-61.5"
       x="-10"
       height="5"
       width="6" /><rect
       style="opacity:0.6;fill:url(#linearGradient6394);fill-opacity:1;stroke:none;stroke-width:1.06199"
       id="rect3700-5-6-8-4"
       y="56.5"
       x="10"
       height="5.0000005"
       width="44" /></g><rect
     width="55"
     height="55"
     rx="6"
     ry="6"
     x="4.5"
     y="4.5"
     id="rect5505-21-3-8-5-2-9"
     style="color:#000000;display:inline;overflow:visible;visibility:visible;fill:url(#linearGradient3);fill-opacity:1;fill-rule:nonzero;stroke:none;stroke-width:1;marker:none;enable-background:accumulate" /><path
     id="path29"
     style="fill:#000000;fill-opacity:1;stroke:#000000;stroke-width:2;stroke-linecap:round;stroke-linejoin:round;stroke-opacity:1;opacity:0.15014905"
     d="M 27 14 A 4 4 0 0 0 23 18 A 4 4 0 0 0 27 22 L 31 22 L 31 18 A 4 4 0 0 0 27 14 z M 36.929688 14 C 34.753081 14 33 15.784004 33 18 L 33 28 C 33 30.215996 34.753081 32 36.929688 32 L 37.070312 32 C 39.246919 32 41 30.215996 41 28 L 41 18 C 41 15.784004 39.246919 14 37.070312 14 L 36.929688 14 z M 17 24 C 14.784004 24 13 25.784004 13 28 C 13 30.215996 14.784004 32 17 32 L 27 32 C 29.215996 32 31 30.215996 31 28 C 31 25.784004 29.215996 24 27 24 L 17 24 z M 47 24 A 4 4 0 0 0 43 28 L 43 32 L 47 32 A 4 4 0 0 0 51 28 A 4 4 0 0 0 47 24 z M 17 34 A 4 4 0 0 0 13 38 A 4 4 0 0 0 17 42 A 4 4 0 0 0 21 38 L 21 34 L 17 34 z M 26.982422 34 C 24.7759 34 23 35.784004 23 38 L 23 48 C 23 50.215996 24.7759 52 26.982422 52 L 27.017578 52 C 29.224096 52 31 50.215996 31 48 L 31 38 C 31 35.784004 29.2241 34 27.017578 34 L 26.982422 34 z M 37 34 C 34.784004 34 33 35.749689 33 37.923828 L 33 38.076172 C 33 40.250311 34.784004 42 37 42 L 47 42 C 49.215996 42 51 40.250311 51 38.076172 L 51 37.923828 C 51 35.749689 49.215996 34 47 34 L 37 34 z M 33 44 L 33 48 A 4 4 0 0 0 37 52 A 4 4 0 0 0 41 48 A 4 4 0 0 0 37 44 L 33 44 z " /><path
     id="path26"
     style="fill:#000000;fill-opacity:1;stroke:none;stroke-width:2;stroke-linecap:round;stroke-linejoin:round;stroke-opacity:1;opacity:0.14952007"
     d="M 27 14 A 4 4 0 0 0 23 18 A 4 4 0 0 0 27 22 L 31 22 L 31 18 A 4 4 0 0 0 27 14 z M 36.929688 14 C 34.753081 14 33 15.784004 33 18 L 33 28 C 33 30.215996 34.753081 32 36.929688 32 L 37.070312 32 C 39.246919 32 41 30.215996 41 28 L 41 18 C 41 15.784004 39.246919 14 37.070312 14 L 36.929688 14 z M 17 24 C 14.784004 24 13 25.784004 13 28 C 13 30.215996 14.784004 32 17 32 L 27 32 C 29.215996 32 31 30.215996 31 28 C 31 25.784004 29.215996 24 27 24 L 17 24 z M 47 24 A 4 4 0 0 0 43 28 L 43 32 L 47 32 A 4 4 0 0 0 51 28 A 4 4 0 0 0 47 24 z M 17 34 A 4 4 0 0 0 13 38 A 4 4 0 0 0 17 42 A 4 4 0 0 0 21 38 L 21 34 L 17 34 z M 26.982422 34 C 24.7759 34 23 35.784004 23 38 L 23 48 C 23 50.215996 24.7759 52 26.982422 52 L 27.017578 52 C 29.224096 52 31 50.215996 31 48 L 31 38 C 31 35.784004 29.2241 34 27.017578 34 L 26.982422 34 z M 37 34 C 34.784004 34 33 35.749689 33 37.923828 L 33 38.076172 C 33 40.250311 34.784004 42 37 42 L 47 42 C 49.215996 42 51 40.250311 51 38.076172 L 51 37.923828 C 51 35.749689 49.215996 34 47 34 L 37 34 z M 33 44 L 33 48 A 4 4 0 0 0 37 52 A 4 4 0 0 0 41 48 A 4 4 0 0 0 37 44 L 33 44 z " /><rect
     style="opacity:0.3;fill:none;stroke:url(#linearGradient3904);stroke-width:1;stroke-linecap:round;stroke-linejoin:round;stroke-miterlimit:4;stroke-dasharray:none;stroke-dashoffset:0;stroke-opacity:1"
     id="rect6741"
     y="5.5"
     x="5.5"
     ry="5"
     rx="5"
     height="53"
     width="53" /><rect
     style="color:#000000;display:inline;overflow:visible;visibility:visible;opacity:0.5;fill:none;stroke:#130713;stroke-width:1;stroke-linecap:round;stroke-linejoin:round;stroke-miterlimit:4;stroke-dasharray:none;stroke-dashoffset:0;stroke-opacity:1;marker:none;enable-background:accumulate"
     id="rect5505-21-9"
     y="4.5"
     x="4.5"
     ry="6"
     rx="6"
     height="55"
     width="55" /><path
     id="rect7"
     style="fill:#1882d4;fill-opacity:1;stroke:none;stroke-width:2;stroke-linecap:round;stroke-linejoin:round;stroke-opacity:1"
     d="M -13 27 A 4 4 0 0 0 -17 23 A 4 4 0 0 0 -21 27 L -21 31 L -17 31 A 4 4 0 0 0 -13 27 z M -23 17 C -23 14.784002 -24.784002 13 -27 13 C -29.215998 13 -31 14.784002 -31 17 L -31 27 C -31 29.215998 -29.215998 31 -27 31 C -24.784002 31 -23 29.215998 -23 27 L -23 17 z "
     transform="rotate(-90)" /><path
     id="rect8"
     style="fill:#a91149;fill-opacity:1;stroke:none;stroke-width:2;stroke-linecap:round;stroke-linejoin:round;stroke-opacity:1"
     d="M -17 -33 A 4 4 0 0 0 -13 -37 A 4 4 0 0 0 -17 -41 A 4 4 0 0 0 -21 -37 L -21 -33 L -17 -33 z M -26.982422 -33 C -24.775898 -33 -23 -34.784002 -23 -37 L -23 -47 C -23 -49.215998 -24.775898 -51 -26.982422 -51 L -27.017578 -51 C -29.224102 -51 -31 -49.215998 -31 -47 L -31 -37 C -31 -34.784002 -29.224102 -33 -27.017578 -33 L -26.982422 -33 z "
     transform="scale(-1)" /><path
     id="rect9"
     style="fill:#c07b11;fill-opacity:1;stroke:none;stroke-width:2;stroke-linecap:round;stroke-linejoin:round;stroke-opacity:1"
     d="M 33 -37 C 33 -34.784002 34.749687 -33 36.923828 -33 L 37.076172 -33 C 39.250313 -33 41 -34.784002 41 -37 L 41 -47 C 41 -49.215998 39.250313 -51 37.076172 -51 L 36.923828 -51 C 34.749687 -51 33 -49.215998 33 -47 L 33 -37 z M 43 -33 L 47 -33 A 4 4 0 0 0 51 -37 A 4 4 0 0 0 47 -41 A 4 4 0 0 0 43 -37 L 43 -33 z "
     transform="rotate(90)" /><path
     id="rect6"
     style="fill:#1e7a45;fill-opacity:1;stroke:none;stroke-width:2;stroke-linecap:round;stroke-linejoin:round;stroke-opacity:1"
     d="M 36.929688 13 C 34.753079 13 33 14.784002 33 17 L 33 27 C 33 29.215998 34.753079 31 36.929688 31 L 37.070312 31 C 39.246921 31 41 29.215998 41 27 L 41 17 C 41 14.784002 39.246921 13 37.070312 13 L 36.929688 13 z M 47 23 A 4 4 0 0 0 43 27 L 43 31 L 47 31 A 4 4 0 0 0 51 27 A 4 4 0 0 0 47 23 z " /><path
     id="path18"
     style="fill:#1da1eb;fill-opacity:1;stroke:none;stroke-width:2;stroke-linecap:round;stroke-linejoin:round;stroke-opacity:1"
     d="M 27 13 A 4 4 0 0 0 23.056641 16.5 A 4 4 0 0 0 27 20 L 31 20 L 31 17 A 4 4 0 0 0 27 13 z M 17 23 C 14.953757 23 13.280214 24.522198 13.035156 26.5 C 13.280214 28.477802 14.953757 30 17 30 L 27 30 C 29.046243 30 30.719786 28.477802 30.964844 26.5 C 30.719786 24.522198 29.046243 23 27 23 L 17 23 z " /><path
     id="path19"
     style="fill:#1ab9ff;fill-opacity:1;stroke:none;stroke-width:2;stroke-linecap:round;stroke-linejoin:round;stroke-opacity:1"
     d="M 27 13 A 4 4 0 0 0 23.138672 16 A 4 4 0 0 0 27 19 L 31 19 L 31 17 A 4 4 0 0 0 27 13 z M 17 23 C 15.130167 23 13.571364 24.271887 13.128906 26 C 13.571364 27.728113 15.130167 29 17 29 L 27 29 C 28.869833 29 30.428636 27.728113 30.871094 26 C 30.428636 24.271887 28.869833 23 27 23 L 17 23 z " /><path
     id="path20"
     style="fill:#2e9850;fill-opacity:1;stroke:none;stroke-width:2;stroke-linecap:round;stroke-linejoin:round;stroke-opacity:1"
     d="M 36.929688 13 C 34.753081 13 33 14.784004 33 17 L 33 26 C 33 28.215996 34.753081 30 36.929688 30 L 37.070312 30 C 39.246919 30 41 28.215996 41 26 L 41 17 C 41 14.784004 39.246919 13 37.070312 13 L 36.929688 13 z M 47 23 A 4 4 0 0 0 43 27 L 43 30 L 47 30 A 4 4 0 0 0 50.955078 26.404297 A 4 4 0 0 0 50.955078 26.402344 A 4 4 0 0 0 47 23 z " /><path
     id="path21"
     style="fill:#41b658;fill-opacity:1;stroke:none;stroke-width:2;stroke-linecap:round;stroke-linejoin:round;stroke-opacity:1"
     d="M 36.929688 13 C 34.753081 13 33 14.784004 33 17 L 33 25 C 33 27.215996 34.753081 29 36.929688 29 L 37.070312 29 C 39.246919 29 41 27.215996 41 25 L 41 17 C 41 14.784004 39.246919 13 37.070312 13 L 36.929688 13 z M 47 23 A 4 4 0 0 0 43 27 L 43 29 L 47 29 A 4 4 0 0 0 50.867188 25.986328 A 4 4 0 0 0 47 23 z " /><path
     id="path22"
     style="fill:#e5a40f;fill-opacity:1;stroke:none;stroke-width:2;stroke-linecap:round;stroke-linejoin:round;stroke-opacity:1"
     d="M 37 33 C 34.930157 33 33.239699 34.526934 33.025391 36.5 C 33.239699 38.473066 34.930157 40 37 40 L 47 40 C 49.069843 40 50.760301 38.473066 50.974609 36.5 C 50.760301 34.526934 49.069843 33 47 33 L 37 33 z M 33 43 L 33 46 A 4 4 0 0 0 37 50 A 4 4 0 0 0 40.955078 46.404297 A 4 4 0 0 0 40.955078 46.402344 A 4 4 0 0 0 37 43 L 33 43 z " /><path
     id="path23"
     style="fill:#fcc003;fill-opacity:1;stroke:none;stroke-width:2;stroke-linecap:round;stroke-linejoin:round;stroke-opacity:1"
     d="M 37 33 C 35.109136 33 33.537091 34.275472 33.115234 36 C 33.537091 37.724528 35.109136 39 37 39 L 47 39 C 48.890864 39 50.462909 37.724528 50.884766 36 C 50.462909 34.275472 48.890864 33 47 33 L 37 33 z M 33 43 L 33 45 A 4 4 0 0 0 37 49 A 4 4 0 0 0 40.867188 45.986328 A 4 4 0 0 0 37 43 L 33 43 z " /><path
     id="path24"
     style="fill:#c40d55;fill-opacity:1;stroke:none;stroke-width:2;stroke-linecap:round;stroke-linejoin:round;stroke-opacity:1"
     d="M 17 33 A 4 4 0 0 0 13.056641 36.5 A 4 4 0 0 0 17 40 A 4 4 0 0 0 21 36 L 21 33 L 17 33 z M 26.982422 33 C 24.7759 33 23 34.784004 23 37 L 23 46 C 23 48.215996 24.7759 50 26.982422 50 L 27.017578 50 C 29.224096 50 31 48.215996 31 46 L 31 37 C 31 34.784004 29.2241 33 27.017578 33 L 26.982422 33 z " /><path
     id="path25"
     style="fill:#e3066a;fill-opacity:1;stroke:none;stroke-width:2;stroke-linecap:round;stroke-linejoin:round;stroke-opacity:1"
     d="M 17 33 A 4 4 0 0 0 13.138672 36 A 4 4 0 0 0 17 39 A 4 4 0 0 0 21 35 L 21 33 L 17 33 z M 26.982422 33 C 24.7759 33 23 34.784004 23 37 L 23 45 C 23 47.215996 24.7759 49 26.982422 49 L 27.017578 49 C 29.224096 49 31 47.215996 31 45 L 31 37 C 31 34.784004 29.2241 33 27.017578 33 L 26.982422 33 z " /></svg>
