<?xml version="1.0" encoding="UTF-8" standalone="no"?>
<svg
   width="64"
   height="64"
   viewBox="0 0 64 64"
   fill="none"
   version="1.1"
   id="svg4"
   xml:space="preserve"
   xmlns:xlink="http://www.w3.org/1999/xlink"
   xmlns="http://www.w3.org/2000/svg"
   xmlns:svg="http://www.w3.org/2000/svg"><defs
     id="defs4"><linearGradient
       y2="42.05267"
       x2="37.962261"
       y1="5.8481112"
       x1="37.962261"
       gradientTransform="matrix(1.4324324,0,0,1.4362832,-2.378375,-2.3995437)"
       gradientUnits="userSpaceOnUse"
       id="linearGradient3904"
       xlink:href="#linearGradient4270" /><linearGradient
       id="linearGradient4270"><stop
         id="stop4272"
         style="stop-color:#ffffff;stop-opacity:1"
         offset="0" /><stop
         id="stop4274"
         style="stop-color:#ffffff;stop-opacity:0.23529412"
         offset="0.08653846" /><stop
         id="stop4276"
         style="stop-color:#ffffff;stop-opacity:0.15686275"
         offset="0.91346157" /><stop
         id="stop4278"
         style="stop-color:#ffffff;stop-opacity:0.39215687"
         offset="1" /></linearGradient><linearGradient
       id="linearGradient3688-166-749-654"><stop
         offset="0"
         style="stop-color:#181818;stop-opacity:1"
         id="stop3088" /><stop
         offset="1"
         style="stop-color:#181818;stop-opacity:0"
         id="stop3090" /></linearGradient><linearGradient
       id="linearGradient3702-501-757-795"><stop
         offset="0"
         style="stop-color:#181818;stop-opacity:0"
         id="stop3100" /><stop
         offset="0.5"
         style="stop-color:#181818;stop-opacity:1"
         id="stop3102" /><stop
         offset="1"
         style="stop-color:#181818;stop-opacity:0"
         id="stop3104" /></linearGradient><radialGradient
       cx="4.9929786"
       cy="43.5"
       r="2.5"
       fx="4.9929786"
       fy="43.5"
       id="radialGradient3337-2-2"
       xlink:href="#linearGradient3688-166-749-654"
       gradientUnits="userSpaceOnUse"
       gradientTransform="matrix(2.4045407,0,0,0.99999998,41.985755,15.500001)" /><radialGradient
       cx="4.9929786"
       cy="43.5"
       r="2.5"
       fx="4.9929786"
       fy="43.5"
       id="radialGradient3339-1-4"
       xlink:href="#linearGradient3688-166-749-654"
       gradientUnits="userSpaceOnUse"
       gradientTransform="matrix(2.4045407,0,0,0.99999998,-22.014244,-102.5)" /><linearGradient
       x1="25.058096"
       y1="47.027729"
       x2="25.058096"
       y2="39.999443"
       id="linearGradient6394"
       xlink:href="#linearGradient3702-501-757-795"
       gradientUnits="userSpaceOnUse"
       gradientTransform="matrix(1.5714286,0,0,0.7142857,-5.7142853,27.928572)" /><linearGradient
       xlink:href="#linearGradient2"
       id="linearGradient899"
       x1="31.781376"
       y1="4.9266648"
       x2="31.781376"
       y2="59.148476"
       gradientUnits="userSpaceOnUse" /><linearGradient
       id="linearGradient2"><stop
         style="stop-color:#5865f2;stop-opacity:1;"
         offset="0"
         id="stop3-3" /><stop
         style="stop-color:#1f30f4;stop-opacity:1;"
         offset="1"
         id="stop4-5" /></linearGradient><style
       id="style1">.g{fill:#000;}.g,.h,.i{stroke-width:0px;}.h{fill:url(#e);}.i{fill:#fff;}</style><style
       id="style1-6">.cls-1{fill:#fff;}</style><style
       id="style1-67">.cls-1{fill:#fff;}</style></defs><g
     id="g866"><rect
       style="opacity:0.6;fill:url(#radialGradient3337-2-2);fill-opacity:1;stroke:none;stroke-width:1.06199"
       id="rect2801-5-5-7-9"
       y="56.5"
       x="54"
       height="5"
       width="6" /><rect
       style="opacity:0.6;fill:url(#radialGradient3339-1-4);fill-opacity:1;stroke:none;stroke-width:1.06199"
       id="rect3696-3-0-3-7"
       transform="scale(-1)"
       y="-61.5"
       x="-10"
       height="5"
       width="6" /><rect
       style="opacity:0.6;fill:url(#linearGradient6394);fill-opacity:1;stroke:none;stroke-width:1.06199"
       id="rect3700-5-6-8-4"
       y="56.5"
       x="10"
       height="5.0000005"
       width="44" /></g><rect
     width="55"
     height="55"
     rx="6"
     ry="6"
     x="4.5"
     y="4.5"
     id="rect5505-21-3-8-5-2-9"
     style="color:#000000;display:inline;overflow:visible;visibility:visible;fill:url(#linearGradient899);fill-opacity:1;fill-rule:nonzero;stroke:none;stroke-width:1;marker:none;enable-background:accumulate" /><path
     class="cls-1"
     d="M 45.883809,20.380928 A 33.081574,33.081574 0 0 0 37.631505,17.842 a 22.671024,22.671024 0 0 0 -1.057099,2.148808 30.731413,30.731413 0 0 0 -9.15839,0 22.768555,22.768555 0 0 0 -1.0571,-2.148808 33.314388,33.314388 0 0 0 -8.258597,2.54522 c -5.222577,7.726899 -6.638336,15.261885 -5.930457,22.689901 v 0 a 33.264049,33.264049 0 0 0 10.121106,5.081003 24.445443,24.445443 0 0 0 2.167685,-3.495352 21.525832,21.525832 0 0 1 -3.413554,-1.629696 c 0.286299,-0.207645 0.566304,-0.421581 0.836871,-0.629226 a 23.775317,23.775317 0 0 0 20.235919,0 c 0.273714,0.223375 0.553719,0.437312 0.836871,0.629226 a 21.607632,21.607632 0 0 1 -3.419845,1.632842 24.225213,24.225213 0 0 0 2.167685,3.492206 33.113035,33.113035 0 0 0 10.127398,-5.077856 v 0 C 52.660576,34.466159 50.411092,27.000389 45.883809,20.380928 Z M 25.3553,38.508939 c -1.972625,0 -3.60232,-1.79015 -3.60232,-3.992442 0,-2.202292 1.573065,-4.008171 3.596028,-4.008171 2.022962,0 3.640074,1.805879 3.605466,4.008171 -0.03461,2.202292 -1.588796,3.992442 -3.599174,3.992442 z m 13.28926,0 c -1.975771,0 -3.599175,-1.79015 -3.599175,-3.992442 0,-2.202292 1.573066,-4.008171 3.599175,-4.008171 2.026108,0 3.630636,1.805879 3.596029,4.008171 -0.03461,2.202292 -1.585651,3.992442 -3.596029,3.992442 z"
     id="path2"
     style="opacity:0.15059506;fill:#000000;fill-opacity:1;stroke-width:2;stroke:#000000;stroke-opacity:1;stroke-dasharray:none;stroke-linejoin:round" /><path
     class="cls-1"
     d="M 45.883809,20.380928 A 33.081574,33.081574 0 0 0 37.631505,17.842 a 22.671024,22.671024 0 0 0 -1.057099,2.148808 30.731413,30.731413 0 0 0 -9.15839,0 22.768555,22.768555 0 0 0 -1.0571,-2.148808 33.314388,33.314388 0 0 0 -8.258597,2.54522 c -5.222577,7.726899 -6.638336,15.261885 -5.930457,22.689901 v 0 a 33.264049,33.264049 0 0 0 10.121106,5.081003 24.445443,24.445443 0 0 0 2.167685,-3.495352 21.525832,21.525832 0 0 1 -3.413554,-1.629696 c 0.286299,-0.207645 0.566304,-0.421581 0.836871,-0.629226 a 23.775317,23.775317 0 0 0 20.235919,0 c 0.273714,0.223375 0.553719,0.437312 0.836871,0.629226 a 21.607632,21.607632 0 0 1 -3.419845,1.632842 24.225213,24.225213 0 0 0 2.167685,3.492206 33.113035,33.113035 0 0 0 10.127398,-5.077856 v 0 C 52.660576,34.466159 50.411092,27.000389 45.883809,20.380928 Z M 25.3553,38.508939 c -1.972625,0 -3.60232,-1.79015 -3.60232,-3.992442 0,-2.202292 1.573065,-4.008171 3.596028,-4.008171 2.022962,0 3.640074,1.805879 3.605466,4.008171 -0.03461,2.202292 -1.588796,3.992442 -3.599174,3.992442 z m 13.28926,0 c -1.975771,0 -3.599175,-1.79015 -3.599175,-3.992442 0,-2.202292 1.573066,-4.008171 3.599175,-4.008171 2.026108,0 3.630636,1.805879 3.596029,4.008171 -0.03461,2.202292 -1.585651,3.992442 -3.596029,3.992442 z"
     id="path1"
     style="opacity:0.15047119;fill:#000000;fill-opacity:1;stroke-width:0.314613" /><rect
     style="opacity:0.3;fill:none;stroke:url(#linearGradient3904);stroke-width:1;stroke-linecap:round;stroke-linejoin:round;stroke-miterlimit:4;stroke-dasharray:none;stroke-dashoffset:0;stroke-opacity:1"
     id="rect6741"
     y="5.5"
     x="5.5"
     ry="5"
     rx="5"
     height="53"
     width="53" /><rect
     style="color:#000000;display:inline;overflow:visible;visibility:visible;opacity:0.5;fill:none;stroke:#0a0f9f;stroke-width:1;stroke-linecap:round;stroke-linejoin:round;stroke-miterlimit:4;stroke-dasharray:none;stroke-dashoffset:0;stroke-opacity:1;marker:none;enable-background:accumulate"
     id="rect5505-21-9"
     y="4.5"
     x="4.5"
     ry="6"
     rx="6"
     height="55"
     width="55" /><path
     class="cls-1"
     d="m 45.883807,19.380865 c -2.628042,-1.203181 -5.402433,-2.056759 -8.252303,-2.538928 -0.389977,0.697146 -0.742835,1.414416 -1.057099,2.148808 -3.035661,-0.457441 -6.12273,-0.457441 -9.158391,0 -0.314428,-0.734317 -0.667283,-1.451578 -1.057099,-2.148808 -2.851697,0.486241 -5.627915,1.341844 -8.258598,2.54522 -5.222576,7.726901 -6.638334,15.261886 -5.930458,22.689904 v 0 c 3.058473,2.259735 6.481777,3.978303 10.121106,5.081002 0.819468,-1.102155 2.248095,-3.308082 2.871184,-4.532024 4.375218,1.426593 8.85141,1.874326 13.575847,-0.08451 0.622326,1.223376 2.144413,3.515927 2.964602,4.616485 3.642436,-1.098274 7.068366,-2.816028 10.127399,-5.077856 v 0 c 0.83058,-8.61411 -1.418902,-16.07988 -5.94619,-22.699342 z M 25.3553,37.508877 c -1.972624,0 -3.602325,-1.790149 -3.602325,-3.992442 0,-2.202292 1.573069,-4.008171 3.596032,-4.008171 2.022962,0 3.640075,1.805879 3.605468,4.008171 -0.0346,2.202293 -1.5888,3.992442 -3.599175,3.992442 z m 13.289257,0 c -1.975767,0 -3.599175,-1.790149 -3.599175,-3.992442 0,-2.202292 1.573069,-4.008171 3.599175,-4.008171 2.026112,0 3.630637,1.805879 3.596031,4.008171 -0.0346,2.202293 -1.58565,3.992442 -3.596031,3.992442 z"
     id="path1-2"
     style="fill:#abacae;stroke-width:0.314613" /><path
     id="path3"
     style="fill:#d4d4d4;stroke-width:0.314613"
     class="cls-1"
     d="m 26.359375,16.841797 c -2.852082,0.486047 -5.628699,1.341552 -8.259766,2.544922 -4.235604,6.266658 -5.966178,12.407289 -6.091797,18.466797 0.0086,1.076957 0.05993,2.150412 0.16211,3.222656 3.058397,2.260097 6.4817,3.979015 10.121094,5.082031 0.628885,-0.858252 2.155541,-3.627599 2.667366,-4.560405 4.70599,1.558996 9.301906,1.501314 13.986037,0.115415 0.511429,0.931791 2.129444,3.588356 2.758706,4.444991 3.642298,-1.098404 7.068075,-2.816248 10.126953,-5.078125 0.0943,-0.978017 0.142135,-1.939818 0.158203,-2.888672 -0.08227,-6.997521 -2.272025,-13.208428 -6.103515,-18.810547 -2.628543,-1.203361 -5.403482,-2.056986 -8.253907,-2.539062 -0.389809,0.697035 -0.742514,1.41418 -1.05664,2.148437 -3.035599,-0.457423 -6.122604,-0.457423 -9.158203,0 -0.314291,-0.734181 -0.666992,-1.451318 -1.056641,-2.148438 z m -1.009766,11.666015 c 2.02296,0 3.640076,1.805523 3.605469,4.007813 -0.0024,0.151882 -0.01476,0.301709 -0.03125,0.449219 0.02024,0.180945 0.0342,0.363214 0.03125,0.550781 -0.0346,2.202291 -1.589236,3.994141 -3.599609,3.994141 -1.972622,0 -3.601563,-1.79185 -3.601563,-3.994141 0,-0.169999 0.01107,-0.335374 0.0293,-0.5 -0.01871,-0.163958 -0.0293,-0.330533 -0.0293,-0.5 0,-2.20229 1.572742,-4.007813 3.595703,-4.007813 z m 13.294922,0 c 2.02611,0 3.630309,1.805523 3.595703,4.007813 -0.0024,0.151872 -0.01283,0.301719 -0.0293,0.449219 0.02008,0.180945 0.03224,0.363214 0.0293,0.550781 -0.0346,2.202291 -1.585324,3.994141 -3.595703,3.994141 -1.975765,0 -3.599609,-1.79185 -3.599609,-3.994141 0,-0.169999 0.01302,-0.335374 0.03125,-0.5 -0.01865,-0.163958 -0.03125,-0.330533 -0.03125,-0.5 0,-2.20229 1.573505,-4.007813 3.599609,-4.007813 z" /><path
     id="path4"
     style="fill:#ffffff;stroke-width:0.314613"
     class="cls-1"
     d="m 26.359375,16.841797 c -2.852082,0.486047 -5.628699,1.341552 -8.259766,2.544922 -4.168775,6.167783 -5.906341,12.213261 -6.080078,18.179687 0.02349,0.83847 0.07076,1.674125 0.150391,2.509766 3.058397,2.260097 6.4817,3.979015 10.121094,5.082031 0.448741,-0.607163 0.869114,-1.234789 1.259765,-1.880859 l 0.558594,-0.992188 c 0.119565,-0.205968 0.236114,-0.413673 0.349609,-0.623047 -1.183616,-0.44173 -2.326047,-0.986803 -3.414062,-1.628906 0.286296,-0.207646 0.567327,-0.421261 0.83789,-0.628906 6.408225,3.013354 13.826151,3.013354 20.234376,0 0.273713,0.223376 0.554738,0.436992 0.83789,0.628906 -1.089953,0.643382 -2.234327,1.189754 -3.419922,1.632813 0.113485,0.208734 0.230034,0.415788 0.34961,0.621093 l 0.558593,0.992188 c 0.390435,0.645577 0.810815,1.272563 1.259766,1.878906 3.642298,-1.098404 7.068075,-2.816248 10.126953,-5.078125 0.08478,-0.879293 0.128941,-1.743925 0.150391,-2.599609 -0.217651,-6.708832 -2.394092,-12.68739 -6.095703,-18.09961 -2.628543,-1.203361 -5.403482,-2.056986 -8.253907,-2.539062 -0.389809,0.697035 -0.742514,1.41418 -1.05664,2.148437 -3.035599,-0.457423 -6.122604,-0.457423 -9.158203,0 -0.314291,-0.734181 -0.666992,-1.451318 -1.056641,-2.148437 z m -1.009766,10.666015 c 2.02296,0 3.640076,1.805523 3.605469,4.007813 -0.0051,0.327294 -0.04841,0.644653 -0.117187,0.949219 0.07882,0.335831 0.122904,0.686957 0.117187,1.050781 -0.0346,2.202291 -1.589236,3.994141 -3.599609,3.994141 -1.972622,0 -3.601563,-1.79185 -3.601563,-3.994141 0,-0.347673 0.0432,-0.683491 0.117188,-1.005859 -0.07439,-0.31817 -0.117188,-0.650699 -0.117188,-0.994141 0,-2.20229 1.572742,-4.007812 3.595703,-4.007813 z m 13.294922,0 c 2.02611,0 3.630309,1.805523 3.595703,4.007813 -0.0051,0.325865 -0.04714,0.641959 -0.115234,0.945313 0.07884,0.33694 0.120972,0.689523 0.115234,1.054687 -0.0346,2.202291 -1.585324,3.994141 -3.595703,3.994141 -1.975765,0 -3.599609,-1.79185 -3.599609,-3.994141 0,-0.348269 0.04294,-0.684944 0.117187,-1.007813 -0.0738,-0.317481 -0.117187,-0.649566 -0.117187,-0.992187 0,-2.20229 1.573505,-4.007812 3.599609,-4.007813 z" /></svg>
