<?xml version="1.0" encoding="UTF-8" standalone="no"?>
<svg
   width="64"
   height="64"
   viewBox="0 0 64 64"
   fill="none"
   version="1.1"
   id="svg4"
   xml:space="preserve"
   xmlns:xlink="http://www.w3.org/1999/xlink"
   xmlns="http://www.w3.org/2000/svg"
   xmlns:svg="http://www.w3.org/2000/svg"><defs
     id="defs4"><linearGradient
       id="linearGradient4"><stop
         style="stop-color:#fafafa;stop-opacity:1;"
         offset="0"
         id="stop9" /><stop
         style="stop-color:#d4d4d4;stop-opacity:1;"
         offset="1"
         id="stop10" /></linearGradient><linearGradient
       id="linearGradient2"><stop
         style="stop-color:#1a1a1a;stop-opacity:1;"
         offset="0"
         id="stop7" /><stop
         style="stop-color:#000000;stop-opacity:1;"
         offset="1"
         id="stop8" /></linearGradient><linearGradient
       y2="42.45039"
       x2="23.999998"
       y1="5.5495896"
       x1="23.999998"
       gradientTransform="matrix(1.4324324,0,0,1.4362832,-2.378375,-2.4707827)"
       gradientUnits="userSpaceOnUse"
       id="linearGradient3904"
       xlink:href="#linearGradient4270" /><linearGradient
       id="linearGradient4270"><stop
         id="stop4272"
         style="stop-color:#ffffff;stop-opacity:1"
         offset="0" /><stop
         id="stop4274"
         style="stop-color:#ffffff;stop-opacity:0.23529412"
         offset="0.09526563" /><stop
         id="stop4276"
         style="stop-color:#ffffff;stop-opacity:0.15686275"
         offset="0.90566039" /><stop
         id="stop4278"
         style="stop-color:#ffffff;stop-opacity:0.39215687"
         offset="1" /></linearGradient><linearGradient
       id="linearGradient3688-166-749-654"><stop
         offset="0"
         style="stop-color:#181818;stop-opacity:1"
         id="stop3088" /><stop
         offset="1"
         style="stop-color:#181818;stop-opacity:0"
         id="stop3090" /></linearGradient><linearGradient
       id="linearGradient3702-501-757-795"><stop
         offset="0"
         style="stop-color:#181818;stop-opacity:0"
         id="stop3100" /><stop
         offset="0.5"
         style="stop-color:#181818;stop-opacity:1"
         id="stop3102" /><stop
         offset="1"
         style="stop-color:#181818;stop-opacity:0"
         id="stop3104" /></linearGradient><radialGradient
       cx="4.9929786"
       cy="43.5"
       r="2.5"
       fx="4.9929786"
       fy="43.5"
       id="radialGradient3337-2-2"
       xlink:href="#linearGradient3688-166-749-654"
       gradientUnits="userSpaceOnUse"
       gradientTransform="matrix(2.4045407,0,0,0.99999998,41.985755,15.500001)" /><radialGradient
       cx="4.9929786"
       cy="43.5"
       r="2.5"
       fx="4.9929786"
       fy="43.5"
       id="radialGradient3339-1-4"
       xlink:href="#linearGradient3688-166-749-654"
       gradientUnits="userSpaceOnUse"
       gradientTransform="matrix(2.4045407,0,0,0.99999998,-22.014244,-102.5)" /><linearGradient
       x1="25.058096"
       y1="47.027729"
       x2="25.058096"
       y2="39.999443"
       id="linearGradient6394"
       xlink:href="#linearGradient3702-501-757-795"
       gradientUnits="userSpaceOnUse"
       gradientTransform="matrix(1.5714286,0,0,0.7142857,-5.7142853,27.928572)" /><linearGradient
       xlink:href="#linearGradient2"
       id="linearGradient8"
       x1="31"
       y1="4.5"
       x2="30"
       y2="59.5"
       gradientUnits="userSpaceOnUse" /><style
       id="style1">.g{fill:#000;}.g,.h,.i{stroke-width:0px;}.h{fill:url(#e);}.i{fill:#fff;}</style><style
       id="style1-7">.g{fill:#000;}.g,.h,.i{stroke-width:0px;}.h{fill:url(#e);}.i{fill:#fff;}</style><linearGradient
       xlink:href="#linearGradient4"
       id="linearGradient10"
       x1="35"
       y1="5"
       x2="35"
       y2="59"
       gradientUnits="userSpaceOnUse" /></defs><g
     id="g866"><rect
       style="opacity:0.6;fill:url(#radialGradient3337-2-2);fill-opacity:1;stroke:none;stroke-width:1.06199"
       id="rect2801-5-5-7-9"
       y="56.5"
       x="54"
       height="5"
       width="6" /><rect
       style="opacity:0.6;fill:url(#radialGradient3339-1-4);fill-opacity:1;stroke:none;stroke-width:1.06199"
       id="rect3696-3-0-3-7"
       transform="scale(-1)"
       y="-61.5"
       x="-10"
       height="5"
       width="6" /><rect
       style="opacity:0.6;fill:url(#linearGradient6394);fill-opacity:1;stroke:none;stroke-width:1.06199"
       id="rect3700-5-6-8-4"
       y="56.5"
       x="10"
       height="5.0000005"
       width="44" /></g><path
     id="rect5505-21-3-8-5-2-9"
     style="color:#000000;display:inline;overflow:visible;visibility:visible;fill:url(#linearGradient8);fill-opacity:1;fill-rule:nonzero;stroke:none;stroke-width:1;marker:none;enable-background:accumulate"
     d="M 49.5,4.5 V 6 l -3.125,9.324219 C 43.481703,21.960851 39.752254,27.413103 34,30 25.807583,33.773191 21.346807,40.462403 19.25,49 l -1.75,9 v 1.5 h 36 c 3.323997,0 6,-2.676003 6,-6 v -43 c 0,-3.3239967 -2.676003,-6 -6,-6 z" /><path
     style="fill:#fafafa;stroke-width:2;opacity:0.15038045;stroke:#fafafa;stroke-opacity:1;stroke-dasharray:none"
     d="m 32.712566,41.5 c -0.36541,0 -0.723097,0.110042 -1.019965,0.323 -2.386768,1.712145 -4.255293,4.059717 -5.407226,6.841074 l -0.0071,0.01417 c -0.261039,0.629226 0.201343,1.321748 0.882552,1.321748 h 17.519301 c 2.330558,0 4.280389,-1.847471 4.319266,-4.177744 0.03974,-2.380466 -1.878533,-4.322244 -4.249851,-4.322244 z"
     id="path20" /><path
     style="fill:#fafafa;stroke-width:0px;opacity:0.15038045"
     d="m 32.712566,41.5 c -0.36541,0 -0.723097,0.110042 -1.019965,0.323 -2.386768,1.712145 -4.255293,4.059717 -5.407226,6.841074 l -0.0071,0.01417 c -0.261039,0.629226 0.201343,1.321748 0.882552,1.321748 h 17.519301 c 2.330558,0 4.280389,-1.847471 4.319266,-4.177744 0.03974,-2.380466 -1.878533,-4.322244 -4.249851,-4.322244 z"
     id="path19" /><path
     style="fill:url(#linearGradient10);stroke:none;stroke-width:2;stroke-linecap:round;stroke-linejoin:miter;stroke-dasharray:none;stroke-opacity:0.248388;paint-order:markers stroke fill"
     d="m 49.5,5 v 1 l -3.125,9.324219 C 43.4817,21.960858 39.75226,27.4131 34,30 25.807575,33.773195 21.345847,40.462349 19.249038,48.999955 L 17.5,58 v 1 h -7 A 5.5,5.5 45 0 1 5,53.5 v -43 A 5.5,5.5 135 0 1 10.5,5 Z"
     id="path1" /><path
     style="fill:#000000;stroke-width:2;opacity:0.15021023;stroke:#000000;stroke-opacity:1;stroke-dasharray:none"
     d="m 19.250455,16.000011 c -2.371246,0 -4.289526,1.941778 -4.24985,4.322244 C 15.039475,22.652529 16.989313,24.5 19.319869,24.5 h 11.96758 c 0.36541,0 0.723097,-0.110043 1.019965,-0.323 2.386768,-1.712145 4.255294,-4.059718 5.407226,-6.841075 l 0.0071,-0.01417 c 0.261022,-0.629222 -0.20136,-1.321744 -0.882569,-1.321744 h -0.0014 z"
     id="path15" /><path
     style="fill:#abacae;stroke-width:0px"
     d="m 32.712566,40.499967 c -0.36541,0 -0.723097,0.110042 -1.019965,0.323 -2.386768,1.712145 -4.255293,4.059717 -5.407226,6.841074 l -0.0071,0.01417 c -0.261039,0.629226 0.201343,1.321748 0.882552,1.321748 h 17.519301 c 2.330558,0 4.280389,-1.847471 4.319266,-4.177744 0.03974,-2.380466 -1.878533,-4.322244 -4.249851,-4.322244 z"
     id="path4" /><path
     style="fill:#000000;stroke-width:0px"
     d="m 19.250455,15 c -2.371246,0 -4.289526,1.941778 -4.24985,4.322244 0.03887,2.330274 1.988708,4.177745 4.319264,4.177745 h 11.96758 c 0.36541,0 0.723097,-0.110043 1.019965,-0.323 2.386768,-1.712145 4.255294,-4.059718 5.407226,-6.841075 l 0.0071,-0.01417 C 37.982762,15.692522 37.52038,15 36.839171,15 h -0.0014 z"
     id="path3-0" /><path
     style="fill:#000000;stroke-width:0px;opacity:0.15021023"
     d="m 19.250455,16.000011 c -2.371246,0 -4.289526,1.941778 -4.24985,4.322244 C 15.039475,22.652529 16.989313,24.5 19.319869,24.5 h 11.96758 c 0.36541,0 0.723097,-0.110043 1.019965,-0.323 2.386768,-1.712145 4.255294,-4.059718 5.407226,-6.841075 l 0.0071,-0.01417 c 0.261022,-0.629222 -0.20136,-1.321744 -0.882569,-1.321744 h -0.0014 z"
     id="path14" /><rect
     style="color:#000000;display:inline;overflow:visible;visibility:visible;opacity:0.5;fill:none;stroke:#474747;stroke-width:1;stroke-linecap:round;stroke-linejoin:round;stroke-miterlimit:4;stroke-dasharray:none;stroke-dashoffset:0;stroke-opacity:1;marker:none;enable-background:accumulate"
     id="rect5505-21-9"
     y="4.5"
     x="4.5"
     ry="6"
     rx="6"
     height="55"
     width="55" /><path
     style="fill:#1a1a1a;stroke-width:0px"
     d="m 19.25,15 c -2.183122,0 -3.977978,1.646809 -4.21875,3.765625 C 15.291495,20.88285 17.139498,22.5 19.320312,22.5 h 11.966797 c 0.36541,0 0.722664,-0.109309 1.019532,-0.322266 2.34865,-1.684801 4.193602,-3.987683 5.349609,-6.710937 C 37.492391,15.19385 37.197941,15 36.839844,15 h -0.002 z"
     id="path10" /><path
     style="fill:#333333;stroke-width:0px"
     d="m 19.25,15 c -2.002217,0 -3.676657,1.386029 -4.126953,3.25 0.461037,1.87419 2.186393,3.25 4.197265,3.25 h 11.966797 c 0.36541,0 0.722664,-0.109309 1.019532,-0.322266 2.149524,-1.541958 3.8751,-3.603863 5.039062,-6.029296 C 37.20041,15.056548 37.030461,15 36.839844,15 h -0.002 z"
     id="path11" /><path
     id="path12"
     style="fill:#d4d4d4;stroke-width:0px"
     d="M 32.712891 41.5 C 32.347481 41.5 31.990227 41.609308 31.693359 41.822266 C 29.344414 43.507279 27.497776 45.8095 26.341797 48.533203 C 26.50556 48.806542 26.801737 49 27.160156 49 L 44.679688 49 C 46.860485 49 48.708475 47.382822 48.96875 45.265625 C 48.728029 43.146809 46.933188 41.5 44.75 41.5 L 32.712891 41.5 z " /><path
     id="path13"
     style="fill:#fafafa;stroke-width:0px"
     d="M 32.712891 42.5 C 32.347481 42.5 31.990227 42.609308 31.693359 42.822266 C 29.543271 44.364629 27.814362 46.425299 26.650391 48.851562 C 26.796136 48.944307 26.968566 49 27.160156 49 L 44.679688 49 C 46.689849 49 48.413226 47.623173 48.875 45.75 C 48.42458 43.886257 46.752116 42.5 44.75 42.5 L 32.712891 42.5 z " /><path
     style="opacity:0.500447;fill:none;stroke:#abacae;stroke-width:1;stroke-linecap:butt;stroke-linejoin:miter;stroke-dasharray:none;stroke-opacity:1;paint-order:markers stroke fill"
     d="m 49.5,4.5 h -39 a 6,6 135 0 0 -6,6 v 43 a 6,6 45 0 0 6,6 h 7"
     id="path16" /><path
     id="rect6741"
     style="opacity:0.3;stroke:url(#linearGradient3904);stroke-linecap:butt;stroke-linejoin:miter"
     d="m 53.5,58.5 c 2.77,0 5,-2.23 5,-5 v -43 c 0,-2.77 -2.23,-5 -5,-5 H 50 V 6 l -3.125,9.324219 C 43.9817,21.960858 40.25226,27.4131 34.5,30 26.307575,33.773195 21.845847,40.462349 19.749038,48.999955 L 18,58 v 0.5 z" /><path
     id="rect20"
     style="opacity:1;stroke:url(#linearGradient3904);stroke-linecap:butt;stroke-linejoin:round"
     d="m 17.5,58.5 h -7 c -2.77,0 -5,-2.23 -5,-5 v -43 c 0,-2.77 2.23,-5 5,-5 h 39" /><path
     id="path22"
     style="color:#000000;display:inline;overflow:visible;visibility:visible;opacity:0.15002;fill:none;fill-opacity:1;fill-rule:nonzero;stroke:#000000;stroke-width:2;stroke-dasharray:none;stroke-opacity:1;marker:none;enable-background:accumulate"
     d="m 48.5,5 v 1 l -3.125,9.324219 C 42.481703,21.960851 38.752254,27.413103 33,30 24.807583,33.773191 20.346807,40.462403 18.25,49 l -1.75,9 v 1" /><path
     id="path21"
     style="color:#000000;display:inline;overflow:visible;visibility:visible;opacity:0.15002;fill:none;fill-opacity:1;fill-rule:nonzero;stroke:#000000;stroke-width:1;stroke-opacity:1;marker:none;enable-background:accumulate"
     d="m 49,5 v 1 l -3.125,9.324219 C 42.981703,21.960851 39.252254,27.413103 33.5,30 25.307583,33.773191 20.846807,40.462403 18.75,49 L 17,58 v 1" /></svg>
