<?xml version="1.0" encoding="UTF-8" standalone="no"?>
<svg
   width="64"
   height="64"
   viewBox="0 0 64 64"
   fill="none"
   version="1.1"
   id="svg4"
   xml:space="preserve"
   xmlns:xlink="http://www.w3.org/1999/xlink"
   xmlns="http://www.w3.org/2000/svg"
   xmlns:svg="http://www.w3.org/2000/svg"><defs
     id="defs4"><linearGradient
       id="linearGradient2"><stop
         style="stop-color:#1a1a1a;stop-opacity:1;"
         offset="0"
         id="stop7" /><stop
         style="stop-color:#000000;stop-opacity:1;"
         offset="1"
         id="stop8" /></linearGradient><linearGradient
       y2="42.45039"
       x2="23.999998"
       y1="5.5495896"
       x1="23.999998"
       gradientTransform="matrix(1.4324324,0,0,1.4362832,-2.378375,-2.4707827)"
       gradientUnits="userSpaceOnUse"
       id="linearGradient3904"
       xlink:href="#linearGradient4270" /><linearGradient
       id="linearGradient4270"><stop
         id="stop4272"
         style="stop-color:#ffffff;stop-opacity:1"
         offset="0" /><stop
         id="stop4274"
         style="stop-color:#ffffff;stop-opacity:0.23529412"
         offset="0.09526563" /><stop
         id="stop4276"
         style="stop-color:#ffffff;stop-opacity:0.15686275"
         offset="0.90566039" /><stop
         id="stop4278"
         style="stop-color:#ffffff;stop-opacity:0.39215687"
         offset="1" /></linearGradient><linearGradient
       id="linearGradient3688-166-749-654"><stop
         offset="0"
         style="stop-color:#181818;stop-opacity:1"
         id="stop3088" /><stop
         offset="1"
         style="stop-color:#181818;stop-opacity:0"
         id="stop3090" /></linearGradient><linearGradient
       id="linearGradient3702-501-757-795"><stop
         offset="0"
         style="stop-color:#181818;stop-opacity:0"
         id="stop3100" /><stop
         offset="0.5"
         style="stop-color:#181818;stop-opacity:1"
         id="stop3102" /><stop
         offset="1"
         style="stop-color:#181818;stop-opacity:0"
         id="stop3104" /></linearGradient><radialGradient
       cx="4.9929786"
       cy="43.5"
       r="2.5"
       fx="4.9929786"
       fy="43.5"
       id="radialGradient3337-2-2"
       xlink:href="#linearGradient3688-166-749-654"
       gradientUnits="userSpaceOnUse"
       gradientTransform="matrix(2.4045407,0,0,0.99999998,41.985755,15.500001)" /><radialGradient
       cx="4.9929786"
       cy="43.5"
       r="2.5"
       fx="4.9929786"
       fy="43.5"
       id="radialGradient3339-1-4"
       xlink:href="#linearGradient3688-166-749-654"
       gradientUnits="userSpaceOnUse"
       gradientTransform="matrix(2.4045407,0,0,0.99999998,-22.014244,-102.5)" /><linearGradient
       x1="25.058096"
       y1="47.027729"
       x2="25.058096"
       y2="39.999443"
       id="linearGradient6394"
       xlink:href="#linearGradient3702-501-757-795"
       gradientUnits="userSpaceOnUse"
       gradientTransform="matrix(1.5714286,0,0,0.7142857,-5.7142853,27.928572)" /><linearGradient
       xlink:href="#linearGradient2"
       id="linearGradient8"
       x1="31"
       y1="4.5"
       x2="30"
       y2="59.5"
       gradientUnits="userSpaceOnUse" /><style
       id="style1">.g{fill:#000;}.g,.h,.i{stroke-width:0px;}.h{fill:url(#e);}.i{fill:#fff;}</style><style
       id="style1-7">.g{fill:#000;}.g,.h,.i{stroke-width:0px;}.h{fill:url(#e);}.i{fill:#fff;}</style></defs><g
     id="g866"><rect
       style="opacity:0.6;fill:url(#radialGradient3337-2-2);fill-opacity:1;stroke:none;stroke-width:1.06199"
       id="rect2801-5-5-7-9"
       y="56.5"
       x="54"
       height="5"
       width="6" /><rect
       style="opacity:0.6;fill:url(#radialGradient3339-1-4);fill-opacity:1;stroke:none;stroke-width:1.06199"
       id="rect3696-3-0-3-7"
       transform="scale(-1)"
       y="-61.5"
       x="-10"
       height="5"
       width="6" /><rect
       style="opacity:0.6;fill:url(#linearGradient6394);fill-opacity:1;stroke:none;stroke-width:1.06199"
       id="rect3700-5-6-8-4"
       y="56.5"
       x="10"
       height="5.0000005"
       width="44" /></g><rect
     width="55"
     height="55"
     rx="6"
     ry="6"
     x="4.5"
     y="4.5"
     id="rect5505-21-3-8-5-2-9"
     style="color:#000000;display:inline;overflow:visible;visibility:visible;fill:url(#linearGradient8);fill-opacity:1;fill-rule:nonzero;stroke:none;stroke-width:1;marker:none;enable-background:accumulate" /><path
     id="path3-0"
     style="fill:#abacae;stroke-width:0px"
     class="i"
     d="m 19.250455,15 c -2.371246,0 -4.289526,1.941778 -4.24985,4.322244 0.03887,2.330274 1.988708,4.177745 4.319264,4.177745 h 11.96758 c 0.36541,0 0.723097,-0.110043 1.019965,-0.323 2.386768,-1.712145 4.255294,-4.059718 5.407226,-6.841075 l 0.0071,-0.01417 C 37.982762,15.692522 37.52038,15 36.839171,15 h -0.0014 z m 25.46794,0 c -1.655978,0.01234 -3.222085,0.998686 -3.895698,2.625081 -1.973415,4.764557 -5.684351,8.475619 -10.448966,10.449319 -3.466387,1.435867 -6.549797,3.508865 -9.164094,6.162492 -2.523635,2.561436 -4.50328,5.550464 -5.884627,8.885321 -0.898149,2.168306 0.132208,4.655149 2.300586,5.553326 0.531867,0.220284 1.081421,0.324416 1.623442,0.324416 1.667409,0 3.250479,-0.988586 3.92828,-2.62508 1.973416,-4.764557 5.684351,-8.475619 10.448966,-10.44932 3.466387,-1.435866 6.549797,-3.508865 9.164095,-6.162491 2.523635,-2.561435 4.503279,-5.550464 5.884626,-8.885321 C 49.573154,18.709437 48.542798,16.222594 46.37442,15.324417 45.83238,15.099908 45.270387,14.995883 44.718395,15 Z M 32.712566,40.499967 c -0.36541,0 -0.723097,0.110042 -1.019965,0.323 -2.386768,1.712145 -4.255293,4.059717 -5.407226,6.841074 l -0.0071,0.01417 c -0.261039,0.629226 0.201343,1.321748 0.882552,1.321748 h 17.519301 c 2.330558,0 4.280389,-1.847471 4.319266,-4.177744 0.03974,-2.380466 -1.878533,-4.322244 -4.249851,-4.322244 z" /><rect
     style="opacity:0.3;fill:none;stroke:url(#linearGradient3904);stroke-width:1;stroke-linecap:round;stroke-linejoin:round;stroke-miterlimit:4;stroke-dasharray:none;stroke-dashoffset:0;stroke-opacity:1"
     id="rect6741"
     y="5.5"
     x="5.5"
     ry="5"
     rx="5"
     height="53"
     width="53" /><rect
     style="color:#000000;display:inline;overflow:visible;visibility:visible;opacity:0.5;fill:none;stroke:#474747;stroke-width:1;stroke-linecap:round;stroke-linejoin:round;stroke-miterlimit:4;stroke-dasharray:none;stroke-dashoffset:0;stroke-opacity:1;marker:none;enable-background:accumulate"
     id="rect5505-21-9"
     y="4.5"
     x="4.5"
     ry="6"
     rx="6"
     height="55"
     width="55" /><path
     id="path10"
     style="fill:#d4d4d4;stroke-width:0px"
     class="i"
     d="M 19.25 15 C 17.066878 15 15.272022 16.646809 15.03125 18.765625 C 15.291495 20.88285 17.139498 22.5 19.320312 22.5 L 31.287109 22.5 C 31.652519 22.5 32.009773 22.390691 32.306641 22.177734 C 34.655291 20.492933 36.500243 18.190051 37.65625 15.466797 C 37.492391 15.19385 37.197941 15 36.839844 15 L 36.837891 15 L 19.25 15 z M 44.71875 15 C 43.062774 15.01234 41.495878 15.998607 40.822266 17.625 C 38.848853 22.389552 35.137657 26.100521 30.373047 28.074219 C 26.906663 29.510084 23.823279 31.582704 21.208984 34.236328 C 18.685352 36.797762 16.705564 39.788193 15.324219 43.123047 C 15.170837 43.493341 15.078035 43.872578 15.033203 44.251953 C 15.210975 45.726768 16.155099 47.066925 17.625 47.675781 C 18.156866 47.896065 18.70798 48 19.25 48 C 20.917407 48 22.499934 47.011492 23.177734 45.375 C 25.151148 40.610448 28.862343 36.89948 33.626953 34.925781 C 37.093337 33.489917 40.17672 31.417295 42.791016 28.763672 C 45.314648 26.202239 47.294436 23.211807 48.675781 19.876953 C 48.829163 19.506659 48.921965 19.127422 48.966797 18.748047 C 48.789026 17.273232 47.844901 15.933075 46.375 15.324219 C 45.832961 15.09971 45.270741 14.995883 44.71875 15 z M 32.712891 40.5 C 32.347481 40.5 31.990227 40.609308 31.693359 40.822266 C 29.344709 42.507067 27.499758 44.809949 26.34375 47.533203 C 26.507606 47.80615 26.802059 48 27.160156 48 L 44.679688 48 C 46.860485 48 48.708475 46.382822 48.96875 44.265625 C 48.728029 42.146809 46.933188 40.5 44.75 40.5 L 32.712891 40.5 z " /><path
     id="path11"
     style="fill:#fafafa;stroke-width:0px"
     class="i"
     d="M 19.25 15 C 17.247783 15 15.573343 16.386029 15.123047 18.25 C 15.584084 20.12419 17.30944 21.5 19.320312 21.5 L 31.287109 21.5 C 31.652519 21.5 32.009773 21.390691 32.306641 21.177734 C 34.456165 19.635776 36.181741 17.573871 37.345703 15.148438 C 37.20041 15.056548 37.030461 15 36.839844 15 L 36.837891 15 L 19.25 15 z M 44.71875 15 C 43.062774 15.01234 41.495878 15.998607 40.822266 17.625 C 38.848853 22.389552 35.137657 26.100521 30.373047 28.074219 C 26.906663 29.510084 23.823279 31.582704 21.208984 34.236328 C 18.685352 36.797762 16.705564 39.788193 15.324219 43.123047 C 15.23856 43.329844 15.176261 43.539062 15.125 43.75 C 15.434921 45.022631 16.322468 46.136252 17.625 46.675781 C 18.156866 46.896065 18.70798 47 19.25 47 C 20.917407 47 22.499934 46.011492 23.177734 44.375 C 25.151148 39.610448 28.862343 35.89948 33.626953 33.925781 C 37.093337 32.489917 40.17672 30.417295 42.791016 27.763672 C 45.314648 25.202239 47.294436 22.211807 48.675781 18.876953 C 48.76144 18.670156 48.823739 18.460938 48.875 18.25 C 48.56508 16.977369 47.677532 15.863748 46.375 15.324219 C 45.832961 15.09971 45.270741 14.995883 44.71875 15 z M 32.712891 40.5 C 32.347481 40.5 31.990227 40.609308 31.693359 40.822266 C 29.543835 42.364224 27.81826 44.426129 26.654297 46.851562 C 26.79959 46.943452 26.969539 47 27.160156 47 L 44.679688 47 C 46.689849 47 48.413226 45.623173 48.875 43.75 C 48.42458 41.886257 46.752116 40.5 44.75 40.5 L 32.712891 40.5 z " /></svg>
