<?xml version="1.0" encoding="UTF-8" standalone="no"?>
<svg
   width="48"
   height="48"
   viewBox="0 0 48 48"
   fill="none"
   version="1.1"
   id="svg4"
   xml:space="preserve"
   xmlns:xlink="http://www.w3.org/1999/xlink"
   xmlns="http://www.w3.org/2000/svg"
   xmlns:svg="http://www.w3.org/2000/svg"><defs
     id="defs4"><linearGradient
       id="linearGradient1201"><stop
         id="stop1193"
         style="stop-color:#ffffff;stop-opacity:1"
         offset="0" /><stop
         id="stop1195"
         style="stop-color:#ffffff;stop-opacity:0.23529412"
         offset="0.06781636" /><stop
         id="stop1197"
         style="stop-color:#ffffff;stop-opacity:0.15686275"
         offset="0.94694352" /><stop
         id="stop1199"
         style="stop-color:#ffffff;stop-opacity:0.39215687"
         offset="1" /></linearGradient><linearGradient
       id="linearGradient3688-166-749"><stop
         id="stop2883"
         style="stop-color:#181818;stop-opacity:1"
         offset="0" /><stop
         id="stop2885"
         style="stop-color:#181818;stop-opacity:0"
         offset="1" /></linearGradient><linearGradient
       id="linearGradient3702-501-757"><stop
         id="stop2895"
         style="stop-color:#181818;stop-opacity:0"
         offset="0" /><stop
         id="stop2897"
         style="stop-color:#181818;stop-opacity:1"
         offset="0.5" /><stop
         id="stop2899"
         style="stop-color:#181818;stop-opacity:0"
         offset="1" /></linearGradient><radialGradient
       cx="4.9929786"
       cy="43.5"
       r="2.5"
       fx="4.9929786"
       fy="43.5"
       id="radialGradient3013-6"
       xlink:href="#linearGradient3688-166-749"
       gradientUnits="userSpaceOnUse"
       gradientTransform="matrix(2.003784,0,0,0.89999994,29.98813,4.8500025)" /><radialGradient
       cx="4.9929786"
       cy="43.5"
       r="2.5"
       fx="4.9929786"
       fy="43.5"
       id="radialGradient3015-1"
       xlink:href="#linearGradient3688-166-749"
       gradientUnits="userSpaceOnUse"
       gradientTransform="matrix(2.003784,0,0,0.89999994,-18.01187,-83.149997)" /><linearGradient
       x1="38.999996"
       y1="5.9999938"
       x2="38.999996"
       y2="41.945408"
       id="linearGradient3058-5"
       xlink:href="#linearGradient1201"
       gradientUnits="userSpaceOnUse"
       gradientTransform="translate(4e-6,1.0000062)" /><linearGradient
       xlink:href="#linearGradient3702-501-757"
       id="linearGradient1191"
       gradientUnits="userSpaceOnUse"
       x1="25.058096"
       y1="47.027729"
       x2="25.058096"
       y2="39.999443"
       gradientTransform="matrix(1.1428571,0,0,0.6428571,-3.428569,16.035716)" /><linearGradient
       xlink:href="#linearGradient870"
       id="linearGradient930-9-2"
       x1="16.767664"
       y1="2.7676599"
       x2="16.767664"
       y2="29.896721"
       gradientUnits="userSpaceOnUse"
       gradientTransform="matrix(1.444444,0,0,1.444444,0.888913,1.888891)" /><linearGradient
       id="linearGradient870"><stop
         id="stop866"
         offset="0"
         style="stop-color:#3a465a;stop-opacity:1;" /><stop
         id="stop868"
         offset="1"
         style="stop-color:#182027;stop-opacity:1;" /></linearGradient><linearGradient
       id="linearGradient2"><stop
         style="stop-color:#1a1a1a;stop-opacity:1;"
         offset="0"
         id="stop7" /><stop
         style="stop-color:#000000;stop-opacity:1;"
         offset="1"
         id="stop8" /></linearGradient><linearGradient
       y2="42.102268"
       x2="23.999998"
       y1="5.8977108"
       x1="23.999998"
       gradientTransform="matrix(1.4324324,0,0,1.4362832,55.621625,-2.4707827)"
       gradientUnits="userSpaceOnUse"
       id="linearGradient3904"
       xlink:href="#linearGradient4270" /><linearGradient
       id="linearGradient4270"><stop
         id="stop4272"
         style="stop-color:#ffffff;stop-opacity:1"
         offset="0" /><stop
         id="stop4274"
         style="stop-color:#ffffff;stop-opacity:0.23529412"
         offset="0.08571428" /><stop
         id="stop4276"
         style="stop-color:#ffffff;stop-opacity:0.15686275"
         offset="0.91346157" /><stop
         id="stop4278"
         style="stop-color:#ffffff;stop-opacity:0.39215687"
         offset="1" /></linearGradient><radialGradient
       cx="4.9929786"
       cy="43.5"
       r="2.5"
       fx="4.9929786"
       fy="43.5"
       id="radialGradient3337-2-2"
       xlink:href="#linearGradient3688-166-749"
       gradientUnits="userSpaceOnUse"
       gradientTransform="matrix(2.4045407,0,0,0.99999998,41.985755,15.500001)" /><radialGradient
       cx="4.9929786"
       cy="43.5"
       r="2.5"
       fx="4.9929786"
       fy="43.5"
       id="radialGradient3339-1-4"
       xlink:href="#linearGradient3688-166-749"
       gradientUnits="userSpaceOnUse"
       gradientTransform="matrix(2.4045407,0,0,0.99999998,-22.014244,-102.5)" /><linearGradient
       x1="25.058096"
       y1="47.027729"
       x2="25.058096"
       y2="39.999443"
       id="linearGradient6394"
       xlink:href="#linearGradient3702-501-757"
       gradientUnits="userSpaceOnUse"
       gradientTransform="matrix(1.5714286,0,0,0.7142857,-5.7142853,27.928572)" /><linearGradient
       xlink:href="#linearGradient2"
       id="linearGradient8"
       x1="31"
       y1="4.5"
       x2="30"
       y2="59.5"
       gradientUnits="userSpaceOnUse"
       gradientTransform="translate(58)" /><style
       id="style1">.g{fill:#000;}.g,.h,.i{stroke-width:0px;}.h{fill:url(#e);}.i{fill:#fff;}</style><style
       id="style1-7">.g{fill:#000;}.g,.h,.i{stroke-width:0px;}.h{fill:url(#e);}.i{fill:#fff;}</style><style
       id="style1-5">.g{fill:#000;}.g,.h,.i{stroke-width:0px;}.h{fill:url(#e);}.i{fill:#fff;}</style><linearGradient
       id="e"
       x1="40"
       y1="80"
       x2="40"
       y2="0"
       gradientUnits="userSpaceOnUse"><stop
         offset=".1"
         stop-color="#fff"
         stop-opacity=".02"
         id="stop1-3" /><stop
         offset=".9"
         stop-color="#fff"
         stop-opacity=".1"
         id="stop2-5" /></linearGradient></defs><rect
     style="opacity:0.6;fill:url(#radialGradient3013-6);fill-opacity:1;stroke:none;stroke-width:0.862764"
     id="rect2801-3-7"
     y="41.75"
     x="40"
     height="4.4999995"
     width="5" /><rect
     style="opacity:0.6;fill:url(#radialGradient3015-1);fill-opacity:1;stroke:none;stroke-width:0.862764"
     id="rect3696-6-3"
     transform="scale(-1)"
     y="-46.25"
     x="-8"
     height="4.4999995"
     width="5" /><rect
     style="opacity:0.6;fill:url(#linearGradient1191);fill-opacity:1;stroke:none;stroke-width:0.862764"
     id="rect3700-4-6"
     y="41.75"
     x="8"
     height="4.5"
     width="32" /><rect
     style="color:#000000;font-variation-settings:normal;display:inline;overflow:visible;visibility:visible;vector-effect:none;fill:url(#linearGradient930-9-2);fill-opacity:1;fill-rule:nonzero;stroke:#474747;stroke-width:1;stroke-linecap:butt;stroke-linejoin:miter;stroke-miterlimit:4;stroke-dasharray:none;stroke-dashoffset:0;stroke-opacity:0.49736449;marker:none;enable-background:accumulate;stop-color:#000000"
     id="rect5505-21-1"
     y="5.4999952"
     x="4.5000153"
     ry="4"
     rx="4"
     height="39"
     width="39" /><rect
     style="opacity:0.35;fill:none;stroke:url(#linearGradient3058-5);stroke-width:1;stroke-linecap:round;stroke-linejoin:round;stroke-miterlimit:4;stroke-dasharray:none;stroke-dashoffset:0;stroke-opacity:1"
     id="rect6741-2"
     y="6.4999952"
     x="5.5000153"
     ry="3"
     rx="3"
     height="37"
     width="37" /><g
     id="g866"
     transform="translate(58)"><rect
       style="opacity:0.6;fill:url(#radialGradient3337-2-2);fill-opacity:1;stroke:none;stroke-width:1.06199"
       id="rect2801-5-5-7-9"
       y="56.5"
       x="54"
       height="5"
       width="6" /><rect
       style="opacity:0.6;fill:url(#radialGradient3339-1-4);fill-opacity:1;stroke:none;stroke-width:1.06199"
       id="rect3696-3-0-3-7"
       transform="scale(-1)"
       y="-61.5"
       x="-10"
       height="5"
       width="6" /><rect
       style="opacity:0.6;fill:url(#linearGradient6394);fill-opacity:1;stroke:none;stroke-width:1.06199"
       id="rect3700-5-6-8-4"
       y="56.5"
       x="10"
       height="5.0000005"
       width="44" /></g><rect
     width="55"
     height="55"
     rx="6"
     ry="6"
     x="62.5"
     y="4.5"
     id="rect5505-21-3-8-5-2-9"
     style="color:#000000;display:inline;overflow:visible;visibility:visible;fill:url(#linearGradient8);fill-opacity:1;fill-rule:nonzero;stroke:none;stroke-width:1;marker:none;enable-background:accumulate" /><path
     id="path3-0"
     style="fill:#abacae;stroke-width:0px"
     class="i"
     d="m 77.250455,15 c -2.371246,0 -4.289526,1.941778 -4.24985,4.322244 0.03887,2.330274 1.988708,4.177745 4.319264,4.177745 h 11.96758 c 0.36541,0 0.723097,-0.110043 1.019965,-0.323 2.386768,-1.712145 4.255294,-4.059718 5.407226,-6.841075 l 0.0071,-0.01417 C 95.982762,15.692522 95.52038,15 94.839171,15 h -0.0014 z m 25.467945,0 c -1.65598,0.01234 -3.22209,0.998686 -3.895703,2.625081 -1.973415,4.764557 -5.684351,8.475619 -10.448966,10.449319 -3.466387,1.435867 -6.549797,3.508865 -9.164094,6.162492 -2.523635,2.561436 -4.50328,5.550464 -5.884627,8.885321 -0.898149,2.168306 0.132208,4.655149 2.300586,5.553326 0.531867,0.220284 1.081421,0.324416 1.623442,0.324416 1.667409,0 3.250479,-0.988586 3.92828,-2.62508 1.973416,-4.764557 5.684351,-8.475619 10.448966,-10.44932 3.466387,-1.435866 6.549797,-3.508865 9.164096,-6.162491 2.52363,-2.561435 4.50328,-5.550464 5.88463,-8.885321 0.89814,-2.168306 -0.13221,-4.655149 -2.30059,-5.553326 C 103.83238,15.099908 103.27039,14.995883 102.7184,15 Z M 90.712566,40.499967 c -0.36541,0 -0.723097,0.110042 -1.019965,0.323 -2.386768,1.712145 -4.255293,4.059717 -5.407226,6.841074 l -0.0071,0.01417 c -0.261039,0.629226 0.201343,1.321748 0.882552,1.321748 h 17.519303 c 2.33056,0 4.28039,-1.847471 4.31926,-4.177744 0.0397,-2.380466 -1.87853,-4.322244 -4.24985,-4.322244 z" /><rect
     style="opacity:0.3;fill:none;stroke:url(#linearGradient3904);stroke-width:1;stroke-linecap:round;stroke-linejoin:round;stroke-miterlimit:4;stroke-dasharray:none;stroke-dashoffset:0;stroke-opacity:1"
     id="rect6741"
     y="5.5"
     x="63.5"
     ry="5"
     rx="5"
     height="53"
     width="53" /><rect
     style="color:#000000;display:inline;overflow:visible;visibility:visible;opacity:0.5;fill:none;stroke:#474747;stroke-width:1;stroke-linecap:round;stroke-linejoin:round;stroke-miterlimit:4;stroke-dasharray:none;stroke-dashoffset:0;stroke-opacity:1;marker:none;enable-background:accumulate"
     id="rect5505-21-9"
     y="4.5"
     x="62.5"
     ry="6"
     rx="6"
     height="55"
     width="55" /><path
     id="path10"
     style="fill:#d4d4d4;stroke-width:0px"
     class="i"
     d="m 77.25,15 c -2.183122,0 -3.977978,1.646809 -4.21875,3.765625 C 73.291495,20.88285 75.139498,22.5 77.320312,22.5 h 11.966797 c 0.36541,0 0.722664,-0.109309 1.019532,-0.322266 2.34865,-1.684801 4.193602,-3.987683 5.349609,-6.710937 C 95.492391,15.19385 95.197941,15 94.839844,15 h -0.002 z m 25.46875,0 c -1.65598,0.01234 -3.222872,0.998607 -3.896484,2.625 -1.973413,4.764552 -5.684609,8.475521 -10.449219,10.449219 -3.466384,1.435865 -6.549768,3.508485 -9.164063,6.162109 -2.523632,2.561434 -4.50342,5.551865 -5.884765,8.886719 -0.153382,0.370294 -0.246184,0.749531 -0.291016,1.128906 0.177772,1.474815 1.121896,2.814972 2.591797,3.423828 C 76.156866,47.896065 76.70798,48 77.25,48 c 1.667407,0 3.249934,-0.988508 3.927734,-2.625 1.973414,-4.764552 5.684609,-8.47552 10.449219,-10.449219 3.466384,-1.435864 6.549767,-3.508486 9.164067,-6.162109 2.52363,-2.561433 4.50342,-5.551865 5.88476,-8.886719 0.15338,-0.370294 0.24619,-0.749531 0.29102,-1.128906 -0.17777,-1.474815 -1.1219,-2.814972 -2.5918,-3.423828 C 103.83296,15.09971 103.27074,14.995883 102.71875,15 Z M 90.712891,40.5 c -0.36541,0 -0.722664,0.109308 -1.019532,0.322266 -2.34865,1.684801 -4.193601,3.987683 -5.349609,6.710937 C 84.507606,47.80615 84.802059,48 85.160156,48 h 17.519534 c 2.18079,0 4.02878,-1.617178 4.28906,-3.734375 C 106.72803,42.146809 104.93319,40.5 102.75,40.5 Z" /><path
     id="path11"
     style="fill:#fafafa;stroke-width:0px"
     class="i"
     d="m 77.25,15 c -2.002217,0 -3.676657,1.386029 -4.126953,3.25 0.461037,1.87419 2.186393,3.25 4.197265,3.25 h 11.966797 c 0.36541,0 0.722664,-0.109309 1.019532,-0.322266 2.149524,-1.541958 3.8751,-3.603863 5.039062,-6.029296 C 95.20041,15.056548 95.030461,15 94.839844,15 h -0.002 z m 25.46875,0 c -1.65598,0.01234 -3.222872,0.998607 -3.896484,2.625 -1.973413,4.764552 -5.684609,8.475521 -10.449219,10.449219 -3.466384,1.435865 -6.549768,3.508485 -9.164063,6.162109 -2.523632,2.561434 -4.50342,5.551865 -5.884765,8.886719 -0.08566,0.206797 -0.147958,0.416015 -0.199219,0.626953 0.309921,1.272631 1.197468,2.386252 2.5,2.925781 C 76.156866,46.896065 76.70798,47 77.25,47 c 1.667407,0 3.249934,-0.988508 3.927734,-2.625 1.973414,-4.764552 5.684609,-8.47552 10.449219,-10.449219 3.466384,-1.435864 6.549767,-3.508486 9.164067,-6.162109 2.52363,-2.561433 4.50342,-5.551865 5.88476,-8.886719 0.0857,-0.206797 0.14796,-0.416015 0.19922,-0.626953 -0.30992,-1.272631 -1.19747,-2.386252 -2.5,-2.925781 C 103.83296,15.09971 103.27074,14.995883 102.71875,15 Z M 90.712891,40.5 c -0.36541,0 -0.722664,0.109308 -1.019532,0.322266 -2.149524,1.541958 -3.875099,3.603863 -5.039062,6.029296 C 84.79959,46.943452 84.969539,47 85.160156,47 h 17.519534 c 2.01016,0 3.73354,-1.376827 4.19531,-3.25 -0.45042,-1.863743 -2.12288,-3.25 -4.125,-3.25 z" /><g
     id="c"
     transform="translate(132)"><rect
       class="g"
       width="80"
       height="80"
       rx="18.25"
       ry="18.25"
       id="rect2"
       x="0"
       y="0" /></g><g
     id="d"
     transform="translate(132)"><rect
       class="h"
       width="80"
       height="80"
       rx="18.25"
       ry="18.25"
       id="rect3"
       x="0"
       y="0" /></g><g
     id="f"
     transform="translate(132)"><path
       class="i"
       d="m 63.4367,57.6782 c -0.0536,3.2127 -2.7418,5.7593 -5.955,5.7593 H 33.329 c -0.9392,0 -1.5768,-0.9548 -1.2169,-1.8223 l 0.0082,-0.0197 c 1.5882,-3.8346 4.1653,-7.0703 7.456,-9.4308 0.4093,-0.2936 0.9032,-0.4459 1.407,-0.4459 h 16.5948 c 3.2694,0 5.9133,2.6775 5.8585,5.9594 z"
       id="path3" /><path
       class="i"
       d="m 46.671,16.5625 c 0.9392,0 1.5768,0.9548 1.2169,1.8223 l -0.0082,0.0197 c -1.5882,3.8346 -4.1653,7.0703 -7.456,9.4308 -0.4093,0.2936 -0.9032,0.4459 -1.407,0.4459 H 22.5183 c -3.2132,0 -5.9014,-2.5466 -5.955,-5.7593 -0.0547,-3.2819 2.5892,-5.9594 5.8585,-5.9594 h 24.2491 z"
       id="path4" /><path
       class="i"
       d="m 22.4208,63.4375 c -0.7473,0 -1.5065,-0.1438 -2.2398,-0.4475 -2.9896,-1.2383 -4.4093,-4.6657 -3.171,-7.6551 1.9045,-4.5977 4.6342,-8.7196 8.1136,-12.251 3.6044,-3.6585 7.8551,-6.5172 12.6343,-8.4968 6.5691,-2.7211 11.6853,-7.8373 14.4061,-14.4061 1.2383,-2.9897 4.6658,-4.4091 7.6551,-3.171 2.9896,1.2383 4.4093,4.6657 3.171,7.6551 -1.9045,4.5977 -4.6342,8.7196 -8.1136,12.251 -3.6044,3.6585 -7.8551,6.5172 -12.6343,8.4968 -6.5691,2.7211 -11.6853,7.8373 -14.4061,14.4061 -0.9345,2.2562 -3.1164,3.6185 -5.4153,3.6185 z"
       id="path5" /></g></svg>
