<?xml version="1.0" encoding="UTF-8" standalone="no"?>
<svg
   version="1.1"
   width="64"
   height="64"
   id="svg6649"
   xml:space="preserve"
   xmlns:xlink="http://www.w3.org/1999/xlink"
   xmlns="http://www.w3.org/2000/svg"
   xmlns:svg="http://www.w3.org/2000/svg"
   xmlns:rdf="http://www.w3.org/1999/02/22-rdf-syntax-ns#"
   xmlns:cc="http://creativecommons.org/ns#"
   xmlns:dc="http://purl.org/dc/elements/1.1/"><defs
     id="defs6651"><linearGradient
       id="linearGradient17"><stop
         style="stop-color:#ffffff;stop-opacity:0.20362301;"
         offset="0"
         id="stop17" /><stop
         style="stop-color:#ffffff;stop-opacity:0;"
         offset="1"
         id="stop18" /></linearGradient><linearGradient
       id="linearGradient15"><stop
         style="stop-color:#ffffff;stop-opacity:0.35362047;"
         offset="0"
         id="stop15" /><stop
         style="stop-color:#ffffff;stop-opacity:0;"
         offset="1"
         id="stop16" /></linearGradient><linearGradient
       id="linearGradient13"><stop
         style="stop-color:#ffffff;stop-opacity:0.29974914;"
         offset="0"
         id="stop13" /><stop
         style="stop-color:#ffffff;stop-opacity:0;"
         offset="1"
         id="stop14" /></linearGradient><linearGradient
       id="linearGradient11"><stop
         style="stop-color:#ffffff;stop-opacity:0.39874125;"
         offset="0"
         id="stop11" /><stop
         style="stop-color:#ffffff;stop-opacity:0;"
         offset="1"
         id="stop12" /></linearGradient><linearGradient
       id="linearGradient4"><stop
         style="stop-color:#ffffff;stop-opacity:0.44714639;"
         offset="0"
         id="stop4-5" /><stop
         style="stop-color:#ffffff;stop-opacity:0;"
         offset="1"
         id="stop5-6" /></linearGradient><linearGradient
       id="linearGradient909"><stop
         id="stop901"
         style="stop-color:#9e79e9;stop-opacity:1;"
         offset="0" /><stop
         id="stop907"
         style="stop-color:#6c31e3;stop-opacity:1;"
         offset="1" /></linearGradient><linearGradient
       y2="42.091705"
       x2="23.99999"
       y1="5.9093657"
       x1="23.99999"
       gradientTransform="matrix(1.4324324,0,0,1.4362832,-2.37838,-2.4707827)"
       gradientUnits="userSpaceOnUse"
       id="linearGradient3904"
       xlink:href="#linearGradient4270" /><linearGradient
       id="linearGradient4270"><stop
         id="stop4272"
         style="stop-color:#ffffff;stop-opacity:1"
         offset="0" /><stop
         id="stop4274"
         style="stop-color:#ffffff;stop-opacity:0.23529412"
         offset="0.0348749" /><stop
         id="stop4276"
         style="stop-color:#ffffff;stop-opacity:0.15686275"
         offset="0.96216321" /><stop
         id="stop4278"
         style="stop-color:#ffffff;stop-opacity:0.39215687"
         offset="1" /></linearGradient><linearGradient
       xlink:href="#linearGradient909"
       id="linearGradient899"
       x1="31.781376"
       y1="4.9266648"
       x2="31.781376"
       y2="59.148476"
       gradientUnits="userSpaceOnUse" /><linearGradient
       xlink:href="#linearGradient4"
       id="linearGradient5"
       x1="28.165596"
       y1="22.705402"
       x2="10.03974"
       y2="5.428761"
       gradientUnits="userSpaceOnUse" /><linearGradient
       xlink:href="#linearGradient11"
       id="linearGradient12"
       x1="41.50819"
       y1="22.70702"
       x2="41.143955"
       y2="5.428761"
       gradientUnits="userSpaceOnUse" /><linearGradient
       xlink:href="#linearGradient13"
       id="linearGradient14"
       x1="52.226662"
       y1="55.154682"
       x2="55.175838"
       y2="34.679829"
       gradientUnits="userSpaceOnUse" /><linearGradient
       xlink:href="#linearGradient15"
       id="linearGradient16"
       x1="20.774637"
       y1="53.066387"
       x2="15.391004"
       y2="37.661407"
       gradientUnits="userSpaceOnUse" /><linearGradient
       xlink:href="#linearGradient17"
       id="linearGradient18"
       x1="45.40913"
       y1="51.594944"
       x2="27.697275"
       y2="51.974899"
       gradientUnits="userSpaceOnUse" /></defs><metadata
     id="metadata6654"><rdf:RDF><cc:Work
         rdf:about=""><dc:format>image/svg+xml</dc:format><dc:type
           rdf:resource="http://purl.org/dc/dcmitype/StillImage" /></cc:Work></rdf:RDF></metadata><path
     id="path19"
     style="opacity:0.199867;fill:#0e141f;fill-opacity:1;stroke:#0e141f;stroke-width:2;stroke-linecap:round;stroke-linejoin:round;stroke-dasharray:none;stroke-opacity:1;paint-order:markers stroke fill"
     d="m 9,57 a 4,2 0 0 0 -4,2 4,2 0 0 0 4,2 h 46 a 4,2 0 0 0 4,-2 4,2 0 0 0 -4,-2 z" /><path
     id="rect18"
     style="opacity:0.199867;fill:#273445;fill-opacity:1;stroke:none;stroke-width:2;stroke-linecap:round;stroke-linejoin:round;stroke-dasharray:none;stroke-opacity:1;paint-order:markers stroke fill"
     d="m 9,57 a 4,2 0 0 0 -4,2 4,2 0 0 0 4,2 h 46 a 4,2 0 0 0 4,-2 4,2 0 0 0 -4,-2 z" /><path
     id="path18"
     style="opacity:0.199867;fill:#485a6c;fill-opacity:1;stroke:none;stroke-width:2;stroke-linecap:round;stroke-linejoin:round;stroke-dasharray:none;stroke-opacity:1;paint-order:markers stroke fill"
     d="m 9,58 h 46 c 1.98958,0 3,0.773649 3,1 0,0.226351 -1.01042,1 -3,1 H 9 C 7.01042,60 6,59.226351 6,59 6,58.773649 7.01042,58 9,58 Z" /><rect
     width="55"
     height="55"
     rx="6"
     ry="6"
     x="4.5"
     y="4.5"
     id="rect5505-21-3-8-5-2-9"
     style="color:#000000;display:inline;overflow:visible;visibility:visible;fill:url(#linearGradient899);fill-opacity:1;fill-rule:nonzero;stroke:none;stroke-width:1;marker:none;enable-background:accumulate" /><path
     id="path2"
     style="opacity:0.150426;fill:#2e0d6d;fill-opacity:1;stroke:#2f106c;stroke-width:2;stroke-linecap:round;stroke-linejoin:round;stroke-dasharray:none;stroke-opacity:1"
     d="m 33.0453,14.537213 c -0.58117,0.0078 -1.16395,0.216928 -1.63281,0.638672 l -7.70313,6.929687 c -0.42967,0.386406 -0.71077,0.909082 -0.79687,1.480469 -0.23576,1.562951 -0.58684,4.073404 -0.82032,5.527344 1.84087,1.155847 4.37874,3.117942 5.72266,6.396484 0.15139,0.369319 0.28364,0.757024 0.40039,1.158204 1.23753,-0.27094 2.48237,-0.465961 3.71875,-0.50586 0.16928,-0.0055 0.33895,-0.0083 0.50781,-0.0078 -2.38512,-6.651957 -1.2724,-10.386896 0.0859,-13.154297 0.71755,-1.461891 1.44219,-2.649355 1.76563,-3.900391 0.31584,-1.221715 0.30733,-2.536659 -0.48438,-4.453125 -0.24827,-0.07572 -0.50496,-0.112865 -0.76367,-0.109375 z m 2.99609,2.224609 c 0.11381,1.003162 0.0372,1.910728 -0.17773,2.742188 -0.40372,1.561549 -1.20642,2.836873 -1.88086,4.210937 -1.32174,2.692824 -2.38103,5.790288 0.23633,12.572266 0.71171,0.10576 1.41563,0.27748 2.10937,0.53711 2.59484,0.97113 4.9336,3.13071 6.83008,6.98828 1.53181,-2.29141 2.62311,-4.08421 3.17773,-5.02344 0.26049,-0.44069 0.21261,-0.9937 -0.0957,-1.40234 -0.80336,-1.06449 -2.34017,-3.227344 -3.17773,-5.230469 -0.86091,-2.059366 -0.99105,-5.257059 -0.99805,-6.814453 -0.003,-0.591942 -0.19061,-1.16951 -0.55664,-1.634766 z M 21.65467,30.757916 c -0.67208,1.579011 -3.9414,8.767577 -3.9414,8.767577 -0.41808,0.93182 -0.2252,2.02517 0.48633,2.75781 l 6.50976,6.70508 c 0.0101,0.0104 0.023,0.0172 0.0332,0.0273 2.89039,-5.92912 2.75472,-10.00602 1.57227,-12.890629 -1.06246,-2.591907 -3.02548,-4.278709 -4.66016,-5.367188 z m 10.65625,7.021487 c -1.20403,0.009 -2.45814,0.1897 -3.74609,0.4707 0.45486,3.01325 -0.0867,6.79848 -2.36133,11.46875 0.0395,0.005 0.0773,0.0167 0.11719,0.0195 0,0 3.45428,0.26211 3.7793,0.28711 2.46548,0.18956 5.20571,1.20531 7.57226,1.85742 1.66091,0.46068 3.33259,-0.87199 3.5625,-2.58007 0.15643,-1.16227 0.44684,-2.47238 0.96289,-3.70704 -1.86852,-4.32026 -4.06599,-6.36636 -6.4375,-7.2539 -1.09121,-0.40838 -2.24518,-0.5714 -3.44922,-0.5625 z" /><path
     id="path3"
     style="opacity:0.149515;fill:#2e0d6d;fill-opacity:1;stroke:none;stroke-width:2;stroke-linecap:round;stroke-linejoin:round;stroke-dasharray:none;stroke-opacity:1"
     d="m 33.0453,14.537213 c -0.58117,0.0078 -1.16395,0.216928 -1.63281,0.638672 l -7.70313,6.929687 c -0.42967,0.386406 -0.71077,0.909082 -0.79687,1.480469 -0.23576,1.562951 -0.58684,4.073404 -0.82032,5.527344 1.84087,1.155847 4.37874,3.117942 5.72266,6.396484 0.15139,0.369319 0.28364,0.757024 0.40039,1.158204 1.23753,-0.27094 2.48237,-0.465961 3.71875,-0.50586 0.16928,-0.0055 0.33895,-0.0083 0.50781,-0.0078 -2.38512,-6.651957 -1.2724,-10.386896 0.0859,-13.154297 0.71755,-1.461891 1.44219,-2.649355 1.76563,-3.900391 0.31584,-1.221715 0.30733,-2.536659 -0.48438,-4.453125 -0.24827,-0.07572 -0.50496,-0.112865 -0.76367,-0.109375 z m 2.99609,2.224609 c 0.11381,1.003162 0.0372,1.910728 -0.17773,2.742188 -0.40372,1.561549 -1.20642,2.836873 -1.88086,4.210937 -1.32174,2.692824 -2.38103,5.790288 0.23633,12.572266 0.71171,0.10576 1.41563,0.27748 2.10937,0.53711 2.59484,0.97113 4.9336,3.13071 6.83008,6.98828 1.53181,-2.29141 2.62311,-4.08421 3.17773,-5.02344 0.26049,-0.44069 0.21261,-0.9937 -0.0957,-1.40234 -0.80336,-1.06449 -2.34017,-3.227344 -3.17773,-5.230469 -0.86091,-2.059366 -0.99105,-5.257059 -0.99805,-6.814453 -0.003,-0.591942 -0.19061,-1.16951 -0.55664,-1.634766 z M 21.65467,30.757916 c -0.67208,1.579011 -3.9414,8.767577 -3.9414,8.767577 -0.41808,0.93182 -0.2252,2.02517 0.48633,2.75781 l 6.50976,6.70508 c 0.0101,0.0104 0.023,0.0172 0.0332,0.0273 2.89039,-5.92912 2.75472,-10.00602 1.57227,-12.890629 -1.06246,-2.591907 -3.02548,-4.278709 -4.66016,-5.367188 z m 10.65625,7.021487 c -1.20403,0.009 -2.45814,0.1897 -3.74609,0.4707 0.45486,3.01325 -0.0867,6.79848 -2.36133,11.46875 0.0395,0.005 0.0773,0.0167 0.11719,0.0195 0,0 3.45428,0.26211 3.7793,0.28711 2.46548,0.18956 5.20571,1.20531 7.57226,1.85742 1.66091,0.46068 3.33259,-0.87199 3.5625,-2.58007 0.15643,-1.16227 0.44684,-2.47238 0.96289,-3.70704 -1.86852,-4.32026 -4.06599,-6.36636 -6.4375,-7.2539 -1.09121,-0.40838 -2.24518,-0.5714 -3.44922,-0.5625 z" /><path
     style="opacity:1;fill:url(#linearGradient18);fill-opacity:1;stroke:none;stroke-width:2;stroke-linecap:round;stroke-linejoin:round;stroke-dasharray:none;stroke-opacity:1;paint-order:markers stroke fill"
     d="M 26.2035,48.718737 21.49453,58.57124 48.62061,58.59423 42.19764,44.595661 Z"
     id="path16" /><rect
     style="opacity:0.3;fill:none;stroke:url(#linearGradient3904);stroke-width:1;stroke-linecap:round;stroke-linejoin:round;stroke-miterlimit:4;stroke-dasharray:none;stroke-dashoffset:0;stroke-opacity:1"
     id="rect6741"
     y="5.428761"
     x="5.5"
     ry="5"
     rx="5"
     height="53.142479"
     width="53" /><rect
     style="color:#000000;display:inline;overflow:visible;visibility:visible;opacity:0.5;fill:none;stroke:#2f106c;stroke-width:1;stroke-linecap:round;stroke-linejoin:round;stroke-miterlimit:4;stroke-dasharray:none;stroke-dashoffset:0;stroke-opacity:1;marker:none;enable-background:accumulate"
     id="rect5505-21-9"
     y="4.5"
     x="4.5"
     ry="6"
     rx="6"
     height="55"
     width="55" /><path
     id="path1-0"
     style="fill:#d3bfde;fill-opacity:1;stroke-width:0.0934252"
     d="m 33.0453,13.537097 c -0.58117,0.0078 -1.16395,0.216928 -1.63281,0.638672 l -7.70313,6.929687 c -0.42967,0.386406 -0.71077,0.909082 -0.79687,1.480469 -0.23576,1.562951 -0.58684,4.073404 -0.82032,5.527344 1.84087,1.155847 4.37874,3.117942 5.72266,6.396484 0.15139,0.369319 0.28364,0.757024 0.40039,1.158204 1.23753,-0.27094 2.48237,-0.465961 3.71875,-0.50586 0.16928,-0.0055 0.33895,-0.0083 0.50781,-0.0078 C 30.05666,28.50234 31.16938,24.767401 32.52768,22 c 0.71755,-1.461891 1.44219,-2.649355 1.76563,-3.900391 0.31584,-1.221715 0.30733,-2.536659 -0.48438,-4.453125 -0.24827,-0.07572 -0.50496,-0.112865 -0.76367,-0.109375 z m 2.99609,2.224609 c 0.11381,1.003162 0.0372,1.910728 -0.17773,2.742188 -0.40372,1.561549 -1.20642,2.836873 -1.88086,4.210937 -1.32174,2.692824 -2.38103,5.790288 0.23633,12.572266 0.71171,0.10576 1.41563,0.27748 2.10937,0.53711 2.59484,0.97113 4.9336,3.13071 6.83008,6.98828 1.53181,-2.29141 2.62311,-4.08421 3.17773,-5.02344 0.26049,-0.44069 0.21261,-0.9937 -0.0957,-1.40234 -0.80336,-1.06449 -2.34017,-3.227344 -3.17773,-5.230469 -0.86091,-2.059366 -0.99105,-5.257059 -0.99805,-6.814453 -0.003,-0.591942 -0.19061,-1.16951 -0.55664,-1.634766 z M 21.65467,29.7578 c -0.67208,1.579011 -3.9414,8.767577 -3.9414,8.767577 -0.41808,0.93182 -0.2252,2.02517 0.48633,2.75781 l 6.50976,6.70508 c 0.0101,0.0104 0.023,0.0172 0.0332,0.0273 2.89039,-5.92912 2.75472,-10.00602 1.57227,-12.890629 -1.06246,-2.591907 -3.02548,-4.278709 -4.66016,-5.367188 z m 10.65625,7.021487 c -1.20403,0.009 -2.45814,0.1897 -3.74609,0.4707 0.45486,3.01325 -0.0867,6.79848 -2.36133,11.46875 0.0395,0.005 0.0773,0.0167 0.11719,0.0195 0,0 3.45428,0.26211 3.7793,0.28711 2.46548,0.18956 5.20571,1.20531 7.57226,1.85742 1.66091,0.46068 3.33259,-0.87199 3.5625,-2.58007 0.15643,-1.16227 0.44684,-2.47238 0.96289,-3.70704 -1.86852,-4.32026 -4.06599,-6.36636 -6.4375,-7.2539 -1.09121,-0.40838 -2.24518,-0.5714 -3.44922,-0.5625 z" /><path
     style="opacity:1;fill:url(#linearGradient5);fill-opacity:1;stroke:none;stroke-width:2;stroke-linecap:round;stroke-linejoin:round;stroke-dasharray:none;stroke-opacity:1;paint-order:markers stroke fill"
     d="M 33.80893,13.646484 30.85388,5.428761 c 0,0 -13.84897,0 -20.81414,0 -1.04795,0 -2.06024,0.6119429 -2.87601,1.2697458 C 6.61864,7.138039 6.18469,7.745526 5.92725,8.3967024 5.50262,9.4707772 5.5,10.68019 5.5,11.835155 c 0,3.582452 0,10.333466 0,10.333466 l 16.59217,5.944648 z"
     id="path4" /><path
     style="opacity:0.30029;fill:none;fill-opacity:1;stroke:#ffffff;stroke-width:2;stroke-linecap:round;stroke-linejoin:round;stroke-dasharray:none;stroke-opacity:1;paint-order:markers stroke fill"
     d="M 35.25199,16.101368 31.77997,6.4019234"
     id="path5" /><path
     style="opacity:0.30029;fill:none;fill-opacity:1;stroke:#ffffff;stroke-width:2;stroke-linecap:round;stroke-linejoin:round;stroke-dasharray:none;stroke-opacity:1;paint-order:markers stroke fill"
     d="M 41.86149,23.313227 57.50362,12.542866"
     id="path6" /><path
     style="opacity:0.30029;fill:none;fill-opacity:1;stroke:#ffffff;stroke-width:2;stroke-linecap:round;stroke-linejoin:round;stroke-dasharray:none;stroke-opacity:1;paint-order:markers stroke fill"
     d="m 42.69509,43.580661 6.55028,14.016208"
     id="path7" /><path
     style="opacity:0.30029;fill:none;fill-opacity:1;stroke:#ffffff;stroke-width:2;stroke-linecap:round;stroke-linejoin:round;stroke-dasharray:none;stroke-opacity:1;paint-order:markers stroke fill"
     d="m 25.45398,48.467608 -4.67935,9.252257"
     id="path8" /><path
     style="opacity:0.30029;fill:none;fill-opacity:1;stroke:#ffffff;stroke-width:2;stroke-linecap:round;stroke-linejoin:round;stroke-dasharray:none;stroke-opacity:1;paint-order:markers stroke fill"
     d="M 22.09217,29.113385 6.47885,23.463201"
     id="path9" /><path
     style="opacity:1;fill:url(#linearGradient12);stroke:none;stroke-width:2;stroke-linecap:round;stroke-linejoin:round;stroke-dasharray:none;stroke-opacity:1;paint-order:markers stroke fill"
     d="M 36.04139,15.761706 32.52288,5.428761 c 0,0 13.61735,0 20.45439,0 0.99888,0 2.05869,0.1313033 2.933,0.6143829 0.86437,0.4775952 1.5596,1.2787846 2.05753,2.131615 0.29462,0.5046278 0.45991,1.0972536 0.49993,1.6802212 0.0307,0.4475189 0.0323,1.0929889 0.0323,1.0929889 l -16.99181,11.75905 z"
     id="path10" /><path
     style="opacity:1;fill:url(#linearGradient14);stroke:none;stroke-width:2;stroke-linecap:round;stroke-linejoin:round;stroke-dasharray:none;stroke-opacity:1;paint-order:markers stroke fill"
     d="M 42.06483,24.341785 58.5,12.816387 c 0,0 0,27.297062 0,40.598519 0,0.746782 -0.12622,1.516912 -0.43169,2.198362 -0.33945,0.757276 -0.86112,1.459443 -1.50452,1.983601 -0.44908,0.36586 -1.00682,0.605975 -1.56823,0.7486 -1.398,0.355153 -4.32133,0.225771 -4.32133,0.225771 L 43.15858,42.812487 40.98336,28.113269 Z"
     id="path12" /><path
     style="opacity:1;fill:url(#linearGradient16);fill-opacity:1;stroke:none;stroke-width:2;stroke-linecap:round;stroke-linejoin:round;stroke-dasharray:none;stroke-opacity:1;paint-order:markers stroke fill"
     d="M 21.65467,29.7578 5.5,23.911207 c 0,0 0,19.095345 0,28.643018 0,1.075526 -0.0284,2.247525 0.49179,3.188878 0.34007,0.615388 0.57341,1.24431 1.49222,1.821771 0.80869,0.508257 2.28701,1.006366 2.90585,1.006366 3.02993,0 9.01202,0 9.01202,0 l 5.34068,-10.555673 z"
     id="path14" /><path
     id="path1"
     style="fill:#e8e2ea;fill-opacity:1;stroke-width:0.0934252"
     d="m 33.0703,13.537109 c -0.58117,0.0078 -1.16395,0.216929 -1.63281,0.638672 l -7.70313,6.929688 c -0.42967,0.386405 -0.71077,0.909082 -0.79687,1.480469 -0.19636,1.301726 -0.46182,3.158741 -0.6836,4.617187 1.82842,1.166072 4.27397,3.10604 5.58594,6.306641 0.15139,0.369318 0.28364,0.757023 0.40039,1.158203 1.23753,-0.27094 2.48237,-0.465961 3.71875,-0.50586 0.0579,-0.0019 0.11584,-7.27e-4 0.17383,-0.002 -0.83399,-2.605461 -1.10982,-4.737762 -1.04883,-6.53125 -0.10019,-2.870387 0.63652,-4.93333 1.46875,-6.628906 0.71755,-1.46189 1.44219,-2.649356 1.76563,-3.900391 0.082,-0.317358 0.14164,-0.641618 0.17187,-0.980468 -0.0629,-0.717639 -0.26283,-1.520316 -0.65625,-2.472657 -0.24827,-0.07572 -0.50496,-0.112865 -0.76367,-0.109375 z m 3.03906,2.279297 c -0.003,0.136722 -0.002,0.275196 -0.0117,0.408203 0.0464,0.820131 -0.0279,1.578844 -0.20898,2.279297 -0.40372,1.561548 -1.20642,2.836875 -1.88086,4.210938 -0.66554,1.355926 -1.26281,2.815069 -1.35938,4.794922 0.0626,1.781492 0.50764,3.957993 1.59571,6.777343 0.71171,0.10576 1.41563,0.27748 2.10937,0.53711 2.59484,0.971129 4.9336,3.130715 6.83008,6.988281 1.53181,-2.291408 2.62311,-4.084208 3.17773,-5.023438 0.024,-0.04062 0.0437,-0.08268 0.0625,-0.125 -0.0414,-0.09688 -0.093,-0.190944 -0.1582,-0.277343 -0.80336,-1.064489 -2.34017,-3.227346 -3.17773,-5.230469 -0.8609,-2.059364 -0.99105,-5.257061 -0.99805,-6.814453 -0.003,-0.591942 -0.19061,-1.16951 -0.55663,-1.634766 z M 21.67967,29.757812 c -0.67208,1.57901 -3.9414,8.767579 -3.9414,8.767579 -0.0766,0.170696 -0.12596,0.347063 -0.16211,0.52539 0.0942,0.454427 0.31071,0.884678 0.64844,1.232422 l 6.50976,6.705078 c 0.0101,0.0104 0.023,0.01724 0.0332,0.02734 1.59452,-3.270873 2.26465,-5.97618 2.34961,-8.230469 -0.0574,-1.398508 -0.34675,-2.609724 -0.77734,-3.660156 -1.06246,-2.591904 -3.02548,-4.27871 -4.66016,-5.367188 z m 10.65625,7.021485 c -1.17031,0.0087 -2.38865,0.181604 -3.63867,0.449219 0.0371,0.49771 0.0477,1.014157 0.0293,1.550781 0.0864,2.511064 -0.4857,5.487917 -2.05274,8.984375 0.50247,0.03813 3.15438,0.238889 3.45118,0.261719 2.46547,0.189559 5.20571,1.205312 7.57226,1.857421 1.66091,0.46068 3.33259,-0.871999 3.5625,-2.580078 0.13346,-0.991558 0.37437,-2.088135 0.75977,-3.15625 -1.82407,-4.009472 -3.94791,-5.948974 -6.23438,-6.804687 -1.09121,-0.40838 -2.24518,-0.5714 -3.44922,-0.5625 z" /><path
     id="path11"
     style="fill:#fafafa;fill-opacity:1;stroke-width:0.0934252"
     d="m 33.04492,13.537109 c -0.58117,0.0078 -1.16395,0.216929 -1.63281,0.638672 l -7.70313,6.929688 c -0.42967,0.386405 -0.71077,0.909082 -0.79687,1.480469 -0.15696,1.040504 -0.35643,2.417951 -0.54688,3.707031 1.8124,1.17501 4.1692,3.094133 5.44922,6.216797 0.15139,0.369318 0.28364,0.757023 0.40039,1.158203 1.19714,-0.262098 2.40111,-0.449738 3.59766,-0.498047 -0.67333,-2.416439 -0.85242,-4.407941 -0.72852,-6.085938 -0.19926,-3.109269 0.56794,-5.3004 1.44336,-7.083984 0.71755,-1.46189 1.44219,-2.649356 1.76563,-3.900391 0.0408,-0.157691 0.0765,-0.316624 0.10546,-0.478515 -0.0988,-0.588626 -0.28497,-1.23661 -0.58984,-1.97461 -0.24827,-0.07572 -0.50496,-0.112865 -0.76367,-0.109375 z m 2.99609,2.22461 c 0.11381,1.003161 0.0372,1.910728 -0.17773,2.742187 -0.40372,1.561548 -1.20642,2.836875 -1.88086,4.210938 -0.61957,1.26226 -1.17555,2.618588 -1.32813,4.396484 0.13498,1.666116 0.59655,3.667795 1.56446,6.175781 0.71171,0.10576 1.41563,0.27748 2.10937,0.53711 2.59484,0.971129 4.9336,3.130715 6.83008,6.988281 1.38022,-2.064653 2.34095,-3.631583 2.93555,-4.626953 -0.82989,-1.113486 -2.23649,-3.128515 -3.03125,-5.029297 -0.86091,-2.059364 -0.99105,-5.257061 -0.99805,-6.814453 -0.003,-0.591942 -0.19061,-1.16951 -0.55664,-1.634766 z M 21.65429,29.757812 c -0.67208,1.57901 -3.9414,8.767579 -3.9414,8.767579 -0.002,0.0046 -0.004,0.0091 -0.006,0.01367 0.11759,0.270295 0.27895,0.524582 0.49219,0.744141 l 6.50976,6.705078 c 0.0101,0.0104 0.023,0.01724 0.0332,0.02734 1.47287,-3.021334 2.15708,-5.560298 2.32031,-7.707031 -0.0975,-1.198756 -0.36713,-2.254353 -0.74804,-3.183594 -1.06246,-2.591904 -3.02548,-4.27871 -4.66016,-5.367188 z m 10.65625,7.021485 c -1.15863,0.0087 -2.36464,0.178376 -3.60156,0.441406 0.001,0.351772 -0.006,0.7105 -0.0312,1.080078 -9e-5,0.0013 9e-5,0.0026 0,0.0039 0.16385,2.378238 -0.27493,5.192483 -1.61719,8.490234 0.88504,0.06717 2.77771,0.210365 3.03907,0.230469 2.46547,0.189559 5.20571,1.205312 7.57226,1.857421 1.66091,0.46068 3.33259,-0.871999 3.5625,-2.580078 0.10956,-0.814017 0.29197,-1.699687 0.56445,-2.582031 -1.77942,-3.724229 -3.83432,-5.55378 -6.03906,-6.378906 -1.09121,-0.40838 -2.24518,-0.5714 -3.44922,-0.5625 z" /></svg>
