<?xml version="1.0" encoding="UTF-8" standalone="no"?>
<svg
   version="1.1"
   id="svg4332"
   height="64"
   width="64"
   xml:space="preserve"
   xmlns:xlink="http://www.w3.org/1999/xlink"
   xmlns="http://www.w3.org/2000/svg"
   xmlns:svg="http://www.w3.org/2000/svg"
   xmlns:rdf="http://www.w3.org/1999/02/22-rdf-syntax-ns#"
   xmlns:cc="http://creativecommons.org/ns#"
   xmlns:dc="http://purl.org/dc/elements/1.1/"><defs
     id="defs4334"><linearGradient
       id="linearGradient17"><stop
         style="stop-color:#ffffff;stop-opacity:0.05160975;"
         offset="0"
         id="stop17" /><stop
         style="stop-color:#ffffff;stop-opacity:0;"
         offset="1"
         id="stop18" /></linearGradient><linearGradient
       id="linearGradient15"><stop
         style="stop-color:#ffffff;stop-opacity:0.19748177;"
         offset="0"
         id="stop15" /><stop
         style="stop-color:#ffffff;stop-opacity:0;"
         offset="1"
         id="stop16" /></linearGradient><linearGradient
       id="linearGradient13"><stop
         style="stop-color:#ffffff;stop-opacity:0.14861728;"
         offset="0"
         id="stop13" /><stop
         style="stop-color:#ffffff;stop-opacity:0;"
         offset="1"
         id="stop14" /></linearGradient><linearGradient
       id="linearGradient11"><stop
         style="stop-color:#ffffff;stop-opacity:0.24710621;"
         offset="0"
         id="stop11" /><stop
         style="stop-color:#ffffff;stop-opacity:0;"
         offset="1"
         id="stop12" /></linearGradient><linearGradient
       id="linearGradient4"><stop
         style="stop-color:#ffffff;stop-opacity:0.29560804;"
         offset="0"
         id="stop4" /><stop
         style="stop-color:#ffffff;stop-opacity:0;"
         offset="1"
         id="stop5" /></linearGradient><linearGradient
       id="linearGradient909"><stop
         id="stop901"
         style="stop-color:#4d4d4d;stop-opacity:1;"
         offset="0" /><stop
         id="stop907"
         style="stop-color:#343434;stop-opacity:1;"
         offset="1" /></linearGradient><linearGradient
       y2="42.091705"
       x2="23.99999"
       y1="5.9093657"
       x1="23.99999"
       gradientTransform="matrix(1.4324324,0,0,1.4362832,-2.3783747,-2.4707827)"
       gradientUnits="userSpaceOnUse"
       id="linearGradient3904"
       xlink:href="#linearGradient4270" /><linearGradient
       id="linearGradient4270"><stop
         id="stop4272"
         style="stop-color:#ffffff;stop-opacity:1"
         offset="0" /><stop
         id="stop4274"
         style="stop-color:#ffffff;stop-opacity:0.23529412"
         offset="0.0348749" /><stop
         id="stop4276"
         style="stop-color:#ffffff;stop-opacity:0.15686275"
         offset="0.96216321" /><stop
         id="stop4278"
         style="stop-color:#ffffff;stop-opacity:0.39215687"
         offset="1" /></linearGradient><linearGradient
       xlink:href="#linearGradient909"
       id="linearGradient899"
       x1="31.781376"
       y1="4.9266648"
       x2="31.781376"
       y2="59.148476"
       gradientUnits="userSpaceOnUse" /><linearGradient
       xlink:href="#linearGradient4"
       id="linearGradient5"
       x1="28.165596"
       y1="22.705402"
       x2="10.03974"
       y2="5.428761"
       gradientUnits="userSpaceOnUse" /><linearGradient
       xlink:href="#linearGradient11"
       id="linearGradient12"
       x1="41.50819"
       y1="22.70702"
       x2="41.143955"
       y2="5.428761"
       gradientUnits="userSpaceOnUse" /><linearGradient
       xlink:href="#linearGradient13"
       id="linearGradient14"
       x1="52.226662"
       y1="55.154682"
       x2="55.175838"
       y2="34.679829"
       gradientUnits="userSpaceOnUse" /><linearGradient
       xlink:href="#linearGradient15"
       id="linearGradient16"
       x1="20.774637"
       y1="53.066387"
       x2="15.391004"
       y2="37.661407"
       gradientUnits="userSpaceOnUse" /><linearGradient
       xlink:href="#linearGradient17"
       id="linearGradient18"
       x1="45.40913"
       y1="51.594944"
       x2="27.697275"
       y2="51.974899"
       gradientUnits="userSpaceOnUse" /></defs><metadata
     id="metadata4337"><rdf:RDF><cc:Work
         rdf:about=""><dc:format>image/svg+xml</dc:format><dc:type
           rdf:resource="http://purl.org/dc/dcmitype/StillImage" /></cc:Work></rdf:RDF></metadata><path
     id="path19"
     style="opacity:0.19986723;fill:#0e141f;fill-opacity:1;stroke:#0e141f;stroke-width:2;stroke-linecap:round;stroke-linejoin:round;stroke-dasharray:none;stroke-opacity:1;paint-order:markers stroke fill"
     d="M 9 57 A 4 2 0 0 0 5 59 A 4 2 0 0 0 9 61 L 55 61 A 4 2 0 0 0 59 59 A 4 2 0 0 0 55 57 L 9 57 z " /><path
     id="rect18"
     style="opacity:0.19986723;fill:#273445;fill-opacity:1;stroke:none;stroke-width:2;stroke-linecap:round;stroke-linejoin:round;stroke-dasharray:none;stroke-opacity:1;paint-order:markers stroke fill"
     d="M 9 57 A 4 2 0 0 0 5 59 A 4 2 0 0 0 9 61 L 55 61 A 4 2 0 0 0 59 59 A 4 2 0 0 0 55 57 L 9 57 z " /><path
     id="path18"
     style="opacity:0.19986723;fill:#485a6c;fill-opacity:1;stroke:none;stroke-width:2;stroke-linecap:round;stroke-linejoin:round;stroke-dasharray:none;stroke-opacity:1;paint-order:markers stroke fill"
     d="m 9,58 h 46 c 1.989579,0 3,0.773649 3,1 0,0.226351 -1.010421,1 -3,1 H 9 C 7.0104215,60 6,59.226351 6,59 6,58.773649 7.0104215,58 9,58 Z" /><rect
     width="55"
     height="55"
     rx="6"
     ry="6"
     x="4.5"
     y="4.5"
     id="rect5505-21-3-8-5-2-9"
     style="color:#000000;display:inline;overflow:visible;visibility:visible;fill:url(#linearGradient899);fill-opacity:1;fill-rule:nonzero;stroke:none;stroke-width:1;marker:none;enable-background:accumulate" /><path
     id="path2"
     style="fill:#050406;fill-opacity:1;stroke-width:2;stroke:#000000;stroke-opacity:1;stroke-dasharray:none;stroke-linejoin:round;stroke-linecap:round;opacity:0.15042606"
     d="m 33.045301,14.537213 c -0.58117,0.0078 -1.16395,0.216928 -1.63281,0.638672 l -7.70313,6.929687 c -0.42967,0.386406 -0.71077,0.909082 -0.79687,1.480469 -0.23576,1.562951 -0.58684,4.073404 -0.82032,5.527344 1.84087,1.155847 4.37874,3.117942 5.72266,6.396484 0.15139,0.369319 0.28364,0.757024 0.40039,1.158204 1.23753,-0.27094 2.48237,-0.465961 3.71875,-0.50586 0.16928,-0.0055 0.33895,-0.0083 0.50781,-0.0078 -2.38512,-6.651957 -1.2724,-10.386896 0.0859,-13.154297 0.71755,-1.461891 1.44219,-2.649355 1.76563,-3.900391 0.31584,-1.221715 0.30733,-2.536659 -0.48438,-4.453125 -0.24827,-0.07572 -0.50496,-0.112865 -0.76367,-0.109375 z m 2.99609,2.224609 c 0.11381,1.003162 0.0372,1.910728 -0.17773,2.742188 -0.40372,1.561549 -1.20642,2.836873 -1.88086,4.210937 -1.32174,2.692824 -2.38103,5.790288 0.23633,12.572266 0.71171,0.10576 1.41563,0.27748 2.10937,0.53711 2.59484,0.97113 4.9336,3.13071 6.83008,6.98828 1.53181,-2.29141 2.62311,-4.08421 3.17773,-5.02344 0.26049,-0.44069 0.21261,-0.9937 -0.0957,-1.40234 -0.80336,-1.06449 -2.34017,-3.227344 -3.17773,-5.230469 -0.86091,-2.059366 -0.99105,-5.257059 -0.99805,-6.814453 -0.003,-0.591942 -0.19061,-1.16951 -0.55664,-1.634766 z m -14.38672,13.996094 c -0.67208,1.579011 -3.9414,8.767577 -3.9414,8.767577 -0.41808,0.93182 -0.2252,2.02517 0.48633,2.75781 l 6.50976,6.70508 c 0.0101,0.0104 0.023,0.0172 0.0332,0.0273 2.89039,-5.92912 2.75472,-10.00602 1.57227,-12.890629 -1.06246,-2.591907 -3.02548,-4.278709 -4.66016,-5.367188 z m 10.65625,7.021487 c -1.20403,0.009 -2.45814,0.1897 -3.74609,0.4707 0.45486,3.01325 -0.0867,6.79848 -2.36133,11.46875 0.0395,0.005 0.0773,0.0167 0.11719,0.0195 0,0 3.45428,0.26211 3.7793,0.28711 2.46548,0.18956 5.20571,1.20531 7.57226,1.85742 1.66091,0.46068 3.33259,-0.87199 3.5625,-2.58007 0.15643,-1.16227 0.44684,-2.47238 0.96289,-3.70704 -1.86852,-4.32026 -4.06599,-6.36636 -6.4375,-7.2539 -1.09121,-0.40838 -2.24518,-0.5714 -3.44922,-0.5625 z" /><path
     style="opacity:1;fill:url(#linearGradient12);stroke:none;stroke-width:2;stroke-linecap:round;stroke-linejoin:round;stroke-dasharray:none;stroke-opacity:1;paint-order:markers stroke fill"
     d="M 36.041391,15.761706 32.522884,5.428761 c 0,0 13.617349,0 20.454389,0 0.998885,0 2.058695,0.1313033 2.932998,0.6143829 0.864377,0.4775952 1.559607,1.2787846 2.057528,2.131615 0.294624,0.5046278 0.459913,1.0972536 0.499932,1.6802212 C 58.498452,10.302499 58.5,10.947969 58.5,10.947969 l -16.991809,11.75905 z"
     id="path10" /><path
     style="opacity:0.15027881;fill:none;fill-opacity:1;stroke:#ffffff;stroke-width:2;stroke-linecap:round;stroke-linejoin:round;stroke-dasharray:none;stroke-opacity:1;paint-order:markers stroke fill"
     d="M 41.861496,23.313227 57.503619,12.542866"
     id="path6" /><path
     id="path3"
     style="fill:#000000;fill-opacity:1;stroke-width:2;stroke:none;stroke-opacity:1;stroke-dasharray:none;stroke-linejoin:round;stroke-linecap:round;opacity:0.14951537"
     d="m 33.045301,14.537213 c -0.58117,0.0078 -1.16395,0.216928 -1.63281,0.638672 l -7.70313,6.929687 c -0.42967,0.386406 -0.71077,0.909082 -0.79687,1.480469 -0.23576,1.562951 -0.58684,4.073404 -0.82032,5.527344 1.84087,1.155847 4.37874,3.117942 5.72266,6.396484 0.15139,0.369319 0.28364,0.757024 0.40039,1.158204 1.23753,-0.27094 2.48237,-0.465961 3.71875,-0.50586 0.16928,-0.0055 0.33895,-0.0083 0.50781,-0.0078 -2.38512,-6.651957 -1.2724,-10.386896 0.0859,-13.154297 0.71755,-1.461891 1.44219,-2.649355 1.76563,-3.900391 0.31584,-1.221715 0.30733,-2.536659 -0.48438,-4.453125 -0.24827,-0.07572 -0.50496,-0.112865 -0.76367,-0.109375 z m 2.99609,2.224609 c 0.11381,1.003162 0.0372,1.910728 -0.17773,2.742188 -0.40372,1.561549 -1.20642,2.836873 -1.88086,4.210937 -1.32174,2.692824 -2.38103,5.790288 0.23633,12.572266 0.71171,0.10576 1.41563,0.27748 2.10937,0.53711 2.59484,0.97113 4.9336,3.13071 6.83008,6.98828 1.53181,-2.29141 2.62311,-4.08421 3.17773,-5.02344 0.26049,-0.44069 0.21261,-0.9937 -0.0957,-1.40234 -0.80336,-1.06449 -2.34017,-3.227344 -3.17773,-5.230469 -0.86091,-2.059366 -0.99105,-5.257059 -0.99805,-6.814453 -0.003,-0.591942 -0.19061,-1.16951 -0.55664,-1.634766 z m -14.38672,13.996094 c -0.67208,1.579011 -3.9414,8.767577 -3.9414,8.767577 -0.41808,0.93182 -0.2252,2.02517 0.48633,2.75781 l 6.50976,6.70508 c 0.0101,0.0104 0.023,0.0172 0.0332,0.0273 2.89039,-5.92912 2.75472,-10.00602 1.57227,-12.890629 -1.06246,-2.591907 -3.02548,-4.278709 -4.66016,-5.367188 z m 10.65625,7.021487 c -1.20403,0.009 -2.45814,0.1897 -3.74609,0.4707 0.45486,3.01325 -0.0867,6.79848 -2.36133,11.46875 0.0395,0.005 0.0773,0.0167 0.11719,0.0195 0,0 3.45428,0.26211 3.7793,0.28711 2.46548,0.18956 5.20571,1.20531 7.57226,1.85742 1.66091,0.46068 3.33259,-0.87199 3.5625,-2.58007 0.15643,-1.16227 0.44684,-2.47238 0.96289,-3.70704 -1.86852,-4.32026 -4.06599,-6.36636 -6.4375,-7.2539 -1.09121,-0.40838 -2.24518,-0.5714 -3.44922,-0.5625 z" /><rect
     style="opacity:0.3;fill:none;stroke:url(#linearGradient3904);stroke-width:1;stroke-linecap:round;stroke-linejoin:round;stroke-miterlimit:4;stroke-dasharray:none;stroke-dashoffset:0;stroke-opacity:1"
     id="rect6741"
     y="5.428761"
     x="5.5"
     ry="5"
     rx="5"
     height="53.142479"
     width="53" /><rect
     style="color:#000000;display:inline;overflow:visible;visibility:visible;opacity:0.5;fill:none;stroke:#000000;stroke-width:1;stroke-linecap:round;stroke-linejoin:round;stroke-miterlimit:4;stroke-dasharray:none;stroke-dashoffset:0;stroke-opacity:1;marker:none;enable-background:accumulate"
     id="rect5505-21-9"
     y="4.5"
     x="4.5"
     ry="6"
     rx="6"
     height="55"
     width="55" /><path
     style="opacity:0.14950551;fill:none;fill-opacity:1;stroke:#ffffff;stroke-width:2;stroke-linecap:round;stroke-linejoin:round;stroke-dasharray:none;stroke-opacity:1;paint-order:markers stroke fill"
     d="M 42.695093,43.580661 49.24537,57.596869"
     id="path7" /><path
     style="opacity:1;fill:url(#linearGradient14);stroke:none;stroke-width:2;stroke-linecap:round;stroke-linejoin:round;stroke-dasharray:none;stroke-opacity:1;paint-order:markers stroke fill"
     d="M 42.064831,24.341785 58.5,12.816387 c 0,0 0,27.297062 0,40.598519 0,0.746782 -0.126219,1.516912 -0.431683,2.198362 -0.339453,0.757276 -0.861127,1.459443 -1.504519,1.983601 -0.449085,0.36586 -1.006822,0.605975 -1.568239,0.7486 -1.397998,0.355153 -4.321321,0.225771 -4.321321,0.225771 L 43.158581,42.812487 40.983361,28.113269 Z"
     id="path12" /><path
     style="opacity:0.14992341;fill:none;fill-opacity:1;stroke:#ffffff;stroke-width:2;stroke-linecap:round;stroke-linejoin:round;stroke-dasharray:none;stroke-opacity:1;paint-order:markers stroke fill"
     d="M 35.251991,16.101368 31.779973,6.4019234"
     id="path5" /><path
     style="opacity:1;fill:url(#linearGradient5);fill-opacity:1;stroke:none;stroke-width:2;stroke-linecap:round;stroke-linejoin:round;stroke-dasharray:none;stroke-opacity:1;paint-order:markers stroke fill"
     d="M 33.808931,13.646484 30.853887,5.428761 c 0,0 -13.848969,0 -20.814147,0 -1.0479443,0 -2.0602384,0.6119429 -2.8760095,1.2697458 C 6.6186468,7.138039 6.1846912,7.745526 5.9272538,8.3967024 5.5026269,9.4707772 5.5,10.68019 5.5,11.835155 c 0,3.582452 0,10.333466 0,10.333466 l 16.592171,5.944648 z"
     id="path4" /><path
     style="opacity:0.15046283;fill:none;fill-opacity:1;stroke:#ffffff;stroke-width:2;stroke-linecap:round;stroke-linejoin:round;stroke-dasharray:none;stroke-opacity:1;paint-order:markers stroke fill"
     d="M 22.092171,29.113385 6.4788555,23.463201"
     id="path9" /><path
     style="opacity:1;fill:url(#linearGradient16);fill-opacity:1;stroke:none;stroke-width:2;stroke-linecap:round;stroke-linejoin:round;stroke-dasharray:none;stroke-opacity:1;paint-order:markers stroke fill"
     d="M 21.654671,29.7578 5.5,23.911207 c 0,0 0,19.095345 0,28.643018 0,1.075526 -0.02841,2.247525 0.4917923,3.188878 0.3400704,0.615388 0.5734113,1.24431 1.4922176,1.821771 0.8086948,0.508257 2.2870178,1.006366 2.9058571,1.006366 3.029931,0 9.012012,0 9.012012,0 l 5.340682,-10.555673 z"
     id="path14" /><path
     style="opacity:1;fill:url(#linearGradient18);fill-opacity:1;stroke:none;stroke-width:2;stroke-linecap:round;stroke-linejoin:round;stroke-dasharray:none;stroke-opacity:1;paint-order:markers stroke fill"
     d="M 26.203501,48.718737 21.494538,58.57124 48.620616,58.59423 42.197641,44.595661 Z"
     id="path16" /><path
     style="opacity:0.14985107;fill:none;fill-opacity:1;stroke:#ffffff;stroke-width:2;stroke-linecap:round;stroke-linejoin:round;stroke-dasharray:none;stroke-opacity:1;paint-order:markers stroke fill"
     d="m 25.453988,48.467608 -4.67935,9.252257"
     id="path8" /><path
     id="path1-0"
     style="fill:#b28bff;fill-opacity:1;stroke-width:0.0934252"
     d="m 33.045301,13.537097 c -0.58117,0.0078 -1.16395,0.216928 -1.63281,0.638672 l -7.70313,6.929687 c -0.42967,0.386406 -0.71077,0.909082 -0.79687,1.480469 -0.23576,1.562951 -0.58684,4.073404 -0.82032,5.527344 1.84087,1.155847 4.37874,3.117942 5.72266,6.396484 0.15139,0.369319 0.28364,0.757024 0.40039,1.158204 1.23753,-0.27094 2.48237,-0.465961 3.71875,-0.50586 0.16928,-0.0055 0.33895,-0.0083 0.50781,-0.0078 -2.38512,-6.651957 -1.2724,-10.386896 0.0859,-13.154297 0.71755,-1.461891 1.44219,-2.649355 1.76563,-3.900391 0.31584,-1.221715 0.30733,-2.536659 -0.48438,-4.453125 -0.24827,-0.07572 -0.50496,-0.112865 -0.76367,-0.109375 z m 2.99609,2.224609 c 0.11381,1.003162 0.0372,1.910728 -0.17773,2.742188 -0.40372,1.561549 -1.20642,2.836873 -1.88086,4.210937 -1.32174,2.692824 -2.38103,5.790288 0.23633,12.572266 0.71171,0.10576 1.41563,0.27748 2.10937,0.53711 2.59484,0.97113 4.9336,3.13071 6.83008,6.98828 1.53181,-2.29141 2.62311,-4.08421 3.17773,-5.02344 0.26049,-0.44069 0.21261,-0.9937 -0.0957,-1.40234 -0.80336,-1.06449 -2.34017,-3.227344 -3.17773,-5.230469 -0.86091,-2.059366 -0.99105,-5.257059 -0.99805,-6.814453 -0.003,-0.591942 -0.19061,-1.16951 -0.55664,-1.634766 z M 21.654671,29.7578 c -0.67208,1.579011 -3.9414,8.767577 -3.9414,8.767577 -0.41808,0.93182 -0.2252,2.02517 0.48633,2.75781 l 6.50976,6.70508 c 0.0101,0.0104 0.023,0.0172 0.0332,0.0273 2.89039,-5.92912 2.75472,-10.00602 1.57227,-12.890629 -1.06246,-2.591907 -3.02548,-4.278709 -4.66016,-5.367188 z m 10.65625,7.021487 c -1.20403,0.009 -2.45814,0.1897 -3.74609,0.4707 0.45486,3.01325 -0.0867,6.79848 -2.36133,11.46875 0.0395,0.005 0.0773,0.0167 0.11719,0.0195 0,0 3.45428,0.26211 3.7793,0.28711 2.46548,0.18956 5.20571,1.20531 7.57226,1.85742 1.66091,0.46068 3.33259,-0.87199 3.5625,-2.58007 0.15643,-1.16227 0.44684,-2.47238 0.96289,-3.70704 -1.86852,-4.32026 -4.06599,-6.36636 -6.4375,-7.2539 -1.09121,-0.40838 -2.24518,-0.5714 -3.44922,-0.5625 z" /></svg>
