<?xml version="1.0" encoding="UTF-8" standalone="no"?>
<svg
   version="1.1"
   width="64"
   height="64"
   id="svg6649"
   xml:space="preserve"
   xmlns:xlink="http://www.w3.org/1999/xlink"
   xmlns="http://www.w3.org/2000/svg"
   xmlns:svg="http://www.w3.org/2000/svg"
   xmlns:rdf="http://www.w3.org/1999/02/22-rdf-syntax-ns#"
   xmlns:cc="http://creativecommons.org/ns#"
   xmlns:dc="http://purl.org/dc/elements/1.1/"><defs
     id="defs6651"><linearGradient
       id="linearGradient62"><stop
         style="stop-color:#ffffff;stop-opacity:1;"
         offset="0"
         id="stop65" /><stop
         style="stop-color:#ffffff;stop-opacity:0;"
         offset="1"
         id="stop66" /></linearGradient><linearGradient
       id="linearGradient57"><stop
         style="stop-color:#ffffff;stop-opacity:1;"
         offset="0"
         id="stop57" /><stop
         style="stop-color:#ffffff;stop-opacity:0;"
         offset="1"
         id="stop58" /></linearGradient><linearGradient
       id="linearGradient51"><stop
         style="stop-color:#ffffff;stop-opacity:1;"
         offset="0"
         id="stop53" /><stop
         style="stop-color:#ffffff;stop-opacity:0;"
         offset="1"
         id="stop54" /></linearGradient><linearGradient
       id="linearGradient46"><stop
         style="stop-color:#ffffff;stop-opacity:1;"
         offset="0"
         id="stop47" /><stop
         style="stop-color:#ffffff;stop-opacity:0;"
         offset="1"
         id="stop48" /></linearGradient><linearGradient
       id="linearGradient42"><stop
         style="stop-color:#ffffff;stop-opacity:1;"
         offset="0"
         id="stop42" /><stop
         style="stop-color:#ffffff;stop-opacity:0;"
         offset="1"
         id="stop43" /></linearGradient><linearGradient
       id="linearGradient41"><stop
         style="stop-color:#ffffff;stop-opacity:0.44999999;"
         offset="0"
         id="stop40" /><stop
         style="stop-color:#6c31e3;stop-opacity:0;"
         offset="0.97798479"
         id="stop41" /></linearGradient><linearGradient
       id="linearGradient39"><stop
         style="stop-color:#ffffff;stop-opacity:0.4499999;"
         offset="0"
         id="stop36" /><stop
         style="stop-color:#6c31e3;stop-opacity:0;"
         offset="0.9955582"
         id="stop37" /></linearGradient><linearGradient
       id="linearGradient28"><stop
         style="stop-color:#ffffff;stop-opacity:0.3485899;"
         offset="0"
         id="stop26" /><stop
         style="stop-color:#6c31e3;stop-opacity:0;"
         offset="0.89464384"
         id="stop28" /></linearGradient><linearGradient
       id="linearGradient25"><stop
         style="stop-color:#ffffff;stop-opacity:0.3485899;"
         offset="0"
         id="stop24" /><stop
         style="stop-color:#6c31e3;stop-opacity:0;"
         offset="0.86935449"
         id="stop25" /></linearGradient><linearGradient
       id="linearGradient23"><stop
         style="stop-color:#ffffff;stop-opacity:0.3485899;"
         offset="0"
         id="stop22" /><stop
         style="stop-color:#6c31e3;stop-opacity:0;"
         offset="0.76020056"
         id="stop23" /></linearGradient><linearGradient
       id="linearGradient11"><stop
         style="stop-color:#ffffff;stop-opacity:0.39874125;"
         offset="0"
         id="stop11" /><stop
         style="stop-color:#ffffff;stop-opacity:0;"
         offset="1"
         id="stop12" /></linearGradient><linearGradient
       id="linearGradient909"><stop
         id="stop901"
         style="stop-color:#9e79e9;stop-opacity:1;"
         offset="0" /><stop
         id="stop907"
         style="stop-color:#6c31e3;stop-opacity:1;"
         offset="1" /></linearGradient><linearGradient
       y2="42.091705"
       x2="23.99999"
       y1="5.9093657"
       x1="23.99999"
       gradientTransform="matrix(1.4324324,0,0,1.4362832,-2.37838,-2.4707827)"
       gradientUnits="userSpaceOnUse"
       id="linearGradient3904"
       xlink:href="#linearGradient4270" /><linearGradient
       id="linearGradient4270"><stop
         id="stop4272"
         style="stop-color:#ffffff;stop-opacity:1"
         offset="0" /><stop
         id="stop4274"
         style="stop-color:#ffffff;stop-opacity:0.23529412"
         offset="0.08626948" /><stop
         id="stop4276"
         style="stop-color:#ffffff;stop-opacity:0.15686275"
         offset="0.9137004" /><stop
         id="stop4278"
         style="stop-color:#ffffff;stop-opacity:0.39215687"
         offset="1" /></linearGradient><linearGradient
       xlink:href="#linearGradient909"
       id="linearGradient899"
       x1="31.781376"
       y1="4.9266648"
       x2="31.781376"
       y2="59.148476"
       gradientUnits="userSpaceOnUse" /><linearGradient
       xlink:href="#linearGradient11"
       id="linearGradient12"
       x1="46.09375"
       y1="19.866787"
       x2="42.25"
       y2="6"
       gradientUnits="userSpaceOnUse" /><linearGradient
       xlink:href="#linearGradient53"
       id="linearGradient14"
       x1="45.584633"
       y1="56.5"
       x2="52.714611"
       y2="18.829021"
       gradientUnits="userSpaceOnUse" /><linearGradient
       xlink:href="#linearGradient25"
       id="linearGradient16"
       x1="24.742559"
       y1="55.557034"
       x2="5"
       y2="19.013481"
       gradientUnits="userSpaceOnUse" /><linearGradient
       xlink:href="#linearGradient23"
       id="linearGradient18"
       x1="48.11047"
       y1="63.240711"
       x2="19.293114"
       y2="50.974781"
       gradientUnits="userSpaceOnUse" /><linearGradient
       id="linearGradient53"><stop
         style="stop-color:#ffffff;stop-opacity:0.3485899;"
         offset="0"
         id="stop51" /><stop
         style="stop-color:#6c31e3;stop-opacity:0;"
         offset="0.8705101"
         id="stop52" /></linearGradient><linearGradient
       id="linearGradient3688-166-749"><stop
         id="stop2883"
         style="stop-color:#181818;stop-opacity:1"
         offset="0" /><stop
         id="stop2885"
         style="stop-color:#181818;stop-opacity:0"
         offset="1" /></linearGradient><linearGradient
       id="linearGradient3702-501-757"><stop
         id="stop2895"
         style="stop-color:#181818;stop-opacity:0"
         offset="0" /><stop
         id="stop2897"
         style="stop-color:#181818;stop-opacity:1"
         offset="0.5" /><stop
         id="stop2899"
         style="stop-color:#181818;stop-opacity:0"
         offset="1" /></linearGradient><radialGradient
       xlink:href="#linearGradient3688-166-749"
       id="radialGradient11"
       gradientUnits="userSpaceOnUse"
       gradientTransform="matrix(2.4045407,0,0,0.99999998,41.985755,15.500001)"
       cx="4.9929786"
       cy="43.5"
       fx="4.9929786"
       fy="43.5"
       r="2.5" /><radialGradient
       xlink:href="#linearGradient3688-166-749"
       id="radialGradient12"
       gradientUnits="userSpaceOnUse"
       gradientTransform="matrix(2.4045407,0,0,0.99999998,-22.014244,-102.5)"
       cx="4.9929786"
       cy="43.5"
       fx="4.9929786"
       fy="43.5"
       r="2.5" /><linearGradient
       xlink:href="#linearGradient3702-501-757"
       id="linearGradient19"
       gradientUnits="userSpaceOnUse"
       gradientTransform="matrix(1.5714286,0,0,0.7142857,-5.7142853,27.928572)"
       x1="25.058096"
       y1="47.027729"
       x2="25.058096"
       y2="39.999443" /><linearGradient
       xlink:href="#linearGradient28"
       id="linearGradient24"
       gradientUnits="userSpaceOnUse"
       x1="24.4251"
       y1="60"
       x2="43.831261"
       y2="51.974899" /><linearGradient
       xlink:href="#linearGradient39"
       id="linearGradient35"
       x1="20.165476"
       y1="27.381336"
       x2="22.988335"
       y2="6"
       gradientUnits="userSpaceOnUse" /><linearGradient
       xlink:href="#linearGradient41"
       id="linearGradient40"
       gradientUnits="userSpaceOnUse"
       x1="29.596573"
       y1="11.621723"
       x2="2.5485694"
       y2="12.375486" /><linearGradient
       xlink:href="#linearGradient42"
       id="linearGradient43"
       x1="34.490219"
       y1="16.119095"
       x2="32"
       y2="5.5"
       gradientUnits="userSpaceOnUse" /><linearGradient
       xlink:href="#linearGradient46"
       id="linearGradient49"
       x1="47.37701"
       y1="25.2936"
       x2="46.79213"
       y2="16.615133"
       gradientUnits="userSpaceOnUse" /><linearGradient
       xlink:href="#linearGradient51"
       id="linearGradient54"
       x1="18.690283"
       y1="29.439678"
       x2="5.3324304"
       y2="21.514944"
       gradientUnits="userSpaceOnUse" /><linearGradient
       xlink:href="#linearGradient57"
       id="linearGradient61"
       x1="42.897449"
       y1="41.483658"
       x2="47.200756"
       y2="61.836483"
       gradientUnits="userSpaceOnUse" /><linearGradient
       xlink:href="#linearGradient62"
       id="linearGradient66"
       x1="26.123343"
       y1="46.94276"
       x2="19.78857"
       y2="61.580463"
       gradientUnits="userSpaceOnUse" /></defs><metadata
     id="metadata6654"><rdf:RDF><cc:Work
         rdf:about=""><dc:format>image/svg+xml</dc:format><dc:type
           rdf:resource="http://purl.org/dc/dcmitype/StillImage" /></cc:Work></rdf:RDF></metadata><g
     id="g11"><rect
       style="opacity:0.6;fill:url(#radialGradient11);fill-opacity:1;stroke:none;stroke-width:1.06199"
       id="rect9"
       y="56.5"
       x="54"
       height="5"
       width="6" /><rect
       style="opacity:0.6;fill:url(#radialGradient12);fill-opacity:1;stroke:none;stroke-width:1.06199"
       id="rect10"
       transform="scale(-1)"
       y="-61.5"
       x="-10"
       height="5"
       width="6" /><rect
       style="opacity:0.6;fill:url(#linearGradient19);fill-opacity:1;stroke:none;stroke-width:1.06199"
       id="rect11"
       y="56.5"
       x="10"
       height="5.0000005"
       width="44" /></g><rect
     width="55"
     height="55"
     rx="6"
     ry="6"
     x="4.5"
     y="4.5"
     id="rect5505-21-3-8-5-2-9"
     style="color:#000000;display:inline;overflow:visible;visibility:visible;fill:url(#linearGradient899);fill-opacity:1;fill-rule:nonzero;stroke:none;stroke-width:1;marker:none;enable-background:accumulate" /><path
     style="opacity:1;fill:url(#linearGradient24);fill-opacity:1;stroke:none;stroke-width:2;stroke-linecap:round;stroke-linejoin:round;stroke-dasharray:none;stroke-opacity:1;paint-order:markers stroke fill"
     d="M 26.2035,48.718737 20,58 H 50 L 42.19764,44.595661 Z"
     id="path23" /><path
     style="opacity:1;fill:url(#linearGradient35);stroke:none;stroke-width:2;stroke-linecap:round;stroke-linejoin:round;stroke-dasharray:none;stroke-opacity:1;paint-order:markers stroke fill"
     d="M 33.80893,13.646484 31,6 H 10.5 A 4.5,4.5 0 0 0 6,10.5 V 22 l 16.09217,6.113269 z"
     id="path4" /><path
     style="opacity:1;fill:url(#linearGradient40);fill-opacity:0.447146;stroke:none;stroke-width:2;stroke-linecap:round;stroke-linejoin:round;stroke-dasharray:none;stroke-opacity:1;paint-order:markers stroke fill"
     d="M 33.80893,13.646484 31,6 H 10.5 C 8.0147186,6 6,8.0147186 6,10.5 V 22 l 16.09217,6.113269 z"
     id="path39" /><path
     style="opacity:1;fill:url(#linearGradient16);stroke:none;stroke-width:2;stroke-linecap:round;stroke-linejoin:round;stroke-dasharray:none;stroke-opacity:1;paint-order:markers stroke fill"
     d="M 21.65467,29.7578 6,22 V 53.5 C 6,55.985281 8.0147186,58 10.5,58 H 20 c 2.083247,-3.09627 3.905031,-6.313216 4.74256,-9.984433 z"
     id="path14" /><path
     style="opacity:1;fill:url(#linearGradient18);stroke:none;stroke-width:2;stroke-linecap:round;stroke-linejoin:round;stroke-dasharray:none;stroke-opacity:1;paint-order:markers stroke fill"
     d="M 26.2035,48.718737 20,58 H 50 L 42.19764,44.595661 Z"
     id="path16" /><path
     style="opacity:1;fill:url(#linearGradient14);stroke:none;stroke-width:2;stroke-linecap:round;stroke-linejoin:round;stroke-dasharray:none;stroke-opacity:1;paint-order:markers stroke fill"
     d="M 42.06483,24.341785 58,17 V 53.5 A 4.5,4.5 0 0 1 53.5,58 H 50 L 43.15858,42.812487 40.98336,28.113269 Z"
     id="path12" /><path
     style="opacity:1;fill:url(#linearGradient12);stroke:none;stroke-width:2;stroke-linecap:round;stroke-linejoin:round;stroke-dasharray:none;stroke-opacity:1;paint-order:markers stroke fill"
     d="M 36.04139,15.761706 31,6 H 53.5 A 4.5,4.5 0 0 1 58,10.5 V 17 l -16.49178,5.707019 z"
     id="path10" /><path
     id="path2"
     style="opacity:0.150426;fill:#2e0d6d;fill-opacity:1;stroke:#2f106c;stroke-width:2;stroke-linecap:round;stroke-linejoin:round;stroke-dasharray:none;stroke-opacity:1"
     d="m 33.0453,14.537213 c -0.58117,0.0078 -1.16395,0.216928 -1.63281,0.638672 l -7.70313,6.929687 c -0.42967,0.386406 -0.71077,0.909082 -0.79687,1.480469 -0.23576,1.562951 -0.58684,4.073404 -0.82032,5.527344 1.84087,1.155847 4.37874,3.117942 5.72266,6.396484 0.15139,0.369319 0.28364,0.757024 0.40039,1.158204 1.23753,-0.27094 2.48237,-0.465961 3.71875,-0.50586 0.16928,-0.0055 0.33895,-0.0083 0.50781,-0.0078 -2.38512,-6.651957 -1.2724,-10.386896 0.0859,-13.154297 0.71755,-1.461891 1.44219,-2.649355 1.76563,-3.900391 0.31584,-1.221715 0.30733,-2.536659 -0.48438,-4.453125 -0.24827,-0.07572 -0.50496,-0.112865 -0.76367,-0.109375 z m 2.99609,2.224609 c 0.11381,1.003162 0.0372,1.910728 -0.17773,2.742188 -0.40372,1.561549 -1.20642,2.836873 -1.88086,4.210937 -1.32174,2.692824 -2.38103,5.790288 0.23633,12.572266 0.71171,0.10576 1.41563,0.27748 2.10937,0.53711 2.59484,0.97113 4.9336,3.13071 6.83008,6.98828 1.53181,-2.29141 2.62311,-4.08421 3.17773,-5.02344 0.26049,-0.44069 0.21261,-0.9937 -0.0957,-1.40234 -0.80336,-1.06449 -2.34017,-3.227344 -3.17773,-5.230469 -0.86091,-2.059366 -0.99105,-5.257059 -0.99805,-6.814453 -0.003,-0.591942 -0.19061,-1.16951 -0.55664,-1.634766 z M 21.65467,30.757916 c -0.67208,1.579011 -3.9414,8.767577 -3.9414,8.767577 -0.41808,0.93182 -0.2252,2.02517 0.48633,2.75781 l 6.50976,6.70508 c 0.0101,0.0104 0.023,0.0172 0.0332,0.0273 2.89039,-5.92912 2.75472,-10.00602 1.57227,-12.890629 -1.06246,-2.591907 -3.02548,-4.278709 -4.66016,-5.367188 z m 10.65625,7.021487 c -1.20403,0.009 -2.45814,0.1897 -3.74609,0.4707 0.45486,3.01325 -0.0867,6.79848 -2.36133,11.46875 0.0395,0.005 0.0773,0.0167 0.11719,0.0195 0,0 3.45428,0.26211 3.7793,0.28711 2.46548,0.18956 5.20571,1.20531 7.57226,1.85742 1.66091,0.46068 3.33259,-0.87199 3.5625,-2.58007 0.15643,-1.16227 0.44684,-2.47238 0.96289,-3.70704 -1.86852,-4.32026 -4.06599,-6.36636 -6.4375,-7.2539 -1.09121,-0.40838 -2.24518,-0.5714 -3.44922,-0.5625 z" /><path
     id="path3"
     style="opacity:0.149515;fill:#2e0d6d;fill-opacity:1;stroke:none;stroke-width:2;stroke-linecap:round;stroke-linejoin:round;stroke-dasharray:none;stroke-opacity:1"
     d="m 33.0453,14.537213 c -0.58117,0.0078 -1.16395,0.216928 -1.63281,0.638672 l -7.70313,6.929687 c -0.42967,0.386406 -0.71077,0.909082 -0.79687,1.480469 -0.23576,1.562951 -0.58684,4.073404 -0.82032,5.527344 1.84087,1.155847 4.37874,3.117942 5.72266,6.396484 0.15139,0.369319 0.28364,0.757024 0.40039,1.158204 1.23753,-0.27094 2.48237,-0.465961 3.71875,-0.50586 0.16928,-0.0055 0.33895,-0.0083 0.50781,-0.0078 -2.38512,-6.651957 -1.2724,-10.386896 0.0859,-13.154297 0.71755,-1.461891 1.44219,-2.649355 1.76563,-3.900391 0.31584,-1.221715 0.30733,-2.536659 -0.48438,-4.453125 -0.24827,-0.07572 -0.50496,-0.112865 -0.76367,-0.109375 z m 2.99609,2.224609 c 0.11381,1.003162 0.0372,1.910728 -0.17773,2.742188 -0.40372,1.561549 -1.20642,2.836873 -1.88086,4.210937 -1.32174,2.692824 -2.38103,5.790288 0.23633,12.572266 0.71171,0.10576 1.41563,0.27748 2.10937,0.53711 2.59484,0.97113 4.9336,3.13071 6.83008,6.98828 1.53181,-2.29141 2.62311,-4.08421 3.17773,-5.02344 0.26049,-0.44069 0.21261,-0.9937 -0.0957,-1.40234 -0.80336,-1.06449 -2.34017,-3.227344 -3.17773,-5.230469 -0.86091,-2.059366 -0.99105,-5.257059 -0.99805,-6.814453 -0.003,-0.591942 -0.19061,-1.16951 -0.55664,-1.634766 z M 21.65467,30.757916 c -0.67208,1.579011 -3.9414,8.767577 -3.9414,8.767577 -0.41808,0.93182 -0.2252,2.02517 0.48633,2.75781 l 6.50976,6.70508 c 0.0101,0.0104 0.023,0.0172 0.0332,0.0273 2.89039,-5.92912 2.75472,-10.00602 1.57227,-12.890629 -1.06246,-2.591907 -3.02548,-4.278709 -4.66016,-5.367188 z m 10.65625,7.021487 c -1.20403,0.009 -2.45814,0.1897 -3.74609,0.4707 0.45486,3.01325 -0.0867,6.79848 -2.36133,11.46875 0.0395,0.005 0.0773,0.0167 0.11719,0.0195 0,0 3.45428,0.26211 3.7793,0.28711 2.46548,0.18956 5.20571,1.20531 7.57226,1.85742 1.66091,0.46068 3.33259,-0.87199 3.5625,-2.58007 0.15643,-1.16227 0.44684,-2.47238 0.96289,-3.70704 -1.86852,-4.32026 -4.06599,-6.36636 -6.4375,-7.2539 -1.09121,-0.40838 -2.24518,-0.5714 -3.44922,-0.5625 z" /><rect
     style="opacity:0.3;fill:none;stroke:url(#linearGradient3904);stroke-width:1;stroke-linecap:round;stroke-linejoin:round;stroke-miterlimit:4;stroke-dasharray:none;stroke-dashoffset:0;stroke-opacity:1"
     id="rect6741"
     y="5.5"
     x="5.5"
     ry="5"
     rx="5"
     height="53"
     width="53" /><rect
     style="color:#000000;display:inline;overflow:visible;visibility:visible;opacity:0.5;fill:none;stroke:#2f106c;stroke-width:1;stroke-linecap:round;stroke-linejoin:round;stroke-miterlimit:4;stroke-dasharray:none;stroke-dashoffset:0;stroke-opacity:1;marker:none;enable-background:accumulate"
     id="rect5505-21-9"
     y="4.5"
     x="4.5"
     ry="6"
     rx="6"
     height="55"
     width="55" /><path
     id="path1-0"
     style="fill:#d3bfde;fill-opacity:1;stroke-width:0.0934252"
     d="m 33.0453,13.537097 c -0.58117,0.0078 -1.16395,0.216928 -1.63281,0.638672 l -7.70313,6.929687 c -0.42967,0.386406 -0.71077,0.909082 -0.79687,1.480469 -0.23576,1.562951 -0.58684,4.073404 -0.82032,5.527344 1.84087,1.155847 4.37874,3.117942 5.72266,6.396484 0.15139,0.369319 0.28364,0.757024 0.40039,1.158204 1.23753,-0.27094 2.48237,-0.465961 3.71875,-0.50586 0.16928,-0.0055 0.33895,-0.0083 0.50781,-0.0078 C 30.05666,28.50234 31.16938,24.767401 32.52768,22 c 0.71755,-1.461891 1.44219,-2.649355 1.76563,-3.900391 0.31584,-1.221715 0.30733,-2.536659 -0.48438,-4.453125 -0.24827,-0.07572 -0.50496,-0.112865 -0.76367,-0.109375 z m 2.99609,2.224609 c 0.11381,1.003162 0.0372,1.910728 -0.17773,2.742188 -0.40372,1.561549 -1.20642,2.836873 -1.88086,4.210937 -1.32174,2.692824 -2.38103,5.790288 0.23633,12.572266 0.71171,0.10576 1.41563,0.27748 2.10937,0.53711 2.59484,0.97113 4.9336,3.13071 6.83008,6.98828 1.53181,-2.29141 2.62311,-4.08421 3.17773,-5.02344 0.26049,-0.44069 0.21261,-0.9937 -0.0957,-1.40234 -0.80336,-1.06449 -2.34017,-3.227344 -3.17773,-5.230469 -0.86091,-2.059366 -0.99105,-5.257059 -0.99805,-6.814453 -0.003,-0.591942 -0.19061,-1.16951 -0.55664,-1.634766 z M 21.65467,29.7578 c -0.67208,1.579011 -3.9414,8.767577 -3.9414,8.767577 -0.41808,0.93182 -0.2252,2.02517 0.48633,2.75781 l 6.50976,6.70508 c 0.0101,0.0104 0.023,0.0172 0.0332,0.0273 2.89039,-5.92912 2.75472,-10.00602 1.57227,-12.890629 -1.06246,-2.591907 -3.02548,-4.278709 -4.66016,-5.367188 z m 10.65625,7.021487 c -1.20403,0.009 -2.45814,0.1897 -3.74609,0.4707 0.45486,3.01325 -0.0867,6.79848 -2.36133,11.46875 0.0395,0.005 0.0773,0.0167 0.11719,0.0195 0,0 3.45428,0.26211 3.7793,0.28711 2.46548,0.18956 5.20571,1.20531 7.57226,1.85742 1.66091,0.46068 3.33259,-0.87199 3.5625,-2.58007 0.15643,-1.16227 0.44684,-2.47238 0.96289,-3.70704 -1.86852,-4.32026 -4.06599,-6.36636 -6.4375,-7.2539 -1.09121,-0.40838 -2.24518,-0.5714 -3.44922,-0.5625 z" /><path
     id="path1"
     style="fill:#e8e2ea;fill-opacity:1;stroke-width:0.0934252"
     d="m 33.0703,13.537109 c -0.58117,0.0078 -1.16395,0.216929 -1.63281,0.638672 l -7.70313,6.929688 c -0.42967,0.386405 -0.71077,0.909082 -0.79687,1.480469 -0.19636,1.301726 -0.46182,3.158741 -0.6836,4.617187 1.82842,1.166072 4.27397,3.10604 5.58594,6.306641 0.15139,0.369318 0.28364,0.757023 0.40039,1.158203 1.23753,-0.27094 2.48237,-0.465961 3.71875,-0.50586 0.0579,-0.0019 0.11584,-7.27e-4 0.17383,-0.002 -0.83399,-2.605461 -1.10982,-4.737762 -1.04883,-6.53125 -0.10019,-2.870387 0.63652,-4.93333 1.46875,-6.628906 0.71755,-1.46189 1.44219,-2.649356 1.76563,-3.900391 0.082,-0.317358 0.14164,-0.641618 0.17187,-0.980468 -0.0629,-0.717639 -0.26283,-1.520316 -0.65625,-2.472657 -0.24827,-0.07572 -0.50496,-0.112865 -0.76367,-0.109375 z m 3.03906,2.279297 c -0.003,0.136722 -0.002,0.275196 -0.0117,0.408203 0.0464,0.820131 -0.0279,1.578844 -0.20898,2.279297 -0.40372,1.561548 -1.20642,2.836875 -1.88086,4.210938 -0.66554,1.355926 -1.26281,2.815069 -1.35938,4.794922 0.0626,1.781492 0.50764,3.957993 1.59571,6.777343 0.71171,0.10576 1.41563,0.27748 2.10937,0.53711 2.59484,0.971129 4.9336,3.130715 6.83008,6.988281 1.53181,-2.291408 2.62311,-4.084208 3.17773,-5.023438 0.024,-0.04062 0.0437,-0.08268 0.0625,-0.125 -0.0414,-0.09688 -0.093,-0.190944 -0.1582,-0.277343 -0.80336,-1.064489 -2.34017,-3.227346 -3.17773,-5.230469 -0.8609,-2.059364 -0.99105,-5.257061 -0.99805,-6.814453 -0.003,-0.591942 -0.19061,-1.16951 -0.55663,-1.634766 z M 21.67967,29.757812 c -0.67208,1.57901 -3.9414,8.767579 -3.9414,8.767579 -0.0766,0.170696 -0.12596,0.347063 -0.16211,0.52539 0.0942,0.454427 0.31071,0.884678 0.64844,1.232422 l 6.50976,6.705078 c 0.0101,0.0104 0.023,0.01724 0.0332,0.02734 1.59452,-3.270873 2.26465,-5.97618 2.34961,-8.230469 -0.0574,-1.398508 -0.34675,-2.609724 -0.77734,-3.660156 -1.06246,-2.591904 -3.02548,-4.27871 -4.66016,-5.367188 z m 10.65625,7.021485 c -1.17031,0.0087 -2.38865,0.181604 -3.63867,0.449219 0.0371,0.49771 0.0477,1.014157 0.0293,1.550781 0.0864,2.511064 -0.4857,5.487917 -2.05274,8.984375 0.50247,0.03813 3.15438,0.238889 3.45118,0.261719 2.46547,0.189559 5.20571,1.205312 7.57226,1.857421 1.66091,0.46068 3.33259,-0.871999 3.5625,-2.580078 0.13346,-0.991558 0.37437,-2.088135 0.75977,-3.15625 -1.82407,-4.009472 -3.94791,-5.948974 -6.23438,-6.804687 -1.09121,-0.40838 -2.24518,-0.5714 -3.44922,-0.5625 z" /><path
     id="path11"
     style="fill:#fafafa;fill-opacity:1;stroke-width:0.0934252"
     d="m 33.04492,13.537109 c -0.58117,0.0078 -1.16395,0.216929 -1.63281,0.638672 l -7.70313,6.929688 c -0.42967,0.386405 -0.71077,0.909082 -0.79687,1.480469 -0.15696,1.040504 -0.35643,2.417951 -0.54688,3.707031 1.8124,1.17501 4.1692,3.094133 5.44922,6.216797 0.15139,0.369318 0.28364,0.757023 0.40039,1.158203 1.19714,-0.262098 2.40111,-0.449738 3.59766,-0.498047 -0.67333,-2.416439 -0.85242,-4.407941 -0.72852,-6.085938 -0.19926,-3.109269 0.56794,-5.3004 1.44336,-7.083984 0.71755,-1.46189 1.44219,-2.649356 1.76563,-3.900391 0.0408,-0.157691 0.0765,-0.316624 0.10546,-0.478515 -0.0988,-0.588626 -0.28497,-1.23661 -0.58984,-1.97461 -0.24827,-0.07572 -0.50496,-0.112865 -0.76367,-0.109375 z m 2.99609,2.22461 c 0.11381,1.003161 0.0372,1.910728 -0.17773,2.742187 -0.40372,1.561548 -1.20642,2.836875 -1.88086,4.210938 -0.61957,1.26226 -1.17555,2.618588 -1.32813,4.396484 0.13498,1.666116 0.59655,3.667795 1.56446,6.175781 0.71171,0.10576 1.41563,0.27748 2.10937,0.53711 2.59484,0.971129 4.9336,3.130715 6.83008,6.988281 1.38022,-2.064653 2.34095,-3.631583 2.93555,-4.626953 -0.82989,-1.113486 -2.23649,-3.128515 -3.03125,-5.029297 -0.86091,-2.059364 -0.99105,-5.257061 -0.99805,-6.814453 -0.003,-0.591942 -0.19061,-1.16951 -0.55664,-1.634766 z M 21.65429,29.757812 c -0.67208,1.57901 -3.9414,8.767579 -3.9414,8.767579 -0.002,0.0046 -0.004,0.0091 -0.006,0.01367 0.11759,0.270295 0.27895,0.524582 0.49219,0.744141 l 6.50976,6.705078 c 0.0101,0.0104 0.023,0.01724 0.0332,0.02734 1.47287,-3.021334 2.15708,-5.560298 2.32031,-7.707031 -0.0975,-1.198756 -0.36713,-2.254353 -0.74804,-3.183594 -1.06246,-2.591904 -3.02548,-4.27871 -4.66016,-5.367188 z m 10.65625,7.021485 c -1.15863,0.0087 -2.36464,0.178376 -3.60156,0.441406 0.001,0.351772 -0.006,0.7105 -0.0312,1.080078 -9e-5,0.0013 9e-5,0.0026 0,0.0039 0.16385,2.378238 -0.27493,5.192483 -1.61719,8.490234 0.88504,0.06717 2.77771,0.210365 3.03907,0.230469 2.46547,0.189559 5.20571,1.205312 7.57226,1.857421 1.66091,0.46068 3.33259,-0.871999 3.5625,-2.580078 0.10956,-0.814017 0.29197,-1.699687 0.56445,-2.582031 -1.77942,-3.724229 -3.83432,-5.55378 -6.03906,-6.378906 -1.09121,-0.40838 -2.24518,-0.5714 -3.44922,-0.5625 z" /><path
     style="opacity:0.6;fill:url(#linearGradient43);fill-opacity:1;stroke:none;stroke-width:2;stroke-linejoin:round"
     d="M 36.04101,15.761719 33.83397,13.646437 31,6 Z"
     id="path5" /><path
     style="opacity:0.5;fill:url(#linearGradient49);fill-opacity:1;stroke:none;stroke-width:2;stroke-linejoin:round"
     d="M 41.53322,22.707031 C 47.221426,20.039507 52.561979,18.485795 58,17 52.516814,19.015739 47.09632,21.18194 42.08985,24.341797 Z"
     id="path6" /><path
     style="opacity:0.4;fill:url(#linearGradient61);fill-opacity:1;stroke:none;stroke-width:2;stroke-linejoin:round"
     d="M 42.19764,44.595661 43.15858,42.812487 50,58 Z"
     id="path7" /><path
     style="opacity:0.5;fill:url(#linearGradient54);fill-opacity:1;stroke:none;stroke-width:2;stroke-linejoin:round"
     d="m 22.09217,28.113269 -0.43802,1.644538 C 16.661121,26.834339 11.376977,24.347545 6,22 c 5.480874,1.804121 10.898907,3.733926 16.09217,6.113269 z"
     id="path8" /><path
     style="opacity:0.5;fill:url(#linearGradient66);fill-opacity:1;stroke:none;stroke-width:2;stroke-linejoin:round"
     d="m 20,58 c 1.927889,-3.251025 3.676968,-6.541786 4.74256,-9.984433 l 1.46094,0.70317 C 24.791044,52.28913 22.460682,55.191954 20,58 Z"
     id="path9" /><g
     id="layer4-0"
     transform="matrix(0.9047486,0,0,0.9047486,-438.51497,-675.56047)" /><g
     id="layer4-0-7"
     transform="matrix(0.9047486,0,0,0.9047486,-438.51497,-668.32248)" /><g
     id="layer1-3"
     transform="matrix(0.9047486,0,0,0.9047486,58.192013,0.49666306)" /></svg>
