<?xml version="1.0" encoding="UTF-8" standalone="no"?>
<svg
   version="1.1"
   id="svg4332"
   height="64"
   width="64"
   xml:space="preserve"
   xmlns:xlink="http://www.w3.org/1999/xlink"
   xmlns="http://www.w3.org/2000/svg"
   xmlns:svg="http://www.w3.org/2000/svg"
   xmlns:rdf="http://www.w3.org/1999/02/22-rdf-syntax-ns#"
   xmlns:cc="http://creativecommons.org/ns#"
   xmlns:dc="http://purl.org/dc/elements/1.1/"><defs
     id="defs4334"><linearGradient
       id="linearGradient17"><stop
         style="stop-color:#ffffff;stop-opacity:0.20362301;"
         offset="0"
         id="stop17" /><stop
         style="stop-color:#ffffff;stop-opacity:0;"
         offset="1"
         id="stop18" /></linearGradient><linearGradient
       id="linearGradient15"><stop
         style="stop-color:#ffffff;stop-opacity:0.35362047;"
         offset="0"
         id="stop15" /><stop
         style="stop-color:#ffffff;stop-opacity:0;"
         offset="1"
         id="stop16" /></linearGradient><linearGradient
       id="linearGradient13"><stop
         style="stop-color:#ffffff;stop-opacity:0.29974914;"
         offset="0"
         id="stop13" /><stop
         style="stop-color:#ffffff;stop-opacity:0;"
         offset="1"
         id="stop14" /></linearGradient><linearGradient
       id="linearGradient11"><stop
         style="stop-color:#ffffff;stop-opacity:0.39874125;"
         offset="0"
         id="stop11" /><stop
         style="stop-color:#ffffff;stop-opacity:0;"
         offset="1"
         id="stop12" /></linearGradient><linearGradient
       id="linearGradient4"><stop
         style="stop-color:#ffffff;stop-opacity:0.44714639;"
         offset="0"
         id="stop4" /><stop
         style="stop-color:#ffffff;stop-opacity:0;"
         offset="1"
         id="stop5" /></linearGradient><linearGradient
       id="linearGradient909"><stop
         id="stop901"
         style="stop-color:#9e79e9;stop-opacity:1;"
         offset="0" /><stop
         id="stop907"
         style="stop-color:#6c31e3;stop-opacity:1;"
         offset="1" /></linearGradient><linearGradient
       y2="42.091705"
       x2="23.99999"
       y1="5.9093657"
       x1="23.99999"
       gradientTransform="matrix(1.4324324,0,0,1.4362832,-2.3783747,-2.4707827)"
       gradientUnits="userSpaceOnUse"
       id="linearGradient3904"
       xlink:href="#linearGradient4270" /><linearGradient
       id="linearGradient4270"><stop
         id="stop4272"
         style="stop-color:#ffffff;stop-opacity:1"
         offset="0" /><stop
         id="stop4274"
         style="stop-color:#ffffff;stop-opacity:0.23529412"
         offset="0.0348749" /><stop
         id="stop4276"
         style="stop-color:#ffffff;stop-opacity:0.15686275"
         offset="0.96216321" /><stop
         id="stop4278"
         style="stop-color:#ffffff;stop-opacity:0.39215687"
         offset="1" /></linearGradient><linearGradient
       xlink:href="#linearGradient909"
       id="linearGradient899"
       x1="31.781376"
       y1="4.9266648"
       x2="31.781376"
       y2="59.148476"
       gradientUnits="userSpaceOnUse" /><linearGradient
       xlink:href="#linearGradient4"
       id="linearGradient5"
       x1="28.165596"
       y1="22.705402"
       x2="10.03974"
       y2="5.428761"
       gradientUnits="userSpaceOnUse" /><linearGradient
       xlink:href="#linearGradient11"
       id="linearGradient12"
       x1="41.50819"
       y1="22.70702"
       x2="41.143955"
       y2="5.428761"
       gradientUnits="userSpaceOnUse" /><linearGradient
       xlink:href="#linearGradient13"
       id="linearGradient14"
       x1="52.226662"
       y1="55.154682"
       x2="55.175838"
       y2="34.679829"
       gradientUnits="userSpaceOnUse" /><linearGradient
       xlink:href="#linearGradient15"
       id="linearGradient16"
       x1="20.774637"
       y1="53.066387"
       x2="15.391004"
       y2="37.661407"
       gradientUnits="userSpaceOnUse" /><linearGradient
       xlink:href="#linearGradient17"
       id="linearGradient18"
       x1="45.40913"
       y1="51.594944"
       x2="27.697275"
       y2="51.974899"
       gradientUnits="userSpaceOnUse" /></defs><metadata
     id="metadata4337"><rdf:RDF><cc:Work
         rdf:about=""><dc:format>image/svg+xml</dc:format><dc:type
           rdf:resource="http://purl.org/dc/dcmitype/StillImage" /></cc:Work></rdf:RDF></metadata><path
     id="path19"
     style="opacity:0.19986723;fill:#0e141f;fill-opacity:1;stroke:#0e141f;stroke-width:2;stroke-linecap:round;stroke-linejoin:round;stroke-dasharray:none;stroke-opacity:1;paint-order:markers stroke fill"
     d="M 9 57 A 4 2 0 0 0 5 59 A 4 2 0 0 0 9 61 L 55 61 A 4 2 0 0 0 59 59 A 4 2 0 0 0 55 57 L 9 57 z " /><path
     id="rect18"
     style="opacity:0.19986723;fill:#273445;fill-opacity:1;stroke:none;stroke-width:2;stroke-linecap:round;stroke-linejoin:round;stroke-dasharray:none;stroke-opacity:1;paint-order:markers stroke fill"
     d="M 9 57 A 4 2 0 0 0 5 59 A 4 2 0 0 0 9 61 L 55 61 A 4 2 0 0 0 59 59 A 4 2 0 0 0 55 57 L 9 57 z " /><path
     id="path18"
     style="opacity:0.19986723;fill:#485a6c;fill-opacity:1;stroke:none;stroke-width:2;stroke-linecap:round;stroke-linejoin:round;stroke-dasharray:none;stroke-opacity:1;paint-order:markers stroke fill"
     d="m 9,58 h 46 c 1.989579,0 3,0.773649 3,1 0,0.226351 -1.010421,1 -3,1 H 9 C 7.0104215,60 6,59.226351 6,59 6,58.773649 7.0104215,58 9,58 Z" /><rect
     width="55"
     height="55"
     rx="6"
     ry="6"
     x="4.5"
     y="4.5"
     id="rect5505-21-3-8-5-2-9"
     style="color:#000000;display:inline;overflow:visible;visibility:visible;fill:url(#linearGradient899);fill-opacity:1;fill-rule:nonzero;stroke:none;stroke-width:1;marker:none;enable-background:accumulate" /><path
     id="path2"
     style="fill:#2e0d6d;fill-opacity:1;stroke-width:2;stroke:#2f106c;stroke-opacity:1;stroke-dasharray:none;stroke-linejoin:round;stroke-linecap:round;opacity:0.15042606"
     d="m 33.045301,14.537213 c -0.58117,0.0078 -1.16395,0.216928 -1.63281,0.638672 l -7.70313,6.929687 c -0.42967,0.386406 -0.71077,0.909082 -0.79687,1.480469 -0.23576,1.562951 -0.58684,4.073404 -0.82032,5.527344 1.84087,1.155847 4.37874,3.117942 5.72266,6.396484 0.15139,0.369319 0.28364,0.757024 0.40039,1.158204 1.23753,-0.27094 2.48237,-0.465961 3.71875,-0.50586 0.16928,-0.0055 0.33895,-0.0083 0.50781,-0.0078 -2.38512,-6.651957 -1.2724,-10.386896 0.0859,-13.154297 0.71755,-1.461891 1.44219,-2.649355 1.76563,-3.900391 0.31584,-1.221715 0.30733,-2.536659 -0.48438,-4.453125 -0.24827,-0.07572 -0.50496,-0.112865 -0.76367,-0.109375 z m 2.99609,2.224609 c 0.11381,1.003162 0.0372,1.910728 -0.17773,2.742188 -0.40372,1.561549 -1.20642,2.836873 -1.88086,4.210937 -1.32174,2.692824 -2.38103,5.790288 0.23633,12.572266 0.71171,0.10576 1.41563,0.27748 2.10937,0.53711 2.59484,0.97113 4.9336,3.13071 6.83008,6.98828 1.53181,-2.29141 2.62311,-4.08421 3.17773,-5.02344 0.26049,-0.44069 0.21261,-0.9937 -0.0957,-1.40234 -0.80336,-1.06449 -2.34017,-3.227344 -3.17773,-5.230469 -0.86091,-2.059366 -0.99105,-5.257059 -0.99805,-6.814453 -0.003,-0.591942 -0.19061,-1.16951 -0.55664,-1.634766 z m -14.38672,13.996094 c -0.67208,1.579011 -3.9414,8.767577 -3.9414,8.767577 -0.41808,0.93182 -0.2252,2.02517 0.48633,2.75781 l 6.50976,6.70508 c 0.0101,0.0104 0.023,0.0172 0.0332,0.0273 2.89039,-5.92912 2.75472,-10.00602 1.57227,-12.890629 -1.06246,-2.591907 -3.02548,-4.278709 -4.66016,-5.367188 z m 10.65625,7.021487 c -1.20403,0.009 -2.45814,0.1897 -3.74609,0.4707 0.45486,3.01325 -0.0867,6.79848 -2.36133,11.46875 0.0395,0.005 0.0773,0.0167 0.11719,0.0195 0,0 3.45428,0.26211 3.7793,0.28711 2.46548,0.18956 5.20571,1.20531 7.57226,1.85742 1.66091,0.46068 3.33259,-0.87199 3.5625,-2.58007 0.15643,-1.16227 0.44684,-2.47238 0.96289,-3.70704 -1.86852,-4.32026 -4.06599,-6.36636 -6.4375,-7.2539 -1.09121,-0.40838 -2.24518,-0.5714 -3.44922,-0.5625 z" /><path
     id="path3"
     style="fill:#2e0d6d;fill-opacity:1;stroke-width:2;stroke:none;stroke-opacity:1;stroke-dasharray:none;stroke-linejoin:round;stroke-linecap:round;opacity:0.14951537"
     d="m 33.045301,14.537213 c -0.58117,0.0078 -1.16395,0.216928 -1.63281,0.638672 l -7.70313,6.929687 c -0.42967,0.386406 -0.71077,0.909082 -0.79687,1.480469 -0.23576,1.562951 -0.58684,4.073404 -0.82032,5.527344 1.84087,1.155847 4.37874,3.117942 5.72266,6.396484 0.15139,0.369319 0.28364,0.757024 0.40039,1.158204 1.23753,-0.27094 2.48237,-0.465961 3.71875,-0.50586 0.16928,-0.0055 0.33895,-0.0083 0.50781,-0.0078 -2.38512,-6.651957 -1.2724,-10.386896 0.0859,-13.154297 0.71755,-1.461891 1.44219,-2.649355 1.76563,-3.900391 0.31584,-1.221715 0.30733,-2.536659 -0.48438,-4.453125 -0.24827,-0.07572 -0.50496,-0.112865 -0.76367,-0.109375 z m 2.99609,2.224609 c 0.11381,1.003162 0.0372,1.910728 -0.17773,2.742188 -0.40372,1.561549 -1.20642,2.836873 -1.88086,4.210937 -1.32174,2.692824 -2.38103,5.790288 0.23633,12.572266 0.71171,0.10576 1.41563,0.27748 2.10937,0.53711 2.59484,0.97113 4.9336,3.13071 6.83008,6.98828 1.53181,-2.29141 2.62311,-4.08421 3.17773,-5.02344 0.26049,-0.44069 0.21261,-0.9937 -0.0957,-1.40234 -0.80336,-1.06449 -2.34017,-3.227344 -3.17773,-5.230469 -0.86091,-2.059366 -0.99105,-5.257059 -0.99805,-6.814453 -0.003,-0.591942 -0.19061,-1.16951 -0.55664,-1.634766 z m -14.38672,13.996094 c -0.67208,1.579011 -3.9414,8.767577 -3.9414,8.767577 -0.41808,0.93182 -0.2252,2.02517 0.48633,2.75781 l 6.50976,6.70508 c 0.0101,0.0104 0.023,0.0172 0.0332,0.0273 2.89039,-5.92912 2.75472,-10.00602 1.57227,-12.890629 -1.06246,-2.591907 -3.02548,-4.278709 -4.66016,-5.367188 z m 10.65625,7.021487 c -1.20403,0.009 -2.45814,0.1897 -3.74609,0.4707 0.45486,3.01325 -0.0867,6.79848 -2.36133,11.46875 0.0395,0.005 0.0773,0.0167 0.11719,0.0195 0,0 3.45428,0.26211 3.7793,0.28711 2.46548,0.18956 5.20571,1.20531 7.57226,1.85742 1.66091,0.46068 3.33259,-0.87199 3.5625,-2.58007 0.15643,-1.16227 0.44684,-2.47238 0.96289,-3.70704 -1.86852,-4.32026 -4.06599,-6.36636 -6.4375,-7.2539 -1.09121,-0.40838 -2.24518,-0.5714 -3.44922,-0.5625 z" /><path
     style="opacity:1;fill:url(#linearGradient18);fill-opacity:1;stroke:none;stroke-width:2;stroke-linecap:round;stroke-linejoin:round;stroke-dasharray:none;stroke-opacity:1;paint-order:markers stroke fill"
     d="M 26.203501,48.718737 21.494538,58.57124 48.620616,58.59423 42.197641,44.595661 Z"
     id="path16" /><rect
     style="opacity:0.3;fill:none;stroke:url(#linearGradient3904);stroke-width:1;stroke-linecap:round;stroke-linejoin:round;stroke-miterlimit:4;stroke-dasharray:none;stroke-dashoffset:0;stroke-opacity:1"
     id="rect6741"
     y="5.428761"
     x="5.5"
     ry="5"
     rx="5"
     height="53.142479"
     width="53" /><rect
     style="color:#000000;display:inline;overflow:visible;visibility:visible;opacity:0.5;fill:none;stroke:#2f106c;stroke-width:1;stroke-linecap:round;stroke-linejoin:round;stroke-miterlimit:4;stroke-dasharray:none;stroke-dashoffset:0;stroke-opacity:1;marker:none;enable-background:accumulate"
     id="rect5505-21-9"
     y="4.5"
     x="4.5"
     ry="6"
     rx="6"
     height="55"
     width="55" /><path
     id="path1-0"
     style="fill:#d0d0d0;fill-opacity:1;stroke-width:0.0934252"
     d="m 33.045301,13.537097 c -0.58117,0.0078 -1.16395,0.216928 -1.63281,0.638672 l -7.70313,6.929687 c -0.42967,0.386406 -0.71077,0.909082 -0.79687,1.480469 -0.23576,1.562951 -0.58684,4.073404 -0.82032,5.527344 1.84087,1.155847 4.37874,3.117942 5.72266,6.396484 0.15139,0.369319 0.28364,0.757024 0.40039,1.158204 1.23753,-0.27094 2.48237,-0.465961 3.71875,-0.50586 0.16928,-0.0055 0.33895,-0.0083 0.50781,-0.0078 -2.38512,-6.651957 -1.2724,-10.386896 0.0859,-13.154297 0.71755,-1.461891 1.44219,-2.649355 1.76563,-3.900391 0.31584,-1.221715 0.30733,-2.536659 -0.48438,-4.453125 -0.24827,-0.07572 -0.50496,-0.112865 -0.76367,-0.109375 z m 2.99609,2.224609 c 0.11381,1.003162 0.0372,1.910728 -0.17773,2.742188 -0.40372,1.561549 -1.20642,2.836873 -1.88086,4.210937 -1.32174,2.692824 -2.38103,5.790288 0.23633,12.572266 0.71171,0.10576 1.41563,0.27748 2.10937,0.53711 2.59484,0.97113 4.9336,3.13071 6.83008,6.98828 1.53181,-2.29141 2.62311,-4.08421 3.17773,-5.02344 0.26049,-0.44069 0.21261,-0.9937 -0.0957,-1.40234 -0.80336,-1.06449 -2.34017,-3.227344 -3.17773,-5.230469 -0.86091,-2.059366 -0.99105,-5.257059 -0.99805,-6.814453 -0.003,-0.591942 -0.19061,-1.16951 -0.55664,-1.634766 z M 21.654671,29.7578 c -0.67208,1.579011 -3.9414,8.767577 -3.9414,8.767577 -0.41808,0.93182 -0.2252,2.02517 0.48633,2.75781 l 6.50976,6.70508 c 0.0101,0.0104 0.023,0.0172 0.0332,0.0273 2.89039,-5.92912 2.75472,-10.00602 1.57227,-12.890629 -1.06246,-2.591907 -3.02548,-4.278709 -4.66016,-5.367188 z m 10.65625,7.021487 c -1.20403,0.009 -2.45814,0.1897 -3.74609,0.4707 0.45486,3.01325 -0.0867,6.79848 -2.36133,11.46875 0.0395,0.005 0.0773,0.0167 0.11719,0.0195 0,0 3.45428,0.26211 3.7793,0.28711 2.46548,0.18956 5.20571,1.20531 7.57226,1.85742 1.66091,0.46068 3.33259,-0.87199 3.5625,-2.58007 0.15643,-1.16227 0.44684,-2.47238 0.96289,-3.70704 -1.86852,-4.32026 -4.06599,-6.36636 -6.4375,-7.2539 -1.09121,-0.40838 -2.24518,-0.5714 -3.44922,-0.5625 z" /><path
     style="opacity:1;fill:url(#linearGradient5);fill-opacity:1;stroke:none;stroke-width:2;stroke-linecap:round;stroke-linejoin:round;stroke-dasharray:none;stroke-opacity:1;paint-order:markers stroke fill"
     d="M 33.808931,13.646484 30.853887,5.428761 c 0,0 -13.848969,0 -20.814147,0 -1.0479443,0 -2.0602384,0.6119429 -2.8760095,1.2697458 C 6.6186468,7.138039 6.1846912,7.745526 5.9272538,8.3967024 5.5026269,9.4707772 5.5,10.68019 5.5,11.835155 c 0,3.582452 0,10.333466 0,10.333466 l 16.592171,5.944648 z"
     id="path4" /><path
     style="opacity:0.30029;fill:none;fill-opacity:1;stroke:#ffffff;stroke-width:2;stroke-linecap:round;stroke-linejoin:round;stroke-dasharray:none;stroke-opacity:1;paint-order:markers stroke fill"
     d="M 35.251991,16.101368 31.779973,6.4019234"
     id="path5" /><path
     style="opacity:0.30029;fill:none;fill-opacity:1;stroke:#ffffff;stroke-width:2;stroke-linecap:round;stroke-linejoin:round;stroke-dasharray:none;stroke-opacity:1;paint-order:markers stroke fill"
     d="M 41.861496,23.313227 57.503619,12.542866"
     id="path6" /><path
     style="opacity:0.30029;fill:none;fill-opacity:1;stroke:#ffffff;stroke-width:2;stroke-linecap:round;stroke-linejoin:round;stroke-dasharray:none;stroke-opacity:1;paint-order:markers stroke fill"
     d="M 42.695093,43.580661 49.24537,57.596869"
     id="path7" /><path
     style="opacity:0.30029;fill:none;fill-opacity:1;stroke:#ffffff;stroke-width:2;stroke-linecap:round;stroke-linejoin:round;stroke-dasharray:none;stroke-opacity:1;paint-order:markers stroke fill"
     d="m 25.453988,48.467608 -4.67935,9.252257"
     id="path8" /><path
     style="opacity:0.30029;fill:none;fill-opacity:1;stroke:#ffffff;stroke-width:2;stroke-linecap:round;stroke-linejoin:round;stroke-dasharray:none;stroke-opacity:1;paint-order:markers stroke fill"
     d="M 22.092171,29.113385 6.4788555,23.463201"
     id="path9" /><path
     style="opacity:1;fill:url(#linearGradient12);stroke:none;stroke-width:2;stroke-linecap:round;stroke-linejoin:round;stroke-dasharray:none;stroke-opacity:1;paint-order:markers stroke fill"
     d="M 36.041391,15.761706 32.522884,5.428761 c 0,0 13.617349,0 20.454389,0 0.998885,0 2.058695,0.1313033 2.932998,0.6143829 0.864377,0.4775952 1.559607,1.2787846 2.057528,2.131615 0.294624,0.5046278 0.459913,1.0972536 0.499932,1.6802212 C 58.498452,10.302499 58.5,10.947969 58.5,10.947969 l -16.991809,11.75905 z"
     id="path10" /><path
     style="opacity:1;fill:url(#linearGradient14);stroke:none;stroke-width:2;stroke-linecap:round;stroke-linejoin:round;stroke-dasharray:none;stroke-opacity:1;paint-order:markers stroke fill"
     d="M 42.064831,24.341785 58.5,12.816387 c 0,0 0,27.297062 0,40.598519 0,0.746782 -0.126219,1.516912 -0.431683,2.198362 -0.339453,0.757276 -0.861127,1.459443 -1.504519,1.983601 -0.449085,0.36586 -1.006822,0.605975 -1.568239,0.7486 -1.397998,0.355153 -4.321321,0.225771 -4.321321,0.225771 L 43.158581,42.812487 40.983361,28.113269 Z"
     id="path12" /><path
     style="opacity:1;fill:url(#linearGradient16);fill-opacity:1;stroke:none;stroke-width:2;stroke-linecap:round;stroke-linejoin:round;stroke-dasharray:none;stroke-opacity:1;paint-order:markers stroke fill"
     d="M 21.654671,29.7578 5.5,23.911207 c 0,0 0,19.095345 0,28.643018 0,1.075526 -0.02841,2.247525 0.4917923,3.188878 0.3400704,0.615388 0.5734113,1.24431 1.4922176,1.821771 0.8086948,0.508257 2.2870178,1.006366 2.9058571,1.006366 3.029931,0 9.012012,0 9.012012,0 l 5.340682,-10.555673 z"
     id="path14" /><path
     id="path1"
     style="fill:#e6e6e6;fill-opacity:1;stroke-width:0.0934252"
     d="M 33.044922 13.537109 C 32.463752 13.544909 31.880969 13.754038 31.412109 14.175781 L 23.708984 21.105469 C 23.279315 21.491874 22.998209 22.014551 22.912109 22.585938 C 22.715753 23.887664 22.450294 25.744679 22.228516 27.203125 C 24.05693 28.369197 26.502482 30.309165 27.814453 33.509766 C 27.965843 33.879084 28.098094 34.266789 28.214844 34.667969 C 29.452373 34.397029 30.697215 34.202008 31.933594 34.162109 C 31.991536 34.160227 32.049437 34.161382 32.107422 34.160156 C 31.273437 31.554695 30.997606 29.422394 31.058594 27.628906 C 30.958404 24.758519 31.695118 22.695576 32.527344 21 C 33.244893 19.53811 33.969529 18.350644 34.292969 17.099609 C 34.375013 16.782251 34.434615 16.457991 34.464844 16.119141 C 34.401917 15.401502 34.202015 14.598825 33.808594 13.646484 C 33.560324 13.570764 33.303632 13.533619 33.044922 13.537109 z M 36.083984 15.816406 C 36.081358 15.953128 36.082044 16.091602 36.072266 16.224609 C 36.118682 17.04474 36.044346 17.803453 35.863281 18.503906 C 35.459562 20.065454 34.656861 21.340781 33.982422 22.714844 C 33.316882 24.07077 32.719614 25.529913 32.623047 27.509766 C 32.685625 29.291258 33.130682 31.467759 34.21875 34.287109 C 34.930459 34.392869 35.634386 34.564589 36.328125 34.824219 C 38.922962 35.795348 41.261725 37.954934 43.158203 41.8125 C 44.690012 39.521092 45.781318 37.728292 46.335938 36.789062 C 46.359945 36.748447 46.379631 36.706385 46.398438 36.664062 C 46.356988 36.567181 46.305421 36.473118 46.240234 36.386719 C 45.436875 35.32223 43.900059 33.159373 43.0625 31.15625 C 42.201591 29.096886 42.071453 25.899189 42.064453 24.341797 C 42.061453 23.749855 41.873842 23.172287 41.507812 22.707031 L 36.083984 15.816406 z M 21.654297 29.757812 C 20.982218 31.336822 17.712891 38.525391 17.712891 38.525391 C 17.636304 38.696087 17.586931 38.872454 17.550781 39.050781 C 17.644943 39.505208 17.861495 39.935459 18.199219 40.283203 L 24.708984 46.988281 C 24.719084 46.998681 24.731988 47.005525 24.742188 47.015625 C 26.336707 43.744752 27.006831 41.039445 27.091797 38.785156 C 27.034402 37.386648 26.745043 36.175432 26.314453 35.125 C 25.251994 32.533096 23.288975 30.84629 21.654297 29.757812 z M 32.310547 36.779297 C 31.140238 36.788045 29.921898 36.960901 28.671875 37.228516 C 28.709015 37.726226 28.71958 38.242673 28.701172 38.779297 C 28.787557 41.290361 28.215469 44.267214 26.648438 47.763672 C 27.150899 47.801801 29.802811 48.002561 30.099609 48.025391 C 32.565087 48.21495 35.305327 49.230703 37.671875 49.882812 C 39.332783 50.343492 41.004465 49.010813 41.234375 47.302734 C 41.367829 46.311176 41.608747 45.214599 41.994141 44.146484 C 40.170072 40.137012 38.046234 38.19751 35.759766 37.341797 C 34.668557 36.933417 33.514586 36.770397 32.310547 36.779297 z " /><path
     id="path11"
     style="fill:#fafafa;fill-opacity:1;stroke-width:0.0934252"
     d="m 33.044922,13.537109 c -0.58117,0.0078 -1.163953,0.216929 -1.632813,0.638672 l -7.703125,6.929688 c -0.429669,0.386405 -0.710775,0.909082 -0.796875,1.480469 -0.156952,1.040504 -0.356426,2.417951 -0.546875,3.707031 1.8124,1.17501 4.169196,3.094133 5.449219,6.216797 0.15139,0.369318 0.283641,0.757023 0.400391,1.158203 1.197143,-0.262098 2.401108,-0.449738 3.597656,-0.498047 -0.67333,-2.416439 -0.852419,-4.407941 -0.728516,-6.085938 -0.19926,-3.109269 0.567938,-5.3004 1.44336,-7.083984 0.717549,-1.46189 1.442185,-2.649356 1.765625,-3.900391 0.04077,-0.157691 0.0765,-0.316624 0.105469,-0.478515 -0.0988,-0.588626 -0.28497,-1.23661 -0.589844,-1.97461 -0.24827,-0.07572 -0.504962,-0.112865 -0.763672,-0.109375 z m 2.996094,2.22461 c 0.11381,1.003161 0.0372,1.910728 -0.177735,2.742187 -0.403719,1.561548 -1.20642,2.836875 -1.880859,4.210938 -0.619565,1.26226 -1.175546,2.618588 -1.328125,4.396484 0.134977,1.666116 0.596549,3.667795 1.564453,6.175781 0.711709,0.10576 1.415636,0.27748 2.109375,0.53711 2.594837,0.971129 4.9336,3.130715 6.830078,6.988281 1.380223,-2.064653 2.340954,-3.631583 2.935547,-4.626953 -0.829882,-1.113486 -2.236482,-3.128515 -3.03125,-5.029297 -0.860909,-2.059364 -0.991047,-5.257061 -0.998047,-6.814453 -0.003,-0.591942 -0.190611,-1.16951 -0.556641,-1.634766 z M 21.654297,29.757812 c -0.672079,1.57901 -3.941406,8.767579 -3.941406,8.767579 -0.0021,0.0046 -0.0038,0.0091 -0.0059,0.01367 0.117589,0.270295 0.278955,0.524582 0.492188,0.744141 l 6.509765,6.705078 c 0.0101,0.0104 0.023,0.01724 0.0332,0.02734 1.472871,-3.021334 2.15708,-5.560298 2.320312,-7.707031 -0.09749,-1.198756 -0.367135,-2.254353 -0.748047,-3.183594 -1.062459,-2.591904 -3.025478,-4.27871 -4.660156,-5.367188 z m 10.65625,7.021485 c -1.158636,0.0087 -2.364648,0.178376 -3.601563,0.441406 0.0012,0.351772 -0.0061,0.7105 -0.03125,1.080078 -8.9e-5,0.0013 9e-5,0.0026 0,0.0039 0.163854,2.378238 -0.274928,5.192483 -1.617187,8.490234 0.885035,0.06717 2.777706,0.210365 3.039062,0.230469 2.465478,0.189559 5.205718,1.205312 7.572266,1.857421 1.660908,0.46068 3.33259,-0.871999 3.5625,-2.580078 0.109559,-0.814017 0.291967,-1.699687 0.564453,-2.582031 -1.779421,-3.724229 -3.834322,-5.55378 -6.039062,-6.378906 -1.091209,-0.40838 -2.24518,-0.5714 -3.449219,-0.5625 z" /></svg>
