<?xml version="1.0" encoding="UTF-8" standalone="no"?>
<svg
   version="1.1"
   id="svg4332"
   height="64px"
   width="64px"
   xml:space="preserve"
   xmlns:xlink="http://www.w3.org/1999/xlink"
   xmlns="http://www.w3.org/2000/svg"
   xmlns:svg="http://www.w3.org/2000/svg"
   xmlns:rdf="http://www.w3.org/1999/02/22-rdf-syntax-ns#"
   xmlns:cc="http://creativecommons.org/ns#"
   xmlns:dc="http://purl.org/dc/elements/1.1/"><defs
     id="defs4334"><linearGradient
       y2="42.091705"
       x2="23.99999"
       y1="5.9093657"
       x1="23.99999"
       gradientTransform="matrix(1.4324324,0,0,1.4362832,-2.3783747,-2.4707827)"
       gradientUnits="userSpaceOnUse"
       id="linearGradient3904"
       xlink:href="#linearGradient4270" /><linearGradient
       id="linearGradient4270"><stop
         id="stop4272"
         style="stop-color:#ffffff;stop-opacity:1"
         offset="0" /><stop
         id="stop4274"
         style="stop-color:#ffffff;stop-opacity:0.23529412"
         offset="0.0348749" /><stop
         id="stop4276"
         style="stop-color:#ffffff;stop-opacity:0.15686275"
         offset="0.96216321" /><stop
         id="stop4278"
         style="stop-color:#ffffff;stop-opacity:0.39215687"
         offset="1" /></linearGradient><linearGradient
       id="linearGradient3688-166-749-654"><stop
         offset="0"
         style="stop-color:#181818;stop-opacity:1"
         id="stop3088" /><stop
         offset="1"
         style="stop-color:#181818;stop-opacity:0"
         id="stop3090" /></linearGradient><linearGradient
       id="linearGradient3702-501-757-795"><stop
         offset="0"
         style="stop-color:#181818;stop-opacity:0"
         id="stop3100" /><stop
         offset="0.5"
         style="stop-color:#181818;stop-opacity:1"
         id="stop3102" /><stop
         offset="1"
         style="stop-color:#181818;stop-opacity:0"
         id="stop3104" /></linearGradient><radialGradient
       cx="4.9929786"
       cy="43.5"
       r="2.5"
       fx="4.9929786"
       fy="43.5"
       id="radialGradient3337-2-2"
       xlink:href="#linearGradient3688-166-749-654"
       gradientUnits="userSpaceOnUse"
       gradientTransform="matrix(2.4045407,0,0,0.99999998,41.985755,15.500001)" /><radialGradient
       cx="4.9929786"
       cy="43.5"
       r="2.5"
       fx="4.9929786"
       fy="43.5"
       id="radialGradient3339-1-4"
       xlink:href="#linearGradient3688-166-749-654"
       gradientUnits="userSpaceOnUse"
       gradientTransform="matrix(2.4045407,0,0,0.99999998,-22.014244,-102.5)" /><linearGradient
       x1="25.058096"
       y1="47.027729"
       x2="25.058096"
       y2="39.999443"
       id="linearGradient6394"
       xlink:href="#linearGradient3702-501-757-795"
       gradientUnits="userSpaceOnUse"
       gradientTransform="matrix(1.5714286,0,0,0.7142857,-5.7142853,27.928572)" /><linearGradient
       xlink:href="#linearGradient1"
       id="linearGradient899"
       x1="31.781376"
       y1="4.9266648"
       x2="31.781376"
       y2="59.148476"
       gradientUnits="userSpaceOnUse" /><linearGradient
       id="linearGradient23"><stop
         style="stop-color:#ffffff;stop-opacity:1;"
         offset="0"
         id="stop23" /><stop
         style="stop-color:#ffffff;stop-opacity:0.3560937;"
         offset="0.5"
         id="stop25" /><stop
         style="stop-color:#ffffff;stop-opacity:0.19511063;"
         offset="0.75"
         id="stop26" /><stop
         style="stop-color:#ffffff;stop-opacity:0.49612457;"
         offset="1"
         id="stop24" /></linearGradient><linearGradient
       id="linearGradient21"><stop
         style="stop-color:#4d4d4d;stop-opacity:1;"
         offset="0.29928437"
         id="stop21" /><stop
         style="stop-color:#333333;stop-opacity:1;"
         offset="0.40000004"
         id="stop27" /><stop
         style="stop-color:#4d4d4d;stop-opacity:1;"
         offset="1"
         id="stop22" /></linearGradient><linearGradient
       id="linearGradient1"><stop
         style="stop-color:#64baff;stop-opacity:1;"
         offset="0"
         id="stop1" /><stop
         style="stop-color:#89ffdd;stop-opacity:1;"
         offset="1"
         id="stop2" /></linearGradient><linearGradient
       xlink:href="#linearGradient21"
       id="linearGradient4"
       x1="205.41205"
       y1="547.49176"
       x2="205.41205"
       y2="457.72263"
       gradientUnits="userSpaceOnUse" /><linearGradient
       xlink:href="#linearGradient23"
       id="linearGradient29"
       x1="204.88477"
       y1="459.16602"
       x2="204.88477"
       y2="521.05658"
       gradientUnits="userSpaceOnUse" /><linearGradient
       xlink:href="#linearGradient21"
       id="linearGradient30"
       gradientUnits="userSpaceOnUse"
       x1="205.41205"
       y1="547.49176"
       x2="205.41205"
       y2="457.72263" /></defs><metadata
     id="metadata4337"><rdf:RDF><cc:Work
         rdf:about=""><dc:format>image/svg+xml</dc:format><dc:type
           rdf:resource="http://purl.org/dc/dcmitype/StillImage" /></cc:Work></rdf:RDF></metadata><g
     id="g866"><rect
       style="opacity:0.6;fill:url(#radialGradient3337-2-2);fill-opacity:1;stroke:none;stroke-width:1.06199"
       id="rect2801-5-5-7-9"
       y="56.5"
       x="54"
       height="5"
       width="6" /><rect
       style="opacity:0.6;fill:url(#radialGradient3339-1-4);fill-opacity:1;stroke:none;stroke-width:1.06199"
       id="rect3696-3-0-3-7"
       transform="scale(-1)"
       y="-61.5"
       x="-10"
       height="5"
       width="6" /><rect
       style="opacity:0.6;fill:url(#linearGradient6394);fill-opacity:1;stroke:none;stroke-width:1.06199"
       id="rect3700-5-6-8-4"
       y="56.5"
       x="10"
       height="5.0000005"
       width="44" /></g><rect
     width="55"
     height="55"
     rx="6"
     ry="6"
     x="4.5"
     y="4.5"
     id="rect5505-21-3-8-5-2-9"
     style="color:#000000;display:inline;overflow:visible;visibility:visible;fill:url(#linearGradient899);fill-opacity:1;fill-rule:nonzero;stroke:none;stroke-width:1;marker:none;enable-background:accumulate" /><rect
     style="opacity:0.3;fill:none;stroke:url(#linearGradient3904);stroke-width:1;stroke-linecap:round;stroke-linejoin:round;stroke-miterlimit:4;stroke-dasharray:none;stroke-dashoffset:0;stroke-opacity:1"
     id="rect6741"
     y="5.428761"
     x="5.5"
     ry="5"
     rx="5"
     height="53.142479"
     width="53" /><rect
     style="color:#000000;display:inline;overflow:visible;visibility:visible;opacity:0.5;fill:none;stroke:#0d52bf;stroke-width:1;stroke-linecap:round;stroke-linejoin:round;stroke-miterlimit:4;stroke-dasharray:none;stroke-dashoffset:0;stroke-opacity:1;marker:none;enable-background:accumulate"
     id="rect5505-21-9"
     y="4.5"
     x="4.5"
     ry="6"
     rx="6"
     height="55"
     width="55" /><style
     type="text/css"
     id="style26">
	.specularity {opacity:0.5;}
	.low-specularity {opacity:0.25;}
	.full-specularity {opacity:1;}
	.black {fill:#000000;}
	.white {fill:#ffffff;}
	.outline-big {stroke-width:16;stroke:none;opacity:0.1;fill:none;}
	.outline-small {stroke-width:8;stroke:none;opacity:0.2;fill:none;}
	.stroke-highlight {fill:none;stroke:none;opacity:0.2;}
       	.base-shadow 	{fill:black;opacity:75;}
	</style><g
     id="inkscape-logo-5"
     transform="matrix(0.3432319,0,0,0.3432319,-38.589549,-139.15857)"
     style="fill:url(#linearGradient4)"><path
       d="m 197.2697,463.70571 -33.585,34.3675 c -11.3475,14.0525 7.7225,12.4175 15.8975,16.465 2.9325,2.9975 -11.24,5.21 -8.3075,8.21 2.9325,2.9975 17.7325,5.775 20.67,8.7725 2.9325,2.9975 -6.0025,6.1775 -3.07,9.175 2.9325,2.9975 9.715,0.1575 10.985,7.0775 0.905,4.945 12.2225,2.125 17.7575,-1.925 2.9325,-3 -5.61,-2.7175 -2.6775,-5.715 7.2925,-7.4575 14.0825,-2.71 16.5775,-10.1825 1.2325,-3.6925 -10.735,-5.6925 -7.7975,-8.69 8.4375,-4.9275 37.6,-8.135 23.7625,-21.9725 l -34.8125,-35.5825 c -4.2575,-4.0875 -11.3625,-4.1325 -15.4,0 z m 38.5775,66.245 c 0,1.705 12.5625,2.8225 12.5625,-0.4025 -1.79,-5.18 -11.0775,-4.83 -12.5625,0.4025 z m -56.59,9.06 c 2.975,2.5725 7.57,-0.64 8.9475,-4.23 -2.8825,-3.83 -13.6725,0.1375 -8.9475,4.23 z m 55.015,-5.5575 c -3.835,3.44 0.43,6.93 4.21,4.7075 0.8425,-0.855 -0.0225,-3.8525 -4.21,-4.7075 z"
       id="path18"
       style="opacity:0.150488;fill:#000000;fill-opacity:1;stroke:#000000;stroke-width:5.82696;stroke-dasharray:none;stroke-opacity:1" /><path
       d="m 197.2697,463.70571 -33.585,34.3675 c -11.3475,14.0525 7.7225,12.4175 15.8975,16.465 2.9325,2.9975 -11.24,5.21 -8.3075,8.21 2.9325,2.9975 17.7325,5.775 20.67,8.7725 2.9325,2.9975 -6.0025,6.1775 -3.07,9.175 2.9325,2.9975 9.715,0.1575 10.985,7.0775 0.905,4.945 12.2225,2.125 17.7575,-1.925 2.9325,-3 -5.61,-2.7175 -2.6775,-5.715 7.2925,-7.4575 14.0825,-2.71 16.5775,-10.1825 1.2325,-3.6925 -10.735,-5.6925 -7.7975,-8.69 8.4375,-4.9275 37.6,-8.135 23.7625,-21.9725 l -34.8125,-35.5825 c -4.2575,-4.0875 -11.3625,-4.1325 -15.4,0 z m 38.5775,66.245 c 0,1.705 12.5625,2.8225 12.5625,-0.4025 -1.79,-5.18 -11.0775,-4.83 -12.5625,0.4025 z m -56.59,9.06 c 2.975,2.5725 7.57,-0.64 8.9475,-4.23 -2.8825,-3.83 -13.6725,0.1375 -8.9475,4.23 z m 55.015,-5.5575 c -3.835,3.44 0.43,6.93 4.21,4.7075 0.8425,-0.855 -0.0225,-3.8525 -4.21,-4.7075 z"
       id="path17"
       style="opacity:0.150488;fill:#000000;fill-opacity:1;stroke-width:0.25" /><path
       d="m 197.2697,460.79217 -33.585,34.3675 c -11.3475,14.0525 7.7225,12.4175 15.8975,16.465 2.9325,2.9975 -11.24,5.21 -8.3075,8.21 2.9325,2.9975 17.7325,5.775 20.67,8.7725 2.9325,2.9975 -6.0025,6.1775 -3.07,9.175 2.9325,2.9975 9.715,0.1575 10.985,7.0775 0.905,4.945 12.2225,2.125 17.7575,-1.925 2.9325,-3 -5.61,-2.7175 -2.6775,-5.715 7.2925,-7.4575 14.0825,-2.71 16.5775,-10.1825 1.2325,-3.6925 -10.735,-5.6925 -7.7975,-8.69 8.4375,-4.9275 37.6,-8.135 23.7625,-21.9725 l -34.8125,-35.5825 c -4.2575,-4.0875 -11.3625,-4.1325 -15.4,0 z m 38.5775,66.245 c 0,1.705 12.5625,2.8225 12.5625,-0.4025 -1.79,-5.18 -11.0775,-4.83 -12.5625,0.4025 z m -56.59,9.06 c 2.975,2.5725 7.57,-0.64 8.9475,-4.23 -2.8825,-3.83 -13.6725,0.1375 -8.9475,4.23 z m 55.015,-5.5575 c -3.835,3.44 0.43,6.93 4.21,4.7075 0.8425,-0.855 -0.0225,-3.8525 -4.21,-4.7075 z"
       id="path2313-6"
       style="fill:url(#linearGradient30);fill-opacity:1;stroke-width:0.25" /><path
       d="m 210.48381,465.83149 13.2875,13.495 c 1.26,1.2875 1.2425,3.7825 0.5375,4.5 l -6.5975,-5.2775 -1.2975,7.815 -5.5125,-2.91 -8.8275,5.5775 -2.9225,-11.7575 -4.7425,8.205 h -7.25 c -2.955,0 -3.3025,-3.75 -0.6175,-6.435 4.69,-5.0625 10.0725,-10.2225 12.9975,-13.2125 2.94,-3.005 8.0625,-2.92 10.945,0 z"
       id="path11"
       style="opacity:0.15;fill:#000000;fill-opacity:1;stroke:#000000;stroke-width:5.82696;stroke-dasharray:none;stroke-opacity:1" /><path
       d="m 210.48381,465.83149 13.2875,13.495 c 1.26,1.2875 1.2425,3.7825 0.5375,4.5 l -6.5975,-5.2775 -1.2975,7.815 -5.5125,-2.91 -8.8275,5.5775 -2.9225,-11.7575 -4.7425,8.205 h -7.25 c -2.955,0 -3.3025,-3.75 -0.6175,-6.435 4.69,-5.0625 10.0725,-10.2225 12.9975,-13.2125 2.94,-3.005 8.0625,-2.92 10.945,0 z"
       id="path12"
       style="opacity:0.15;fill:#000000;fill-opacity:1;stroke:none;stroke-width:5.82696;stroke-dasharray:none;stroke-opacity:1" /><path
       d="m 210.48381,462.91681 13.2875,13.495 c 1.26,1.2875 1.2425,3.7825 0.5375,4.5 l -6.5975,-5.2775 -1.2975,7.815 -5.5125,-2.91 -8.8275,5.5775 -2.9225,-11.7575 -4.7425,8.205 h -7.25 c -2.955,0 -3.3025,-3.75 -0.6175,-6.435 4.69,-5.0625 10.0725,-10.2225 12.9975,-13.2125 2.94,-3.005 8.0625,-2.92 10.945,0 z"
       id="path2317-2"
       style="fill:#ffffff;fill-opacity:1;stroke-width:0.25" /><path
       id="path9"
       style="opacity:0.149843;fill:#000000;fill-opacity:1;stroke-width:0.25"
       d="m 199.15161,471.74049 -4.7401,8.20555 h -7.25526 c -1.10054,0 -1.84126,-0.52292 -2.19649,-1.31448 -0.67412,2.05155 0.10357,3.93206 2.19649,3.93206 h 7.25526 l 4.7401,-8.20555 2.92486,11.75635 8.8258,-5.57658 5.51399,2.91348 1.29741,-7.8186 6.59517,5.28068 c 0.49092,-0.49962 0.64815,-1.86298 0.27314,-3.0785 -0.0741,0.18596 -0.16366,0.34382 -0.27314,0.45523 l -6.59517,-5.27499 -1.29741,7.81291 -5.51399,-2.90779 -8.8258,5.57658 z" /><path
       id="path24"
       style="opacity:0.150322;fill:#000000;fill-opacity:1;stroke-width:0.25"
       d="m 160.39999,500.8241 c -2.0864,7.64149 11.01395,7.45571 18.17513,10.37358 1.23224,-0.78754 1.87174,-1.60299 1.0072,-2.4867 -5.88877,-2.91556 -17.42857,-2.88091 -19.18233,-7.88688 z m 90.5228,0.78527 c -2.18064,7.28654 -20.75065,10.05217 -27.20577,13.82197 -0.90271,0.92115 -0.39121,1.74986 0.70561,2.56068 7.85703,-4.0505 29.00717,-7.12132 26.50016,-16.38265 z m -78.89732,15.91034 c -1.05622,0.7346 -1.55287,1.49581 -0.75113,2.31599 2.92496,2.9898 17.65414,5.75747 20.64475,8.74614 0.6944,-0.9721 0.95508,-1.94355 0.0284,-2.89072 -2.74049,-2.79647 -15.80078,-5.40062 -19.92207,-8.17141 z m 75.42049,7.4658 c -2.25726,1.20322 -7.94134,0.88363 -10.41911,0.0171 -0.53339,0.56783 -0.95194,1.24095 -1.17791,2.03716 0,1.705 12.5587,2.82098 12.5587,-0.40401 -0.2186,-0.6326 -0.54731,-1.18139 -0.96168,-1.65022 z m -16.37695,0.239 c -2.79017,5.87915 -9.23025,2.0295 -16.12658,9.08187 -1.1679,1.19378 -0.50469,1.86196 0.51782,2.4298 7.09299,-6.72465 13.62283,-2.40223 16.0583,-9.69644 0.21814,-0.65355 0.004,-1.2528 -0.44954,-1.81523 z m -44.01521,5.71315 c -1.96893,2.61499 -5.39609,4.32279 -7.79584,2.24771 -0.24986,-0.21641 -0.43663,-0.43413 -0.60318,-0.6487 -0.83384,1.01924 -0.87031,2.28594 0.60318,3.56218 2.975,2.5725 7.5678,-0.64366 8.9453,-4.23365 -0.30072,-0.39957 -0.7032,-0.68899 -1.14946,-0.92754 z m 46.18325,0.8308 c -1.77567,2.96561 1.91941,5.43306 5.24654,3.47683 0.46819,-0.47514 0.37423,-1.60573 -0.48937,-2.66879 -1.93109,0.88345 -3.88822,0.36936 -4.75717,-0.80804 z m -44.32818,3.12972 c -0.69586,0.97301 -0.96163,1.93698 -0.0341,2.88503 2.9325,2.9975 9.71246,0.15886 10.98246,7.07885 0.905,4.945 12.22473,2.12095 17.75972,-1.92904 1.20899,-1.23682 0.45197,-1.90588 -0.63163,-2.48671 -5.7159,3.81224 -16.25546,6.27039 -17.12809,1.50227 -1.26543,-6.89508 -7.99888,-4.10537 -10.94832,-7.0504 z" /><path
       d="m 180.62305,510.60568 -0.17188,-0.17578 -0.22265,-0.10938 c -4.32426,-2.14097 -11.17512,-2.7479 -15.34766,-4.51758 -3.37698,-1.43225 -5.14439,-3.41592 -0.0859,-9.69531 l 33.51563,-34.29687 c 1.71855,-1.75899 4.11648,-2.64945 6.57422,-2.64453 l -4e-5,-2.1e-4 c 2.46167,0.005 4.9286,0.90666 6.77148,2.67382 l 0.004,0.004 34.78711,35.55664 0.006,0.004 c 4.89239,4.89238 3.64138,7.66869 0.23243,10.07226 -5.94353,4.19065 -18.33132,6.47729 -23.70118,9.61328 l -0.16992,0.0977 -0.13672,0.14062"
       id="path25"
       style="opacity:0.500196;fill:none;fill-opacity:1;stroke:url(#linearGradient29);stroke-width:2.91348;stroke-linejoin:round;stroke-dasharray:none;stroke-opacity:1" /></g><style
     type="text/css"
     id="style26-3">
	.specularity {opacity:0.5;}
	.low-specularity {opacity:0.25;}
	.full-specularity {opacity:1;}
	.black {fill:#000000;}
	.white {fill:#ffffff;}
	.outline-big {stroke-width:16;stroke:none;opacity:0.1;fill:none;}
	.outline-small {stroke-width:8;stroke:none;opacity:0.2;fill:none;}
	.stroke-highlight {fill:none;stroke:none;opacity:0.2;}
       	.base-shadow 	{fill:black;opacity:75;}
	</style></svg>
