<?xml version="1.0" encoding="UTF-8" standalone="no"?>
<svg
   version="1.1"
   id="svg4332"
   height="64px"
   width="64px"
   xml:space="preserve"
   xmlns:xlink="http://www.w3.org/1999/xlink"
   xmlns="http://www.w3.org/2000/svg"
   xmlns:svg="http://www.w3.org/2000/svg"
   xmlns:rdf="http://www.w3.org/1999/02/22-rdf-syntax-ns#"
   xmlns:cc="http://creativecommons.org/ns#"
   xmlns:dc="http://purl.org/dc/elements/1.1/"><defs
     id="defs4334"><linearGradient
       id="linearGradient20"><stop
         style="stop-color:#e7c591;stop-opacity:1;"
         offset="0"
         id="stop20" /><stop
         style="stop-color:#cfa25e;stop-opacity:1;"
         offset="1"
         id="stop28" /></linearGradient><linearGradient
       id="linearGradient19"><stop
         style="stop-color:#ffffff;stop-opacity:1;"
         offset="0"
         id="stop16" /><stop
         style="stop-color:#ffffff;stop-opacity:0.15279162;"
         offset="0.49999893"
         id="stop17" /><stop
         style="stop-color:#ffffff;stop-opacity:0.10358003;"
         offset="0.49999893"
         id="stop18" /><stop
         style="stop-color:#ffffff;stop-opacity:0.30454326;"
         offset="1"
         id="stop19" /></linearGradient><linearGradient
       id="linearGradient7"><stop
         style="stop-color:#ffffff;stop-opacity:1;"
         offset="0"
         id="stop7" /><stop
         style="stop-color:#ffffff;stop-opacity:0.15279162;"
         offset="0.15789479"
         id="stop9" /><stop
         style="stop-color:#ffffff;stop-opacity:0.10358003;"
         offset="0.83333337"
         id="stop10" /><stop
         style="stop-color:#ffffff;stop-opacity:0.30454326;"
         offset="1"
         id="stop8" /></linearGradient><linearGradient
       id="linearGradient5"><stop
         style="stop-color:#fafafa;stop-opacity:1;"
         offset="0"
         id="stop5" /><stop
         style="stop-color:#d4d4d4;stop-opacity:1;"
         offset="1"
         id="stop6" /></linearGradient><linearGradient
       y2="42.091705"
       x2="23.99999"
       y1="5.9093657"
       x1="23.99999"
       gradientTransform="matrix(1.4324324,0,0,1.4362832,-2.3783747,-2.4707827)"
       gradientUnits="userSpaceOnUse"
       id="linearGradient3904"
       xlink:href="#linearGradient4270" /><linearGradient
       id="linearGradient4270"><stop
         id="stop4272"
         style="stop-color:#ffffff;stop-opacity:1"
         offset="0" /><stop
         id="stop4274"
         style="stop-color:#ffffff;stop-opacity:0.23529412"
         offset="0.0348749" /><stop
         id="stop4276"
         style="stop-color:#ffffff;stop-opacity:0.15686275"
         offset="0.96216321" /><stop
         id="stop4278"
         style="stop-color:#ffffff;stop-opacity:0.39215687"
         offset="1" /></linearGradient><linearGradient
       id="linearGradient3688-166-749-654"><stop
         offset="0"
         style="stop-color:#181818;stop-opacity:1"
         id="stop3088" /><stop
         offset="1"
         style="stop-color:#181818;stop-opacity:0"
         id="stop3090" /></linearGradient><linearGradient
       id="linearGradient3702-501-757-795"><stop
         offset="0"
         style="stop-color:#181818;stop-opacity:0"
         id="stop3100" /><stop
         offset="0.5"
         style="stop-color:#181818;stop-opacity:1"
         id="stop3102" /><stop
         offset="1"
         style="stop-color:#181818;stop-opacity:0"
         id="stop3104" /></linearGradient><radialGradient
       cx="4.9929786"
       cy="43.5"
       r="2.5"
       fx="4.9929786"
       fy="43.5"
       id="radialGradient3337-2-2"
       xlink:href="#linearGradient3688-166-749-654"
       gradientUnits="userSpaceOnUse"
       gradientTransform="matrix(2.4045407,0,0,0.99999998,41.985755,15.500001)" /><radialGradient
       cx="4.9929786"
       cy="43.5"
       r="2.5"
       fx="4.9929786"
       fy="43.5"
       id="radialGradient3339-1-4"
       xlink:href="#linearGradient3688-166-749-654"
       gradientUnits="userSpaceOnUse"
       gradientTransform="matrix(2.4045407,0,0,0.99999998,-22.014244,-102.5)" /><linearGradient
       x1="25.058096"
       y1="47.027729"
       x2="25.058096"
       y2="39.999443"
       id="linearGradient6394"
       xlink:href="#linearGradient3702-501-757-795"
       gradientUnits="userSpaceOnUse"
       gradientTransform="matrix(1.5714286,0,0,0.7142857,-5.7142853,27.928572)" /><linearGradient
       id="linearGradient23"><stop
         style="stop-color:#ffffff;stop-opacity:1;"
         offset="0"
         id="stop23" /><stop
         style="stop-color:#ffffff;stop-opacity:0.3560937;"
         offset="0.5"
         id="stop25" /><stop
         style="stop-color:#ffffff;stop-opacity:0.19511063;"
         offset="0.75"
         id="stop26" /><stop
         style="stop-color:#ffffff;stop-opacity:0.49612457;"
         offset="1"
         id="stop24" /></linearGradient><linearGradient
       id="linearGradient21"><stop
         style="stop-color:#4d4d4d;stop-opacity:1;"
         offset="0.29928437"
         id="stop21" /><stop
         style="stop-color:#333333;stop-opacity:1;"
         offset="0.40000004"
         id="stop27" /><stop
         style="stop-color:#4d4d4d;stop-opacity:1;"
         offset="1"
         id="stop22" /></linearGradient><linearGradient
       xlink:href="#linearGradient23"
       id="linearGradient29"
       x1="204.88477"
       y1="459.16602"
       x2="204.88477"
       y2="521.05658"
       gradientUnits="userSpaceOnUse"
       gradientTransform="matrix(0.3432319,0,0,0.3432319,-38.589549,-142.15857)" /><linearGradient
       xlink:href="#linearGradient21"
       id="linearGradient30"
       gradientUnits="userSpaceOnUse"
       x1="205.41205"
       y1="547.49176"
       x2="205.41205"
       y2="457.72263"
       gradientTransform="matrix(0.3432319,0,0,0.3432319,-38.589549,-142.15857)" /><linearGradient
       xlink:href="#linearGradient5"
       id="linearGradient6"
       x1="33"
       y1="4"
       x2="33"
       y2="60"
       gradientUnits="userSpaceOnUse"
       gradientTransform="matrix(0.98181818,0,0,0.98181818,0.58181818,0.58181818)" /><linearGradient
       xlink:href="#linearGradient7"
       id="linearGradient8"
       x1="58"
       y1="54.25"
       x2="58"
       y2="58.75"
       gradientUnits="userSpaceOnUse"
       gradientTransform="matrix(1,0,0,0.66666667,0,19.833333)" /><linearGradient
       xlink:href="#linearGradient20"
       id="linearGradient14"
       x1="32"
       y1="2.5"
       x2="32"
       y2="6.5"
       gradientUnits="userSpaceOnUse" /><linearGradient
       xlink:href="#linearGradient19"
       id="linearGradient16"
       x1="205.66139"
       y1="417.08994"
       x2="205.66139"
       y2="420.00342"
       gradientUnits="userSpaceOnUse"
       gradientTransform="matrix(0.3432319,0,0,0.3432319,-38.589549,-139.15857)" /><linearGradient
       xlink:href="#linearGradient20"
       id="linearGradient28"
       x1="11"
       y1="54.5"
       x2="11"
       y2="62.5"
       gradientUnits="userSpaceOnUse"
       gradientTransform="matrix(1,0,0,0.75,0,13.625)" /></defs><metadata
     id="metadata4337"><rdf:RDF><cc:Work
         rdf:about=""><dc:format>image/svg+xml</dc:format><dc:type
           rdf:resource="http://purl.org/dc/dcmitype/StillImage" /></cc:Work></rdf:RDF></metadata><rect
     style="opacity:1;fill:#cfa25e;fill-opacity:1;stroke:#804b00;stroke-width:0.745356;stroke-linecap:round;stroke-linejoin:round;stroke-dasharray:none;stroke-opacity:0.50235403;paint-order:normal"
     id="rect32"
     width="5"
     height="2"
     x="29.5"
     y="1.5" /><g
     id="g866"
     transform="translate(0,1)"><rect
       style="opacity:0.6;fill:url(#radialGradient3337-2-2);fill-opacity:1;stroke:none;stroke-width:1.06199"
       id="rect2801-5-5-7-9"
       y="56.5"
       x="54"
       height="5"
       width="6" /><rect
       style="opacity:0.6;fill:url(#radialGradient3339-1-4);fill-opacity:1;stroke:none;stroke-width:1.06199"
       id="rect3696-3-0-3-7"
       transform="scale(-1)"
       y="-61.5"
       x="-10"
       height="5"
       width="6" /><rect
       style="opacity:0.6;fill:url(#linearGradient6394);fill-opacity:1;stroke:none;stroke-width:1.06199"
       id="rect3700-5-6-8-4"
       y="56.5"
       x="10"
       height="5.0000005"
       width="44" /></g><rect
     width="54"
     height="54"
     rx="5.5"
     ry="5.5"
     x="5"
     y="5"
     id="rect5505-21-3-8-5-2-9"
     style="color:#000000;display:inline;overflow:visible;visibility:visible;fill:url(#linearGradient6);fill-rule:nonzero;stroke:none;stroke-width:0.981818;marker:none;enable-background:accumulate" /><rect
     style="opacity:0.150231;fill:#000000;fill-opacity:1;stroke:none;stroke-width:0.95669;stroke-linecap:round;stroke-linejoin:round;stroke-dasharray:none;stroke-opacity:0.500939;paint-order:normal"
     id="rect33"
     width="54"
     height="6"
     x="5"
     y="53.5"
     rx="1.3728814"
     ry="1.5" /><rect
     style="opacity:1;fill:none;stroke:url(#linearGradient3904);stroke-width:1;stroke-linecap:round;stroke-linejoin:round;stroke-miterlimit:4;stroke-dasharray:none;stroke-dashoffset:0;stroke-opacity:1"
     id="rect6741"
     y="5.428761"
     x="5.5"
     ry="5"
     rx="5"
     height="53.142479"
     width="53" /><rect
     style="color:#000000;display:inline;overflow:visible;visibility:visible;opacity:0.5;fill:none;stroke:#abacae;stroke-width:1;stroke-linecap:round;stroke-linejoin:round;stroke-miterlimit:4;stroke-dasharray:none;stroke-dashoffset:0;stroke-opacity:1;marker:none;enable-background:accumulate"
     id="rect5505-21-9"
     y="4.5"
     x="4.5"
     ry="6"
     rx="6"
     height="55"
     width="55" /><style
     type="text/css"
     id="style26">
	.specularity {opacity:0.5;}
	.low-specularity {opacity:0.25;}
	.full-specularity {opacity:1;}
	.black {fill:#000000;}
	.white {fill:#ffffff;}
	.outline-big {stroke-width:16;stroke:none;opacity:0.1;fill:none;}
	.outline-small {stroke-width:8;stroke:none;opacity:0.2;fill:none;}
	.stroke-highlight {fill:none;stroke:none;opacity:0.2;}
       	.base-shadow 	{fill:black;opacity:75;}
	</style><style
     type="text/css"
     id="style26-3">
	.specularity {opacity:0.5;}
	.low-specularity {opacity:0.25;}
	.full-specularity {opacity:1;}
	.black {fill:#000000;}
	.white {fill:#ffffff;}
	.outline-big {stroke-width:16;stroke:none;opacity:0.1;fill:none;}
	.outline-small {stroke-width:8;stroke:none;opacity:0.2;fill:none;}
	.stroke-highlight {fill:none;stroke:none;opacity:0.2;}
       	.base-shadow 	{fill:black;opacity:75;}
	</style><rect
     style="opacity:0.150392;fill:#000000;fill-opacity:1;stroke:#000000;stroke-width:2;stroke-linecap:round;stroke-linejoin:round;stroke-dasharray:none;stroke-opacity:1;paint-order:normal"
     id="rect34"
     width="54"
     height="6"
     x="5"
     y="53.5"
     rx="1.3728813"
     ry="1.5" /><rect
     style="opacity:1;fill:url(#linearGradient28);stroke:#804b00;stroke-width:1;stroke-linecap:round;stroke-linejoin:round;stroke-dasharray:none;stroke-opacity:0.500939;paint-order:normal"
     id="rect6"
     width="59"
     height="6"
     x="2.5"
     y="54.5"
     rx="1.5"
     ry="1.5" /><rect
     style="opacity:0.123999;fill:none;stroke:url(#linearGradient8);stroke-width:1;stroke-linecap:round;stroke-linejoin:round;stroke-dasharray:none;stroke-opacity:1;paint-order:normal"
     id="rect7"
     width="57"
     height="4"
     x="3.5"
     y="55.5"
     rx="0.5"
     ry="0.5" /><style
     type="text/css"
     id="style26-36">
	.specularity {opacity:0.5;}
	.low-specularity {opacity:0.25;}
	.full-specularity {opacity:1;}
	.black {fill:#000000;}
	.white {fill:#ffffff;}
	.outline-big {stroke-width:16;stroke:none;opacity:0.1;fill:none;}
	.outline-small {stroke-width:8;stroke:none;opacity:0.2;fill:none;}
	.stroke-highlight {fill:none;stroke:none;opacity:0.2;}
       	.base-shadow 	{fill:black;opacity:75;}
	</style><g
     id="g28"
     transform="translate(0,1)"><path
       d="M 29.119705,17.000022 17.592262,28.796044 c -3.894824,4.823266 2.650608,4.262082 5.456529,5.651313 1.006527,1.028838 -3.857927,1.788239 -2.851399,2.817934 1.006527,1.028838 6.086359,1.982165 7.094603,3.011002 1.006528,1.028838 -2.060249,2.120315 -1.053722,3.149153 1.006528,1.028837 3.334498,0.05406 3.770403,2.429224 0.310624,1.697281 4.195151,0.729367 6.09494,-0.660722 1.006528,-1.029695 -1.925531,-0.932732 -0.919003,-1.96157 2.503018,-2.559652 4.833563,-0.930159 5.689926,-3.494959 0.423034,-1.267384 -3.684594,-1.953847 -2.67635,-2.982685 2.896019,-1.691275 12.905519,-2.792192 8.156048,-7.541663 L 34.405476,17.000022 c -1.46131,-1.402961 -3.899972,-1.418406 -5.285771,0 z m 13.241029,22.737397 c 0,0.58521 4.31185,0.968772 4.31185,-0.138151 -0.614385,-1.777941 -3.802151,-1.65781 -4.31185,0.138151 z M 22.93724,42.8471 c 1.021115,0.882964 2.598266,-0.219668 3.071068,-1.451871 -0.989366,-1.314578 -4.692838,0.0472 -3.071068,1.451871 z m 18.882903,-1.907511 c -1.316294,1.180718 0.14759,2.378597 1.445007,1.615764 0.289172,-0.293463 -0.0077,-1.322301 -1.445007,-1.615764 z"
       id="path18"
       style="opacity:0.150488;fill:#000000;fill-opacity:1;stroke:#000000;stroke-width:2;stroke-dasharray:none;stroke-opacity:1" /><path
       d="M 29.119705,17.000022 17.592262,28.796044 c -3.894824,4.823266 2.650608,4.262082 5.456529,5.651313 1.006527,1.028838 -3.857927,1.788239 -2.851399,2.817934 1.006527,1.028838 6.086359,1.982165 7.094603,3.011002 1.006528,1.028838 -2.060249,2.120315 -1.053722,3.149153 1.006528,1.028837 3.334498,0.05406 3.770403,2.429224 0.310624,1.697281 4.195151,0.729367 6.09494,-0.660722 1.006528,-1.029695 -1.925531,-0.932732 -0.919003,-1.96157 2.503018,-2.559652 4.833563,-0.930159 5.689926,-3.494959 0.423034,-1.267384 -3.684594,-1.953847 -2.67635,-2.982685 2.896019,-1.691275 12.905519,-2.792192 8.156048,-7.541663 L 34.405476,17.000022 c -1.46131,-1.402961 -3.899972,-1.418406 -5.285771,0 z m 13.241029,22.737397 c 0,0.58521 4.31185,0.968772 4.31185,-0.138151 -0.614385,-1.777941 -3.802151,-1.65781 -4.31185,0.138151 z M 22.93724,42.8471 c 1.021115,0.882964 2.598266,-0.219668 3.071068,-1.451871 -0.989366,-1.314578 -4.692838,0.0472 -3.071068,1.451871 z m 18.882903,-1.907511 c -1.316294,1.180718 0.14759,2.378597 1.445007,1.615764 0.289172,-0.293463 -0.0077,-1.322301 -1.445007,-1.615764 z"
       id="path17"
       style="opacity:0.150488;fill:#000000;fill-opacity:1;stroke-width:0.085808" /><path
       d="M 29.119705,16.000002 17.592262,27.796024 c -3.894824,4.823267 2.650608,4.262082 5.456529,5.651314 1.006527,1.028837 -3.857927,1.788238 -2.851399,2.817933 1.006527,1.028838 6.086359,1.982165 7.094603,3.011002 1.006528,1.028838 -2.060249,2.120315 -1.053722,3.149153 1.006528,1.028838 3.334498,0.05406 3.770403,2.429224 0.310624,1.697282 4.195151,0.729368 6.09494,-0.660722 1.006528,-1.029695 -1.925531,-0.932732 -0.919003,-1.96157 2.503018,-2.559652 4.833563,-0.930158 5.689926,-3.494959 0.423034,-1.267384 -3.684594,-1.953847 -2.67635,-2.982685 2.896019,-1.691275 12.905519,-2.792191 8.156048,-7.541663 L 34.405476,16.000002 c -1.46131,-1.40296 -3.899972,-1.418406 -5.285771,0 z m 13.241029,22.737397 c 0,0.585211 4.31185,0.968772 4.31185,-0.138151 -0.614385,-1.777941 -3.802151,-1.65781 -4.31185,0.138151 z M 22.93724,41.84708 c 1.021115,0.882964 2.598266,-0.219668 3.071068,-1.451871 -0.989366,-1.314578 -4.692838,0.0472 -3.071068,1.451871 z m 18.882903,-1.907511 c -1.316294,1.180718 0.14759,2.378597 1.445007,1.615764 0.289172,-0.293463 -0.0077,-1.322301 -1.445007,-1.615764 z"
       id="path2313-6"
       style="fill:url(#linearGradient30);fill-opacity:1;stroke-width:0.085808" /><path
       d="m 33.655209,16.729246 4.560694,4.631915 c 0.432472,0.441911 0.426466,1.298274 0.184487,1.544543 l -2.264472,-1.811406 -0.445344,2.682357 -1.892066,-0.998805 -3.029879,1.914376 -1.003095,-4.035549 -1.627778,2.816218 h -2.488431 c -1.01425,0 -1.133523,-1.28712 -0.211946,-2.208697 1.609758,-1.737612 3.457204,-3.508688 4.461157,-4.534952 1.009102,-1.031412 2.767307,-1.002237 3.756673,0 z"
       id="path2317-2"
       style="fill:#ffffff;fill-opacity:1;stroke-width:0.085808" /><path
       id="path9"
       style="opacity:0.149843;fill:#000000;fill-opacity:1;stroke-width:0.085808"
       d="m 29.765636,19.757815 -1.626953,2.816406 h -2.490237 c -0.37774,0 -0.631979,-0.179483 -0.753905,-0.451171 -0.23138,0.704157 0.03555,1.349608 0.753905,1.349608 h 2.490237 l 1.626953,-2.816406 1.003906,4.035154 3.029296,-1.91406 1.892577,0.999999 0.445313,-2.683593 2.263672,1.812498 c 0.1685,-0.171486 0.222466,-0.639434 0.09375,-1.056639 -0.02543,0.06383 -0.05617,0.11801 -0.09375,0.156249 l -2.263672,-1.810545 -0.445313,2.68164 -1.892577,-0.998046 -3.029296,1.91406 z" /><path
       id="path24"
       style="opacity:0.150322;fill:#000000;fill-opacity:1;stroke-width:0.085808"
       d="m 16.464844,29.740237 c -0.716119,2.622804 3.780339,2.559038 6.238285,3.560544 0.422944,-0.270309 0.642441,-0.550197 0.345703,-0.853515 -2.021214,-1.000713 -5.982041,-0.98882 -6.583988,-2.707029 z m 31.070313,0.26953 c -0.748465,2.500973 -7.122285,3.450226 -9.337888,4.744141 -0.309839,0.316168 -0.134276,0.600608 0.242188,0.878907 2.696783,-1.390261 9.956186,-2.444264 9.0957,-5.623048 z M 20.45508,35.470703 c -0.362528,0.252139 -0.532995,0.51341 -0.257812,0.794922 1.00394,1.026195 6.059464,1.976147 7.085937,3.001954 0.23834,-0.333655 0.327814,-0.667088 0.0097,-0.992187 -0.940624,-0.959838 -5.423332,-1.853665 -6.83789,-2.804689 z m 25.886718,2.562501 c -0.774764,0.412984 -2.725721,0.30329 -3.576171,0.0059 -0.183076,0.194898 -0.326736,0.425934 -0.404296,0.699219 0,0.58521 4.310546,0.96825 4.310546,-0.138669 -0.07503,-0.217129 -0.187854,-0.405491 -0.330079,-0.566409 z m -5.621092,0.08203 c -0.957675,2.017912 -3.168116,0.69659 -5.535156,3.117188 -0.400861,0.409743 -0.173226,0.639084 0.177732,0.833985 2.43454,-2.308115 4.67579,-0.824522 5.511721,-3.328128 0.07487,-0.224319 0.0014,-0.430001 -0.154297,-0.623045 z M 25.613282,40.07617 c -0.675799,0.897548 -1.85211,1.483719 -2.675781,0.771486 -0.08576,-0.07428 -0.149865,-0.149008 -0.20703,-0.222655 -0.286201,0.349836 -0.298719,0.784608 0.20703,1.222654 1.021115,0.882964 2.597511,-0.220925 3.070313,-1.453124 -0.103217,-0.137145 -0.241361,-0.236483 -0.394532,-0.318361 z m 15.851565,0.285157 c -0.609467,1.017892 0.658803,1.864799 1.80078,1.193359 0.160697,-0.163083 0.128447,-0.551138 -0.167968,-0.916014 -0.662811,0.303228 -1.334561,0.126776 -1.632812,-0.277345 z m -15.214846,1.07422 c -0.238841,0.333968 -0.330062,0.664833 -0.0117,0.990234 1.006528,1.028838 3.333626,0.05453 3.769531,2.429687 0.310625,1.697282 4.195917,0.727978 6.095702,-0.662108 0.414964,-0.424516 0.155131,-0.654159 -0.216795,-0.853518 -1.96188,1.308482 -5.579393,2.152198 -5.878907,0.515627 -0.434336,-2.366612 -2.745471,-1.409094 -3.757813,-2.419922 z" /><path
       d="m 23.406044,33.097588 -0.059,-0.06033 -0.07642,-0.03754 C 21.7864,32.264868 19.434967,32.056551 18.002818,31.44914 16.843731,30.957546 16.237099,30.276687 17.973338,28.1214 L 29.476972,16.349615 c 0.589861,-0.603742 1.412907,-0.909376 2.256482,-0.907687 l -1.4e-5,-7.3e-5 c 0.844924,0.0017 1.691653,0.311195 2.324188,0.917741 l 0.0014,0.0014 11.940046,12.204173 0.0021,0.0014 c 1.679224,1.679221 1.249838,2.632139 0.07978,3.457121 -2.040009,1.438364 -6.291893,2.223212 -8.135001,3.299584 l -0.05832,0.03353 -0.04693,0.04827"
       id="path25"
       style="opacity:0.500196;fill:none;fill-opacity:1;stroke:url(#linearGradient29);stroke-width:0.999999;stroke-linejoin:round;stroke-dasharray:none;stroke-opacity:1" /><g
       id="inkscape-logo"
       transform="matrix(0.08760534,0,0,0.08760534,66.438544,13.393442)"><path
         d="m -459.2701,233.68 c 3.59,2.23 57.89,13.26 71.16,15.46 4.6,0.97 1.34,5.71 -5,8.91 -14.3,3.8 -83.66,-24.37 -66.16,-24.37 z"
         id="path2315-3"
         style="fill:#ffffff" /></g></g><rect
     style="opacity:0.14994076;fill:#000000;stroke:#000000;stroke-width:2;stroke-linecap:round;stroke-linejoin:round;stroke-dasharray:none;stroke-opacity:0.98361582;paint-order:normal;fill-opacity:1"
     id="rect31"
     width="19"
     height="4"
     x="22.5"
     y="3.5"
     rx="0.5"
     ry="0.5" /><rect
     style="opacity:0.15025802;fill:#000000;stroke:none;stroke-width:1;stroke-linecap:round;stroke-linejoin:round;stroke-dasharray:none;stroke-opacity:0.504281;paint-order:normal;fill-opacity:1"
     id="rect28"
     width="19"
     height="4"
     x="22.5"
     y="3.5"
     rx="0.5"
     ry="0.5" /><rect
     style="opacity:1;fill:url(#linearGradient14);stroke:#804b00;stroke-width:1;stroke-linecap:round;stroke-linejoin:round;stroke-dasharray:none;stroke-opacity:0.50428134;paint-order:normal"
     id="rect12"
     width="19"
     height="4"
     x="22.5"
     y="2.5"
     rx="0.5"
     ry="0.5" /><rect
     style="fill:none;stroke:url(#linearGradient16);stroke-width:0.999999;stroke-linecap:round;stroke-linejoin:round;stroke-dasharray:none;stroke-opacity:0.504281;paint-order:normal;opacity:0.12000732"
     id="rect14"
     width="17"
     height="2"
     x="23.5"
     y="3.4999957"
     rx="0"
     ry="0" /></svg>
