<?xml version="1.0" encoding="UTF-8" standalone="no"?>
<svg
   width="64"
   height="64"
   viewBox="0 0 64 64"
   fill="none"
   version="1.1"
   id="svg4"
   xml:space="preserve"
   xmlns:xlink="http://www.w3.org/1999/xlink"
   xmlns="http://www.w3.org/2000/svg"
   xmlns:svg="http://www.w3.org/2000/svg"><defs
     id="defs4"><linearGradient
       id="linearGradient26"><stop
         id="stop23"
         style="stop-color:#ffffff;stop-opacity:1"
         offset="0" /><stop
         id="stop24"
         style="stop-color:#ffffff;stop-opacity:0.23529412"
         offset="0.04999998" /><stop
         id="stop25"
         style="stop-color:#ffffff;stop-opacity:0.15686275"
         offset="0.94999999" /><stop
         id="stop26"
         style="stop-color:#ffffff;stop-opacity:0.39215687"
         offset="1" /></linearGradient><linearGradient
       id="linearGradient22"><stop
         id="stop19"
         style="stop-color:#ffffff;stop-opacity:1"
         offset="0" /><stop
         id="stop20"
         style="stop-color:#ffffff;stop-opacity:0.23529412"
         offset="0.25" /><stop
         id="stop21"
         style="stop-color:#ffffff;stop-opacity:0.15686275"
         offset="0.75" /><stop
         id="stop22"
         style="stop-color:#ffffff;stop-opacity:0.39215687"
         offset="1" /></linearGradient><linearGradient
       id="linearGradient8"><stop
         style="stop-color:#7e8087;stop-opacity:0;"
         offset="0"
         id="stop8" /><stop
         style="stop-color:#7e8087;stop-opacity:0.49581695;"
         offset="0.07777778"
         id="stop10" /><stop
         style="stop-color:#7e8087;stop-opacity:1;"
         offset="0.5"
         id="stop12" /><stop
         style="stop-color:#7e8087;stop-opacity:0.5;"
         offset="0.9222222"
         id="stop11" /><stop
         style="stop-color:#7e8087;stop-opacity:0;"
         offset="1"
         id="stop9" /></linearGradient><linearGradient
       id="linearGradient4"><stop
         style="stop-color:#fafafa;stop-opacity:1;"
         offset="0"
         id="stop4" /><stop
         style="stop-color:#d4d4d4;stop-opacity:1;"
         offset="1"
         id="stop5" /></linearGradient><linearGradient
       y2="42.05267"
       x2="37.962261"
       y1="5.8481112"
       x1="37.962261"
       gradientTransform="matrix(1.4324324,0,0,1.4362832,-2.378375,-2.3995437)"
       gradientUnits="userSpaceOnUse"
       id="linearGradient3904"
       xlink:href="#linearGradient4270" /><linearGradient
       id="linearGradient4270"><stop
         id="stop4272"
         style="stop-color:#ffffff;stop-opacity:1"
         offset="0" /><stop
         id="stop4274"
         style="stop-color:#ffffff;stop-opacity:0.23529412"
         offset="0.08653846" /><stop
         id="stop4276"
         style="stop-color:#ffffff;stop-opacity:0.15686275"
         offset="0.91346157" /><stop
         id="stop4278"
         style="stop-color:#ffffff;stop-opacity:0.39215687"
         offset="1" /></linearGradient><linearGradient
       id="linearGradient3688-166-749-654"><stop
         offset="0"
         style="stop-color:#181818;stop-opacity:1"
         id="stop3088" /><stop
         offset="1"
         style="stop-color:#181818;stop-opacity:0"
         id="stop3090" /></linearGradient><linearGradient
       id="linearGradient3702-501-757-795"><stop
         offset="0"
         style="stop-color:#181818;stop-opacity:0"
         id="stop3100" /><stop
         offset="0.5"
         style="stop-color:#181818;stop-opacity:1"
         id="stop3102" /><stop
         offset="1"
         style="stop-color:#181818;stop-opacity:0"
         id="stop3104" /></linearGradient><radialGradient
       cx="4.9929786"
       cy="43.5"
       r="2.5"
       fx="4.9929786"
       fy="43.5"
       id="radialGradient3337-2-2"
       xlink:href="#linearGradient3688-166-749-654"
       gradientUnits="userSpaceOnUse"
       gradientTransform="matrix(2.4045407,0,0,0.99999998,41.985755,15.500001)" /><radialGradient
       cx="4.9929786"
       cy="43.5"
       r="2.5"
       fx="4.9929786"
       fy="43.5"
       id="radialGradient3339-1-4"
       xlink:href="#linearGradient3688-166-749-654"
       gradientUnits="userSpaceOnUse"
       gradientTransform="matrix(2.4045407,0,0,0.99999998,-22.014244,-102.5)" /><linearGradient
       x1="25.058096"
       y1="47.027729"
       x2="25.058096"
       y2="39.999443"
       id="linearGradient6394"
       xlink:href="#linearGradient3702-501-757-795"
       gradientUnits="userSpaceOnUse"
       gradientTransform="matrix(1.5714286,0,0,0.7142857,-5.7142853,27.928572)" /><style
       id="style1">.g{fill:#000;}.g,.h,.i{stroke-width:0px;}.h{fill:url(#e);}.i{fill:#fff;}</style><style
       id="style1-6">.cls-1{fill:#fff;}</style><style
       id="style1-67">.cls-1{fill:#fff;}</style><linearGradient
       xlink:href="#linearGradient4"
       id="linearGradient5"
       x1="33.5"
       y1="5"
       x2="33.5"
       y2="59"
       gradientUnits="userSpaceOnUse" /><linearGradient
       xlink:href="#linearGradient4270"
       id="linearGradient3"
       x1="31"
       y1="6"
       x2="31"
       y2="56"
       gradientUnits="userSpaceOnUse" /><linearGradient
       xlink:href="#linearGradient4270"
       id="linearGradient7"
       x1="32"
       y1="6"
       x2="32"
       y2="54"
       gradientUnits="userSpaceOnUse" /><linearGradient
       xlink:href="#linearGradient8"
       id="linearGradient9"
       x1="9.5"
       y1="55.5"
       x2="54.5"
       y2="55.5"
       gradientUnits="userSpaceOnUse" /><linearGradient
       xlink:href="#linearGradient8"
       id="linearGradient14"
       x1="9.5"
       y1="57.5"
       x2="54.5"
       y2="57.5"
       gradientUnits="userSpaceOnUse" /><linearGradient
       xlink:href="#linearGradient4"
       id="linearGradient17"
       x1="31"
       y1="5"
       x2="31"
       y2="58.990234"
       gradientUnits="userSpaceOnUse" /><linearGradient
       xlink:href="#linearGradient22"
       id="linearGradient19"
       x1="3"
       y1="-31"
       x2="5"
       y2="-31"
       gradientUnits="userSpaceOnUse"
       gradientTransform="translate(0,-3)" /><linearGradient
       xlink:href="#linearGradient26"
       id="linearGradient23"
       gradientUnits="userSpaceOnUse"
       x1="4"
       y1="-25.999996"
       x2="4"
       y2="-35.999996"
       gradientTransform="translate(-64,13.999996)" /><linearGradient
       xlink:href="#linearGradient26"
       id="linearGradient27"
       gradientUnits="userSpaceOnUse"
       gradientTransform="translate(-8,-6.000004)"
       x1="4"
       y1="-25.999996"
       x2="4"
       y2="-35.999996" /></defs><rect
     style="fill:#64baff;fill-opacity:1;stroke:#0d52bf;stroke-linecap:round;stroke-linejoin:round;stroke-opacity:0.5"
     id="rect17-2-2"
     width="5"
     height="13"
     x="-62.5"
     y="-23.5"
     transform="scale(-1)" /><rect
     style="opacity:0.5;fill:none;fill-opacity:1;stroke:url(#linearGradient23);stroke-linecap:round;stroke-linejoin:round;stroke-opacity:0.5"
     id="rect22"
     width="3"
     height="11"
     x="-61.5"
     y="-22.5"
     transform="scale(-1)" /><rect
     style="fill:#ed5353;fill-opacity:1;stroke:#a10705;stroke-linecap:round;stroke-linejoin:round;stroke-opacity:0.5"
     id="rect17-2"
     width="5"
     height="13"
     x="1.5"
     y="-40.5"
     transform="rotate(90)" /><rect
     style="opacity:0.5;fill:none;fill-opacity:1;stroke:url(#linearGradient19);stroke-linecap:round;stroke-linejoin:round;stroke-opacity:0.5"
     id="rect18"
     width="3"
     height="11"
     x="2.5"
     y="-39.5"
     transform="rotate(90)" /><rect
     style="opacity:1;fill:#f9c440;fill-opacity:1;stroke:#d48e15;stroke-linecap:round;stroke-linejoin:round;stroke-opacity:0.5"
     id="rect17"
     width="5"
     height="13"
     x="1.5"
     y="30.5" /><rect
     style="opacity:0.5;fill:none;fill-opacity:1;stroke:url(#linearGradient27);stroke-linecap:round;stroke-linejoin:round;stroke-opacity:0.5"
     id="rect22-2"
     width="3"
     height="11"
     x="-5.5"
     y="-42.5"
     transform="scale(-1)" /><g
     id="g866"><rect
       style="opacity:0.6;fill:url(#radialGradient3337-2-2);fill-opacity:1;stroke:none;stroke-width:1.06199"
       id="rect2801-5-5-7-9"
       y="56.5"
       x="54"
       height="5"
       width="6" /><rect
       style="opacity:0.6;fill:url(#radialGradient3339-1-4);fill-opacity:1;stroke:none;stroke-width:1.06199"
       id="rect3696-3-0-3-7"
       transform="scale(-1)"
       y="-61.5"
       x="-10"
       height="5"
       width="6" /><rect
       style="opacity:0.6;fill:url(#linearGradient6394);fill-opacity:1;stroke:none;stroke-width:1.06199"
       id="rect3700-5-6-8-4"
       y="56.5"
       x="10"
       height="5.0000005"
       width="44" /></g><path
     id="rect5505-21-3-8-5-2-9"
     d="m 10.5,5.0097656 h 43 c 3.050282,0 5.490234,2.4399528 5.490234,5.4902344 v 43 c 0,3.050282 -2.439952,5.490234 -5.490234,5.490234 h -43 c -3.0502816,0 -5.4902344,-2.439952 -5.4902344,-5.490234 v -43 c 0,-3.0502816 2.4399528,-5.4902344 5.4902344,-5.4902344 z"
     style="color:#000000;display:inline;overflow:visible;visibility:visible;fill:url(#linearGradient5);fill-opacity:1;fill-rule:nonzero;stroke:none;stroke-width:1;marker:none;enable-background:accumulate" /><rect
     style="opacity:1;fill:none;stroke:url(#linearGradient3904);stroke-width:1;stroke-linecap:round;stroke-linejoin:round;stroke-miterlimit:4;stroke-dasharray:none;stroke-dashoffset:0;stroke-opacity:1"
     id="rect6741"
     y="5.5"
     x="5.5"
     ry="5"
     rx="5"
     height="53"
     width="53" /><path
     id="rect5505-21-9"
     style="color:#000000;display:inline;overflow:visible;visibility:visible;opacity:0.5;fill:none;stroke:#7e8087;stroke-width:1;stroke-linecap:round;stroke-linejoin:round;stroke-miterlimit:4;stroke-dasharray:none;stroke-dashoffset:0;stroke-opacity:1;marker:none;enable-background:accumulate"
     d="M 10.5 4.5 C 7.176 4.5 4.5 7.176 4.5 10.5 L 4.5 53.5 C 4.5 56.824 7.176 59.5 10.5 59.5 L 53.5 59.5 C 56.824 59.5 59.5 56.824 59.5 53.5 L 59.5 47.791016 C 60.348603 47.338737 61.188626 46.861314 62.019531 46.355469 L 62.621094 45.988281 L 62.480469 45.300781 C 60.469096 35.436326 59.888004 23.13057 59.5 10.5 C 59.5 7.176 56.824 4.5 53.5 4.5 L 10.5 4.5 z " /><rect
     style="opacity:1;fill:none;stroke:url(#linearGradient3);stroke-width:1;stroke-linecap:round;stroke-linejoin:round;stroke-miterlimit:4;stroke-dasharray:none;stroke-dashoffset:0;stroke-opacity:1"
     id="rect1"
     y="5.5"
     x="5.5"
     ry="5"
     rx="5"
     height="51"
     width="53" /><path
     id="path16"
     style="opacity:1;fill:url(#linearGradient17);stroke:none;stroke-width:1;stroke-linecap:round;stroke-linejoin:round;stroke-miterlimit:4;stroke-dasharray:none;stroke-dashoffset:0;stroke-opacity:1"
     d="M 10.5,5 C 7.4557143,5 5,7.4557143 5,10.5 v 39 c 0,3.044286 2.4557143,5.5 5.5,5.5 h 9.003906 c 15.002555,-0.112981 29.69353,-1.424472 42.25586,-9.072266 l 0.300781,-0.183593 -0.07031,-0.34375 C 59.965562,35.470699 59.388166,23.141298 59,10.5 59,7.4557143 56.544286,5 53.5,5 Z" /><path
     id="path15"
     style="opacity:1;fill:none;stroke:url(#linearGradient7);stroke-width:1;stroke-linecap:round;stroke-linejoin:round;stroke-miterlimit:4;stroke-dasharray:none;stroke-dashoffset:0;stroke-opacity:1"
     d="m 10.5,5.5 c -2.77,0 -5,2.23 -5,5 v 39 c 0,2.77 2.23,5 5,5 h 9 c 14.983129,-0.112835 29.557759,-1.425315 42,-9 -2.037952,-9.99482 -2.611672,-22.348103 -3,-35 0,-2.77 -2.23,-5 -5,-5 z" /><path
     style="opacity:0.9;fill:none;stroke:url(#linearGradient9);stroke-linecap:round;stroke-linejoin:round;stroke-opacity:0.295924"
     d="m 10,55.5 h 44 m -34,0 C 31.091636,55.416471 41.959412,54.675528 51.903987,51.223412 55.393034,50.01224 58.768439,48.467335 62,46.5"
     id="path7" /><path
     style="fill:none;stroke:url(#linearGradient14);stroke-linecap:round;stroke-linejoin:round;stroke-opacity:0.295924;opacity:0.7"
     d="M 10,57.5 H 54"
     id="path8" /><path
     style="font-weight:bold;font-size:42.6667px;font-family:Inter;-inkscape-font-specification:'Inter Bold';letter-spacing:0px;opacity:0.938619;fill:#ed5353;stroke-linecap:round;stroke-linejoin:round;stroke-opacity:0.5"
     d="m 21,46 c 7.657893,-0.02679 16.04219,-0.307393 23,-1 l 2,-6 c -5.666667,0.665393 -11.333333,0.998726 -17,1 L 44,18.893942 43,15 19.999999,15.000001 20,21 H 35 L 20,42 Z"
     id="text1"
     aria-label="Z" /><path
     style="font-weight:bold;font-size:42.6667px;font-family:Inter;-inkscape-font-specification:'Inter Bold';letter-spacing:0px;opacity:0.15;fill:#000000;stroke-linecap:round;stroke-linejoin:round;stroke-opacity:0.5;fill-opacity:1"
     d="m 21,47 c 7.657893,-0.02679 16.04219,-0.307393 23,-1 l 2,-6 c -5.666667,0.665393 -11.333333,0.998726 -17,1 L 44,19.893942 43,16 19.999999,16.000001 20,22 H 35 L 20,43 Z"
     id="path4"
     aria-label="Z" /><path
     style="font-weight:bold;font-size:42.6667px;font-family:Inter;-inkscape-font-specification:'Inter Bold';letter-spacing:0px;opacity:1;fill:#ed5353;stroke-linecap:round;stroke-linejoin:round;stroke-opacity:0.5"
     d="m 21,46 c 7.657893,-0.02679 16.04219,-0.307393 23,-1 l 2,-6 c -5.666667,0.665393 -11.333333,0.998726 -17,1 L 44,18.893942 43,15 19.999999,15.000001 20,21 H 35 L 20,42 Z"
     id="path2"
     aria-label="Z" /></svg>
