<?xml version="1.0" encoding="UTF-8" standalone="no"?>
<svg
   width="48"
   height="48"
   viewBox="0 0 48 48"
   fill="none"
   version="1.1"
   id="svg4"
   xml:space="preserve"
   xmlns:xlink="http://www.w3.org/1999/xlink"
   xmlns="http://www.w3.org/2000/svg"
   xmlns:svg="http://www.w3.org/2000/svg"><defs
     id="defs4"><linearGradient
       id="linearGradient1201"><stop
         id="stop1193"
         style="stop-color:#ffffff;stop-opacity:1"
         offset="0" /><stop
         id="stop1195"
         style="stop-color:#ffffff;stop-opacity:0.23529412"
         offset="0.06781636" /><stop
         id="stop1197"
         style="stop-color:#ffffff;stop-opacity:0.15686275"
         offset="0.94694352" /><stop
         id="stop1199"
         style="stop-color:#ffffff;stop-opacity:0.39215687"
         offset="1" /></linearGradient><linearGradient
       id="linearGradient3688-166-749"><stop
         id="stop2883"
         style="stop-color:#181818;stop-opacity:1"
         offset="0" /><stop
         id="stop2885"
         style="stop-color:#181818;stop-opacity:0"
         offset="1" /></linearGradient><linearGradient
       id="linearGradient3702-501-757"><stop
         id="stop2895"
         style="stop-color:#181818;stop-opacity:0"
         offset="0" /><stop
         id="stop2897"
         style="stop-color:#181818;stop-opacity:1"
         offset="0.5" /><stop
         id="stop2899"
         style="stop-color:#181818;stop-opacity:0"
         offset="1" /></linearGradient><radialGradient
       cx="4.9929786"
       cy="43.5"
       r="2.5"
       fx="4.9929786"
       fy="43.5"
       id="radialGradient3013-6"
       xlink:href="#linearGradient3688-166-749"
       gradientUnits="userSpaceOnUse"
       gradientTransform="matrix(2.003784,0,0,0.89999994,29.98813,4.8500025)" /><radialGradient
       cx="4.9929786"
       cy="43.5"
       r="2.5"
       fx="4.9929786"
       fy="43.5"
       id="radialGradient3015-1"
       xlink:href="#linearGradient3688-166-749"
       gradientUnits="userSpaceOnUse"
       gradientTransform="matrix(2.003784,0,0,0.89999994,-18.01187,-83.149997)" /><linearGradient
       x1="38.999996"
       y1="5.9999938"
       x2="38.999996"
       y2="41.945408"
       id="linearGradient3058-5"
       xlink:href="#linearGradient1201"
       gradientUnits="userSpaceOnUse"
       gradientTransform="translate(4e-6,1.0000062)" /><linearGradient
       xlink:href="#linearGradient3702-501-757"
       id="linearGradient1191"
       gradientUnits="userSpaceOnUse"
       x1="25.058096"
       y1="47.027729"
       x2="25.058096"
       y2="39.999443"
       gradientTransform="matrix(1.1428571,0,0,0.6428571,-3.428569,16.035716)" /><linearGradient
       xlink:href="#linearGradient2"
       id="linearGradient930-9-2"
       x1="16.767664"
       y1="2.7676599"
       x2="16.767664"
       y2="29.896721"
       gradientUnits="userSpaceOnUse"
       gradientTransform="matrix(1.444444,0,0,1.444444,0.888913,1.888891)" /><linearGradient
       id="linearGradient2"><stop
         style="stop-color:#1a1a1a;stop-opacity:1;"
         offset="0"
         id="stop7" /><stop
         style="stop-color:#000000;stop-opacity:1;"
         offset="1"
         id="stop8" /></linearGradient><style
       id="style1">.g{fill:#000;}.g,.h,.i{stroke-width:0px;}.h{fill:url(#e);}.i{fill:#fff;}</style><style
       id="style1-7">.g{fill:#000;}.g,.h,.i{stroke-width:0px;}.h{fill:url(#e);}.i{fill:#fff;}</style><style
       id="style1-5">.g{fill:#000;}.g,.h,.i{stroke-width:0px;}.h{fill:url(#e);}.i{fill:#fff;}</style></defs><rect
     style="opacity:0.6;fill:url(#radialGradient3013-6);fill-opacity:1;stroke:none;stroke-width:0.862764"
     id="rect2801-3-7"
     y="41.75"
     x="40"
     height="4.4999995"
     width="5" /><rect
     style="opacity:0.6;fill:url(#radialGradient3015-1);fill-opacity:1;stroke:none;stroke-width:0.862764"
     id="rect3696-6-3"
     transform="scale(-1)"
     y="-46.25"
     x="-8"
     height="4.4999995"
     width="5" /><rect
     style="opacity:0.6;fill:url(#linearGradient1191);fill-opacity:1;stroke:none;stroke-width:0.862764"
     id="rect3700-4-6"
     y="41.75"
     x="8"
     height="4.5"
     width="32" /><rect
     style="color:#000000;font-variation-settings:normal;display:inline;overflow:visible;visibility:visible;vector-effect:none;fill:url(#linearGradient930-9-2);fill-opacity:1;fill-rule:nonzero;stroke:#474747;stroke-width:1;stroke-linecap:butt;stroke-linejoin:miter;stroke-miterlimit:4;stroke-dasharray:none;stroke-dashoffset:0;stroke-opacity:0.49736449;marker:none;enable-background:accumulate;stop-color:#000000"
     id="rect5505-21-1"
     y="5.4999952"
     x="4.5000153"
     ry="4"
     rx="4"
     height="39"
     width="39" /><rect
     style="opacity:0.35;fill:none;stroke:url(#linearGradient3058-5);stroke-width:1;stroke-linecap:round;stroke-linejoin:round;stroke-miterlimit:4;stroke-dasharray:none;stroke-dashoffset:0;stroke-opacity:1"
     id="rect6741-2"
     y="6.4999952"
     x="5.5000153"
     ry="3"
     rx="3"
     height="37"
     width="37" /><path
     id="path3-3"
     style="fill:#abacae;stroke-width:0px"
     class="i"
     d="M 15 13 C 13.32612 13 11.971996 14.370446 12 16.050781 C 12.027443 17.695682 13.403672 19 15.048828 19 L 23.496094 19 C 23.754038 19 24.007235 18.921807 24.216797 18.771484 C 25.901633 17.56291 27.221998 15.906672 28.035156 13.943359 L 28.039062 13.933594 C 28.223331 13.489434 27.896886 13 27.416016 13 L 15 13 z M 32.978516 13 C 31.809549 13.008717 30.704023 13.705472 30.228516 14.853516 C 28.835468 18.216738 26.214938 20.835314 22.851562 22.228516 C 20.404615 23.24207 18.228263 24.704975 16.382812 26.578125 C 14.601361 28.3862 13.203619 30.497542 12.228516 32.851562 C 11.594507 34.382134 12.322842 36.137475 13.853516 36.771484 C 14.228965 36.926974 14.617382 37 15 37 C 16.177036 37 17.293021 36.301657 17.771484 35.146484 C 19.164532 31.783262 21.785062 29.164686 25.148438 27.771484 C 27.595385 26.75793 29.771737 25.295025 31.617188 23.421875 C 33.398639 21.6138 34.796381 19.502458 35.771484 17.148438 C 36.405493 15.617866 35.677158 13.862525 34.146484 13.228516 C 33.763854 13.070039 33.368171 12.997094 32.978516 13 z M 24.503906 31 C 24.245961 31 23.992765 31.078193 23.783203 31.228516 C 22.098367 32.43709 20.778001 34.093328 19.964844 36.056641 L 19.960938 36.066406 C 19.776669 36.510566 20.103115 37 20.583984 37 L 32.951172 37 C 34.596328 37 35.972557 35.695683 36 34.050781 C 36.028057 32.370451 34.67393 31 33 31 L 24.503906 31 z " /><path
     id="path1"
     style="fill:#d4d4d4;stroke-width:0px"
     class="i"
     d="M 15 13 C 13.516455 13 12.286506 14.077536 12.044922 15.492188 C 12.285823 16.922695 13.554156 18 15.048828 18 L 23.496094 18 C 23.754037 18 24.007235 17.92181 24.216797 17.771484 C 25.82051 16.621102 27.088023 15.061029 27.908203 13.220703 C 27.787179 13.088641 27.617093 13 27.416016 13 L 15 13 z M 32.978516 13 C 31.80955 13.008717 30.704022 13.705473 30.228516 14.853516 C 28.835469 18.216734 26.214935 20.835315 22.851562 22.228516 C 20.404618 23.242069 18.228262 24.704977 16.382812 26.578125 C 14.601363 28.386198 13.203618 30.497545 12.228516 32.851562 C 12.141088 33.062624 12.082007 33.278061 12.044922 33.494141 C 12.21122 34.479515 12.862385 35.360954 13.853516 35.771484 C 14.228964 35.926974 14.617382 36 15 36 C 16.177035 36 17.293022 35.301656 17.771484 34.146484 C 19.164531 30.783266 21.785065 28.164685 25.148438 26.771484 C 27.595382 25.757931 29.771738 24.295023 31.617188 22.421875 C 33.398637 20.613802 34.796382 18.502455 35.771484 16.148438 C 35.858912 15.937376 35.917993 15.721939 35.955078 15.505859 C 35.788781 14.520485 35.137618 13.639046 34.146484 13.228516 C 33.763855 13.070039 33.36817 12.997094 32.978516 13 z M 24.503906 31 C 24.245962 31 23.992765 31.078193 23.783203 31.228516 C 22.17949 32.378898 20.911977 33.938971 20.091797 35.779297 C 20.212821 35.911357 20.382907 36 20.583984 36 L 32.951172 36 C 34.445844 36 35.714177 34.922696 35.955078 33.492188 C 35.71353 32.077538 34.483589 31 33 31 L 24.503906 31 z " /><path
     id="path2"
     style="fill:#fafafa;stroke-width:0px"
     class="i"
     d="M 15 13 C 13.695672 13 12.589154 13.833639 12.175781 14.996094 C 12.597324 16.1676 13.735953 17 15.048828 17 L 23.496094 17 C 23.754037 17 24.007235 16.92181 24.216797 16.771484 C 25.584556 15.790357 26.706577 14.50963 27.517578 13.013672 C 27.48385 13.008535 27.451576 13 27.416016 13 L 15 13 z M 32.978516 13 C 31.80955 13.008717 30.704022 13.705473 30.228516 14.853516 C 28.835469 18.216734 26.214935 20.835315 22.851562 22.228516 C 20.404618 23.242069 18.228262 24.704977 16.382812 26.578125 C 14.601363 28.386198 13.203618 30.497545 12.228516 32.851562 C 12.208186 32.900641 12.193328 32.950503 12.175781 33 C 12.450222 33.773327 13.035948 34.432845 13.853516 34.771484 C 14.228964 34.926974 14.617382 35 15 35 C 16.177035 35 17.293022 34.301656 17.771484 33.146484 C 19.164531 29.783266 21.785065 27.164685 25.148438 25.771484 C 27.595382 24.757931 29.771738 23.295023 31.617188 21.421875 C 33.398637 19.613802 34.796382 17.502455 35.771484 15.148438 C 35.791814 15.099359 35.806672 15.049497 35.824219 15 C 35.549779 14.226673 34.964054 13.567155 34.146484 13.228516 C 33.763855 13.070039 33.36817 12.997094 32.978516 13 z M 24.503906 31 C 24.245962 31 23.992765 31.078193 23.783203 31.228516 C 22.415444 32.209643 21.293423 33.49037 20.482422 34.986328 C 20.51615 34.991465 20.548424 35 20.583984 35 L 32.951172 35 C 34.264047 35 35.402676 34.1676 35.824219 32.996094 C 35.410868 31.83364 34.304367 31 33 31 L 24.503906 31 z " /></svg>
