<?xml version="1.0" encoding="UTF-8" standalone="no"?>
<svg
   width="64"
   height="64"
   viewBox="0 0 64 64"
   fill="none"
   version="1.1"
   id="svg4"
   xml:space="preserve"
   xmlns:xlink="http://www.w3.org/1999/xlink"
   xmlns="http://www.w3.org/2000/svg"
   xmlns:svg="http://www.w3.org/2000/svg"><defs
     id="defs4"><linearGradient
       id="linearGradient39"><stop
         style="stop-color:#0c51b7;stop-opacity:1;"
         offset="0.07150608"
         id="stop34" /><stop
         style="stop-color:#1851b0;stop-opacity:1;"
         offset="0.10302322"
         id="stop35" /><stop
         style="stop-color:#1851b0;stop-opacity:1;"
         offset="0.93603706"
         id="stop36" /><stop
         style="stop-color:#2e83c5;stop-opacity:1;"
         offset="0.96933085"
         id="stop39" /></linearGradient><linearGradient
       id="linearGradient30"><stop
         style="stop-color:#0d2f72;stop-opacity:1;"
         offset="0"
         id="stop27" /><stop
         style="stop-color:#1851b0;stop-opacity:1;"
         offset="1"
         id="stop30" /></linearGradient><linearGradient
       id="linearGradient25"><stop
         style="stop-color:#000000;stop-opacity:0;"
         offset="0"
         id="stop28" /><stop
         style="stop-color:#000000;stop-opacity:0;"
         offset="0.25"
         id="stop33" /><stop
         style="stop-color:#000000;stop-opacity:1;"
         offset="0.5"
         id="stop31" /><stop
         style="stop-color:#000000;stop-opacity:0;"
         offset="0.75"
         id="stop32" /><stop
         style="stop-color:#000000;stop-opacity:0;"
         offset="1"
         id="stop29" /></linearGradient><linearGradient
       id="linearGradient24"><stop
         style="stop-color:#000000;stop-opacity:1;"
         offset="0"
         id="stop21" /><stop
         style="stop-color:#000000;stop-opacity:0;"
         offset="0.5"
         id="stop22" /><stop
         style="stop-color:#000000;stop-opacity:0;"
         offset="1"
         id="stop23" /></linearGradient><linearGradient
       xlink:href="#linearGradient39"
       id="linearGradient53"
       x1="170"
       y1="124"
       x2="170"
       y2="70"
       gradientUnits="userSpaceOnUse"
       gradientTransform="translate(-138,-64)" /><linearGradient
       xlink:href="#linearGradient30"
       id="linearGradient55"
       x1="170"
       y1="123"
       x2="170"
       y2="71"
       gradientUnits="userSpaceOnUse"
       gradientTransform="translate(-138,-64)" /><radialGradient
       xlink:href="#linearGradient24"
       id="radialGradient20-5"
       gradientUnits="userSpaceOnUse"
       gradientTransform="matrix(-0.25212975,0,1.4684323e-4,-0.07780503,-163.2261,162.07617)"
       cx="120.21644"
       cy="476.52661"
       fx="120.21644"
       fy="476.52661"
       r="33.846573" /><radialGradient
       xlink:href="#linearGradient24"
       id="radialGradient14-6"
       cx="120.21644"
       cy="476.52661"
       fx="120.21644"
       fy="476.52661"
       r="33.846573"
       gradientTransform="matrix(-0.25212975,0,1.4684323e-4,-0.07780503,176.77391,162.07617)"
       gradientUnits="userSpaceOnUse" /><linearGradient
       xlink:href="#linearGradient25"
       id="linearGradient31-6"
       x1="64"
       y1="124"
       x2="64"
       y2="116"
       gradientUnits="userSpaceOnUse"
       gradientTransform="matrix(0.533358,0,0,0.65835786,135.86361,45.997056)" /></defs><rect
     style="fill:#1851b0;fill-opacity:1;stroke:#000000;stroke-width:0.982143;stroke-linecap:round;stroke-linejoin:round;stroke-dasharray:none;stroke-opacity:0.296742;paint-order:normal"
     id="rect47"
     width="55"
     height="55"
     x="4.5"
     y="5.5"
     rx="6"
     ry="6" /><rect
     style="fill:url(#linearGradient53);fill-opacity:1;stroke:none;stroke-width:1;stroke-linecap:round;stroke-linejoin:round;stroke-dasharray:none;stroke-opacity:0.296742;paint-order:normal"
     id="rect50"
     width="54"
     height="54"
     x="5"
     y="6"
     rx="5.5"
     ry="5.5" /><rect
     style="fill:url(#linearGradient55);fill-opacity:1;stroke:none;stroke-width:0.962963;stroke-linecap:round;stroke-linejoin:round;stroke-dasharray:none;stroke-opacity:0.296742;paint-order:normal"
     id="rect53"
     width="52"
     height="52"
     x="6"
     y="7"
     rx="5"
     ry="5" /><g
     id="g64"
     transform="translate(-138,-64)"><rect
       style="opacity:0.4;fill:url(#radialGradient20-5);stroke:none;stroke-width:0.289228;stroke-dasharray:none;stroke-opacity:0.07;paint-order:markers fill stroke"
       id="rect20-9"
       width="8.5337276"
       height="5.2668681"
       x="-202"
       y="122.36657"
       ry="0"
       transform="scale(-1,1)" /><rect
       style="opacity:0.4;fill:url(#radialGradient14-6);stroke:none;stroke-width:0.289228;stroke-dasharray:none;stroke-opacity:0.07;paint-order:markers fill stroke"
       id="rect12-3"
       width="8.5337276"
       height="5.2668681"
       x="138.00002"
       y="122.36657"
       ry="0" /><rect
       style="opacity:0.4;fill:url(#linearGradient31-6);fill-opacity:1;stroke:none;stroke-width:0.617458;stroke-linecap:round;stroke-linejoin:round;stroke-dasharray:none;stroke-opacity:0.3;paint-order:normal"
       id="rect24-9"
       width="46.935505"
       height="5.2668629"
       x="146.53078"
       y="122.36657"
       rx="0"
       ry="0" /></g><g
     style="fill:none"
     id="g1"
     transform="matrix(0.43642113,0,0,0.43642113,11.44925,12.051786)"><path
       fill-rule="evenodd"
       clip-rule="evenodd"
       d="M 9,6 C 7.34315,6 6,7.34315 6,9 V 75 H 0 V 9 C 0,4.02944 4.02944,0 9,0 h 80.3787 c 4.0091,0 6.0168,4.84715 3.182,7.68198 L 43.0551,57.1875 H 57 V 51 h 6 v 7.6875 c 0,2.4853 -2.0147,4.5 -4.5,4.5 H 37.0551 L 26.7426,73.5 H 73.5 V 36 h 6 v 37.5 c 0,3.3137 -2.6863,6 -6,6 H 20.7426 L 10.2426,90 H 87 c 1.6569,0 3,-1.3431 3,-3 V 21 h 6 v 66 c 0,4.9706 -4.0294,9 -9,9 H 6.62132 C 2.61224,96 0.604504,91.1529 3.43934,88.318 L 52.7574,39 H 39 v 6 H 33 V 37.5 C 33,35.0147 35.0147,33 37.5,33 h 21.2574 l 10.5,-10.5 H 22.5 V 60 h -6 V 22.5 c 0,-3.3137 2.6863,-6 6,-6 H 75.2574 L 85.7574,6 Z"
       fill="#ffffff"
       id="path1" /></g></svg>
