<?xml version="1.0" encoding="UTF-8" standalone="no"?>
<svg
   id="svg4157"
   height="24"
   width="24"
   version="1.1"
   xml:space="preserve"
   xmlns:xlink="http://www.w3.org/1999/xlink"
   xmlns="http://www.w3.org/2000/svg"
   xmlns:svg="http://www.w3.org/2000/svg"
   xmlns:rdf="http://www.w3.org/1999/02/22-rdf-syntax-ns#"
   xmlns:cc="http://creativecommons.org/ns#"
   xmlns:dc="http://purl.org/dc/elements/1.1/"><defs
     id="defs4159"><linearGradient
       id="linearGradient25"><stop
         style="stop-color:#ffffff;stop-opacity:1;"
         offset="0"
         id="stop25" /><stop
         style="stop-color:#ffffff;stop-opacity:0;"
         offset="1"
         id="stop26" /></linearGradient><linearGradient
       id="linearGradient14"><stop
         id="stop9"
         style="stop-color:#ffffff;stop-opacity:1"
         offset="0" /><stop
         id="stop10"
         style="stop-color:#ffffff;stop-opacity:0.23529412"
         offset="0.19444445" /><stop
         id="stop11"
         style="stop-color:#ffffff;stop-opacity:0.15686275"
         offset="0.80555558" /><stop
         id="stop12"
         style="stop-color:#ffffff;stop-opacity:0.39215687"
         offset="1" /></linearGradient><style
       id="style1">.g{fill:#000;}.g,.h,.i{stroke-width:0px;}.h{fill:url(#e);}.i{fill:#fff;}</style><style
       id="style1-7">.g{fill:#000;}.g,.h,.i{stroke-width:0px;}.h{fill:url(#e);}.i{fill:#fff;}</style><style
       id="style1-5">.g{fill:#000;}.g,.h,.i{stroke-width:0px;}.h{fill:url(#e);}.i{fill:#fff;}</style><style
       id="style1-53">.g{fill:#000;}.g,.h,.i{stroke-width:0px;}.h{fill:url(#e);}.i{fill:#fff;}</style><style
       id="style1-6">.cls-1{fill:#fff;}</style><style
       id="style1-67">.cls-1{fill:#fff;}</style><linearGradient
       id="linearGradient3820-7-2-2"><stop
         offset="0"
         style="stop-color:#3d3d3d;stop-opacity:1"
         id="stop3822-2-6-36" /><stop
         offset="0.5"
         style="stop-color:#686868;stop-opacity:0.49803922"
         id="stop3864-8-7-6" /><stop
         offset="1"
         style="stop-color:#686868;stop-opacity:0"
         id="stop3824-1-2-4" /></linearGradient><style
       id="style1-75">.g{fill:#000;}.g,.h,.i{stroke-width:0px;}.h{fill:url(#e);}.i{fill:#fff;}</style><style
       id="style1-7-35">.g{fill:#000;}.g,.h,.i{stroke-width:0px;}.h{fill:url(#e);}.i{fill:#fff;}</style><style
       id="style1-5-6">.g{fill:#000;}.g,.h,.i{stroke-width:0px;}.h{fill:url(#e);}.i{fill:#fff;}</style><style
       id="style1-53-1">.g{fill:#000;}.g,.h,.i{stroke-width:0px;}.h{fill:url(#e);}.i{fill:#fff;}</style><style
       id="style1-6-2">.cls-1{fill:#fff;}</style><style
       id="style1-67-7">.cls-1{fill:#fff;}</style><style
       id="style1-675">.g{fill:#000;}.g,.h,.i{stroke-width:0px;}.h{fill:url(#e);}.i{fill:#fff;}</style><style
       id="style1-7-3">.g{fill:#000;}.g,.h,.i{stroke-width:0px;}.h{fill:url(#e);}.i{fill:#fff;}</style><style
       id="style1-5-5">.g{fill:#000;}.g,.h,.i{stroke-width:0px;}.h{fill:url(#e);}.i{fill:#fff;}</style><linearGradient
       id="linearGradient2-5"><stop
         style="stop-color:#5865f2;stop-opacity:1;"
         offset="0"
         id="stop3-3" /><stop
         style="stop-color:#1f30f4;stop-opacity:1;"
         offset="1"
         id="stop4-5" /></linearGradient><style
       id="style1-3">.g{fill:#000;}.g,.h,.i{stroke-width:0px;}.h{fill:url(#e);}.i{fill:#fff;}</style><style
       id="style1-6-6">.cls-1{fill:#fff;}</style><style
       id="style1-70">.g{fill:#000;}.g,.h,.i{stroke-width:0px;}.h{fill:url(#e);}.i{fill:#fff;}</style><style
       id="style1-6-3">.cls-1{fill:#fff;}</style><style
       id="style1-2">.g{fill:#000;}.g,.h,.i{stroke-width:0px;}.h{fill:url(#e);}.i{fill:#fff;}</style><style
       id="style1-6-8">.cls-1{fill:#fff;}</style><radialGradient
       xlink:href="#linearGradient3820-7-2-2"
       id="radialGradient4"
       gradientUnits="userSpaceOnUse"
       gradientTransform="matrix(0.15931401,0,0,0.05069083,-3.797101,11.381075)"
       cx="99.157013"
       cy="186.17059"
       fx="99.157013"
       fy="186.17059"
       r="62.769119" /><linearGradient
       xlink:href="#linearGradient14"
       id="linearGradient9"
       x1="12"
       y1="3"
       x2="12"
       y2="21"
       gradientUnits="userSpaceOnUse" /><linearGradient
       xlink:href="#linearGradient2-5"
       id="linearGradient24"
       x1="12"
       y1="2"
       x2="12"
       y2="22"
       gradientUnits="userSpaceOnUse" /><linearGradient
       xlink:href="#linearGradient25"
       id="linearGradient26"
       x1="18.337318"
       y1="23.034569"
       x2="17.71455"
       y2="20.534698"
       gradientUnits="userSpaceOnUse" /></defs><metadata
     id="metadata4162"><rdf:RDF><cc:Work
         rdf:about=""><dc:format>image/svg+xml</dc:format><dc:type
           rdf:resource="http://purl.org/dc/dcmitype/StillImage" /></cc:Work></rdf:RDF></metadata><path
     d="m 22,20.818212 a 10,3.181818 0 0 1 -20,0 10,3.181818 0 1 1 20,0 z"
     id="path4"
     style="opacity:0.5;fill:url(#radialGradient4);fill-opacity:1;stroke:none;stroke-width:1" /><path
     d="M 12,1.5 C 6.2010101,1.5 1.5,6.2010101 1.5,12 c 0,5.79899 4.7010101,10.5 10.5,10.5 0.577539,-0.0046 1.153712,-0.05688 1.722656,-0.15625 0.740052,0.732138 1.736375,1.146923 2.777344,1.15625 1.035253,-0.0092 2.026604,-0.419492 2.765625,-1.144531 -0.665104,-0.251578 -1.212412,-0.825084 -1.509766,-1.582032 0.98806,-0.65621 1.85779,-1.475091 2.572266,-2.421875 0.347519,-0.455699 0.657147,-0.939084 0.925781,-1.445312 C 22.063169,15.396927 22.490965,13.712565 22.5,12 22.5,6.2010101 17.79899,1.5 12,1.5 Z"
     style="opacity:1;fill:url(#linearGradient24);fill-opacity:1;stroke:#0a0f9f;stroke-width:1;stroke-linejoin:round;stroke-dasharray:none;stroke-opacity:0.501961"
     id="path20" /><path
     class="cls-1"
     d="m 16.946105,8.5044339 a 11.78531,11.78531 0 0 0 -2.939884,-0.904493 8.076552,8.076552 0 0 0 -0.37659,0.7655124 10.948066,10.948066 0 0 0 -3.262675,0 A 8.1112973,8.1112973 0 0 0 9.9903636,7.5999409 11.86825,11.86825 0 0 0 7.0482411,8.5066757 C 5.1876974,11.259383 4.6833317,13.943721 4.9355117,16.589952 v 0 A 11.850317,11.850317 0 0 0 8.5411555,18.400059 8.7086886,8.7086886 0 0 0 9.3133949,17.15484 7.6685775,7.6685775 0 0 1 8.0973167,16.574261 c 0.1019925,-0.07397 0.2017463,-0.150188 0.2981344,-0.224162 a 8.4699562,8.4699562 0 0 0 7.2090469,0 c 0.09751,0.07958 0.197261,0.155793 0.298132,0.224162 a 7.6977182,7.6977182 0 0 1 -1.218319,0.5817 8.6302318,8.6302318 0 0 0 0.77224,1.244098 11.796518,11.796518 0 0 0 3.607886,-1.808986 v 0 C 19.360329,13.522297 18.558954,10.862617 16.946105,8.5044339 Z M 9.6328255,14.962537 c -0.7027481,0 -1.2833269,-0.63774 -1.2833269,-1.422307 0,-0.784566 0.5604056,-1.427911 1.2810844,-1.427911 0.720681,0 1.296778,0.643345 1.284448,1.427911 -0.01234,0.784567 -0.56601,1.422307 -1.2822055,1.422307 z m 4.7342955,0 c -0.703865,0 -1.282203,-0.63774 -1.282203,-1.422307 0,-0.784566 0.560403,-1.427911 1.282203,-1.427911 0.721802,0 1.293417,0.643345 1.281087,1.427911 -0.01234,0.784567 -0.564887,1.422307 -1.281087,1.422307 z"
     id="path17"
     style="opacity:0.15;fill:#000000;fill-opacity:1;stroke:#000000;stroke-width:2;stroke-dasharray:none;stroke-opacity:1" /><circle
     style="opacity:0.3;fill:none;stroke:url(#linearGradient9);stroke-linejoin:round;stroke-opacity:1"
     id="path8"
     cx="12"
     cy="12"
     r="9.5" /><path
     class="cls-1"
     d="m 16.946105,8.5044339 a 11.78531,11.78531 0 0 0 -2.939884,-0.904493 8.076552,8.076552 0 0 0 -0.37659,0.7655124 10.948066,10.948066 0 0 0 -3.262675,0 A 8.1112973,8.1112973 0 0 0 9.9903636,7.5999409 11.86825,11.86825 0 0 0 7.0482411,8.5066757 C 5.1876974,11.259383 4.6833317,13.943721 4.9355117,16.589952 v 0 A 11.850317,11.850317 0 0 0 8.5411555,18.400059 8.7086886,8.7086886 0 0 0 9.3133949,17.15484 7.6685775,7.6685775 0 0 1 8.0973167,16.574261 c 0.1019925,-0.07397 0.2017463,-0.150188 0.2981344,-0.224162 a 8.4699562,8.4699562 0 0 0 7.2090469,0 c 0.09751,0.07958 0.197261,0.155793 0.298132,0.224162 a 7.6977182,7.6977182 0 0 1 -1.218319,0.5817 8.6302318,8.6302318 0 0 0 0.77224,1.244098 11.796518,11.796518 0 0 0 3.607886,-1.808986 v 0 C 19.360329,13.522297 18.558954,10.862617 16.946105,8.5044339 Z M 9.6328255,14.962537 c -0.7027481,0 -1.2833269,-0.63774 -1.2833269,-1.422307 0,-0.784566 0.5604056,-1.427911 1.2810844,-1.427911 0.720681,0 1.296778,0.643345 1.284448,1.427911 -0.01234,0.784567 -0.56601,1.422307 -1.2822055,1.422307 z m 4.7342955,0 c -0.703865,0 -1.282203,-0.63774 -1.282203,-1.422307 0,-0.784566 0.560403,-1.427911 1.282203,-1.427911 0.721802,0 1.293417,0.643345 1.281087,1.427911 -0.01234,0.784567 -0.564887,1.422307 -1.281087,1.422307 z"
     id="path16"
     style="opacity:0.15;fill:#000000;fill-opacity:1;stroke-width:0.112081" /><path
     class="cls-1"
     d="m 16.946105,7.5044339 a 11.78531,11.78531 0 0 0 -2.939884,-0.904493 8.076552,8.076552 0 0 0 -0.37659,0.7655124 10.948066,10.948066 0 0 0 -3.262675,0 A 8.1112973,8.1112973 0 0 0 9.9903636,6.5999409 11.86825,11.86825 0 0 0 7.0482411,7.5066757 C 5.1876974,10.259383 4.6833317,12.943721 4.9355117,15.589952 v 0 A 11.850317,11.850317 0 0 0 8.5411555,17.400059 8.7086886,8.7086886 0 0 0 9.3133949,16.15484 7.6685775,7.6685775 0 0 1 8.0973167,15.574261 c 0.1019925,-0.07397 0.2017463,-0.150188 0.2981344,-0.224162 a 8.4699562,8.4699562 0 0 0 7.2090469,0 c 0.09751,0.07958 0.197261,0.155793 0.298132,0.224162 a 7.6977182,7.6977182 0 0 1 -1.218319,0.5817 8.6302318,8.6302318 0 0 0 0.77224,1.244098 11.796518,11.796518 0 0 0 3.607886,-1.808986 v 0 C 19.360329,12.522297 18.558954,9.8626167 16.946105,7.5044339 Z M 9.6328255,13.962537 c -0.7027481,0 -1.2833269,-0.63774 -1.2833269,-1.422307 0,-0.784566 0.5604056,-1.427911 1.2810844,-1.427911 0.720681,0 1.296778,0.643345 1.284448,1.427911 -0.01234,0.784567 -0.56601,1.422307 -1.2822055,1.422307 z m 4.7342955,0 c -0.703865,0 -1.282203,-0.63774 -1.282203,-1.422307 0,-0.784566 0.560403,-1.427911 1.282203,-1.427911 0.721802,0 1.293417,0.643345 1.281087,1.427911 -0.01234,0.784567 -0.564887,1.422307 -1.281087,1.422307 z"
     id="path1-73"
     style="fill:#d4d4d4;stroke-width:0.112081" /><path
     id="path14"
     style="fill:#fafafa;stroke-width:0.112081"
     class="cls-1"
     d="M 9.9902344,6.5996094 C 8.9745856,6.7727384 7.9858041,7.0773829 7.0488281,7.5058594 5.5930016,9.6597804 4.969137,11.772723 4.8867188,13.857422 c 0.00992,0.244546 0.025587,0.488547 0.048828,0.732422 1.0894967,0.805168 2.3089897,1.417557 3.6054687,1.810547 C 8.6464931,16.255109 8.7474528,16.106601 8.84375,15.955078 8.5882987,15.841813 8.3392293,15.714671 8.0976562,15.574219 l 0.296875,-1.22461 c 2.2836138,1.074273 4.9273248,1.074273 7.2109378,0 l 0.296875,1.22461 c -0.242193,0.141129 -0.491914,0.268923 -0.748047,0.382812 0.09629,0.15089 0.197249,0.298749 0.302734,0.44336 1.297429,-0.391189 2.517755,-1.003004 3.607422,-1.808594 0.02449,-0.253951 0.03921,-0.505497 0.04883,-0.753906 C 19.014814,11.494764 18.2427,9.400846 16.945312,7.5039062 16.009199,7.0753761 15.020969,6.7713559 14.005859,6.5996094 c -0.139056,0.2483871 -0.264882,0.503952 -0.376953,0.765625 -1.08114,-0.1628672 -2.180578,-0.1628672 -3.261718,0 -0.11213,-0.261646 -0.237955,-0.5172079 -0.3769536,-0.765625 z m -0.359375,3.5136716 c 0.7206806,0 1.2955326,0.643169 1.2832026,1.427735 -0.0027,0.170416 -0.0302,0.332844 -0.08008,0.484375 0.05458,0.160102 0.08293,0.334214 0.08008,0.515625 -0.01234,0.784567 -0.565054,1.421875 -1.2812495,1.421875 -0.7027481,0 -1.2832031,-0.637308 -1.2832031,-1.421875 0,-0.177013 0.029573,-0.347038 0.082031,-0.503907 -0.052577,-0.154804 -0.082031,-0.32128 -0.082031,-0.496093 0,-0.784566 0.5605712,-1.427735 1.28125,-1.427735 z m 4.7363286,0 c 0.721802,0 1.29358,0.643169 1.28125,1.427735 -0.0027,0.169755 -0.0326,0.331386 -0.08203,0.482422 0.05471,0.160698 0.08489,0.335351 0.08203,0.517578 -0.01234,0.784567 -0.565051,1.421875 -1.28125,1.421875 -0.703866,0 -1.283204,-0.637308 -1.283204,-1.421875 0,-0.177013 0.02956,-0.347038 0.08203,-0.503907 -0.05242,-0.154804 -0.08203,-0.32128 -0.08203,-0.496093 0,-0.784566 0.561403,-1.427735 1.283204,-1.427735 z" /><path
     style="opacity:0.3;fill:url(#linearGradient26);stroke:none;stroke-width:1;stroke-linejoin:round;stroke-dasharray:none;stroke-opacity:0.501961"
     d="m 18.386519,22.413035 c -0.627875,-0.386249 -1.022943,-1.012361 -1.185203,-1.878336 -0.495598,0.306883 -1.05998,0.546746 -1.640236,0.783081 0.509708,0.841282 1.469158,1.227532 2.825439,1.095255 z"
     id="path24" /></svg>
