<?xml version="1.0" encoding="UTF-8" standalone="no"?>
<svg
   width="128"
   height="128"
   viewBox="0 0 128 128"
   fill="none"
   version="1.1"
   id="svg4"
   xml:space="preserve"
   xmlns:xlink="http://www.w3.org/1999/xlink"
   xmlns="http://www.w3.org/2000/svg"
   xmlns:svg="http://www.w3.org/2000/svg"><defs
     id="defs4"><linearGradient
       id="linearGradient38"><stop
         style="stop-color:#7940fc;stop-opacity:1;"
         offset="0"
         id="stop37" /><stop
         style="stop-color:#8758ff;stop-opacity:1;"
         offset="1"
         id="stop38" /></linearGradient><linearGradient
       id="linearGradient25"><stop
         style="stop-color:#000000;stop-opacity:0;"
         offset="0"
         id="stop28" /><stop
         style="stop-color:#000000;stop-opacity:0;"
         offset="0.25"
         id="stop33" /><stop
         style="stop-color:#000000;stop-opacity:1;"
         offset="0.5"
         id="stop31" /><stop
         style="stop-color:#000000;stop-opacity:0;"
         offset="0.75"
         id="stop32" /><stop
         style="stop-color:#000000;stop-opacity:0;"
         offset="1"
         id="stop29" /></linearGradient><linearGradient
       id="linearGradient24"><stop
         style="stop-color:#000000;stop-opacity:1;"
         offset="0"
         id="stop21" /><stop
         style="stop-color:#000000;stop-opacity:0;"
         offset="0.5"
         id="stop22" /><stop
         style="stop-color:#000000;stop-opacity:0;"
         offset="1"
         id="stop23" /></linearGradient><linearGradient
       id="linearGradient19"><stop
         style="stop-color:#000000;stop-opacity:1;"
         offset="0"
         id="stop18" /><stop
         style="stop-color:#000000;stop-opacity:0;"
         offset="0.5"
         id="stop20" /><stop
         style="stop-color:#000000;stop-opacity:0;"
         offset="1"
         id="stop19" /></linearGradient><linearGradient
       id="linearGradient27"><stop
         style="stop-color:#824eff;stop-opacity:1;"
         offset="0"
         id="stop25" /><stop
         style="stop-color:#8758ff;stop-opacity:1;"
         offset="0.80000001"
         id="stop26" /><stop
         style="stop-color:#c5b1fd;stop-opacity:1;"
         offset="1"
         id="stop27" /></linearGradient><linearGradient
       xlink:href="#linearGradient27"
       id="linearGradient6"
       x1="256.81836"
       y1="476.52661"
       x2="256.81836"
       y2="36.526611"
       gradientUnits="userSpaceOnUse"
       gradientTransform="matrix(0.23181812,0,0,0.23181815,4.4648323,8.5324623)" /><linearGradient
       xlink:href="#linearGradient38"
       id="linearGradient9"
       x1="256.81836"
       y1="472.52658"
       x2="256.81836"
       y2="40.526615"
       gradientUnits="userSpaceOnUse"
       gradientTransform="matrix(0.23148149,0,0,0.2314815,4.5513057,8.6188387)" /><radialGradient
       xlink:href="#linearGradient19"
       id="radialGradient14"
       cx="120.21644"
       cy="476.52661"
       fx="120.21644"
       fy="476.52661"
       r="33.846573"
       gradientTransform="matrix(-0.47272141,0,2.7531832e-4,-0.11818045,76.703266,176.31613)"
       gradientUnits="userSpaceOnUse" /><radialGradient
       xlink:href="#linearGradient24"
       id="radialGradient20"
       gradientUnits="userSpaceOnUse"
       gradientTransform="matrix(-0.47272141,0,2.7531832e-4,-0.11818045,-51.302299,176.31613)"
       cx="120.21644"
       cy="476.52661"
       fx="120.21644"
       fy="476.52661"
       r="33.846573" /><linearGradient
       xlink:href="#linearGradient25"
       id="linearGradient31"
       x1="64"
       y1="124"
       x2="64"
       y2="116"
       gradientUnits="userSpaceOnUse" /></defs><g
     id="g47"
     transform="translate(-0.00278282)"><g
       id="g33"
       style="display:inline"><rect
         style="opacity:0.4;fill:url(#radialGradient20);stroke:none;stroke-width:0.48809;stroke-dasharray:none;stroke-opacity:0.07;paint-order:markers fill stroke"
         id="rect20"
         width="16"
         height="8.0000076"
         x="-124"
         y="115.99999"
         ry="0"
         transform="scale(-1,1)" /><rect
         style="opacity:0.4;fill:url(#radialGradient14);stroke:none;stroke-width:0.48809;stroke-dasharray:none;stroke-opacity:0.07;paint-order:markers fill stroke"
         id="rect12"
         width="16"
         height="8.0000076"
         x="4.0055656"
         y="115.99999"
         ry="0" /><rect
         style="opacity:0.4;fill:url(#linearGradient31);fill-opacity:1;stroke:none;stroke-width:1.042;stroke-linecap:round;stroke-linejoin:round;stroke-dasharray:none;stroke-opacity:0.3;paint-order:normal"
         id="rect24"
         width="88"
         height="8"
         x="20"
         y="116"
         rx="0"
         ry="0" /></g><g
       id="g41"><rect
         x="12.499987"
         y="16.499998"
         width="103"
         height="103"
         rx="9.9968624"
         fill="#8758ff"
         id="rect7"
         ry="9.9968624"
         style="fill:#8758ff;fill-opacity:1;stroke:#000000;stroke-width:1;stroke-dasharray:none;stroke-opacity:0.295313" /><rect
         x="13"
         y="17"
         width="102"
         height="102"
         rx="9.5"
         fill="#8758ff"
         id="rect1"
         ry="9.5"
         style="fill:url(#linearGradient6);stroke-width:0.199221" /><rect
         x="14"
         y="18"
         width="100"
         height="100"
         rx="8.5"
         fill="#8758ff"
         id="rect5"
         ry="8.5"
         style="fill:url(#linearGradient9);stroke-width:0.195315" /></g><g
       id="g43"
       transform="translate(0,-4)"><path
         id="path10"
         style="opacity:0.15;fill:none;fill-opacity:0.0689584;stroke:#000000;stroke-width:1;stroke-linejoin:round;stroke-dasharray:none;stroke-opacity:1"
         d="m 65.783203,35.486328 c -1.250906,0.01687 -2.503862,0.468423 -3.511719,1.375 l -15.02539,13.517578 c -0.924596,0.831516 -1.529557,1.956455 -1.714844,3.185547 -0.492066,3.262257 -1.238923,8.60669 -1.6875,11.296875 l 0.226562,0.503906 c 3.492707,2.216364 8.135037,5.884318 10.603516,11.90625 0.335627,0.818767 0.628695,1.682015 0.873047,2.587891 l 0.59375,0.357422 c 2.521798,-0.5716 5.033951,-0.980307 7.509766,-1.060547 0.548611,-0.01778 1.09677,-0.01278 1.648437,0.0039 l 0.484375,-0.673828 C 60.894901,65.334923 63.041919,58.279831 65.667969,52.929687 67.04859,50.116901 68.5157,47.716189 69.183594,45.132812 69.82712,42.6437 69.803078,39.943786 68.363281,36.259766 l -0.255859,-0.271485 c -0.729936,-0.336959 -1.523145,-0.512759 -2.324219,-0.501953 z m 5.654297,3.78125 -0.886719,0.390625 c 0.357376,2.154861 0.227129,4.04685 -0.21875,5.771484 -0.751321,2.906076 -2.263748,5.301852 -3.599609,8.023438 -2.665445,5.430399 -4.809897,11.891636 0.53125,25.582031 l 0.398437,0.314453 c 1.42036,0.192019 2.818331,0.522739 4.1875,1.035157 4.837395,1.81042 9.272461,5.879894 12.910157,13.404296 l 0.86914,0.05664 c 0.05057,-0.0778 0.08378,-0.141576 0.117188,-0.191406 3.099675,-4.622125 5.288739,-8.228177 6.398437,-10.107422 0.616194,-1.042532 0.501879,-2.334532 -0.216797,-3.287109 C 90.366487,78.191057 87.407445,74.02802 85.791016,70.162109 84.143822,66.221897 83.899105,60.088042 83.884766,57.0625 c -0.0057,-1.259114 -0.406268,-2.495654 -1.19336,-3.496094 z m -27.396484,27.494141 -0.738282,0.226562 c -0.09079,0.22136 -0.241619,0.572131 -0.441406,1.029297 -0.179583,0.410934 -0.397423,0.904576 -0.644531,1.460938 -0.222382,0.500691 -0.468112,1.050367 -0.730469,1.636718 -2.296565,5.132676 1.322593,-2.822487 -6.060547,13.410157 -0.899422,2.004656 -0.483594,4.353803 1.046875,5.929687 l 12.701172,13.080082 c 0.155354,0.15998 0.342986,0.30301 0.490234,0.42187 l 0.763672,-0.16797 C 56.22004,91.965199 56.020713,83.686187 53.576172,77.722656 51.382388,72.370853 47.332323,68.940667 44.041016,66.761719 Z m 20.097656,13.576172 c -2.51709,0.03856 -5.116948,0.441845 -7.753906,1.039062 l -0.38086,0.572266 c 0.981599,5.738336 0.03315,13.084184 -4.509765,22.359371 l 0.33789,0.70899 c 0.250731,0.0571 0.523858,0.1088 0.806641,0.1289 13.47027,1.0238 6.737128,0.5122 7.367187,0.56055 4.755049,0.3656 10.043866,2.335 14.675782,3.61133 3.55264,0.98538 7.092689,-1.84676 7.578125,-5.45313 0.32698,-2.42948 0.947137,-5.172628 2.097656,-7.699214 l 0.002,-0.410157 C 80.680103,87.450536 76.280144,83.311159 71.435547,81.498047 69.107028,80.626584 66.6596,80.299266 64.138672,80.337891 Z" /><path
         id="path5"
         style="opacity:0.3;fill:#000000;fill-opacity:1;stroke-width:0.182234"
         d="m 65.789202,35.985441 c -1.133623,0.01529 -2.269567,0.424822 -3.184118,1.24747 L 47.580758,50.74967 c -0.838089,0.753718 -1.387594,1.774689 -1.555612,2.88923 -0.491615,3.259268 -1.236471,8.606283 -1.686488,11.305106 3.533815,2.24245 8.273731,5.979974 10.798165,12.138411 0.343711,0.838488 0.643233,1.719958 0.892944,2.645699 2.540366,-0.575809 5.088751,-0.99029 7.605766,-1.071865 0.562006,-0.01821 1.121442,-0.01359 1.679861,0.0033 -4.944205,-13.301805 -2.766534,-20.509467 -0.09609,-25.950057 1.386678,-2.825126 2.823968,-5.168208 3.479004,-7.701853 0.615427,-2.380427 0.602928,-4.976511 -0.800171,-8.566632 -0.664475,-0.306741 -1.384962,-0.46535 -2.108939,-0.455584 z m 5.254953,3.590001 c 0.369028,2.225122 0.234552,4.187387 -0.228621,5.978915 -0.763334,2.952541 -2.304545,5.412684 -3.633074,8.119332 -2.620858,5.339561 -4.723267,11.671754 0.546702,25.179706 1.45322,0.196461 2.887425,0.536512 4.29574,1.06358 4.990843,1.867849 9.502737,6.04188 13.183768,13.65592 0.04228,-0.06505 0.07773,-0.13436 0.120938,-0.198801 3.093593,-4.613055 5.279008,-8.208198 6.384799,-10.080827 0.508068,-0.859595 0.415822,-1.936414 -0.185546,-2.733505 C 89.961836,78.483398 86.963328,74.263607 85.329608,70.356343 83.650325,66.339371 83.399076,60.102721 83.384678,57.064891 83.379433,55.91026 83.01355,54.781669 82.29956,53.874146 Z M 43.765449,67.177195 c -0.924287,2.253667 -7.882427,17.552404 -7.882427,17.552404 -0.815495,1.817597 -0.438618,3.948471 0.949271,5.377544 L 49.532314,103.1882 c 0.13735,0.14144 0.293659,0.25836 0.445643,0.38104 5.738972,-11.714993 5.506228,-19.870732 3.134418,-25.656832 -2.141141,-5.223379 -6.098956,-8.584955 -9.346926,-10.735213 z m 20.381994,13.660887 c -2.471902,0.03787 -5.033844,0.434518 -7.650494,1.027136 1.003234,5.864814 0.02361,13.318488 -4.554184,22.664882 0.240181,0.0547 0.483782,0.10161 0.732249,0.11928 0,0 6.736527,0.5113 7.370518,0.55995 4.809137,0.36976 10.153047,2.35446 14.7692,3.62645 3.239744,0.89859 6.499593,-1.7045 6.948067,-5.03627 0.330951,-2.45899 0.963319,-5.259696 2.13876,-7.841013 C 80.261445,87.741565 75.945968,83.7202 71.259521,81.966276 69.001228,81.121096 66.619348,80.800208 64.147443,80.838082 Z" /></g><g
       id="g40"
       transform="translate(0,-4)"><path
         id="path38"
         style="fill:#9bbbdb;fill-opacity:1;stroke-width:0.182234"
         d="m 65.789202,34.98537 c -1.133623,0.01529 -2.269567,0.424822 -3.184118,1.24747 L 47.580758,49.749599 c -0.838089,0.753718 -1.387594,1.774689 -1.555612,2.88923 -0.491615,3.259268 -1.236471,8.606283 -1.686488,11.305106 3.533815,2.24245 8.273731,5.979974 10.798165,12.138411 0.343711,0.838488 0.643233,1.719958 0.892944,2.645699 2.540366,-0.575809 5.088751,-0.99029 7.605766,-1.071865 0.562006,-0.01821 1.121442,-0.01359 1.679861,0.0033 -4.944205,-13.301805 -2.766534,-20.509467 -0.09609,-25.950057 1.386678,-2.825126 2.823968,-5.168208 3.479004,-7.701853 0.615427,-2.380427 0.602928,-4.976511 -0.800171,-8.566632 -0.664475,-0.306741 -1.384962,-0.46535 -2.108939,-0.455584 z m 5.254953,3.590001 c 0.369028,2.225122 0.234552,4.187387 -0.228621,5.978915 -0.763334,2.952541 -2.304545,5.412684 -3.633074,8.119332 -2.620858,5.339561 -4.723267,11.671754 0.546702,25.179706 1.45322,0.196461 2.887425,0.536512 4.29574,1.06358 4.990843,1.867849 9.502737,6.04188 13.183768,13.65592 0.04228,-0.06505 0.07773,-0.13436 0.120938,-0.198801 3.093593,-4.613055 5.279008,-8.208198 6.384799,-10.080827 0.508068,-0.859595 0.415822,-1.936414 -0.185546,-2.733505 C 89.961836,77.483327 86.963328,73.263536 85.329608,69.356272 83.650325,65.3393 83.399076,59.10265 83.384678,56.06482 83.379433,54.910189 83.01355,53.781598 82.29956,52.874075 Z M 43.765449,66.177124 c -0.924287,2.253667 -7.882427,17.552404 -7.882427,17.552404 -0.815495,1.817597 -0.438618,3.948471 0.949271,5.377544 l 12.700021,13.081058 c 0.13735,0.14144 0.293659,0.25836 0.445643,0.38104 5.738972,-11.714994 5.506228,-19.870733 3.134418,-25.656833 -2.141141,-5.223379 -6.098956,-8.584955 -9.346926,-10.735213 z m 20.381994,13.660887 c -2.471902,0.03787 -5.033844,0.434518 -7.650494,1.027136 1.003234,5.864814 0.02361,13.318488 -4.554184,22.664883 0.240181,0.0547 0.483782,0.10161 0.732249,0.11928 0,0 6.736527,0.5113 7.370518,0.55995 4.809137,0.36976 10.153047,2.35446 14.7692,3.62645 3.239744,0.89859 6.499593,-1.7045 6.948067,-5.03627 0.330951,-2.45899 0.963319,-5.259697 2.13876,-7.841014 -3.640114,-8.216932 -7.955591,-12.238297 -12.642038,-13.992221 -2.258293,-0.84518 -4.640173,-1.166068 -7.112078,-1.128194 z" /><path
         id="path39"
         style="fill:#c3d5e7;fill-opacity:1;stroke-width:0.182234"
         d="m 65.789062,34.986328 c -1.133621,0.01529 -2.269043,0.423447 -3.183593,1.246094 L 47.580078,49.75 c -0.838088,0.753717 -1.38667,1.774132 -1.554687,2.888672 -0.450585,2.987249 -1.094762,7.548 -1.548829,10.396484 3.518773,2.251533 8.167509,5.965981 10.660157,12.046875 0.34371,0.838487 0.642867,1.720745 0.892578,2.646485 2.540363,-0.575809 5.088456,-0.990691 7.605469,-1.072266 0.445684,-0.01444 0.888805,-0.0051 1.332031,0.0039 C 62.997451,71.0761 62.30406,66.589889 62.376953,62.873047 62.289516,57.653924 63.66406,53.87641 65.21875,50.708984 c 1.386677,-2.825123 2.825433,-5.167529 3.480469,-7.701172 0.203445,-0.786913 0.328534,-1.602676 0.367187,-2.464843 -0.06227,-1.491648 -0.403587,-3.145733 -1.167968,-5.101563 -0.664475,-0.30674 -1.385399,-0.464844 -2.109376,-0.455078 z m 5.388672,3.757813 c 0.06456,0.712551 0.09087,1.403412 0.05664,2.064453 0.02473,1.334212 -0.116877,2.581488 -0.417969,3.746094 -0.763333,2.952538 -2.306238,5.412495 -3.634765,8.11914 -1.393483,2.838989 -2.627092,5.971212 -2.697266,10.300781 0.09193,3.637177 0.988629,8.097593 3.244141,13.878907 1.453218,0.19646 2.888561,0.535432 4.296875,1.0625 4.990838,1.867847 9.502566,6.042217 13.183593,13.65625 0.04228,-0.06505 0.07789,-0.132825 0.121094,-0.197266 3.09359,-4.61305 5.278976,-8.209404 6.384766,-10.082031 0.134035,-0.226773 0.223242,-0.468912 0.27539,-0.716797 -0.07547,-0.361111 -0.229611,-0.70901 -0.460937,-1.015625 -1.567023,-2.076362 -4.5655,-6.297818 -6.199218,-10.205078 C 83.650797,65.338501 83.399164,59.10228 83.384766,56.064453 83.379521,54.909823 83.012817,53.782522 82.298828,52.875 Z M 43.765625,66.177734 c -0.924286,2.253665 -7.882812,17.552735 -7.882813,17.552735 -0.208308,0.464284 -0.336848,0.947299 -0.392578,1.435547 0.100485,1.082746 0.550612,2.126744 1.341797,2.941406 L 49.533203,101.1875 c 0.13735,0.14144 0.293329,0.25818 0.445313,0.38086 3.228168,-6.589678 4.565941,-12.052499 4.697265,-16.601563 0.0047,-0.164488 -0.0016,-0.320315 0,-0.482422 -0.0857,-2.898979 -0.673072,-5.40248 -1.5625,-7.572266 -2.141139,-5.223373 -6.099689,-8.584119 -9.347656,-10.734375 z m 20.380859,13.660157 c -2.426208,0.03717 -4.939575,0.423549 -7.505859,0.998047 0.160465,1.236631 0.232186,2.540143 0.205078,3.914062 0.08011,4.956951 -1.177271,10.862568 -4.464844,17.84961 0.09861,0.0152 0.194827,0.0417 0.294922,0.0488 0,0 6.735151,0.51189 7.369141,0.56054 4.809132,0.36976 10.153383,2.35497 14.769531,3.62696 3.239741,0.89859 6.500745,-1.70535 6.949219,-5.03711 0.308852,-2.294795 0.885741,-4.884402 1.916016,-7.318361 C 80.08616,86.592525 75.85221,82.68554 71.259766,80.966797 69.001475,80.121618 66.618387,79.800017 64.146484,79.837891 Z" /><path
         id="path1"
         style="fill:#ffffff;fill-opacity:1;stroke-width:0.182234"
         d="m 65.789062,34.986328 c -1.133621,0.01529 -2.269043,0.423447 -3.183593,1.246094 L 47.580078,49.75 c -0.838088,0.753717 -1.38667,1.774132 -1.554687,2.888672 -0.409555,2.715234 -0.965979,6.613373 -1.410157,9.488281 3.501925,2.259952 8.06062,5.95172 10.521485,11.955078 0.34371,0.838487 0.642867,1.720745 0.892578,2.646485 2.540363,-0.575809 5.088456,-0.990691 7.605469,-1.072266 0.328707,-0.01065 0.655162,-9.03e-4 0.982422,0.002 -1.784258,-5.354667 -2.360042,-9.662304 -2.226563,-13.25 -0.195054,-5.498136 1.220873,-9.424707 2.828125,-12.699219 1.386677,-2.825123 2.825433,-5.167529 3.480469,-7.701172 0.164977,-0.638119 0.277852,-1.294407 0.33789,-1.978515 -0.114994,-1.357394 -0.46132,-2.854747 -1.138671,-4.587891 -0.664475,-0.30674 -1.385399,-0.464844 -2.109376,-0.455078 z m 5.445313,3.830078 c 0.0075,0.416437 0.004,0.826392 -0.02344,1.22461 0.11647,1.634159 -0.03599,3.126861 -0.394532,4.513672 -0.763333,2.952538 -2.306238,5.412495 -3.634765,8.11914 -1.312525,2.67405 -2.493937,5.598314 -2.685547,9.546875 0.125209,3.593017 1.026614,7.9789 3.232422,13.632813 1.453218,0.19646 2.888561,0.535432 4.296875,1.0625 4.990838,1.867847 9.502566,6.042217 13.183593,13.65625 0.04228,-0.06505 0.07789,-0.132825 0.121094,-0.197266 3.09359,-4.61305 5.278976,-8.209404 6.384766,-10.082031 0.04219,-0.07138 0.07346,-0.146613 0.107422,-0.220703 C 91.74333,79.893807 91.649969,79.720494 91.529297,79.560547 89.962273,77.484185 86.963796,73.262729 85.330078,69.355469 83.650797,65.338501 83.399164,59.10228 83.384766,56.064453 83.379521,54.909823 83.012817,53.782522 82.298828,52.875 Z m -27.46875,27.361328 c -0.924286,2.253665 -7.882812,17.552735 -7.882813,17.552735 -0.145631,0.324587 -0.239934,0.659259 -0.310546,0.998047 0.186529,0.877259 0.606837,1.706603 1.259765,2.378906 L 49.533203,100.1875 c 0.13735,0.14144 0.293329,0.25818 0.445313,0.38086 3.167628,-6.466097 4.508108,-11.842363 4.68164,-16.339844 -0.112291,-2.788741 -0.684198,-5.211881 -1.546875,-7.316407 -2.141139,-5.223373 -6.099689,-8.584119 -9.347656,-10.734375 z m 20.380859,13.660157 c -2.393452,0.03667 -4.872134,0.414954 -7.402343,0.976562 0.09533,1.059927 0.126244,2.168297 0.08789,3.324219 0.1883,4.860919 -0.917158,10.656634 -4.011719,17.521488 0.254316,0.0193 6.603059,0.50113 7.22461,0.54882 4.809132,0.36976 10.153383,2.35497 14.769531,3.62696 3.239741,0.89859 6.500745,-1.70535 6.949219,-5.03711 0.286661,-2.129911 0.801285,-4.514947 1.697266,-6.792971 -3.546105,-7.570286 -7.701803,-11.355153 -12.201172,-13.039062 -2.258291,-0.845179 -4.641379,-1.16678 -7.113282,-1.128906 z" /></g></g></svg>
