<?xml version="1.0" encoding="UTF-8" standalone="no"?>
<svg
   width="31.999998"
   height="32"
   viewBox="0 0 31.999998 32"
   fill="none"
   version="1.1"
   id="svg4"
   xml:space="preserve"
   xmlns:xlink="http://www.w3.org/1999/xlink"
   xmlns="http://www.w3.org/2000/svg"
   xmlns:svg="http://www.w3.org/2000/svg"><defs
     id="defs4"><linearGradient
       id="linearGradient7"><stop
         style="stop-color:#9766ff;stop-opacity:1;"
         offset="0.07150608"
         id="stop4" /><stop
         style="stop-color:#8b5cff;stop-opacity:1;"
         offset="0.10302322"
         id="stop5" /><stop
         style="stop-color:#8a5cff;stop-opacity:1;"
         offset="0.93603706"
         id="stop6" /><stop
         style="stop-color:#b59bfd;stop-opacity:1;"
         offset="0.96933085"
         id="stop7" /></linearGradient><linearGradient
       id="linearGradient38"><stop
         style="stop-color:#7940fc;stop-opacity:1;"
         offset="0"
         id="stop37" /><stop
         style="stop-color:#8758ff;stop-opacity:1;"
         offset="1"
         id="stop38" /></linearGradient><linearGradient
       xlink:href="#linearGradient7"
       id="linearGradient4"
       x1="286.53015"
       y1="125"
       x2="286.53015"
       y2="99"
       gradientUnits="userSpaceOnUse"
       gradientTransform="translate(-270.53015,-96)" /><linearGradient
       xlink:href="#linearGradient38"
       id="linearGradient34"
       x1="286.53015"
       y1="124"
       x2="286.53015"
       y2="100"
       gradientUnits="userSpaceOnUse"
       gradientTransform="translate(-270.53015,-96)" /></defs><rect
     style="opacity:1;fill:#8757ff;fill-opacity:1;stroke:#000000;stroke-width:1.01887;stroke-linecap:round;stroke-linejoin:round;stroke-opacity:0.3"
     id="rect2"
     width="27"
     height="27"
     x="2.4999998"
     y="2.5"
     rx="3"
     ry="3" /><rect
     style="opacity:1;fill:url(#linearGradient4);fill-opacity:1;stroke:none;stroke-linecap:round;stroke-linejoin:round;stroke-opacity:0.3"
     id="rect3"
     width="26"
     height="26"
     x="2.9999998"
     y="3"
     rx="2.5"
     ry="2.5" /><rect
     style="opacity:1;fill:url(#linearGradient34);fill-opacity:1;stroke:none;stroke-linecap:round;stroke-linejoin:round;stroke-opacity:0.3"
     id="rect8"
     width="24"
     height="24"
     x="3.9999998"
     y="4"
     rx="2"
     ry="2" /><path
     d="m 286.99023,103.51758 c -0.40525,0.005 -0.81017,0.15334 -1.13476,0.44531 l -3.81055,3.42774 c -0.29881,0.26872 -0.49476,0.63176 -0.55469,1.02929 -0.16215,1.07504 -0.48628,3.19909 -0.48632,3.19922 0,0 1.91549,-4.158 -2.04688,4.55274 -0.29123,0.6491 -0.15774,1.40567 0.33789,1.91601 l 3.2207,3.31836 c 0.29778,0.30664 0.6985,0.48961 1.11915,0.51953 3.41284,0.26056 1.70553,0.13036 1.86523,0.14258 1.16539,0.0896 2.46603,0.5774 3.65234,0.9043 1.1344,0.31464 2.23997,-0.57408 2.39063,-1.69336 0.10773,-0.80048 0.34144,-1.70968 0.82422,-2.42969 0.79054,-1.17883 1.34848,-2.10051 1.63281,-2.58203 0.23702,-0.40101 0.19204,-0.88998 -0.0781,-1.24805 -0.39161,-0.5189 -1.11279,-1.53104 -1.50976,-2.48047 -0.39367,-0.94162 -0.44919,-2.42138 -0.45313,-3.17968 -0.002,-0.39738 -0.12856,-0.79207 -0.38281,-1.11524 l -3.20117,-4.06445 c -0.34745,-0.44144 -0.86358,-0.66914 -1.38477,-0.66211 z"
     fill="#ffffff"
     id="path1-0-7-2"
     style="opacity:0.15;fill:#000000;fill-opacity:1;stroke:#000000;stroke-width:1;stroke-linecap:round;stroke-linejoin:round;stroke-dasharray:none;stroke-opacity:1"
     transform="translate(-270.53015,-96)" /><path
     id="path8"
     style="opacity:0.15;fill:#000000;fill-opacity:1;stroke-width:0.0452467"
     d="m 16.506999,8.01723 c -0.28147,0.004 -0.56394,0.10434 -0.79102,0.3086 l -3.73046,3.35546 c -0.20809,0.18714 -0.34501,0.44203 -0.38672,0.71875 -0.10881,0.72133 -0.2662,1.84451 -0.37891,2.56055 0.90296,0.56205 2.18118,1.53364 2.85352,3.17383 0.0628,0.15323 0.11719,0.31236 0.16796,0.47656 0.59058,-0.11952 1.20239,-0.19527 1.81641,-0.19922 0.005,-3e-5 0.0104,3e-5 0.0156,0 -1.11005,-3.17617 -0.5698,-5.0078 0.0859,-6.34375 0.35038,-0.71383 0.69634,-1.28384 0.84766,-1.86914 0.15132,-0.5853 0.15048,-1.20413 -0.25391,-2.15234 l 0.0117,-0.006 c -0.0854,-0.0174 -0.17074,-0.0246 -0.25781,-0.0234 z m 1.57226,1.23047 c 0.0311,0.43421 -0.009,0.83383 -0.10351,1.20117 -0.20085,0.77686 -0.59419,1.4009 -0.91797,2.06055 -0.63312,1.28988 -1.14019,2.7324 0.10938,5.98047 0.40608,0.0624 0.80888,0.16371 1.20312,0.31445 1.26041,0.48193 2.39424,1.47593 3.20508,3.13086 0.64812,-0.98073 1.12062,-1.75627 1.36719,-2.17383 0.12614,-0.21343 0.10439,-0.47982 -0.0449,-0.67773 -0.38907,-0.51554 -1.13342,-1.56307 -1.53906,-2.5332 -0.41695,-0.99738 -0.4808,-2.54652 -0.48437,-3.30079 -0.001,-0.28668 -0.0903,-0.56568 -0.26758,-0.79101 z m -7.13281,6.72461 c -0.39787,0.91891 -1.8652304,4.14648 -1.8652304,4.14648 -0.20248,0.45129 -0.11023,0.98112 0.23437,1.33594 l 3.0898504,3.17969 c 1.37315,-2.83343 1.29993,-4.76045 0.74218,-6.12109 -0.49966,-1.21895 -1.42291,-2.02004 -2.20117,-2.54102 z m 5.33399,3.44336 c -0.60061,-0.0151 -1.21684,0.0527 -1.82422,0.17383 0.19472,1.45858 -0.0817,3.27122 -1.15039,5.47852 0.0973,0.007 1.62089,0.12501 1.77344,0.13672 1.19405,0.0918 2.52182,0.58261 3.66796,0.89843 0.8044,0.22312 1.61326,-0.42275 1.72461,-1.25 0.0777,-0.57698 0.22442,-1.2289 0.48633,-1.83984 -0.73307,-1.8889 -1.77505,-2.82794 -2.94531,-3.27539 -0.54682,-0.20909 -1.13182,-0.30715 -1.73242,-0.32227 z" /><path
     id="path1-0-7-9"
     style="fill:#ffffff;fill-opacity:1;stroke-width:0.0452467"
     d="m 16.506999,7.01758 c -0.28147,0.004 -0.56394,0.10434 -0.79102,0.30859 l -3.73046,3.35547 c -0.20809,0.18714 -0.34501,0.44202 -0.38672,0.71875 -0.10881,0.72133 -0.2662,1.8445 -0.37891,2.56055 0.90296,0.56205 2.18118,1.53364 2.85352,3.17383 0.0628,0.15322 0.11719,0.31236 0.16796,0.47656 0.59058,-0.11953 1.20239,-0.19528 1.81641,-0.19922 0.005,-3e-5 0.0104,2e-5 0.0156,0 -1.11005,-3.17617 -0.5698,-5.00781 0.0859,-6.34375 0.35038,-0.71383 0.69634,-1.28384 0.84766,-1.86914 0.15132,-0.5853 0.15048,-1.20413 -0.25391,-2.15234 l 0.0117,-0.006 c -0.0854,-0.0174 -0.17074,-0.0246 -0.25781,-0.0234 z m 1.57226,1.23047 c 0.0311,0.43421 -0.009,0.83383 -0.10351,1.20117 -0.20085,0.77686 -0.59419,1.40089 -0.91797,2.06055 -0.63312,1.28987 -1.14019,2.73239 0.10938,5.98046 0.40608,0.0624 0.80888,0.16372 1.20312,0.31446 1.26041,0.48192 2.39424,1.47593 3.20508,3.13086 0.64812,-0.98074 1.12062,-1.75627 1.36719,-2.17383 0.12614,-0.21343 0.10439,-0.47983 -0.0449,-0.67774 -0.38907,-0.51554 -1.13342,-1.56307 -1.53906,-2.5332 -0.41695,-0.99737 -0.4808,-2.54652 -0.48437,-3.30078 -0.001,-0.28668 -0.0903,-0.56569 -0.26758,-0.79102 z m -7.13281,6.72461 c -0.39787,0.91891 -1.8652304,4.14648 -1.8652304,4.14648 -0.20248,0.45129 -0.11023,0.98111 0.23437,1.33594 l 3.0898504,3.17969 c 1.37315,-2.83343 1.29993,-4.76046 0.74218,-6.1211 -0.49966,-1.21895 -1.42291,-2.02004 -2.20117,-2.54101 z m 5.33399,3.44336 c -0.60061,-0.0151 -1.21684,0.0527 -1.82422,0.17382 0.19472,1.45858 -0.0817,3.27123 -1.15039,5.47852 0.0973,0.007 1.62089,0.12501 1.77344,0.13672 1.19405,0.0918 2.52182,0.58261 3.66796,0.89844 0.8044,0.22311 1.61326,-0.42276 1.72461,-1.25 0.0777,-0.57699 0.22442,-1.2289 0.48633,-1.83985 -0.73307,-1.8889 -1.77505,-2.82793 -2.94531,-3.27539 -0.54682,-0.20908 -1.13182,-0.30715 -1.73242,-0.32226 z" /></svg>
