<?xml version="1.0" encoding="UTF-8" standalone="no"?>
<svg
   width="64"
   height="64"
   viewBox="0 0 64 64"
   fill="none"
   version="1.1"
   id="svg4"
   xml:space="preserve"
   sodipodi:docname="obsidian-md_64.svg"
   inkscape:version="1.3.2 (1:1.3.2+202311252150+091e20ef0f)"
   xmlns:inkscape="http://www.inkscape.org/namespaces/inkscape"
   xmlns:sodipodi="http://sodipodi.sourceforge.net/DTD/sodipodi-0.dtd"
   xmlns:xlink="http://www.w3.org/1999/xlink"
   xmlns="http://www.w3.org/2000/svg"
   xmlns:svg="http://www.w3.org/2000/svg"><sodipodi:namedview
     id="namedview1"
     pagecolor="#ffffff"
     bordercolor="#000000"
     borderopacity="0.25"
     inkscape:showpageshadow="2"
     inkscape:pageopacity="0.0"
     inkscape:pagecheckerboard="0"
     inkscape:deskcolor="#d1d1d1"
     inkscape:zoom="11.34375"
     inkscape:cx="32"
     inkscape:cy="31.955923"
     inkscape:window-width="1920"
     inkscape:window-height="1080"
     inkscape:window-x="320"
     inkscape:window-y="179"
     inkscape:window-maximized="0"
     inkscape:current-layer="svg4" /><defs
     id="defs4"><linearGradient
       id="linearGradient10"><stop
         style="stop-color:#ffffff;stop-opacity:1;"
         offset="0"
         id="stop25" /><stop
         style="stop-color:#ffffff;stop-opacity:0.15171327;"
         offset="0.11805969"
         id="stop27" /><stop
         style="stop-color:#ffffff;stop-opacity:0.14522521;"
         offset="0.93840939"
         id="stop30" /><stop
         style="stop-color:#ffffff;stop-opacity:0.74615389;"
         offset="1"
         id="stop26" /></linearGradient><linearGradient
       id="linearGradient2"><stop
         style="stop-color:#6b34fc;stop-opacity:1;"
         offset="0"
         id="stop1" /><stop
         style="stop-color:#8c65ff;stop-opacity:1;"
         offset="1"
         id="stop2" /></linearGradient><linearGradient
       id="linearGradient25"><stop
         style="stop-color:#000000;stop-opacity:0;"
         offset="0"
         id="stop28" /><stop
         style="stop-color:#000000;stop-opacity:0;"
         offset="0.25"
         id="stop33" /><stop
         style="stop-color:#000000;stop-opacity:1;"
         offset="0.5"
         id="stop31" /><stop
         style="stop-color:#000000;stop-opacity:0;"
         offset="0.75"
         id="stop32" /><stop
         style="stop-color:#000000;stop-opacity:0;"
         offset="1"
         id="stop29" /></linearGradient><linearGradient
       id="linearGradient24"><stop
         style="stop-color:#000000;stop-opacity:1;"
         offset="0"
         id="stop21" /><stop
         style="stop-color:#000000;stop-opacity:0;"
         offset="0.5"
         id="stop22" /><stop
         style="stop-color:#000000;stop-opacity:0;"
         offset="1"
         id="stop23" /></linearGradient><radialGradient
       xlink:href="#linearGradient24"
       id="radialGradient20-5"
       gradientUnits="userSpaceOnUse"
       gradientTransform="matrix(-0.25212975,0,1.4684323e-4,-0.07780503,-163.2261,162.07617)"
       cx="120.21644"
       cy="476.52661"
       fx="120.21644"
       fy="476.52661"
       r="33.846573" /><radialGradient
       xlink:href="#linearGradient24"
       id="radialGradient14-6"
       cx="120.21644"
       cy="476.52661"
       fx="120.21644"
       fy="476.52661"
       r="33.846573"
       gradientTransform="matrix(-0.25212975,0,1.4684323e-4,-0.07780503,176.77391,162.07617)"
       gradientUnits="userSpaceOnUse" /><linearGradient
       xlink:href="#linearGradient25"
       id="linearGradient31-6"
       x1="64"
       y1="124"
       x2="64"
       y2="116"
       gradientUnits="userSpaceOnUse"
       gradientTransform="matrix(0.533358,0,0,0.65835786,135.86361,45.997056)" /><linearGradient
       xlink:href="#linearGradient2"
       id="linearGradient8"
       x1="170"
       y1="124.5"
       x2="170"
       y2="69.5"
       gradientUnits="userSpaceOnUse"
       gradientTransform="translate(-138,-64)" /><linearGradient
       xlink:href="#linearGradient10"
       id="linearGradient26"
       x1="170"
       y1="69.5"
       x2="170"
       y2="124.5"
       gradientUnits="userSpaceOnUse"
       gradientTransform="translate(-138,-64)" /></defs><rect
     style="fill:url(#linearGradient8);fill-opacity:1;stroke:#000000;stroke-width:0.982143;stroke-linecap:round;stroke-linejoin:round;stroke-dasharray:none;stroke-opacity:0.296742;paint-order:normal"
     id="rect47"
     width="55"
     height="55"
     x="4.5"
     y="5.5"
     rx="6"
     ry="6" /><path
     id="path57"
     style="opacity:0.15;fill:none;fill-opacity:1;stroke:#020008;stroke-width:1;stroke-linejoin:round;stroke-dasharray:none;stroke-opacity:1"
     d="m 170.91211,78.78125 c -0.6984,0.0094 -1.39856,0.261716 -1.96094,0.767578 l -7.70312,6.929688 c -0.51608,0.464108 -0.85368,1.091453 -0.95703,1.777343 -0.23619,1.565795 -0.58776,4.073293 -0.82032,5.521485 l 0.22852,0.503906 c 1.80095,1.130785 4.23781,3.021018 5.52539,6.16211 0.14369,0.35054 0.27015,0.72226 0.38281,1.10937 l 0.58789,0.34766 c 1.21928,-0.26694 2.43102,-0.45554 3.62696,-0.49414 0.16498,-0.005 0.32883,-0.008 0.49218,-0.008 l 0.47071,-0.66797 c -2.33,-6.498217 -1.24763,-10.092401 0.0645,-12.765626 0.71181,-1.450195 1.46429,-2.694561 1.80078,-3.996094 0.3493,-1.35113 0.33135,-2.74293 -0.50586,-4.769531 l -0.31641,-0.28711 c -0.29698,-0.09058 -0.60462,-0.13506 -0.91601,-0.130859 z m 3.39453,2.416016 -0.88867,0.365234 c 0.10675,0.940964 0.0331,1.790181 -0.16602,2.560547 -0.39187,1.515733 -1.16365,2.725667 -1.8457,4.115234 -1.36227,2.775394 -2.46806,6.01073 0.21875,12.972659 l 0.39258,0.31445 c 0.68081,0.10117 1.35085,0.26585 2.00781,0.51172 2.44236,0.91406 4.70428,2.97239 6.55664,6.74023 l 0.86524,0.0566 c 1.53742,-2.2998 2.6328,-4.1009 3.1914,-5.04687 0.36822,-0.62294 0.29794,-1.39387 -0.12695,-1.95703 -0.79762,-1.05689 -2.29497,-3.161285 -3.11524,-5.123049 -0.82884,-1.982666 -0.95203,-5.077757 -0.95898,-6.623047 -0.004,-0.696138 -0.22482,-1.383087 -0.66406,-1.941406 z m -14.76367,13.111328 c 0.16925,-0.397381 -0.47656,0.998047 -0.47656,0.998047 l 0.0293,-0.0078 c 0.0355,-0.08056 0.43009,-0.949911 0.44727,-0.990234 z m -0.44727,0.990234 c -0.31423,0.713372 -1.03714,2.32391 -3.96679,8.765622 -0.50204,1.11895 -0.27035,2.43088 0.58398,3.31055 l 6.50977,6.70508 c 0.082,0.0844 0.041,0.0352 0.041,0.0352 l 0.80078,-0.13671 c 2.94321,-6.03748 2.84041,-10.23854 1.58594,-13.29883 -1.11473,-2.719428 -3.16707,-4.47601 -4.8457,-5.593753 z m 11.08399,6.724612 c -1.24849,0.009 -2.54064,0.19683 -3.84961,0.48242 l -0.38672,0.5625 c 0.43633,2.8905 -0.0757,6.57516 -2.31641,11.17578 l 0.38672,0.71484 c 0.0109,0.001 0.0679,0.0162 0.14258,0.0215 6.90852,0.52422 3.45778,0.26253 3.77734,0.28711 2.41154,0.18541 5.09634,1.18538 7.47852,1.8418 1.97341,0.54735 3.92453,-1.01339 4.19141,-2.9961 0.15241,-1.13241 0.43305,-2.39654 0.92773,-3.58008 l -0.002,-0.39257 c -1.91085,-4.41813 -4.17258,-6.5698 -6.72071,-7.52344 -1.15972,-0.43403 -2.37659,-0.60301 -3.6289,-0.59375 z"
     transform="translate(-138,-64)" /><path
     id="path56"
     style="opacity:0.3;fill:#000000;fill-opacity:1;stroke-width:0.0934252"
     d="m 32.91797,15.281416 c -0.58117,0.0078 -1.16395,0.216928 -1.63281,0.638672 l -7.70313,6.929687 c -0.42967,0.386406 -0.71077,0.909082 -0.79687,1.480469 -0.23576,1.562951 -0.58684,4.073404 -0.82032,5.527344 1.84087,1.155847 4.37874,3.117942 5.72266,6.396482 0.15139,0.36932 0.28364,0.75702 0.40039,1.1582 1.23753,-0.27094 2.48237,-0.46596 3.71875,-0.50586 0.16928,-0.005 0.33895,-0.008 0.50781,-0.008 -2.38512,-6.651954 -1.2724,-10.386893 0.0859,-13.154294 0.71755,-1.461891 1.44219,-2.649355 1.76563,-3.900391 0.31584,-1.221715 0.30733,-2.536659 -0.48438,-4.453125 -0.24827,-0.07572 -0.50496,-0.112865 -0.76367,-0.109375 z m 2.99609,2.224609 c 0.11381,1.003162 0.0372,1.910728 -0.17773,2.742188 -0.40372,1.561549 -1.20642,2.836873 -1.88086,4.210937 -1.32174,2.692824 -2.38103,5.790288 0.23633,12.57226 0.71171,0.10576 1.41563,0.27748 2.10937,0.53711 2.59484,0.97113 4.9336,3.13071 6.83008,6.98828 1.53181,-2.29141 2.62311,-4.08421 3.17773,-5.02344 0.26049,-0.44069 0.21261,-0.9937 -0.0957,-1.40234 -0.80336,-1.06449 -2.34017,-3.227338 -3.17773,-5.230463 -0.86091,-2.059366 -0.99105,-5.257059 -0.99805,-6.814453 -0.003,-0.591942 -0.19061,-1.16951 -0.55664,-1.634766 z M 21.52734,31.502119 c -0.67208,1.579011 -3.9414,8.767571 -3.9414,8.767571 -0.41808,0.93182 -0.2252,2.02517 0.48633,2.75781 l 6.50976,6.70508 c 0.0101,0.0104 0.023,0.0172 0.0332,0.0273 2.89039,-5.92912 2.75472,-10.00602 1.57227,-12.89062 -1.06246,-2.59191 -3.02548,-4.278712 -4.66016,-5.367191 z M 32.18359,38.5236 c -1.20403,0.009 -2.45814,0.1897 -3.74609,0.4707 0.45486,3.01325 -0.0867,6.79848 -2.36133,11.46875 0.0395,0.005 0.0773,0.0167 0.11719,0.0195 0,0 3.45428,0.26211 3.7793,0.28711 2.46548,0.18956 5.20571,1.20531 7.57226,1.85742 1.66091,0.46068 3.33259,-0.87199 3.5625,-2.58007 0.15643,-1.16227 0.44684,-2.47238 0.96289,-3.70704 -1.86852,-4.32026 -4.06599,-6.36636 -6.4375,-7.2539 -1.09121,-0.40838 -2.24518,-0.5714 -3.44922,-0.5625 z" /><g
     id="g65"
     transform="translate(-138,-64)"><path
       id="path1-0"
       style="fill:#b7cce0;fill-opacity:1;stroke-width:0.0934252"
       d="m 170.91797,78.28125 c -0.58117,0.0078 -1.16395,0.216928 -1.63281,0.638672 l -7.70313,6.929687 c -0.42967,0.386406 -0.71077,0.909082 -0.79687,1.480469 -0.23576,1.562951 -0.58684,4.073404 -0.82032,5.527344 1.84087,1.155847 4.37874,3.117942 5.72266,6.396484 0.15139,0.369319 0.28364,0.757024 0.40039,1.158204 1.23753,-0.27094 2.48237,-0.465961 3.71875,-0.50586 0.16928,-0.0055 0.33895,-0.0083 0.50781,-0.0078 -2.38512,-6.651957 -1.2724,-10.386896 0.0859,-13.154297 0.71755,-1.461891 1.44219,-2.649355 1.76563,-3.900391 0.31584,-1.221715 0.30733,-2.536659 -0.48438,-4.453125 -0.24827,-0.07572 -0.50496,-0.112865 -0.76367,-0.109375 z m 2.99609,2.224609 c 0.11381,1.003162 0.0372,1.910728 -0.17773,2.742188 -0.40372,1.561549 -1.20642,2.836873 -1.88086,4.210937 -1.32174,2.692824 -2.38103,5.790288 0.23633,12.572266 0.71171,0.10576 1.41563,0.27748 2.10937,0.53711 2.59484,0.97113 4.9336,3.13071 6.83008,6.98828 1.53181,-2.29141 2.62311,-4.08421 3.17773,-5.02344 0.26049,-0.44069 0.21261,-0.9937 -0.0957,-1.40234 -0.80336,-1.06449 -2.34017,-3.227344 -3.17773,-5.230469 -0.86091,-2.059366 -0.99105,-5.257059 -0.99805,-6.814453 -0.003,-0.591942 -0.19061,-1.16951 -0.55664,-1.634766 z m -14.38672,13.996094 c -0.67208,1.579011 -3.9414,8.767577 -3.9414,8.767577 -0.41808,0.93182 -0.2252,2.02517 0.48633,2.75781 l 6.50976,6.70508 c 0.0101,0.0104 0.023,0.0172 0.0332,0.0273 2.89039,-5.92912 2.75472,-10.00602 1.57227,-12.890629 -1.06246,-2.591907 -3.02548,-4.278709 -4.66016,-5.367188 z m 10.65625,7.021487 c -1.20403,0.009 -2.45814,0.1897 -3.74609,0.4707 0.45486,3.01325 -0.0867,6.79848 -2.36133,11.46875 0.0395,0.005 0.0773,0.0167 0.11719,0.0195 0,0 3.45428,0.26211 3.7793,0.28711 2.46548,0.18956 5.20571,1.20531 7.57226,1.85742 1.66091,0.46068 3.33259,-0.87199 3.5625,-2.58007 0.15643,-1.16227 0.44684,-2.47238 0.96289,-3.70704 -1.86852,-4.32026 -4.06599,-6.36636 -6.4375,-7.2539 -1.09121,-0.40838 -2.24518,-0.5714 -3.44922,-0.5625 z" /><path
       id="path55"
       style="fill:#ffffff;fill-opacity:1;stroke-width:0.0934252"
       d="m 170.91797,78.28125 c -0.58117,0.0078 -1.16395,0.216928 -1.63281,0.638672 l -7.70313,6.929687 c -0.42967,0.386406 -0.71077,0.909083 -0.79687,1.480469 -0.19636,1.301727 -0.46182,3.158742 -0.6836,4.617188 1.82842,1.166071 4.27397,3.106039 5.58594,6.30664 0.15139,0.369319 0.28364,0.757027 0.40039,1.158203 1.23753,-0.270941 2.48237,-0.46596 3.71875,-0.505859 0.0579,-0.0019 0.11584,-7.27e-4 0.17383,-0.002 -0.83399,-2.605462 -1.10982,-4.737763 -1.04883,-6.53125 -0.10019,-2.870388 0.63653,-4.93333 1.46875,-6.628906 0.71755,-1.46189 1.44219,-2.649356 1.76563,-3.900391 0.083,-0.320929 0.14003,-0.649179 0.16992,-0.992188 -0.064,-0.714735 -0.26297,-1.513662 -0.6543,-2.460937 -0.24827,-0.07572 -0.50496,-0.112865 -0.76367,-0.109375 z m 3.03906,2.279297 c -0.003,0.136722 -0.002,0.275196 -0.0117,0.408203 0.0464,0.82013 -0.0279,1.578844 -0.20898,2.279297 -0.40372,1.561547 -1.20642,2.836875 -1.88086,4.210937 -0.6666,1.358089 -1.26426,2.82001 -1.35938,4.804688 0.0639,1.779719 0.50961,3.953327 1.59571,6.767578 0.71171,0.105755 1.41563,0.27748 2.10937,0.537109 2.59484,0.971131 4.9336,3.130711 6.83008,6.988281 1.53181,-2.29141 2.62311,-4.08421 3.17773,-5.02344 0.024,-0.0406 0.0437,-0.0827 0.0625,-0.125 -0.0414,-0.0969 -0.093,-0.19094 -0.1582,-0.27734 -0.80336,-1.06449 -2.34017,-3.227346 -3.17773,-5.230469 -0.86091,-2.059364 -0.99105,-5.257061 -0.99805,-6.814453 -0.003,-0.591942 -0.19061,-1.169511 -0.55664,-1.634766 z m -14.42969,13.941406 c -0.67208,1.57901 -3.9414,8.767577 -3.9414,8.767577 -0.0763,0.17004 -0.12595,0.34581 -0.16211,0.52344 0.0939,0.45511 0.31025,0.88616 0.64844,1.23437 l 6.50976,6.70508 c 0.0101,0.0104 0.023,0.0172 0.0332,0.0273 1.59498,-3.27181 2.26496,-5.97775 2.34961,-8.23243 -0.0576,-1.39767 -0.34695,-2.60826 -0.77734,-3.658199 -1.06246,-2.591905 -3.02548,-4.27871 -4.66016,-5.367188 z m 10.65625,7.021487 c -1.1703,0.009 -2.38864,0.1816 -3.63867,0.44922 0.0371,0.49651 0.0475,1.01163 0.0293,1.54687 0.0871,2.51188 -0.4849,5.49001 -2.05274,8.98828 0.50247,0.0381 3.15438,0.23889 3.45118,0.26172 2.46547,0.18956 5.20571,1.20531 7.57226,1.85742 1.66091,0.46068 3.33259,-0.872 3.5625,-2.58007 0.13346,-0.99156 0.37437,-2.08814 0.75977,-3.15626 -1.82407,-4.00947 -3.94791,-5.94897 -6.23438,-6.80468 -1.09121,-0.40838 -2.24518,-0.5714 -3.44922,-0.5625 z" /></g><g
     id="g64"
     transform="translate(-138,-64)"><rect
       style="opacity:0.4;fill:url(#radialGradient20-5);stroke:none;stroke-width:0.289228;stroke-dasharray:none;stroke-opacity:0.07;paint-order:markers fill stroke"
       id="rect20-9"
       width="8.5337276"
       height="5.2668681"
       x="-202"
       y="122.36657"
       ry="0"
       transform="scale(-1,1)" /><rect
       style="opacity:0.4;fill:url(#radialGradient14-6);stroke:none;stroke-width:0.289228;stroke-dasharray:none;stroke-opacity:0.07;paint-order:markers fill stroke"
       id="rect12-3"
       width="8.5337276"
       height="5.2668681"
       x="138.00002"
       y="122.36657"
       ry="0" /><rect
       style="opacity:0.4;fill:url(#linearGradient31-6);fill-opacity:1;stroke:none;stroke-width:0.617458;stroke-linecap:round;stroke-linejoin:round;stroke-dasharray:none;stroke-opacity:0.3;paint-order:normal"
       id="rect24-9"
       width="46.935505"
       height="5.2668629"
       x="146.53078"
       y="122.36657"
       rx="0"
       ry="0" /></g><path
     id="rect9"
     d="m 10.5,6.5 h 43 c 2.77052,0 5,2.229485 5,5 v 43 c 0,2.77052 -2.22948,5 -5,5 h -43 c -2.77052,0 -5,-2.22948 -5,-5 v -43 c 0,-2.770515 2.22948,-5 5,-5 z"
     style="display:inline;opacity:0.75;fill:none;fill-opacity:1;stroke:url(#linearGradient26);stroke-width:0.982143;stroke-linecap:round;stroke-linejoin:round;stroke-dasharray:none;stroke-opacity:0.296742;paint-order:normal" /></svg>
