<?xml version="1.0" encoding="UTF-8" standalone="no"?>
<svg
   width="128"
   height="128"
   viewBox="0 0 128 128"
   fill="none"
   version="1.1"
   id="svg4"
   xml:space="preserve"
   xmlns:xlink="http://www.w3.org/1999/xlink"
   xmlns="http://www.w3.org/2000/svg"
   xmlns:svg="http://www.w3.org/2000/svg"><defs
     id="defs4"><linearGradient
       id="linearGradient60"><stop
         style="stop-color:#f4b35f;stop-opacity:1;"
         offset="0"
         id="stop59" /><stop
         style="stop-color:#ff5114;stop-opacity:1;"
         offset="1"
         id="stop60" /></linearGradient><linearGradient
       id="linearGradient26"><stop
         style="stop-color:#3f4757;stop-opacity:1;"
         offset="0.07150608"
         id="stop3" /><stop
         style="stop-color:#363b44;stop-opacity:1;"
         offset="0.10302322"
         id="stop8" /><stop
         style="stop-color:#363b44;stop-opacity:1;"
         offset="0.93603706"
         id="stop25" /><stop
         style="stop-color:#626d7a;stop-opacity:1;"
         offset="0.96933085"
         id="stop26" /></linearGradient><linearGradient
       id="linearGradient2"><stop
         style="stop-color:#182027;stop-opacity:1;"
         offset="0"
         id="stop1" /><stop
         style="stop-color:#3a465a;stop-opacity:1;"
         offset="1"
         id="stop2" /></linearGradient><linearGradient
       id="linearGradient25"><stop
         style="stop-color:#000000;stop-opacity:0;"
         offset="0"
         id="stop28" /><stop
         style="stop-color:#000000;stop-opacity:0;"
         offset="0.25"
         id="stop33" /><stop
         style="stop-color:#000000;stop-opacity:1;"
         offset="0.5"
         id="stop31" /><stop
         style="stop-color:#000000;stop-opacity:0;"
         offset="0.75"
         id="stop32" /><stop
         style="stop-color:#000000;stop-opacity:0;"
         offset="1"
         id="stop29" /></linearGradient><linearGradient
       id="linearGradient24"><stop
         style="stop-color:#000000;stop-opacity:1;"
         offset="0"
         id="stop21" /><stop
         style="stop-color:#000000;stop-opacity:0;"
         offset="0.5"
         id="stop22" /><stop
         style="stop-color:#000000;stop-opacity:0;"
         offset="1"
         id="stop23" /></linearGradient><linearGradient
       id="linearGradient19"><stop
         style="stop-color:#000000;stop-opacity:1;"
         offset="0"
         id="stop18" /><stop
         style="stop-color:#000000;stop-opacity:0;"
         offset="0.5"
         id="stop20" /><stop
         style="stop-color:#000000;stop-opacity:0;"
         offset="1"
         id="stop19" /></linearGradient><linearGradient
       xlink:href="#linearGradient26"
       id="linearGradient6"
       x1="256.81836"
       y1="476.52661"
       x2="256.81836"
       y2="36.526611"
       gradientUnits="userSpaceOnUse"
       gradientTransform="matrix(0.23181812,0,0,0.23181815,4.4648323,8.5324623)" /><linearGradient
       xlink:href="#linearGradient2"
       id="linearGradient9"
       x1="256.81836"
       y1="472.52658"
       x2="256.81836"
       y2="40.526615"
       gradientUnits="userSpaceOnUse"
       gradientTransform="matrix(0.23148149,0,0,0.2314815,4.5513057,8.6188387)" /><radialGradient
       xlink:href="#linearGradient19"
       id="radialGradient14"
       cx="120.21644"
       cy="476.52661"
       fx="120.21644"
       fy="476.52661"
       r="33.846573"
       gradientTransform="matrix(-0.47272141,0,2.7531832e-4,-0.11818045,76.703266,176.31613)"
       gradientUnits="userSpaceOnUse" /><radialGradient
       xlink:href="#linearGradient24"
       id="radialGradient20"
       gradientUnits="userSpaceOnUse"
       gradientTransform="matrix(-0.47272141,0,2.7531832e-4,-0.11818045,-51.302299,176.31613)"
       cx="120.21644"
       cy="476.52661"
       fx="120.21644"
       fy="476.52661"
       r="33.846573" /><linearGradient
       xlink:href="#linearGradient25"
       id="linearGradient31"
       x1="64"
       y1="124"
       x2="64"
       y2="116"
       gradientUnits="userSpaceOnUse" /><linearGradient
       xlink:href="#linearGradient60"
       id="linearGradient36"
       x1="61.860367"
       y1="99.931641"
       x2="62.208549"
       y2="28.068359"
       gradientUnits="userSpaceOnUse" /><linearGradient
       xlink:href="#linearGradient60"
       id="linearGradient3"
       gradientUnits="userSpaceOnUse"
       x1="61.860367"
       y1="99.931641"
       x2="62.208549"
       y2="28.068359" /></defs><g
     id="g47"
     transform="translate(-0.00278282)"><g
       id="g33"
       style="display:inline"><rect
         style="opacity:0.4;fill:url(#radialGradient20);stroke:none;stroke-width:0.48809;stroke-dasharray:none;stroke-opacity:0.07;paint-order:markers fill stroke"
         id="rect20"
         width="16"
         height="8.0000076"
         x="-124"
         y="115.99999"
         ry="0"
         transform="scale(-1,1)" /><rect
         style="opacity:0.4;fill:url(#radialGradient14);stroke:none;stroke-width:0.48809;stroke-dasharray:none;stroke-opacity:0.07;paint-order:markers fill stroke"
         id="rect12"
         width="16"
         height="8.0000076"
         x="4.0055656"
         y="115.99999"
         ry="0" /><rect
         style="opacity:0.4;fill:url(#linearGradient31);fill-opacity:1;stroke:none;stroke-width:1.042;stroke-linecap:round;stroke-linejoin:round;stroke-dasharray:none;stroke-opacity:0.3;paint-order:normal"
         id="rect24"
         width="88"
         height="8"
         x="20"
         y="116"
         rx="0"
         ry="0" /></g><g
       id="g41"><rect
         x="12.499987"
         y="16.499998"
         width="103"
         height="103"
         rx="9.9968624"
         fill="#8758ff"
         id="rect7"
         ry="9.9968624"
         style="fill:#474747;fill-opacity:1;stroke:#000000;stroke-width:1;stroke-dasharray:none;stroke-opacity:0.295313" /><rect
         x="13"
         y="17"
         width="102"
         height="102"
         rx="9.5"
         fill="#8758ff"
         id="rect1"
         ry="9.5"
         style="fill:url(#linearGradient6);stroke-width:0.199221" /><rect
         x="14"
         y="18"
         width="100"
         height="100"
         rx="8.5"
         fill="#8758ff"
         id="rect5"
         ry="8.5"
         style="fill:url(#linearGradient9);stroke-width:0.195315" /><g
         id="g44"
         style="fill:none;fill-opacity:0.298628;stroke:#000000;stroke-opacity:0.15"
         transform="translate(0,0.99964103)"><g
           id="g42"
           transform="translate(1.4514603)"
           style="fill:none;fill-opacity:0.298628;stroke:#000000;stroke-opacity:0.15"><path
             id="path40"
             style="fill:none;fill-opacity:0.298628;stroke:#000000;stroke-width:0.913726;stroke-linecap:round;stroke-linejoin:round;stroke-opacity:0.15"
             d="m 58.560258,27.568359 c -1.389696,6.94e-4 -2.64706,0.821947 -3.207031,2.09375 L 25.220415,98.072266 c -0.490801,1.114423 0.321529,2.359814 1.539062,2.359374 h 8.34375 c 1.259017,7.9e-4 2.398209,-0.742342 2.90625,-1.894531 L 62.208696,43.59375 86.407915,98.537109 c 0.507621,1.151233 1.646065,1.894401 2.904297,1.894531 h 8.345703 c 1.217713,4.4e-4 2.029873,-1.244925 1.539062,-2.359374 L 69.064165,29.662109 c -0.560332,-1.272624 -1.818539,-2.093958 -3.208985,-2.09375 z" /></g><g
           id="g43"
           style="fill:none;fill-opacity:0.298628;stroke:#000000;stroke-opacity:0.15"><path
             id="path42"
             style="fill:none;fill-opacity:0.298628;stroke:#000000;stroke-width:0.828509;stroke-linecap:round;stroke-linejoin:round;stroke-opacity:0.15"
             d="M 63.664062,49.603516 54.25,70.976562 l 0.08398,0.199219 c 0.582035,1.394722 0.291298,0.69619 0.746094,1.824219 0.455323,1.129336 1.072986,2.690259 1.728516,4.414062 0.327741,0.861839 0.664364,1.764189 0.99414,2.673829 0.412262,1.137163 0.814795,2.28394 1.173828,3.376953 0.199427,0.607119 0.384866,1.196525 0.552735,1.757812 0.186574,0.623832 0.350904,1.211831 0.484375,1.748047 0.179159,0.719768 0.354419,1.517793 0.52539,2.373047 0.307881,1.540117 0.599332,3.258002 0.869141,5.023437 0.215807,1.412084 0.417133,2.852006 0.601563,4.253907 0.368905,2.804146 0.669171,5.449246 0.876953,7.394536 0.19213,1.79874 0.107927,0.87939 0.322265,3.1875 l 0.996094,-0.002 c 0.202383,-2.26645 0.124379,-1.3665 0.306641,-3.13281 0.197336,-1.9124 0.481566,-4.5125 0.833984,-7.269532 0.176187,-1.378344 0.369288,-2.795124 0.576172,-4.183594 0.258654,-1.735917 0.539295,-3.424838 0.835937,-4.939453 0.16473,-0.841086 0.33465,-1.626046 0.507813,-2.333984 0.134223,-0.548739 0.298331,-1.150629 0.486328,-1.789063 0.16915,-0.574429 0.357466,-1.177448 0.558594,-1.798828 0.362094,-1.11868 0.765503,-2.293026 1.18164,-3.457031 0.332878,-0.931113 0.672953,-1.85408 1.003907,-2.736328 0.661956,-1.764623 1.288041,-3.363322 1.748047,-4.519531 0.459486,-1.154905 0.165706,-0.441078 0.753906,-1.869141 l 0.08008,-0.195313 z" /><path
             id="path43"
             style="fill:none;fill-opacity:0.298628;stroke:#000000;stroke-width:0.699735;stroke-linecap:round;stroke-linejoin:round;stroke-opacity:0.15"
             d="m 63.664062,49.361328 -6.148437,17.152344 0.117187,0.201172 c 2.780383,4.764798 4.36093,10.01801 5.542969,15.470703 l 0.972656,0.01953 c 1.302465,-5.083176 2.692137,-10.142285 5.556641,-15.505859 l 0.103516,-0.197266 z" /></g></g><g
         id="g40"
         style="fill:#000000;fill-opacity:0.298628;stroke:none"
         transform="translate(0,1.031641)"><g
           id="g38"
           transform="translate(1.4514603)"
           style="fill:#000000;fill-opacity:0.298628;stroke:none"><path
             id="path37"
             style="fill:#000000;fill-opacity:0.298628;stroke:none;stroke-width:0.913726;stroke-linecap:round;stroke-linejoin:round;stroke-opacity:0.15"
             d="m 58.561088,28.068359 c -1.191333,5.95e-4 -2.269933,0.704596 -2.75,1.794922 L 25.678276,98.273438 c -0.344093,0.781306 0.22831,1.658509 1.082031,1.658203 h 8.34375 c 1.060549,6.64e-4 2.021334,-0.625301 2.449219,-1.595703 l 24.65625,-55.980469 24.65625,55.980469 c 0.4276,0.969753 1.387424,1.595593 2.447265,1.595703 h 8.345703 c 0.853721,3.07e-4 1.426125,-0.876896 1.082032,-1.658203 L 68.607963,29.863281 C 68.127611,28.772307 67.048052,28.06818 65.85601,28.068359 Z" /></g><g
           id="g39"
           style="fill:#000000;fill-opacity:0.298628;stroke:none"><path
             id="path38"
             style="fill:#000000;fill-opacity:0.298628;stroke:none;stroke-width:0.828509;stroke-linecap:round;stroke-linejoin:round;stroke-opacity:0.15"
             d="m 63.664768,50.844064 8.869854,20.138446 c 0,0 -4.391303,10.661493 -5.755928,16.240454 -1.754034,7.170972 -3.072437,21.932976 -3.072437,21.932976 0,0 -1.392834,-15.016872 -3.207279,-22.306368 C 59.141416,81.39559 54.794914,70.98251 54.794914,70.98251 Z" /><path
             id="path39"
             style="fill:#000000;fill-opacity:0.298628;stroke:none;stroke-width:0.699735;stroke-linecap:round;stroke-linejoin:round;stroke-opacity:0.15"
             d="m 63.664892,50.844346 -5.59965,15.617722 c 2.817016,4.827579 4.412486,10.141388 5.59965,15.617721 1.303884,-5.088715 2.704989,-10.197679 5.599651,-15.617721 z" /></g></g><g
         id="g37"><g
           id="g26"
           transform="translate(1.4514603)"
           style="fill:url(#linearGradient36);fill-opacity:1;stroke:none"><path
             id="rect26"
             style="fill:url(#linearGradient3);fill-opacity:1;stroke:none;stroke-width:0.913726;stroke-linecap:round;stroke-linejoin:round;stroke-opacity:0.15"
             d="m 58.561088,28.068359 c -1.191333,5.95e-4 -2.269933,0.704596 -2.75,1.794922 L 25.678276,98.273438 c -0.344093,0.781306 0.22831,1.658509 1.082031,1.658203 h 8.34375 c 1.060549,6.64e-4 2.021334,-0.625301 2.449219,-1.595703 l 24.65625,-55.980469 24.65625,55.980469 c 0.4276,0.969753 1.387424,1.595593 2.447265,1.595703 h 8.345703 c 0.853721,3.07e-4 1.426125,-0.876896 1.082032,-1.658203 L 68.607963,29.863281 C 68.127611,28.772307 67.048052,28.06818 65.85601,28.068359 Z" /></g><g
           id="g36"><path
             id="rect30"
             style="fill:#29aeff;fill-opacity:1;stroke-width:0.828509;stroke-linecap:round;stroke-linejoin:round;stroke-opacity:0.15"
             d="m 63.664768,50.844064 8.869854,20.138446 c 0,0 -4.391303,10.661493 -5.755928,16.240454 -1.754034,7.170972 -3.072437,21.932976 -3.072437,21.932976 0,0 -1.392834,-15.016872 -3.207279,-22.306368 C 59.141416,81.39559 54.794914,70.98251 54.794914,70.98251 Z" /><path
             id="path31"
             style="fill:#ffffff;fill-opacity:1;stroke:none;stroke-width:0.699735;stroke-linecap:round;stroke-linejoin:round;stroke-opacity:0.15"
             d="m 63.664892,50.844346 -5.59965,15.617722 c 2.817016,4.827579 4.412486,10.141388 5.59965,15.617721 1.303884,-5.088715 2.704989,-10.197679 5.599651,-15.617721 z" /></g></g><path
         id="rect44"
         style="fill:#000000;fill-opacity:0.1;stroke:none;stroke-linecap:round;stroke-linejoin:round;stroke-opacity:0.15"
         d="M 14.895361,22.707031 C 14.327094,23.848712 14.00083,25.133506 14.00083,26.5 v 0.460938 h 100 V 26.5 c 0,-1.366602 -0.32813,-2.651221 -0.89648,-3.792969 z m -0.894531,8.507813 v 4.253906 h 100 v -4.253906 z m 0,8.507812 v 4.253906 h 100 v -4.253906 z m 0,8.507813 v 4.253906 h 100 v -4.253906 z m 0,8.507812 v 4.253907 h 100 v -4.253907 z m 0,8.507813 V 69.5 h 100 v -4.253906 z m 0,8.507812 v 4.253906 h 100 v -4.253906 z m 0,8.507813 v 4.253906 h 100 v -4.253906 z m 0,8.507812 v 4.253907 h 100 v -4.253907 z m 0,8.507813 v 4.253906 h 100 v -4.253906 z m 0,8.507816 V 109.5 c 0,0.88512 0.134016,1.73789 0.382812,2.53906 h 99.234378 c 0.24879,-0.80117 0.38281,-1.65394 0.38281,-2.53906 v -1.71484 z" /></g></g></svg>
