<?xml version="1.0" encoding="UTF-8" standalone="no"?>
<svg
   width="128"
   height="128"
   viewBox="0 0 128 128"
   fill="none"
   version="1.1"
   id="svg4"
   xml:space="preserve"
   xmlns:xlink="http://www.w3.org/1999/xlink"
   xmlns="http://www.w3.org/2000/svg"
   xmlns:svg="http://www.w3.org/2000/svg"><defs
     id="defs4"><linearGradient
       id="linearGradient42"><stop
         style="stop-color:#ffffff;stop-opacity:1;"
         offset="0"
         id="stop42" /><stop
         style="stop-color:#ffffff;stop-opacity:0;"
         offset="1"
         id="stop43" /></linearGradient><linearGradient
       id="linearGradient12"><stop
         style="stop-color:#ed5353;stop-opacity:1;"
         offset="0"
         id="stop10" /><stop
         style="stop-color:#ffa154;stop-opacity:1;"
         offset="0.5"
         id="stop11" /><stop
         style="stop-color:#ffe16b;stop-opacity:1;"
         offset="1"
         id="stop12" /></linearGradient><linearGradient
       id="linearGradient880"><stop
         style="stop-color:#3a465a;stop-opacity:1;"
         offset="0"
         id="stop876" /><stop
         style="stop-color:#182027;stop-opacity:1;"
         offset="1"
         id="stop878" /></linearGradient><linearGradient
       gradientTransform="matrix(2.7297298,0,0,2.7297298,-1.51351,1.486514)"
       gradientUnits="userSpaceOnUse"
       xlink:href="#linearGradient3924-776"
       id="linearGradient3159"
       y2="43"
       x2="23.99999"
       y1="4.999989"
       x1="23.99999" /><linearGradient
       id="linearGradient3924-776"><stop
         offset="0"
         style="stop-color:#ffffff;stop-opacity:1"
         id="stop3124" /><stop
         offset="0.06316455"
         style="stop-color:#ffffff;stop-opacity:0.23529412"
         id="stop3126" /><stop
         offset="0.95056331"
         style="stop-color:#ffffff;stop-opacity:0.15686275"
         id="stop3128" /><stop
         offset="1"
         style="stop-color:#ffffff;stop-opacity:0.39215687"
         id="stop3130" /></linearGradient><radialGradient
       gradientTransform="matrix(2.003784,0,0,1.4,27.98813,-17.4)"
       gradientUnits="userSpaceOnUse"
       xlink:href="#linearGradient3688-166-749-5"
       id="radialGradient2455-1"
       fy="43.5"
       fx="4.9929786"
       r="2.5"
       cy="43.5"
       cx="4.9929786" /><linearGradient
       id="linearGradient3688-166-749-5"><stop
         offset="0"
         style="stop-color:#181818;stop-opacity:1"
         id="stop2883-0" /><stop
         offset="1"
         style="stop-color:#181818;stop-opacity:0"
         id="stop2885-5" /></linearGradient><radialGradient
       gradientTransform="matrix(2.003784,0,0,1.4,-20.01187,-104.4)"
       gradientUnits="userSpaceOnUse"
       xlink:href="#linearGradient3688-166-749-5"
       id="radialGradient2457-5"
       fy="43.5"
       fx="4.9929786"
       r="2.5"
       cy="43.5"
       cx="4.9929786" /><linearGradient
       gradientUnits="userSpaceOnUse"
       xlink:href="#linearGradient3702-501-757-0"
       id="linearGradient2459-7"
       y2="39.999443"
       x2="25.058096"
       y1="47.027729"
       x1="25.058096" /><linearGradient
       id="linearGradient3702-501-757-0"><stop
         offset="0"
         style="stop-color:#181818;stop-opacity:0"
         id="stop2895-0" /><stop
         offset="0.5"
         style="stop-color:#181818;stop-opacity:1"
         id="stop2897-2" /><stop
         offset="1"
         style="stop-color:#181818;stop-opacity:0"
         id="stop2899-6" /></linearGradient><linearGradient
       id="linearGradient3811"><stop
         offset="0"
         style="stop-color:#000000;stop-opacity:1"
         id="stop3813" /><stop
         offset="1"
         style="stop-color:#000000;stop-opacity:0"
         id="stop3815" /></linearGradient><radialGradient
       gradientTransform="matrix(1.5563924,0,0,0.16978827,70.27036,102.13029)"
       gradientUnits="userSpaceOnUse"
       xlink:href="#linearGradient3811"
       id="radialGradient4377"
       fy="93.467628"
       fx="-4.0287771"
       r="35.338131"
       cy="93.467628"
       cx="-4.0287771" /><linearGradient
       xlink:href="#linearGradient2-5"
       id="linearGradient882"
       x1="62.871635"
       y1="15.90732"
       x2="62.871635"
       y2="118.42699"
       gradientUnits="userSpaceOnUse" /><linearGradient
       xlink:href="#linearGradient12"
       id="linearGradient2"
       x1="64"
       y1="43"
       x2="64"
       y2="95"
       gradientUnits="userSpaceOnUse" /><linearGradient
       id="linearGradient2-5"><stop
         style="stop-color:#fafafa;stop-opacity:1;"
         offset="0"
         id="stop7" /><stop
         style="stop-color:#7e8087;stop-opacity:1;"
         offset="1"
         id="stop8" /></linearGradient><filter
       style="color-interpolation-filters:sRGB"
       id="filter8"
       x="-0.20307693"
       y="-0.18206897"
       width="1.4061539"
       height="1.3641379"><feGaussianBlur
         stdDeviation="4.4"
         id="feGaussianBlur8" /></filter><filter
       style="color-interpolation-filters:sRGB"
       id="filter9"
       x="-0.32914285"
       y="-0.13552941"
       width="1.6582857"
       height="1.2710588"><feGaussianBlur
         stdDeviation="0.96"
         id="feGaussianBlur9" /></filter><linearGradient
       xlink:href="#linearGradient1"
       id="linearGradient9"
       gradientUnits="userSpaceOnUse"
       x1="64"
       y1="43"
       x2="64"
       y2="95" /><linearGradient
       xlink:href="#linearGradient880"
       id="linearGradient14"
       x1="61"
       y1="19"
       x2="61"
       y2="115.5"
       gradientUnits="userSpaceOnUse" /><linearGradient
       xlink:href="#linearGradient42"
       id="linearGradient43"
       x1="62"
       y1="19"
       x2="62"
       y2="98"
       gradientUnits="userSpaceOnUse" /><linearGradient
       id="linearGradient1"><stop
         style="stop-color:#c6262e;stop-opacity:1;"
         offset="0"
         id="stop4" /><stop
         style="stop-color:#f37329;stop-opacity:1;"
         offset="0.5"
         id="stop6" /><stop
         style="stop-color:#f9c440;stop-opacity:1;"
         offset="1"
         id="stop5" /></linearGradient></defs><path
     d="m 119,118 a 55,6 0 0 1 -110,0 55,6 0 1 1 110,0 z"
     id="path3041"
     style="color:#000000;display:inline;overflow:visible;visibility:visible;opacity:0.2;fill:url(#radialGradient4377);fill-opacity:1;fill-rule:nonzero;stroke:none;stroke-width:1;marker:none;enable-background:accumulate" /><g
     transform="matrix(2.6999989,0,0,0.55555607,-0.8,94.888882)"
     id="g2036"
     style="display:inline"><g
       transform="matrix(1.052632,0,0,1.285713,-1.263158,-13.42854)"
       id="g3712"
       style="opacity:0.4"><rect
         width="5"
         height="7"
         x="38"
         y="40"
         id="rect2801"
         style="fill:url(#radialGradient2455-1);fill-opacity:1;stroke:none" /><rect
         width="5"
         height="7"
         x="-10"
         y="-47"
         transform="scale(-1)"
         id="rect3696"
         style="fill:url(#radialGradient2457-5);fill-opacity:1;stroke:none" /><rect
         width="28"
         height="7.0000005"
         x="10"
         y="40"
         id="rect3700"
         style="fill:url(#linearGradient2459-7);fill-opacity:1;stroke:none" /></g></g><rect
     width="103"
     height="103"
     rx="10"
     ry="10"
     x="12.5"
     y="15.5"
     id="rect5505-21-3"
     style="color:#000000;display:inline;overflow:visible;visibility:visible;fill:url(#linearGradient882);fill-rule:nonzero;stroke:none;stroke-width:1;marker:none;enable-background:accumulate" /><rect
     style="opacity:1;fill:url(#linearGradient14);stroke:#091825;stroke-width:1;stroke-linejoin:round;stroke-dasharray:none;stroke-opacity:0.498039"
     id="rect9"
     width="97"
     height="97"
     x="15.5"
     y="18.5"
     rx="7"
     ry="7" /><g
     id="g8"
     style="opacity:0.5;filter:url(#filter8)"
     transform="translate(0,-2)"><path
       style="opacity:1;fill:url(#linearGradient2);fill-opacity:1;stroke:none;stroke-width:2;stroke-linejoin:round"
       d="M 38,95 58,43 H 70 L 90,95 H 80 L 64,55 48,95 Z"
       id="path6" /><path
       style="opacity:1;fill:#64baff;fill-opacity:1;stroke:none;stroke-width:2;stroke-linejoin:round"
       d="m 64,61 -7,17 7,23 7,-23 z"
       id="path7" /><path
       style="opacity:1;fill:#ffffff;fill-opacity:1;stroke:none;stroke-width:2;stroke-linejoin:round"
       d="M 64,61 60.5,69.5 64,78 67.5,69.5 Z"
       id="path8" /></g><rect
     width="101"
     height="101"
     rx="9"
     ry="9"
     x="13.5"
     y="16.5"
     id="rect6741-7"
     style="opacity:0.3;fill:none;stroke:url(#linearGradient3159);stroke-width:1;stroke-linecap:round;stroke-linejoin:round;stroke-miterlimit:4;stroke-dasharray:none;stroke-dashoffset:0;stroke-opacity:1" /><rect
     width="103"
     height="103"
     rx="10"
     ry="10"
     x="12.5"
     y="15.5"
     id="rect5505-21-6"
     style="color:#000000;display:inline;overflow:visible;visibility:visible;opacity:0.5;fill:none;stroke:#7e8087;stroke-width:1;stroke-linecap:round;stroke-linejoin:round;stroke-miterlimit:4;stroke-dasharray:none;stroke-dashoffset:0;stroke-opacity:1;marker:none;enable-background:accumulate" /><g
     id="g9"
     transform="translate(0,-2)"><path
       style="opacity:1;fill:url(#linearGradient9);stroke:none;stroke-width:2;stroke-linejoin:round"
       d="M 38,95 58,43 H 70 L 90,95 H 80 L 64,55 48,95 Z"
       id="path1" /><path
       style="opacity:1;fill:#64baff;fill-opacity:1;stroke:none;stroke-width:2;stroke-linejoin:round"
       d="m 64,61 -7,17 7,23 7,-23 z"
       id="path4" /><path
       style="opacity:1;fill:#ffffff;fill-opacity:1;stroke:none;stroke-width:2;stroke-linejoin:round"
       d="M 64,61 60.5,69.5 64,78 67.5,69.5 Z"
       id="path5" /><path
       style="opacity:1;mix-blend-mode:normal;fill:#ffffff;fill-opacity:1;stroke:none;stroke-width:2;stroke-linejoin:round;filter:url(#filter9)"
       d="M 64,62 60.5,70.5 64,79 67.5,70.5 Z"
       id="path9" /></g><path
     id="path40"
     style="opacity:1;fill:none;fill-opacity:1;stroke:#0e141f;stroke-width:2;stroke-linejoin:round;stroke-dasharray:none;stroke-opacity:0.14902"
     d="M 110,114 H 18 m 94,-4 H 16 m 96,-4 H 16 m 96,-4 H 16 m 96,-4 H 16 m 96,-4 H 16 m 96,-4 H 16 m 96,-4 H 16 m 96,-4 H 16 m 96,-4 H 16 m 96,-4 H 16 m 96,-4 H 16 m 96,-4 H 16 m 96,-4 H 16 m 96,-4 H 16 m 96,-4 H 16 m 96,-4 H 16 m 96,-4 H 16 m 96,-4 H 16 m 96,-4 H 16 m 96,-4 H 16 m 96,-4 H 16 m 96,-4 H 16 m 95.5,-4 h -95" /><path
     id="path41"
     style="opacity:1;fill:none;fill-opacity:1;stroke:#0e141f;stroke-width:2;stroke-linejoin:round;stroke-dasharray:none;stroke-opacity:0.14902"
     d="M 111,113 H 17 m 95,-4 H 16 m 96,-4 H 16 m 96,-4 H 16 m 96,-4 H 16 m 96,-4 H 16 m 96,-4 H 16 m 96,-4 H 16 m 96,-4 H 16 m 96,-4 H 16 m 96,-4 H 16 m 96,-4 H 16 m 96,-4 H 16 m 96,-4 H 16 m 96,-4 H 16 m 96,-4 H 16 m 96,-4 H 16 m 96,-4 H 16 m 96,-4 H 16 m 96,-4 H 16 m 96,-4 H 16 m 96,-4 H 16 m 96,-4 H 16 m 95,-4 H 17" /><path
     id="rect41"
     style="opacity:0.25;fill:url(#linearGradient43);stroke-linejoin:round"
     d="m 22.5,19 h 83 c 3.601,0 6.5,2.899 6.5,6.5 V 76 L 16,98 V 25.5 C 16,21.899 18.899,19 22.5,19 Z" /></svg>
