<?xml version="1.0" encoding="UTF-8" standalone="no"?>
<svg
   width="128"
   height="128"
   viewBox="0 0 128 128"
   fill="none"
   version="1.1"
   id="svg4"
   xml:space="preserve"
   xmlns:xlink="http://www.w3.org/1999/xlink"
   xmlns="http://www.w3.org/2000/svg"
   xmlns:svg="http://www.w3.org/2000/svg"><defs
     id="defs4"><linearGradient
       id="linearGradient12"><stop
         style="stop-color:#ed5353;stop-opacity:1;"
         offset="0"
         id="stop10" /><stop
         style="stop-color:#ffa154;stop-opacity:1;"
         offset="0.5"
         id="stop11" /><stop
         style="stop-color:#ffe16b;stop-opacity:1;"
         offset="1"
         id="stop12" /></linearGradient><linearGradient
       id="linearGradient880"><stop
         style="stop-color:#3a465a;stop-opacity:1;"
         offset="0"
         id="stop876" /><stop
         style="stop-color:#182027;stop-opacity:1;"
         offset="1"
         id="stop878" /></linearGradient><linearGradient
       gradientTransform="matrix(2.7297298,0,0,2.7297298,-1.51351,1.486514)"
       gradientUnits="userSpaceOnUse"
       xlink:href="#linearGradient3924-776"
       id="linearGradient3159"
       y2="43"
       x2="23.99999"
       y1="4.999989"
       x1="23.99999" /><linearGradient
       id="linearGradient3924-776"><stop
         offset="0"
         style="stop-color:#ffffff;stop-opacity:1"
         id="stop3124" /><stop
         offset="0.06316455"
         style="stop-color:#ffffff;stop-opacity:0.23529412"
         id="stop3126" /><stop
         offset="0.95056331"
         style="stop-color:#ffffff;stop-opacity:0.15686275"
         id="stop3128" /><stop
         offset="1"
         style="stop-color:#ffffff;stop-opacity:0.39215687"
         id="stop3130" /></linearGradient><radialGradient
       gradientTransform="matrix(2.003784,0,0,1.4,27.98813,-17.4)"
       gradientUnits="userSpaceOnUse"
       xlink:href="#linearGradient3688-166-749-5"
       id="radialGradient2455-1"
       fy="43.5"
       fx="4.9929786"
       r="2.5"
       cy="43.5"
       cx="4.9929786" /><linearGradient
       id="linearGradient3688-166-749-5"><stop
         offset="0"
         style="stop-color:#181818;stop-opacity:1"
         id="stop2883-0" /><stop
         offset="1"
         style="stop-color:#181818;stop-opacity:0"
         id="stop2885-5" /></linearGradient><radialGradient
       gradientTransform="matrix(2.003784,0,0,1.4,-20.01187,-104.4)"
       gradientUnits="userSpaceOnUse"
       xlink:href="#linearGradient3688-166-749-5"
       id="radialGradient2457-5"
       fy="43.5"
       fx="4.9929786"
       r="2.5"
       cy="43.5"
       cx="4.9929786" /><linearGradient
       gradientUnits="userSpaceOnUse"
       xlink:href="#linearGradient3702-501-757-0"
       id="linearGradient2459-7"
       y2="39.999443"
       x2="25.058096"
       y1="47.027729"
       x1="25.058096" /><linearGradient
       id="linearGradient3702-501-757-0"><stop
         offset="0"
         style="stop-color:#181818;stop-opacity:0"
         id="stop2895-0" /><stop
         offset="0.5"
         style="stop-color:#181818;stop-opacity:1"
         id="stop2897-2" /><stop
         offset="1"
         style="stop-color:#181818;stop-opacity:0"
         id="stop2899-6" /></linearGradient><linearGradient
       id="linearGradient3811"><stop
         offset="0"
         style="stop-color:#000000;stop-opacity:1"
         id="stop3813" /><stop
         offset="1"
         style="stop-color:#000000;stop-opacity:0"
         id="stop3815" /></linearGradient><radialGradient
       gradientTransform="matrix(1.5563924,0,0,0.16978827,70.27036,102.13029)"
       gradientUnits="userSpaceOnUse"
       xlink:href="#linearGradient3811"
       id="radialGradient4377"
       fy="93.467628"
       fx="-4.0287771"
       r="35.338131"
       cy="93.467628"
       cx="-4.0287771" /><linearGradient
       xlink:href="#linearGradient880"
       id="linearGradient882"
       x1="62.871635"
       y1="15.90732"
       x2="62.871635"
       y2="118.42699"
       gradientUnits="userSpaceOnUse" /><linearGradient
       xlink:href="#linearGradient12"
       id="linearGradient134"
       gradientUnits="userSpaceOnUse"
       gradientTransform="matrix(2.666666,0,0,2.666666,-2.66664,3.00001)"
       x1="25"
       y1="15"
       x2="25"
       y2="35" /><filter
       style="color-interpolation-filters:sRGB"
       id="filter12"
       x="-0.26660571"
       y="-0.10977882"
       width="1.5332114"
       height="1.2195576"><feGaussianBlur
         stdDeviation="0.7776"
         id="feGaussianBlur12" /></filter><filter
       style="color-interpolation-filters:sRGB"
       id="filter13"
       x="-0.047999998"
       y="-0.048941175"
       width="1.096"
       height="1.0978823"><feGaussianBlur
         stdDeviation="1.04"
         id="feGaussianBlur13" /></filter><filter
       style="color-interpolation-filters:sRGB"
       id="filter14"
       x="-0.096"
       y="-0.032780488"
       width="1.192"
       height="1.065561"><feGaussianBlur
         stdDeviation="0.56"
         id="feGaussianBlur14" /></filter><linearGradient
       xlink:href="#linearGradient12"
       id="linearGradient376"
       gradientUnits="userSpaceOnUse"
       gradientTransform="matrix(2.666666,0,0,2.666666,-2.66664,3.00001)"
       x1="25"
       y1="15"
       x2="25"
       y2="35" /></defs><path
     d="m 119,118 a 55,6 0 0 1 -110,0 55,6 0 1 1 110,0 z"
     id="path3041"
     style="color:#000000;display:inline;overflow:visible;visibility:visible;opacity:0.2;fill:url(#radialGradient4377);fill-opacity:1;fill-rule:nonzero;stroke:none;stroke-width:1;marker:none;enable-background:accumulate" /><g
     transform="matrix(2.6999989,0,0,0.55555607,-0.8,94.888882)"
     id="g2036"
     style="display:inline"><g
       transform="matrix(1.052632,0,0,1.285713,-1.263158,-13.42854)"
       id="g3712"
       style="opacity:0.4"><rect
         width="5"
         height="7"
         x="38"
         y="40"
         id="rect2801"
         style="fill:url(#radialGradient2455-1);fill-opacity:1;stroke:none" /><rect
         width="5"
         height="7"
         x="-10"
         y="-47"
         transform="scale(-1)"
         id="rect3696"
         style="fill:url(#radialGradient2457-5);fill-opacity:1;stroke:none" /><rect
         width="28"
         height="7.0000005"
         x="10"
         y="40"
         id="rect3700"
         style="fill:url(#linearGradient2459-7);fill-opacity:1;stroke:none" /></g></g><rect
     width="103"
     height="103"
     rx="10"
     ry="10"
     x="12.5"
     y="15.5"
     id="rect5505-21-3"
     style="color:#000000;display:inline;overflow:visible;visibility:visible;fill:url(#linearGradient882);fill-opacity:1;fill-rule:nonzero;stroke:none;stroke-width:1;marker:none;enable-background:accumulate" /><path
     id="path116-7"
     style="fill:#64baff;stroke:none;stroke-width:2.58692;stroke-linejoin:round;stroke-opacity:0.497364"
     d="m 63.611328,60 -0.388672,1 h 1.554688 l -0.388672,-1 z m -0.777344,2 -0.388672,1 h 3.109376 l -0.388672,-1 z m -0.779296,2 -0.388672,1 h 4.667968 l -0.388672,-1 z m -0.777344,2 -0.388672,1 h 6.222656 L 66.722656,66 Z M 60.5,68 60.111328,69 h 7.777344 L 67.5,68 Z m -0.777344,2 -0.388672,1 h 9.332032 l -0.388672,-1 z m -0.777344,2 -0.390624,1 h 10.890624 l -0.390624,-1 z m -0.779296,2 -0.388672,1 H 70.222656 L 69.833984,74 Z M 57.388672,76 57,77 h 14 l -0.388672,-1 z m -0.09766,2 0.292968,1 h 12.832032 l 0.292968,-1 z m 0.583984,2 0.291016,1 H 69.833984 L 70.125,80 Z m 0.583984,2 0.291016,1 h 10.5 l 0.291016,-1 z m 0.582032,2 0.292968,1 h 9.332032 l 0.292968,-1 z m 0.583984,2 0.291016,1 H 68.08398 L 68.375,86 Z M 60.208984,88 60.5,89 h 7 l 0.291016,-1 z m 0.582032,2 0.292968,1 h 5.832032 l 0.292968,-1 z m 0.583984,2 0.291016,1 h 4.667968 L 66.625,92 Z m 0.583984,2 0.291016,1 h 3.5 l 0.291016,-1 z m 0.582032,2 0.292968,1 h 2.332032 l 0.292968,-1 z m 0.583984,2 0.291016,1 h 1.167968 L 64.875,98 Z m 0.583984,2 0.291016,1 0.291016,-1 z" /><path
     id="path115-2"
     style="fill:url(#linearGradient134);stroke:none;stroke-width:2.66666;stroke-linejoin:round;stroke-opacity:0.497364"
     d="m 57.615234,44 -0.384765,1 h 13.539062 l -0.384765,-1 z m -0.769531,2 -0.384765,1 h 15.078124 l -0.384765,-1 z m -0.769531,2 -0.384766,1 h 16.617188 l -0.384766,-1 z m -0.767578,2 -0.384766,1 h 18.152344 l -0.384766,-1 z m -0.769532,2 -0.384765,1 h 19.691406 l -0.384765,-1 z m -0.769531,2 -0.384765,1 H 64 74.615234 L 74.230469,54 Z M 53,56 52.615234,57 h 10.583985 l 0.40039,-1 z m 11.400391,0 0.40039,1 H 75.384766 L 75,56 Z m -12.169922,2 -0.384766,1 h 10.552735 l 0.40039,-1 z m 12.96875,0 0.40039,1 h 10.554688 l -0.384766,-1 z m -13.738281,2 -0.384766,1 H 61.599609 L 62,60 Z M 66,60 l 0.400391,1 h 10.523437 l -0.384766,-1 z m -15.308594,2 -0.382812,1 h 10.490234 l 0.400391,-1 z m 16.109375,0 0.398438,1 h 10.492187 l -0.382812,-1 z m -16.876953,2 -0.384766,1 h 10.458985 l 0.400391,-1 z M 67.599609,64 68,65 h 10.460938 l -0.384766,-1 z m -18.445312,2 -0.384766,1 h 10.429688 l 0.398437,-1 z m 19.246094,0 0.40039,1 H 79.230469 L 78.845703,66 Z M 48.384766,68 48,69 h 10.398438 l 0.40039,-1 z m 20.814453,0 0.40039,1 H 80 l -0.384766,-1 z m -21.583985,2 -0.384765,1 h 10.367187 l 0.400391,-1 z M 70,70 l 0.400391,1 h 10.36914 l -0.384765,-1 z m -23.154297,2 -0.384765,1 h 10.335937 l 0.400391,-1 z m 23.955078,0 0.398438,1 h 10.339843 l -0.384765,-1 z m -24.724609,2 -0.384766,1 h 10.304688 l 0.40039,-1 z M 71.599609,74 72,75 h 10.308594 l -0.384766,-1 z m -26.291015,2 -0.384766,1 h 10.273438 l 0.40039,-1 z m 27.091797,0 0.40039,1 h 10.275391 l -0.384766,-1 z m -27.861329,2 -0.384765,1 h 10.242187 l 0.400391,-1 z m 28.660157,0 0.40039,1 h 10.246094 l -0.384765,-1 z m -29.429688,2 -0.384765,1 h 10.210937 l 0.400391,-1 z M 74,80 l 0.400391,1 h 10.214843 l -0.384765,-1 z m -31,2 -0.384766,1 h 10.181641 l 0.398437,-1 z m 31.800781,0 0.398438,1 H 85.384766 L 85,82 Z m -32.570312,2 -0.384766,1 h 10.150391 l 0.40039,-1 z M 75.599609,84 76,85 h 10.154297 l -0.384766,-1 z m -34.138671,2 -0.384766,1 h 10.11914 l 0.400391,-1 z m 34.939453,0 0.40039,1 h 10.123047 l -0.384766,-1 z m -35.708985,2 -0.382812,1 h 10.085937 l 0.400391,-1 z m 36.507813,0 0.40039,1 h 10.091797 l -0.382812,-1 z m -37.275391,2 -0.384766,1 H 49.59375 l 0.400391,-1 z M 78,90 l 0.400391,1 h 10.060547 l -0.384766,-1 z m -38.845703,2 -0.384766,1 h 10.025391 l 0.40039,-1 z m 39.646484,0 0.398438,1 h 10.03125 L 88.845703,92 Z M 38.384766,94 38,95 h 9.994141 l 0.40039,-1 z M 79.599609,94 80,95 h 10 l -0.384766,-1 z" /><path
     id="use243"
     style="color:#000000;opacity:0.149591;fill:#000000;stroke-linecap:round;stroke-linejoin:round;-inkscape-stroke:none"
     d="M 14.5,23 A 0.5,0.5 0 0 0 14,23.5 0.5,0.5 0 0 0 14.5,24 h 99 A 0.5,0.5 0 0 0 114,23.5 0.5,0.5 0 0 0 113.5,23 Z m 0,2 A 0.5,0.5 0 0 0 14,25.5 0.5,0.5 0 0 0 14.5,26 h 99 A 0.5,0.5 0 0 0 114,25.5 0.5,0.5 0 0 0 113.5,25 Z m 0,2 A 0.5,0.5 0 0 0 14,27.5 0.5,0.5 0 0 0 14.5,28 h 99 A 0.5,0.5 0 0 0 114,27.5 0.5,0.5 0 0 0 113.5,27 Z m 0,2 A 0.5,0.5 0 0 0 14,29.5 0.5,0.5 0 0 0 14.5,30 h 99 A 0.5,0.5 0 0 0 114,29.5 0.5,0.5 0 0 0 113.5,29 Z m 0,2 A 0.5,0.5 0 0 0 14,31.5 0.5,0.5 0 0 0 14.5,32 h 99 A 0.5,0.5 0 0 0 114,31.5 0.5,0.5 0 0 0 113.5,31 Z m 0,2 A 0.5,0.5 0 0 0 14,33.5 0.5,0.5 0 0 0 14.5,34 h 99 A 0.5,0.5 0 0 0 114,33.5 0.5,0.5 0 0 0 113.5,33 Z m 0,2 A 0.5,0.5 0 0 0 14,35.5 0.5,0.5 0 0 0 14.5,36 h 99 A 0.5,0.5 0 0 0 114,35.5 0.5,0.5 0 0 0 113.5,35 Z m 0,2 A 0.5,0.5 0 0 0 14,37.5 0.5,0.5 0 0 0 14.5,38 h 99 A 0.5,0.5 0 0 0 114,37.5 0.5,0.5 0 0 0 113.5,37 Z m 0,2 A 0.5,0.5 0 0 0 14,39.5 0.5,0.5 0 0 0 14.5,40 h 99 A 0.5,0.5 0 0 0 114,39.5 0.5,0.5 0 0 0 113.5,39 Z m 0,2 A 0.5,0.5 0 0 0 14,41.5 0.5,0.5 0 0 0 14.5,42 h 99 A 0.5,0.5 0 0 0 114,41.5 0.5,0.5 0 0 0 113.5,41 Z m 0,2 A 0.5,0.5 0 0 0 14,43.5 0.5,0.5 0 0 0 14.5,44 h 99 A 0.5,0.5 0 0 0 114,43.5 0.5,0.5 0 0 0 113.5,43 Z m 0,2 A 0.5,0.5 0 0 0 14,45.5 0.5,0.5 0 0 0 14.5,46 h 99 A 0.5,0.5 0 0 0 114,45.5 0.5,0.5 0 0 0 113.5,45 Z m 0,2 A 0.5,0.5 0 0 0 14,47.5 0.5,0.5 0 0 0 14.5,48 h 99 A 0.5,0.5 0 0 0 114,47.5 0.5,0.5 0 0 0 113.5,47 Z m 0,2 A 0.5,0.5 0 0 0 14,49.5 0.5,0.5 0 0 0 14.5,50 h 99 A 0.5,0.5 0 0 0 114,49.5 0.5,0.5 0 0 0 113.5,49 Z m 0,2 A 0.5,0.5 0 0 0 14,51.5 0.5,0.5 0 0 0 14.5,52 h 99 A 0.5,0.5 0 0 0 114,51.5 0.5,0.5 0 0 0 113.5,51 Z m 0,2 A 0.5,0.5 0 0 0 14,53.5 0.5,0.5 0 0 0 14.5,54 h 99 A 0.5,0.5 0 0 0 114,53.5 0.5,0.5 0 0 0 113.5,53 Z m 0,2 A 0.5,0.5 0 0 0 14,55.5 0.5,0.5 0 0 0 14.5,56 h 99 A 0.5,0.5 0 0 0 114,55.5 0.5,0.5 0 0 0 113.5,55 Z m 0,2 A 0.5,0.5 0 0 0 14,57.5 0.5,0.5 0 0 0 14.5,58 h 99 A 0.5,0.5 0 0 0 114,57.5 0.5,0.5 0 0 0 113.5,57 Z m 0,2 A 0.5,0.5 0 0 0 14,59.5 0.5,0.5 0 0 0 14.5,60 h 99 A 0.5,0.5 0 0 0 114,59.5 0.5,0.5 0 0 0 113.5,59 Z m 0,2 A 0.5,0.5 0 0 0 14,61.5 0.5,0.5 0 0 0 14.5,62 h 99 A 0.5,0.5 0 0 0 114,61.5 0.5,0.5 0 0 0 113.5,61 Z m 0,2 A 0.5,0.5 0 0 0 14,63.5 0.5,0.5 0 0 0 14.5,64 h 99 A 0.5,0.5 0 0 0 114,63.5 0.5,0.5 0 0 0 113.5,63 Z m 0,2 A 0.5,0.5 0 0 0 14,65.5 0.5,0.5 0 0 0 14.5,66 h 99 A 0.5,0.5 0 0 0 114,65.5 0.5,0.5 0 0 0 113.5,65 Z m 0,2 A 0.5,0.5 0 0 0 14,67.5 0.5,0.5 0 0 0 14.5,68 h 99 A 0.5,0.5 0 0 0 114,67.5 0.5,0.5 0 0 0 113.5,67 Z m 0,2 A 0.5,0.5 0 0 0 14,69.5 0.5,0.5 0 0 0 14.5,70 h 99 A 0.5,0.5 0 0 0 114,69.5 0.5,0.5 0 0 0 113.5,69 Z m 0,2 A 0.5,0.5 0 0 0 14,71.5 0.5,0.5 0 0 0 14.5,72 h 99 A 0.5,0.5 0 0 0 114,71.5 0.5,0.5 0 0 0 113.5,71 Z m 0,2 A 0.5,0.5 0 0 0 14,73.5 0.5,0.5 0 0 0 14.5,74 h 99 A 0.5,0.5 0 0 0 114,73.5 0.5,0.5 0 0 0 113.5,73 Z m 0,2 A 0.5,0.5 0 0 0 14,75.5 0.5,0.5 0 0 0 14.5,76 h 99 A 0.5,0.5 0 0 0 114,75.5 0.5,0.5 0 0 0 113.5,75 Z m 0,2 A 0.5,0.5 0 0 0 14,77.5 0.5,0.5 0 0 0 14.5,78 h 99 A 0.5,0.5 0 0 0 114,77.5 0.5,0.5 0 0 0 113.5,77 Z m 0,2 A 0.5,0.5 0 0 0 14,79.5 0.5,0.5 0 0 0 14.5,80 h 99 A 0.5,0.5 0 0 0 114,79.5 0.5,0.5 0 0 0 113.5,79 Z m 0,2 A 0.5,0.5 0 0 0 14,81.5 0.5,0.5 0 0 0 14.5,82 h 99 A 0.5,0.5 0 0 0 114,81.5 0.5,0.5 0 0 0 113.5,81 Z m 0,2 A 0.5,0.5 0 0 0 14,83.5 0.5,0.5 0 0 0 14.5,84 h 99 A 0.5,0.5 0 0 0 114,83.5 0.5,0.5 0 0 0 113.5,83 Z m 0,2 A 0.5,0.5 0 0 0 14,85.5 0.5,0.5 0 0 0 14.5,86 h 99 A 0.5,0.5 0 0 0 114,85.5 0.5,0.5 0 0 0 113.5,85 Z m 0,2 A 0.5,0.5 0 0 0 14,87.5 0.5,0.5 0 0 0 14.5,88 h 99 A 0.5,0.5 0 0 0 114,87.5 0.5,0.5 0 0 0 113.5,87 Z m 0,2 A 0.5,0.5 0 0 0 14,89.5 0.5,0.5 0 0 0 14.5,90 h 99 A 0.5,0.5 0 0 0 114,89.5 0.5,0.5 0 0 0 113.5,89 Z m 0,2 A 0.5,0.5 0 0 0 14,91.5 0.5,0.5 0 0 0 14.5,92 h 99 A 0.5,0.5 0 0 0 114,91.5 0.5,0.5 0 0 0 113.5,91 Z m 0,2 A 0.5,0.5 0 0 0 14,93.5 0.5,0.5 0 0 0 14.5,94 h 99 A 0.5,0.5 0 0 0 114,93.5 0.5,0.5 0 0 0 113.5,93 Z m 0,2 A 0.5,0.5 0 0 0 14,95.5 0.5,0.5 0 0 0 14.5,96 h 99 A 0.5,0.5 0 0 0 114,95.5 0.5,0.5 0 0 0 113.5,95 Z m 0,2 A 0.5,0.5 0 0 0 14,97.5 0.5,0.5 0 0 0 14.5,98 h 99 A 0.5,0.5 0 0 0 114,97.5 0.5,0.5 0 0 0 113.5,97 Z m 0,2 a 0.5,0.5 0 0 0 -0.5,0.5 0.5,0.5 0 0 0 0.5,0.5 h 99 A 0.5,0.5 0 0 0 114,99.5 0.5,0.5 0 0 0 113.5,99 Z m 0,2 a 0.5,0.5 0 0 0 -0.5,0.5 0.5,0.5 0 0 0 0.5,0.5 h 99 a 0.5,0.5 0 0 0 0.5,-0.5 0.5,0.5 0 0 0 -0.5,-0.5 z m 0,2 a 0.5,0.5 0 0 0 -0.5,0.5 0.5,0.5 0 0 0 0.5,0.5 h 99 a 0.5,0.5 0 0 0 0.5,-0.5 0.5,0.5 0 0 0 -0.5,-0.5 z m 0,2 a 0.5,0.5 0 0 0 -0.5,0.5 0.5,0.5 0 0 0 0.5,0.5 h 99 a 0.5,0.5 0 0 0 0.5,-0.5 0.5,0.5 0 0 0 -0.5,-0.5 z m 0,2 a 0.5,0.5 0 0 0 -0.5,0.5 0.5,0.5 0 0 0 0.5,0.5 h 99 a 0.5,0.5 0 0 0 0.5,-0.5 0.5,0.5 0 0 0 -0.5,-0.5 z m 0,2 a 0.5,0.5 0 0 0 -0.5,0.5 0.5,0.5 0 0 0 0.5,0.5 h 99 a 0.5,0.5 0 0 0 0.5,-0.5 0.5,0.5 0 0 0 -0.5,-0.5 z" /><path
     id="path14"
     style="fill:#64baff;stroke:none;stroke-width:2.58692;stroke-linejoin:round;stroke-opacity:0.497364;filter:url(#filter14)"
     d="m 63.611328,60 -0.388672,1 h 1.554688 l -0.388672,-1 z m -0.777344,2 -0.388672,1 h 3.109376 l -0.388672,-1 z m -0.779296,2 -0.388672,1 h 4.667968 l -0.388672,-1 z m -0.777344,2 -0.388672,1 h 6.222656 L 66.722656,66 Z M 60.5,68 60.111328,69 h 7.777344 L 67.5,68 Z m -0.777344,2 -0.388672,1 h 9.332032 l -0.388672,-1 z m -0.777344,2 -0.390624,1 h 10.890624 l -0.390624,-1 z m -0.779296,2 -0.388672,1 H 70.222656 L 69.833984,74 Z M 57.388672,76 57,77 h 14 l -0.388672,-1 z m -0.09766,2 0.292968,1 h 12.832032 l 0.292968,-1 z m 0.583984,2 0.291016,1 H 69.833984 L 70.125,80 Z m 0.583984,2 0.291016,1 h 10.5 l 0.291016,-1 z m 0.582032,2 0.292968,1 h 9.332032 l 0.292968,-1 z m 0.583984,2 0.291016,1 H 68.08398 L 68.375,86 Z M 60.208984,88 60.5,89 h 7 l 0.291016,-1 z m 0.582032,2 0.292968,1 h 5.832032 l 0.292968,-1 z m 0.583984,2 0.291016,1 h 4.667968 L 66.625,92 Z m 0.583984,2 0.291016,1 h 3.5 l 0.291016,-1 z m 0.582032,2 0.292968,1 h 2.332032 l 0.292968,-1 z m 0.583984,2 0.291016,1 h 1.167968 L 64.875,98 Z m 0.583984,2 0.291016,1 0.291016,-1 z" /><path
     id="path13"
     style="fill:url(#linearGradient376);stroke:none;stroke-width:2.66666;stroke-linejoin:round;stroke-opacity:0.497364;filter:url(#filter13)"
     d="m 57.615234,44 -0.384765,1 h 13.539062 l -0.384765,-1 z m -0.769531,2 -0.384765,1 h 15.078124 l -0.384765,-1 z m -0.769531,2 -0.384766,1 h 16.617188 l -0.384766,-1 z m -0.767578,2 -0.384766,1 h 18.152344 l -0.384766,-1 z m -0.769532,2 -0.384765,1 h 19.691406 l -0.384765,-1 z m -0.769531,2 -0.384765,1 H 64 74.615234 L 74.230469,54 Z M 53,56 52.615234,57 h 10.583985 l 0.40039,-1 z m 11.400391,0 0.40039,1 H 75.384766 L 75,56 Z m -12.169922,2 -0.384766,1 h 10.552735 l 0.40039,-1 z m 12.96875,0 0.40039,1 h 10.554688 l -0.384766,-1 z m -13.738281,2 -0.384766,1 H 61.599609 L 62,60 Z M 66,60 l 0.400391,1 h 10.523437 l -0.384766,-1 z m -15.308594,2 -0.382812,1 h 10.490234 l 0.400391,-1 z m 16.109375,0 0.398438,1 h 10.492187 l -0.382812,-1 z m -16.876953,2 -0.384766,1 h 10.458985 l 0.400391,-1 z M 67.599609,64 68,65 h 10.460938 l -0.384766,-1 z m -18.445312,2 -0.384766,1 h 10.429688 l 0.398437,-1 z m 19.246094,0 0.40039,1 H 79.230469 L 78.845703,66 Z M 48.384766,68 48,69 h 10.398438 l 0.40039,-1 z m 20.814453,0 0.40039,1 H 80 l -0.384766,-1 z m -21.583985,2 -0.384765,1 h 10.367187 l 0.400391,-1 z M 70,70 l 0.400391,1 h 10.36914 l -0.384765,-1 z m -23.154297,2 -0.384765,1 h 10.335937 l 0.400391,-1 z m 23.955078,0 0.398438,1 h 10.339843 l -0.384765,-1 z m -24.724609,2 -0.384766,1 h 10.304688 l 0.40039,-1 z M 71.599609,74 72,75 h 10.308594 l -0.384766,-1 z m -26.291015,2 -0.384766,1 h 10.273438 l 0.40039,-1 z m 27.091797,0 0.40039,1 h 10.275391 l -0.384766,-1 z m -27.861329,2 -0.384765,1 h 10.242187 l 0.400391,-1 z m 28.660157,0 0.40039,1 h 10.246094 l -0.384765,-1 z m -29.429688,2 -0.384765,1 h 10.210937 l 0.400391,-1 z M 74,80 l 0.400391,1 h 10.214843 l -0.384765,-1 z m -31,2 -0.384766,1 h 10.181641 l 0.398437,-1 z m 31.800781,0 0.398438,1 H 85.384766 L 85,82 Z m -32.570312,2 -0.384766,1 h 10.150391 l 0.40039,-1 z M 75.599609,84 76,85 h 10.154297 l -0.384766,-1 z m -34.138671,2 -0.384766,1 h 10.11914 l 0.400391,-1 z m 34.939453,0 0.40039,1 h 10.123047 l -0.384766,-1 z m -35.708985,2 -0.382812,1 h 10.085937 l 0.400391,-1 z m 36.507813,0 0.40039,1 h 10.091797 l -0.382812,-1 z m -37.275391,2 -0.384766,1 H 49.59375 l 0.400391,-1 z M 78,90 l 0.400391,1 h 10.060547 l -0.384766,-1 z m -38.845703,2 -0.384766,1 h 10.025391 l 0.40039,-1 z m 39.646484,0 0.398438,1 h 10.03125 L 88.845703,92 Z M 38.384766,94 38,95 h 9.994141 l 0.40039,-1 z M 79.599609,94 80,95 h 10 l -0.384766,-1 z" /><rect
     width="101"
     height="101"
     rx="9"
     ry="9"
     x="13.5"
     y="16.5"
     id="rect6741-7"
     style="opacity:0.3;fill:none;stroke:url(#linearGradient3159);stroke-width:1;stroke-linecap:round;stroke-linejoin:round;stroke-miterlimit:4;stroke-dasharray:none;stroke-dashoffset:0;stroke-opacity:1" /><rect
     width="103"
     height="103"
     rx="10"
     ry="10"
     x="12.5"
     y="15.5"
     id="rect5505-21-6"
     style="color:#000000;display:inline;overflow:visible;visibility:visible;opacity:0.5;fill:none;stroke:#474747;stroke-width:1;stroke-linecap:round;stroke-linejoin:round;stroke-miterlimit:4;stroke-dasharray:none;stroke-dashoffset:0;stroke-opacity:1;marker:none;enable-background:accumulate" /><path
     id="path117-0"
     style="fill:#ffffff;fill-opacity:1;stroke:none;stroke-width:1.6;stroke-linejoin:round;stroke-opacity:0.497364"
     d="m 63.611328,60 -0.388672,1 h 1.554688 l -0.388672,-1 z m -0.777344,2 -0.388672,1 h 3.109376 l -0.388672,-1 z m -0.779296,2 -0.388672,1 h 4.667968 l -0.388672,-1 z m -0.777344,2 -0.388672,1 h 6.222656 L 66.722656,66 Z M 60.5,68 l 0.4375,1 h 6.125 L 67.5,68 Z m 0.875,2 0.4375,1 h 4.375 l 0.4375,-1 z m 0.875,2 0.4375,1 h 2.625 L 65.75,72 Z m 0.875,2 0.4375,1 h 0.875 l 0.4375,-1 z" /><path
     style="color:#000000;opacity:0.149591;fill:#000000;stroke-linecap:round;stroke-linejoin:round;-inkscape-stroke:none"
     d="m 15.5,21 c -0.276142,0 -0.5,0.223858 -0.5,0.5 0,0.276142 0.223858,0.5 0.5,0.5 h 97 c 0.27614,0 0.5,-0.223858 0.5,-0.5 0,-0.276142 -0.22386,-0.5 -0.5,-0.5 z"
     id="use251-2" /><path
     style="color:#000000;opacity:0.149591;fill:#000000;stroke-linecap:round;stroke-linejoin:round;-inkscape-stroke:none"
     d="m 15,111.00025 c -0.276142,0 -0.5,0.22386 -0.5,0.5 0,0.27614 0.223858,0.5 0.5,0.5 l 97.5,0 c 0.27614,0 0.5,-0.22386 0.5,-0.5 0,-0.27614 -0.22386,-0.5 -0.5,-0.5 z"
     id="use286-5" /><path
     id="path12"
     style="mix-blend-mode:normal;fill:#ffffff;fill-opacity:1;stroke:none;stroke-width:1.6;stroke-linejoin:round;stroke-opacity:0.497364;filter:url(#filter12)"
     d="m 64,60 -0.388672,1 h 0.777344 z m -0.777344,2 -0.388672,1 h 2.332032 l -0.388672,-1 z m -0.777344,2 -0.390624,1 h 3.890624 l -0.390624,-1 z m -0.779296,2 -0.388672,1 h 5.445312 L 66.333984,66 Z M 60.888672,68 60.5,69 h 7 l -0.388672,-1 z m 0.04883,2 0.4375,1 h 5.25 l 0.4375,-1 z m 0.875,2 0.4375,1 h 3.5 l 0.4375,-1 z m 0.875,2 0.4375,1 h 1.75 l 0.4375,-1 z m 0.875,2 0.4375,1 0.4375,-1 z" /><path
     style="color:#000000;opacity:0.149591;fill:#000000;stroke-linecap:round;stroke-linejoin:round;-inkscape-stroke:none"
     d="m 17.5,19 c -0.276142,0 -0.5,0.223858 -0.5,0.5 0,0.276142 0.223858,0.5 0.5,0.5 h 93 c 0.27614,0 0.5,-0.223858 0.5,-0.5 0,-0.276142 -0.22386,-0.5 -0.5,-0.5 z"
     id="path1" /><path
     style="color:#000000;opacity:0.149591;fill:#000000;stroke-linecap:round;stroke-linejoin:round;-inkscape-stroke:none"
     d="m 20.5,17.006986 c -0.276142,0 -0.5,0.223858 -0.5,0.5 0,0.276142 0.223858,0.5 0.5,0.5 h 87 c 0.27614,0 0.5,-0.223858 0.5,-0.5 0,-0.276142 -0.22386,-0.5 -0.5,-0.5 z"
     id="path2" /><path
     style="color:#000000;opacity:0.149591;fill:#000000;stroke-linecap:round;stroke-linejoin:round;-inkscape-stroke:none"
     d="m 16.5,113 c -0.276142,0 -0.5,0.22386 -0.5,0.5 0,0.27614 0.223858,0.5 0.5,0.5 h 95 c 0.27614,0 0.5,-0.22386 0.5,-0.5 0,-0.27614 -0.22386,-0.5 -0.5,-0.5 z"
     id="path3" /><path
     style="color:#000000;opacity:0.149591;fill:#000000;stroke-linecap:round;stroke-linejoin:round;-inkscape-stroke:none"
     d="m 18.5,115 c -0.276142,0 -0.5,0.22386 -0.5,0.5 0,0.27614 0.223858,0.5 0.5,0.5 h 91 c 0.27614,0 0.5,-0.22386 0.5,-0.5 0,-0.27614 -0.22386,-0.5 -0.5,-0.5 z"
     id="path4" /></svg>
