<?xml version="1.0" encoding="UTF-8" standalone="no"?>
<svg
   width="128"
   height="128"
   viewBox="0 0 128 128"
   fill="none"
   version="1.1"
   id="svg4"
   xml:space="preserve"
   xmlns:xlink="http://www.w3.org/1999/xlink"
   xmlns="http://www.w3.org/2000/svg"
   xmlns:svg="http://www.w3.org/2000/svg"><defs
     id="defs4"><linearGradient
       id="linearGradient29"><stop
         style="stop-color:#ffffff;stop-opacity:1;"
         offset="0"
         id="stop29" /><stop
         style="stop-color:#ffffff;stop-opacity:0;"
         offset="1"
         id="stop30" /></linearGradient><linearGradient
       id="linearGradient12"><stop
         id="stop8"
         style="stop-color:#ffffff;stop-opacity:1"
         offset="0" /><stop
         id="stop9"
         style="stop-color:#ffffff;stop-opacity:0.23529412"
         offset="0.08018868" /><stop
         id="stop10"
         style="stop-color:#ffffff;stop-opacity:0.15686275"
         offset="0.91981131" /><stop
         id="stop11"
         style="stop-color:#ffffff;stop-opacity:0.39215687"
         offset="1" /></linearGradient><linearGradient
       id="linearGradient4113"><stop
         id="stop4115"
         style="stop-color:#000000;stop-opacity:1"
         offset="0" /><stop
         id="stop4117"
         style="stop-color:#000000;stop-opacity:0"
         offset="1" /></linearGradient><linearGradient
       id="linearGradient2"><stop
         style="stop-color:#5865f2;stop-opacity:1;"
         offset="0"
         id="stop3-3" /><stop
         style="stop-color:#1f30f4;stop-opacity:1;"
         offset="1"
         id="stop4-5" /></linearGradient><radialGradient
       gradientTransform="matrix(1.5563924,0,0,0.16978827,70.27036,102.13029)"
       gradientUnits="userSpaceOnUse"
       xlink:href="#linearGradient4113"
       id="radialGradient4377"
       fy="93.467628"
       fx="-4.0287771"
       r="35.338131"
       cy="93.467628"
       cx="-4.0287771" /><style
       id="style1">.g{fill:#000;}.g,.h,.i{stroke-width:0px;}.h{fill:url(#e);}.i{fill:#fff;}</style><style
       id="style1-6">.cls-1{fill:#fff;}</style><radialGradient
       xlink:href="#linearGradient4113"
       id="radialGradient4"
       gradientUnits="userSpaceOnUse"
       gradientTransform="matrix(0.3823536,7.5555777e-8,-1.8372241e-8,0.1115198,-5.9254271,36.335849)"
       cx="99.189415"
       cy="185.29727"
       fx="99.189415"
       fy="185.29727"
       r="62.769119" /><radialGradient
       xlink:href="#linearGradient4113"
       id="radialGradient5"
       gradientUnits="userSpaceOnUse"
       gradientTransform="matrix(0.2549024,5.3967361e-8,-1.2248161e-8,0.07965545,6.7163816,44.240666)"
       cx="99.189415"
       cy="185.29727"
       fx="99.189415"
       fy="185.29727"
       r="62.769119" /><style
       id="style1-9">.g{fill:#000;}.g,.h,.i{stroke-width:0px;}.h{fill:url(#e);}.i{fill:#fff;}</style><style
       id="style1-6-12">.cls-1{fill:#fff;}</style><style
       id="style1-67">.cls-1{fill:#fff;}</style><style
       id="style1-56">.g{fill:#000;}.g,.h,.i{stroke-width:0px;}.h{fill:url(#e);}.i{fill:#fff;}</style><style
       id="style1-7">.g{fill:#000;}.g,.h,.i{stroke-width:0px;}.h{fill:url(#e);}.i{fill:#fff;}</style><style
       id="style1-5">.g{fill:#000;}.g,.h,.i{stroke-width:0px;}.h{fill:url(#e);}.i{fill:#fff;}</style><style
       id="style1-3">.g{fill:#000;}.g,.h,.i{stroke-width:0px;}.h{fill:url(#e);}.i{fill:#fff;}</style><style
       id="style1-6-1">.cls-1{fill:#fff;}</style><style
       id="style1-2">.g{fill:#000;}.g,.h,.i{stroke-width:0px;}.h{fill:url(#e);}.i{fill:#fff;}</style><style
       id="style1-6-8">.cls-1{fill:#fff;}</style><linearGradient
       xlink:href="#linearGradient12"
       id="linearGradient8"
       x1="64"
       y1="14"
       x2="64"
       y2="120"
       gradientUnits="userSpaceOnUse" /><linearGradient
       xlink:href="#linearGradient2"
       id="linearGradient26"
       x1="64"
       y1="13"
       x2="64"
       y2="120.99023"
       gradientUnits="userSpaceOnUse" /><linearGradient
       xlink:href="#linearGradient29"
       id="linearGradient30"
       x1="101.85315"
       y1="126.12645"
       x2="97.222069"
       y2="108.93288"
       gradientUnits="userSpaceOnUse" /></defs><path
     d="m 119,118 c 0,3.31371 -24.624339,6 -55,6 -30.375661,0 -55,-2.68629 -55,-6 0,-3.31371 24.624339,-6 55,-6 30.375661,0 55,2.68629 55,6 z"
     id="path3041"
     style="color:#000000;display:inline;overflow:visible;visibility:visible;opacity:0.2;fill:url(#radialGradient4377);fill-opacity:1;fill-rule:nonzero;stroke:none;stroke-width:1;marker:none;enable-background:accumulate" /><g
     id="g4"
     transform="matrix(2.2690665,0,0,2.3050739,-8.61012,-27.054394)"
     style="opacity:0.5;stroke-width:0.437254"><path
       d="m 55.999998,57.0017 a 24,6.9985714 0 1 1 -47.9999991,0 24,6.9985714 0 1 1 47.9999991,0 z"
       id="path3"
       style="opacity:0.2;fill:url(#radialGradient4);fill-opacity:1;stroke:none;stroke-width:0.437254" /><path
       style="opacity:0.4;fill:url(#radialGradient5);fill-opacity:1;stroke:none;stroke-width:0.437254"
       id="path4"
       d="m 47.999998,59.0017 a 16,4.9988822 0 1 1 -31.999999,0 16,4.9988822 0 1 1 31.999999,0 z" /></g><path
     d="M 64,12.5 C 33.900481,12.5 9.5,36.900481 9.5,67 c 0,30.099519 24.400481,54.5 54.5,54.5 4.342063,-0.057 8.661759,-0.63266 12.867187,-1.71484 4.099544,4.24421 9.732223,6.66364 15.632813,6.71484 4.942211,-0.004 9.73897,-1.67285 13.61719,-4.73633 -4.08641,-2.47271 -7.343708,-6.48259 -9.248049,-11.38476 5.997179,-4.56692 10.981749,-10.32828 14.638669,-16.919926 2.92982,-5.236016 4.97491,-10.919896 6.05274,-16.822265 C 118.15898,73.458713 118.47338,70.23375 118.5,67 118.5,36.900481 94.099519,12.5 64,12.5 Z"
     style="opacity:1;fill:url(#linearGradient26);stroke:#0a0f9f;stroke-width:1;stroke-linejoin:round;stroke-dasharray:none;stroke-opacity:0.5"
     id="path19" /><path
     class="cls-1"
     d="m 90.37923,44.023647 a 62.854987,62.854987 0 0 0 -15.67938,-4.823963 43.074944,43.074944 0 0 0 -2.00848,4.082733 58.389683,58.389683 0 0 0 -17.40094,0 43.260252,43.260252 0 0 0 -2.00849,-4.082733 63.297334,63.297334 0 0 0 -15.69132,4.835919 C 27.66772,58.716711 24.977773,73.033181 26.32273,87.146412 v 0 a 63.201691,63.201691 0 0 0 19.2301,9.653904 46.446339,46.446339 0 0 0 4.11861,-6.641169 40.89908,40.89908 0 0 1 -6.48575,-3.096421 c 0.54396,-0.394526 1.07598,-0.801006 1.59005,-1.195531 a 45.1731,45.1731 0 0 0 38.44825,0 c 0.52006,0.424413 1.05206,0.830894 1.59004,1.195531 a 41.054497,41.054497 0 0 1 -6.4977,3.1024 46.027903,46.027903 0 0 0 4.11861,6.63519 62.914763,62.914763 0 0 0 19.24206,-9.647925 v 0 C 103.25509,70.785584 98.98109,56.600622 90.37923,44.023647 Z M 51.37507,78.466864 c -3.74799,0 -6.84441,-3.401282 -6.84441,-7.585637 0,-4.184353 2.98883,-7.615526 6.83245,-7.615526 3.84363,0 6.91615,3.431173 6.85039,7.615526 -0.0658,4.184355 -3.01872,7.585637 -6.83843,7.585637 z m 25.24958,0 c -3.75395,0 -6.83842,-3.401282 -6.83842,-7.585637 0,-4.184353 2.98882,-7.615526 6.83842,-7.615526 3.84961,0 6.89822,3.431173 6.83246,7.615526 -0.0658,4.184355 -3.01273,7.585637 -6.83246,7.585637 z"
     id="path15"
     style="opacity:0.15;fill:#000000;fill-opacity:1;stroke:#000000;stroke-width:2;stroke-dasharray:none;stroke-opacity:1" /><path
     class="cls-1"
     d="m 90.37923,44.023647 a 62.854987,62.854987 0 0 0 -15.67938,-4.823963 43.074944,43.074944 0 0 0 -2.00848,4.082733 58.389683,58.389683 0 0 0 -17.40094,0 43.260252,43.260252 0 0 0 -2.00849,-4.082733 63.297334,63.297334 0 0 0 -15.69132,4.835919 C 27.66772,58.716711 24.977773,73.033181 26.32273,87.146412 v 0 a 63.201691,63.201691 0 0 0 19.2301,9.653904 46.446339,46.446339 0 0 0 4.11861,-6.641169 40.89908,40.89908 0 0 1 -6.48575,-3.096421 c 0.54396,-0.394526 1.07598,-0.801006 1.59005,-1.195531 a 45.1731,45.1731 0 0 0 38.44825,0 c 0.52006,0.424413 1.05206,0.830894 1.59004,1.195531 a 41.054497,41.054497 0 0 1 -6.4977,3.1024 46.027903,46.027903 0 0 0 4.11861,6.63519 62.914763,62.914763 0 0 0 19.24206,-9.647925 v 0 C 103.25509,70.785584 98.98109,56.600622 90.37923,44.023647 Z M 51.37507,78.466864 c -3.74799,0 -6.84441,-3.401282 -6.84441,-7.585637 0,-4.184353 2.98883,-7.615526 6.83245,-7.615526 3.84363,0 6.91615,3.431173 6.85039,7.615526 -0.0658,4.184355 -3.01872,7.585637 -6.83843,7.585637 z m 25.24958,0 c -3.75395,0 -6.83842,-3.401282 -6.83842,-7.585637 0,-4.184353 2.98882,-7.615526 6.83842,-7.615526 3.84961,0 6.89822,3.431173 6.83246,7.615526 -0.0658,4.184355 -3.01273,7.585637 -6.83246,7.585637 z"
     id="path14"
     style="opacity:0.15;fill:#000000;fill-opacity:1;stroke:none;stroke-width:0.597764" /><path
     class="cls-1"
     d="m 90.37923,43.023647 a 62.854987,62.854987 0 0 0 -15.67938,-4.823963 43.074944,43.074944 0 0 0 -2.00848,4.082733 58.389683,58.389683 0 0 0 -17.40094,0 43.260252,43.260252 0 0 0 -2.00849,-4.082733 63.297334,63.297334 0 0 0 -15.69132,4.835919 C 27.66772,57.716711 24.977773,72.033181 26.32273,86.146412 v 0 a 63.201691,63.201691 0 0 0 19.2301,9.653904 46.446339,46.446339 0 0 0 4.11861,-6.641169 40.89908,40.89908 0 0 1 -6.48575,-3.096421 c 0.54396,-0.394526 1.07598,-0.801006 1.59005,-1.195531 a 45.1731,45.1731 0 0 0 38.44825,0 c 0.52006,0.424413 1.05206,0.830894 1.59004,1.195531 a 41.054497,41.054497 0 0 1 -6.4977,3.1024 46.027903,46.027903 0 0 0 4.11861,6.63519 62.914763,62.914763 0 0 0 19.24206,-9.647925 v 0 C 103.25509,69.785584 98.98109,55.600622 90.37923,43.023647 Z M 51.37507,77.466864 c -3.74799,0 -6.84441,-3.401282 -6.84441,-7.585637 0,-4.184353 2.98883,-7.615526 6.83245,-7.615526 3.84363,0 6.91615,3.431173 6.85039,7.615526 -0.0658,4.184355 -3.01872,7.585637 -6.83843,7.585637 z m 25.24958,0 c -3.75395,0 -6.83842,-3.401282 -6.83842,-7.585637 0,-4.184353 2.98882,-7.615526 6.83842,-7.615526 3.84961,0 6.89822,3.431173 6.83246,7.615526 -0.0658,4.184355 -3.01273,7.585637 -6.83246,7.585637 z"
     id="path1"
     style="fill:#abacae;stroke-width:0.597764" /><path
     id="circle6"
     d="m 64,13.509766 c 29.553674,0 53.49023,23.93656 53.49023,53.490234 0,29.553674 -23.936556,53.49023 -53.49023,53.49023 C 34.446326,120.49023 10.509766,96.553674 10.509766,67 10.509766,37.446326 34.446326,13.509766 64,13.509766 Z"
     style="opacity:0.3;fill:none;fill-opacity:1;stroke:url(#linearGradient8);stroke-linejoin:round;stroke-opacity:1" /><path
     id="path12"
     style="fill:#d4d4d4;stroke-width:0.597764"
     class="cls-1"
     d="M 53.28125,38.199219 C 47.863001,39.123076 42.588163,40.74873 37.589844,43.035156 29.527487,54.963557 26.24163,66.652012 26.013672,78.185547 c -0.0025,0.553013 -0.01116,1.105879 0,1.658203 0.03578,1.77082 0.140474,3.53858 0.308594,5.302734 5.811183,4.293672 12.315588,7.559088 19.230468,9.654297 1.364173,-1.851903 2.588897,-3.802582 3.664063,-5.835937 -2.086336,-0.801042 -4.103506,-1.771739 -6.03125,-2.902344 l 1.589844,-2.195312 c 12.17672,5.726596 26.272498,5.726596 38.449218,0 l 1.589844,2.195312 c -1.931579,1.133247 -3.952645,2.106546 -6.042969,2.910156 1.074157,2.031449 2.298936,3.979605 3.664063,5.828125 6.920706,-2.086864 13.43002,-5.350771 19.242183,-9.648437 0.1871,-1.940421 0.28543,-3.848475 0.31055,-5.728516 -0.0233,-13.565912 -4.209035,-25.580187 -11.609374,-36.40039 -4.993365,-2.286159 -10.264815,-3.908042 -15.679687,-4.824219 -0.740766,1.324998 -1.410972,2.688228 -2.007813,4.083984 -5.767574,-0.869083 -11.632816,-0.869083 -17.40039,0 -0.597791,-1.395653 -1.268641,-2.758867 -2.009766,-4.083984 z m -1.917969,23.066406 c 3.84363,0 6.91537,3.430881 6.84961,7.615234 -0.0018,0.115932 -0.01332,0.229076 -0.01953,0.34375 0.01373,0.216725 0.02301,0.434915 0.01953,0.65625 -0.0658,4.184355 -3.018181,7.585938 -6.837891,7.585938 -3.74799,0 -6.84375,-3.401583 -6.84375,-7.585938 0,-0.173242 0.01139,-0.343201 0.02148,-0.513671 -0.0094,-0.161456 -0.02148,-0.322309 -0.02148,-0.486329 0,-4.184353 2.988411,-7.615234 6.832031,-7.615234 z m 25.261719,0 c 3.84961,0 6.897791,3.430881 6.832031,7.615234 -0.0018,0.115932 -0.01333,0.229076 -0.01953,0.34375 0.01361,0.216725 0.02301,0.434915 0.01953,0.65625 -0.0658,4.184355 -3.012301,7.585938 -6.832031,7.585938 -3.75395,0 -6.837891,-3.401583 -6.837891,-7.585938 0,-0.173242 0.01139,-0.343201 0.02148,-0.513671 -0.0093,-0.161456 -0.02148,-0.322309 -0.02148,-0.486329 0,-4.184353 2.988291,-7.615234 6.837891,-7.615234 z" /><path
     id="path13"
     style="stroke-width:0.597764"
     class="cls-1"
     d="M 53.28125,38.199219 C 47.863001,39.123076 42.588163,40.74873 37.589844,43.035156 29.527487,54.963557 26.24163,66.652012 26.013672,78.185547 c 0.0023,0.219346 -0.0044,0.438965 0,0.658203 0.03578,1.77082 0.140474,3.53858 0.308594,5.302734 5.811183,4.293672 12.315588,7.559088 19.230468,9.654297 1.176262,-1.605301 2.248133,-3.284544 3.208985,-5.027343 -1.924641,-0.761252 -3.78872,-1.667501 -5.576172,-2.710938 l 1.589844,-3.195312 c 12.17672,5.726596 26.272498,5.726596 38.449218,0 l 1.589844,3.195312 c -1.791959,1.045538 -3.660593,1.953739 -5.589844,2.716797 0.9607,1.741442 2.033261,3.418786 3.210938,5.021484 6.920706,-2.086864 13.43002,-5.350771 19.242183,-9.648437 0.177,-1.835658 0.26887,-3.6403 0.30079,-5.421875 C 101.81553,65.448942 97.6526,53.658471 90.378906,43.023438 85.385541,40.737279 80.114091,39.115396 74.699219,38.199219 c -0.740766,1.324998 -1.410972,2.688228 -2.007813,4.083984 -5.767574,-0.869083 -11.632816,-0.869083 -17.40039,0 -0.597791,-1.395653 -1.268641,-2.758867 -2.009766,-4.083984 z m -1.917969,22.066406 c 3.84363,0 6.91537,3.430881 6.84961,7.615234 -0.0048,0.305713 -0.02961,0.606013 -0.06445,0.902344 0.04249,0.359721 0.07033,0.724018 0.06445,1.097656 -0.0658,4.184355 -3.018181,7.585938 -6.837891,7.585938 -3.74799,0 -6.84375,-3.401583 -6.84375,-7.585938 0,-0.343683 0.02531,-0.679681 0.06445,-1.011718 -0.03856,-0.324116 -0.06445,-0.652745 -0.06445,-0.988282 0,-4.184353 2.988411,-7.615234 6.832031,-7.615234 z m 25.261719,0 c 3.84961,0 6.897791,3.430881 6.832031,7.615234 -0.0048,0.305713 -0.02967,0.606013 -0.06445,0.902344 0.04215,0.359721 0.07032,0.724018 0.06445,1.097656 -0.0658,4.184355 -3.012301,7.585938 -6.832031,7.585938 -3.75395,0 -6.837891,-3.401583 -6.837891,-7.585938 0,-0.343016 0.02546,-0.678347 0.06445,-1.009765 -0.03858,-0.324759 -0.06445,-0.654005 -0.06445,-0.990235 0,-4.184353 2.988291,-7.615234 6.837891,-7.615234 z" /><path
     style="opacity:0.3;fill:url(#linearGradient30);fill-opacity:1;stroke:none;stroke-width:1;stroke-linejoin:round;stroke-dasharray:none;stroke-opacity:0.5"
     d="m 105.25,121.79688 c -7.252767,1.47648 -14.386882,-0.32975 -18.258057,-5.95264 3.42334,-1.65015 6.547852,-3.52881 9.373536,-5.63599 1.722249,5.10213 4.683761,8.96501 8.884521,11.58863 z"
     id="path29" /></svg>
