<?xml version="1.0" encoding="UTF-8" standalone="no"?>
<svg
   width="128"
   height="128"
   viewBox="0 0 128 128"
   fill="none"
   version="1.1"
   id="svg4"
   xml:space="preserve"
   xmlns:xlink="http://www.w3.org/1999/xlink"
   xmlns="http://www.w3.org/2000/svg"
   xmlns:svg="http://www.w3.org/2000/svg"><defs
     id="defs4"><linearGradient
       id="linearGradient3688-166-749-654"><stop
         offset="0"
         style="stop-color:#181818;stop-opacity:1"
         id="stop3088" /><stop
         offset="1"
         style="stop-color:#181818;stop-opacity:0"
         id="stop3090" /></linearGradient><linearGradient
       id="linearGradient3702-501-757-795"><stop
         offset="0"
         style="stop-color:#181818;stop-opacity:0"
         id="stop3100" /><stop
         offset="0.5"
         style="stop-color:#181818;stop-opacity:1"
         id="stop3102" /><stop
         offset="1"
         style="stop-color:#181818;stop-opacity:0"
         id="stop3104" /></linearGradient><linearGradient
       id="linearGradient4113"><stop
         id="stop4115"
         style="stop-color:#000000;stop-opacity:1"
         offset="0" /><stop
         id="stop4117"
         style="stop-color:#000000;stop-opacity:0"
         offset="1" /></linearGradient><linearGradient
       id="linearGradient2"><stop
         style="stop-color:#5865f2;stop-opacity:1;"
         offset="0"
         id="stop3-3" /><stop
         style="stop-color:#1f30f4;stop-opacity:1;"
         offset="1"
         id="stop4-5" /></linearGradient><linearGradient
       gradientTransform="matrix(2.7297298,0,0,2.7297298,-1.51351,1.486514)"
       gradientUnits="userSpaceOnUse"
       xlink:href="#linearGradient3924-776"
       id="linearGradient3159"
       y2="42.499989"
       x2="23.999998"
       y1="5.49999"
       x1="23.999998" /><linearGradient
       id="linearGradient3924-776"><stop
         offset="0"
         style="stop-color:#ffffff;stop-opacity:1"
         id="stop3124" /><stop
         offset="0.08792076"
         style="stop-color:#ffffff;stop-opacity:0.23529412"
         id="stop3126" /><stop
         offset="0.91089112"
         style="stop-color:#ffffff;stop-opacity:0.15686275"
         id="stop3128" /><stop
         offset="1"
         style="stop-color:#ffffff;stop-opacity:0.39215687"
         id="stop3130" /></linearGradient><radialGradient
       gradientTransform="matrix(2.003784,0,0,1.4,27.98813,-17.4)"
       gradientUnits="userSpaceOnUse"
       xlink:href="#linearGradient3688-166-749-654"
       id="radialGradient2455-1"
       fy="43.5"
       fx="4.9929786"
       r="2.5"
       cy="43.5"
       cx="4.9929786" /><radialGradient
       gradientTransform="matrix(2.003784,0,0,1.4,-20.01187,-104.4)"
       gradientUnits="userSpaceOnUse"
       xlink:href="#linearGradient3688-166-749-654"
       id="radialGradient2457-5"
       fy="43.5"
       fx="4.9929786"
       r="2.5"
       cy="43.5"
       cx="4.9929786" /><linearGradient
       gradientUnits="userSpaceOnUse"
       xlink:href="#linearGradient3702-501-757-795"
       id="linearGradient2459-7"
       y2="39.999443"
       x2="25.058096"
       y1="47.027729"
       x1="25.058096" /><radialGradient
       gradientTransform="matrix(1.5563924,0,0,0.16978827,70.27036,102.13029)"
       gradientUnits="userSpaceOnUse"
       xlink:href="#linearGradient4113"
       id="radialGradient4377"
       fy="93.467628"
       fx="-4.0287771"
       r="35.338131"
       cy="93.467628"
       cx="-4.0287771" /><style
       id="style1">.g{fill:#000;}.g,.h,.i{stroke-width:0px;}.h{fill:url(#e);}.i{fill:#fff;}</style><linearGradient
       xlink:href="#linearGradient2"
       id="linearGradient4"
       x1="66"
       y1="16"
       x2="66"
       y2="118.5"
       gradientUnits="userSpaceOnUse" /><style
       id="style1-6">.cls-1{fill:#fff;}</style></defs><path
     d="m 119,118 a 55,6 0 0 1 -110,0 55,6 0 1 1 110,0 z"
     id="path3041"
     style="color:#000000;display:inline;overflow:visible;visibility:visible;opacity:0.2;fill:url(#radialGradient4377);fill-opacity:1;fill-rule:nonzero;stroke:none;stroke-width:1;marker:none;enable-background:accumulate" /><g
     transform="matrix(2.6999989,0,0,0.55555607,-0.8,94.888882)"
     id="g2036"
     style="display:inline"><g
       transform="matrix(1.052632,0,0,1.285713,-1.263158,-13.42854)"
       id="g3712"
       style="opacity:0.4"><rect
         width="5"
         height="7"
         x="38"
         y="40"
         id="rect2801"
         style="fill:url(#radialGradient2455-1);fill-opacity:1;stroke:none" /><rect
         width="5"
         height="7"
         x="-10"
         y="-47"
         transform="scale(-1)"
         id="rect3696"
         style="fill:url(#radialGradient2457-5);fill-opacity:1;stroke:none" /><rect
         width="28"
         height="7.0000005"
         x="10"
         y="40"
         id="rect3700"
         style="fill:url(#linearGradient2459-7);fill-opacity:1;stroke:none" /></g></g><rect
     width="103"
     height="103"
     rx="10"
     ry="10"
     x="12.5"
     y="15.5"
     id="rect5505-21-3"
     style="color:#000000;display:inline;overflow:visible;visibility:visible;fill:url(#linearGradient4);fill-rule:nonzero;stroke:none;stroke-width:1;marker:none;enable-background:accumulate" /><rect
     width="101"
     height="101"
     rx="9"
     ry="9"
     x="13.5"
     y="16.5"
     id="rect6741-7"
     style="opacity:0.3;fill:none;stroke:url(#linearGradient3159);stroke-width:1;stroke-linecap:round;stroke-linejoin:round;stroke-miterlimit:4;stroke-dasharray:none;stroke-dashoffset:0;stroke-opacity:1" /><rect
     width="103"
     height="103"
     rx="10"
     ry="10"
     x="12.5"
     y="15.5"
     id="rect5505-21-6"
     style="color:#000000;display:inline;overflow:visible;visibility:visible;opacity:0.5;fill:none;stroke:#0a0f9f;stroke-width:1;stroke-linecap:round;stroke-linejoin:round;stroke-miterlimit:4;stroke-dasharray:none;stroke-dashoffset:0;stroke-opacity:1;marker:none;enable-background:accumulate" /><path
     class="cls-1"
     d="m 90.37923,43.023647 a 62.854987,62.854987 0 0 0 -15.67938,-4.823963 43.074944,43.074944 0 0 0 -2.00848,4.082733 58.389683,58.389683 0 0 0 -17.40094,0 43.260252,43.260252 0 0 0 -2.00849,-4.082733 63.297334,63.297334 0 0 0 -15.69132,4.835919 C 27.66772,57.716711 24.977773,72.033181 26.32273,86.146412 v 0 a 63.201691,63.201691 0 0 0 19.2301,9.653904 46.446339,46.446339 0 0 0 4.11861,-6.641169 40.89908,40.89908 0 0 1 -6.48575,-3.096421 c 0.54396,-0.394526 1.07598,-0.801006 1.59005,-1.195531 a 45.1731,45.1731 0 0 0 38.44825,0 c 0.52006,0.424413 1.05206,0.830894 1.59004,1.195531 a 41.054497,41.054497 0 0 1 -6.4977,3.1024 46.027903,46.027903 0 0 0 4.11861,6.63519 62.914763,62.914763 0 0 0 19.24206,-9.647925 v 0 C 103.25509,69.785584 98.98109,55.600622 90.37923,43.023647 Z M 51.37507,77.466864 c -3.74799,0 -6.84441,-3.401282 -6.84441,-7.585637 0,-4.184353 2.98883,-7.615526 6.83245,-7.615526 3.84363,0 6.91615,3.431173 6.85039,7.615526 -0.0658,4.184355 -3.01872,7.585637 -6.83843,7.585637 z m 25.24958,0 c -3.75395,0 -6.83842,-3.401282 -6.83842,-7.585637 0,-4.184353 2.98882,-7.615526 6.83842,-7.615526 3.84961,0 6.89822,3.431173 6.83246,7.615526 -0.0658,4.184355 -3.01273,7.585637 -6.83246,7.585637 z"
     id="path1"
     style="stroke-width:0.597764" /></svg>
