<?xml version="1.0" encoding="UTF-8" standalone="no"?>
<svg
   id="svg4379"
   height="128"
   width="128"
   version="1.1"
   xml:space="preserve"
   xmlns:xlink="http://www.w3.org/1999/xlink"
   xmlns="http://www.w3.org/2000/svg"
   xmlns:svg="http://www.w3.org/2000/svg"
   xmlns:rdf="http://www.w3.org/1999/02/22-rdf-syntax-ns#"
   xmlns:cc="http://creativecommons.org/ns#"
   xmlns:dc="http://purl.org/dc/elements/1.1/"><defs
     id="defs4381"><linearGradient
       id="linearGradient880"><stop
         style="stop-color:#5865f2;stop-opacity:1;"
         offset="0"
         id="stop876" /><stop
         style="stop-color:#373de5;stop-opacity:1;"
         offset="1"
         id="stop878" /></linearGradient><linearGradient
       gradientTransform="matrix(2.7297298,0,0,2.7297298,-1.5135124,1.486514)"
       gradientUnits="userSpaceOnUse"
       xlink:href="#linearGradient3924-776"
       id="linearGradient3159"
       y2="43"
       x2="23.99999"
       y1="4.999989"
       x1="23.99999" /><linearGradient
       id="linearGradient3924-776"><stop
         offset="0"
         style="stop-color:#ffffff;stop-opacity:1"
         id="stop3124" /><stop
         offset="0.06316455"
         style="stop-color:#ffffff;stop-opacity:0.23529412"
         id="stop3126" /><stop
         offset="0.95056331"
         style="stop-color:#ffffff;stop-opacity:0.15686275"
         id="stop3128" /><stop
         offset="1"
         style="stop-color:#ffffff;stop-opacity:0.39215687"
         id="stop3130" /></linearGradient><linearGradient
       xlink:href="#linearGradient880"
       id="linearGradient3"
       x1="54.983505"
       y1="96.093124"
       x2="37.926704"
       y2="113.14993"
       gradientUnits="userSpaceOnUse"
       gradientTransform="matrix(4.179514,0,0,4.179514,-196.21675,-344.70045)" /></defs><metadata
     id="metadata4384"><rdf:RDF><cc:Work
         rdf:about=""><dc:format>image/svg+xml</dc:format><dc:type
           rdf:resource="http://purl.org/dc/dcmitype/StillImage" /></cc:Work></rdf:RDF></metadata><path
     id="path1"
     style="opacity:0.15047;fill:#485a6c;fill-opacity:1;stroke:#485a6c;stroke-width:2;stroke-linecap:round;stroke-linejoin:round;stroke-dasharray:none;stroke-opacity:1;paint-order:markers stroke fill"
     d="m 41,116 v 0.0234 A 3,1.9760779 0 0 0 38,118 a 3,1.9760779 0 0 0 3,1.97656 V 120 h 46 v -0.0234 A 3,1.9760779 0 0 0 90,118 3,1.9760779 0 0 0 87,116.02344 V 116 Z" /><path
     id="rect1"
     style="opacity:0.149967;fill:#273445;fill-opacity:1;stroke:none;stroke-width:1.25405;stroke-linecap:round;stroke-linejoin:round;paint-order:markers stroke fill"
     d="m 45.423077,116 v 0.0234 A 2.4230769,1.9760779 0 0 0 43,118 a 2.4230769,1.9760779 0 0 0 2.423077,1.97656 V 120 h 37.153846 v -0.0234 A 2.4230769,1.9760779 0 0 0 85,118 2.4230769,1.9760779 0 0 0 82.576923,116.02344 V 116 Z" /><path
     id="path5"
     style="opacity:0.149967;fill:#0e141f;fill-opacity:1;stroke:none;stroke-width:1.12764;stroke-linecap:round;stroke-linejoin:round;paint-order:markers stroke fill"
     d="m 49.306122,117 h 29.387756 v 0.0234 h 0.32653 c 0.787014,0 0.979592,0.47724 0.979592,0.97656 0,0.49932 -0.192578,0.97656 -0.979592,0.97656 h -0.32653 V 119 H 49.306122 v -0.0234 h -0.32653 C 48.192578,118.9766 48,118.49936 48,118.00004 c 0,-0.49932 0.192578,-0.97656 0.979592,-0.97656 h 0.32653 z" /><path
     id="rect2"
     style="fill:url(#linearGradient3);stroke:#0c1ba8;stroke-width:1;stroke-linecap:round;stroke-linejoin:round;stroke-opacity:0.5028038;stroke-dasharray:none"
     d="M 4.9497475 26.870058 C 1.0323794 22.95269 -5.2750205 22.95269 -9.1923882 26.870058 L -49.143921 66.821591 C -53.061289 70.738958 -53.061289 77.046358 -49.143921 80.963726 L -38.287346 91.820301 L -38.285965 126.79585 C -38.285965 127.90385 -37.394178 128.79563 -36.286179 128.79563 L -1.3106335 128.79701 L 9.5459415 139.65359 C 13.46331 143.57096 19.77071 143.57096 23.688077 139.65359 L 63.63961 99.702056 C 67.556978 95.784688 67.556978 89.477289 63.63961 85.559921 L 4.9497475 26.870058 z "
     transform="rotate(-45)" /><path
     id="rect6741-7"
     style="opacity:0.3;fill:none;stroke:url(#linearGradient3159);stroke-width:1;stroke-linecap:round;stroke-linejoin:round;stroke-miterlimit:4;stroke-dasharray:none;stroke-dashoffset:0;stroke-opacity:1"
     d="M 22.5 16.5 C 17.514005 16.5 13.5 20.514005 13.5 25.5 L 13.5 82 C 13.5 86.985995 17.514005 91 22.5 91 L 38.267578 91 L 63.291016 116.02344 C 63.683262 116.41568 64.312836 116.41568 64.705078 116.02344 L 89.730469 91 L 105.5 91 C 110.486 91 114.5 86.985995 114.5 82 L 114.5 25.5 C 114.5 20.514005 110.486 16.5 105.5 16.5 L 22.5 16.5 z " /><path
     fill="#ffffff"
     d="m 86.064888,33.694999 a 52.575,52.575 0 0 0 -13.115,-4.035 36.03,36.03 0 0 0 -1.68,3.415 48.84,48.84 0 0 0 -14.555,0 36.185,36.185 0 0 0 -1.68,-3.415 52.945,52.945 0 0 0 -13.125,4.045 c -8.3,12.28 -10.55,24.255 -9.425,36.060001 v 0 a 52.865,52.865 0 0 0 16.085,8.075001 38.85,38.85 0 0 0 3.445,-5.555001 34.21,34.21 0 0 1 -5.425,-2.59 c 0.455,-0.330001 0.9,-0.670001 1.33,-1.000001 a 37.785,37.785 0 0 0 32.16,0 c 0.435,0.355 0.88,0.695 1.33,1.000001 a 34.34,34.34 0 0 1 -5.435,2.595 38.5,38.5 0 0 0 3.445,5.55 52.625,52.625 0 0 0 16.095,-8.07 v 0 c 1.32,-13.690001 -2.255,-25.555001 -9.45,-36.075001 z m -32.625,28.81 c -3.135,0 -5.725,-2.845 -5.725,-6.345 0,-3.5 2.5,-6.37 5.715,-6.37 3.215,0 5.785,2.87 5.73,6.37 -0.055,3.5 -2.525,6.345 -5.72,6.345 z m 21.12,0 c -3.14,0 -5.72,-2.845 -5.72,-6.345 0,-3.5 2.5,-6.37 5.72,-6.37 3.22,0 5.77,2.87 5.715,6.37 -0.055,3.5 -2.52,6.345 -5.715,6.345 z"
     id="path1-3"
     style="stroke-width:0.5" /></svg>
