<?xml version="1.0" encoding="UTF-8" standalone="no"?>
<svg
   width="128"
   height="128"
   viewBox="0 0 128 128"
   fill="none"
   version="1.1"
   id="svg4"
   xml:space="preserve"
   xmlns:xlink="http://www.w3.org/1999/xlink"
   xmlns="http://www.w3.org/2000/svg"
   xmlns:svg="http://www.w3.org/2000/svg"><defs
     id="defs4"><linearGradient
       id="linearGradient2"><stop
         style="stop-color:#1a1a1a;stop-opacity:1;"
         offset="0"
         id="stop3" /><stop
         style="stop-color:#000000;stop-opacity:1;"
         offset="1"
         id="stop4" /></linearGradient><linearGradient
       gradientTransform="matrix(2.7297298,0,0,2.7297298,-1.51351,1.486514)"
       gradientUnits="userSpaceOnUse"
       xlink:href="#linearGradient3924-776"
       id="linearGradient3159"
       y2="42.499989"
       x2="23.999998"
       y1="5.49999"
       x1="23.999998" /><linearGradient
       id="linearGradient3924-776"><stop
         offset="0"
         style="stop-color:#ffffff;stop-opacity:1"
         id="stop3124" /><stop
         offset="0.08792076"
         style="stop-color:#ffffff;stop-opacity:0.23529412"
         id="stop3126" /><stop
         offset="0.91089112"
         style="stop-color:#ffffff;stop-opacity:0.15686275"
         id="stop3128" /><stop
         offset="1"
         style="stop-color:#ffffff;stop-opacity:0.39215687"
         id="stop3130" /></linearGradient><radialGradient
       gradientTransform="matrix(2.003784,0,0,1.4,27.98813,-17.4)"
       gradientUnits="userSpaceOnUse"
       xlink:href="#linearGradient3688-166-749-5"
       id="radialGradient2455-1"
       fy="43.5"
       fx="4.9929786"
       r="2.5"
       cy="43.5"
       cx="4.9929786" /><linearGradient
       id="linearGradient3688-166-749-5"><stop
         offset="0"
         style="stop-color:#181818;stop-opacity:1"
         id="stop2883-0" /><stop
         offset="1"
         style="stop-color:#181818;stop-opacity:0"
         id="stop2885-5" /></linearGradient><radialGradient
       gradientTransform="matrix(2.003784,0,0,1.4,-20.01187,-104.4)"
       gradientUnits="userSpaceOnUse"
       xlink:href="#linearGradient3688-166-749-5"
       id="radialGradient2457-5"
       fy="43.5"
       fx="4.9929786"
       r="2.5"
       cy="43.5"
       cx="4.9929786" /><linearGradient
       gradientUnits="userSpaceOnUse"
       xlink:href="#linearGradient3702-501-757-0"
       id="linearGradient2459-7"
       y2="39.999443"
       x2="25.058096"
       y1="47.027729"
       x1="25.058096" /><linearGradient
       id="linearGradient3702-501-757-0"><stop
         offset="0"
         style="stop-color:#181818;stop-opacity:0"
         id="stop2895-0" /><stop
         offset="0.5"
         style="stop-color:#181818;stop-opacity:1"
         id="stop2897-2" /><stop
         offset="1"
         style="stop-color:#181818;stop-opacity:0"
         id="stop2899-6" /></linearGradient><linearGradient
       id="linearGradient3811"><stop
         offset="0"
         style="stop-color:#000000;stop-opacity:1"
         id="stop3813" /><stop
         offset="1"
         style="stop-color:#000000;stop-opacity:0"
         id="stop3815" /></linearGradient><radialGradient
       gradientTransform="matrix(1.5563924,0,0,0.16978827,70.27036,102.13029)"
       gradientUnits="userSpaceOnUse"
       xlink:href="#linearGradient3811"
       id="radialGradient4377"
       fy="93.467628"
       fx="-4.0287771"
       r="35.338131"
       cy="93.467628"
       cx="-4.0287771" /><style
       id="style1">.g{fill:#000;}.g,.h,.i{stroke-width:0px;}.h{fill:url(#e);}.i{fill:#fff;}</style><linearGradient
       xlink:href="#linearGradient2"
       id="linearGradient4"
       x1="66"
       y1="16"
       x2="66"
       y2="118.5"
       gradientUnits="userSpaceOnUse" /><linearGradient
       id="linearGradient4-3"><stop
         style="stop-color:#fafafa;stop-opacity:1;"
         offset="0"
         id="stop9" /><stop
         style="stop-color:#d4d4d4;stop-opacity:1;"
         offset="1"
         id="stop10" /></linearGradient><style
       id="style1-5">.g{fill:#000;}.g,.h,.i{stroke-width:0px;}.h{fill:url(#e);}.i{fill:#fff;}</style><style
       id="style1-7">.g{fill:#000;}.g,.h,.i{stroke-width:0px;}.h{fill:url(#e);}.i{fill:#fff;}</style><linearGradient
       xlink:href="#linearGradient4-3"
       id="linearGradient6"
       x1="64"
       y1="16"
       x2="64"
       y2="118"
       gradientUnits="userSpaceOnUse" /><linearGradient
       xlink:href="#linearGradient3924-776"
       id="linearGradient28"
       gradientUnits="userSpaceOnUse"
       gradientTransform="matrix(2.7297298,0,0,2.7297298,-1.51351,1.486514)"
       x1="23.999998"
       y1="5.49999"
       x2="23.999998"
       y2="42.499989" /></defs><path
     d="m 119,118 a 55,6 0 0 1 -110,0 55,6 0 1 1 110,0 z"
     id="path3041"
     style="color:#000000;display:inline;overflow:visible;visibility:visible;opacity:0.2;fill:url(#radialGradient4377);fill-opacity:1;fill-rule:nonzero;stroke:none;stroke-width:1;marker:none;enable-background:accumulate" /><g
     transform="matrix(2.6999989,0,0,0.55555607,-0.8,94.888882)"
     id="g2036"
     style="display:inline"><g
       transform="matrix(1.052632,0,0,1.285713,-1.263158,-13.42854)"
       id="g3712"
       style="opacity:0.4"><rect
         width="5"
         height="7"
         x="38"
         y="40"
         id="rect2801"
         style="fill:url(#radialGradient2455-1);fill-opacity:1;stroke:none" /><rect
         width="5"
         height="7"
         x="-10"
         y="-47"
         transform="scale(-1)"
         id="rect3696"
         style="fill:url(#radialGradient2457-5);fill-opacity:1;stroke:none" /><rect
         width="28"
         height="7.0000005"
         x="10"
         y="40"
         id="rect3700"
         style="fill:url(#linearGradient2459-7);fill-opacity:1;stroke:none" /></g></g><path
     id="rect5505-21-3"
     style="display:inline;overflow:visible;fill:url(#linearGradient4);marker:none;enable-background:accumulate"
     d="m 89,15.5 h 16.5 c 5.54,0 10,4.46 10,10 v 83 c 0,5.54 -4.46,10 -10,10 H 38 v -1 c 0,-75.310614 51,-88 51,-101 z" /><path
     style="opacity:0.250112;fill:#ffffff;fill-opacity:1;stroke:#ffffff;stroke-width:2;stroke-dasharray:none;stroke-opacity:1"
     d="m 65.300781,83.5 c -0.666358,0 -1.31996,0.201509 -1.861328,0.589844 -4.352495,3.122151 -7.760671,7.402716 -9.861328,12.474609 l -0.01172,0.02539 C 53.09038,97.737257 53.933534,99 55.175781,99 h 31.947266 c 4.249989,0 7.8041,-3.36786 7.875,-7.617188 C 95.07053,87.041958 91.574322,83.5 87.25,83.5 Z"
     id="path26" /><path
     style="opacity:0.250112;fill:#ffffff;fill-opacity:1;stroke-width:0px"
     d="m 65.300781,83.5 c -0.666358,0 -1.31996,0.201509 -1.861328,0.589844 -4.352495,3.122151 -7.760671,7.402716 -9.861328,12.474609 l -0.01172,0.02539 C 53.09038,97.737257 53.933534,99 55.175781,99 h 31.947266 c 4.249989,0 7.8041,-3.36786 7.875,-7.617188 C 95.07053,87.041958 91.574322,83.5 87.25,83.5 Z"
     id="path25" /><path
     style="opacity:1;fill:url(#linearGradient6);stroke:none;stroke-width:2;paint-order:markers stroke fill"
     d="M 87.193359,36 89,17 V 16 H 22.5 A 9.5,9.5 135 0 0 13,25.5 v 83 a 9.5,9.5 45 0 0 9.5,9.5 H 38 v -1 L 40.748047,98 C 42.567539,83.165328 49.197739,71.531404 65,66 76.821164,61.338068 85.026406,52.312494 87.193359,36 Z"
     id="path3" /><path
     style="opacity:0.150389;fill:#000000;stroke:#000000;stroke-width:2;stroke-dasharray:none;stroke-opacity:1"
     d="m 40.75,37 c -4.32419,0 -7.820397,3.541953 -7.748047,7.882812 0.0709,4.249327 3.625011,7.617188 7.875,7.617188 h 21.822266 c 0.666358,0 1.31996,-0.201509 1.861328,-0.589844 4.352495,-3.122151 7.760671,-7.402716 9.861328,-12.474609 l 0.01172,-0.02539 C 74.90962,38.262743 74.066466,37 72.824219,37 Z"
     id="path17" /><path
     style="opacity:0.150389;fill:#000000;stroke-width:0px"
     d="m 40.75,37 c -4.32419,0 -7.820397,3.541953 -7.748047,7.882812 0.0709,4.249327 3.625011,7.617188 7.875,7.617188 h 21.822266 c 0.666358,0 1.31996,-0.201509 1.861328,-0.589844 4.352495,-3.122151 7.760671,-7.402716 9.861328,-12.474609 l 0.01172,-0.02539 C 74.90962,38.262743 74.066466,37 72.824219,37 Z"
     id="path9" /><path
     style="fill:#abacae;stroke-width:0px"
     d="m 65.300781,82.5 c -0.666358,0 -1.31996,0.201509 -1.861328,0.589844 -4.352495,3.122151 -7.760671,7.402716 -9.861328,12.474609 l -0.01172,0.02539 C 53.09038,96.737257 53.933534,98 55.175781,98 h 31.947266 c 4.249989,0 7.8041,-3.36786 7.875,-7.617188 C 95.07053,86.041958 91.574322,82.5 87.25,82.5 Z"
     id="path8" /><path
     style="fill:#000000;stroke-width:0px"
     d="m 40.75,36 c -4.32419,0 -7.820397,3.541953 -7.748047,7.882812 0.0709,4.249327 3.625011,7.617188 7.875,7.617188 h 21.822266 c 0.666358,0 1.31996,-0.201509 1.861328,-0.589844 4.352495,-3.122151 7.760671,-7.402716 9.861328,-12.474609 l 0.01172,-0.02539 C 74.90962,37.262743 74.066466,36 72.824219,36 Z"
     id="path3-6-6" /><path
     style="opacity:1;stroke:url(#linearGradient28);stroke-linecap:butt;stroke-linejoin:miter"
     d="M 38,117.5 H 22.5 c -4.986,0 -9,-4.014 -9,-9 v -83 c 0,-4.986 4.014,-9 9,-9 H 89"
     id="rect6741-7" /><path
     id="rect5505-21-6"
     style="display:inline;overflow:visible;opacity:0.5;stroke:#474747;stroke-linecap:butt;stroke-linejoin:miter;marker:none;enable-background:accumulate"
     d="m 89,15.5 h 16.5 c 5.54,0 10,4.46 10,10 v 83 c 0,5.54 -4.46,10 -10,10 H 38" /><path
     style="fill:#1a1a1a;stroke-width:0px"
     d="m 40.75,36 c -4.101144,0 -7.450999,3.186882 -7.724609,7.21875 0.248403,4.088049 3.715247,7.28125 7.851562,7.28125 h 21.822266 c 0.666357,0 1.31996,-0.201509 1.861328,-0.589844 4.352491,-3.122148 7.760673,-7.402721 9.861328,-12.474609 l 0.01172,-0.02539 c 0.02439,-0.05879 0.03124,-0.118523 0.04883,-0.177734 C 74.267427,36.539809 73.634953,36 72.824219,36 Z"
     id="path12" /><path
     style="fill:#333333;stroke-width:0px"
     d="m 40.75,36 c -3.946483,0 -7.193897,2.952355 -7.677734,6.767578 C 33.582795,46.589222 36.927355,49.5 40.876953,49.5 h 21.822266 c 0.666357,0 1.31996,-0.201509 1.861328,-0.589844 4.254538,-3.051884 7.598258,-7.215924 9.708984,-12.138672 C 73.962562,36.314851 73.443277,36 72.824219,36 Z"
     id="path13" /><path
     style="opacity:0.500403;fill:none;fill-opacity:1;stroke:#abacae;stroke-width:1;stroke-linecap:butt;stroke-linejoin:miter;stroke-dasharray:none;stroke-opacity:1;paint-order:markers stroke fill"
     d="M 89,15.5 H 22.5 a 10,10 135 0 0 -10,10 v 83 a 10,10 45 0 0 10,10 H 38"
     id="path5" /><path
     id="path18"
     style="fill:#d4d4d4;stroke-width:0px"
     d="m 65.300781,83.5 c -0.666357,0 -1.31996,0.201509 -1.861328,0.589844 -4.352491,3.122148 -7.760673,7.402721 -9.861328,12.474609 l -0.01172,0.02539 c -0.02301,0.05547 -0.03969,0.112111 -0.05664,0.167968 C 53.721287,97.455842 54.360663,98 55.175781,98 h 31.947266 c 4.136315,0 7.603159,-3.1932 7.851562,-7.28125 C 94.701112,86.686886 91.35127,83.5 87.25,83.5 Z" /><path
     id="path23"
     style="fill:#fafafa;stroke-width:0px"
     d="m 65.300781,84.5 c -0.666357,0 -1.31996,0.201509 -1.861328,0.589844 -4.2537,3.051283 -7.602091,7.211335 -9.712891,12.132812 3.14e-4,4.71e-4 -3.14e-4,0.0015 0,0.002 C 54.033128,97.683721 54.554658,98 55.175781,98 h 31.947266 c 3.949598,0 7.294158,-2.910777 7.804687,-6.732422 C 94.443997,87.452359 91.196603,84.5 87.25,84.5 Z" /><path
     d="m 37,118 v -1 L 39.748047,98 C 41.567539,83.165328 48.197739,71.531404 64,66 75.82116,61.338068 84.02641,52.312494 86.19336,36 L 88,17 v -1"
     style="opacity:0.150197;fill:none;stroke:#000000;stroke-width:2;stroke-opacity:1;paint-order:markers stroke fill"
     id="path1-7" /><path
     d="m 37.5,118 v -1 L 40.248047,98 C 42.067539,83.165328 48.697739,71.531404 64.5,66 76.32116,61.338068 84.52641,52.312494 86.69336,36 L 88.5,17 v -1"
     style="opacity:0.150197;fill:none;stroke:#000000;stroke-width:1;stroke-dasharray:none;stroke-opacity:1;paint-order:markers stroke fill"
     id="path27" /><path
     id="path24"
     style="opacity:0.3;stroke:url(#linearGradient3159);stroke-linecap:butt;stroke-linejoin:miter"
     d="m 89,16.5 h 16.5 c 4.986,0 9,4.014 9,9 v 83 c 0,4.986 -4.014,9 -9,9 H 38 m 0.5,0.5 v -1 L 41.248047,98 C 43.067539,83.165328 49.697739,71.531404 65.5,66 77.32116,61.338068 85.52641,52.312494 87.69336,36 L 89.5,17 v -1" /></svg>
