<?xml version="1.0" encoding="UTF-8" standalone="no"?>
<svg
   width="128"
   height="128"
   viewBox="0 0 128 128"
   fill="none"
   version="1.1"
   id="svg4"
   xml:space="preserve"
   xmlns:xlink="http://www.w3.org/1999/xlink"
   xmlns="http://www.w3.org/2000/svg"
   xmlns:svg="http://www.w3.org/2000/svg"><defs
     id="defs4"><linearGradient
       id="linearGradient2"><stop
         style="stop-color:#1a1a1a;stop-opacity:1;"
         offset="0"
         id="stop3" /><stop
         style="stop-color:#000000;stop-opacity:1;"
         offset="1"
         id="stop4" /></linearGradient><linearGradient
       gradientTransform="matrix(2.7297298,0,0,2.7297298,-1.51351,1.486514)"
       gradientUnits="userSpaceOnUse"
       xlink:href="#linearGradient3924-776"
       id="linearGradient3159"
       y2="42.499989"
       x2="23.999998"
       y1="5.49999"
       x1="23.999998" /><linearGradient
       id="linearGradient3924-776"><stop
         offset="0"
         style="stop-color:#ffffff;stop-opacity:1"
         id="stop3124" /><stop
         offset="0.08792076"
         style="stop-color:#ffffff;stop-opacity:0.23529412"
         id="stop3126" /><stop
         offset="0.91089112"
         style="stop-color:#ffffff;stop-opacity:0.15686275"
         id="stop3128" /><stop
         offset="1"
         style="stop-color:#ffffff;stop-opacity:0.39215687"
         id="stop3130" /></linearGradient><radialGradient
       gradientTransform="matrix(2.003784,0,0,1.4,27.98813,-17.4)"
       gradientUnits="userSpaceOnUse"
       xlink:href="#linearGradient3688-166-749-5"
       id="radialGradient2455-1"
       fy="43.5"
       fx="4.9929786"
       r="2.5"
       cy="43.5"
       cx="4.9929786" /><linearGradient
       id="linearGradient3688-166-749-5"><stop
         offset="0"
         style="stop-color:#181818;stop-opacity:1"
         id="stop2883-0" /><stop
         offset="1"
         style="stop-color:#181818;stop-opacity:0"
         id="stop2885-5" /></linearGradient><radialGradient
       gradientTransform="matrix(2.003784,0,0,1.4,-20.01187,-104.4)"
       gradientUnits="userSpaceOnUse"
       xlink:href="#linearGradient3688-166-749-5"
       id="radialGradient2457-5"
       fy="43.5"
       fx="4.9929786"
       r="2.5"
       cy="43.5"
       cx="4.9929786" /><linearGradient
       gradientUnits="userSpaceOnUse"
       xlink:href="#linearGradient3702-501-757-0"
       id="linearGradient2459-7"
       y2="39.999443"
       x2="25.058096"
       y1="47.027729"
       x1="25.058096" /><linearGradient
       id="linearGradient3702-501-757-0"><stop
         offset="0"
         style="stop-color:#181818;stop-opacity:0"
         id="stop2895-0" /><stop
         offset="0.5"
         style="stop-color:#181818;stop-opacity:1"
         id="stop2897-2" /><stop
         offset="1"
         style="stop-color:#181818;stop-opacity:0"
         id="stop2899-6" /></linearGradient><linearGradient
       id="linearGradient3811"><stop
         offset="0"
         style="stop-color:#000000;stop-opacity:1"
         id="stop3813" /><stop
         offset="1"
         style="stop-color:#000000;stop-opacity:0"
         id="stop3815" /></linearGradient><radialGradient
       gradientTransform="matrix(1.5563924,0,0,0.16978827,70.27036,102.13029)"
       gradientUnits="userSpaceOnUse"
       xlink:href="#linearGradient3811"
       id="radialGradient4377"
       fy="93.467628"
       fx="-4.0287771"
       r="35.338131"
       cy="93.467628"
       cx="-4.0287771" /><style
       id="style1">.g{fill:#000;}.g,.h,.i{stroke-width:0px;}.h{fill:url(#e);}.i{fill:#fff;}</style><linearGradient
       xlink:href="#linearGradient2"
       id="linearGradient4"
       x1="66"
       y1="16"
       x2="66"
       y2="118.5"
       gradientUnits="userSpaceOnUse" /></defs><path
     d="m 119,118 a 55,6 0 0 1 -110,0 55,6 0 1 1 110,0 z"
     id="path3041"
     style="color:#000000;display:inline;overflow:visible;visibility:visible;opacity:0.2;fill:url(#radialGradient4377);fill-opacity:1;fill-rule:nonzero;stroke:none;stroke-width:1;marker:none;enable-background:accumulate" /><g
     transform="matrix(2.6999989,0,0,0.55555607,-0.8,94.888882)"
     id="g2036"
     style="display:inline"><g
       transform="matrix(1.052632,0,0,1.285713,-1.263158,-13.42854)"
       id="g3712"
       style="opacity:0.4"><rect
         width="5"
         height="7"
         x="38"
         y="40"
         id="rect2801"
         style="fill:url(#radialGradient2455-1);fill-opacity:1;stroke:none" /><rect
         width="5"
         height="7"
         x="-10"
         y="-47"
         transform="scale(-1)"
         id="rect3696"
         style="fill:url(#radialGradient2457-5);fill-opacity:1;stroke:none" /><rect
         width="28"
         height="7.0000005"
         x="10"
         y="40"
         id="rect3700"
         style="fill:url(#linearGradient2459-7);fill-opacity:1;stroke:none" /></g></g><rect
     width="103"
     height="103"
     rx="10"
     ry="10"
     x="12.5"
     y="15.5"
     id="rect5505-21-3"
     style="color:#000000;display:inline;overflow:visible;visibility:visible;fill:url(#linearGradient4);fill-rule:nonzero;stroke:none;stroke-width:1;marker:none;enable-background:accumulate" /><path
     id="path3-6-6"
     style="fill:#abacae;stroke-width:0px"
     class="i"
     d="M 40.75 36 C 36.42581 36 32.929603 39.541953 33.001953 43.882812 C 33.072848 48.132139 36.626964 51.5 40.876953 51.5 L 62.699219 51.5 C 63.365577 51.5 64.019179 51.298491 64.560547 50.910156 C 68.913042 47.788005 72.321218 43.50744 74.421875 38.435547 L 74.433594 38.410156 C 74.90962 37.262743 74.066466 36 72.824219 36 L 40.75 36 z M 87.193359 36 C 84.173528 36.022518 81.316283 37.819376 80.087891 40.785156 C 76.489182 49.473481 69.723878 56.240739 61.035156 59.839844 C 54.713874 62.458192 49.091634 66.239154 44.324219 71.078125 C 39.722137 75.748985 36.110812 81.201984 33.591797 87.283203 C 31.95394 91.237178 33.830915 95.770347 37.785156 97.408203 C 38.755066 97.809897 39.759619 98 40.748047 98 C 43.788722 98 46.676078 96.199042 47.912109 93.214844 C 51.510817 84.526519 58.276122 77.759261 66.964844 74.160156 C 73.286126 71.541808 78.908366 67.760846 83.675781 62.921875 C 88.277864 58.251015 91.889187 52.798016 94.408203 46.716797 C 96.046059 42.762822 94.169084 38.229653 90.214844 36.591797 C 89.226383 36.182399 88.19997 35.992494 87.193359 36 z M 65.300781 82.5 C 64.634423 82.5 63.980821 82.701509 63.439453 83.089844 C 59.086958 86.211995 55.678782 90.49256 53.578125 95.564453 L 53.566406 95.589844 C 53.09038 96.737257 53.933534 98 55.175781 98 L 87.123047 98 C 91.373036 98 94.927147 94.63214 94.998047 90.382812 C 95.07053 86.041958 91.574322 82.5 87.25 82.5 L 65.300781 82.5 z " /><rect
     width="101"
     height="101"
     rx="9"
     ry="9"
     x="13.5"
     y="16.5"
     id="rect6741-7"
     style="opacity:0.3;fill:none;stroke:url(#linearGradient3159);stroke-width:1;stroke-linecap:round;stroke-linejoin:round;stroke-miterlimit:4;stroke-dasharray:none;stroke-dashoffset:0;stroke-opacity:1" /><rect
     width="103"
     height="103"
     rx="10"
     ry="10"
     x="12.5"
     y="15.5"
     id="rect5505-21-6"
     style="color:#000000;display:inline;overflow:visible;visibility:visible;opacity:0.5;fill:none;stroke:#474747;stroke-width:1;stroke-linecap:round;stroke-linejoin:round;stroke-miterlimit:4;stroke-dasharray:none;stroke-dashoffset:0;stroke-opacity:1;marker:none;enable-background:accumulate" /><path
     id="path12"
     style="fill:#d4d4d4;stroke-width:0px"
     class="i"
     d="M 40.75 36 C 36.648856 36 33.299001 39.186882 33.025391 43.21875 C 33.273794 47.306799 36.740638 50.5 40.876953 50.5 L 62.699219 50.5 C 63.365576 50.5 64.019179 50.298491 64.560547 49.910156 C 68.913038 46.788008 72.32122 42.507435 74.421875 37.435547 L 74.433594 37.410156 C 74.457984 37.351365 74.464834 37.291633 74.482422 37.232422 C 74.267427 36.539809 73.634953 36 72.824219 36 L 40.75 36 z M 87.193359 36 C 84.173531 36.022518 81.316281 37.819379 80.087891 40.785156 C 76.489185 49.473473 69.72387 56.240742 61.035156 59.839844 C 54.713881 62.458189 49.091629 66.239159 44.324219 71.078125 C 39.722141 75.74898 36.110809 81.20199 33.591797 87.283203 C 33.260688 88.082538 33.079131 88.904686 33.023438 89.722656 C 33.200932 92.58447 34.957481 95.236973 37.785156 96.408203 C 38.755065 96.809897 39.75962 97 40.748047 97 C 43.788719 97 46.67608 95.199039 47.912109 92.214844 C 51.510814 83.526527 58.27613 76.759258 66.964844 73.160156 C 73.286119 70.541811 78.908371 66.760841 83.675781 61.921875 C 88.27786 57.25102 91.88919 51.79801 94.408203 45.716797 C 94.739049 44.918097 94.920704 44.096625 94.976562 43.279297 C 94.799368 40.417154 93.042801 37.763144 90.214844 36.591797 C 89.226384 36.182399 88.199969 35.992494 87.193359 36 z M 65.300781 82.5 C 64.634424 82.5 63.980821 82.701509 63.439453 83.089844 C 59.086962 86.211992 55.67878 90.492565 53.578125 95.564453 L 53.566406 95.589844 C 53.542016 95.648635 53.535166 95.708367 53.517578 95.767578 C 53.732573 96.460191 54.365047 97 55.175781 97 L 87.123047 97 C 91.259362 97 94.726206 93.8068 94.974609 89.71875 C 94.701112 85.686886 91.35127 82.5 87.25 82.5 L 65.300781 82.5 z " /><path
     id="path13"
     style="fill:#fafafa;stroke-width:0px"
     class="i"
     d="M 40.75 36 C 36.803517 36 33.556103 38.952355 33.072266 42.767578 C 33.582795 46.589222 36.927355 49.5 40.876953 49.5 L 62.699219 49.5 C 63.365576 49.5 64.019179 49.298491 64.560547 48.910156 C 68.815085 45.858272 72.158805 41.694232 74.269531 36.771484 C 73.962562 36.314851 73.443277 36 72.824219 36 L 40.75 36 z M 87.193359 36 C 84.173531 36.022518 81.316281 37.819379 80.087891 40.785156 C 76.489185 49.473473 69.72387 56.240742 61.035156 59.839844 C 54.713881 62.458189 49.091629 66.239159 44.324219 71.078125 C 39.722141 75.74898 36.110809 81.20199 33.591797 87.283203 C 33.324522 87.928434 33.158591 88.58902 33.072266 89.25 C 33.420807 91.906365 35.131965 94.309245 37.785156 95.408203 C 38.755065 95.809897 39.75962 96 40.748047 96 C 43.788719 96 46.67608 94.199039 47.912109 91.214844 C 51.510814 82.526527 58.27613 75.759258 66.964844 72.160156 C 73.286119 69.541811 78.908371 65.760841 83.675781 60.921875 C 88.27786 56.25102 91.88919 50.79801 94.408203 44.716797 C 94.675578 44.071324 94.841443 43.411228 94.927734 42.75 C 94.578771 40.094194 92.867565 37.690561 90.214844 36.591797 C 89.226384 36.182399 88.199969 35.992494 87.193359 36 z M 65.300781 82.5 C 64.634424 82.5 63.980821 82.701509 63.439453 83.089844 C 59.185 86.141667 55.841203 90.305897 53.730469 95.228516 C 54.037436 95.685158 54.556716 96 55.175781 96 L 87.123047 96 C 91.072645 96 94.417205 93.089223 94.927734 89.267578 C 94.443997 85.452359 91.196603 82.5 87.25 82.5 L 65.300781 82.5 z " /></svg>
