<?xml version="1.0" encoding="UTF-8" standalone="no"?>
<svg
   id="svg4379"
   height="128"
   width="128"
   version="1.1"
   sodipodi:docname="obsidian.svg"
   inkscape:version="1.3.2 (1:1.3.2+202311252150+091e20ef0f)"
   xml:space="preserve"
   xmlns:inkscape="http://www.inkscape.org/namespaces/inkscape"
   xmlns:sodipodi="http://sodipodi.sourceforge.net/DTD/sodipodi-0.dtd"
   xmlns:xlink="http://www.w3.org/1999/xlink"
   xmlns="http://www.w3.org/2000/svg"
   xmlns:svg="http://www.w3.org/2000/svg"
   xmlns:rdf="http://www.w3.org/1999/02/22-rdf-syntax-ns#"
   xmlns:cc="http://creativecommons.org/ns#"
   xmlns:dc="http://purl.org/dc/elements/1.1/"><sodipodi:namedview
     id="namedview1"
     pagecolor="#ffffff"
     bordercolor="#000000"
     borderopacity="0.25"
     inkscape:showpageshadow="2"
     inkscape:pageopacity="0.0"
     inkscape:pagecheckerboard="0"
     inkscape:deskcolor="#d1d1d1"
     inkscape:zoom="1"
     inkscape:cx="74.5"
     inkscape:cy="96.5"
     inkscape:window-width="2560"
     inkscape:window-height="1379"
     inkscape:window-x="0"
     inkscape:window-y="30"
     inkscape:window-maximized="1"
     inkscape:current-layer="svg4379"
     showgrid="false"><inkscape:page
       x="0"
       y="0"
       width="128"
       height="128"
       id="page1"
       margin="0"
       bleed="0" /><inkscape:grid
       id="grid2"
       units="px"
       originx="0"
       originy="0"
       spacingx="1"
       spacingy="1"
       empcolor="#0099e5"
       empopacity="0.30196078"
       color="#0099e5"
       opacity="0.14901961"
       empspacing="4"
       dotted="false"
       gridanglex="30"
       gridanglez="30"
       visible="false" /></sodipodi:namedview><defs
     id="defs4381"><inkscape:path-effect
       effect="offset"
       id="path-effect5"
       is_visible="true"
       lpeversion="1.2"
       linejoin_type="miter"
       unit="px"
       offset="-1"
       miter_limit="4"
       attempt_force_join="false"
       update_on_knot_move="true" /><linearGradient
       id="linearGradient15"
       inkscape:collect="always"><stop
         style="stop-color:#ffffff;stop-opacity:0.20161197;"
         offset="0"
         id="stop15" /><stop
         style="stop-color:#ffffff;stop-opacity:0;"
         offset="1"
         id="stop16" /></linearGradient><linearGradient
       id="linearGradient13"
       inkscape:collect="always"><stop
         style="stop-color:#ffffff;stop-opacity:0.29774252;"
         offset="0"
         id="stop13" /><stop
         style="stop-color:#ffffff;stop-opacity:0;"
         offset="1"
         id="stop14" /></linearGradient><linearGradient
       id="linearGradient11"
       inkscape:collect="always"><stop
         style="stop-color:#ffffff;stop-opacity:0.40100217;"
         offset="0"
         id="stop11" /><stop
         style="stop-color:#ffffff;stop-opacity:0;"
         offset="1"
         id="stop12" /></linearGradient><linearGradient
       id="linearGradient4"
       inkscape:collect="always"><stop
         style="stop-color:#ffffff;stop-opacity:0.44960275;"
         offset="0"
         id="stop8" /><stop
         style="stop-color:#ffffff;stop-opacity:0;"
         offset="1"
         id="stop9" /></linearGradient><linearGradient
       id="linearGradient880"><stop
         style="stop-color:#9e79e9;stop-opacity:1;"
         offset="0"
         id="stop876" /><stop
         style="stop-color:#6c31e3;stop-opacity:1;"
         offset="1"
         id="stop878" /></linearGradient><linearGradient
       gradientTransform="matrix(2.7297298,0,0,2.7297298,-1.5135124,1.486514)"
       gradientUnits="userSpaceOnUse"
       xlink:href="#linearGradient3924-776"
       id="linearGradient3159"
       y2="43"
       x2="23.99999"
       y1="4.999989"
       x1="23.99999" /><linearGradient
       id="linearGradient3924-776"><stop
         offset="0"
         style="stop-color:#ffffff;stop-opacity:1"
         id="stop3124" /><stop
         offset="0.06316455"
         style="stop-color:#ffffff;stop-opacity:0.23529412"
         id="stop3126" /><stop
         offset="0.95056331"
         style="stop-color:#ffffff;stop-opacity:0.15686275"
         id="stop3128" /><stop
         offset="1"
         style="stop-color:#ffffff;stop-opacity:0.39215687"
         id="stop3130" /></linearGradient><radialGradient
       gradientTransform="matrix(2.003784,0,0,1.4,27.98813,-17.4)"
       gradientUnits="userSpaceOnUse"
       xlink:href="#linearGradient3688-166-749-5"
       id="radialGradient2455-1"
       fy="43.5"
       fx="4.9929786"
       r="2.5"
       cy="43.5"
       cx="4.9929786" /><linearGradient
       id="linearGradient3688-166-749-5"><stop
         offset="0"
         style="stop-color:#181818;stop-opacity:1"
         id="stop2883-0" /><stop
         offset="1"
         style="stop-color:#181818;stop-opacity:0"
         id="stop2885-5" /></linearGradient><radialGradient
       gradientTransform="matrix(2.003784,0,0,1.4,-20.01187,-104.4)"
       gradientUnits="userSpaceOnUse"
       xlink:href="#linearGradient3688-464-309-8"
       id="radialGradient2457-5"
       fy="43.5"
       fx="4.9929786"
       r="2.5"
       cy="43.5"
       cx="4.9929786" /><linearGradient
       id="linearGradient3688-464-309-8"><stop
         offset="0"
         style="stop-color:#181818;stop-opacity:1"
         id="stop2889-9" /><stop
         offset="1"
         style="stop-color:#181818;stop-opacity:0"
         id="stop2891-4" /></linearGradient><linearGradient
       gradientUnits="userSpaceOnUse"
       xlink:href="#linearGradient3702-501-757-0"
       id="linearGradient2459-7"
       y2="39.999443"
       x2="25.058096"
       y1="47.027729"
       x1="25.058096" /><linearGradient
       id="linearGradient3702-501-757-0"><stop
         offset="0"
         style="stop-color:#181818;stop-opacity:0"
         id="stop2895-0" /><stop
         offset="0.5"
         style="stop-color:#181818;stop-opacity:1"
         id="stop2897-2" /><stop
         offset="1"
         style="stop-color:#181818;stop-opacity:0"
         id="stop2899-6" /></linearGradient><linearGradient
       id="linearGradient3811"><stop
         offset="0"
         style="stop-color:#000000;stop-opacity:1"
         id="stop3813" /><stop
         offset="1"
         style="stop-color:#000000;stop-opacity:0"
         id="stop3815" /></linearGradient><radialGradient
       gradientTransform="matrix(1.5563924,0,0,0.16978827,70.270358,102.13029)"
       gradientUnits="userSpaceOnUse"
       xlink:href="#linearGradient3811"
       id="radialGradient4377"
       fy="93.467628"
       fx="-4.0287771"
       r="35.338131"
       cy="93.467628"
       cx="-4.0287771" /><linearGradient
       xlink:href="#linearGradient880"
       id="linearGradient882"
       x1="62.871635"
       y1="15.90732"
       x2="62.871635"
       y2="118.42699"
       gradientUnits="userSpaceOnUse" /><linearGradient
       id="linearGradient7"><stop
         style="stop-color:#9766ff;stop-opacity:1;"
         offset="0.07150608"
         id="stop4" /><stop
         style="stop-color:#8b5cff;stop-opacity:1;"
         offset="0.10302322"
         id="stop5" /><stop
         style="stop-color:#8a5cff;stop-opacity:1;"
         offset="0.93603706"
         id="stop6" /><stop
         style="stop-color:#b59bfd;stop-opacity:1;"
         offset="0.96933085"
         id="stop7" /></linearGradient><linearGradient
       id="linearGradient38"><stop
         style="stop-color:#7940fc;stop-opacity:1;"
         offset="0"
         id="stop37" /><stop
         style="stop-color:#8758ff;stop-opacity:1;"
         offset="1"
         id="stop38" /></linearGradient><linearGradient
       id="linearGradient25"><stop
         style="stop-color:#000000;stop-opacity:0;"
         offset="0"
         id="stop28" /><stop
         style="stop-color:#000000;stop-opacity:0;"
         offset="0.25"
         id="stop33" /><stop
         style="stop-color:#000000;stop-opacity:1;"
         offset="0.5"
         id="stop31" /><stop
         style="stop-color:#000000;stop-opacity:0;"
         offset="0.75"
         id="stop32" /><stop
         style="stop-color:#000000;stop-opacity:0;"
         offset="1"
         id="stop29" /></linearGradient><linearGradient
       id="linearGradient24"><stop
         style="stop-color:#000000;stop-opacity:1;"
         offset="0"
         id="stop21" /><stop
         style="stop-color:#000000;stop-opacity:0;"
         offset="0.5"
         id="stop22" /><stop
         style="stop-color:#000000;stop-opacity:0;"
         offset="1"
         id="stop23" /></linearGradient><linearGradient
       xlink:href="#linearGradient7"
       id="linearGradient6"
       x1="256.81836"
       y1="476.52661"
       x2="256.81836"
       y2="36.526611"
       gradientUnits="userSpaceOnUse"
       gradientTransform="matrix(0.23181812,0,0,0.23181815,4.4648323,8.5324623)" /><linearGradient
       xlink:href="#linearGradient38"
       id="linearGradient9"
       x1="256.81836"
       y1="472.52658"
       x2="256.81836"
       y2="40.526615"
       gradientUnits="userSpaceOnUse"
       gradientTransform="matrix(0.23148149,0,0,0.2314815,4.5513057,8.6188387)" /><radialGradient
       xlink:href="#linearGradient24"
       id="radialGradient14"
       cx="120.21644"
       cy="476.52661"
       fx="120.21644"
       fy="476.52661"
       r="33.846573"
       gradientTransform="matrix(-0.47272141,0,2.7531832e-4,-0.11818045,76.703266,176.31613)"
       gradientUnits="userSpaceOnUse" /><radialGradient
       xlink:href="#linearGradient24"
       id="radialGradient20"
       gradientUnits="userSpaceOnUse"
       gradientTransform="matrix(-0.47272141,0,2.7531832e-4,-0.11818045,-51.302299,176.31613)"
       cx="120.21644"
       cy="476.52661"
       fx="120.21644"
       fy="476.52661"
       r="33.846573" /><linearGradient
       xlink:href="#linearGradient25"
       id="linearGradient31"
       x1="64"
       y1="124"
       x2="64"
       y2="116"
       gradientUnits="userSpaceOnUse" /><linearGradient
       inkscape:collect="always"
       xlink:href="#linearGradient4"
       id="linearGradient10"
       x1="54.367168"
       y1="39.991291"
       x2="24.055969"
       y2="10.335649"
       gradientUnits="userSpaceOnUse" /><linearGradient
       inkscape:collect="always"
       xlink:href="#linearGradient11"
       id="linearGradient12"
       x1="84.353836"
       y1="104.01501"
       x2="98.307877"
       y2="67.359512"
       gradientUnits="userSpaceOnUse" /><radialGradient
       inkscape:collect="always"
       xlink:href="#linearGradient13"
       id="radialGradient15"
       cx="87.080582"
       cy="132.49316"
       fx="87.080582"
       fy="132.49316"
       r="26.421717"
       gradientTransform="matrix(0.93157976,-0.23018528,0.37123768,1.5024311,-38.922898,-56.935288)"
       gradientUnits="userSpaceOnUse" /><radialGradient
       inkscape:collect="always"
       xlink:href="#linearGradient15"
       id="radialGradient16"
       cx="40.862774"
       cy="96.822166"
       fx="40.862774"
       fy="96.822166"
       r="17.876102"
       gradientTransform="matrix(1.8765546,-0.89220294,0.65102217,1.3692834,-99.83177,10.788433)"
       gradientUnits="userSpaceOnUse" /><linearGradient
       inkscape:collect="always"
       xlink:href="#linearGradient11"
       id="linearGradient20"
       gradientUnits="userSpaceOnUse"
       x1="81.573807"
       y1="48.874077"
       x2="69.56163"
       y2="19.758986" /></defs><metadata
     id="metadata4384"><rdf:RDF><cc:Work
         rdf:about=""><dc:format>image/svg+xml</dc:format><dc:type
           rdf:resource="http://purl.org/dc/dcmitype/StillImage" /></cc:Work></rdf:RDF></metadata><path
     id="path1"
     style="opacity:0.15047013;fill:#485a6c;fill-opacity:1;stroke:#485a6c;stroke-width:2;stroke-linecap:round;stroke-linejoin:round;paint-order:markers stroke fill;stroke-dasharray:none;stroke-opacity:1"
     d="M 18 116 L 18 116.02344 A 6 1.9760779 0 0 0 12 118 A 6 1.9760779 0 0 0 18 119.97656 L 18 120 L 110 120 L 110 119.97656 A 6 1.9760779 0 0 0 116 118 A 6 1.9760779 0 0 0 110 116.02344 L 110 116 L 18 116 z " /><path
     id="rect1"
     style="opacity:0.14996699;fill:#273445;fill-opacity:1;stroke:none;stroke-width:1.97337;stroke-linecap:round;stroke-linejoin:round;paint-order:markers stroke fill"
     d="M 18 116 L 18 116.02344 A 6 1.9760779 0 0 0 12 118 A 6 1.9760779 0 0 0 18 119.97656 L 18 120 L 110 120 L 110 119.97656 A 6 1.9760779 0 0 0 116 118 A 6 1.9760779 0 0 0 110 116.02344 L 110 116 L 18 116 z " /><path
     id="path5"
     style="opacity:0.14996699;fill:#0e141f;fill-opacity:1;stroke:none;stroke-width:1.97337;stroke-linecap:round;stroke-linejoin:round;paint-order:markers stroke fill"
     d="m 19,117 h 90 v 0.0234 h 1 c 2.41023,0 4.26005,0.51912 4.87305,0.97656 -0.613,0.45744 -2.46282,0.97656 -4.87305,0.97656 h -1 V 119 H 19 v -0.0234 h -1 c -2.410229,0 -4.260051,-0.51912 -4.873047,-0.97656 0.612996,-0.45744 2.462818,-0.97656 4.873047,-0.97656 h 1 z" /><path
     d="m 119,118 c -0.005,3.31331 -24.628002,5.99897 -54.999999,5.99897 -30.371997,0 -54.9948191,-2.68566 -54.9999994,-5.99897 -0.00518,-3.31411 24.6206754,-6.00102 54.9999994,-6.00102 30.379324,0 55.005179,2.68691 54.999999,6.00102 z"
     id="path3041"
     style="color:#000000;display:inline;overflow:visible;visibility:visible;opacity:0.2;fill:url(#radialGradient4377);fill-opacity:1;fill-rule:nonzero;stroke:none;stroke-width:1;marker:none;enable-background:accumulate"
     sodipodi:nodetypes="sssss" /><rect
     width="103"
     height="103"
     rx="10"
     ry="10"
     x="12.5"
     y="15.5"
     id="rect5505-21-3"
     style="color:#000000;display:inline;overflow:visible;visibility:visible;fill:url(#linearGradient882);fill-opacity:1;fill-rule:nonzero;stroke:none;stroke-width:1;marker:none;enable-background:accumulate" /><path
     id="path2"
     style="fill:#2e0f6d;fill-opacity:1;stroke:#2e0f6d;stroke-width:2;stroke-linecap:round;stroke-linejoin:round;stroke-dasharray:none;stroke-opacity:1;opacity:0.15"
     d="m 65.063449,31.985441 c -1.133623,0.01529 -2.269567,0.424822 -3.184118,1.24747 L 46.855005,46.74967 c -0.838089,0.753718 -1.387594,1.774689 -1.555612,2.88923 -0.491615,3.259268 -1.236471,8.606283 -1.686488,11.305106 3.533815,2.24245 8.273731,5.979974 10.798165,12.138411 0.343711,0.838488 0.643233,1.719958 0.892944,2.645699 2.540366,-0.575809 5.088751,-0.99029 7.605766,-1.071865 0.562006,-0.01821 1.121442,-0.01359 1.679861,0.0033 -4.944205,-13.301805 -2.766534,-20.509467 -0.09609,-25.950057 1.386678,-2.825126 2.823968,-5.168208 3.479004,-7.701853 0.615427,-2.380427 0.602928,-4.976511 -0.800171,-8.566632 -0.664475,-0.306741 -1.384962,-0.46535 -2.108939,-0.455584 z m 5.254953,3.590001 c 0.369028,2.225122 0.234552,4.187387 -0.228621,5.978915 -0.763334,2.952541 -2.304545,5.412684 -3.633074,8.119332 -2.620858,5.339561 -4.723267,11.671754 0.546702,25.179706 1.45322,0.196461 2.887425,0.536512 4.29574,1.06358 4.990843,1.867849 9.502737,6.04188 13.183768,13.65592 0.04228,-0.06505 0.07773,-0.13436 0.120938,-0.198801 3.093593,-4.613055 5.279008,-8.208198 6.384799,-10.080827 0.508068,-0.859595 0.415822,-1.936414 -0.185546,-2.733505 C 89.236083,74.483398 86.237575,70.263607 84.603855,66.356343 82.924572,62.339371 82.673323,56.102721 82.658925,53.064891 82.65368,51.91026 82.287797,50.781669 81.573807,49.874146 Z M 43.039696,63.177195 c -0.924287,2.253667 -7.882427,17.552404 -7.882427,17.552404 -0.815495,1.817597 -0.438618,3.948471 0.949271,5.377544 l 12.700021,13.081058 c 0.13735,0.14144 0.293659,0.25836 0.445643,0.38104 5.738972,-11.714994 5.506228,-19.870733 3.134418,-25.656833 -2.141141,-5.223379 -6.098956,-8.584955 -9.346926,-10.735213 z M 63.42169,76.838082 c -2.471902,0.03787 -5.033844,0.434518 -7.650494,1.027136 1.003234,5.864814 0.02361,13.318488 -4.554184,22.664882 0.240181,0.0547 0.483782,0.10161 0.732249,0.11928 0,0 6.736527,0.5113 7.370518,0.55995 4.809137,0.36976 10.153047,2.35446 14.7692,3.62645 3.239744,0.89859 6.499593,-1.7045 6.948067,-5.036269 0.330951,-2.45899 0.963319,-5.259697 2.13876,-7.841014 C 79.535692,83.741565 75.220215,79.7202 70.533768,77.966276 68.275475,77.121096 65.893595,76.800208 63.42169,76.838082 Z" /><rect
     width="101"
     height="101"
     rx="9"
     ry="9"
     x="13.5"
     y="16.5"
     id="rect6741-7"
     style="opacity:0.3;fill:none;stroke:url(#linearGradient3159);stroke-width:1;stroke-linecap:round;stroke-linejoin:round;stroke-miterlimit:4;stroke-dasharray:none;stroke-dashoffset:0;stroke-opacity:1" /><rect
     width="103"
     height="103"
     rx="10"
     ry="10"
     x="12.5"
     y="15.5"
     id="rect5505-21-6"
     style="color:#000000;display:inline;overflow:visible;visibility:visible;opacity:0.5;fill:none;stroke:#7239b3;stroke-width:1;stroke-linecap:round;stroke-linejoin:round;stroke-miterlimit:4;stroke-dasharray:none;stroke-dashoffset:0;stroke-opacity:1;marker:none;enable-background:accumulate" /><path
     id="path3"
     style="fill:#2e0f6d;fill-opacity:1;stroke:none;stroke-width:2;stroke-dasharray:none;stroke-opacity:1;opacity:0.15"
     d="m 65.063449,31.985441 c -1.133623,0.01529 -2.269567,0.424822 -3.184118,1.24747 L 46.855005,46.74967 c -0.838089,0.753718 -1.387594,1.774689 -1.555612,2.88923 -0.491615,3.259268 -1.236471,8.606283 -1.686488,11.305106 3.533815,2.24245 8.273731,5.979974 10.798165,12.138411 0.343711,0.838488 0.643233,1.719958 0.892944,2.645699 2.540366,-0.575809 5.088751,-0.99029 7.605766,-1.071865 0.562006,-0.01821 1.121442,-0.01359 1.679861,0.0033 -4.944205,-13.301805 -2.766534,-20.509467 -0.09609,-25.950057 1.386678,-2.825126 2.823968,-5.168208 3.479004,-7.701853 0.615427,-2.380427 0.602928,-4.976511 -0.800171,-8.566632 -0.664475,-0.306741 -1.384962,-0.46535 -2.108939,-0.455584 z m 5.254953,3.590001 c 0.369028,2.225122 0.234552,4.187387 -0.228621,5.978915 -0.763334,2.952541 -2.304545,5.412684 -3.633074,8.119332 -2.620858,5.339561 -4.723267,11.671754 0.546702,25.179706 1.45322,0.196461 2.887425,0.536512 4.29574,1.06358 4.990843,1.867849 9.502737,6.04188 13.183768,13.65592 0.04228,-0.06505 0.07773,-0.13436 0.120938,-0.198801 3.093593,-4.613055 5.279008,-8.208198 6.384799,-10.080827 0.508068,-0.859595 0.415822,-1.936414 -0.185546,-2.733505 C 89.236083,74.483398 86.237575,70.263607 84.603855,66.356343 82.924572,62.339371 82.673323,56.102721 82.658925,53.064891 82.65368,51.91026 82.287797,50.781669 81.573807,49.874146 Z M 43.039696,63.177195 c -0.924287,2.253667 -7.882427,17.552404 -7.882427,17.552404 -0.815495,1.817597 -0.438618,3.948471 0.949271,5.377544 l 12.700021,13.081058 c 0.13735,0.14144 0.293659,0.25836 0.445643,0.38104 5.738972,-11.714994 5.506228,-19.870733 3.134418,-25.656833 -2.141141,-5.223379 -6.098956,-8.584955 -9.346926,-10.735213 z M 63.42169,76.838082 c -2.471902,0.03787 -5.033844,0.434518 -7.650494,1.027136 1.003234,5.864814 0.02361,13.318488 -4.554184,22.664882 0.240181,0.0547 0.483782,0.10161 0.732249,0.11928 0,0 6.736527,0.5113 7.370518,0.55995 4.809137,0.36976 10.153047,2.35446 14.7692,3.62645 3.239744,0.89859 6.499593,-1.7045 6.948067,-5.036269 0.330951,-2.45899 0.963319,-5.259697 2.13876,-7.841014 C 79.535692,83.741565 75.220215,79.7202 70.533768,77.966276 68.275475,77.121096 65.893595,76.800208 63.42169,76.838082 Z" /><path
     id="path38"
     style="fill:#ffffff;fill-opacity:1;stroke-width:0.182234"
     d="m 65.063449,30.98537 c -1.133623,0.01529 -2.269567,0.424822 -3.184118,1.24747 L 46.855005,45.749599 c -0.838089,0.753718 -1.387594,1.774689 -1.555612,2.88923 -0.491615,3.259268 -1.236471,8.606283 -1.686488,11.305106 3.533815,2.24245 8.273731,5.979974 10.798165,12.138411 0.343711,0.838488 0.643233,1.719958 0.892944,2.645699 2.540366,-0.575809 5.088751,-0.99029 7.605766,-1.071865 0.562006,-0.01821 1.121442,-0.01359 1.679861,0.0033 -4.944205,-13.301805 -2.766534,-20.509467 -0.09609,-25.950057 1.386678,-2.825126 2.823968,-5.168208 3.479004,-7.701853 0.615427,-2.380427 0.602928,-4.976511 -0.800171,-8.566632 -0.664475,-0.306741 -1.384962,-0.46535 -2.108939,-0.455584 z m 5.254953,3.590001 c 0.369028,2.225122 0.234552,4.187387 -0.228621,5.978915 -0.763334,2.952541 -2.304545,5.412684 -3.633074,8.119332 -2.620858,5.339561 -4.723267,11.671754 0.546702,25.179706 1.45322,0.196461 2.887425,0.536512 4.29574,1.06358 4.990843,1.867849 9.502737,6.04188 13.183768,13.65592 0.04228,-0.06505 0.07773,-0.13436 0.120938,-0.198801 3.093593,-4.613055 5.279008,-8.208198 6.384799,-10.080827 0.508068,-0.859595 0.415822,-1.936414 -0.185546,-2.733505 C 89.236083,73.483327 86.237575,69.263536 84.603855,65.356272 82.924572,61.3393 82.673323,55.10265 82.658925,52.06482 82.65368,50.910189 82.287797,49.781598 81.573807,48.874075 Z M 43.039696,62.177124 c -0.924287,2.253667 -7.882427,17.552404 -7.882427,17.552404 -0.815495,1.817597 -0.438618,3.948471 0.949271,5.377544 L 48.806561,98.18813 c 0.13735,0.14144 0.293659,0.25836 0.445643,0.38104 5.738972,-11.714994 5.506228,-19.870733 3.134418,-25.656833 -2.141141,-5.223379 -6.098956,-8.584955 -9.346926,-10.735213 z M 63.42169,75.838011 c -2.471902,0.03787 -5.033844,0.434518 -7.650494,1.027136 1.003234,5.864814 0.02361,13.318488 -4.554184,22.664883 0.240181,0.0547 0.483782,0.10161 0.732249,0.11928 0,0 6.736527,0.5113 7.370518,0.55995 4.809137,0.36976 10.153047,2.35446 14.7692,3.62645 3.239744,0.89859 6.499593,-1.7045 6.948067,-5.03627 0.330951,-2.45899 0.963319,-5.259697 2.13876,-7.841014 C 79.535692,82.741494 75.220215,78.720129 70.533768,76.966205 68.275475,76.121025 65.893595,75.800137 63.42169,75.838011 Z" /><path
     style="opacity:1;fill:url(#linearGradient10);fill-opacity:1;stroke:none;stroke-width:2;stroke-linecap:round;stroke-linejoin:round;stroke-dasharray:none;stroke-opacity:1;paint-order:markers stroke fill"
     d="M 67.172384,31.440938 64,16.5 c 0,0 -37.522104,0 -42.359398,0.04013 -1.636605,0.01358 -3.36768,0.910824 -4.577082,1.777152 -1.209402,0.866328 -1.985508,1.949475 -2.580921,3.076951 C 13.887188,22.521705 13.5,23.681639 13.5,24.893023 V 47.865278 L 43.612905,59.943935 58.398793,43.628726 Z"
     id="path4"
     sodipodi:nodetypes="ccsssscccc" /><path
     style="opacity:1;fill:url(#linearGradient12);fill-opacity:1;stroke:none;stroke-width:2;stroke-linecap:round;stroke-linejoin:round;stroke-dasharray:none;stroke-opacity:1;paint-order:markers stroke fill"
     d="M 106.12305,16.564453 75.890625,62.310547 84.482422,88.572266 97.503906,117.5 h 7.099614 c 2.15555,0 4.84623,-0.38353 6.29101,-1.5 1.44477,-1.11647 2.15065,-2.23304 2.82031,-3.80859 0.66966,-1.57556 0.78516,-3.55324 0.78516,-5.48047 V 41.332031 25.90625 c 0,-1.614812 -0.28559,-3.31959 -1.0918,-4.71875 -0.93944,-1.630373 -2.4365,-3.021035 -4.12109,-3.859375 -0.97098,-0.483208 -2.06265,-0.67941 -3.16406,-0.763672 z"
     id="path20" /><path
     style="opacity:1;fill:url(#linearGradient20);fill-opacity:1;stroke:none;stroke-width:2;stroke-linecap:round;stroke-linejoin:round;stroke-dasharray:none;stroke-opacity:1;paint-order:markers stroke fill"
     d="m 66.285156,16.5 4.033203,18.076172 4.441407,24.277344 0.33789,1.03125 L 103.77148,16.5 Z"
     id="path10" /><path
     style="opacity:1;fill:url(#radialGradient15);stroke:none;stroke-width:2;stroke-linecap:round;stroke-linejoin:round;stroke-dasharray:none;stroke-opacity:1;paint-order:markers stroke fill"
     d="M 51.217012,99.53003 41.816098,117.5 H 95.393872 L 83.175806,90.958426 Z"
     id="path12"
     sodipodi:nodetypes="ccccc" /><path
     style="opacity:1;fill:url(#radialGradient16);fill-opacity:1;stroke:none;stroke-width:2;stroke-linecap:round;stroke-linejoin:round;stroke-dasharray:none;stroke-opacity:1;paint-order:markers stroke fill"
     d="M 43.039696,62.177124 13.5,50.351346 c 0,0 0,39.145348 0,58.781674 0,1.40745 0.537735,2.83018 1.287619,4.02123 0.856138,1.35981 2.076325,2.57368 3.504502,3.31013 1.580918,0.81522 3.456005,1.03562 5.234737,1.03562 5.929135,0 15.802308,0 15.802308,0 l 9.923038,-18.93083"
     id="path15"
     sodipodi:nodetypes="ccsssscc" /><path
     style="opacity:0.3;fill:#273445;fill-opacity:1;stroke:#ffffff;stroke-width:2;stroke-linecap:round;stroke-linejoin:round;stroke-dasharray:none;stroke-opacity:1;paint-order:markers stroke fill"
     d="M 81.060439,52.71692 104.09101,17.826594"
     id="path7"
     sodipodi:nodetypes="cc" /><path
     style="opacity:0.3;fill:#273445;fill-opacity:1;stroke:#ffffff;stroke-width:2;stroke-linecap:round;stroke-linejoin:round;stroke-dasharray:none;stroke-opacity:1;paint-order:markers stroke fill"
     d="M 65.240228,17.493575 68.85535,33.219777"
     id="path8"
     sodipodi:nodetypes="cc" /><path
     style="opacity:0.3;fill:#273445;fill-opacity:1;stroke:#ffffff;stroke-width:2;stroke-linecap:round;stroke-linejoin:round;stroke-dasharray:none;stroke-opacity:1;paint-order:markers stroke fill"
     d="M 14.108337,49.261456 43.489598,61.105234"
     id="path9"
     sodipodi:nodetypes="cc" /><path
     style="opacity:0.3;fill:#273445;fill-opacity:1;stroke:#ffffff;stroke-width:2;stroke-linecap:round;stroke-linejoin:round;stroke-dasharray:none;stroke-opacity:1;paint-order:markers stroke fill"
     d="M 41.093343,116.46803 50.328169,98.787195"
     id="path11"
     sodipodi:nodetypes="cc" /><path
     style="opacity:0.3;fill:#273445;fill-opacity:1;stroke:#ffffff;stroke-width:2;stroke-linecap:round;stroke-linejoin:round;stroke-dasharray:none;stroke-opacity:1;paint-order:markers stroke fill"
     d="M 83.793654,89.58177 96.263627,117"
     id="path13"
     sodipodi:nodetypes="cc" /></svg>
