<?xml version="1.0" encoding="UTF-8" standalone="no"?>
<svg
   id="svg4379"
   height="128"
   width="128"
   version="1.1"
   xml:space="preserve"
   xmlns:xlink="http://www.w3.org/1999/xlink"
   xmlns="http://www.w3.org/2000/svg"
   xmlns:svg="http://www.w3.org/2000/svg"
   xmlns:rdf="http://www.w3.org/1999/02/22-rdf-syntax-ns#"
   xmlns:cc="http://creativecommons.org/ns#"
   xmlns:dc="http://purl.org/dc/elements/1.1/"><defs
     id="defs4381"><linearGradient
       id="linearGradient22"><stop
         offset="0"
         style="stop-color:#ffffff;stop-opacity:1"
         id="stop10" /><stop
         offset="0.08344387"
         style="stop-color:#ffffff;stop-opacity:0.23529412"
         id="stop17" /><stop
         offset="0.93499994"
         style="stop-color:#ffffff;stop-opacity:0.15686275"
         id="stop18" /><stop
         offset="1"
         style="stop-color:#ffffff;stop-opacity:0.39215687"
         id="stop19" /></linearGradient><linearGradient
       id="linearGradient51"><stop
         style="stop-color:#ffffff;stop-opacity:1;"
         offset="0"
         id="stop53" /><stop
         style="stop-color:#ffffff;stop-opacity:0;"
         offset="1"
         id="stop54" /></linearGradient><linearGradient
       id="linearGradient48"><stop
         style="stop-color:#ffffff;stop-opacity:1;"
         offset="0"
         id="stop48" /><stop
         style="stop-color:#ffffff;stop-opacity:0;"
         offset="1"
         id="stop49" /></linearGradient><linearGradient
       id="linearGradient46"><stop
         style="stop-color:#ffffff;stop-opacity:1;"
         offset="0"
         id="stop46" /><stop
         style="stop-color:#ffffff;stop-opacity:0;"
         offset="1"
         id="stop47" /></linearGradient><linearGradient
       id="linearGradient44"><stop
         style="stop-color:#ffffff;stop-opacity:1;"
         offset="0"
         id="stop44" /><stop
         style="stop-color:#ffffff;stop-opacity:0;"
         offset="1"
         id="stop45" /></linearGradient><linearGradient
       id="linearGradient36"><stop
         style="stop-color:#ffffff;stop-opacity:1;"
         offset="0"
         id="stop38" /><stop
         style="stop-color:#ffffff;stop-opacity:0;"
         offset="1"
         id="stop39" /></linearGradient><linearGradient
       id="linearGradient34"><stop
         style="stop-color:#ffffff;stop-opacity:0.3485899;"
         offset="0"
         id="stop33" /><stop
         style="stop-color:#6c31e3;stop-opacity:0;"
         offset="0.88107753"
         id="stop34" /></linearGradient><linearGradient
       id="linearGradient13"><stop
         style="stop-color:#ffffff;stop-opacity:0.29774252;"
         offset="0"
         id="stop13" /><stop
         style="stop-color:#ffffff;stop-opacity:0;"
         offset="1"
         id="stop14" /></linearGradient><linearGradient
       id="linearGradient11"><stop
         style="stop-color:#ffffff;stop-opacity:0.40100217;"
         offset="0"
         id="stop11" /><stop
         style="stop-color:#ffffff;stop-opacity:0;"
         offset="1"
         id="stop12" /></linearGradient><linearGradient
       id="linearGradient4"><stop
         style="stop-color:#ffffff;stop-opacity:0.44960275;"
         offset="0"
         id="stop8" /><stop
         style="stop-color:#ffffff;stop-opacity:0;"
         offset="1"
         id="stop9" /></linearGradient><linearGradient
       id="linearGradient880"><stop
         style="stop-color:#9e79e9;stop-opacity:1;"
         offset="0"
         id="stop876" /><stop
         style="stop-color:#6c31e3;stop-opacity:1;"
         offset="1"
         id="stop878" /></linearGradient><linearGradient
       gradientTransform="matrix(2.7297298,0,0,2.7297298,-1.5135124,1.486514)"
       gradientUnits="userSpaceOnUse"
       xlink:href="#linearGradient22"
       id="linearGradient3159"
       y2="42.316822"
       x2="23.999998"
       y1="5.6831579"
       x1="23.999998" /><linearGradient
       id="linearGradient3811"><stop
         offset="0"
         style="stop-color:#000000;stop-opacity:1"
         id="stop3813" /><stop
         offset="1"
         style="stop-color:#000000;stop-opacity:0"
         id="stop3815" /></linearGradient><linearGradient
       xlink:href="#linearGradient880"
       id="linearGradient882"
       x1="62.871635"
       y1="15.90732"
       x2="62.871635"
       y2="118.42699"
       gradientUnits="userSpaceOnUse" /><linearGradient
       xlink:href="#linearGradient4"
       id="linearGradient10"
       x1="49.252205"
       y1="57.369202"
       x2="44.729691"
       y2="15.5"
       gradientUnits="userSpaceOnUse" /><linearGradient
       xlink:href="#linearGradient11"
       id="linearGradient20"
       gradientUnits="userSpaceOnUse"
       x1="102.41996"
       y1="50.363834"
       x2="90.103188"
       y2="0" /><linearGradient
       id="linearGradient25"><stop
         style="stop-color:#ffffff;stop-opacity:0.3485899;"
         offset="0"
         id="stop24" /><stop
         style="stop-color:#6c31e3;stop-opacity:0;"
         offset="0.86935449"
         id="stop25" /></linearGradient><linearGradient
       id="linearGradient3688-166-749"><stop
         id="stop2883"
         style="stop-color:#181818;stop-opacity:1"
         offset="0" /><stop
         id="stop2885"
         style="stop-color:#181818;stop-opacity:0"
         offset="1" /></linearGradient><linearGradient
       id="linearGradient3702-501-757"><stop
         id="stop2895"
         style="stop-color:#181818;stop-opacity:0"
         offset="0" /><stop
         id="stop2897"
         style="stop-color:#181818;stop-opacity:1"
         offset="0.5" /><stop
         id="stop2899"
         style="stop-color:#181818;stop-opacity:0"
         offset="1" /></linearGradient><radialGradient
       xlink:href="#linearGradient3688-166-749"
       id="radialGradient20"
       gradientUnits="userSpaceOnUse"
       gradientTransform="matrix(2.003784,0,0,1.4,27.98813,-17.4)"
       cx="4.9929786"
       cy="43.5"
       fx="4.9929786"
       fy="43.5"
       r="2.5" /><radialGradient
       xlink:href="#linearGradient3688-166-749"
       id="radialGradient21"
       gradientUnits="userSpaceOnUse"
       gradientTransform="matrix(2.003784,0,0,1.4,-20.01187,-104.4)"
       cx="4.9929786"
       cy="43.5"
       fx="4.9929786"
       fy="43.5"
       r="2.5" /><linearGradient
       xlink:href="#linearGradient3702-501-757"
       id="linearGradient21"
       gradientUnits="userSpaceOnUse"
       x1="25.058096"
       y1="47.027729"
       x2="25.058096"
       y2="39.999443" /><radialGradient
       xlink:href="#linearGradient3811"
       id="radialGradient22"
       gradientUnits="userSpaceOnUse"
       gradientTransform="matrix(1.5563924,0,0,0.16978827,70.27036,102.13029)"
       cx="-4.0287771"
       cy="93.467628"
       fx="-4.0287771"
       fy="93.467628"
       r="35.338131" /><linearGradient
       xlink:href="#linearGradient25"
       id="linearGradient29"
       x1="91.429245"
       y1="112.7994"
       x2="102.21001"
       y2="41"
       gradientUnits="userSpaceOnUse" /><linearGradient
       xlink:href="#linearGradient13"
       id="linearGradient30"
       x1="40.832233"
       y1="121"
       x2="79.632729"
       y2="116"
       gradientUnits="userSpaceOnUse" /><linearGradient
       xlink:href="#linearGradient34"
       id="linearGradient31"
       x1="40"
       y1="117"
       x2="23.718193"
       y2="52.242855"
       gradientUnits="userSpaceOnUse" /><linearGradient
       xlink:href="#linearGradient4"
       id="linearGradient32"
       gradientUnits="userSpaceOnUse"
       x1="79.316849"
       y1="23.787863"
       x2="38.437687"
       y2="37.3722" /><linearGradient
       xlink:href="#linearGradient13"
       id="linearGradient33"
       gradientUnits="userSpaceOnUse"
       x1="96"
       y1="117"
       x2="75.890625"
       y2="117" /><linearGradient
       xlink:href="#linearGradient36"
       id="linearGradient42"
       x1="85.587967"
       y1="54.559731"
       x2="100.29266"
       y2="36.232788"
       gradientUnits="userSpaceOnUse" /><linearGradient
       xlink:href="#linearGradient44"
       id="linearGradient45"
       x1="70.318359"
       y1="34.576172"
       x2="68.559845"
       y2="17"
       gradientUnits="userSpaceOnUse" /><linearGradient
       xlink:href="#linearGradient46"
       id="linearGradient47"
       x1="36.492157"
       y1="66.296776"
       x2="27.785089"
       y2="42.365726"
       gradientUnits="userSpaceOnUse" /><linearGradient
       xlink:href="#linearGradient48"
       id="linearGradient50"
       x1="51.21701"
       y1="98.569168"
       x2="43.946819"
       y2="119"
       gradientUnits="userSpaceOnUse" /><linearGradient
       xlink:href="#linearGradient51"
       id="linearGradient55"
       x1="87.361382"
       y1="85.168579"
       x2="96.227196"
       y2="119"
       gradientUnits="userSpaceOnUse" /></defs><metadata
     id="metadata4384"><rdf:RDF><cc:Work
         rdf:about=""><dc:format>image/svg+xml</dc:format><dc:type
           rdf:resource="http://purl.org/dc/dcmitype/StillImage" /></cc:Work></rdf:RDF></metadata><path
     d="m 119,118 a 55,6 0 0 1 -110,0 55,6 0 1 1 110,0 z"
     id="path17"
     style="color:#000000;display:inline;overflow:visible;visibility:visible;opacity:0.2;fill:url(#radialGradient22);fill-opacity:1;fill-rule:nonzero;stroke:none;stroke-width:1;marker:none;enable-background:accumulate" /><g
     transform="matrix(2.6999989,0,0,0.55555607,-0.8,94.888882)"
     id="g20"
     style="display:inline"><g
       transform="matrix(1.052632,0,0,1.285713,-1.263158,-13.42854)"
       id="g19"
       style="opacity:0.4"><rect
         width="5"
         height="7"
         x="38"
         y="40"
         id="rect17"
         style="fill:url(#radialGradient20);fill-opacity:1;stroke:none" /><rect
         width="5"
         height="7"
         x="-10"
         y="-47"
         transform="scale(-1)"
         id="rect18"
         style="fill:url(#radialGradient21);fill-opacity:1;stroke:none" /><rect
         width="28"
         height="7.0000005"
         x="10"
         y="40"
         id="rect19"
         style="fill:url(#linearGradient21);fill-opacity:1;stroke:none" /></g></g><rect
     width="103"
     height="103"
     rx="10"
     ry="10"
     x="12.5"
     y="15.5"
     id="rect5505-21-3"
     style="color:#000000;display:inline;overflow:visible;visibility:visible;fill:url(#linearGradient882);fill-opacity:1;fill-rule:nonzero;stroke:none;stroke-width:1;marker:none;enable-background:accumulate" /><path
     style="opacity:0.4;fill:url(#linearGradient50);fill-opacity:1;stroke-width:2;stroke-linejoin:round;stroke-opacity:0.501961"
     d="m 49.252204,98.56917 1.964808,0.96086 C 48.912672,106.0395 45.173668,111.86282 40,117 c 4.39394,-5.50304 7.478008,-11.64665 9.252204,-18.43083 z"
     id="path27" /><path
     style="opacity:0.4;fill:url(#linearGradient55);fill-opacity:1;stroke-width:2;stroke-linejoin:round;stroke-opacity:0.501961"
     d="M 84.5,88.5 83.175806,90.958426 96,117 Z"
     id="path22" /><path
     style="opacity:0.5;fill:url(#linearGradient42);fill-opacity:1;stroke-width:2;stroke-linejoin:round;stroke-opacity:0.501961"
     d="m 81.574219,48.875 1.083984,3.189453 C 92.868629,47.849992 103.31589,44.161841 114,41 103.08614,42.993428 92.277551,45.618428 81.574219,48.875 Z"
     id="path24" /><path
     id="path2"
     style="opacity:0.15;fill:#2e0f6d;fill-opacity:1;stroke:#2e0f6d;stroke-width:2;stroke-linecap:round;stroke-linejoin:round;stroke-dasharray:none;stroke-opacity:1"
     d="m 65.063449,31.985441 c -1.133623,0.01529 -2.269567,0.424822 -3.184118,1.24747 L 46.855005,46.74967 c -0.838089,0.753718 -1.387594,1.774689 -1.555612,2.88923 -0.491615,3.259268 -1.236471,8.606283 -1.686488,11.305106 3.533815,2.24245 8.273731,5.979974 10.798165,12.138411 0.343711,0.838488 0.643233,1.719958 0.892944,2.645699 2.540366,-0.575809 5.088751,-0.99029 7.605766,-1.071865 0.562006,-0.01821 1.121442,-0.01359 1.679861,0.0033 -4.944205,-13.301805 -2.766534,-20.509467 -0.09609,-25.950057 1.386678,-2.825126 2.823968,-5.168208 3.479004,-7.701853 0.615427,-2.380427 0.602928,-4.976511 -0.800171,-8.566632 -0.664475,-0.306741 -1.384962,-0.46535 -2.108939,-0.455584 z m 5.254953,3.590001 c 0.369028,2.225122 0.234552,4.187387 -0.228621,5.978915 -0.763334,2.952541 -2.304545,5.412684 -3.633074,8.119332 -2.620858,5.339561 -4.723267,11.671754 0.546702,25.179706 1.45322,0.196461 2.887425,0.536512 4.29574,1.06358 4.990843,1.867849 9.502737,6.04188 13.183768,13.65592 0.04228,-0.06505 0.07773,-0.13436 0.120938,-0.198801 3.093593,-4.613055 5.279008,-8.208198 6.384799,-10.080827 0.508068,-0.859595 0.415822,-1.936414 -0.185546,-2.733505 C 89.236083,74.483398 86.237575,70.263607 84.603855,66.356343 82.924572,62.339371 82.673323,56.102721 82.658925,53.064891 82.65368,51.91026 82.287797,50.781669 81.573807,49.874146 Z M 43.039696,63.177195 c -0.924287,2.253667 -7.882427,17.552404 -7.882427,17.552404 -0.815495,1.817597 -0.438618,3.948471 0.949271,5.377544 l 12.700021,13.081058 c 0.13735,0.14144 0.293659,0.25836 0.445643,0.38104 5.738972,-11.714994 5.506228,-19.870733 3.134418,-25.656833 -2.141141,-5.223379 -6.098956,-8.584955 -9.346926,-10.735213 z M 63.42169,76.838082 c -2.471902,0.03787 -5.033844,0.434518 -7.650494,1.027136 1.003234,5.864814 0.02361,13.318488 -4.554184,22.664882 0.240181,0.0547 0.483782,0.10161 0.732249,0.11928 0,0 6.736527,0.5113 7.370518,0.55995 4.809137,0.36976 10.153047,2.35446 14.7692,3.62645 3.239744,0.89859 6.499593,-1.7045 6.948067,-5.036269 0.330951,-2.45899 0.963319,-5.259697 2.13876,-7.841014 C 79.535692,83.741565 75.220215,79.7202 70.533768,77.966276 68.275475,77.121096 65.893595,76.800208 63.42169,76.838082 Z" /><path
     style="opacity:0.6;fill:url(#linearGradient45);fill-opacity:1;stroke-width:2;stroke-linejoin:round;stroke-opacity:0.501961"
     d="M 67.172384,31.440938 63,17 70.453125,34.746094 Z"
     id="path25" /><path
     style="opacity:0.5;fill:url(#linearGradient47);fill-opacity:1;stroke-width:2;stroke-linejoin:round;stroke-opacity:0.501961"
     d="M 43.612905,59.943935 C 34.081666,54.881668 24.210697,50.900356 14,48 c 9.834321,4.04625 19.51422,8.771958 29.039696,14.177124 z"
     id="path26" /><g
     id="g34"><path
       style="opacity:1;fill:url(#linearGradient31);stroke:none;stroke-width:2;stroke-linecap:round;stroke-linejoin:round;stroke-dasharray:none;stroke-opacity:1;paint-order:markers stroke fill"
       d="M 43.039696,62.177124 C 33.741937,55.962623 24.062038,51.236915 14,48 v 60.5 a 8.5,8.5 45 0 0 8.5,8.5 H 40 c 4.33733,-5.39054 7.421398,-11.53415 9.252204,-18.43083"
       id="path15" /><path
       style="opacity:1;fill:url(#linearGradient29);stroke:none;stroke-width:2;stroke-linecap:round;stroke-linejoin:round;stroke-dasharray:none;stroke-opacity:1;paint-order:markers stroke fill"
       d="m 82.658925,52.06482 -6.7683,10.245727 8.591797,26.261719 L 96,117 h 9.5 a 8.5,8.5 135 0 0 8.5,-8.5 V 41 c -10.52883,3.106851 -20.975857,6.795125 -31.341075,11.06482 z"
       id="path20" /><path
       style="opacity:1;fill:url(#linearGradient20);fill-opacity:1;stroke:none;stroke-width:2;stroke-linecap:round;stroke-linejoin:round;stroke-dasharray:none;stroke-opacity:1;paint-order:markers stroke fill"
       d="M 63,17 70.318359,34.576172 81.5,49 114,41 V 25.5 A 8.5,8.5 45 0 0 105.5,17 Z"
       id="path10" /><path
       style="opacity:1;fill:url(#linearGradient30);stroke:none;stroke-width:2;stroke-linecap:round;stroke-linejoin:round;stroke-dasharray:none;stroke-opacity:1;paint-order:markers stroke fill"
       d="M 51.217012,99.53003 C 48.982794,105.93003 45.24379,111.75335 40,117 H 96 L 83.175806,90.958426 Z"
       id="path12" /><path
       style="opacity:1;fill:url(#linearGradient10);fill-opacity:1;stroke:none;stroke-width:2;stroke-linecap:round;stroke-linejoin:round;stroke-dasharray:none;stroke-opacity:1;paint-order:markers stroke fill"
       d="M 67.172384,31.440938 63,17 H 14 V 48 L 43.612905,59.943935 58.398793,43.628726 Z"
       id="path4" /><path
       style="opacity:1;fill:url(#linearGradient33);stroke:none;stroke-width:2;stroke-linecap:round;stroke-linejoin:round;stroke-dasharray:none;stroke-opacity:1;paint-order:markers stroke fill"
       d="M 51.217012,99.53003 C 48.982794,105.93003 45.24379,111.75335 40,117 H 96 L 83.175806,90.958426 Z"
       id="path32" /></g><rect
     width="101"
     height="101"
     rx="9"
     ry="9"
     x="13.5"
     y="16.5"
     id="rect6741-7"
     style="opacity:0.3;fill:none;stroke:url(#linearGradient3159);stroke-width:1;stroke-linecap:round;stroke-linejoin:round;stroke-miterlimit:4;stroke-dasharray:none;stroke-dashoffset:0;stroke-opacity:1" /><rect
     width="103"
     height="103"
     rx="10"
     ry="10"
     x="12.5"
     y="15.5"
     id="rect5505-21-6"
     style="color:#000000;display:inline;overflow:visible;visibility:visible;opacity:0.5;fill:none;stroke:#2d0f69;stroke-width:1;stroke-linecap:round;stroke-linejoin:round;stroke-miterlimit:4;stroke-dasharray:none;stroke-dashoffset:0;stroke-opacity:1;marker:none;enable-background:accumulate" /><path
     style="opacity:1;fill:url(#linearGradient32);fill-opacity:1;stroke:none;stroke-width:2;stroke-linecap:round;stroke-linejoin:round;stroke-dasharray:none;stroke-opacity:1;paint-order:markers stroke fill"
     d="M 67.172384,31.440938 63,17 H 22.5 A 8.5,8.5 135 0 0 14,25.5 V 48 L 43.612905,59.943935 58.398793,43.628726 Z"
     id="path31" /><path
     id="path3"
     style="opacity:0.15;fill:#2e0f6d;fill-opacity:1;stroke:none;stroke-width:2;stroke-dasharray:none;stroke-opacity:1"
     d="m 65.063449,31.985441 c -1.133623,0.01529 -2.269567,0.424822 -3.184118,1.24747 L 46.855005,46.74967 c -0.838089,0.753718 -1.387594,1.774689 -1.555612,2.88923 -0.491615,3.259268 -1.236471,8.606283 -1.686488,11.305106 3.533815,2.24245 8.273731,5.979974 10.798165,12.138411 0.343711,0.838488 0.643233,1.719958 0.892944,2.645699 2.540366,-0.575809 5.088751,-0.99029 7.605766,-1.071865 0.562006,-0.01821 1.121442,-0.01359 1.679861,0.0033 -4.944205,-13.301805 -2.766534,-20.509467 -0.09609,-25.950057 1.386678,-2.825126 2.823968,-5.168208 3.479004,-7.701853 0.615427,-2.380427 0.602928,-4.976511 -0.800171,-8.566632 -0.664475,-0.306741 -1.384962,-0.46535 -2.108939,-0.455584 z m 5.254953,3.590001 c 0.369028,2.225122 0.234552,4.187387 -0.228621,5.978915 -0.763334,2.952541 -2.304545,5.412684 -3.633074,8.119332 -2.620858,5.339561 -4.723267,11.671754 0.546702,25.179706 1.45322,0.196461 2.887425,0.536512 4.29574,1.06358 4.990843,1.867849 9.502737,6.04188 13.183768,13.65592 0.04228,-0.06505 0.07773,-0.13436 0.120938,-0.198801 3.093593,-4.613055 5.279008,-8.208198 6.384799,-10.080827 0.508068,-0.859595 0.415822,-1.936414 -0.185546,-2.733505 C 89.236083,74.483398 86.237575,70.263607 84.603855,66.356343 82.924572,62.339371 82.673323,56.102721 82.658925,53.064891 82.65368,51.91026 82.287797,50.781669 81.573807,49.874146 Z M 43.039696,63.177195 c -0.924287,2.253667 -7.882427,17.552404 -7.882427,17.552404 -0.815495,1.817597 -0.438618,3.948471 0.949271,5.377544 l 12.700021,13.081058 c 0.13735,0.14144 0.293659,0.25836 0.445643,0.38104 5.738972,-11.714994 5.506228,-19.870733 3.134418,-25.656833 -2.141141,-5.223379 -6.098956,-8.584955 -9.346926,-10.735213 z M 63.42169,76.838082 c -2.471902,0.03787 -5.033844,0.434518 -7.650494,1.027136 1.003234,5.864814 0.02361,13.318488 -4.554184,22.664882 0.240181,0.0547 0.483782,0.10161 0.732249,0.11928 0,0 6.736527,0.5113 7.370518,0.55995 4.809137,0.36976 10.153047,2.35446 14.7692,3.62645 3.239744,0.89859 6.499593,-1.7045 6.948067,-5.036269 0.330951,-2.45899 0.963319,-5.259697 2.13876,-7.841014 C 79.535692,83.741565 75.220215,79.7202 70.533768,77.966276 68.275475,77.121096 65.893595,76.800208 63.42169,76.838082 Z" /><path
     id="path38"
     style="fill:#d3bfde;fill-opacity:1;stroke-width:0.182234"
     d="m 65.063449,30.98537 c -1.133623,0.01529 -2.269567,0.424822 -3.184118,1.24747 L 46.855005,45.749599 c -0.838089,0.753718 -1.387594,1.774689 -1.555612,2.88923 -0.491615,3.259268 -1.236471,8.606283 -1.686488,11.305106 3.533815,2.24245 8.273731,5.979974 10.798165,12.138411 0.343711,0.838488 0.643233,1.719958 0.892944,2.645699 2.540366,-0.575809 5.088751,-0.99029 7.605766,-1.071865 0.562006,-0.01821 1.121442,-0.01359 1.679861,0.0033 -4.944205,-13.301805 -2.766534,-20.509467 -0.09609,-25.950057 1.386678,-2.825126 2.823968,-5.168208 3.479004,-7.701853 0.615427,-2.380427 0.602928,-4.976511 -0.800171,-8.566632 -0.664475,-0.306741 -1.384962,-0.46535 -2.108939,-0.455584 z m 5.254953,3.590001 c 0.369028,2.225122 0.234552,4.187387 -0.228621,5.978915 -0.763334,2.952541 -2.304545,5.412684 -3.633074,8.119332 -2.620858,5.339561 -4.723267,11.671754 0.546702,25.179706 1.45322,0.196461 2.887425,0.536512 4.29574,1.06358 4.990843,1.867849 9.502737,6.04188 13.183768,13.65592 0.04228,-0.06505 0.07773,-0.13436 0.120938,-0.198801 3.093593,-4.613055 5.279008,-8.208198 6.384799,-10.080827 0.508068,-0.859595 0.415822,-1.936414 -0.185546,-2.733505 C 89.236083,73.483327 86.237575,69.263536 84.603855,65.356272 82.924572,61.3393 82.673323,55.10265 82.658925,52.06482 82.65368,50.910189 82.287797,49.781598 81.573807,48.874075 Z M 43.039696,62.177124 c -0.924287,2.253667 -7.882427,17.552404 -7.882427,17.552404 -0.815495,1.817597 -0.438618,3.948471 0.949271,5.377544 L 48.806561,98.18813 c 0.13735,0.14144 0.293659,0.25836 0.445643,0.38104 5.738972,-11.714994 5.506228,-19.870733 3.134418,-25.656833 -2.141141,-5.223379 -6.098956,-8.584955 -9.346926,-10.735213 z M 63.42169,75.838011 c -2.471902,0.03787 -5.033844,0.434518 -7.650494,1.027136 1.003234,5.864814 0.02361,13.318488 -4.554184,22.664883 0.240181,0.0547 0.483782,0.10161 0.732249,0.11928 0,0 6.736527,0.5113 7.370518,0.55995 4.809137,0.36976 10.153047,2.35446 14.7692,3.62645 3.239744,0.89859 6.499593,-1.7045 6.948067,-5.03627 0.330951,-2.45899 0.963319,-5.259697 2.13876,-7.841014 C 79.535692,82.741494 75.220215,78.720129 70.533768,76.966205 68.275475,76.121025 65.893595,75.800137 63.42169,75.838011 Z" /><path
     id="path6"
     style="fill:#e8e2ea;fill-opacity:1;stroke-width:0.182234"
     d="m 65.0625,30.986328 c -1.133622,0.01529 -2.269044,0.423447 -3.183594,1.246094 L 46.855469,45.75 c -0.838088,0.753717 -1.388623,1.774132 -1.556641,2.888672 -0.450585,2.987249 -1.092809,7.548 -1.546875,10.396484 3.518772,2.251533 8.165555,5.965981 10.658203,12.046875 0.343711,0.838487 0.644821,1.720745 0.894532,2.646485 2.540363,-0.575809 5.088456,-0.990691 7.605468,-1.072266 0.445031,-0.01442 0.8875,-0.0051 1.330078,0.0039 -1.969249,-5.58389 -2.662735,-10.070347 -2.589843,-13.787109 -0.08744,-5.219123 1.289059,-8.996637 2.84375,-12.164063 1.386676,-2.825123 2.82348,-5.167529 3.478515,-7.701172 0.204059,-0.789283 0.329,-1.607579 0.367188,-2.472656 -0.06318,-1.489611 -0.404936,-3.141372 -1.167969,-5.09375 -0.664474,-0.30674 -1.385399,-0.464844 -2.109375,-0.455078 z m 5.390625,3.759766 c 0.06409,0.708295 0.08826,1.395357 0.05469,2.052734 0.02571,1.337972 -0.116137,2.588391 -0.417968,3.75586 -0.763333,2.952538 -2.304285,5.412495 -3.632813,8.11914 -1.394533,2.841128 -2.630767,5.97589 -2.699219,10.310547 0.09327,3.635453 0.992548,8.092864 3.246094,13.869141 1.453219,0.19646 2.886609,0.535432 4.294922,1.0625 4.990838,1.867847 9.502567,6.042217 13.183594,13.65625 0.04228,-0.06505 0.07789,-0.132825 0.121094,-0.197266 3.09359,-4.61305 5.278975,-8.209404 6.384765,-10.082031 0.13403,-0.226763 0.223241,-0.468923 0.275391,-0.716797 -0.07547,-0.361103 -0.229616,-0.709017 -0.460938,-1.015625 -1.567023,-2.076362 -4.5655,-6.297818 -6.199218,-10.205078 C 82.924234,61.338501 82.672601,55.10228 82.658203,52.064453 82.652958,50.909823 82.288208,49.782522 81.574219,48.875 Z m -27.414063,27.43164 c -0.924286,2.253665 -7.880859,17.552735 -7.880859,17.552735 -0.208309,0.464284 -0.338802,0.947299 -0.394531,1.435547 0.100484,1.082746 0.552565,2.126744 1.34375,2.941406 L 48.806641,97.1875 c 0.137349,0.14144 0.293328,0.258179 0.445312,0.380859 3.228169,-6.589677 4.567894,-12.052498 4.699219,-16.601562 0.0047,-0.164488 -0.0016,-0.320315 0,-0.482422 -0.0857,-2.898979 -0.675025,-5.40248 -1.564453,-7.572266 -2.141139,-5.223373 -6.09969,-8.584119 -9.347657,-10.734375 z m 20.382813,13.660157 c -2.426758,0.03718 -4.940924,0.423332 -7.507813,0.998047 0.161598,1.245348 0.233806,2.558763 0.205079,3.943359 0.07474,4.950948 -1.183715,10.846966 -4.464844,17.820312 0.09861,0.01521 0.194827,0.04171 0.294922,0.04883 0,0 6.737103,0.511896 7.371093,0.560546 4.809133,0.36976 10.153383,2.354965 14.769532,3.626955 3.239741,0.89859 6.498792,-1.70535 6.947265,-5.037111 0.308952,-2.295535 0.887064,-4.885669 1.917969,-7.320312 -3.593419,-7.887197 -7.829647,-11.793058 -12.421875,-13.51172 -2.258291,-0.845179 -4.639425,-1.16678 -7.111328,-1.128906 z" /><path
     id="path14"
     style="fill:#fafafa;fill-opacity:1;stroke-width:0.182234"
     d="m 65.0625,30.986328 c -1.133622,0.01529 -2.269044,0.423447 -3.183594,1.246094 L 46.855469,45.75 c -0.838088,0.753717 -1.388623,1.774132 -1.556641,2.888672 -0.409555,2.715234 -0.964025,6.613373 -1.408203,9.488281 3.501924,2.259952 8.058666,5.95172 10.519531,11.955078 0.343711,0.838487 0.644821,1.720745 0.894532,2.646485 2.540363,-0.575809 5.088456,-0.990691 7.605468,-1.072266 0.328054,-0.01063 0.653857,-8.75e-4 0.980469,0.002 -1.78423,-5.354619 -2.36004,-9.662327 -2.226563,-13.25 -0.195053,-5.498136 1.222827,-9.424707 2.830079,-12.699219 1.386676,-2.825123 2.82348,-5.167529 3.478515,-7.701172 0.165133,-0.638719 0.279862,-1.295658 0.339844,-1.980468 -0.115162,-1.356898 -0.463588,-2.853597 -1.140625,-4.585938 -0.664474,-0.30674 -1.385399,-0.464844 -2.109375,-0.455078 z m 5.445312,3.832031 c 0.0074,0.413719 0.0037,0.821066 -0.02344,1.216797 0.117273,1.636453 -0.03557,3.131068 -0.394531,4.519532 -0.763333,2.952538 -2.304285,5.412495 -3.632813,8.11914 -1.314831,2.678749 -2.497091,5.609247 -2.685547,9.56836 0.128065,3.589104 1.030957,7.968545 3.232422,13.611328 1.453219,0.19646 2.886609,0.535432 4.294922,1.0625 4.990838,1.867847 9.502567,6.042217 13.183594,13.65625 0.04228,-0.06505 0.07789,-0.132825 0.121094,-0.197266 3.09359,-4.61305 5.278975,-8.209404 6.384765,-10.082031 0.04264,-0.07214 0.07514,-0.147751 0.109375,-0.222657 -0.07885,-0.177982 -0.174547,-0.350213 -0.294922,-0.509765 -1.567023,-2.076362 -4.5655,-6.297818 -6.199218,-10.205078 -1.679279,-4.016968 -1.930912,-10.253189 -1.94531,-13.291016 -0.0052,-1.15463 -0.369995,-2.281931 -1.083984,-3.189453 z m -27.46875,27.359375 c -0.924286,2.253665 -7.880859,17.552735 -7.880859,17.552735 -0.145631,0.324587 -0.241887,0.659259 -0.3125,0.998047 0.18653,0.877259 0.608791,1.706603 1.261719,2.378906 L 48.806641,96.1875 c 0.137349,0.14144 0.293328,0.258179 0.445312,0.380859 3.167629,-6.466097 4.510061,-11.842362 4.683594,-16.339843 -0.112291,-2.788741 -0.686151,-5.211881 -1.548828,-7.316407 -2.141139,-5.223373 -6.09969,-8.584119 -9.347657,-10.734375 z m 20.382813,13.660157 c -2.39397,0.03668 -4.873517,0.414751 -7.404297,0.976562 0.09598,1.067093 0.127468,2.183256 0.08789,3.347656 0.183812,4.856079 -0.922167,10.644307 -4.011719,17.498047 0.254251,0.0193 6.605008,0.501133 7.226562,0.548828 4.809133,0.36976 10.153383,2.354966 14.769532,3.626956 3.239741,0.89859 6.498792,-1.70535 6.947265,-5.037112 0.286731,-2.130427 0.800881,-4.516397 1.697266,-6.794922 C 79.18848,82.434999 75.032162,78.650553 70.533202,76.966797 68.274911,76.121618 65.893777,75.800017 63.421875,75.837891 Z" /><g
     id="layer4-0"
     transform="matrix(0.9047486,0,0,0.9047486,-300.51497,-675.56047)" /><g
     id="layer4-0-7"
     transform="matrix(0.9047486,0,0,0.9047486,-300.51497,-668.32248)" /><g
     id="layer1-3"
     transform="matrix(0.9047486,0,0,0.9047486,196.19201,0.49666306)" /></svg>
