<?xml version="1.0" encoding="UTF-8" standalone="no"?>
<svg
   id="svg4379"
   height="128"
   width="128"
   version="1.1"
   xml:space="preserve"
   xmlns:xlink="http://www.w3.org/1999/xlink"
   xmlns="http://www.w3.org/2000/svg"
   xmlns:svg="http://www.w3.org/2000/svg"
   xmlns:rdf="http://www.w3.org/1999/02/22-rdf-syntax-ns#"
   xmlns:cc="http://creativecommons.org/ns#"
   xmlns:dc="http://purl.org/dc/elements/1.1/"><defs
     id="defs4381"><linearGradient
       id="linearGradient15"><stop
         style="stop-color:#ffffff;stop-opacity:0.20161197;"
         offset="0"
         id="stop15" /><stop
         style="stop-color:#ffffff;stop-opacity:0;"
         offset="1"
         id="stop16" /></linearGradient><linearGradient
       id="linearGradient13"><stop
         style="stop-color:#ffffff;stop-opacity:0.29774252;"
         offset="0"
         id="stop13" /><stop
         style="stop-color:#ffffff;stop-opacity:0;"
         offset="1"
         id="stop14" /></linearGradient><linearGradient
       id="linearGradient11"><stop
         style="stop-color:#ffffff;stop-opacity:0.40100217;"
         offset="0"
         id="stop11" /><stop
         style="stop-color:#ffffff;stop-opacity:0;"
         offset="1"
         id="stop12" /></linearGradient><linearGradient
       id="linearGradient4"><stop
         style="stop-color:#ffffff;stop-opacity:0.44960275;"
         offset="0"
         id="stop8" /><stop
         style="stop-color:#ffffff;stop-opacity:0;"
         offset="1"
         id="stop9" /></linearGradient><linearGradient
       id="linearGradient880"><stop
         style="stop-color:#9e79e9;stop-opacity:1;"
         offset="0"
         id="stop876" /><stop
         style="stop-color:#6c31e3;stop-opacity:1;"
         offset="1"
         id="stop878" /></linearGradient><linearGradient
       gradientTransform="matrix(2.7297298,0,0,2.7297298,-1.5135124,1.486514)"
       gradientUnits="userSpaceOnUse"
       xlink:href="#linearGradient3924-776"
       id="linearGradient3159"
       y2="43"
       x2="23.99999"
       y1="4.999989"
       x1="23.99999" /><linearGradient
       id="linearGradient3924-776"><stop
         offset="0"
         style="stop-color:#ffffff;stop-opacity:1"
         id="stop3124" /><stop
         offset="0.06316455"
         style="stop-color:#ffffff;stop-opacity:0.23529412"
         id="stop3126" /><stop
         offset="0.95056331"
         style="stop-color:#ffffff;stop-opacity:0.15686275"
         id="stop3128" /><stop
         offset="1"
         style="stop-color:#ffffff;stop-opacity:0.39215687"
         id="stop3130" /></linearGradient><linearGradient
       id="linearGradient3811"><stop
         offset="0"
         style="stop-color:#000000;stop-opacity:1"
         id="stop3813" /><stop
         offset="1"
         style="stop-color:#000000;stop-opacity:0"
         id="stop3815" /></linearGradient><radialGradient
       gradientTransform="matrix(1.5563924,0,0,0.16978827,70.270358,102.13029)"
       gradientUnits="userSpaceOnUse"
       xlink:href="#linearGradient3811"
       id="radialGradient4377"
       fy="93.467628"
       fx="-4.0287771"
       r="35.338131"
       cy="93.467628"
       cx="-4.0287771" /><linearGradient
       xlink:href="#linearGradient880"
       id="linearGradient882"
       x1="62.871635"
       y1="15.90732"
       x2="62.871635"
       y2="118.42699"
       gradientUnits="userSpaceOnUse" /><linearGradient
       xlink:href="#linearGradient4"
       id="linearGradient10"
       x1="54.367168"
       y1="39.991291"
       x2="24.055969"
       y2="10.335649"
       gradientUnits="userSpaceOnUse" /><linearGradient
       xlink:href="#linearGradient11"
       id="linearGradient12"
       x1="84.353836"
       y1="104.01501"
       x2="98.307877"
       y2="67.359512"
       gradientUnits="userSpaceOnUse" /><radialGradient
       xlink:href="#linearGradient13"
       id="radialGradient15"
       cx="87.080582"
       cy="132.49316"
       fx="87.080582"
       fy="132.49316"
       r="26.421717"
       gradientTransform="matrix(0.93157976,-0.23018528,0.37123768,1.5024311,-38.922898,-56.935288)"
       gradientUnits="userSpaceOnUse" /><radialGradient
       xlink:href="#linearGradient15"
       id="radialGradient16"
       cx="40.862774"
       cy="96.822166"
       fx="40.862774"
       fy="96.822166"
       r="17.876102"
       gradientTransform="matrix(1.8765546,-0.89220294,0.65102217,1.3692834,-99.83177,10.788433)"
       gradientUnits="userSpaceOnUse" /><linearGradient
       xlink:href="#linearGradient11"
       id="linearGradient20"
       gradientUnits="userSpaceOnUse"
       x1="81.573807"
       y1="48.874077"
       x2="69.56163"
       y2="19.758986" /></defs><metadata
     id="metadata4384"><rdf:RDF><cc:Work
         rdf:about=""><dc:format>image/svg+xml</dc:format><dc:type
           rdf:resource="http://purl.org/dc/dcmitype/StillImage" /></cc:Work></rdf:RDF></metadata><path
     id="path1"
     style="opacity:0.15047013;fill:#485a6c;fill-opacity:1;stroke:#485a6c;stroke-width:2;stroke-linecap:round;stroke-linejoin:round;paint-order:markers stroke fill;stroke-dasharray:none;stroke-opacity:1"
     d="M 18 116 L 18 116.02344 A 6 1.9760779 0 0 0 12 118 A 6 1.9760779 0 0 0 18 119.97656 L 18 120 L 110 120 L 110 119.97656 A 6 1.9760779 0 0 0 116 118 A 6 1.9760779 0 0 0 110 116.02344 L 110 116 L 18 116 z " /><path
     id="rect1"
     style="opacity:0.14996699;fill:#273445;fill-opacity:1;stroke:none;stroke-width:1.97337;stroke-linecap:round;stroke-linejoin:round;paint-order:markers stroke fill"
     d="M 18 116 L 18 116.02344 A 6 1.9760779 0 0 0 12 118 A 6 1.9760779 0 0 0 18 119.97656 L 18 120 L 110 120 L 110 119.97656 A 6 1.9760779 0 0 0 116 118 A 6 1.9760779 0 0 0 110 116.02344 L 110 116 L 18 116 z " /><path
     id="path5"
     style="opacity:0.14996699;fill:#0e141f;fill-opacity:1;stroke:none;stroke-width:1.97337;stroke-linecap:round;stroke-linejoin:round;paint-order:markers stroke fill"
     d="m 19,117 h 90 v 0.0234 h 1 c 2.41023,0 4.26005,0.51912 4.87305,0.97656 -0.613,0.45744 -2.46282,0.97656 -4.87305,0.97656 h -1 V 119 H 19 v -0.0234 h -1 c -2.410229,0 -4.260051,-0.51912 -4.873047,-0.97656 0.612996,-0.45744 2.462818,-0.97656 4.873047,-0.97656 h 1 z" /><path
     d="m 119,118 c -0.005,3.31331 -24.628002,5.99897 -54.999999,5.99897 -30.371997,0 -54.9948191,-2.68566 -54.9999994,-5.99897 -0.00518,-3.31411 24.6206754,-6.00102 54.9999994,-6.00102 30.379324,0 55.005179,2.68691 54.999999,6.00102 z"
     id="path3041"
     style="color:#000000;display:inline;overflow:visible;visibility:visible;opacity:0.2;fill:url(#radialGradient4377);fill-opacity:1;fill-rule:nonzero;stroke:none;stroke-width:1;marker:none;enable-background:accumulate" /><rect
     width="103"
     height="103"
     rx="10"
     ry="10"
     x="12.5"
     y="15.5"
     id="rect5505-21-3"
     style="color:#000000;display:inline;overflow:visible;visibility:visible;fill:url(#linearGradient882);fill-opacity:1;fill-rule:nonzero;stroke:none;stroke-width:1;marker:none;enable-background:accumulate" /><path
     style="opacity:1;fill:url(#radialGradient15);stroke:none;stroke-width:2;stroke-linecap:round;stroke-linejoin:round;stroke-dasharray:none;stroke-opacity:1;paint-order:markers stroke fill"
     d="M 51.217012,99.53003 41.816098,117.5 H 95.393872 L 83.175806,90.958426 Z"
     id="path12" /><path
     id="path2"
     style="fill:#2e0f6d;fill-opacity:1;stroke:#2e0f6d;stroke-width:2;stroke-linecap:round;stroke-linejoin:round;stroke-dasharray:none;stroke-opacity:1;opacity:0.15"
     d="m 65.063449,31.985441 c -1.133623,0.01529 -2.269567,0.424822 -3.184118,1.24747 L 46.855005,46.74967 c -0.838089,0.753718 -1.387594,1.774689 -1.555612,2.88923 -0.491615,3.259268 -1.236471,8.606283 -1.686488,11.305106 3.533815,2.24245 8.273731,5.979974 10.798165,12.138411 0.343711,0.838488 0.643233,1.719958 0.892944,2.645699 2.540366,-0.575809 5.088751,-0.99029 7.605766,-1.071865 0.562006,-0.01821 1.121442,-0.01359 1.679861,0.0033 -4.944205,-13.301805 -2.766534,-20.509467 -0.09609,-25.950057 1.386678,-2.825126 2.823968,-5.168208 3.479004,-7.701853 0.615427,-2.380427 0.602928,-4.976511 -0.800171,-8.566632 -0.664475,-0.306741 -1.384962,-0.46535 -2.108939,-0.455584 z m 5.254953,3.590001 c 0.369028,2.225122 0.234552,4.187387 -0.228621,5.978915 -0.763334,2.952541 -2.304545,5.412684 -3.633074,8.119332 -2.620858,5.339561 -4.723267,11.671754 0.546702,25.179706 1.45322,0.196461 2.887425,0.536512 4.29574,1.06358 4.990843,1.867849 9.502737,6.04188 13.183768,13.65592 0.04228,-0.06505 0.07773,-0.13436 0.120938,-0.198801 3.093593,-4.613055 5.279008,-8.208198 6.384799,-10.080827 0.508068,-0.859595 0.415822,-1.936414 -0.185546,-2.733505 C 89.236083,74.483398 86.237575,70.263607 84.603855,66.356343 82.924572,62.339371 82.673323,56.102721 82.658925,53.064891 82.65368,51.91026 82.287797,50.781669 81.573807,49.874146 Z M 43.039696,63.177195 c -0.924287,2.253667 -7.882427,17.552404 -7.882427,17.552404 -0.815495,1.817597 -0.438618,3.948471 0.949271,5.377544 l 12.700021,13.081058 c 0.13735,0.14144 0.293659,0.25836 0.445643,0.38104 5.738972,-11.714994 5.506228,-19.870733 3.134418,-25.656833 -2.141141,-5.223379 -6.098956,-8.584955 -9.346926,-10.735213 z M 63.42169,76.838082 c -2.471902,0.03787 -5.033844,0.434518 -7.650494,1.027136 1.003234,5.864814 0.02361,13.318488 -4.554184,22.664882 0.240181,0.0547 0.483782,0.10161 0.732249,0.11928 0,0 6.736527,0.5113 7.370518,0.55995 4.809137,0.36976 10.153047,2.35446 14.7692,3.62645 3.239744,0.89859 6.499593,-1.7045 6.948067,-5.036269 0.330951,-2.45899 0.963319,-5.259697 2.13876,-7.841014 C 79.535692,83.741565 75.220215,79.7202 70.533768,77.966276 68.275475,77.121096 65.893595,76.800208 63.42169,76.838082 Z" /><rect
     width="101"
     height="101"
     rx="9"
     ry="9"
     x="13.5"
     y="16.5"
     id="rect6741-7"
     style="opacity:0.3;fill:none;stroke:url(#linearGradient3159);stroke-width:1;stroke-linecap:round;stroke-linejoin:round;stroke-miterlimit:4;stroke-dasharray:none;stroke-dashoffset:0;stroke-opacity:1" /><rect
     width="103"
     height="103"
     rx="10"
     ry="10"
     x="12.5"
     y="15.5"
     id="rect5505-21-6"
     style="color:#000000;display:inline;overflow:visible;visibility:visible;opacity:0.5;fill:none;stroke:#2d0f69;stroke-width:1;stroke-linecap:round;stroke-linejoin:round;stroke-miterlimit:4;stroke-dasharray:none;stroke-dashoffset:0;stroke-opacity:1;marker:none;enable-background:accumulate" /><path
     id="path3"
     style="fill:#2e0f6d;fill-opacity:1;stroke:none;stroke-width:2;stroke-dasharray:none;stroke-opacity:1;opacity:0.15"
     d="m 65.063449,31.985441 c -1.133623,0.01529 -2.269567,0.424822 -3.184118,1.24747 L 46.855005,46.74967 c -0.838089,0.753718 -1.387594,1.774689 -1.555612,2.88923 -0.491615,3.259268 -1.236471,8.606283 -1.686488,11.305106 3.533815,2.24245 8.273731,5.979974 10.798165,12.138411 0.343711,0.838488 0.643233,1.719958 0.892944,2.645699 2.540366,-0.575809 5.088751,-0.99029 7.605766,-1.071865 0.562006,-0.01821 1.121442,-0.01359 1.679861,0.0033 -4.944205,-13.301805 -2.766534,-20.509467 -0.09609,-25.950057 1.386678,-2.825126 2.823968,-5.168208 3.479004,-7.701853 0.615427,-2.380427 0.602928,-4.976511 -0.800171,-8.566632 -0.664475,-0.306741 -1.384962,-0.46535 -2.108939,-0.455584 z m 5.254953,3.590001 c 0.369028,2.225122 0.234552,4.187387 -0.228621,5.978915 -0.763334,2.952541 -2.304545,5.412684 -3.633074,8.119332 -2.620858,5.339561 -4.723267,11.671754 0.546702,25.179706 1.45322,0.196461 2.887425,0.536512 4.29574,1.06358 4.990843,1.867849 9.502737,6.04188 13.183768,13.65592 0.04228,-0.06505 0.07773,-0.13436 0.120938,-0.198801 3.093593,-4.613055 5.279008,-8.208198 6.384799,-10.080827 0.508068,-0.859595 0.415822,-1.936414 -0.185546,-2.733505 C 89.236083,74.483398 86.237575,70.263607 84.603855,66.356343 82.924572,62.339371 82.673323,56.102721 82.658925,53.064891 82.65368,51.91026 82.287797,50.781669 81.573807,49.874146 Z M 43.039696,63.177195 c -0.924287,2.253667 -7.882427,17.552404 -7.882427,17.552404 -0.815495,1.817597 -0.438618,3.948471 0.949271,5.377544 l 12.700021,13.081058 c 0.13735,0.14144 0.293659,0.25836 0.445643,0.38104 5.738972,-11.714994 5.506228,-19.870733 3.134418,-25.656833 -2.141141,-5.223379 -6.098956,-8.584955 -9.346926,-10.735213 z M 63.42169,76.838082 c -2.471902,0.03787 -5.033844,0.434518 -7.650494,1.027136 1.003234,5.864814 0.02361,13.318488 -4.554184,22.664882 0.240181,0.0547 0.483782,0.10161 0.732249,0.11928 0,0 6.736527,0.5113 7.370518,0.55995 4.809137,0.36976 10.153047,2.35446 14.7692,3.62645 3.239744,0.89859 6.499593,-1.7045 6.948067,-5.036269 0.330951,-2.45899 0.963319,-5.259697 2.13876,-7.841014 C 79.535692,83.741565 75.220215,79.7202 70.533768,77.966276 68.275475,77.121096 65.893595,76.800208 63.42169,76.838082 Z" /><path
     style="opacity:1;fill:url(#radialGradient16);fill-opacity:1;stroke:none;stroke-width:2;stroke-linecap:round;stroke-linejoin:round;stroke-dasharray:none;stroke-opacity:1;paint-order:markers stroke fill"
     d="M 43.039696,62.177124 13.5,50.351346 c 0,0 0,39.145348 0,58.781674 0,1.40745 0.537735,2.83018 1.287619,4.02123 0.856138,1.35981 2.076325,2.57368 3.504502,3.31013 1.580918,0.81522 3.456005,1.03562 5.234737,1.03562 5.929135,0 15.802308,0 15.802308,0 l 9.923038,-18.93083"
     id="path15" /><path
     id="path38"
     style="fill:#d1d1d1;fill-opacity:1;stroke-width:0.182234"
     d="m 65.063449,30.98537 c -1.133623,0.01529 -2.269567,0.424822 -3.184118,1.24747 L 46.855005,45.749599 c -0.838089,0.753718 -1.387594,1.774689 -1.555612,2.88923 -0.491615,3.259268 -1.236471,8.606283 -1.686488,11.305106 3.533815,2.24245 8.273731,5.979974 10.798165,12.138411 0.343711,0.838488 0.643233,1.719958 0.892944,2.645699 2.540366,-0.575809 5.088751,-0.99029 7.605766,-1.071865 0.562006,-0.01821 1.121442,-0.01359 1.679861,0.0033 -4.944205,-13.301805 -2.766534,-20.509467 -0.09609,-25.950057 1.386678,-2.825126 2.823968,-5.168208 3.479004,-7.701853 0.615427,-2.380427 0.602928,-4.976511 -0.800171,-8.566632 -0.664475,-0.306741 -1.384962,-0.46535 -2.108939,-0.455584 z m 5.254953,3.590001 c 0.369028,2.225122 0.234552,4.187387 -0.228621,5.978915 -0.763334,2.952541 -2.304545,5.412684 -3.633074,8.119332 -2.620858,5.339561 -4.723267,11.671754 0.546702,25.179706 1.45322,0.196461 2.887425,0.536512 4.29574,1.06358 4.990843,1.867849 9.502737,6.04188 13.183768,13.65592 0.04228,-0.06505 0.07773,-0.13436 0.120938,-0.198801 3.093593,-4.613055 5.279008,-8.208198 6.384799,-10.080827 0.508068,-0.859595 0.415822,-1.936414 -0.185546,-2.733505 C 89.236083,73.483327 86.237575,69.263536 84.603855,65.356272 82.924572,61.3393 82.673323,55.10265 82.658925,52.06482 82.65368,50.910189 82.287797,49.781598 81.573807,48.874075 Z M 43.039696,62.177124 c -0.924287,2.253667 -7.882427,17.552404 -7.882427,17.552404 -0.815495,1.817597 -0.438618,3.948471 0.949271,5.377544 L 48.806561,98.18813 c 0.13735,0.14144 0.293659,0.25836 0.445643,0.38104 5.738972,-11.714994 5.506228,-19.870733 3.134418,-25.656833 -2.141141,-5.223379 -6.098956,-8.584955 -9.346926,-10.735213 z M 63.42169,75.838011 c -2.471902,0.03787 -5.033844,0.434518 -7.650494,1.027136 1.003234,5.864814 0.02361,13.318488 -4.554184,22.664883 0.240181,0.0547 0.483782,0.10161 0.732249,0.11928 0,0 6.736527,0.5113 7.370518,0.55995 4.809137,0.36976 10.153047,2.35446 14.7692,3.62645 3.239744,0.89859 6.499593,-1.7045 6.948067,-5.03627 0.330951,-2.45899 0.963319,-5.259697 2.13876,-7.841014 C 79.535692,82.741494 75.220215,78.720129 70.533768,76.966205 68.275475,76.121025 65.893595,75.800137 63.42169,75.838011 Z" /><path
     style="opacity:1;fill:url(#linearGradient10);fill-opacity:1;stroke:none;stroke-width:2;stroke-linecap:round;stroke-linejoin:round;stroke-dasharray:none;stroke-opacity:1;paint-order:markers stroke fill"
     d="M 67.172384,31.440938 64,16.5 c 0,0 -37.522104,0 -42.359398,0.04013 -1.636605,0.01358 -3.36768,0.910824 -4.577082,1.777152 -1.209402,0.866328 -1.985508,1.949475 -2.580921,3.076951 C 13.887188,22.521705 13.5,23.681639 13.5,24.893023 V 47.865278 L 43.612905,59.943935 58.398793,43.628726 Z"
     id="path4" /><path
     style="opacity:1;fill:url(#linearGradient12);fill-opacity:1;stroke:none;stroke-width:2;stroke-linecap:round;stroke-linejoin:round;stroke-dasharray:none;stroke-opacity:1;paint-order:markers stroke fill"
     d="M 106.12305,16.564453 75.890625,62.310547 84.482422,88.572266 97.503906,117.5 h 7.099614 c 2.15555,0 4.84623,-0.38353 6.29101,-1.5 1.44477,-1.11647 2.15065,-2.23304 2.82031,-3.80859 0.66966,-1.57556 0.78516,-3.55324 0.78516,-5.48047 V 41.332031 25.90625 c 0,-1.614812 -0.28559,-3.31959 -1.0918,-4.71875 -0.93944,-1.630373 -2.4365,-3.021035 -4.12109,-3.859375 -0.97098,-0.483208 -2.06265,-0.67941 -3.16406,-0.763672 z"
     id="path20" /><path
     style="opacity:1;fill:url(#linearGradient20);fill-opacity:1;stroke:none;stroke-width:2;stroke-linecap:round;stroke-linejoin:round;stroke-dasharray:none;stroke-opacity:1;paint-order:markers stroke fill"
     d="m 66.285156,16.5 4.033203,18.076172 4.441407,24.277344 0.33789,1.03125 L 103.77148,16.5 Z"
     id="path10" /><path
     style="opacity:0.3;fill:#273445;fill-opacity:1;stroke:#ffffff;stroke-width:2;stroke-linecap:round;stroke-linejoin:round;stroke-dasharray:none;stroke-opacity:1;paint-order:markers stroke fill"
     d="M 81.060439,52.71692 104.09101,17.826594"
     id="path7" /><path
     style="opacity:0.3;fill:#273445;fill-opacity:1;stroke:#ffffff;stroke-width:2;stroke-linecap:round;stroke-linejoin:round;stroke-dasharray:none;stroke-opacity:1;paint-order:markers stroke fill"
     d="M 65.240228,17.493575 68.85535,33.219777"
     id="path8" /><path
     style="opacity:0.3;fill:#273445;fill-opacity:1;stroke:#ffffff;stroke-width:2;stroke-linecap:round;stroke-linejoin:round;stroke-dasharray:none;stroke-opacity:1;paint-order:markers stroke fill"
     d="M 14.108337,49.261456 43.489598,61.105234"
     id="path9" /><path
     style="opacity:0.3;fill:#273445;fill-opacity:1;stroke:#ffffff;stroke-width:2;stroke-linecap:round;stroke-linejoin:round;stroke-dasharray:none;stroke-opacity:1;paint-order:markers stroke fill"
     d="M 41.093343,116.46803 50.328169,98.787195"
     id="path11" /><path
     style="opacity:0.3;fill:#273445;fill-opacity:1;stroke:#ffffff;stroke-width:2;stroke-linecap:round;stroke-linejoin:round;stroke-dasharray:none;stroke-opacity:1;paint-order:markers stroke fill"
     d="M 83.793654,89.58177 96.263627,117"
     id="path13" /><path
     id="path6"
     style="fill:#e8e8e8;fill-opacity:1;stroke-width:0.182234"
     d="M 65.0625 30.986328 C 63.928878 31.001618 62.793456 31.409775 61.878906 32.232422 L 46.855469 45.75 C 46.017381 46.503717 45.466846 47.524132 45.298828 48.638672 C 44.848243 51.625921 44.206019 56.186672 43.751953 59.035156 C 47.270725 61.286689 51.917508 65.001137 54.410156 71.082031 C 54.753867 71.920518 55.054977 72.802776 55.304688 73.728516 C 57.845051 73.152707 60.393144 72.737825 62.910156 72.65625 C 63.355187 72.64183 63.797656 72.651189 64.240234 72.660156 C 62.270985 67.076266 61.577499 62.589809 61.650391 58.873047 C 61.562953 53.653924 62.93945 49.87641 64.494141 46.708984 C 65.880817 43.883861 67.317621 41.541455 67.972656 39.007812 C 68.176715 38.218529 68.301656 37.400233 68.339844 36.535156 C 68.276663 35.045545 67.934908 33.393784 67.171875 31.441406 C 66.507401 31.134666 65.786476 30.976562 65.0625 30.986328 z M 70.453125 34.746094 C 70.517212 35.454389 70.541386 36.141451 70.507812 36.798828 C 70.533526 38.1368 70.391675 39.387219 70.089844 40.554688 C 69.326511 43.507226 67.785559 45.967183 66.457031 48.673828 C 65.062498 51.514956 63.826264 54.649718 63.757812 58.984375 C 63.851081 62.619828 64.75036 67.077239 67.003906 72.853516 C 68.457125 73.049976 69.890515 73.388948 71.298828 73.916016 C 76.289666 75.783863 80.801395 79.958233 84.482422 87.572266 C 84.524702 87.507216 84.560308 87.439441 84.603516 87.375 C 87.697106 82.76195 89.882491 79.165596 90.988281 77.292969 C 91.122311 77.066206 91.211522 76.824046 91.263672 76.576172 C 91.188203 76.215069 91.034056 75.867155 90.802734 75.560547 C 89.235711 73.484185 86.237234 69.262729 84.603516 65.355469 C 82.924234 61.338501 82.672601 55.10228 82.658203 52.064453 C 82.652958 50.909823 82.288208 49.782522 81.574219 48.875 L 70.453125 34.746094 z M 43.039062 62.177734 C 42.114776 64.431399 35.158203 79.730469 35.158203 79.730469 C 34.949894 80.194753 34.819401 80.677768 34.763672 81.166016 C 34.864156 82.248762 35.316237 83.29276 36.107422 84.107422 L 48.806641 97.1875 C 48.94399 97.32894 49.099969 97.445679 49.251953 97.568359 C 52.480122 90.978682 53.819847 85.515861 53.951172 80.966797 C 53.95592 80.802309 53.949548 80.646482 53.951172 80.484375 C 53.865468 77.585396 53.276147 75.081895 52.386719 72.912109 C 50.24558 67.688736 46.287029 64.32799 43.039062 62.177734 z M 63.421875 75.837891 C 60.995117 75.875069 58.480951 76.261223 55.914062 76.835938 C 56.07566 78.081286 56.147868 79.394701 56.119141 80.779297 C 56.193878 85.730245 54.935426 91.626263 51.654297 98.599609 C 51.752907 98.614816 51.849124 98.641319 51.949219 98.648438 C 51.949219 98.648438 58.686322 99.160334 59.320312 99.208984 C 64.129445 99.578744 69.473695 101.56395 74.089844 102.83594 C 77.329585 103.73453 80.588636 101.13059 81.037109 97.798828 C 81.346061 95.503293 81.924173 92.913159 82.955078 90.478516 C 79.361659 82.59132 75.125431 78.685459 70.533203 76.966797 C 68.274912 76.121618 65.893778 75.800017 63.421875 75.837891 z " /><path
     id="path14"
     style="fill:#fafafa;fill-opacity:1;stroke-width:0.182234"
     d="M 65.0625 30.986328 C 63.928878 31.001618 62.793456 31.409775 61.878906 32.232422 L 46.855469 45.75 C 46.017381 46.503717 45.466846 47.524132 45.298828 48.638672 C 44.889273 51.353906 44.334803 55.252045 43.890625 58.126953 C 47.392549 60.386905 51.949291 64.078673 54.410156 70.082031 C 54.753867 70.920518 55.054977 71.802776 55.304688 72.728516 C 57.845051 72.152707 60.393144 71.737825 62.910156 71.65625 C 63.23821 71.64562 63.564013 71.655375 63.890625 71.658203 C 62.106395 66.303584 61.530585 61.995876 61.664062 58.408203 C 61.469009 52.910067 62.886889 48.983496 64.494141 45.708984 C 65.880817 42.883861 67.317621 40.541455 67.972656 38.007812 C 68.137789 37.369093 68.252518 36.712154 68.3125 36.027344 C 68.197338 34.670446 67.848912 33.173747 67.171875 31.441406 C 66.507401 31.134666 65.786476 30.976562 65.0625 30.986328 z M 70.507812 34.818359 C 70.5152 35.232078 70.511504 35.639425 70.484375 36.035156 C 70.601648 37.671609 70.44881 39.166224 70.089844 40.554688 C 69.326511 43.507226 67.785559 45.967183 66.457031 48.673828 C 65.1422 51.352577 63.95994 54.283075 63.771484 58.242188 C 63.899549 61.831292 64.802441 66.210733 67.003906 71.853516 C 68.457125 72.049976 69.890515 72.388948 71.298828 72.916016 C 76.289666 74.783863 80.801395 78.958233 84.482422 86.572266 C 84.524702 86.507216 84.560308 86.439441 84.603516 86.375 C 87.697106 81.76195 89.882491 78.165596 90.988281 76.292969 C 91.03092 76.22083 91.06342 76.145218 91.097656 76.070312 C 91.018811 75.89233 90.923109 75.720099 90.802734 75.560547 C 89.235711 73.484185 86.237234 69.262729 84.603516 65.355469 C 82.924234 61.338501 82.672601 55.10228 82.658203 52.064453 C 82.652958 50.909823 82.288208 49.782522 81.574219 48.875 L 70.507812 34.818359 z M 43.039062 62.177734 C 42.114776 64.431399 35.158203 79.730469 35.158203 79.730469 C 35.012572 80.055056 34.916316 80.389728 34.845703 80.728516 C 35.032233 81.605775 35.454494 82.435119 36.107422 83.107422 L 48.806641 96.1875 C 48.94399 96.32894 49.099969 96.445679 49.251953 96.568359 C 52.419582 90.102262 53.762014 84.725997 53.935547 80.228516 C 53.823256 77.439775 53.249396 75.016635 52.386719 72.912109 C 50.24558 67.688736 46.287029 64.32799 43.039062 62.177734 z M 63.421875 75.837891 C 61.027905 75.874567 58.548358 76.252642 56.017578 76.814453 C 56.113553 77.881546 56.145046 78.997709 56.105469 80.162109 C 56.289281 85.018188 55.183302 90.806416 52.09375 97.660156 C 52.348001 97.679454 58.698758 98.161289 59.320312 98.208984 C 64.129445 98.578744 69.473695 100.56395 74.089844 101.83594 C 77.329585 102.73453 80.588636 100.13059 81.037109 96.798828 C 81.32384 94.668401 81.83799 92.282431 82.734375 90.003906 C 79.188481 82.434999 75.032163 78.650553 70.533203 76.966797 C 68.274912 76.121618 65.893778 75.800017 63.421875 75.837891 z " /></svg>
