<?xml version="1.0" encoding="UTF-8" standalone="no"?>
<svg
   id="svg4379"
   height="128"
   width="128"
   version="1.1"
   xml:space="preserve"
   xmlns:xlink="http://www.w3.org/1999/xlink"
   xmlns="http://www.w3.org/2000/svg"
   xmlns:svg="http://www.w3.org/2000/svg"
   xmlns:rdf="http://www.w3.org/1999/02/22-rdf-syntax-ns#"
   xmlns:cc="http://creativecommons.org/ns#"
   xmlns:dc="http://purl.org/dc/elements/1.1/"><defs
     id="defs4381"><linearGradient
       id="linearGradient23"><stop
         style="stop-color:#ffffff;stop-opacity:1;"
         offset="0"
         id="stop23" /><stop
         style="stop-color:#ffffff;stop-opacity:0.3560937;"
         offset="0.5"
         id="stop25" /><stop
         style="stop-color:#ffffff;stop-opacity:0.19511063;"
         offset="0.75"
         id="stop26" /><stop
         style="stop-color:#ffffff;stop-opacity:0.49612457;"
         offset="1"
         id="stop24" /></linearGradient><linearGradient
       id="linearGradient21"><stop
         style="stop-color:#4d4d4d;stop-opacity:1;"
         offset="0"
         id="stop21" /><stop
         style="stop-color:#333333;stop-opacity:1;"
         offset="0.40000004"
         id="stop27" /><stop
         style="stop-color:#4d4d4d;stop-opacity:1;"
         offset="1"
         id="stop22" /></linearGradient><linearGradient
       id="linearGradient1"><stop
         style="stop-color:#64baff;stop-opacity:1;"
         offset="0"
         id="stop1" /><stop
         style="stop-color:#89ffdd;stop-opacity:1;"
         offset="1"
         id="stop2" /></linearGradient><linearGradient
       gradientTransform="matrix(2.7297298,0,0,2.7297298,-1.5135124,1.486514)"
       gradientUnits="userSpaceOnUse"
       xlink:href="#linearGradient3924-776"
       id="linearGradient3159"
       y2="43"
       x2="23.99999"
       y1="4.999989"
       x1="23.99999" /><linearGradient
       id="linearGradient3924-776"><stop
         offset="0"
         style="stop-color:#ffffff;stop-opacity:1"
         id="stop3124" /><stop
         offset="0.06316455"
         style="stop-color:#ffffff;stop-opacity:0.23529412"
         id="stop3126" /><stop
         offset="0.95056331"
         style="stop-color:#ffffff;stop-opacity:0.15686275"
         id="stop3128" /><stop
         offset="1"
         style="stop-color:#ffffff;stop-opacity:0.39215687"
         id="stop3130" /></linearGradient><radialGradient
       gradientTransform="matrix(2.003784,0,0,1.4,27.98813,-17.4)"
       gradientUnits="userSpaceOnUse"
       xlink:href="#linearGradient3688-166-749-5"
       id="radialGradient2455-1"
       fy="43.5"
       fx="4.9929786"
       r="2.5"
       cy="43.5"
       cx="4.9929786" /><linearGradient
       id="linearGradient3688-166-749-5"><stop
         offset="0"
         style="stop-color:#181818;stop-opacity:1"
         id="stop2883-0" /><stop
         offset="1"
         style="stop-color:#181818;stop-opacity:0"
         id="stop2885-5" /></linearGradient><radialGradient
       gradientTransform="matrix(2.003784,0,0,1.4,-20.01187,-104.4)"
       gradientUnits="userSpaceOnUse"
       xlink:href="#linearGradient3688-464-309-8"
       id="radialGradient2457-5"
       fy="43.5"
       fx="4.9929786"
       r="2.5"
       cy="43.5"
       cx="4.9929786" /><linearGradient
       id="linearGradient3688-464-309-8"><stop
         offset="0"
         style="stop-color:#181818;stop-opacity:1"
         id="stop2889-9" /><stop
         offset="1"
         style="stop-color:#181818;stop-opacity:0"
         id="stop2891-4" /></linearGradient><linearGradient
       gradientUnits="userSpaceOnUse"
       xlink:href="#linearGradient3702-501-757-0"
       id="linearGradient2459-7"
       y2="39.999443"
       x2="25.058096"
       y1="47.027729"
       x1="25.058096" /><linearGradient
       id="linearGradient3702-501-757-0"><stop
         offset="0"
         style="stop-color:#181818;stop-opacity:0"
         id="stop2895-0" /><stop
         offset="0.5"
         style="stop-color:#181818;stop-opacity:1"
         id="stop2897-2" /><stop
         offset="1"
         style="stop-color:#181818;stop-opacity:0"
         id="stop2899-6" /></linearGradient><linearGradient
       id="linearGradient3811"><stop
         offset="0"
         style="stop-color:#000000;stop-opacity:1"
         id="stop3813" /><stop
         offset="1"
         style="stop-color:#000000;stop-opacity:0"
         id="stop3815" /></linearGradient><radialGradient
       gradientTransform="matrix(1.5563924,0,0,0.16978827,70.270358,102.13029)"
       gradientUnits="userSpaceOnUse"
       xlink:href="#linearGradient3811"
       id="radialGradient4377"
       fy="93.467628"
       fx="-4.0287771"
       r="35.338131"
       cy="93.467628"
       cx="-4.0287771" /><linearGradient
       xlink:href="#linearGradient1"
       id="linearGradient2"
       x1="64"
       y1="16.5"
       x2="64"
       y2="117.5"
       gradientUnits="userSpaceOnUse" /><linearGradient
       xlink:href="#linearGradient21"
       id="linearGradient22"
       x1="202.16"
       y1="363.21677"
       x2="202.16"
       y2="15.499907"
       gradientUnits="userSpaceOnUse" /><linearGradient
       xlink:href="#linearGradient23"
       id="linearGradient24"
       x1="193.61833"
       y1="15.500239"
       x2="193.61833"
       y2="371.88202"
       gradientUnits="userSpaceOnUse" /></defs><metadata
     id="metadata4384"><rdf:RDF><cc:Work
         rdf:about=""><dc:format>image/svg+xml</dc:format><dc:type
           rdf:resource="http://purl.org/dc/dcmitype/StillImage" /></cc:Work></rdf:RDF></metadata><path
     d="M 119,118 A 55,6 0 0 1 9.0000016,118 55,6 0 1 1 119,118 Z"
     id="path3041"
     style="color:#000000;display:inline;overflow:visible;visibility:visible;opacity:0.2;fill:url(#radialGradient4377);fill-opacity:1;fill-rule:nonzero;stroke:none;stroke-width:1;marker:none;enable-background:accumulate" /><g
     transform="matrix(2.6999989,0,0,0.55555607,-0.8000019,94.888882)"
     id="g2036"
     style="display:inline"><g
       transform="matrix(1.052632,0,0,1.285713,-1.263158,-13.42854)"
       id="g3712"
       style="opacity:0.4"><rect
         width="5"
         height="7"
         x="38"
         y="40"
         id="rect2801"
         style="fill:url(#radialGradient2455-1);fill-opacity:1;stroke:none" /><rect
         width="5"
         height="7"
         x="-10"
         y="-47"
         transform="scale(-1,-1)"
         id="rect3696"
         style="fill:url(#radialGradient2457-5);fill-opacity:1;stroke:none" /><rect
         width="28"
         height="7.0000005"
         x="10"
         y="40"
         id="rect3700"
         style="fill:url(#linearGradient2459-7);fill-opacity:1;stroke:none" /></g></g><rect
     width="103"
     height="103"
     rx="10"
     ry="10"
     x="12.5"
     y="15.5"
     id="rect5505-21-3"
     style="color:#000000;display:inline;overflow:visible;visibility:visible;fill:url(#linearGradient2);fill-opacity:1;fill-rule:nonzero;stroke:none;stroke-width:1;marker:none;enable-background:accumulate" /><rect
     width="101"
     height="101"
     rx="9"
     ry="9"
     x="13.5"
     y="16.5"
     id="rect6741-7"
     style="opacity:0.3;fill:none;stroke:url(#linearGradient3159);stroke-width:1;stroke-linecap:round;stroke-linejoin:round;stroke-miterlimit:4;stroke-dasharray:none;stroke-dashoffset:0;stroke-opacity:1" /><rect
     width="103"
     height="103"
     rx="10"
     ry="10"
     x="12.5"
     y="15.5"
     id="rect5505-21-6"
     style="color:#000000;display:inline;overflow:visible;visibility:visible;opacity:0.5;fill:none;stroke:#0d52bf;stroke-width:1;stroke-linecap:round;stroke-linejoin:round;stroke-miterlimit:4;stroke-dasharray:none;stroke-dashoffset:0;stroke-opacity:1;marker:none;enable-background:accumulate" /><style
     type="text/css"
     id="style26">
	.specularity {opacity:0.5;}
	.low-specularity {opacity:0.25;}
	.full-specularity {opacity:1;}
	.black {fill:#000000;}
	.white {fill:#ffffff;}
	.outline-big {stroke-width:16;stroke:none;opacity:0.1;fill:none;}
	.outline-small {stroke-width:8;stroke:none;opacity:0.2;fill:none;}
	.stroke-highlight {fill:none;stroke:none;opacity:0.2;}
       	.base-shadow 	{fill:black;opacity:75;}
	</style><g
     id="inkscape-logo"
     transform="matrix(0.18091274,0,0,0.18091274,28.411431,33.2212)"
     style="display:inline"><path
       d="M 163.15,33.355698 28.81,170.82567 c -45.39,56.21 30.89,49.67 63.59,65.86 11.73,11.99 -44.96,20.84 -33.23,32.84 11.73,11.99 70.93,23.1 82.68,35.09 11.73,11.99 -24.01,24.71 -12.28,36.7 11.73,11.99 38.86,0.63 43.94,28.31 3.62,19.78 48.89,8.5 71.03,-7.7 11.73,-12 -22.44,-10.87 -10.71,-22.86 29.17,-29.83 56.33,-10.84 66.31,-40.73 4.93,-14.77 -42.94,-22.77 -31.19,-34.76 33.75,-19.71 150.4,-32.54 95.05,-87.89 L 224.75,33.355698 c -17.03,-16.35 -45.45,-16.53 -61.6,0 z M 317.46,298.33567 c 0,6.82 50.25,11.29 50.25,-1.61 -7.16,-20.72 -44.31,-19.32 -50.25,1.61 z m -226.36,36.24 c 11.9,10.29 30.28,-2.56 35.79,-16.92 -11.53,-15.32 -54.69,0.55 -35.79,16.92 z m 220.06,-22.23 c -15.34,13.76 1.72,27.72 16.84,18.83 3.37,-3.42 -0.09,-15.41 -16.84,-18.83 z"
       id="path20"
       style="fill:#000000;fill-opacity:1;stroke:#000000;stroke-opacity:1;stroke-width:11.05505339;stroke-dasharray:none;opacity:0.14993875" /><path
       d="M 163.15,33.355698 28.81,170.82567 c -45.39,56.21 30.89,49.67 63.59,65.86 11.73,11.99 -44.96,20.84 -33.23,32.84 11.73,11.99 70.93,23.1 82.68,35.09 11.73,11.99 -24.01,24.71 -12.28,36.7 11.73,11.99 38.86,0.63 43.94,28.31 3.62,19.78 48.89,8.5 71.03,-7.7 11.73,-12 -22.44,-10.87 -10.71,-22.86 29.17,-29.83 56.33,-10.84 66.31,-40.73 4.93,-14.77 -42.94,-22.77 -31.19,-34.76 33.75,-19.71 150.4,-32.54 95.05,-87.89 L 224.75,33.355698 c -17.03,-16.35 -45.45,-16.53 -61.6,0 z M 317.46,298.33567 c 0,6.82 50.25,11.29 50.25,-1.61 -7.16,-20.72 -44.31,-19.32 -50.25,1.61 z m -226.36,36.24 c 11.9,10.29 30.28,-2.56 35.79,-16.92 -11.53,-15.32 -54.69,0.55 -35.79,16.92 z m 220.06,-22.23 c -15.34,13.76 1.72,27.72 16.84,18.83 3.37,-3.42 -0.09,-15.41 -16.84,-18.83 z"
       id="path21"
       style="fill:#000000;fill-opacity:1;stroke:none;stroke-opacity:1;stroke-width:11.05505339;stroke-dasharray:none;opacity:0.14993875" /><path
       d="M 163.15,27.83 28.81,165.3 C -16.58,221.51 59.7,214.97 92.4,231.16 104.13,243.15 47.44,252 59.17,264 c 11.73,11.99 70.93,23.1 82.68,35.09 11.73,11.99 -24.01,24.71 -12.28,36.7 11.73,11.99 38.86,0.63 43.94,28.31 3.62,19.78 48.89,8.5 71.03,-7.7 11.73,-12 -22.44,-10.87 -10.71,-22.86 29.17,-29.83 56.33,-10.84 66.31,-40.73 4.93,-14.77 -42.94,-22.77 -31.19,-34.76 33.75,-19.71 150.4,-32.54 95.05,-87.89 L 224.75,27.83 c -17.03,-16.35 -45.45,-16.53 -61.6,0 z m 154.31,264.98 c 0,6.82 50.25,11.29 50.25,-1.61 -7.16,-20.72 -44.31,-19.32 -50.25,1.61 z M 91.1,329.05 c 11.9,10.29 30.28,-2.56 35.79,-16.92 -11.53,-15.32 -54.69,0.55 -35.79,16.92 z m 220.06,-22.23 c -15.34,13.76 1.72,27.72 16.84,18.83 3.37,-3.42 -0.09,-15.41 -16.84,-18.83 z"
       id="path2313"
       style="fill:#000000;fill-opacity:1" /><path
       id="path5"
       style="fill:#1a1a1a;fill-opacity:1"
       d="M 193.61833 15.500239 C 182.36584 15.477739 171.22715 19.564222 163.15215 27.829214 L 28.807346 165.30485 C 20.096961 176.0916 15.905485 184.54312 14.988529 191.31229 C 18.600895 214.12515 67.806997 213.45868 92.395495 225.63262 C 94.476779 227.76004 94.343685 229.78908 92.881313 231.75392 C 100.5223 241.33302 65.332296 248.95106 58.690537 257.88012 C 58.847749 258.07693 58.971522 258.2754 59.165559 258.4739 C 70.895547 270.46389 130.10176 281.57075 141.85174 293.56074 C 144.45764 296.2244 144.63947 298.92721 143.60069 301.64691 C 147.48287 310.19654 131.11315 319.05911 127.81701 327.71913 C 128.20542 328.56806 128.74199 329.41395 129.56595 330.25618 C 141.29594 342.24617 168.42548 330.89398 173.50547 358.57396 C 177.12547 378.35394 222.40285 367.06563 244.54283 350.86565 C 245.13153 350.26339 245.52324 349.72091 245.89232 349.18148 C 241.71835 344.44047 227.42552 342.59853 232.48375 335.22231 C 230.87809 333.40415 230.74095 331.17146 233.83324 328.01062 C 262.75001 298.43958 289.66259 316.77583 299.85048 287.97924 C 294.9747 276.60019 261.38607 269.21944 268.14277 259.21882 C 266.68969 257.08435 266.63786 254.88722 268.95247 252.52533 C 295.63089 236.94514 374.03585 225.64173 378.41261 194.25959 C 377.49232 187.22679 373.12103 179.28404 364.00002 170.16303 L 224.75385 27.829214 C 216.23886 19.654222 204.87082 15.522739 193.61833 15.500239 z M 342.12742 276.38438 C 332.54463 276.71441 323.0908 281.05486 318.90533 289.17759 C 326.09644 294.25247 359.99418 296.76227 366.51548 288.6162 C 362.09414 280.07107 352.08098 276.04159 342.12742 276.38438 z M 109.66902 305.96529 C 99.701825 306.49479 89.336543 311.41419 86.954336 317.89481 C 87.622613 319.73287 88.906954 321.62004 91.099981 323.5195 C 101.96116 332.91123 118.10801 322.99904 125.05325 310.28367 C 121.25789 306.94357 115.5755 305.65151 109.66902 305.96529 z M 311.16464 306.81817 C 308.05824 309.60462 306.3282 312.39006 305.59393 315.0015 C 307.76817 322.07367 318.25802 325.84407 327.99552 320.11878 C 328.2538 319.85667 328.39258 319.45902 328.56771 319.10396 C 326.90895 314.45342 321.6415 308.95732 311.16464 306.81817 z " /><path
       id="path6"
       style="fill:url(#linearGradient22);fill-opacity:1"
       d="M 193.61833 15.500239 C 182.36584 15.477739 171.22715 19.564222 163.15215 27.829214 L 28.807346 165.30485 C 21.221546 174.69894 17.099626 182.30392 15.539123 188.59171 C 21.973883 209.10373 68.651705 208.89997 92.395495 220.65569 C 95.596193 223.92733 93.623476 226.96517 89.415812 229.89702 C 90.405388 230.32002 91.471749 230.70279 92.395495 231.16015 C 101.11845 240.07645 72.044246 247.25897 61.367933 255.2891 C 76.806439 266.59793 130.69121 277.19532 141.85174 288.58381 C 145.35631 292.16605 144.58135 295.81409 142.14324 299.48772 C 149.52839 307.77838 134.90059 316.41064 129.27446 324.90139 C 129.39051 325.03145 129.43888 325.16015 129.56595 325.29004 C 141.29594 337.28003 168.42548 325.91705 173.50547 353.59702 C 177.04601 372.94285 220.38242 362.56757 242.99901 346.94672 C 236.85619 343.3595 226.58006 340.9521 233.83324 333.53815 C 234.26503 333.09659 234.6871 332.76028 235.11796 332.3398 C 231.47891 330.15488 229.45397 327.51003 233.83324 323.03369 C 261.68513 294.55162 287.65944 310.47243 298.64133 285.96039 C 290.69637 275.27862 259.15807 268.04732 268.95247 258.05286 C 269.52261 257.7199 270.29032 257.3997 270.90654 257.07043 C 267.17472 254.05317 265.60465 250.9646 268.95247 247.5484 C 294.93393 232.37523 369.96668 221.25665 377.916 191.70095 C 376.34944 185.30817 372.03296 178.19597 364.00002 170.16303 L 224.75385 27.829214 C 216.23886 19.654222 204.87082 15.522739 193.61833 15.500239 z M 342.12742 276.38438 C 334.12641 276.65993 326.2425 279.76305 321.40999 285.49617 C 331.01302 289.27739 355.62666 290.78198 364.44265 285.4098 C 359.38823 279.0783 350.73894 276.08781 342.12742 276.38438 z M 109.66902 305.96529 C 100.983 306.42673 92.019707 310.23333 88.260646 315.48732 C 88.979925 316.49904 89.918732 317.51945 91.099981 318.54257 C 100.95029 327.06019 115.13843 319.66468 122.89406 308.73985 C 119.24565 306.57827 114.54469 305.70627 109.66902 305.96529 z M 311.16464 306.81817 C 309.08081 308.68736 307.63686 310.55929 306.66273 312.37808 C 310.02975 317.59232 318.51153 319.89988 326.7324 315.76801 C 324.10046 312.0758 319.19859 308.45853 311.16464 306.81817 z " /><path
       d="m 131,233.07259 c 3.59,2.23 57.89,13.26 71.16,15.46 4.6,0.97 1.34,5.71 -5,8.91 -14.3,3.8 -83.66,-24.37 -66.16,-24.37 z"
       id="path18"
       style="opacity:0.150103;fill:#000000;stroke:#000000;stroke-width:11.0551;stroke-dasharray:none;stroke-opacity:1" /><path
       d="m 131,233.07259 c 3.59,2.23 57.89,13.26 71.16,15.46 4.6,0.97 1.34,5.71 -5,8.91 -14.3,3.8 -83.66,-24.37 -66.16,-24.37 z"
       id="path19"
       style="opacity:0.150103;fill:#000000;stroke:none;stroke-width:11.0551;stroke-dasharray:none;stroke-opacity:1" /><path
       d="m 131,238.6 c 3.59,2.23 57.89,13.26 71.16,15.46 4.6,0.97 1.34,5.71 -5,8.91 -14.3,3.8 -83.66,-24.37 -66.16,-24.37 z"
       id="path2315"
       style="fill:#d4d4d4" /><path
       d="m 216.63,42.997219 53.15,53.98 c 5.04,5.149991 4.97,15.129971 2.15,17.999971 l -26.39,-21.109971 -5.19,31.259971 -22.05,-11.64 -35.31,22.31 -11.69,-47.029971 -18.97,32.819971 h -29 c -11.82,0 -13.21,-15 -2.47,-25.739971 18.76,-20.25 40.29,-40.89 51.99,-52.85 11.76,-12.02 32.25,-11.68 43.78,0 z"
       id="path7"
       style="fill:#000000;stroke:#000000;stroke-opacity:1;stroke-width:11.05505339;stroke-dasharray:none;stroke-linejoin:round;opacity:0.15013833" /><path
       d="m 216.63,42.997219 53.15,53.98 c 5.04,5.149991 4.97,15.129971 2.15,17.999971 l -26.39,-21.109971 -5.19,31.259971 -22.05,-11.64 -35.31,22.31 -11.69,-47.029971 -18.97,32.819971 h -29 c -11.82,0 -13.21,-15 -2.47,-25.739971 18.76,-20.25 40.29,-40.89 51.99,-52.85 11.76,-12.02 32.25,-11.68 43.78,0 z"
       id="path8"
       style="fill:#000000;stroke:none;stroke-opacity:1;stroke-width:11.05505339;stroke-dasharray:none;stroke-linejoin:round;opacity:0.15013833" /><path
       d="m 216.63,37.47 53.15,53.98 c 5.04,5.15 4.97,15.13 2.15,18 L 245.54,88.34 240.35,119.6 218.3,107.96 182.99,130.27 171.3,83.24 152.33,116.06 h -29 c -11.82,0 -13.21,-15 -2.47,-25.74 18.76,-20.25 40.29,-40.89 51.99,-52.85 11.76,-12.02 32.25,-11.68 43.78,0 z"
       id="path2317"
       style="fill:#abacae" /><path
       id="path2"
       style="fill:#d4d4d4"
       d="M 194.82747 28.584931 C 186.79373 28.542431 178.72691 31.460004 172.84692 37.469998 C 161.14693 49.429986 139.6244 70.066196 120.86442 90.316176 C 116.9011 94.279492 114.5921 98.824145 113.84705 102.97983 C 114.7369 107.39417 117.93407 110.53699 123.32589 110.53699 L 152.33461 110.53699 L 171.3031 77.717302 L 182.99511 124.74446 L 218.29787 102.42923 L 240.354 114.06727 L 245.53605 82.81299 L 271.93215 103.91907 C 272.74793 103.08883 273.29635 101.63418 273.59473 99.90298 C 273.13922 96.825046 271.97065 93.684372 269.78376 91.449751 L 216.63529 37.469998 C 210.8703 31.630004 202.86122 28.627431 194.82747 28.584931 z " /><path
       id="path3"
       style="fill:#fafafa"
       d="M 194.82747 28.584931 C 186.79373 28.542431 178.72691 31.460004 172.84692 37.469998 C 161.14693 49.429986 139.6244 70.066196 120.86442 90.316176 C 117.85576 93.324833 115.83133 96.67071 114.68913 99.924572 C 116.13742 102.98341 119.01734 105.00946 123.32589 105.00946 L 152.33461 105.00946 L 171.3031 72.189775 L 182.99511 119.21694 L 218.29787 96.901706 L 240.354 108.53974 L 245.53605 77.285464 L 271.93215 98.391547 C 272.31655 98.000337 272.63631 97.458225 272.90379 96.826134 C 272.24364 94.825281 271.23634 92.934038 269.78376 91.449751 L 216.63529 37.469998 C 210.8703 31.630004 202.86122 28.627431 194.82747 28.584931 z " /><path
       id="path4"
       style="fill:#fafafa"
       d="M 138.45102 240.83332 C 155.28957 248.86302 187.85973 259.90873 197.1594 257.43749 C 199.19725 256.40892 200.91524 255.2288 202.15792 254.05836 C 191.51886 252.29454 154.55921 244.86318 138.45102 240.83332 z " /><path
       id="path22"
       style="fill:none;fill-opacity:1;stroke:#000000;stroke-opacity:1;stroke-width:0;stroke-dasharray:none"
       d="M 193.61833 15.500239 C 182.36584 15.477739 171.22715 19.564222 163.15215 27.829214 L 28.807346 165.30485 C 21.221546 174.69894 17.099626 182.30392 15.539123 188.59171 C 21.973883 209.10373 68.651705 208.89997 92.395495 220.65569 C 95.596193 223.92733 93.623476 226.96517 89.415812 229.89702 C 90.405388 230.32002 91.471749 230.70279 92.395495 231.16015 C 101.11845 240.07645 72.044246 247.25897 61.367933 255.2891 C 76.806439 266.59793 130.69121 277.19532 141.85174 288.58381 C 145.35631 292.16605 144.58135 295.81409 142.14324 299.48772 C 149.52839 307.77838 134.90059 316.41064 129.27446 324.90139 C 129.39051 325.03145 129.43888 325.16015 129.56595 325.29004 C 141.29594 337.28003 168.42548 325.91705 173.50547 353.59702 C 177.04601 372.94285 220.38242 362.56757 242.99901 346.94672 C 236.85619 343.3595 226.58006 340.9521 233.83324 333.53815 C 234.26503 333.09659 234.6871 332.76028 235.11796 332.3398 C 231.47891 330.15488 229.45397 327.51003 233.83324 323.03369 C 261.68513 294.55162 287.65944 310.47243 298.64133 285.96039 C 290.69637 275.27862 259.15807 268.04732 268.95247 258.05286 C 269.52261 257.7199 270.29032 257.3997 270.90654 257.07043 C 267.17472 254.05317 265.60465 250.9646 268.95247 247.5484 C 294.93393 232.37523 369.96668 221.25665 377.916 191.70095 C 376.34944 185.30817 372.03296 178.19597 364.00002 170.16303 L 224.75385 27.829214 C 216.23886 19.654222 204.87082 15.522739 193.61833 15.500239 z M 342.12742 276.38438 C 334.12641 276.65993 326.2425 279.76305 321.40999 285.49617 C 331.01302 289.27739 355.62666 290.78198 364.44265 285.4098 C 359.38823 279.0783 350.73894 276.08781 342.12742 276.38438 z M 109.66902 305.96529 C 100.983 306.42673 92.019707 310.23333 88.260646 315.48732 C 88.979925 316.49904 89.918732 317.51945 91.099981 318.54257 C 100.95029 327.06019 115.13843 319.66468 122.89406 308.73985 C 119.24565 306.57827 114.54469 305.70627 109.66902 305.96529 z M 311.16464 306.81817 C 309.08081 308.68736 307.63686 310.55929 306.66273 312.37808 C 310.02975 317.59232 318.51153 319.89988 326.7324 315.76801 C 324.10046 312.0758 319.19859 308.45853 311.16464 306.81817 z " /><path
       d="m 193.61328,18.263672 c 10.58648,0.02117 21.2426,3.903067 29.21484,11.552734 l 0.008,0.0078 139.19922,142.279304 0.01,0.0117 c 20.92082,20.92082 15.72176,34.25078 0.53516,44.95899 -24.35481,17.17279 -74.19233,26.42333 -95.02539,38.58984 l -0.32032,0.1875 -0.25976,0.26563 c -58.72918,-1.26891 -116.71387,-7.3277 -172.59961,-26.89063 l -0.328125,-0.33398 -0.419922,-0.20899 C 76.827788,220.36621 49.508183,217.94879 32.400391,210.69336 16.80091,204.07761 9.387055,193.79955 30.898437,167.11914 L 165.12695,29.761719 c 7.50471,-7.681285 17.90748,-11.5192 28.48633,-11.498047 z"
       id="path23"
       style="opacity:0.15;fill:none;fill-opacity:1;stroke:url(#linearGradient24);stroke-width:5.52753;stroke-dasharray:none;stroke-opacity:1" /></g></svg>
