<?xml version="1.0" encoding="UTF-8" standalone="no"?>
<svg
   width="128"
   height="128"
   viewBox="0 0 128 128"
   fill="none"
   version="1.1"
   id="svg4"
   xml:space="preserve"
   xmlns:xlink="http://www.w3.org/1999/xlink"
   xmlns="http://www.w3.org/2000/svg"
   xmlns:svg="http://www.w3.org/2000/svg"><defs
     id="defs4"><linearGradient
       id="linearGradient3688-166-749-654"><stop
         offset="0"
         style="stop-color:#181818;stop-opacity:1"
         id="stop3088" /><stop
         offset="1"
         style="stop-color:#181818;stop-opacity:0"
         id="stop3090" /></linearGradient><linearGradient
       id="linearGradient3702-501-757-795"><stop
         offset="0"
         style="stop-color:#181818;stop-opacity:0"
         id="stop3100" /><stop
         offset="0.5"
         style="stop-color:#181818;stop-opacity:1"
         id="stop3102" /><stop
         offset="1"
         style="stop-color:#181818;stop-opacity:0"
         id="stop3104" /></linearGradient><linearGradient
       id="linearGradient4113"><stop
         id="stop4115"
         style="stop-color:#000000;stop-opacity:1"
         offset="0" /><stop
         id="stop4117"
         style="stop-color:#000000;stop-opacity:0"
         offset="1" /></linearGradient><linearGradient
       gradientTransform="matrix(2.7297298,0,0,2.7297298,-1.51351,1.486514)"
       gradientUnits="userSpaceOnUse"
       xlink:href="#linearGradient3924-776"
       id="linearGradient3159"
       y2="42.499989"
       x2="23.999998"
       y1="5.49999"
       x1="23.999998" /><linearGradient
       id="linearGradient3924-776"><stop
         offset="0"
         style="stop-color:#ffffff;stop-opacity:1"
         id="stop3124" /><stop
         offset="0.08792076"
         style="stop-color:#ffffff;stop-opacity:0.23529412"
         id="stop3126" /><stop
         offset="0.91089112"
         style="stop-color:#ffffff;stop-opacity:0.15686275"
         id="stop3128" /><stop
         offset="1"
         style="stop-color:#ffffff;stop-opacity:0.39215687"
         id="stop3130" /></linearGradient><radialGradient
       gradientTransform="matrix(2.003784,0,0,1.4,27.98813,-17.4)"
       gradientUnits="userSpaceOnUse"
       xlink:href="#linearGradient3688-166-749-654"
       id="radialGradient2455-1"
       fy="43.5"
       fx="4.9929786"
       r="2.5"
       cy="43.5"
       cx="4.9929786" /><radialGradient
       gradientTransform="matrix(2.003784,0,0,1.4,-20.01187,-104.4)"
       gradientUnits="userSpaceOnUse"
       xlink:href="#linearGradient3688-166-749-654"
       id="radialGradient2457-5"
       fy="43.5"
       fx="4.9929786"
       r="2.5"
       cy="43.5"
       cx="4.9929786" /><linearGradient
       gradientUnits="userSpaceOnUse"
       xlink:href="#linearGradient3702-501-757-795"
       id="linearGradient2459-7"
       y2="39.999443"
       x2="25.058096"
       y1="47.027729"
       x1="25.058096" /><radialGradient
       gradientTransform="matrix(1.5563924,0,0,0.16978827,70.27036,102.13029)"
       gradientUnits="userSpaceOnUse"
       xlink:href="#linearGradient4113"
       id="radialGradient4377"
       fy="93.467628"
       fx="-4.0287771"
       r="35.338131"
       cy="93.467628"
       cx="-4.0287771" /><style
       id="style1">.g{fill:#000;}.g,.h,.i{stroke-width:0px;}.h{fill:url(#e);}.i{fill:#fff;}</style><linearGradient
       xlink:href="#linearGradient4-5"
       id="linearGradient4"
       x1="66"
       y1="16"
       x2="66"
       y2="118.5"
       gradientUnits="userSpaceOnUse" /><style
       id="style1-6">.cls-1{fill:#fff;}</style><linearGradient
       id="linearGradient4-5"><stop
         style="stop-color:#fafafa;stop-opacity:1;"
         offset="0"
         id="stop4" /><stop
         style="stop-color:#d4d4d4;stop-opacity:1;"
         offset="1"
         id="stop5" /></linearGradient><style
       id="style1-1">.g{fill:#000;}.g,.h,.i{stroke-width:0px;}.h{fill:url(#e);}.i{fill:#fff;}</style><style
       id="style1-6-2">.cls-1{fill:#fff;}</style><style
       id="style1-67">.cls-1{fill:#fff;}</style></defs><path
     d="m 119,118 a 55,6 0 0 1 -110,0 55,6 0 1 1 110,0 z"
     id="path3041"
     style="color:#000000;display:inline;overflow:visible;visibility:visible;opacity:0.2;fill:url(#radialGradient4377);fill-opacity:1;fill-rule:nonzero;stroke:none;stroke-width:1;marker:none;enable-background:accumulate" /><g
     transform="matrix(2.6999989,0,0,0.55555607,-0.8,94.888882)"
     id="g2036"
     style="display:inline"><g
       transform="matrix(1.052632,0,0,1.285713,-1.263158,-13.42854)"
       id="g3712"
       style="opacity:0.4"><rect
         width="5"
         height="7"
         x="38"
         y="40"
         id="rect2801"
         style="fill:url(#radialGradient2455-1);fill-opacity:1;stroke:none" /><rect
         width="5"
         height="7"
         x="-10"
         y="-47"
         transform="scale(-1)"
         id="rect3696"
         style="fill:url(#radialGradient2457-5);fill-opacity:1;stroke:none" /><rect
         width="28"
         height="7.0000005"
         x="10"
         y="40"
         id="rect3700"
         style="fill:url(#linearGradient2459-7);fill-opacity:1;stroke:none" /></g></g><rect
     width="102"
     height="102"
     rx="9.5"
     ry="9.5"
     x="13"
     y="16"
     id="rect5505-21-3"
     style="color:#000000;display:inline;overflow:visible;visibility:visible;fill:url(#linearGradient4);fill-rule:nonzero;stroke:none;stroke-width:1;marker:none;enable-background:accumulate" /><rect
     width="101"
     height="101"
     rx="9"
     ry="9"
     x="13.5"
     y="16.5"
     id="rect6741-7"
     style="opacity:0.3;fill:none;stroke:url(#linearGradient3159);stroke-width:1;stroke-linecap:round;stroke-linejoin:round;stroke-miterlimit:4;stroke-dasharray:none;stroke-dashoffset:0;stroke-opacity:1" /><rect
     width="103"
     height="103"
     rx="10"
     ry="10"
     x="12.5"
     y="15.5"
     id="rect5505-21-6"
     style="color:#000000;display:inline;overflow:visible;visibility:visible;opacity:0.5;fill:none;stroke:#7e8087;stroke-width:1;stroke-linecap:round;stroke-linejoin:round;stroke-miterlimit:4;stroke-dasharray:none;stroke-dashoffset:0;stroke-opacity:1;marker:none;enable-background:accumulate" /><path
     id="path30"
     style="opacity:0.15;fill:#000000;fill-opacity:1;stroke:#000000;stroke-width:2;stroke-linecap:round;stroke-linejoin:round;stroke-dasharray:none;stroke-opacity:1"
     d="m 54,29 a 8,8 0 0 0 -8,8 8,8 0 0 0 8,8 h 8 v -8 a 8,8 0 0 0 -8,-8 z m 19.859375,0 C 69.506155,29 66,32.568004 66,37 v 20 c 0,4.431996 3.506155,8 7.859375,8 h 0.28125 C 78.493845,65 82,61.431996 82,57 V 37 c 0,-4.431996 -3.506155,-8 -7.859375,-8 z M 34,49 c -4.432,0 -8,3.568004 -8,8 0,4.431996 3.568,8 8,8 h 20 c 4.432,0 8,-3.568004 8,-8 0,-4.431996 -3.568,-8 -8,-8 z m 60,0 a 8,8 0 0 0 -8,8 v 8 h 8 a 8,8 0 0 0 8,-8 8,8 0 0 0 -8,-8 z M 34,69 a 8,8 0 0 0 -8,8 8,8 0 0 0 8,8 8,8 0 0 0 8,-8 v -8 z m 19.964844,0 C 49.551804,69 46,72.568004 46,77 v 20 c 0,4.432 3.551804,8 7.964844,8 h 0.07031 C 58.448116,105 62,101.432 62,97 V 77 c 0,-4.431996 -3.551804,-8 -7.964844,-8 z M 74,69 c -4.432,0 -8,3.499374 -8,7.847656 v 0.304688 C 66,81.500626 69.568,85 74,85 h 20 c 4.432,0 8,-3.499374 8,-7.847656 V 76.847656 C 102,72.499374 98.432,69 94,69 Z m -8,20 v 8 a 8,8 0 0 0 8,8 8,8 0 0 0 8,-8 8,8 0 0 0 -8,-8 z" /><path
     id="path17"
     style="opacity:0.15;fill:#000000;fill-opacity:1;stroke:none;stroke-width:4;stroke-linecap:round;stroke-linejoin:round;stroke-opacity:1"
     d="m 54,29 a 8,8 0 0 0 -8,8 8,8 0 0 0 8,8 h 8 v -8 a 8,8 0 0 0 -8,-8 z m 19.859375,0 C 69.506155,29 66,32.568004 66,37 v 20 c 0,4.431996 3.506155,8 7.859375,8 h 0.28125 C 78.493845,65 82,61.431996 82,57 V 37 c 0,-4.431996 -3.506155,-8 -7.859375,-8 z M 34,49 c -4.432,0 -8,3.568004 -8,8 0,4.431996 3.568,8 8,8 h 20 c 4.432,0 8,-3.568004 8,-8 0,-4.431996 -3.568,-8 -8,-8 z m 60,0 a 8,8 0 0 0 -8,8 v 8 h 8 a 8,8 0 0 0 8,-8 8,8 0 0 0 -8,-8 z M 34,69 a 8,8 0 0 0 -8,8 8,8 0 0 0 8,8 8,8 0 0 0 8,-8 v -8 z m 19.964844,0 C 49.551804,69 46,72.568004 46,77 v 20 c 0,4.432 3.551804,8 7.964844,8 h 0.07031 C 58.448116,105 62,101.432 62,97 V 77 c 0,-4.431996 -3.551804,-8 -7.964844,-8 z M 74,69 c -4.432,0 -8,3.499374 -8,7.847656 v 0.304688 C 66,81.500626 69.568,85 74,85 h 20 c 4.432,0 8,-3.499374 8,-7.847656 V 76.847656 C 102,72.499374 98.432,69 94,69 Z m -8,20 v 8 a 8,8 0 0 0 8,8 8,8 0 0 0 8,-8 8,8 0 0 0 -8,-8 z" /><path
     id="rect7-0"
     style="fill:#1882d4;fill-opacity:1;stroke:none;stroke-width:4;stroke-linecap:round;stroke-linejoin:round;stroke-opacity:1"
     d="m 54,28 a 8,8 0 0 0 -8,8 8,8 0 0 0 8,8 h 8 V 36 A 8,8 0 0 0 54,28 Z M 34,48 c -4.432,0 -8,3.568004 -8,8 0,4.431996 3.568,8 8,8 h 20 c 4.432,0 8,-3.568004 8,-8 0,-4.431996 -3.568,-8 -8,-8 z" /><path
     id="rect8-9"
     style="fill:#a91149;fill-opacity:1;stroke:none;stroke-width:4;stroke-linecap:round;stroke-linejoin:round;stroke-opacity:1"
     d="m 34,68 a 8,8 0 0 0 -8,8 8,8 0 0 0 8,8 8,8 0 0 0 8,-8 v -8 z m 19.96484,0 C 49.5518,68 46,71.568004 46,76 v 20 c 0,4.432 3.5518,8 7.96484,8 h 0.0704 C 58.4482,104 62,100.432 62,96 V 76 c 0,-4.431996 -3.5518,-8 -7.96484,-8 z" /><path
     id="rect9-3"
     style="fill:#c07b11;fill-opacity:1;stroke:none;stroke-width:4;stroke-linecap:round;stroke-linejoin:round;stroke-opacity:1"
     d="m 74,68 c -4.432,0 -8,3.499374 -8,7.847656 v 0.304688 C 66,80.500626 69.568,84 74,84 h 20 c 4.432,0 8,-3.499374 8,-7.847656 V 75.847656 C 102,71.499374 98.432,68 94,68 Z m -8,20 v 8 a 8,8 0 0 0 8,8 8,8 0 0 0 8,-8 8,8 0 0 0 -8,-8 z" /><path
     id="rect6-6"
     style="fill:#1e7a45;fill-opacity:1;stroke:none;stroke-width:4;stroke-linecap:round;stroke-linejoin:round;stroke-opacity:1"
     d="M 73.85938,28 C 69.50616,28 66,31.568004 66,36 v 20 c 0,4.431996 3.50616,8 7.85938,8 h 0.28124 C 78.49384,64 82,60.431996 82,56 V 36 c 0,-4.431996 -3.50616,-8 -7.85938,-8 z M 94,48 a 8,8 0 0 0 -8,8 v 8 h 8 a 8,8 0 0 0 8,-8 8,8 0 0 0 -8,-8 z" /><path
     id="path9"
     style="fill:#e5a40f;fill-opacity:1;stroke:none;stroke-width:4;stroke-linecap:round;stroke-linejoin:round;stroke-opacity:1"
     d="m 74,68 c -4.312328,0 -7.796858,3.315616 -7.982422,7.5 C 66.203142,79.684384 69.687672,83 74,83 h 20 c 4.312328,0 7.79686,-3.315616 7.98242,-7.5 C 101.79686,71.315616 98.312328,68 94,68 Z m -8,20 v 7 a 8,8 0 0 0 8,8 8,8 0 0 0 7.966797,-7.703125 A 8,8 0 0 0 74,88 Z" /><path
     id="path10"
     style="fill:#fcc003;fill-opacity:1;stroke:none;stroke-width:4;stroke-linecap:round;stroke-linejoin:round;stroke-opacity:1"
     d="m 74,68 c -4.139808,0 -7.524659,3.053705 -7.953125,7 0.428466,3.946295 3.813317,7 7.953125,7 h 20 c 4.139808,0 7.52466,-3.053705 7.95312,-7 C 101.52466,71.053705 98.139808,68 94,68 Z m -8,20 v 6 a 8,8 0 0 0 8,8 8,8 0 0 0 7.908203,-7.197266 A 8,8 0 0 0 74,88 Z" /><path
     id="path11"
     style="fill:#2e9850;fill-opacity:1;stroke:none;stroke-width:4;stroke-linecap:round;stroke-linejoin:round;stroke-opacity:1"
     d="M 73.859375,28 C 69.506155,28 66,31.568004 66,36 v 19 c 0,4.431996 3.506155,8 7.859375,8 h 0.28125 C 78.493845,63 82,59.431996 82,55 V 36 c 0,-4.431996 -3.506155,-8 -7.859375,-8 z M 94,48 a 8,8 0 0 0 -8,8 v 7 h 8 A 8,8 0 0 0 101.9668,55.296875 8,8 0 0 0 94,48 Z" /><path
     id="path12"
     style="fill:#41b658;fill-opacity:1;stroke:none;stroke-width:4;stroke-linecap:round;stroke-linejoin:round;stroke-opacity:1"
     d="M 73.859375,28 C 69.506155,28 66,31.568004 66,36 v 18 c 0,4.431996 3.506155,8 7.859375,8 h 0.28125 C 78.493845,62 82,58.431996 82,54 V 36 c 0,-4.431996 -3.506155,-8 -7.859375,-8 z M 94,48 a 8,8 0 0 0 -8,8 v 6 h 8 A 8,8 0 0 0 101.9082,54.802734 8,8 0 0 0 94,48 Z" /><path
     id="path13"
     style="fill:#c40d55;fill-opacity:1;stroke:none;stroke-width:4;stroke-linecap:round;stroke-linejoin:round;stroke-opacity:1"
     d="M 34,68 A 8,8 0 0 0 26.056641,75.5 8,8 0 0 0 34,83 8,8 0 0 0 42,75 v -7 z m 19.964844,0 C 49.551804,68 46,71.568004 46,76 v 19 c 0,4.432 3.551804,8 7.964844,8 h 0.07031 C 58.448116,103 62,99.432 62,95 V 76 c 0,-4.431996 -3.551804,-8 -7.964844,-8 z" /><path
     id="path14"
     style="fill:#e3066a;fill-opacity:1;stroke:none;stroke-width:4;stroke-linecap:round;stroke-linejoin:round;stroke-opacity:1"
     d="M 34,68 A 8,8 0 0 0 26.113281,75 8,8 0 0 0 34,82 8,8 0 0 0 42,74 v -6 z m 19.964844,0 C 49.551804,68 46,71.568004 46,76 v 18 c 0,4.432 3.551804,8 7.964844,8 h 0.07031 C 58.448116,102 62,98.432 62,94 V 76 c 0,-4.431996 -3.551804,-8 -7.964844,-8 z" /><path
     id="path15"
     style="fill:#1da1eb;fill-opacity:1;stroke:none;stroke-width:4;stroke-linecap:round;stroke-linejoin:round;stroke-opacity:1"
     d="M 54,28 A 8,8 0 0 0 46.056641,35.5 8,8 0 0 0 54,43 h 8 V 36 A 8,8 0 0 0 54,28 Z M 34,48 c -4.263155,0 -7.716883,3.303946 -7.974609,7.5 C 26.283117,59.696054 29.736845,63 34,63 h 20 c 4.263155,0 7.716883,-3.303946 7.974609,-7.5 C 61.716883,51.303946 58.263155,48 54,48 Z" /><path
     id="path16"
     style="fill:#1ab9ff;fill-opacity:1;stroke:none;stroke-width:4;stroke-linecap:round;stroke-linejoin:round;stroke-opacity:1"
     d="M 54,28 A 8,8 0 0 0 46.113281,35 8,8 0 0 0 54,42 h 8 V 36 A 8,8 0 0 0 54,28 Z M 34,48 c -4.092537,0 -7.441581,3.04433 -7.931641,7 0.49006,3.95567 3.839104,7 7.931641,7 h 20 c 4.092537,0 7.441581,-3.04433 7.931641,-7 C 61.441581,51.04433 58.092537,48 54,48 Z" /></svg>
