<?xml version="1.0" encoding="UTF-8" standalone="no"?>
<svg
   width="64"
   height="64"
   viewBox="0 0 64 64"
   fill="none"
   version="1.1"
   id="svg4"
   xml:space="preserve"
   xmlns:xlink="http://www.w3.org/1999/xlink"
   xmlns="http://www.w3.org/2000/svg"
   xmlns:svg="http://www.w3.org/2000/svg"><defs
     id="defs4"><linearGradient
       id="linearGradient95"
       y2="38"
       gradientUnits="userSpaceOnUse"
       x2="20"
       gradientTransform="matrix(1.5333,0,0,1.4615,-4.0667,-7.2308)"
       y1="27"
       x1="20"><stop
         style="stop-color:#3d3873;stop-opacity:1;"
         id="stop94"
         stop-color="#6db0de"
         offset="0" /><stop
         style="stop-color:#4c496d;stop-opacity:1;"
         id="stop95"
         stop-color="#a4cae4"
         offset="1" /></linearGradient><linearGradient
       id="linearGradient72"><stop
         style="stop-color:#ffffff;stop-opacity:0.79503125;"
         offset="0"
         id="stop72" /><stop
         style="stop-color:#ffffff;stop-opacity:0;"
         offset="1"
         id="stop73" /></linearGradient><linearGradient
       id="linearGradient68"><stop
         style="stop-color:#ff6f00;stop-opacity:1;"
         offset="0"
         id="stop67" /><stop
         style="stop-color:#cc5900;stop-opacity:1;"
         offset="1"
         id="stop68" /></linearGradient><radialGradient
       xlink:href="#linearGradient68"
       id="radialGradient36-4"
       cx="64"
       cy="36.966743"
       fx="64"
       fy="36.966743"
       r="33"
       gradientTransform="matrix(-0.82138706,0,0,-6.7989982,222.56876,326.86258)"
       gradientUnits="userSpaceOnUse" /><linearGradient
       xlink:href="#linearGradient72"
       id="linearGradient73"
       x1="170"
       y1="75"
       x2="170"
       y2="70"
       gradientUnits="userSpaceOnUse"
       gradientTransform="matrix(1.0744079,0,0,1.0744079,-12.649336,-5.3828384)" /><linearGradient
       xlink:href="#linearGradient95"
       id="linearGradient94"
       x1="170"
       y1="123"
       x2="169.99202"
       y2="108"
       gradientUnits="userSpaceOnUse" /><radialGradient
       xlink:href="#linearGradient24"
       id="radialGradient20-5"
       gradientUnits="userSpaceOnUse"
       gradientTransform="matrix(-0.25212975,0,1.4684323e-4,-0.07780503,-163.2261,162.07617)"
       cx="120.21644"
       cy="476.52661"
       fx="120.21644"
       fy="476.52661"
       r="33.846573" /><linearGradient
       id="linearGradient24"><stop
         style="stop-color:#000000;stop-opacity:1;"
         offset="0"
         id="stop21" /><stop
         style="stop-color:#000000;stop-opacity:0;"
         offset="0.5"
         id="stop22" /><stop
         style="stop-color:#000000;stop-opacity:0;"
         offset="1"
         id="stop23" /></linearGradient><radialGradient
       xlink:href="#linearGradient24"
       id="radialGradient14-6"
       cx="120.21644"
       cy="476.52661"
       fx="120.21644"
       fy="476.52661"
       r="33.846573"
       gradientTransform="matrix(-0.25212975,0,1.4684323e-4,-0.07780503,176.77391,162.07617)"
       gradientUnits="userSpaceOnUse" /><linearGradient
       xlink:href="#linearGradient25"
       id="linearGradient31-6"
       x1="64"
       y1="124"
       x2="64"
       y2="116"
       gradientUnits="userSpaceOnUse"
       gradientTransform="matrix(0.533358,0,0,0.65835786,135.86361,45.997056)" /><linearGradient
       id="linearGradient25"><stop
         style="stop-color:#000000;stop-opacity:0;"
         offset="0"
         id="stop28" /><stop
         style="stop-color:#000000;stop-opacity:0;"
         offset="0.25"
         id="stop33" /><stop
         style="stop-color:#000000;stop-opacity:1;"
         offset="0.5"
         id="stop31" /><stop
         style="stop-color:#000000;stop-opacity:0;"
         offset="0.75"
         id="stop32" /><stop
         style="stop-color:#000000;stop-opacity:0;"
         offset="1"
         id="stop29" /></linearGradient></defs><g
     id="g108"
     transform="translate(-138,-64)"><g
       id="g64"
       style="display:inline"
       transform="translate(-7.6293945e-6,-1)"><rect
         style="opacity:0.4;fill:url(#radialGradient20-5);stroke:none;stroke-width:0.289228;stroke-dasharray:none;stroke-opacity:0.07;paint-order:markers fill stroke"
         id="rect20-9"
         width="8.5337276"
         height="5.2668681"
         x="-202"
         y="122.36657"
         ry="0"
         transform="scale(-1,1)" /><rect
         style="opacity:0.4;fill:url(#radialGradient14-6);stroke:none;stroke-width:0.289228;stroke-dasharray:none;stroke-opacity:0.07;paint-order:markers fill stroke"
         id="rect12-3"
         width="8.5337276"
         height="5.2668681"
         x="138.00002"
         y="122.36657"
         ry="0" /><rect
         style="opacity:0.4;fill:url(#linearGradient31-6);fill-opacity:1;stroke:none;stroke-width:0.617458;stroke-linecap:round;stroke-linejoin:round;stroke-dasharray:none;stroke-opacity:0.3;paint-order:normal"
         id="rect24-9"
         width="46.935505"
         height="5.2668629"
         x="146.53078"
         y="122.36657"
         rx="0"
         ry="0" /></g><path
       id="path84"
       style="fill:#434158;fill-opacity:1;stroke:#000000;stroke-linejoin:round;stroke-opacity:0.302799"
       d="m 152.06445,107.5 c -1.4455,0 -2.70586,0.9712 -3.07812,2.36719 l -2.65625,9.95508 c -0.49706,1.86395 0.89738,3.67773 2.82617,3.67773 h 41.6875 c 1.92879,0 3.32322,-1.81381 2.82617,-3.67773 l -2.65039,-9.94141 C 190.64469,108.47521 189.37435,107.5 187.91992,107.5 Z"
       transform="translate(0,1)" /><path
       id="rect61"
       style="fill:#434158;fill-opacity:1;stroke:none;stroke-linejoin:round;stroke-opacity:0.15"
       d="m 152.06486,108 h 35.85432 a 2.7084244,2.7084244 37.534291 0 1 2.61697,2.01056 l 2.65057,9.93965 A 2.4249687,2.4249687 127.53429 0 1 190.84363,123 h -41.68726 a 2.4249687,2.4249687 52.465709 0 1 -2.34309,-3.04979 l 2.65468,-9.95507 A 2.6876431,2.6876431 142.46571 0 1 152.06486,108 Z"
       transform="translate(0,1)" /><path
       id="path86"
       style="fill:none;fill-opacity:1;stroke:url(#linearGradient94);stroke-linejoin:round;stroke-opacity:0.302799"
       d="m 152.06445,108.5 h 35.85547 c 0.99967,0 1.87728,0.67311 2.13477,1.63867 l 2.65039,9.94141 c 0.324,1.21501 -0.60356,2.41992 -1.86133,2.41992 h -41.6875 c -1.25777,0 -2.18531,-1.20499 -1.86133,-2.41992 l 2.65625,-9.95508 c 0.2552,-0.95698 1.12351,-1.625 2.11328,-1.625 z"
       transform="translate(0,1)" /><path
       id="path82"
       style="display:inline;fill:#fe6e00;fill-opacity:1;stroke:#000000;stroke-width:1;stroke-linecap:round;stroke-linejoin:round;stroke-dasharray:none;stroke-opacity:0.302799"
       d="m 170,69.460937 c -2.30321,0.0011 -4.46144,0.795853 -5.08594,2.121094 h -0.0254 L 152,113.36914 v 0.0762 c 0,5.27156 8.22534,9.25 18,9.25 9.77467,0 18,-3.97843 18,-9.25 v -0.0762 l -12.7793,-41.433593 0.01,0.03711 C 174.88121,70.4115 172.52468,69.461065 170,69.460937 Z" /><path
       id="path18-7-3"
       style="display:inline;fill:url(#radialGradient36-4);stroke:none;stroke-width:0.530299;stroke-linecap:round;stroke-linejoin:round"
       d="m 174.74278,72.082983 c -0.27019,-1.207719 -2.3123,-2.121072 -4.74279,-2.121195 -2.4289,0.0012 -4.46863,0.914261 -4.7385,2.121195 h -0.004 l -12.75735,41.363297 c 0,4.83245 7.83495,8.74991 17.49985,8.74991 9.66491,0 17.49986,-3.91746 17.49986,-8.74992 z" /><ellipse
       style="display:inline;fill:#1d1d38;fill-opacity:0.803975;stroke:none;stroke-width:0.340824;stroke-linecap:round;stroke-linejoin:round;stroke-opacity:0.3"
       id="ellipse6-9-4"
       cx="170"
       cy="72.342339"
       rx="2.7175817"
       ry="1.3423368" /><ellipse
       style="display:inline;fill:none;fill-opacity:0.146858;stroke:url(#linearGradient73);stroke-width:1;stroke-linecap:round;stroke-linejoin:round;stroke-dasharray:none;stroke-opacity:0.501599"
       id="ellipse72"
       cx="170"
       cy="72.342339"
       rx="4.7421012"
       ry="2.3423386" /><path
       id="path73"
       style="fill-opacity:0.146858;stroke:#ffffff;stroke-width:1;stroke-linecap:round;stroke-linejoin:round;stroke-dasharray:none;stroke-opacity:0.302799"
       d="m 165.55976,72.736733 -12.55975,40.823357 c -0.005,2.91384 3.23282,5.60742 8.49242,7.06564 5.25966,1.45817 11.74188,1.45932 17.00378,0.003 C 183.75816,119.17246 187,116.48007 187,113.56623 L 174.51778,73.054239" /><path
       id="path83"
       style="display:inline;fill:#ffffff;fill-opacity:1;stroke:#000000;stroke-width:1;stroke-linecap:round;stroke-linejoin:round;stroke-dasharray:none;stroke-opacity:0.302799"
       d="m 179.52734,88.402344 -0.0879,0.386718 c -0.49429,2.137537 -4.45246,3.989818 -9.43945,3.992188 -4.98412,-0.0026 -8.94004,-1.852113 -9.4375,-3.988281 l -0.0898,-0.386719 h -0.77344 l -2.47852,8.037109 v 0.07617 c -0.001,3.794711 5.88835,6.566351 12.7793,6.566411 6.89094,-6e-5 12.78056,-2.7717 12.7793,-6.566411 v -0.07617 l -2.48047,-8.041015 z" /><path
       id="path81"
       style="display:inline;fill:none;fill-opacity:0.3;stroke:#000000;stroke-width:1;stroke-linecap:round;stroke-linejoin:round;stroke-dasharray:none;stroke-opacity:0.15"
       d="m 179.92578,89.402344 -0.48633,0.386718 c -0.49429,2.137537 -4.45246,3.989818 -9.43945,3.992188 -4.98412,-0.0026 -8.94004,-1.852113 -9.4375,-3.988281 l -0.48633,-0.386719 h -0.008 l -0.47852,0.353516 -2.34765,7.613281 -0.0215,0.146484 c -10e-4,3.794739 5.88828,6.566399 12.7793,6.566409 6.89094,-6e-5 12.78057,-2.7717 12.7793,-6.566409 l -0.0215,-0.146484 -2.34961,-7.617188 -0.47851,-0.353515 z" /><path
       id="path78"
       style="display:inline;fill:#000000;fill-opacity:0.3;stroke:none;stroke-width:1.54002;stroke-linecap:round;stroke-linejoin:round;stroke-opacity:0.501599"
       d="M 179.92578,89.902 A 10,4.9394531 0 0 1 170,94.280906 a 10,4.9394531 0 0 1 -9.92383,-4.375 h -0.008 l -2.34766,7.613281 A 12.279517,6.0654101 0 0 0 170,103.5856 12.279517,6.0654101 0 0 0 182.2793,97.519187 L 179.92969,89.902 Z" /><path
       id="ellipse75"
       style="display:inline;fill:#ffffff;fill-opacity:1;stroke:none;stroke-width:1.54002;stroke-linecap:round;stroke-linejoin:round;stroke-opacity:0.501599"
       d="M 179.92578,88.902344 A 10,4.9394531 0 0 1 170,93.28125 a 10,4.9394531 0 0 1 -9.92383,-4.375 h -0.008 l -2.34766,7.613281 A 12.279517,6.0654101 0 0 0 170,102.58594 12.279517,6.0654101 0 0 0 182.2793,96.519531 l -2.34961,-7.617187 z" /></g></svg>
