<?xml version="1.0" encoding="UTF-8" standalone="no"?>
<svg
   version="1.1"
   width="16"
   height="16"
   id="svg4372"
   xml:space="preserve"
   xmlns:xlink="http://www.w3.org/1999/xlink"
   xmlns="http://www.w3.org/2000/svg"
   xmlns:svg="http://www.w3.org/2000/svg"
   xmlns:rdf="http://www.w3.org/1999/02/22-rdf-syntax-ns#"
   xmlns:cc="http://creativecommons.org/ns#"
   xmlns:dc="http://purl.org/dc/elements/1.1/"><defs
     id="defs4374"><linearGradient
       x1="23.999985"
       y1="7.1818104"
       x2="23.999985"
       y2="40.818172"
       id="linearGradient3304"
       xlink:href="#linearGradient3924-4-8"
       gradientUnits="userSpaceOnUse"
       gradientTransform="matrix(0.2972973,0,0,0.2972973,0.86486906,0.8648672)" /><linearGradient
       id="linearGradient3924-4-8"><stop
         id="stop3926-0-4"
         style="stop-color:#ffffff;stop-opacity:1"
         offset="0" /><stop
         id="stop3928-6-8"
         style="stop-color:#ffffff;stop-opacity:0.23529412"
         offset="0.10167469" /><stop
         id="stop3930-2-1"
         style="stop-color:#ffffff;stop-opacity:0.15686275"
         offset="0.95000005" /><stop
         id="stop3932-9-0"
         style="stop-color:#ffffff;stop-opacity:0.39215687"
         offset="1" /></linearGradient><linearGradient
       id="linearGradient2"><stop
         style="stop-color:#fafafa;stop-opacity:1;"
         offset="0"
         id="stop7" /><stop
         style="stop-color:#7e8087;stop-opacity:1;"
         offset="1"
         id="stop8-5" /></linearGradient><linearGradient
       id="linearGradient1"><stop
         style="stop-color:#c6262e;stop-opacity:1;"
         offset="0"
         id="stop4" /><stop
         style="stop-color:#f37329;stop-opacity:1;"
         offset="0.5"
         id="stop6" /><stop
         style="stop-color:#f9c440;stop-opacity:1;"
         offset="1"
         id="stop5" /></linearGradient><linearGradient
       id="linearGradient870"><stop
         id="stop866"
         offset="0"
         style="stop-color:#3a465a;stop-opacity:1;" /><stop
         id="stop868"
         offset="1"
         style="stop-color:#182027;stop-opacity:1;" /></linearGradient><linearGradient
       xlink:href="#linearGradient1"
       id="linearGradient3"
       gradientUnits="userSpaceOnUse"
       gradientTransform="matrix(0.29628741,0,0,0.29628741,0.5928155,0.5556889)"
       x1="25"
       y1="15"
       x2="25"
       y2="35" /><filter
       style="color-interpolation-filters:sRGB"
       id="filter3"
       x="-0.33599997"
       y="-0.1344"
       width="1.6719999"
       height="1.2688"><feGaussianBlur
         stdDeviation="0.13999999"
         id="feGaussianBlur3" /></filter><linearGradient
       xlink:href="#linearGradient870"
       id="linearGradient10"
       x1="8"
       y1="3.5"
       x2="8"
       y2="12.5"
       gradientUnits="userSpaceOnUse" /><linearGradient
       xlink:href="#linearGradient2"
       id="linearGradient13"
       x1="8"
       y1="1.5"
       x2="8"
       y2="13.999997"
       gradientUnits="userSpaceOnUse" /></defs><metadata
     id="metadata4377"><rdf:RDF><cc:Work
         rdf:about=""><dc:format>image/svg+xml</dc:format><dc:type
           rdf:resource="http://purl.org/dc/dcmitype/StillImage" /></cc:Work></rdf:RDF></metadata><rect
     width="13.000003"
     height="13.000003"
     rx="2"
     ry="2"
     x="1.5"
     y="1.499997"
     id="rect5505-21-2-8"
     style="color:#000000;display:inline;overflow:visible;visibility:visible;fill:url(#linearGradient13);stroke:#7e8087;stroke-width:1;stroke-linecap:round;stroke-linejoin:round;stroke-miterlimit:4;stroke-dasharray:none;stroke-dashoffset:0;stroke-opacity:0.5;marker:none;enable-background:accumulate" /><rect
     width="11"
     height="11"
     x="2.5"
     y="2.4999969"
     id="rect6741-0-3-5"
     style="opacity:0.3;fill:none;stroke:url(#linearGradient3304);stroke-width:1;stroke-linecap:round;stroke-linejoin:round;stroke-miterlimit:4;stroke-dasharray:none;stroke-dashoffset:0;stroke-opacity:1"
     rx="1"
     ry="1" /><rect
     style="fill:url(#linearGradient10);stroke:#091825;stroke-linejoin:round;stroke-opacity:0.498039"
     id="rect3"
     width="9"
     height="9"
     x="3.5"
     y="3.5"
     rx="0"
     ry="0" /><g
     id="layer4-0"
     transform="matrix(0.9047486,0,0,0.9047486,-534.51497,-685.56047)" /><g
     id="layer4-0-7"
     transform="matrix(0.9047486,0,0,0.9047486,-534.51497,-678.32248)" /><g
     id="layer1-3"
     transform="matrix(0.9047486,0,0,0.9047486,-37.80799,-9.5033369)" /><g
     id="layer4-0-4"
     transform="matrix(0.9047486,0,0,0.9047486,-534.51497,-685.56047)" /><g
     id="layer4-0-7-9"
     transform="matrix(0.9047486,0,0,0.9047486,-534.51497,-678.32248)" /><g
     id="layer1-3-2"
     transform="matrix(0.9047486,0,0,0.9047486,-37.80799,-9.5033369)" /><g
     id="layer4-0-3"
     transform="matrix(0.9047486,0,0,0.9047486,-534.51497,-685.56047)" /><g
     id="layer4-0-7-7"
     transform="matrix(0.9047486,0,0,0.9047486,-534.51497,-678.32248)" /><g
     id="layer1-3-5"
     transform="matrix(0.9047486,0,0,0.9047486,-37.80799,-9.5033369)" /><g
     id="layer4-0-4-9"
     transform="matrix(0.9047486,0,0,0.9047486,-534.51497,-685.56047)" /><g
     id="layer4-0-7-9-2"
     transform="matrix(0.9047486,0,0,0.9047486,-534.51497,-678.32248)" /><g
     id="layer1-3-2-2"
     transform="matrix(0.9047486,0,0,0.9047486,-37.80799,-9.5033369)" /><g
     id="g10"><path
       style="fill:url(#linearGradient3);stroke:none;stroke-width:0.296288;stroke-linejoin:round;stroke-opacity:0.497364"
       d="m 7,5 h 2 l 3,6 -2.00002,-6e-5 L 8,6.33332 6.00002,10.99994 4,11 Z"
       id="path115-9-9" /><path
       style="fill:#64baff;stroke:none;stroke-width:0.287427;stroke-linejoin:round;stroke-opacity:0.497364"
       d="M 8,7 7,9.5 8,12 9,9.5 Z"
       id="path116-3-1" /><path
       style="fill:#ffffff;fill-opacity:1;stroke:none;stroke-width:0.177772;stroke-linejoin:round;stroke-opacity:0.497364"
       d="M 8,7 7.5,8.25 8,9.5 8.5,8.25 Z"
       id="path117-1-2" /><path
       style="fill:#ffffff;fill-opacity:1;stroke:none;stroke-width:0.177772;stroke-linejoin:round;stroke-opacity:0.497364;filter:url(#filter3)"
       d="m 8,7.5000002 -0.5,1.25 L 8,10 8.5,8.7500002 Z"
       id="path3" /></g><path
     id="path16"
     style="fill:none;fill-opacity:1;stroke:#0e141f;stroke-linejoin:round;stroke-opacity:0.3"
     d="m 4,11.5 h 8 m -8,-2 h 8 m -8,-2 h 8 m -8,-2 h 8" /></svg>
