<?xml version="1.0" encoding="UTF-8" standalone="no"?>
<svg
   version="1.1"
   width="16"
   height="16"
   id="svg4372"
   xml:space="preserve"
   xmlns:xlink="http://www.w3.org/1999/xlink"
   xmlns="http://www.w3.org/2000/svg"
   xmlns:svg="http://www.w3.org/2000/svg"
   xmlns:rdf="http://www.w3.org/1999/02/22-rdf-syntax-ns#"
   xmlns:cc="http://creativecommons.org/ns#"
   xmlns:dc="http://purl.org/dc/elements/1.1/"><defs
     id="defs4374"><linearGradient
       id="linearGradient10"><stop
         offset="0"
         style="stop-color:#ffffff;stop-opacity:1"
         id="stop7" /><stop
         offset="0.125"
         style="stop-color:#ffffff;stop-opacity:0.23529412"
         id="stop8" /><stop
         offset="0.875"
         style="stop-color:#ffffff;stop-opacity:0.15686275"
         id="stop9" /><stop
         offset="1"
         style="stop-color:#ffffff;stop-opacity:0.39215687"
         id="stop10" /></linearGradient><style
       id="style1">.g{fill:#000;}.g,.h,.i{stroke-width:0px;}.h{fill:url(#e);}.i{fill:#fff;}</style><style
       id="style1-7">.g{fill:#000;}.g,.h,.i{stroke-width:0px;}.h{fill:url(#e);}.i{fill:#fff;}</style><style
       id="style1-5">.g{fill:#000;}.g,.h,.i{stroke-width:0px;}.h{fill:url(#e);}.i{fill:#fff;}</style><style
       id="style1-53">.g{fill:#000;}.g,.h,.i{stroke-width:0px;}.h{fill:url(#e);}.i{fill:#fff;}</style><style
       id="style1-6">.cls-1{fill:#fff;}</style><style
       id="style1-67">.cls-1{fill:#fff;}</style><linearGradient
       id="linearGradient2"><stop
         style="stop-color:#5865f2;stop-opacity:1;"
         offset="0"
         id="stop3-3" /><stop
         style="stop-color:#1f30f4;stop-opacity:1;"
         offset="1"
         id="stop4-5" /></linearGradient><style
       id="style1-675">.g{fill:#000;}.g,.h,.i{stroke-width:0px;}.h{fill:url(#e);}.i{fill:#fff;}</style><style
       id="style1-6-3">.cls-1{fill:#fff;}</style><linearGradient
       xlink:href="#linearGradient10"
       id="linearGradient7"
       x1="8"
       y1="2"
       x2="8"
       y2="14"
       gradientUnits="userSpaceOnUse" /><linearGradient
       xlink:href="#linearGradient2"
       id="linearGradient12"
       x1="8"
       y1="1"
       x2="8"
       y2="15"
       gradientUnits="userSpaceOnUse" /></defs><metadata
     id="metadata4377"><rdf:RDF><cc:Work
         rdf:about=""><dc:format>image/svg+xml</dc:format><dc:type
           rdf:resource="http://purl.org/dc/dcmitype/StillImage" /></cc:Work></rdf:RDF></metadata><path
     d="M 8,0.5 C 3.8578644,0.5 0.5,3.8578644 0.5,8 0.5,12.142136 3.8578644,15.5 8,15.5 8.7319196,15.4986 9.4596864,15.389985 10.160156,15.177734 10.575714,15.387667 11.034429,15.498 11.5,15.5 c 0.868737,-0.0041 1.693054,-0.384518 2.259766,-1.042969 -0.366206,-0.08139 -0.696763,-0.340965 -0.927735,-0.728515 0.632029,-0.537101 1.170588,-1.17532 1.59375,-1.888672 0.180596,-0.300964 0.339841,-0.614234 0.476563,-0.9375 C 15.292601,9.9842707 15.495784,8.9975675 15.5,8 15.5,3.8578644 12.142136,0.5 8,0.5 Z"
     style="opacity:1;fill:url(#linearGradient12);stroke:#0a0f9f;stroke-linejoin:round;stroke-opacity:0.5"
     id="path4" /><path
     class="cls-1"
     d="m 11.297404,5.0029559 a 7.8568734,7.8568734 0 0 0 -1.9599231,-0.6029954 5.384368,5.384368 0 0 0 -0.25106,0.5103416 7.2987104,7.2987104 0 0 0 -2.1751172,0 A 5.4075315,5.4075315 0 0 0 6.6602424,4.3999605 7.9121667,7.9121668 0 0 0 4.6988274,5.0044504 C 3.4584649,6.8395889 3.1222216,8.6291476 3.2903412,10.393302 v 0 a 7.9002114,7.9002114 0 0 0 2.4037625,1.206737 5.8057924,5.8057924 0 0 0 0.5148262,-0.830146 5.112385,5.112385 0 0 1 -0.8107187,-0.387052 c 0.067995,-0.04932 0.1344975,-0.100126 0.1987562,-0.149442 a 5.6466375,5.6466375 0 0 0 4.8060316,0 c 0.06501,0.05305 0.131507,0.103862 0.198755,0.149442 a 5.1318121,5.1318121 0 0 1 -0.8122131,0.3878 5.7534879,5.7534879 0 0 0 0.5148271,0.829399 7.8643454,7.8643454 0 0 0 2.405257,-1.205991 v 0 C 12.906886,8.348198 12.372636,6.5750778 11.297404,5.0029559 Z M 6.4218837,9.308358 c -0.4684988,0 -0.8555513,-0.4251602 -0.8555513,-0.9482046 0,-0.5230441 0.3736038,-0.9519408 0.8540563,-0.9519408 0.4804537,0 0.8645192,0.4288967 0.8562992,0.9519408 -0.0082,0.5230444 -0.3773405,0.9482046 -0.8548042,0.9482046 z m 3.1561972,0 c -0.469243,0 -0.854802,-0.4251602 -0.854802,-0.9482046 0,-0.5230441 0.373602,-0.9519408 0.854802,-0.9519408 0.4812021,0 0.8622781,0.4288967 0.8540581,0.9519408 -0.0082,0.5230444 -0.376591,0.9482046 -0.8540581,0.9482046 z"
     id="path1-5-2"
     style="fill:#ffffff;stroke-width:0.0747205" /><circle
     style="opacity:0.3;fill:none;fill-opacity:1;stroke:url(#linearGradient7);stroke-linejoin:round;stroke-opacity:1"
     id="path5"
     cx="8"
     cy="8"
     r="6.5" /></svg>
