<?xml version="1.0" encoding="UTF-8" standalone="no"?>
<svg
   version="1.1"
   width="16"
   height="16"
   id="svg4372"
   xml:space="preserve"
   xmlns:xlink="http://www.w3.org/1999/xlink"
   xmlns="http://www.w3.org/2000/svg"
   xmlns:svg="http://www.w3.org/2000/svg"
   xmlns:rdf="http://www.w3.org/1999/02/22-rdf-syntax-ns#"
   xmlns:cc="http://creativecommons.org/ns#"
   xmlns:dc="http://purl.org/dc/elements/1.1/"><defs
     id="defs4374"><linearGradient
       id="linearGradient13"><stop
         id="stop12"
         offset="0"
         style="stop-color:#9e79e9;stop-opacity:1;" /><stop
         id="stop15"
         offset="0.58870816"
         style="stop-color:#8555e6;stop-opacity:1;" /><stop
         id="stop13"
         offset="1"
         style="stop-color:#9e79e9;stop-opacity:1;" /></linearGradient><linearGradient
       x1="23.999985"
       y1="7.1818104"
       x2="23.999985"
       y2="40.818172"
       id="linearGradient3304"
       xlink:href="#linearGradient3924-4-8"
       gradientUnits="userSpaceOnUse"
       gradientTransform="matrix(0.2972973,0,0,0.2972973,0.86486906,0.8648672)" /><linearGradient
       id="linearGradient3924-4-8"><stop
         id="stop3926-0-4"
         style="stop-color:#ffffff;stop-opacity:1"
         offset="0" /><stop
         id="stop3928-6-8"
         style="stop-color:#ffffff;stop-opacity:0.23529412"
         offset="0.0469543" /><stop
         id="stop3930-2-1"
         style="stop-color:#ffffff;stop-opacity:0.15686275"
         offset="0.95000005" /><stop
         id="stop3932-9-0"
         style="stop-color:#ffffff;stop-opacity:0.39215687"
         offset="1" /></linearGradient><linearGradient
       xlink:href="#linearGradient13"
       id="linearGradient867"
       x1="8"
       y1="2"
       x2="8"
       y2="14"
       gradientUnits="userSpaceOnUse" /><style
       id="style1">.g{fill:#000;}.g,.h,.i{stroke-width:0px;}.h{fill:url(#e);}.i{fill:#fff;}</style><style
       id="style1-7">.g{fill:#000;}.g,.h,.i{stroke-width:0px;}.h{fill:url(#e);}.i{fill:#fff;}</style><style
       id="style1-5">.g{fill:#000;}.g,.h,.i{stroke-width:0px;}.h{fill:url(#e);}.i{fill:#fff;}</style><style
       id="style1-53">.g{fill:#000;}.g,.h,.i{stroke-width:0px;}.h{fill:url(#e);}.i{fill:#fff;}</style><style
       id="style1-6">.cls-1{fill:#fff;}</style><style
       id="style1-67">.cls-1{fill:#fff;}</style><style
       id="style1-535">.g{fill:#000;}.g,.h,.i{stroke-width:0px;}.h{fill:url(#e);}.i{fill:#fff;}</style><style
       id="style1-7-6">.g{fill:#000;}.g,.h,.i{stroke-width:0px;}.h{fill:url(#e);}.i{fill:#fff;}</style><style
       id="style1-5-2">.g{fill:#000;}.g,.h,.i{stroke-width:0px;}.h{fill:url(#e);}.i{fill:#fff;}</style><style
       id="style1-53-2">.g{fill:#000;}.g,.h,.i{stroke-width:0px;}.h{fill:url(#e);}.i{fill:#fff;}</style><style
       id="style1-6-7">.cls-1{fill:#fff;}</style><style
       id="style1-67-0">.cls-1{fill:#fff;}</style><linearGradient
       id="linearGradient28"><stop
         style="stop-color:#ffffff;stop-opacity:0.44612002;"
         offset="0"
         id="stop28" /><stop
         style="stop-color:#ffffff;stop-opacity:0;"
         offset="1"
         id="stop29" /></linearGradient><linearGradient
       xlink:href="#linearGradient28"
       id="linearGradient12"
       x1="8"
       y1="6.8513064"
       x2="8.3532209"
       y2="3"
       gradientUnits="userSpaceOnUse" /></defs><metadata
     id="metadata4377"><rdf:RDF><cc:Work
         rdf:about=""><dc:format>image/svg+xml</dc:format><dc:type
           rdf:resource="http://purl.org/dc/dcmitype/StillImage" /></cc:Work></rdf:RDF></metadata><rect
     width="13"
     height="13"
     rx="2"
     ry="2"
     x="1.5"
     y="1.5"
     id="rect5505-21-2"
     style="color:#000000;display:inline;overflow:visible;visibility:visible;fill:url(#linearGradient867);fill-rule:nonzero;stroke:#2f106c;stroke-width:1;stroke-opacity:0.501961;marker:none;enable-background:accumulate" /><path
     style="opacity:1;fill:url(#linearGradient12);stroke:none;stroke-width:2;stroke-linecap:square;stroke-linejoin:round;stroke-dasharray:none;stroke-opacity:1"
     d="M 5.310547,7.6640625 3,7 V 3.5 A 0.5,0.5 135 0 1 3.5,3 l 9,0 A 0.5,0.5 45 0 1 13,3.5 V 6 L 10.581276,6.4891119 9.5140566,4.4824219 8.5,3.5 Z"
     id="path11" /><path
     id="path9"
     style="opacity:0.15;fill:#000000;fill-opacity:1;stroke:#0c0c0c;stroke-width:2;stroke-linejoin:round;stroke-dasharray:none;stroke-opacity:1"
     d="M 8.262143,4.2890625 C 8.116348,4.2910292 7.9715522,4.3434159 7.8539399,4.4492188 L 5.9203461,6.1875 C 5.8125806,6.2844609 5.7427368,6.4152499 5.7211274,6.5585938 5.6760781,6.8572701 5.6158675,7.288291 5.5629243,7.6425781 6.0466625,7.9597366 6.7102948,8.4960634 7.1078461,9.3574219 7.1318989,9.4095359 7.1545305,9.4632425 7.1762055,9.5175781 7.3545371,9.4863532 7.5361381,9.4626737 7.7191743,9.4511719 7.2758386,7.9082359 7.6312875,6.8926655 8.0297211,6.1953125 8.2560692,5.7991502 8.4599109,5.4976774 8.5472993,5.2304688 8.6315431,4.9728752 8.6506746,4.7393326 8.4828461,4.3261719 8.4118853,4.3007049 8.3371233,4.288051 8.262143,4.2890625 Z m 1.2519531,1.1933594 c -0.00568,0.019298 -0.00943,0.039661 -0.015625,0.058594 C 9.3479063,6.0014002 9.0957654,6.3467785 8.8988618,6.6914062 8.521554,7.351784 8.2204796,7.9806094 8.7953461,9.5332031 8.9590883,9.5711656 9.1220648,9.6213053 9.2836274,9.6875 c 0.6594893,0.2702029 1.2597666,0.791916 1.7402346,1.603516 0.2665,-0.410263 0.462093,-0.731426 0.572265,-0.917969 0.06532,-0.110531 0.0539,-0.24907 -0.02344,-0.351563 C 11.371151,9.7544375 10.985956,9.2115078 10.775815,8.7089844 10.559837,8.1923516 10.527715,7.3906797 10.525815,7 10.525135,6.8515 10.478994,6.7065624 10.387143,6.5898438 Z M 5.2719087,8.6640625 C 4.9695015,9.3421567 4.4164399,10.558594 4.4164399,10.558594 4.311536,10.792383 4.3590336,11.06618 4.5375337,11.25 l 1.421875,1.462891 C 6.6018015,11.343609 6.5047322,10.438368 6.199643,9.7773438 5.9750583,9.2907453 5.611246,8.9259198 5.2719087,8.6640625 Z m 2.7226562,1.7792965 c -0.1913542,-0.0011 -0.3866506,0.01513 -0.5859375,0.04687 0.07058,0.751954 -0.074695,1.640788 -0.546875,2.650391 0.2600118,0.01972 0.6050979,0.04639 0.6621094,0.05078 0.6185157,0.04753 1.3067187,0.303203 1.9003906,0.466797 0.4166719,0.11557 0.8348746,-0.21993 0.8925776,-0.648437 0.02689,-0.199873 0.07109,-0.416038 0.136719,-0.632813 -2.39e-4,-5.59e-4 2.4e-4,-0.0014 0,-0.002 C 10.00562,11.330635 9.4686459,10.84433 8.9047211,10.613281 8.6199632,10.496612 8.3134886,10.445259 7.9945649,10.443359 Z" /><path
     id="path6"
     style="opacity:0.15;fill:#000000;fill-opacity:1;stroke:none;stroke-width:0.023;stroke-dasharray:none"
     d="M 8.2621041,4.2890625 C 8.1163091,4.2910292 7.9715133,4.3434159 7.853901,4.4492188 L 5.9203072,6.1875 C 5.8125417,6.2844609 5.7426979,6.4152499 5.7210885,6.5585938 5.6760392,6.8572701 5.6158286,7.288291 5.5628854,7.6425781 6.0466236,7.9597366 6.7102559,8.4960634 7.1078072,9.3574219 7.13186,9.4095359 7.1544916,9.4632425 7.1761666,9.5175781 7.3544982,9.4863532 7.5360992,9.4626737 7.7191354,9.4511719 7.2757997,7.9082359 7.6312486,6.8926655 8.0296822,6.1953125 8.2560303,5.7991502 8.459872,5.4976774 8.5472604,5.2304688 8.6315042,4.9728752 8.6506357,4.7393326 8.4828072,4.3261719 8.4118464,4.3007049 8.3370844,4.288051 8.2621041,4.2890625 Z m 1.2519531,1.1933594 c -0.00568,0.019298 -0.00943,0.039661 -0.015625,0.058594 C 9.3478674,6.0014002 9.0957265,6.3467785 8.8988229,6.6914062 8.5215151,7.351784 8.2204407,7.9806094 8.7953072,9.5332031 8.9590494,9.5711656 9.1220259,9.6213053 9.2835885,9.6875 c 0.6594893,0.2702029 1.2597665,0.791916 1.7402345,1.603516 0.2665,-0.410263 0.462093,-0.731426 0.572265,-0.917969 0.06532,-0.110531 0.0539,-0.24907 -0.02344,-0.351563 C 11.371112,9.7544375 10.985917,9.2115078 10.775776,8.7089844 10.559798,8.1923516 10.527676,7.3906797 10.525776,7 10.525096,6.8515 10.478956,6.7065624 10.387104,6.5898438 Z M 5.2718698,8.6640625 C 4.9694626,9.3421567 4.416401,10.558594 4.416401,10.558594 4.3114971,10.792383 4.3589947,11.06618 4.5374948,11.25 l 1.421875,1.462891 C 6.6017626,11.343609 6.5046933,10.438368 6.1996041,9.7773438 5.9750194,9.2907453 5.6112071,8.9259198 5.2718698,8.6640625 Z M 7.994526,10.443359 c -0.1913542,-0.0011 -0.3866506,0.01513 -0.5859375,0.04687 0.07058,0.751954 -0.074695,1.640788 -0.546875,2.650391 0.2600118,0.01972 0.6050979,0.04639 0.6621094,0.05078 0.6185157,0.04753 1.3067187,0.303203 1.9003906,0.466797 0.4166719,0.11557 0.8348755,-0.21993 0.8925785,-0.648437 0.02689,-0.199873 0.07109,-0.416038 0.136718,-0.632813 -2.39e-4,-5.59e-4 2.4e-4,-0.0014 0,-0.002 C 10.005581,11.330635 9.468607,10.84433 8.9046822,10.613281 8.6199243,10.496612 8.3134497,10.445259 7.994526,10.443359 Z" /><rect
     width="11"
     height="11"
     x="2.5"
     y="2.4999969"
     id="rect6741-0-3-5"
     style="opacity:0.5;fill:none;stroke:url(#linearGradient3304);stroke-width:1;stroke-linecap:round;stroke-linejoin:round;stroke-miterlimit:4;stroke-dasharray:none;stroke-dashoffset:0;stroke-opacity:1"
     rx="1"
     ry="1" /><path
     id="path1"
     style="fill:#e8e2ea;fill-opacity:1;stroke:none;stroke-width:0.023;stroke-dasharray:none"
     d="m 8.2621035,3.2890625 c -0.145795,0.00197 -0.2905908,0.054353 -0.4082031,0.1601563 L 5.9203066,5.1875 C 5.8125411,5.2844609 5.7426973,5.4152499 5.7210879,5.5585938 5.6760386,5.8572701 5.615828,6.288291 5.5628848,6.6425781 6.046623,6.9597366 6.7102553,7.4960634 7.1078066,8.3574219 7.1318594,8.4095359 7.154491,8.4632425 7.176166,8.5175781 7.3544976,8.4863532 7.5360986,8.4626737 7.7191348,8.4511719 7.2757991,6.9082359 7.631248,5.8926655 8.0296816,5.1953125 8.2560297,4.7991502 8.4598714,4.4976774 8.5472598,4.2304688 8.6315036,3.9728752 8.6506351,3.7393326 8.4828066,3.3261719 8.4118458,3.3007049 8.3370838,3.288051 8.2621035,3.2890625 Z m 1.2519531,1.1933594 c -0.00568,0.019298 -0.00943,0.039661 -0.015625,0.058594 C 9.3478668,5.0014002 9.0957259,5.3467785 8.8988223,5.6914062 8.5215145,6.351784 8.2204401,6.9806094 8.7953066,8.5332031 8.9590488,8.5711656 9.1220253,8.6213053 9.2835879,8.6875 9.9430772,8.9577029 10.543354,9.4794156 11.023822,10.291016 11.290322,9.8807526 11.485915,9.55959 11.596087,9.3730469 11.661407,9.2625156 11.64999,9.1239765 11.57265,9.0214844 11.371111,8.7544375 10.985916,8.2115078 10.775775,7.7089844 10.559797,7.1923516 10.527675,6.3906797 10.525775,6 10.525096,5.8515 10.478955,5.7065624 10.387104,5.5898438 Z M 5.2718692,7.6640625 C 4.969462,8.3421567 4.4164004,9.5585938 4.4164004,9.5585938 4.3114965,9.7923827 4.3589941,10.06618 4.5374942,10.25 l 1.421875,1.462891 C 6.601762,10.343609 6.5046927,9.4383676 6.1996035,8.7773438 5.9750188,8.2907453 5.6112065,7.9259198 5.2718692,7.6640625 Z m 2.7226562,1.7792969 c -0.1913542,-0.00114 -0.3866506,0.015132 -0.5859375,0.046875 0.07058,0.7519536 -0.074695,1.6407876 -0.546875,2.6503906 0.2600118,0.01972 0.6050979,0.04639 0.6621094,0.05078 0.6185157,0.04753 1.3067187,0.303203 1.9003906,0.466797 0.4166719,0.11557 0.8348751,-0.21993 0.8925781,-0.648437 0.02689,-0.199873 0.07109,-0.416038 0.136719,-0.632813 -2.4e-4,-5.59e-4 2.39e-4,-0.0014 0,-0.002 C 10.005581,10.330635 9.4686064,9.8443299 8.9046816,9.6132812 8.6199237,9.4966116 8.3134491,9.4452592 7.9945254,9.4433594 Z" /><g
     id="layer4-0"
     transform="matrix(0.9047486,0,0,0.9047486,-492.51497,-685.56047)" /><g
     id="layer4-0-7"
     transform="matrix(0.9047486,0,0,0.9047486,-492.51497,-678.32248)" /><g
     id="layer1-3"
     transform="matrix(0.9047486,0,0,0.9047486,4.19201,-9.5033369)" /><g
     id="layer4-0-4"
     transform="matrix(0.9047486,0,0,0.9047486,-492.51497,-685.56047)" /><g
     id="layer4-0-7-9"
     transform="matrix(0.9047486,0,0,0.9047486,-492.51497,-678.32248)" /><g
     id="layer1-3-2"
     transform="matrix(0.9047486,0,0,0.9047486,4.19201,-9.5033369)" /><path
     id="path5"
     style="fill:#fafafa;fill-opacity:1;stroke:none;stroke-width:0.0234375"
     d="M 8.3007813,3.2890625 C 8.1549864,3.2910292 8.0101906,3.3434158 7.8925782,3.4492188 L 5.9589844,5.1875 C 5.8512189,5.284461 5.7813751,5.4152499 5.7597657,5.5585938 c -0.00722,0.047897 -0.017479,0.1199868 -0.025391,0.1738281 0.4670303,0.3251432 1.0493312,0.838983 1.4121093,1.625 0.024053,0.052114 0.046684,0.1058206 0.068359,0.1601562 C 7.3320281,7.4970598 7.4508253,7.4814378 7.5703126,7.46875 7.5425394,7.1549606 7.5525032,6.8692065 7.5859376,6.6074219 7.4565205,5.5242145 7.7475627,4.7567826 8.0683594,4.1953125 8.2585437,3.8624455 8.4324788,3.5963401 8.5351563,3.3613281 8.5304324,3.3491912 8.526545,3.3386299 8.5214844,3.3261719 8.4505237,3.3007049 8.3757616,3.288051 8.3007813,3.2890625 Z m 1.2519531,1.1933594 c -0.00568,0.019298 -0.00943,0.039661 -0.015625,0.058594 C 9.3865448,5.0014002 9.1344037,5.3467785 8.9375002,5.6914062 8.7796029,5.9677635 8.6370398,6.238899 8.5644533,6.5742188 8.6129511,6.8510557 8.6977896,7.1653696 8.8339844,7.5332031 8.9977266,7.5711656 9.1607032,7.6213053 9.3222658,7.6875 9.9817551,7.9577029 10.582032,8.4794152 11.0625,9.2910156 11.19789,9.0825901 11.315224,8.8986521 11.412109,8.7421875 11.212257,8.4557764 10.967042,8.0738796 10.814453,7.7089844 10.598475,7.1923516 10.566353,6.3906797 10.564453,6 10.563774,5.8515 10.517633,5.7065623 10.425781,5.5898438 Z M 5.310547,7.6640625 C 5.0551941,8.2366458 4.716791,8.9798958 4.5878907,9.2636719 L 5.998047,10.712891 C 6.2327041,10.212711 6.3684189,9.7757285 6.4316407,9.3886719 6.3903595,9.1631938 6.322861,8.9605989 6.2382813,8.7773438 6.0136966,8.2907452 5.6498842,7.9259198 5.310547,7.6640625 Z m 2.7226563,1.7792969 c -0.1913543,-0.00114 -0.3866507,0.015132 -0.5859376,0.046875 0.046924,0.4999197 -0.00512,1.0615476 -0.1816406,1.6777346 0.1077832,0.0083 0.2713079,0.02147 0.296875,0.02344 0.6185158,0.04753 1.3067187,0.303203 1.9003907,0.466797 0.4001661,0.110992 0.8005112,-0.19374 0.8828122,-0.597656 C 9.9292777,10.231228 9.4470203,9.8196389 8.9433594,9.6132812 8.6586017,9.4966117 8.3521269,9.4452592 8.0332033,9.4433594 Z" /></svg>
