<?xml version="1.0" encoding="UTF-8" standalone="no"?>
<svg
   version="1.1"
   width="16"
   height="16"
   id="svg4372"
   xml:space="preserve"
   xmlns:xlink="http://www.w3.org/1999/xlink"
   xmlns="http://www.w3.org/2000/svg"
   xmlns:svg="http://www.w3.org/2000/svg"
   xmlns:rdf="http://www.w3.org/1999/02/22-rdf-syntax-ns#"
   xmlns:cc="http://creativecommons.org/ns#"
   xmlns:dc="http://purl.org/dc/elements/1.1/"><defs
     id="defs4374"><linearGradient
       id="linearGradient64"><stop
         style="stop-color:#ffffff;stop-opacity:1;"
         offset="0"
         id="stop74" /><stop
         style="stop-color:#ffffff;stop-opacity:0;"
         offset="1"
         id="stop75" /></linearGradient><linearGradient
       id="linearGradient44"><stop
         id="stop35"
         style="stop-color:#ffffff;stop-opacity:1"
         offset="0" /><stop
         id="stop36"
         style="stop-color:#ffffff;stop-opacity:0.23529412"
         offset="0.0625" /><stop
         id="stop41"
         style="stop-color:#ffffff;stop-opacity:0.15686275"
         offset="0.9375" /><stop
         id="stop42"
         style="stop-color:#ffffff;stop-opacity:0.39215687"
         offset="1" /></linearGradient><linearGradient
       x1="23.999985"
       y1="7.1818104"
       x2="23.999985"
       y2="40.818172"
       id="linearGradient3304"
       xlink:href="#linearGradient3924-4-8"
       gradientUnits="userSpaceOnUse"
       gradientTransform="matrix(0.2972973,0,0,0.2972973,0.86486906,0.8648672)" /><linearGradient
       id="linearGradient3924-4-8"><stop
         id="stop3926-0-4"
         style="stop-color:#ffffff;stop-opacity:1"
         offset="0" /><stop
         id="stop3928-6-8"
         style="stop-color:#ffffff;stop-opacity:0.23529412"
         offset="0.0469543" /><stop
         id="stop3930-2-1"
         style="stop-color:#ffffff;stop-opacity:0.15686275"
         offset="0.95000005" /><stop
         id="stop3932-9-0"
         style="stop-color:#ffffff;stop-opacity:0.39215687"
         offset="1" /></linearGradient><linearGradient
       xlink:href="#linearGradient4"
       id="linearGradient867"
       x1="7.9050331"
       y1="1.5559154"
       x2="7.9050331"
       y2="14.459918"
       gradientUnits="userSpaceOnUse" /><style
       id="style1">.g{fill:#000;}.g,.h,.i{stroke-width:0px;}.h{fill:url(#e);}.i{fill:#fff;}</style><style
       id="style1-7">.g{fill:#000;}.g,.h,.i{stroke-width:0px;}.h{fill:url(#e);}.i{fill:#fff;}</style><style
       id="style1-5">.g{fill:#000;}.g,.h,.i{stroke-width:0px;}.h{fill:url(#e);}.i{fill:#fff;}</style><linearGradient
       id="linearGradient20"><stop
         style="stop-color:#ed5353;stop-opacity:1;"
         offset="0"
         id="stop27" /><stop
         style="stop-color:#c6262e;stop-opacity:1;"
         offset="1"
         id="stop28-9" /></linearGradient><linearGradient
       id="linearGradient18"><stop
         style="stop-color:#000000;stop-opacity:0;"
         offset="0"
         id="stop13" /><stop
         style="stop-color:#000000;stop-opacity:0.49581695;"
         offset="0.21002617"
         id="stop14" /><stop
         style="stop-color:#000000;stop-opacity:1;"
         offset="0.5"
         id="stop15" /><stop
         style="stop-color:#000000;stop-opacity:0.5;"
         offset="0.9222222"
         id="stop16" /><stop
         style="stop-color:#000000;stop-opacity:0;"
         offset="1"
         id="stop17" /></linearGradient><linearGradient
       id="linearGradient10"><stop
         style="stop-color:#000000;stop-opacity:0;"
         offset="0"
         id="stop1" /><stop
         style="stop-color:#000000;stop-opacity:0.49581695;"
         offset="0.07777778"
         id="stop2" /><stop
         style="stop-color:#000000;stop-opacity:1;"
         offset="0.5"
         id="stop3-2" /><stop
         style="stop-color:#000000;stop-opacity:0.5;"
         offset="0.9222222"
         id="stop6" /><stop
         style="stop-color:#000000;stop-opacity:0;"
         offset="1"
         id="stop7-7" /></linearGradient><linearGradient
       id="linearGradient4"><stop
         style="stop-color:#fafafa;stop-opacity:1;"
         offset="0"
         id="stop4" /><stop
         style="stop-color:#d4d4d4;stop-opacity:1;"
         offset="1"
         id="stop5" /></linearGradient><style
       id="style1-59">.g{fill:#000;}.g,.h,.i{stroke-width:0px;}.h{fill:url(#e);}.i{fill:#fff;}</style><style
       id="style1-6">.cls-1{fill:#fff;}</style><style
       id="style1-67">.cls-1{fill:#fff;}</style><linearGradient
       xlink:href="#linearGradient10"
       id="linearGradient24"
       x1="3"
       y1="12.5"
       x2="13"
       y2="12.5"
       gradientUnits="userSpaceOnUse" /><linearGradient
       xlink:href="#linearGradient44"
       id="linearGradient26"
       gradientUnits="userSpaceOnUse"
       gradientTransform="matrix(0.2972973,0,0,0.2972973,0.86486906,0.8648672)"
       x1="23.999985"
       y1="7.1818104"
       x2="23.999985"
       y2="34.0909" /><linearGradient
       xlink:href="#linearGradient4"
       id="linearGradient58"
       x1="8"
       y1="2.0097656"
       x2="8"
       y2="12"
       gradientUnits="userSpaceOnUse" /><linearGradient
       xlink:href="#linearGradient18"
       id="linearGradient60"
       x1="7.3792782"
       y1="13.499997"
       x2="15.258419"
       y2="10.367849"
       gradientUnits="userSpaceOnUse" /><linearGradient
       xlink:href="#linearGradient20"
       id="linearGradient61"
       gradientUnits="userSpaceOnUse"
       gradientTransform="matrix(0.2475,0,0,0.2475,0.0500005,0.28749945)"
       x1="32.5"
       y1="15"
       x2="32.5"
       y2="46" /><linearGradient
       xlink:href="#linearGradient64"
       id="linearGradient75"
       x1="14.427734"
       y1="11.048828"
       x2="12"
       y2="7.8432364"
       gradientUnits="userSpaceOnUse" /></defs><metadata
     id="metadata4377"><rdf:RDF><cc:Work
         rdf:about=""><dc:format>image/svg+xml</dc:format><dc:type
           rdf:resource="http://purl.org/dc/dcmitype/StillImage" /></cc:Work></rdf:RDF></metadata><g
     id="layer1"><rect
       style="fill:#ffe16b;fill-opacity:1;stroke:#d48e15;stroke-linecap:butt;stroke-linejoin:round;stroke-opacity:0.50382"
       id="rect60-3"
       width="2"
       height="3"
       x="0.5"
       y="7.5"
       rx="0"
       ry="0" /><rect
       style="opacity:1;fill:#ed5353;fill-opacity:1;stroke:#a10705;stroke-linecap:butt;stroke-linejoin:round;stroke-opacity:0.50382"
       id="rect61"
       width="2"
       height="3"
       x="0.5"
       y="-10.5"
       rx="0"
       ry="0"
       transform="rotate(90)" /><rect
       style="opacity:1;fill:#64baff;fill-opacity:1;stroke:#0d52bf;stroke-linecap:butt;stroke-linejoin:round;stroke-opacity:0.50382"
       id="rect60"
       width="2"
       height="3"
       x="13.5"
       y="3.5"
       rx="0"
       ry="0" /><path
       id="rect5505-21-2"
       style="display:inline;overflow:visible;fill:url(#linearGradient867);marker:none;enable-background:accumulate"
       d="m 3.5,2.0097656 h 9 c 0.834282,0 1.490234,0.6559528 1.490234,1.4902344 v 9 c 0,0.834282 -0.655952,1.490234 -1.490234,1.490234 h -9 c -0.8342816,0 -1.4902344,-0.655952 -1.4902344,-1.490234 v -9 C 2.0097656,2.6657184 2.6657184,2.0097656 3.5,2.0097656 Z" /><path
       id="rect6741-0-3-5"
       style="opacity:1;fill:none;stroke:url(#linearGradient3304);stroke-linecap:round;stroke-linejoin:round"
       d="m 2.5,11.5 v 0.999997 c 0,0.554 0.446,1 1,1 h 9 c 0.554,0 1,-0.446 1,-1 V 11.5" /><path
       style="opacity:0.250345;fill:none;stroke:url(#linearGradient24);stroke-linecap:butt;stroke-linejoin:round;stroke-opacity:1"
       d="M 3,12.5 H 13"
       id="path1" /><path
       id="path46"
       style="opacity:1;fill:url(#linearGradient58);fill-opacity:1;stroke:none;stroke-linecap:round;stroke-linejoin:round"
       d="M 3.5,2 C 2.671224,2 2,2.671224 2,3.5 v 7 c 0,0.828776 0.671224,1.5 1.5,1.5 3.4707073,0 7.717226,0 10.927734,-0.951172 l 0.41797,-0.982422 C 13.990234,8 14,6.5000031 14,3.5 14,2.671224 13.328776,2 12.5,2 Z" /><path
       id="rect24"
       style="opacity:1;fill:none;stroke:url(#linearGradient26);stroke-linecap:round;stroke-linejoin:round"
       d="m 3.5,2.4999969 h 9 c 0.554,0 1,0.446 1,1 C 13.5,6.5 13.5,8.5 14.5,10.5 c -3.416743,1.020625 -7.5,1 -11,1 -0.554,0 -1,-0.446 -1,-1 V 3.4999969 c 0,-0.554 0.446,-1 1,-1 z" /><path
       id="path45"
       style="opacity:0.25003;fill:none;stroke:url(#linearGradient60);stroke-linecap:round;stroke-linejoin:round;stroke-opacity:0.498207"
       d="m 3.5,12.5 c 3.4414453,0 7.714187,0.02626 11.287109,-1.041016" /><path
       id="rect5505-21-2-8"
       style="color:#000000;display:inline;overflow:visible;visibility:visible;opacity:0.5;fill:none;stroke:#7e8087;stroke-width:1;stroke-linecap:round;stroke-linejoin:round;stroke-miterlimit:4;stroke-dasharray:none;stroke-dashoffset:0;stroke-opacity:1;marker:none;enable-background:accumulate"
       d="m 3.5,1.5 c -1.107745,0 -2,0.892255 -2,2 v 7 2 c 0,1.108 0.892,2 2,2 h 9 c 1.108,0 2,-0.892 2,-2 v -0.960938 c 0.09561,-0.02676 0.192455,-0.0518 0.287109,-0.08008 l 0.607422,-1.40625 C 14.513788,8.2912483 14.5,6.5000031 14.5,3.5 c 0,-1.107745 -0.892255,-2 -2,-2 z" /></g><g
     id="layer4-0"
     transform="matrix(0.9047486,0,0,0.9047486,-568.51497,-685.56047)" /><g
     id="layer4-0-7"
     transform="matrix(0.9047486,0,0,0.9047486,-568.51497,-678.32248)" /><g
     id="layer1-3"
     transform="matrix(0.9047486,0,0,0.9047486,-71.80799,-9.5033369)" /><path
     style="opacity:1;fill:url(#linearGradient75);stroke:none;stroke-linecap:butt;stroke-linejoin:round;stroke-opacity:0.50382"
     d="M 14.845704,10.066406 C 14.382424,8.9493445 13.98535,7.6235863 14,5 11.294159,7.7858952 8.6487631,9.8524004 6,11.958984 c 2.5891405,-0.112355 4.872748,0.04047 8.427734,-0.910156 z"
     id="path64" /><path
     style="font-weight:bold;font-size:42.6667px;font-family:Inter;-inkscape-font-specification:'Inter Bold';letter-spacing:0px;opacity:0.150394;fill:#000000;stroke-width:0.2475;stroke-linecap:round;stroke-linejoin:round;stroke-opacity:0.5"
     d="m 5.5,11.958984 c 1.8953285,-0.0066 3.6910429,-0.04365 5,-0.281273 L 11.5,9.5 C 9.5,10 8.4656718,10 7.4656718,10 L 11,7 10.5,5.0117914 5.5,5 v 2 h 3 L 5,10 Z"
     id="path61"
     aria-label="Z" /><path
     style="font-weight:bold;font-size:42.6667px;font-family:Inter;-inkscape-font-specification:'Inter Bold';letter-spacing:0px;fill:url(#linearGradient61);stroke-width:0.2475;stroke-linecap:round;stroke-linejoin:round;stroke-opacity:0.5"
     d="m 5.5,10.958984 c 1.8953285,-0.0066 3.6910429,-0.04365 5,-0.281273 L 11.5,8.5 C 9.5,9 8.4656718,9 7.4656718,9 L 11,6 10.5,4.0117914 5.5,4 v 2 h 3 L 5,9 Z"
     id="path2-4-2-9"
     aria-label="Z" /></svg>
