<?xml version="1.0" encoding="UTF-8" standalone="no"?>
<svg
   version="1.1"
   width="16"
   height="16"
   id="svg4372"
   xml:space="preserve"
   xmlns:xlink="http://www.w3.org/1999/xlink"
   xmlns="http://www.w3.org/2000/svg"
   xmlns:svg="http://www.w3.org/2000/svg"
   xmlns:rdf="http://www.w3.org/1999/02/22-rdf-syntax-ns#"
   xmlns:cc="http://creativecommons.org/ns#"
   xmlns:dc="http://purl.org/dc/elements/1.1/"><defs
     id="defs4374"><linearGradient
       x1="23.999985"
       y1="7.1818104"
       x2="23.999985"
       y2="40.818172"
       id="linearGradient3304"
       xlink:href="#linearGradient3924-4-8"
       gradientUnits="userSpaceOnUse"
       gradientTransform="matrix(0.2972973,0,0,0.2972973,0.86486906,0.8648672)" /><linearGradient
       id="linearGradient3924-4-8"><stop
         id="stop3926-0-4"
         style="stop-color:#ffffff;stop-opacity:1"
         offset="0" /><stop
         id="stop3928-6-8"
         style="stop-color:#ffffff;stop-opacity:0.23529412"
         offset="0.0469543" /><stop
         id="stop3930-2-1"
         style="stop-color:#ffffff;stop-opacity:0.15686275"
         offset="0.95000005" /><stop
         id="stop3932-9-0"
         style="stop-color:#ffffff;stop-opacity:0.39215687"
         offset="1" /></linearGradient><linearGradient
       xlink:href="#linearGradient4-6"
       id="linearGradient867"
       x1="8"
       y1="2"
       x2="8"
       y2="14"
       gradientUnits="userSpaceOnUse" /><style
       id="style1">.g{fill:#000;}.g,.h,.i{stroke-width:0px;}.h{fill:url(#e);}.i{fill:#fff;}</style><style
       id="style1-7">.g{fill:#000;}.g,.h,.i{stroke-width:0px;}.h{fill:url(#e);}.i{fill:#fff;}</style><style
       id="style1-5">.g{fill:#000;}.g,.h,.i{stroke-width:0px;}.h{fill:url(#e);}.i{fill:#fff;}</style><linearGradient
       id="linearGradient4-6"><stop
         style="stop-color:#fafafa;stop-opacity:1;"
         offset="0"
         id="stop4-7" /><stop
         style="stop-color:#d4d4d4;stop-opacity:1;"
         offset="1"
         id="stop5" /></linearGradient><style
       id="style1-53">.g{fill:#000;}.g,.h,.i{stroke-width:0px;}.h{fill:url(#e);}.i{fill:#fff;}</style><style
       id="style1-6">.cls-1{fill:#fff;}</style><style
       id="style1-67">.cls-1{fill:#fff;}</style></defs><metadata
     id="metadata4377"><rdf:RDF><cc:Work
         rdf:about=""><dc:format>image/svg+xml</dc:format><dc:type
           rdf:resource="http://purl.org/dc/dcmitype/StillImage" /></cc:Work></rdf:RDF></metadata><rect
     width="12"
     height="12"
     rx="1.5"
     ry="1.5"
     x="2"
     y="2"
     id="rect5505-21-2"
     style="color:#000000;display:inline;overflow:visible;visibility:visible;fill:url(#linearGradient867);fill-rule:nonzero;stroke:none;stroke-width:1;marker:none;enable-background:accumulate" /><rect
     width="11"
     height="11"
     x="2.5"
     y="2.4999969"
     id="rect6741-0-3-5"
     style="opacity:1;fill:none;stroke:url(#linearGradient3304);stroke-width:1;stroke-linecap:round;stroke-linejoin:round;stroke-miterlimit:4;stroke-dasharray:none;stroke-dashoffset:0;stroke-opacity:1"
     rx="1"
     ry="1" /><rect
     width="13.000003"
     height="13.000003"
     rx="2"
     ry="2"
     x="1.5"
     y="1.499997"
     id="rect5505-21-2-8"
     style="color:#000000;display:inline;overflow:visible;visibility:visible;opacity:0.5;fill:none;stroke:#7e8087;stroke-width:1;stroke-linecap:round;stroke-linejoin:round;stroke-miterlimit:4;stroke-dasharray:none;stroke-dashoffset:0;stroke-opacity:1;marker:none;enable-background:accumulate" /><path
     id="path28"
     style="opacity:0.15;fill:#000000;fill-opacity:1;stroke:none;stroke-width:2;stroke-linejoin:round"
     d="M 6,4 C 5.4477153,4 5,4.447715 5,5 5,5.552285 5.4477153,6 6,6 H 7 V 5 C 7,4.447715 6.5522847,4 6,4 Z M 9,4 C 8.4477153,4 8,4.4477153 8,5 V 7 C 8,7.5522847 8.4477153,8 9,8 9.5522847,8 10,7.5522847 10,7 V 5 C 10,4.4477153 9.5522847,4 9,4 Z m 3,2 c -0.552285,0 -1,0.4477153 -1,1 v 1 h 1 C 12.552285,8 13,7.5522847 13,7 13,6.4477153 12.552285,6 12,6 Z M 4,7 C 3.447715,7 3,7.447715 3,8 3,8.552285 3.447715,9 4,9 H 6 C 6.5522847,9 7,8.552285 7,8 7,7.447715 6.5522847,7 6,7 Z m 6,2 c -0.5522847,0 -1,0.4477153 -1,1 0,0.552285 0.4477153,1 1,1 h 2 c 0.552285,0 1,-0.447715 1,-1 0,-0.5522847 -0.447715,-1 -1,-1 z m -6,1 c -0.552285,0 -1,0.447715 -1,1 0,0.552285 0.447715,1 1,1 0.552285,0 1,-0.447715 1,-1 v -1 z m 3,0 c -0.552285,0 -1,0.447715 -1,1 v 2 c 0,0.552285 0.447715,1 1,1 0.552285,0 1,-0.447715 1,-1 V 11 C 8,10.447715 7.552285,10 7,10 Z m 2,2 v 1 c 0,0.552285 0.4477153,1 1,1 0.552285,0 1,-0.447715 1,-1 0,-0.552285 -0.447715,-1 -1,-1 z" /><path
     id="path18"
     style="opacity:1;fill:#2e9850;fill-opacity:1;stroke:none;stroke-width:2;stroke-linejoin:round"
     d="M 9,3 C 8.4477153,3 8,3.4477153 8,4 V 6 C 8,6.5522847 8.4477153,7 9,7 9.5522847,7 10,6.5522847 10,6 V 4 C 10,3.4477153 9.5522847,3 9,3 Z m 3,2 c -0.552285,0 -1,0.4477153 -1,1 v 1 h 1 C 12.552285,7 13,6.5522847 13,6 13,5.4477153 12.552285,5 12,5 Z" /><path
     id="path21"
     style="opacity:1;fill:#e5a40f;fill-opacity:1;stroke:none;stroke-width:2;stroke-linejoin:round"
     d="M 13,9 C 13,8.4477153 12.552285,8 12,8 H 10 C 9.4477153,8 9,8.4477153 9,9 c 0,0.5522847 0.4477153,1 1,1 h 2 c 0.552285,0 1,-0.4477153 1,-1 z m -2,3 c 0,-0.552285 -0.447715,-1 -1,-1 H 9 v 1 c 0,0.552285 0.4477153,1 1,1 0.552285,0 1,-0.447715 1,-1 z" /><path
     id="path22"
     style="opacity:1;fill:#c40d55;fill-opacity:1;stroke:none;stroke-width:2;stroke-linejoin:round"
     d="m 7,13 c 0.552285,0 1,-0.447715 1,-1 V 10 C 8,9.4477153 7.552285,9 7,9 6.447715,9 6,9.4477153 6,10 v 2 c 0,0.552285 0.447715,1 1,1 z M 4,11 c 0.552285,0 1,-0.447715 1,-1 V 9 H 4 c -0.552285,0 -1,0.4477153 -1,1 0,0.552285 0.447715,1 1,1 z" /><path
     id="path23"
     style="opacity:1;fill:#1da1eb;fill-opacity:1;stroke:none;stroke-width:2;stroke-linejoin:round"
     d="M 3,7 C 3,7.552285 3.447715,8 4,8 H 6 C 6.5522847,8 7,7.552285 7,7 7,6.447715 6.5522847,6 6,6 H 4 C 3.447715,6 3,6.447715 3,7 Z M 5,4 C 5,4.552285 5.4477153,5 6,5 H 7 V 4 C 7,3.447715 6.5522847,3 6,3 5.4477153,3 5,3.447715 5,4 Z" /><path
     id="path24"
     style="opacity:1;fill:#41b658;fill-opacity:1;stroke:none;stroke-width:2;stroke-linejoin:round"
     d="M 9,3 C 8.4477153,3 8,3.4477153 8,4 V 5 C 8,5.5522847 8.4477153,6 9,6 9.5522847,6 10,5.5522847 10,5 V 4 C 10,3.4477153 9.5522847,3 9,3 Z m 3,2 c -0.552285,0 -1,0.4477153 -1,1 h 1 C 12.369885,6 12.692242,5.7985587 12.865234,5.5 12.692242,5.2014413 12.369885,5 12,5 Z" /><path
     id="path25"
     style="opacity:1;fill:#1ab9ff;fill-opacity:1;stroke:none;stroke-width:2;stroke-linejoin:round"
     d="M 6,3 C 5.6301149,3 5.3077584,3.2014413 5.1347656,3.5 5.3077584,3.7985587 5.6301149,4 6,4 H 7 C 7,3.447715 6.5522847,3 6,3 Z M 4,6 C 3.6301147,6 3.3077584,6.2014413 3.1347656,6.5 3.3077584,6.7985587 3.6301147,7 4,7 H 6 C 6.3698851,7 6.6922416,6.7985587 6.8652344,6.5 6.6922416,6.2014413 6.3698851,6 6,6 Z" /><path
     id="path26"
     style="opacity:1;fill:#e3066a;fill-opacity:1;stroke:none;stroke-width:2;stroke-linejoin:round"
     d="M 4,9 C 3.6301147,9 3.3077584,9.2014413 3.1347656,9.5 3.3077584,9.7985587 3.6301147,10 4,10 4.552285,10 5,9.552285 5,9 Z M 7,9 C 6.447715,9 6,9.4477153 6,10 v 1 c 0,0.552285 0.447715,1 1,1 0.552285,0 1,-0.447715 1,-1 V 10 C 8,9.4477153 7.552285,9 7,9 Z" /><path
     id="path27"
     style="opacity:1;fill:#fcc003;fill-opacity:1;stroke:none;stroke-width:2;stroke-linejoin:round"
     d="M 10,8 C 9.6301149,8 9.3077584,8.2014413 9.1347656,8.5 9.3077584,8.7985587 9.6301149,9 10,9 h 2 C 12.369885,9 12.692242,8.7985587 12.865234,8.5 12.692242,8.2014413 12.369885,8 12,8 Z m -1,3 c 0,0.552285 0.4477153,1 1,1 0.369885,0 0.692242,-0.201441 0.865234,-0.5 C 10.692242,11.201441 10.369885,11 10,11 Z" /></svg>
